<?xml version="1.0" encoding="UTF-8" standalone="no"?>
<!-- (c) ammap.com | SVG map of Bahrain - High -->

<svg
   version="1.1"
   id="svg20"
   sodipodi:docname="vector.svg"
   width="1024"
   height="1024"
   inkscape:version="1.1.2 (b8e25be8, 2022-02-05)"
   xmlns:inkscape="http://www.inkscape.org/namespaces/inkscape"
   xmlns:sodipodi="http://sodipodi.sourceforge.net/DTD/sodipodi-0.dtd"
   xmlns="http://www.w3.org/2000/svg"
   xmlns:svg="http://www.w3.org/2000/svg"
   xmlns:amcharts="http://amcharts.com/ammap">
  <sodipodi:namedview
     id="namedview22"
     pagecolor="#ffffff"
     bordercolor="#666666"
     borderopacity="1.0"
     inkscape:pageshadow="2"
     inkscape:pageopacity="0.0"
     inkscape:pagecheckerboard="0"
     showgrid="false"
     width="1024px"
     inkscape:zoom="1.2479178"
     inkscape:cx="373.02137"
     inkscape:cy="218.76441"
     inkscape:window-width="1512"
     inkscape:window-height="872"
     inkscape:window-x="0"
     inkscape:window-y="38"
     inkscape:window-maximized="0"
     inkscape:current-layer="g18" />
  <defs
     id="defs11">
    <style
       type="text/css"
       id="style9">
			.land
			{
				fill: #CCCCCC;
				fill-opacity: 1;
				stroke:white;
				stroke-opacity: 1;
				stroke-width:0.5;
			}
		</style>
    <amcharts:ammap
       projection="mercator"
       leftLongitude="50.229512"
       topLatitude="26.288813"
       rightLongitude="50.824924"
       bottomLatitude="25.571749" />
    <!-- All areas are listed in the line below. You can use this list in your script. -->
    <!--{id:"BH-13"},{id:"BH-14"},{id:"BH-15"},{id:"BH-16"},{id:"BH-17"}-->
  </defs>
  <g
     id="g18"
     transform="matrix(1.6596244,0,0,1.6596244,150.15353,8.1209288)"
     style="fill:#000000;fill-opacity:1;stroke:#000000;stroke-opacity:1;stroke-width:1.80763792;stroke-miterlimit:4;stroke-dasharray:none">
    <path
       id="BH-13"
       title="Al ‘Āşimah"
       class="land"
       d="m 220.17,46.17 0.5,-0.95 5.58,0.24 -0.43,2.38 -2.14,0.71 2.79,0.24 -0.21,-0.95 1.07,-1.43 -0.21,-0.95 1.93,-0.24 0.86,0.95 1.93,0.24 h 0.43 l -0.21,-0.71 0.43,-0.24 h 1.07 l 0.64,0.95 -0.43,0.95 0.43,0.48 0.86,-0.48 -0.21,-1.19 h 0.43 l 0.43,0.95 -0.21,0.95 h -0.43 l 0.22,1.19 1.29,1.19 v 0.48 l -1.5,-0.48 v 0.95 l 1.72,0.48 0.64,-0.48 1.5,0.24 0.43,2.38 1.93,0.24 v -0.71 l -0.86,-0.47 1.07,-0.24 1.06,0.47 -0.41,-0.71 1.29,-0.47 -0.43,-0.48 0.43,-0.71 1.29,0.24 0.86,-0.71 0.21,0.71 h 2.57 l 0.21,1.43 1.07,0.24 v 1.19 h -0.86 v 1.16 l 1.28,-0.71 0.22,-0.95 0.86,-0.24 h 0.43 v 0.71 l -1.29,0.47 h 0.64 l 0.22,0.71 h 0.86 l -0.21,-0.48 1.29,0.24 1.07,-0.71 -0.64,-0.71 1.28,-1.43 -0.64,-2.14 0.86,0.48 v -0.48 l 0.86,0.24 1.71,-0.71 1.93,-1.66 -0.64,-1.19 1.71,0.24 0.22,-0.71 1.5,0.24 0.43,-0.95 h 0.64 l -0.21,-0.95 -0.86,-0.24 1.07,-1.43 h 0.86 l 0.86,2.14 0.86,0.24 0.86,-1.9 1.07,-1.19 h 0.86 l 0.43,-1.19 h 2.14 l 0.43,-0.95 3.22,-0.71 1.93,-1.43 3,-4.52 1.72,-6.66 h 0.86 l 0.22,0.71 -1.72,4.52 -0.21,2.62 -1.29,2.38 0.43,1.67 4.08,1.66 h 1.5 l 0.43,0.95 -0.43,0.95 h 0.86 l -0.21,1.66 0.64,0.24 -1.07,2.14 0.86,2.85 -0.43,1.66 0.86,1.43 -1.5,0.95 v 1.66 l -1.28,2.14 v 1.19 l 0.65,0.95 h 0.86 l 1.72,-1.19 2.57,0.24 0.21,1.43 0.43,-0.24 -0.21,-1.66 2.79,0.71 v 1.43 l 0.86,0.48 0.65,2.38 h 0.64 l 0.21,-1.66 h 0.43 l -0.21,-1.9 2.36,-0.24 -0.22,1.43 h -0.64 l -0.21,0.71 0.21,0.95 1.07,0.24 -0.43,0.95 h 1.29 l 0.64,-1.19 3.43,0.71 0.86,6.18 -2.14,2.61 -2.36,1.43 -1.5,2.14 3.43,2.14 1.71,1.9 -5.14,-2.38 -1.07,0.24 -0.86,-0.47 v -0.95 h -0.64 l -0.21,0.95 -1.07,0.71 -3,-1.43 -0.43,1.9 2.15,0.24 -0.21,1.43 -1.71,0.24 -1.72,-1.19 -1.29,0.95 -2.14,-0.71 0.21,0.71 -0.86,0.71 -3.43,1.43 -0.21,-0.71 -0.86,0.24 -0.64,-0.95 -1.29,0.24 -0.43,-0.47 -0.21,-2.38 h -2.57 l 0.86,-1.9 v -0.48 l -1.07,0.24 0.64,-1.19 -3.86,-0.47 -1.29,-1.9 h -0.65 l -0.86,1.43 -1.29,-0.71 -0.86,1.19 h -1.29 l -0.21,0.95 -2.36,0.24 0.22,1.19 h -1.07 v 0.48 h -3.43 v -1.19 h -2.36 l -0.21,2.38 h 2.36 v 0.71 l -2.35,0.48 v 0 l -4.29,-12.52 -4.39,-6.7 -3.17,-1.68 -2.72,2.01 -4.99,1.84 -5.44,1.17 -7.26,-1.17 -4.23,-1.67 -0.6,-2.52 0.91,-1.84 2.12,-2.01 0.3,-2.35 z m 54.52,37.08 1.08,0.24 -1.07,2.61 0.65,0.24 1.07,2.85 0.86,0.47 2.14,-0.24 0.43,2.14 -1.07,1.19 0.64,3.09 -1.28,-1.19 -3,-0.95 -2.57,2.61 h -2.78 V 91.8 l 1.5,-0.24 -1.29,-2.14 v -0.95 l 1.93,-3.09 1.5,-0.48 v -1.42 z m -37.52,-37.56 0.43,0.71 2.79,0.24 0.43,2.85 h 1.07 l -0.43,-0.95 1.5,0.48 0.22,2.14 -1.29,0.48 -0.86,-0.48 v 0.71 h -1.07 v -1.43 l -1.5,-1.43 -0.64,0.24 v 0.71 h -0.64 l -0.21,-0.95 h -1.07 l 0.43,-0.71 -0.43,-0.95 1.08,-0.71 -0.43,-0.95 z m 1.5,-9.03 0.86,2.14 0.86,-0.47 -0.43,-0.95 h 1.29 l -0.21,1.9 -1.29,1.43 -3.64,0.71 0.21,-1.43 -0.86,-0.71 0.64,-0.48 v -1.19 z m 11.58,11.65 0.21,2.62 -1.5,0.24 -0.43,-1.9 0.86,-0.95 h 0.86 z"
       style="fill:#000000;fill-opacity:1;stroke:#000000;stroke-opacity:1;stroke-width:1.80763792;stroke-miterlimit:4;stroke-dasharray:none" />
    <path
       id="BH-14"
       title="Al Janūbīyah"
       class="land"
       d="m 435.06,575.59 0.22,0.24 -0.21,0.94 -1.5,0.24 -0.64,-0.47 0.22,-0.71 z m -17.15,-4.02 0.43,1.66 0.43,0.47 h 0.64 l -0.43,0.48 0.43,1.18 0.43,-0.24 v -1.18 l 1.07,0.47 -0.43,5.68 h -1.07 v -0.23 l -1.93,0.24 -0.86,0.47 -0.21,0.47 -0.86,0.24 -0.22,0.47 h -0.43 l -0.21,0.47 -0.86,0.24 -0.21,0.47 h -0.43 l -0.22,0.47 h -0.43 l -0.21,0.47 h -0.43 l -1.29,1.18 -0.65,2.13 1.29,0.71 0.65,0.95 h 0.43 v 0.71 l -1.5,0.71 -0.21,0.47 -0.86,0.47 0.64,0.95 -1.29,0.71 -0.64,1.42 0.43,0.95 -2.57,1.18 -1.07,1.42 v 1.18 l 0.64,0.95 1.29,0.24 -0.43,0.95 2.14,1.18 0.86,1.18 h 1.07 l 0.64,0.71 0.86,0.24 0.22,0.47 1.5,0.47 1.07,1.18 h 0.65 l 0.21,0.47 1.93,0.71 1.93,1.89 h 0.86 v 0.24 l 1.29,-0.23 0.86,0.94 0.43,0.95 -0.23,0.45 h -0.43 l -0.21,-0.71 -0.86,-0.23 -0.86,-0.71 h -0.86 l -0.43,-0.71 -1.07,-0.47 -0.43,-0.71 -1.93,-0.71 -0.86,-0.47 -0.21,-0.47 h -1.07 l -2.14,-1.18 -2.14,-0.24 -0.43,-0.47 h -1.93 l -0.86,-0.71 -1.72,-0.23 -0.86,-0.95 v -0.71 l -0.43,-0.47 -0.86,-0.47 h -2.14 l -0.21,-1.89 -1.72,-0.23 v -0.71 l -0.64,-0.47 v -0.47 l -0.65,-0.47 -0.21,-0.71 0.64,-5.91 1.5,-0.24 v -1.42 l -0.86,-0.47 v -1.65 l 0.43,-0.47 h 0.65 l 0.64,-1.42 h 0.64 l 0.65,-0.47 v -0.95 h 0.22 l -0.21,-2.13 0.43,-0.71 0.64,-0.24 0.22,-1.42 1.29,-0.94 v -0.95 l 0.22,-0.24 h 2.36 l 0.64,-0.47 0.22,-0.94 h 1.29 l 0.22,-0.47 1.28,-0.71 h 0.43 v 0.95 h -0.21 l 0.22,0.71 h 0.65 l 0.21,-0.24 -0.21,-0.71 1.07,-0.47 0.21,-0.47 0.65,0.47 1.29,0.24 0.64,-0.95 0.22,-1.65 z m 8.36,-1.42 0.21,0.24 -0.21,1.42 h -0.86 l -1.07,-0.71 v -0.94 h 1.93 z m -0.22,-11.59 v 0.24 h 0.64 l 0.22,0.95 h 0.65 l 0.21,0.71 0.65,0.47 -0.21,0.71 -0.43,0.24 v 0.95 l -1.71,0.24 -0.43,-0.47 0.43,-0.23 0.22,-0.71 h -0.86 v 0.95 l -0.43,0.71 h -1.29 l -0.65,-0.94 -0.64,-0.24 0.22,-0.94 0.64,-0.47 v -0.47 h 1.29 l 0.22,-1.42 z m 7.08,-22.23 0.64,0.47 h 2.14 v 1.42 l 0.86,1.42 v 1.42 h -0.64 l -0.43,-1.19 -0.86,-0.47 -0.43,-0.71 -1.07,-0.23 -0.43,0.47 v 1.42 l -1.07,2.37 0.22,1.18 h 0.86 l 0.22,-0.47 v -0.47 l -0.64,-0.24 0.65,-1.65 h 1.93 l 0.22,1.18 -0.64,0.71 1.5,2.6 v 0.47 l -3.22,-0.47 0.86,1.89 0.43,0.24 v 0.48 h 1.93 l 0.22,0.47 0.22,-1.18 1.29,-0.24 0.64,-2.13 h 1.5 l 0.43,-0.23 v -0.71 l 0.64,0.23 0.65,-0.71 1.93,1.18 h 0.64 l 0.22,0.71 h 1.72 v 0.24 l 1.29,-0.23 0.21,-0.71 1.72,0.24 0.43,-0.47 v 0.47 h 0.64 l 0.22,2.13 0.64,0.24 v 0.71 l 1.93,0.24 0.43,0.71 0.86,0.47 0.64,1.89 -0.21,1.42 -3.43,3.79 0.86,0.95 1.07,0.47 0.43,0.95 -0.86,1.89 -1.72,-0.24 v 0.71 h -2.36 v 0.24 h -0.86 l -0.64,0.47 h -0.86 v 0.24 h -0.64 l -0.86,0.47 -0.21,0.47 -0.86,0.24 -0.21,0.47 h -0.86 l -1.28,-0.94 0.43,-1.65 1.29,-0.47 0.22,-0.24 -0.22,-0.47 h -2.57 l -0.22,-0.24 v 0.48 h -2.36 l -0.21,0.71 -2.15,0.47 -1.93,2.36 -0.86,-0.23 -0.21,-0.47 -1.29,-0.71 -0.21,-0.47 0.22,-3.07 -1.71,-2.13 -0.64,-2.84 0.86,-0.23 0.22,0.95 0.86,-0.23 0.22,-2.13 1.5,-0.23 0.43,-1.18 0.43,-0.23 -0.64,-0.71 h -1.29 v -0.95 l -2.36,-1.65 v -0.71 l 1.29,-2.84 -1.07,-0.47 -0.64,1.18 h -0.86 l -0.86,-0.94 h -0.43 l -0.64,-0.71 0.21,-0.24 -0.21,-1.89 -1.5,-1.42 -0.21,-0.71 h 0.86 l 0.22,-0.94 h 0.86 l 0.43,0.94 2.36,0.24 v -0.24 h 0.65 l -0.21,-1.18 0.43,-0.71 h 1.5 l 0.22,-0.47 h 1.15 z m -11.79,-6.39 v 0.47 l 1.29,0.47 0.22,1.19 0.64,0.95 v 1.18 h 1.07 l 0.22,0.71 -0.64,0.71 h -1.07 v 0.24 h -2.57 l -1.07,1.66 -0.21,-0.47 h -0.43 v -0.95 l -1.29,-0.71 -0.21,-1.89 0.22,-0.23 h 2.14 l 0.65,-1.18 -0.21,-1.19 0.43,-0.94 h 0.82 z m 7.5,-7.09 0.43,0.24 0.22,0.95 h -0.43 l -0.21,0.71 h -0.43 l -0.21,0.47 h -0.43 v -0.71 l -1.07,-1.42 0.22,-0.23 H 428 v 0.24 z m -12.65,-4.26 0.43,0.71 0.64,0.24 v 0.95 l -0.43,0.47 -0.86,-0.24 v -0.47 l -0.64,-0.24 0.22,-1.18 z m 35.38,-5.44 0.43,0.95 -0.43,2.6 1.5,0.47 0.86,0.48 0.22,0.47 h 1.71 l 1.29,1.18 -0.21,0.95 h 0.64 l 1.07,0.71 -0.86,0.95 -0.64,-0.24 -0.43,0.48 v 1.42 l -0.86,0.95 0.22,2.37 -1.29,1.18 v 0.48 l -1.5,0.47 v 0.24 H 452 l -0.21,0.71 h -2.36 l -0.86,0.71 h -0.43 l -0.21,0.71 -1.29,0.47 -0.43,1.19 h -1.29 l -0.64,-0.71 -1.5,-0.71 0.86,-0.47 v -1.66 l -0.65,-0.71 h -0.43 l -0.21,-0.71 -1.07,0.24 v -0.47 l -0.65,-0.47 v -0.47 l -0.64,-0.71 v -1.89 l 0.22,0.24 0.86,-0.24 v -1.42 h 0.43 l -0.21,-1.18 h 0.64 l 0.22,-0.23 -0.21,-0.71 0.43,-0.47 h 0.86 l 0.22,-0.71 5.36,-0.71 0.22,-5.68 h 2.54 z m -11.8,-5.21 0.22,0.71 -0.43,0.47 h -1.07 v 0.23 l -0.64,-0.23 0.43,-0.95 z m -0.42,-5.44 v 0.24 h 1.5 l 0.86,0.47 h -0.43 l -0.43,0.71 -1.93,-0.24 -0.43,-0.94 z m -4.72,-25.09 0.21,1.89 -1.93,0.24 -0.43,-0.47 0.22,-0.71 0.86,-0.24 0.43,-0.71 z m 5.79,-1.89 -0.43,0.95 v 0.95 l 0.22,0.71 0.64,0.24 0.22,0.47 -0.64,0.48 -0.43,0.95 -1.72,0.71 -0.64,1.42 -0.64,0.47 v 0.47 l -0.64,0.71 0.65,1.19 1.5,-0.24 v 1.18 h -0.43 l -0.43,0.71 v 1.42 l 0.64,0.94 v 2.37 h -0.43 l -0.86,1.18 -0.86,0.24 -0.43,0.48 0.21,0.71 -0.21,0.95 -1.72,0.95 -0.43,0.95 v 1.42 l -0.64,1.42 -4.07,0.47 -1.28,0.71 -0.21,0.95 0.86,0.24 V 503 l 0.64,0.47 v 0.48 l -1.28,-0.71 h -0.64 l -1.07,1.66 -0.22,2.6 -0.43,0.24 v 0.71 l 0.64,0.47 v 0.71 l 0.64,0.24 0.43,-0.95 1.72,-0.23 -0.21,-0.94 0.86,-0.71 0.22,-0.95 h 0.86 l 0.22,0.47 h 0.43 l 0.64,0.71 v 0.48 l -0.86,1.65 0.43,0.95 0.43,0.24 0.22,0.95 1.07,0.95 1.07,-0.71 1.72,0.24 0.64,0.48 -0.21,0.24 0.22,0.71 h 1.29 l 0.64,1.66 v 2.6 h -1.13 l -0.43,0.71 h -3 l -0.21,2.13 -1.28,-0.24 -0.43,0.71 -1.72,0.23 v 0.24 h -1.29 v -0.47 l 0.86,-1.18 1.29,-0.47 -0.43,-0.71 -1.5,-0.47 -0.43,0.47 h -0.65 l -0.43,0.71 -1.93,-0.47 -0.86,2.13 -0.86,-0.24 -0.43,1.42 -1.5,0.24 v 0.24 h -1.07 l -0.64,-0.47 0.22,-0.47 0.21,0.24 0.86,-0.24 -0.21,-2.37 -0.86,0.24 v -0.48 l -1.07,-1.18 h -1.93 v -0.23 l -1.07,0.23 v -0.94 l -1.07,-0.71 -0.64,0.24 v 1.19 l -1.28,0.47 -0.43,-0.47 h -0.86 l -0.64,-0.48 -2.14,-0.47 -0.43,-0.94 -0.21,0.24 -3,-0.23 -0.21,0.47 -1.5,0.24 -0.43,0.71 h -0.43 l -0.43,0.48 -0.21,0.71 -0.43,-0.23 -1.07,0.71 v 2.13 l 1.29,1.42 0.43,0.24 0.86,-0.23 v 0.47 l 0.64,0.24 0.43,0.71 1.07,-0.24 v -0.23 h 2.57 l 0.64,-0.47 1.72,0.24 0.43,-0.47 1.5,0.24 0.43,-1.18 h 1.71 l 0.43,1.42 0.65,-0.23 0.21,-0.71 0.43,0.24 0.43,-0.24 3,0.24 v 1.18 l -0.64,0.95 -2.15,0.47 v -0.23 h -1.28 l -0.65,-0.95 h -0.43 l -1.07,0.71 -0.21,1.18 -0.86,0.47 h -2.14 l -0.86,0.48 -1.29,2.6 0.22,3.31 -0.65,0.23 v 0.71 l 0.43,0.48 0.86,-0.24 1.29,1.42 -0.21,1.42 0.65,1.18 h 1.07 l 0.22,-0.71 0.21,0.24 1.29,-0.24 0.65,0.47 v 0.47 l -1.07,-0.47 -0.43,1.42 -0.43,0.24 -0.21,2.13 0.86,0.47 0.22,0.47 -0.22,0.48 h -0.43 l -0.21,-0.47 -0.43,0.23 -0.21,2.13 0.43,0.24 0.64,-0.71 h 0.43 l 0.22,0.47 0.43,-0.47 h 2.14 l 0.22,-0.47 0.86,-0.24 0.22,3.31 1.72,1.18 h 0.86 v 1.18 l -0.86,1.42 -0.21,2.37 0.64,0.24 0.86,-0.71 H 421 l 1.07,1.89 v 0.71 l -0.64,-0.24 -1.29,2.37 h -0.43 v -0.71 l -1.07,-0.71 h -3.22 l -0.43,0.24 -0.43,0.48 v 1.42 l 0.64,1.42 -0.43,0.24 -0.21,-0.47 -0.86,-0.47 -1.07,1.18 -0.43,1.65 h -0.43 l -0.64,0.71 0.43,1.66 -0.86,0.95 0.22,0.71 1.71,0.47 0.43,0.48 h 1.29 l 0.22,0.47 H 415 v 1.42 h -0.86 l -1.5,1.66 -1.93,0.47 -0.65,0.71 -0.43,1.42 -1.07,0.47 -0.43,1.18 -1.5,1.18 -0.21,0.71 h -3.43 l -0.21,-0.48 -0.86,0.24 -0.21,-1.89 0.64,-0.24 -0.21,-0.94 0.65,-0.47 v -1.18 l -0.43,-0.47 v -0.71 l 0.64,-1.18 h -0.21 v -1.18 l -0.86,-0.47 -0.21,-1.19 -0.64,-0.47 -0.21,-0.95 -0.64,-0.47 1.29,-0.71 -0.21,-0.47 h -0.86 v -0.71 l 0.43,-0.24 v -0.67 h 0.43 l 0.22,-0.47 0.86,-0.47 v -1.66 l 0.64,-0.94 0.22,-3.31 -0.43,-0.48 -0.21,-1.89 -0.64,-0.47 -0.21,-0.71 -0.64,-0.23 0.22,-0.71 -0.43,-0.95 -0.43,-0.47 h -0.86 v -0.47 l -1.07,-0.71 -0.21,-0.71 -1.28,-0.71 h -0.43 l -0.21,0.71 -2.36,-0.24 0.22,-2.37 0.86,-0.47 0.22,-0.71 -0.86,-0.95 h -1.07 l -0.21,-1.42 -1.29,0.48 -1.72,1.66 h -0.64 l 0.22,-0.95 h 0.43 l 1.08,-1.18 1.07,-0.23 0.43,-0.47 0.43,-1.42 1.5,0.47 0.43,-1.89 0.43,0.24 0.86,-0.24 v -0.47 l -0.64,-0.47 -1.5,0.47 -0.21,-1.42 1.07,-0.95 0.65,-4.97 1.29,0.23 0.43,-0.47 v -0.71 l -0.86,-1.65 0.22,-0.47 -1.07,-1.42 -0.43,0.24 0.43,1.42 -0.64,-0.24 -0.86,-1.89 v -1.18 h 0.22 v -1.18 l 1.93,-1.89 0.43,-1.42 0.43,-0.24 0.22,-2.37 h 0.22 l -0.21,-3.07 0.86,-0.24 0.86,-0.94 0.64,-1.42 0.65,-0.47 v -0.48 l 1.93,-2.36 v -0.47 l 0.43,-0.23 0.21,-1.66 0.43,-0.47 1.29,-0.23 0.22,-0.95 h 0.64 l 0.43,-0.71 1.29,-0.47 0.43,-1.18 0.43,-0.24 0.22,-1.89 0.43,-0.24 0.86,0.47 0.64,-1.66 h 0.65 l 0.64,-0.71 -0.21,-1.42 1.07,-1.42 0.65,-1.89 0.86,-0.24 0.65,-0.95 0.86,0.24 0.43,-0.47 0.21,-0.95 -0.86,-0.47 -0.21,-0.47 0.22,-0.24 1.07,0.24 0.65,-0.95 v -0.94 h 0.64 v -0.24 l 0.86,-0.24 0.22,-0.47 1.29,-0.24 v -0.24 h 1.29 v 0.24 l 1.72,0.24 v 0.24 h 1.93 l 0.43,-0.71 h 0.43 l 0.65,1.18 v 0.95 l 1.07,0.95 0.43,-0.71 1.29,-0.24 0.43,-0.47 v -0.71 l -0.43,-0.47 v -1.18 l -0.64,-0.24 -0.21,-0.47 0.43,-0.71 h 1.29 l 0.86,-1.42 v -0.71 l 2.79,-0.23 v -0.24 h 0.86 l 0.86,-0.47 0.43,-1.89 2.14,-0.24 0.64,-1.18 -0.22,-0.94 1.5,-0.24 0.43,-1.42 h 0.64 v 1.18 z m 18.65,-7.58 0.43,0.47 v 0.95 l -0.43,0.47 -1.5,0.24 -0.43,-0.71 0.43,-0.24 0.22,-0.95 z m -28.51,-12.78 0.43,0.71 h 0.64 v 0.95 h 1.5 v -0.23 l 0.86,0.24 -0.43,1.9 0.43,0.24 0.43,1.19 -1.5,1.42 -0.21,0.71 H 431 v 0.24 l -1.5,0.23 V 463 l -1.72,0.47 v 0.24 l -1.71,0.24 -0.21,0.47 -0.64,0.24 v 0.71 l -2.15,-0.24 -0.21,-1.9 -0.43,-0.47 0.43,-0.94 -1.5,-0.24 -1.5,-1.89 0.43,-1.18 v -1.18 h 1.07 l 0.86,-0.95 1.07,0.24 v -0.71 h 1.5 l 0.22,0.24 -0.21,1.19 0.43,-0.47 3.22,-0.23 -0.21,-1.18 z m -14.58,-1.42 0.65,1.42 h 1.07 l 0.43,1.89 1.28,2.13 0.22,2.13 -1.29,1.42 -4.07,-0.23 -0.43,0.48 h -1.07 l -0.21,-0.95 h -2.57 l -0.21,-1.66 -0.86,-0.95 0.22,-0.95 3.22,-2.37 1.93,-0.47 0.86,-0.95 0.22,-0.95 h 0.61 z M 273.5,146.57 l 5.11,1.31 2.36,-0.22 1.96,-1.74 2.56,-1.52 v 0 l 1.38,2.39 v 0 l 0.79,4.14 2.36,4.35 5.11,5.44 6.82,5.08 -0.64,0.83 -0.21,0.95 v 0 h 1.5 v 0 l 1.29,1.42 -1.72,0.48 -0.43,2.14 -1.28,0.47 -0.64,1.19 1.29,4.99 -0.21,0.95 -0.64,0.71 0.64,1.19 v 0 h 2.36 v 0 l 0.64,2.37 0.43,0.48 v 0 l -0.21,1.42 v 0 l 1.5,0.24 v 0.95 h -0.64 l -0.21,0.71 -2.79,0.24 -0.43,0.71 h -0.43 l -0.43,0.48 v 6.65 l 0.86,2.61 v 2.61 l -0.43,0.95 -0.86,-0.24 v 0 0.71 0 l 1.07,2.37 0.64,4.75 1.72,-0.47 v -0.26 h 1.07 l 0.21,0.71 0.22,-0.47 h 0.43 l 0.65,1.42 h 0.43 l 0.43,1.42 h 0.64 l 0.43,-0.47 0.86,-0.23 0.43,0.95 h 0.64 l 0.65,1.19 v 0.95 l -1.72,4.04 -1.71,-0.95 v 0.24 h -0.43 l 0.22,1.66 -0.43,0.95 -1.5,-0.47 0.21,0.95 0.86,0.24 -0.65,5.46 -0.43,1.19 v 1.42 h -0.22 v 2.38 h -0.21 v 1.9 l 0.86,0.47 0.22,1.9 -0.64,2.37 -2.15,0.24 -0.21,0.47 -1.07,0.48 0.64,1.42 -0.64,1.19 -0.65,4.98 h -0.21 l 0.21,2.61 -0.43,1.19 -0.21,2.85 -0.86,2.85 v 2.61 l -0.86,2.61 v 2.37 l -0.86,1.42 v 0 3.32 0 l -0.64,0.95 -0.21,1.19 0.86,0.48 h 0.86 v 0.24 h 1.5 v 0.47 l -4.07,0.95 0.64,8.3 -1.5,1.66 v 0.48 l 0.43,0.47 0.21,1.42 1.72,0.24 0.43,0.95 v 0.48 h -0.43 l -0.43,0.71 h -0.43 l -0.64,0.71 0.86,0.95 v 0.71 l -0.64,0.47 -0.21,0.95 1.07,0.48 v 0 1.42 0 l -0.43,0.24 v 0.48 l -1.5,0.48 -0.43,1.19 v 0 4.98 0 l 0.86,0.95 0.64,0.24 0.21,1.19 -1.37,1.34 v 0.95 l -0.43,0.71 0.22,2.84 -1.29,2.85 0.22,1.9 -1.29,1.9 -1.29,4.74 -0.43,0.24 0.21,0.71 0.86,0.24 0.43,0.48 h 0.86 l 0.64,1.66 -0.21,4.27 -1.29,0.48 0.21,2.37 h 0.22 l -0.43,7.35 -0.43,-0.71 v -2.37 l -0.43,-1.42 -1.5,0.48 v 0.95 l -0.64,0.71 0.21,1.18 0.64,0.48 v 0.48 h 0.43 l 0.22,0.71 h 0.43 l 0.43,1.19 -0.65,0.47 -0.64,2.13 v 2.61 l -0.64,1.42 v 3.55 h -0.21 v 3.79 h 0.22 l 0.86,5.45 -1.29,4.27 -0.21,1.9 -0.86,1.19 1.5,2.13 0.21,1.42 1.07,2.13 0.21,1.42 0.43,0.24 v 0.71 l -1.5,0.71 -3.86,4.27 -1.07,3.08 -1.29,1.42 v 0.48 l -1.07,1.18 v 0.48 l -0.64,0.47 -0.65,2.37 h -0.43 l -0.43,0.71 -0.21,-0.23 -1.5,0.24 -1.07,1.18 v 0.48 l -0.86,0.24 0.22,0.47 -0.43,0.71 0.21,1.42 -1.07,-0.24 -0.64,0.48 v 0.71 l -2.36,0.47 -0.64,0.95 h -0.43 l -0.64,0.95 -0.86,0.48 -0.86,2.37 -1.5,0.71 -0.43,0.95 -0.86,0.71 -0.43,1.19 h -0.43 l -0.43,0.71 h -0.43 l -0.43,0.71 h -0.43 l -0.86,0.95 -0.65,1.66 -0.86,0.95 -0.21,0.95 -0.43,0.24 -1.07,3.08 v 0 l -0.21,2.84 v 0 l 0.64,1.9 v 1.18 l -0.86,-0.47 -1.07,-2.37 -0.86,-0.95 -0.21,-0.95 -0.43,-0.23 -2.14,-6.4 -0.43,-0.24 -0.43,-1.18 -0.86,-0.95 -0.43,-1.42 -0.43,-0.24 -0.21,-0.95 -0.43,-0.24 -0.86,-1.89 -0.21,-1.9 -0.43,-0.71 -0.21,-1.9 -1.07,-3.55 -0.21,-2.84 -0.43,-1.18 v -1.42 h -0.21 v 0 -8.76 0 l -0.43,-0.47 v -0.71 l -0.64,-0.95 v -0.71 l -0.43,-0.47 v -0.71 l -0.64,-0.95 v -0.71 l -0.43,-0.47 v -0.71 l -0.86,-1.9 -1.29,-1.66 v -0.48 l -0.43,-0.23 v -0.47 l -0.64,-0.47 -0.86,-1.9 -1.29,-1.66 v -0.47 l -0.64,-0.47 -0.43,-1.18 -0.65,-0.47 v -0.48 l -0.64,-0.47 -0.43,-1.19 -0.64,-0.47 -0.43,-1.18 -1.29,-1.42 -1.07,-2.37 -0.43,-0.23 -0.86,-2.14 -0.86,-0.95 -1.5,-3.32 -0.86,-0.95 -0.21,-0.95 -0.43,-0.23 -0.22,-0.95 -0.86,-0.95 -0.21,-0.95 -0.43,-0.23 -0.21,-0.95 -0.43,-0.24 v -0.47 l -0.86,-1.18 v -3.08 l -0.86,-2.37 -2.14,-2.37 -0.43,-1.42 -0.86,-0.47 -0.21,0.71 0.86,0.71 v 0.48 l -0.43,0.24 -0.21,-0.71 -0.61,-0.03 -0.03,0.74 2.79,5.93 v 0 0.95 h -0.43 v 0 l -0.86,-0.95 v -0.47 l -0.65,-0.47 v -0.47 l -0.64,-0.48 v -0.47 l -0.64,-0.47 v -0.47 l -0.65,-0.48 v -0.63 l -7.5,-8.06 v -0.47 l -1.28,-1.18 v -0.47 l -1.5,-1.42 v -0.47 l -1.07,-1.19 -1.29,-0.47 -0.22,-0.95 -0.64,-0.71 -0.43,-0.47 h -0.64 l -1.29,-1.42 v -0.47 l -1.07,-0.95 0.21,-0.48 -0.21,-0.71 -1.29,-0.47 -0.64,-1.18 h -0.64 l -0.43,-0.71 -0.86,-0.23 -0.43,-0.48 h -0.64 l -0.64,-0.71 -1.32,-0.24 -0.61,-0.71 h -0.43 l -0.21,0.48 -1.71,-0.47 v 0 -0.71 0 l -1.07,-0.24 -0.86,-1.19 -0.86,-0.23 -0.43,-0.52 -0.43,0.24 -0.22,-0.47 -0.42,0.23 -1.5,-1.42 h -0.43 l -0.22,-0.71 -1.07,-0.95 v -0.47 l -1.07,-0.95 v -0.47 l -1.07,-0.95 v -0.47 l -1.07,-1.18 -0.21,-1.66 -0.86,-0.95 h -0.43 l -0.43,-0.95 -0.64,-0.47 -2.36,-5.22 -0.43,-0.23 -1.07,-2.37 0.22,-2.37 -1.07,-0.95 -0.43,-2.13 v -1.19 l 0.43,-0.47 0.22,-5.22 -0.64,-1.42 -0.86,-5.93 -1.07,-0.71 -0.22,-0.71 0.65,-0.47 v 0 l 0.64,0.95 v 0 l 1.07,-0.24 2.79,-8.06 3.65,-3.56 0.64,-1.66 h 0.43 l 1.72,-1.9 0.64,-1.9 h 0.43 l 0.21,-0.71 1.72,-1.9 0.43,-5.22 h 0.21 l -0.64,-5.93 0.64,-1.9 -0.43,-0.48 h -0.43 v -0.71 l 0.64,0.24 0.21,-1.19 0.64,-0.24 -0.86,-0.47 v -0.71 h 1.93 l 0.22,-1.19 1.07,-0.71 1.07,-4.75 0.43,-0.23 0.21,-0.95 0.86,-0.47 0.43,-0.95 0.43,-0.24 v -0.47 l 0.43,-0.23 v -0.48 l 0.43,-0.24 0.86,-2.37 0.43,-0.24 1.07,-2.37 -0.43,-0.95 0.43,-2.37 -1.5,-1.56 10.62,-3.91 9.17,-2.03 9.16,-1.16 4.45,-2.61 v 0 -6.67 l -2.09,-7.83 -1.05,-11.02 -0.26,-11.02 -1.31,-8.7 v 0 l -2.1,-4.35 -2.35,-2.32 v 0 L 219.26,143 v 0 l 2.88,-4.64 1.57,-1.74 v 0 -7.39 0 l 9.13,2.82 8.84,3.26 v 0 l 10.41,4.57 v 0 z"
       style="fill:#000000;fill-opacity:1;stroke:#000000;stroke-opacity:1;stroke-width:1.80763792;stroke-miterlimit:4;stroke-dasharray:none" />
    <path
       id="BH-15"
       title="Al Muḩarraq"
       class="land"
       d="m 320.57,7.82 0.86,0.78 3.43,0.95 4.29,0.24 0.86,1.19 1.08,0.24 v 1.19 l -1.29,1.43 -1.5,-0.24 1.93,1.67 v 2.85 l -1.71,3.8 0.86,5.71 -0.43,0.71 h -1.5 l 0.64,1.19 1.5,-0.48 0.86,6.18 h 2.79 l 0.43,1.43 -1.5,1.43 h -1.72 l 0.22,7.61 1.5,-0.24 1.07,0.71 v 0.95 l -1.5,0.24 -1.07,-0.71 -0.43,5.23 h -0.64 l -1.07,-1.43 -1.93,0.24 1.72,-1.66 0.43,-1.67 -1.29,0.48 -0.21,1.19 h -0.86 v -2.15 l -1.29,-0.71 1.07,-2.14 -2.36,-0.24 -0.86,-1.9 0.43,-0.48 0.65,1.66 h 1.71 l 0.21,-7.13 h -1.29 l 0.64,1.9 v 0.48 h -0.64 l 0.43,2.85 -2.15,-0.48 0.43,-1.19 -0.86,-0.71 v -0.47 h 0.64 l -0.43,-0.95 -1.72,-0.47 -0.43,0.71 h -0.86 v -1.9 l -4.07,0.24 -0.43,1.19 -2.36,0.95 0.43,1.43 3.22,-1.9 h 1.07 v 0.48 l -3,2.85 h -0.64 l 0.43,0.48 v 2.38 l -0.21,0.48 h -1.29 l -0.64,-5.47 -1.93,0.24 -0.43,-0.47 0.43,-2.38 -1.93,0.48 -2.14,-5.94 0.43,-0.95 1.07,-0.24 v -0.71 h -1.07 l -0.22,0.71 -0.86,-0.48 v -0.71 h -1.07 l 0.65,-1.43 -1.93,1.66 -0.22,3.09 -0.86,1.43 v 4.04 l -1.07,1.9 h -0.86 l -0.64,1.43 -4.5,0.47 -0.42,-1.66 -2.57,-1.19 -1.29,-2.85 h -0.86 l -1.29,-0.95 v -1.9 l 0.64,-0.95 -1.08,-10.02 0.43,-1.19 -1.07,-1.9 0.64,-0.48 1.29,-3.33 h -1.07 l -0.21,-0.71 V 9.55 l -1.93,-0.24 0.64,-1.43 h 2.15 l 0.64,1.19 h 2.79 l 1.07,1.19 1.29,-1.19 -0.64,-1.43 1.07,-0.71 1.29,-2.14 h 1.07 v 0.48 l -1.29,1.9 1.5,-0.24 1.07,-0.71 -0.86,-1.66 2.14,-1.19 2.15,0.48 0.43,-1.43 -0.65,-0.95 h 3.43 V 0.51 l 2.14,-0.48 1.29,1.19 3.86,-0.24 v 1.43 l 3.43,3.81 1.93,0.48 0.86,0.95 z m 13.72,41.2 0.21,1.43 h 1.5 l 0.21,0.95 h 1.29 l 0.22,0.71 -1.07,0.71 0.22,0.48 14.36,0.48 v 8.56 l -4.5,0.48 -0.21,9.27 h 2.36 l 4.08,9.03 1.29,0.71 0.22,2.62 h -1.29 l -1.07,-3.09 -0.64,-0.24 0.21,0.71 -6.64,2.85 -0.64,0.71 -0.43,2.14 1.5,0.71 0.43,1.9 1.29,0.47 0.22,1.43 h -7.72 l -0.43,-0.48 0.21,-1.66 -0.64,-0.71 h -2.14 l 0.43,-1.19 -1.5,-1.42 -0.64,-2.37 -0.64,-0.48 0.21,-2.14 -0.64,-0.71 h 0.65 v -0.47 l -1.72,-6.89 -2.14,-2.14 -1.29,-0.24 -0.21,-3.33 -1.5,-1.43 -0.64,-2.61 -1.93,-1.66 0.21,-2.38 1.72,-0.24 1.29,0.95 v -2.85 l -1.72,-0.24 -0.43,-0.95 0.22,-1.9 3.21,0.48 0.86,-2.38 1.07,-0.71 -0.43,-2.14 h 1.07 v -0.71 h 2.09 z"
       style="fill:#000000;fill-opacity:1;stroke:#000000;stroke-opacity:1;stroke-width:1.80763792;stroke-miterlimit:4;stroke-dasharray:none" />
    <path
       id="BH-16"
       title="Al Wusţá"
       class="land"
       d="m 321,117.93 0.64,2.85 1.07,0.24 1.71,2.85 v 1.19 l -2.14,0.71 -1.07,1.19 -3,1.43 -1.5,-0.24 -1.07,-2.61 -1.93,0.48 -0.22,0.71 -1.28,0.24 -0.86,0.95 h -1.29 v -0.47 l -1.71,0.24 0.86,2.85 -0.21,1.66 1.5,0.71 1.29,1.43 v 0.95 l -1.5,0.24 0.21,2.38 -0.86,0.48 v 0.71 l 0.43,-0.48 1.29,0.24 0.22,0.95 -0.43,0.24 h 1.5 l 2.15,4.99 -0.43,0.47 1.93,3.56 -0.86,1.19 -1.93,-0.23 0.22,1.9 1.29,-0.24 -0.21,2.14 h -1.07 l 0.22,0.47 -2.14,-1.19 v -0.71 h 0.43 l -0.43,-1.19 -1.93,0.24 -0.43,-0.95 0.43,-1.66 -1.07,-0.24 -0.65,-3.56 -4.5,-9.74 h -0.65 l -0.86,-1.66 -1.29,0.71 0.65,-1.43 -2.14,-5.7 -1.07,-1.19 -1.07,0.24 -0.86,0.95 0.86,0.71 2.57,5.46 0.43,3.09 1.71,3.56 1.72,3.32 3.22,2.85 0.86,1.9 -0.43,1.42 0.64,0.24 0.21,1.43 h 0.43 l -0.22,1.19 -1.71,0.24 -0.22,0.95 -0.21,-0.48 -1.5,0.48 -0.21,1.19 -3.21,2.61 -0.43,1.42 h 1.5 l -0.43,1.19 -2.14,0.48 v 2.14 l 1.05,2.42 v 0 0 0 l -5.72,-4.29 -5.11,-5.44 -2.35,-4.35 -0.79,-4.13 v 0 l -1.37,-2.39 v 0 l -4.52,3.26 -2.35,0.22 -26.52,-8.05 v 0 l -10.41,-4.57 v 0 l -17.97,-6.08 v 0 l -1.83,-7.12 -2.88,-6.09 -1.57,-6.38 -0.79,-8.71 v -7.26 l 1.83,-3.19 2.88,-1.16 4.19,-0.58 10.74,-5.22 15.98,-1.45 5.27,-0.95 0.26,0.58 1.25,0.27 v 0 1.11 l -1.07,0.24 -0.64,-1.66 h -0.86 v 0.47 h 0.64 l -0.42,1.9 1.29,0.48 -0.86,0.95 0.22,0.71 2.57,0.71 -1.71,1.9 0.86,0.95 0.22,1.67 1.28,0.24 -0.21,2.61 2.14,1.9 h 1.29 l 0.86,2.14 1.29,1.19 h 1.5 l -0.21,0.95 1.07,2.38 h 1.07 l -0.21,1.43 1.07,-0.48 0.43,1.9 3.43,0.48 0.86,1.9 2.14,1.67 h 1.29 v 0.95 l 1.29,0.24 1.93,2.61 -0.65,0.48 1.5,2.61 v 1.19 h 1.29 l 0.22,0.95 0.82,0.24 0.06,0.47 h -0.67 l 0.21,1.19 5.15,-0.24 3,-0.95 0.21,0.48 1.93,0.24 -0.22,0.71 1.29,0.71 0.43,1.19 1.72,-0.48 0.64,1.66 h 2.57 v -0.47 l -2.14,-0.71 -1.07,-3.09 -4.5,-2.14 -1.07,-2.14 -3,-0.95 0.64,-4.28 -1.5,-0.24 -0.86,-4.51 -1.72,-2.14 v -0.48 l 1.29,-0.24 0.86,-1.42 -0.64,-1.66 -1.5,0.71 -1.29,-1.9 0.86,-0.71 0.65,-1.9 h 0.86 l 0.65,-1.9 1.28,-0.95 h 1.08 l 0.43,-1.66 1.72,-0.95 1.71,-2.61 1.72,-0.24 1.07,-0.95 2.79,0.71 h 5.79 l -0.22,2.14 h 0.86 l 0.22,0.95 -1.72,3.09 -1.5,0.95 -0.43,0.95 1.93,0.24 -0.21,1.19 h 0.64 l -0.21,1.19 h 0.65 l 0.21,1.9 2.36,2.38 0.22,4.28 -0.64,0.24 v -1.19 h -1.07 l 0.64,1.43 -0.64,1.43 0.64,-0.24 v 0.48 l -1.07,1.19 -1.29,-0.24 -0.21,0.48 1.5,4.75 0.86,7.84 1.5,0.47 0.21,1.19 3,-0.48 0.64,2.85 3.22,-1.43 -0.43,-1.19 4.72,-2.37 -0.43,-0.95 0.43,-4.04 8.58,-4.75 5.15,-2.14 1.72,-1.66 h 1.07 l 0.64,-1.19 -0.43,-2.14 h 0.65 l 2.36,2.85 0.21,1.43 h -1.28 l -1.29,-1.19 -2.15,3.33 -2.14,0.71 1.29,1.9 0.65,0.24 0.21,-0.48 2.15,-0.47 1.07,-1.9 h 1.93 l 0.86,-1.42 h 0.65 l 1.71,2.14 -0.21,0.95 -1.5,-0.48 0.21,0.71 h 2.14 l 1.29,1.42 v 0.71 l -1.07,-0.24 -0.43,-0.71 h -1.5 l -2.57,0.24 -2.14,1.19 -4.5,-0.24 -1.07,0.71 -4.93,-0.95 z M 300.82,165 v 0 l 1.1,0.79 v 0 l 0.21,-1.07 z"
       style="fill:#000000;fill-opacity:1;stroke:#000000;stroke-opacity:1;stroke-width:1.80763792;stroke-miterlimit:4;stroke-dasharray:none" />
    <path
       id="BH-17"
       title=" Ash Shamālīyah"
       class="land"
       d="m 259.04,81.9 -1.25,-0.27 -0.26,-0.58 -5.27,0.95 -15.98,1.45 -10.74,5.23 -4.19,0.58 -2.88,1.16 -1.83,3.19 v 7.26 l 0.79,8.71 1.57,6.38 2.88,6.1 1.83,7.12 v 0 0 0 0 0 7.39 0 l -4.45,6.38 v 0 l 0.79,2.03 v 0 l 2.36,2.32 2.1,4.35 v 0 l 1.31,8.7 0.26,11.02 1.05,11.02 2.09,7.83 v 6.67 0 l -4.45,2.61 -9.16,1.16 -9.17,2.03 -10.62,3.91 v 0 l -1.29,-1.76 0.64,-1.66 0.65,-6.41 -1.72,-2.14 v -0.71 l -0.64,-0.23 0.43,-9.73 -1.71,-0.24 v -0.71 h -0.43 v -0.47 l 2.57,0.24 0.64,-0.71 v -0.71 h -0.43 l 0.21,-2.61 -1.07,-0.48 -0.21,-1.19 -1.5,0.24 v -0.71 l 1.07,-0.24 v -0.47 l -1.07,-0.23 1.29,-0.24 -0.65,-4.99 -0.64,-0.95 0.64,-1.9 -1.07,-3.33 0.43,-0.95 h -1.07 l -1.07,-1.42 0.21,-1.19 h -1.5 v -0.48 l 1.5,-0.47 v -0.48 l -0.86,-0.24 v -0.95 l -1.07,0.24 v 0.71 h -0.86 l -0.86,-1.19 -0.43,-0.95 1.07,-0.24 v -0.71 l -0.43,-0.48 -1.29,0.24 0.86,-0.71 v -0.71 l -1.93,0.71 -1.5,-1.19 -0.21,-0.71 0.86,-0.47 v -0.71 h -0.86 l 0.64,-0.95 -0.86,-0.48 0.64,-0.23 v -0.71 l -2.14,0.24 0.21,-2.37 1.07,0.48 0.65,-0.48 v -1.19 l -1.5,0.24 -0.86,-0.71 -1.5,-3.8 -2.14,-3.33 -1.07,-2.85 0.21,-0.95 0.86,-0.24 v -1.19 h -1.29 l -0.43,-1.19 h -1.71 l 0.64,-0.71 v -1.19 l -0.64,-0.24 -2.79,0.71 -0.86,0.95 h -1.29 l -0.43,-0.95 -0.21,-2.37 h 1.07 l 1.5,-1.43 2.36,-0.24 -0.22,-3.56 -1.07,-1.42 -0.86,-2.61 0.21,-1.66 -0.86,-1.66 0.21,-2.61 -1.29,-1.9 0.22,-1.19 -0.64,0.24 -0.43,-1.9 0.43,-4.51 2.36,-1.9 -1.07,-1.42 -6,0.48 -16.51,2.85 0.43,4.75 -1.5,3.8 0.43,3.09 -0.64,0.95 v 2.14 l -1.29,2.61 v 1.9 l 0.22,1.43 h 1.07 l 0.43,1.42 v 0.48 l -1.29,0.47 0.86,3.8 1.5,-0.24 v 1.9 h 1.93 l 1.07,2.14 -1.5,2.85 v 2.85 l 0.64,1.9 -0.43,1.9 h -1.5 l -3.64,-2.37 -3.22,-0.71 h -0.43 v 0.71 h 0.43 l -0.21,1.42 -1.07,0.24 -0.43,-1.9 0.64,-0.71 h -2.78 l -4.08,1.19 -1.5,1.66 -3.22,-0.24 -1.29,-0.71 -2.57,0.24 v -0.48 h -0.86 l -0.64,-0.71 -3,-0.71 v -1.9 l 1.07,-1.19 v -4.04 l -3,-1.19 V 127 l 0.86,-0.71 -3.43,-2.61 v -2.85 l -0.64,-2.14 0.86,-0.48 v -0.71 l -0.65,-0.71 -0.21,-2.85 h 0.64 l -0.43,-1.42 1.93,-1.9 0.64,-4.28 h 0.43 l 0.43,-1.19 v -2.85 h 2.15 l -1.07,4.04 1.29,0.71 1.72,-2.38 H 124 l 0.43,-1.9 h 0.86 l 1.72,1.43 -0.21,-2.37 h 1.72 l 0.22,-0.71 -4.5,-1.9 -0.64,-0.95 -4.29,-2.61 -8.79,-2.61 -29.8,-1.66 -1.71,0.24 -1.07,1.43 H 77.3 L 75.59,92.82 75.16,91.4 73.02,90.69 h -0.65 l -0.21,1.19 H 71.02 V 91.41 H 69.95 L 68.02,90.22 67.81,89.03 66.31,86.89 63.95,85.47 26.21,64.94 7.56,59.72 3.92,59.01 H 0.27 L 0.05,58.06 H 4.13 L 7.78,58.77 26.43,64 66.1,85.86 h 1.71 l 0.21,0.71 h 0.65 l 1.5,-0.95 h 1.29 l 1.07,0.71 1.29,2.38 5.36,-0.71 0.86,0.48 0.86,2.14 27.66,1.19 4.72,0.71 6.22,2.14 6.22,4.28 6.86,2.61 2.36,-0.24 0.64,-0.71 -0.21,-1.19 0.64,-0.48 0.65,-4.52 -0.65,-9.03 -0.43,-0.48 0.43,-0.71 -1.07,-1.43 -0.43,0.95 h -0.64 l -0.43,-0.95 0.64,-0.47 -1.29,-0.24 -1.5,0.48 -0.43,-1.19 h -0.43 l -0.21,-1.9 0.21,-0.48 3,0.24 0.64,0.71 1.72,0.24 2.14,1.19 2.79,-0.48 -0.64,0.95 0.86,0.24 -0.64,0.48 0.22,0.48 1.07,0.24 -0.21,0.95 -0.65,0.24 -0.64,-1.19 h -1.29 l -1.29,0.95 0.22,0.71 -1.07,0.48 v 4.51 l 0.64,3.57 -0.64,6.42 2.36,-0.95 2.79,0.24 0.22,-0.48 4.29,0.48 0.86,4.04 h 0.43 l 15.65,-2.61 -0.43,-0.71 -2.57,0.24 0.64,-0.95 2.36,0.47 v -0.71 h 1.29 l 0.22,1.43 3,-0.24 0.43,-1.19 1.07,-0.48 0.64,-2.61 h 1.07 l 0.86,-1.19 1.93,-3.8 v -2.61 h 0.43 v -1.45 l -1.5,-0.47 -0.43,-2.14 h 0.43 l -0.22,-2.85 1.5,-0.95 -0.21,-1.19 0.64,-1.9 -0.43,-1.9 -0.86,-0.71 -0.65,-1.9 -1.29,-0.24 -1.28,1.19 -0.43,-1.67 -1.29,-1.42 0.43,-0.48 -0.43,-2.14 h -1.5 l -0.43,-1.19 0.43,-1.19 1.72,0.24 v 0.95 h 0.64 l 0.22,-1.19 h -1.5 l -0.64,-0.95 v -1.67 h 0.43 l 0.64,-2.61 2.36,0.24 -0.64,-1.9 1.28,0.71 1.5,-0.24 0.43,-0.95 1.5,0.48 0.21,-0.71 -1.29,-1.19 2.57,0.24 2.57,-1.9 v -0.95 h -0.64 v -2.14 l 1.29,-0.24 -0.21,-2.38 h 0.86 l 0.64,1.66 h 0.43 l 2.15,-1.66 1.29,-0.24 0.21,-1.9 h 1.29 l 0.22,-0.71 h 0.64 l -0.22,1.43 h 1.72 l 0.43,-0.95 1.93,-0.48 h 3.65 v 0.71 l 1.29,0.48 1.5,-1.43 V 45.7 l 4.72,0.48 4.93,-0.48 0.65,-0.47 h 5.14 l 0.64,-0.71 0.64,0.71 3.01,0.47 1.93,-0.47 1.43,0.95 v 0 l 2.54,5.12 -0.3,2.35 -2.12,2.01 -0.91,1.85 0.6,2.52 4.23,1.68 7.26,1.17 5.44,-1.17 4.99,-1.84 2.72,-2.01 3.17,1.68 4.39,6.71 4.29,12.52 v 0 l -0.23,0.71 0.65,0.21 1.93,-0.45 z m -99.26,-8.87 0.43,0.24 0.22,2.85 h 0.64 l 0.43,1.19 -0.86,1.43 -1.5,-0.71 0.64,-1.42 -0.64,-0.24 0.21,-1.19 -0.86,-1.42 0.43,-0.71 h 0.86 z m -96.7,20.43 1.07,1.19 1.5,0.48 -2.78,2.38 H 61.8 l 1.07,-2.85 -0.43,-1.19 h 0.64 z"
       style="fill:#000000;fill-opacity:1;stroke:#000000;stroke-opacity:1;stroke-width:1.80763792;stroke-miterlimit:4;stroke-dasharray:none" />
  </g>
</svg>
