<?xml version="1.0" encoding="UTF-8" standalone="no"?>
<!-- (c) ammap.com | SVG map of Macao - High -->

<svg
   version="1.1"
   id="svg832"
   sodipodi:docname="vector.svg"
   width="1024"
   height="1024"
   inkscape:version="1.1.2 (b8e25be8, 2022-02-05)"
   xmlns:inkscape="http://www.inkscape.org/namespaces/inkscape"
   xmlns:sodipodi="http://sodipodi.sourceforge.net/DTD/sodipodi-0.dtd"
   xmlns="http://www.w3.org/2000/svg"
   xmlns:svg="http://www.w3.org/2000/svg"
   xmlns:amcharts="http://amcharts.com/ammap">
  <sodipodi:namedview
     id="namedview834"
     pagecolor="#ffffff"
     bordercolor="#666666"
     borderopacity="1.0"
     inkscape:pageshadow="2"
     inkscape:pageopacity="0.0"
     inkscape:pagecheckerboard="0"
     showgrid="false"
     width="1024px"
     inkscape:zoom="0.39008863"
     inkscape:cx="552.43855"
     inkscape:cy="787.00063"
     inkscape:window-width="1512"
     inkscape:window-height="872"
     inkscape:window-x="0"
     inkscape:window-y="38"
     inkscape:window-maximized="0"
     inkscape:current-layer="svg832" />
  <defs
     id="defs826">
    <style
       type="text/css"
       id="style824">
			.land
			{
				fill: #CCCCCC;
				fill-opacity: 1;
				stroke:white;
				stroke-opacity: 1;
				stroke-width:0.5;
			}
		</style>
    <amcharts:ammap
       projection="mercator"
       leftLongitude="113.5287411"
       topLatitude="22.2170639"
       rightLongitude="113.5981886"
       bottomLatitude="22.1097693" />
    <!-- All areas are listed in the line below. You can use this list in your script. -->
    <!--{id:"MO-01"},{id:"MO-02"}-->
  </defs>
  <g
     id="g830"
     transform="matrix(0.75811999,0,0,0.75811999,253.79685,1.0445062)"
     style="fill:#000000;fill-opacity:1;stroke:#000000;stroke-opacity:1;stroke-width:4.98539494;stroke-miterlimit:4;stroke-dasharray:none">
    <path
       id="MO-01"
       title="Macao"
       class="land"
       d="m 188.78,0 -27.8,45.54 -13.89,30.02 H 74.82 v 9.51 l -51.88,16.01 34.28,61.54 63,-20.01 -9.27,-19.51 h 18.53 l 17.61,39.52 -55.59,74.06 -5.44,9.33 -5.14,40.75 -23.84,38.62 -37.92,46.81 -7.59,29.26 -11.27,30.44 8.02,23.39 31.42,50.32 17.66,34.32 17.42,-22.58 h 45.4 l 35.21,-48.52 h 31 l -2.64,-13.1 -21.67,-3.66 -10.84,-2.19 -8.12,-24.14 -4.74,-14.63 4.74,-12.43 6.09,-8.78 9.48,2.2 18.29,-4.39 14.9,2.92 2.71,26.33 1.35,29.99 5.02,21.28 34.1,-18.41 21.14,-16.19 0.02,-11.98 10.16,-8.05 8.12,-8.78 12.19,-9.5 11.52,-8.05 7.76,10.38 26.38,-13.87 v -19.01 -9.51 -28.52 l -9.27,-20.51 17.6,-19.01 17.61,19.01 v -9.51 l 37.98,-71.54 -73.19,43.03 -17.6,-9.51 -8.34,-28.52 26.61,-21.93 3.92,-3.23 8.46,-15.24 h 8.81 l 8.8,-5.12 3.39,-0.73 8.12,6.58 5.95,17.43 21.37,3.73 -13.9,-49.04 L 358.33,114.09 323.12,85.07 252.71,57.05 V 38.03 Z"
       style="fill:#000000;fill-opacity:1;stroke:#000000;stroke-opacity:1;stroke-width:4.98539494;stroke-miterlimit:4;stroke-dasharray:none" />
    <path
       id="MO-02"
       title="Taipa, Cotai, and Coloane"
       class="land"
       d="m 137.31,1029.98 6.65,140.04 3.92,6.83 51.97,35.69 10.13,-0.25 8.23,-147.59 0.34,-7.27 0.84,-28.96 0.37,-6.61 -79.43,4.56 z m 185.88,315.38 5.63,-4.26 2.35,-5.08 -3.1,-1.18 0.32,-2.31 1.43,-1.34 4.16,-2.84 2.29,1.59 3.6,-4.13 2.09,-0.45 1.56,1.48 1.55,-2.86 1.16,0.55 2.02,-1.4 1.16,-1.51 0.24,-1.79 -0.98,-1.71 0.6,-1.73 1.06,-3.04 1.88,-2.44 4.75,-4.48 5.54,-3.26 5.97,-1.15 5.59,-0.09 4.7,1.16 -0.84,2.93 1.47,0.35 -0.53,5.69 0.93,0.52 0.17,3.01 2.63,0.38 2.48,4.96 3.99,0.82 5.92,-2.09 2.1,0.34 4.26,-0.8 5.38,-4.03 4.11,1.25 3.26,1.85 4.19,-0.05 2.17,-1.54 1.23,-1.96 1.34,-0.03 1.01,-1.52 2.83,0.32 1.45,0.67 3.95,-0.13 1.06,1.1 -0.02,1.64 -8.97,0.19 0.47,1.59 22.01,-0.43 0.99,-3 2.01,-0.3 2.86,1.24 10.9,4.72 7.24,1.31 5.88,-0.02 6.66,-2 2.08,1.08 4.43,-3.9 2.35,0.53 4.79,-2.85 1.63,-2.46 2.08,0.32 1.19,-1.39 11.99,-0.82 0.03,-7.22 1.67,-1.99 3.22,-0.47 v -2.63 l 3.6,-1.11 2.75,-2.18 0.27,-2.26 -1.92,-1.36 -1.86,1.12 0.99,-5.6 0.01,-4.19 -1,-1.04 0.58,-1.87 1.78,-4.55 -1.23,-0.96 -0.34,-1.58 h -2.25 l -4.11,-7.11 -2.45,-1.14 -1.46,1.05 -0.99,1.45 -10.57,-1.53 -6.34,-0.3 -8.39,1.61 3.36,-2.72 -1.01,-1.35 -4.06,2.86 -2.91,-1.37 -1.14,-1.46 -1,-1.08 -0.49,-0.52 -1.25,-5.45 -0.39,-8.8 0.59,-7.59 2.06,-6.08 4.22,-15.14 2.48,-6.19 1.98,-5.71 2.99,-6.06 3.27,-4.2 3.39,-4.72 3.23,-5.13 3.06,-4.21 2.9,-4.26 2.92,-3.4 3.93,-3.53 6.74,-5.06 4.49,-3.74 5.97,-5.13 8.24,-2.64 0.37,2.01 2.53,2.13 1.93,2.89 16.93,8.62 2.8,3.31 2.77,1.16 7.82,-0.74 5.93,-0.55 9.57,4.82 4.19,0.84 2.4,-2.07 2.94,-2 4.35,-3.24 3.85,-2.81 3.41,-2.51 2.98,-1.71 6.06,-2.92 4.64,-1.9 3.48,-1.59 2.26,-2.62 1.09,-4.59 5.87,-12.52 5.16,-3.11 3.08,-3.67 5.45,-2.12 1.86,-3.26 5.53,-3.47 4.03,0.5 0.3,1.02 5.3,2.63 7.58,-1.58 2.26,1.5 h 1.1 l 1.94,-0.69 1.39,-1.36 -0.47,1.24 -0.44,1.1 -0.19,1.51 2.17,1.86 2.41,1.36 1.47,-0.33 1.87,0.11 3.33,0.55 2.2,0.58 2.67,0.04 5.71,-0.95 1.98,-1.69 2.01,-2.82 2.28,-3.22 1.42,-2.27 0.04,-1.39 -0.26,-1.43 -1.68,-0.11 -1.1,-0.07 0.11,-0.88 0.95,-0.88 4.29,-2.75 2.23,-1.21 2.8,-1.48 0.67,0.2 1.29,-0.55 2.79,-2.71 1.01,-0.95 0.6,-0.33 0.88,0.4 -1.38,1.56 0.41,0.69 1.37,0.21 h 2.31 l 1.87,-0.42 0.54,0.5 1.08,-0.88 -0.22,-0.49 0.36,-0.62 -0.24,-0.6 0.43,-0.4 0.43,0.41 0.72,-0.86 0.19,-2.06 0.37,-1.69 0.04,-0.51 -0.59,-0.62 0.73,-1.84 -1.13,-2.89 -1.03,-1.13 -0.15,-1.36 1.4,-3.66 0.29,-1.8 0.15,-2.82 -0.85,-4.03 -0.95,-1.42 -0.73,-0.59 -3.25,1.13 -0.12,0.04 -1.66,0.55 -6.8,-14.07 -8.25,-17.86 0.01,-1.07 1.9,-3.92 0.04,-2.27 -1.17,-3 -2.27,-0.92 -0.66,0.55 -5.46,-3.7 0.95,-1.32 -3.95,-2.75 -2.71,-1.9 -16.05,22.09 -5.23,-3.92 4.98,-7.03 -0.11,-0.7 -0.74,-0.54 -11.35,-8.32 -0.81,0.03 -0.91,1.1 -4.31,-2.99 -8.7,11.78 -0.31,0.41 -15.56,-11.57 -3.15,4.36 -8.72,1.5 -0.38,-2.78 0.55,-1.87 -1.66,-0.86 -1.22,-0.91 -0.05,-0.86 1.22,-3.69 0.32,-1.58 -1.52,-1.08 v -1.83 l 0.63,-1.58 -0.82,-2.46 -0.13,-0.86 -0.45,-1.03 -0.32,-1.75 -1.46,0.23 -0.61,1.13 -1.01,1.13 -1.32,1.46 0.42,1.68 0.64,1.26 0.72,1.04 -0.94,0.9 -1.01,1.46 -0.54,1.46 -0.49,1.06 -0.19,0.75 1.1,1 -0.88,0.75 -1.32,0.61 -1.23,1.59 -0.13,0.87 -0.68,1.1 -1.04,0.26 -3.3,1.23 -2.81,0.99 -1.28,0.64 -1.73,-0.48 -4.06,-1.98 -0.62,-1.3 0.14,-1.21 0.7,-1.09 -0.33,-0.96 -0.89,-0.35 -0.74,0.72 -1.34,1.1 -1.71,-0.54 1.76,-10.83 0.91,-9.76 -0.38,-6.65 -5.69,-8.48 -0.01,-1.06 0.5,-0.56 0.51,0.57 11.44,-12.36 9.16,-9.29 5.47,-5.63 3.62,-3.49 2.2,-3.21 2.1,-5.5 0.98,-2.95 0.28,-0.85 2.61,-6.54 2.28,-4 0.04,-0.72 -0.85,-0.68 -2.6,-0.97 -2.83,-0.52 -3.05,0.27 -3.37,0.86 -11.53,8.09 -11.68,8.34 -21.59,14.56 -3.64,3.14 -1.07,0.97 -0.04,2.06 0.23,1.14 0.57,0.67 1.09,1.28 5.4,7.96 -2.52,2.57 -0.5,-1.22 -1.64,1.13 -0.72,-0.84 -1.35,0.04 -1.05,0.29 -0.98,1.01 -1.53,0.98 -0.99,1.03 -0.77,1.02 -3.87,2.52 -4.89,3.19 -1.7,-2.19 -0.1,-1.45 -3.63,-4.23 1.6,-3.93 1.38,-3.48 0.93,-2.79 5.13,-7.44 2.67,-5.34 1.78,-8.25 1.14,-6.07 -0.11,-1.46 -3.62,-3.85 -0.06,-4.21 2.16,-1.44 1.46,-3.2 -1.01,-2.06 -1.13,-0.49 -0.69,-1.53 -3.07,-2.75 -2.43,-2.96 -1.13,-4.04 4.34,-3.84 2.39,-3.93 2.43,0.95 3,0.29 5.46,-2.17 8.47,-0.78 1.01,3.63 3.47,4.26 6.07,0.93 11.95,0.05 6.67,-3.85 4.72,-3.23 4.35,-0.11 h 7.08 l -1.66,3.75 -0.32,3.65 6.57,2.29 3.02,-0.62 3.13,1.98 4.27,3.54 2.71,-2.39 1.57,-6.15 7.4,3.44 4.06,4.06 2.4,7.92 3.33,2.92 4.28,-3.75 h 2.39 l 4.59,2.08 5.11,-1.25 1.14,-5.21 -10.52,-11.25 -3.24,-7.2 -0.31,-5.62 3.89,-3.83 9.13,-4.93 -2.38,-19.2 -12.58,-8.35 -104.65,-69.47 -13.62,-3 -11.05,8.35 -7.61,5.93 -2.58,2.06 -2.06,3.02 -1.33,-0.73 0.01,-3.25 4.93,-2.87 13.82,-10.38 3.21,-3.4 4.44,-6.17 3.84,-3.93 0.08,-2.42 0.53,-1.18 h 0.23 l 127.23,84.98 18.5,12.36 -1.86,2.55 -0.56,1.52 3.15,10.95 1.42,1.39 1.24,1.84 0.8,-0.5 -0.06,-0.49 1.63,0.12 1.74,0.48 2.53,6.02 4.24,12.91 40.23,117.87 1.32,4.89 3.39,3.34 4.88,3.08 3.58,0.01 3.69,-0.68 23.1,-8.26 2.56,-2.79 1.72,-3.38 1.15,-3.6 -1.15,-5.22 -53.31,-154.41 -18.79,-54.41 -45.06,-133.17 -5.06,-15 -1.34,-3.65 -2.34,-2.07 -5.23,-2.87 -3.98,-0.17 -6.55,2.21 -7.02,2.58 -2.22,2.08 -1.92,3.09 -1.48,4.83 1.83,7.57 1.82,5 -69.85,24.11 -1,-3.85 1.29,-1.33 1.86,-1.29 15.04,-5.17 1.15,0.58 25.72,-9.34 0.03,-0.99 9.4,-4.14 0.89,-0.86 0.31,-1.27 -8.96,-26.44 -1.59,-0.83 -1.76,0.12 -9.64,3.29 -1.54,-0.02 -1.01,-1.68 -3.43,-10.03 -1.45,0.35 -1.51,-3.68 0.49,-2.39 -0.31,-1.01 -0.47,-0.46 -13.23,-38.1 -0.26,-0.61 -0.4,-0.04 -0.37,0.32 0.02,0.71 12.51,37.26 -0.79,1.98 -2.21,7.94 -4.69,18.93 -1.35,1.74 -3.73,4.3 -1.91,1.56 -0.57,1.17 0.18,1.09 4.71,12.32 -15.77,5.47 0.38,-4.36 0.45,-3.3 -0.33,-1.58 3.1,-12.72 -1.72,-0.47 0.64,-2.47 2.21,-8.49 0.53,-2.02 -0.69,-0.21 -1.31,-0.34 -0.49,2.02 -0.45,1.87 -1.62,6.69 -0.6,2.49 -0.28,1.14 -0.37,1.52 -0.96,-0.27 -9.93,-2.45 1.5,-5.99 2.1,-0.51 -0.24,-0.84 1.32,-0.38 -0.35,-1.47 -1.37,0.4 -0.39,-1.38 0.89,-3.54 2.12,-0.53 -0.21,-0.84 1.3,-0.34 -0.4,-1.48 -1.33,0.37 -0.38,-1.47 0.91,-3.45 2.09,-0.56 -0.2,-0.82 1.34,-0.42 -0.42,-1.37 -1.34,0.38 -0.41,-1.52 0.9,-3.38 2.07,-0.56 -0.18,-0.85 1.39,-0.37 -0.41,-1.45 -1.33,0.4 -0.46,-1.42 0.94,-3.61 -13.96,-3.81 -0.94,3.79 -1.09,1.13 -1,-1.02 -1.08,1.11 1.02,0.93 -0.52,0.6 1.56,1.49 -0.86,3.45 -1.03,1.09 -1.03,-0.95 -1.04,1.05 0.99,0.99 -0.59,0.61 1.56,1.46 -0.87,3.51 -1.04,1.08 -1.04,-0.94 -1,1.05 0.99,0.93 -0.59,0.64 1.58,1.51 -0.89,3.48 -1.01,1.03 -1.04,-0.96 -1.05,1.13 1,0.9 -0.57,0.64 1.54,1.45 -1.65,6.86 -0.69,-0.17 0.04,-0.16 -0.93,-0.24 -0.05,0.16 -6.78,-1.74 0.02,-0.17 -0.97,-0.25 -0.06,0.16 -6.66,-1.7 0.04,-0.19 -1.04,-0.26 -0.06,0.18 -2.99,-0.77 2.92,-11.18 -3.4,-0.88 -2.82,11.22 -0.46,-0.14 0.03,-0.16 -0.93,-0.27 -0.05,0.19 -4.98,-1.28 0.05,-0.2 -0.99,-0.24 -0.05,0.17 -0.59,-0.14 4.3,-16.83 -2.09,-0.55 0.29,-1.21 -0.08,-0.01 0.44,-1.47 23.67,-37.6 1.18,-3.27 -0.49,-3.24 -1.66,-3 -2.21,-1.6 -13.03,18.7 -17.12,-4.4 -2.07,0.69 -1.16,1.4 -7.28,28.94 -9.67,38.48 -38.26,-9.67 -22.57,0.68 -2.21,0.06 -6.99,-2.03 -6.73,-1.99 -4.11,-1.54 -3.41,0.32 -2.12,0.85 -2.88,0.58 -3.62,0.5 -5.54,0.35 -10.33,-0.4 -11.53,-1.44 -5,-1.49 -1.24,-1.58 -2.63,0.2 -13.79,-4.04 -0.87,-0.75 -4.3,-0.85 -3.51,0.13 -5.22,-0.65 -2.79,-2.07 -1.53,-1.03 -0.5,-2.57 -1.11,-0.4 -1.1,1.05 -0.31,2.07 -0.76,1.35 -1.91,0.21 -2.37,0.71 -1.73,1.85 -2.89,2.6 -2.57,1.25 -4.41,-0.05 -3.5,0.64 -1.64,-0.04 -2.68,-0.06 -7.72,-3.02 -6.06,-1.28 -7.26,-0.27 -9.72,0.38 -3.3,0.64 -11.56,4.25 -10.34,5.35 -8.96,-2.15 -2.64,0.08 -0.91,2.85 -0.4,1.94 -2.04,1.59 -5.73,0.87 -12.59,1.84 -14.46,3.56 -7.9,-0.1 -8.34,0.21 -5.97,0.41 -5.78,1.26 -6.13,3.92 -2.29,1.65 -1.68,1.69 -1.67,0.22 -1.82,-0.14 -3.22,-0.72 -2.95,-1.24 -3.31,-1.99 -1.62,-1.24 -0.84,-0.95 -1.25,-5.32 -2.83,-7.22 -6.26,-12.74 -2.08,-2.08 -2.74,-0.12 -5.28,2.78 -1.11,3.5 1.29,2.86 4.2,18.95 1.51,8.91 0.95,9.85 1.14,9.56 2.28,11.23 1.96,7.71 17.58,55.28 1.92,4.92 3.48,4.7 4.73,4.95 27.74,21.76 8.3,6.82 0.98,0.91 2.06,0.07 2.38,3.8 14.25,16.27 16.52,21.67 1.82,0.73 1.76,-0.26 1.37,-1.06 0.53,-0.9 0.26,-1.43 -0.29,-1.27 -1.9,-2.21 -7.15,-10.21 -9.12,-10.55 0.09,-1.18 3.01,-2.35 1.03,-0.2 22.81,0.13 0.05,37.37 -6.04,-0.1 h -0.36 l -1.88,-2.62 -1.18,0.49 28.23,42.81 2.19,3.33 -1.49,115.09 0.27,56.72 -0.36,2.83 -2.55,2.95 -1.87,6.46 -1.97,3.34 0.32,3.32 -0.23,2.96 1.51,3.72 1.24,1.91 1.01,-0.01 0.06,1.58 -0.07,4 -0.7,3.43 v 1.71 l -0.11,24.81 0.8,-0.02 0.14,2.75 -0.82,0.08 0.08,14.27 0.25,6.82 0.26,10.22 3.04,5.16 -0.44,7.9 -3.31,2.17 -1.59,1.47 -1.6,1.48 -3.39,1.8 0.27,0.69 -1.8,1.06 0.19,0.38 -2.04,1.27 -2.13,-1.9 -1.49,1.52 1.31,1 -0.4,0.51 -3.33,-0.4 -0.36,2.83 2.03,0.41 -0.23,0.56 -3.68,-1.14 -0.93,2.74 2.42,1.11 -1.71,5.81 -1.12,-0.34 -0.58,1.78 1.18,0.79 0.3,3.82 -0.08,0.01 0.07,1.22 -0.53,0.13 -0.39,0.11 -3.49,0.9 0.02,0.16 -0.72,0.15 -0.02,-0.12 -0.64,0.16 0.02,0.6 0.19,-0.04 0.04,0.77 -0.19,0.01 0.05,1.13 0.6,-0.07 V 1234 h -0.02 l -0.05,-0.78 0.07,-0.03 v -0.54 l 3.68,-1 -0.1,0.09 1.93,-0.49 -0.07,2.15 0.6,-0.19 -0.67,2.43 -0.02,0.56 3.03,0.86 1.25,-1.09 3.13,3.59 -1.16,1.44 -0.54,4.3 0.28,1.03 6.15,-1.73 -13.45,4.49 0.42,0.09 13.26,-4.36 0.16,6.52 -3.92,19.82 -5.81,14.48 -1.59,1.47 -2.23,2.21 -4.38,2.03 0.79,1.47 -2.68,2.39 -0.89,1.06 0.86,1.74 0.81,-0.13 1.9,1.62 3.21,3.05 0.68,3.86 1.3,5.88 1.19,3.88 1.51,0.09 1.67,1.5 2.06,2.26 1.69,1.68 1.35,-1.1 2.4,-0.43 1.62,-0.02 1.2,1.51 0.51,1.99 1.64,1.37 2.98,-1.93 3.43,1.44 0.17,1.62 1.77,2.67 1.65,0.76 0.78,1.24 4.4,2 0.87,-1.41 1.64,2.58 1.12,-0.75 7.84,3.55 0.33,3.05 1.63,1.98 3.1,1.49 4.88,0.78 4.85,0.77 4.61,-2.01 7.95,1.54 1.02,-0.36 z"
       style="fill:#000000;fill-opacity:1;stroke:#000000;stroke-opacity:1;stroke-width:4.98539494;stroke-miterlimit:4;stroke-dasharray:none" />
  </g>
</svg>
