<?xml version="1.0" encoding="UTF-8" standalone="no"?>
<!-- (c) ammap.com | SVG map of East Timor - High -->

<svg
   xmlns:amcharts="http://amcharts.com/ammap"
   xmlns:dc="http://purl.org/dc/elements/1.1/"
   xmlns:cc="http://creativecommons.org/ns#"
   xmlns:rdf="http://www.w3.org/1999/02/22-rdf-syntax-ns#"
   xmlns:svg="http://www.w3.org/2000/svg"
   xmlns="http://www.w3.org/2000/svg"
   xmlns:sodipodi="http://sodipodi.sourceforge.net/DTD/sodipodi-0.dtd"
   xmlns:inkscape="http://www.inkscape.org/namespaces/inkscape"
   version="1.1"
   id="svg21"
   sodipodi:docname="vector.svg"
   width="1024"
   height="1024"
   inkscape:version="0.92.5 (2060ec1f9f, 2020-04-08)">
  <metadata
     id="metadata25">
    <rdf:RDF>
      <cc:Work
         rdf:about="">
        <dc:format>image/svg+xml</dc:format>
        <dc:type
           rdf:resource="http://purl.org/dc/dcmitype/StillImage" />
        <dc:title />
      </cc:Work>
    </rdf:RDF>
  </metadata>
  <sodipodi:namedview
     pagecolor="#ffffff"
     bordercolor="#666666"
     borderopacity="1"
     objecttolerance="10"
     gridtolerance="10"
     guidetolerance="10"
     inkscape:pageopacity="0"
     inkscape:pageshadow="2"
     inkscape:window-width="1366"
     inkscape:window-height="708"
     id="namedview23"
     showgrid="false"
     inkscape:zoom="0.515625"
     inkscape:cx="602.04799"
     inkscape:cy="386.87209"
     inkscape:window-x="0"
     inkscape:window-y="0"
     inkscape:window-maximized="1"
     inkscape:current-layer="svg21" />
  <defs
     id="defs4">
    <style
       type="text/css"
       id="style2">
			.land
			{
				fill: #CCCCCC;
				fill-opacity: 1;
				stroke:white;
				stroke-opacity: 1;
				stroke-width:0.5;
			}
		</style>
    <amcharts:ammap
       projection="mercator"
       leftLongitude="124.041738"
       topLatitude="-8.1268457"
       rightLongitude="127.3430437"
       bottomLatitude="-9.504195" />
    <!-- All areas are listed in the line below. You can use this list in your script. -->
    <!--{id:"TL-LA"},{id:"TL-VI"},{id:"TL-MF"},{id:"TL-MT"},{id:"TL-ER"},{id:"TL-CO"},{id:"TL-BO"},{id:"TL-BA"},{id:"TL-AN"},{id:"TL-AL"},{id:"TL-OE"},{id:"TL-LI"},{id:"TL-DI"}-->
  </defs>
  <g
     id="g19"
     style="fill:#000000;fill-opacity:1;stroke:#000000;stroke-width:3.16304779;stroke-miterlimit:4;stroke-dasharray:none;stroke-opacity:1"
     transform="matrix(1.2646031,0,0,1.2646031,7.902356,339.45057)">
    <path
       id="TL-LA"
       title="Lautem"
       class="land"
       d="m 656.72,153.74 28.63,-2.08 6.96,-3.46 15.64,-11.38 17.02,-3.8 2.89,-0.24 1.66,-2.52 15.69,-15.32 22.29,-17.39 11.13,-11.23 17.75,-13.34 2.43,-4.19 -1.76,-4.92 -4.64,-3.14 -11.02,-3 -5.14,-3.09 -1.64,-2.4 -0.65,-2.16 -1.19,-1.58 -3.14,-0.7 -1.66,0.66 -7.47,5.34 -4.27,2.1 -5.91,0.56 -6.01,-0.56 -4.69,-1.26 -17.08,-8.22 -3.74,-2.75 -4.09,-0.96 -5.46,2.36 -24.89,17.78 -10.4,4.68 -10.64,2.22 -1.75,-0.26 -4.14,-1.3 -2.69,0.02 -1.97,0.92 -4.61,3.25 -1.2,0.33 0.01,0.01 3.69,5.44 1.76,6.14 2.66,2.8 3.86,2.33 -0.65,4.17 -2.06,3.3 3.67,3.6 8.54,7.77 6.72,6.86 1.81,4.01 -3.01,2.49 -6.58,4.88 -5.07,7.31 -3.01,4.06 -0.86,1.17 -1.76,6.15 z"
       style="fill:#000000;fill-opacity:1;stroke:#000000;stroke-width:3.16304779;stroke-miterlimit:4;stroke-dasharray:none;stroke-opacity:1"
       inkscape:connector-curvature="0" />
    <path
       id="TL-VI"
       title="Viqueque"
       class="land"
       d="m 605.81,134.63 -6.57,-3.25 -4.12,-10.77 -4.72,-4.67 -1.66,6.45 -0.75,7.37 0.95,7.41 -4.17,3.15 -6.27,-2.49 -7.79,-2.79 -10.49,-2.34 -12,0.71 -11.5,4.32 -13.01,-0.25 -9.92,-3.38 -2.13,-0.74 -4.82,-0.76 -4.72,3.2 -2.92,7.77 -2.71,6.35 -4.52,3 -3.21,4.17 -0.81,4.78 5.73,8.84 5.12,9.45 0.15,5.29 1.06,5.28 2.66,7.32 4.17,6.1 6.37,8.04 0.09,0.3 6.77,-2.84 64.21,-8.28 10.26,-2.93 8.6,-7.6 8.82,-15.15 9.51,-10.92 2.49,-0.94 5.34,-0.28 2.08,-0.46 1.77,-0.78 7.12,-5.32 2.85,-1.37 5.3,-1.28 8.3,-0.6 v 0 l -0.04,-8.54 1.76,-6.15 0.86,-1.17 -3.42,-4.47 -4.42,-3.35 -5.62,-1.52 -7.89,-2.39 -5.77,2.79 -2.86,5.79 -3.17,1.53 -4.01,-2.39 -6.43,-0.86 z"
       style="fill:#000000;fill-opacity:1;stroke:#000000;stroke-width:3.16304779;stroke-miterlimit:4;stroke-dasharray:none;stroke-opacity:1"
       inkscape:connector-curvature="0" />
    <path
       id="TL-MF"
       title="Manufahi"
       class="land"
       d="m 432.45,151.82 -6.36,-0.52 -4.07,1.32 -4.37,4.37 -8.84,4.52 -4.77,0.5 -0.05,0.41 -2.01,9.61 -1.05,6.05 -0.15,4.52 -0.71,6.96 -3.71,2.39 -8.04,-0.1 -5.62,2.95 -0.8,4.68 -2.01,4.67 -1.96,3.46 -0.45,4.68 0.65,8.13 3.36,5.7 7.24,3.2 6.02,2.9 3.57,3.41 2.06,5.54 -1.46,3.77 -1.76,4.37 1.81,9.05 0.65,1.7 h 0.01 l 2.05,-0.05 15.58,-8.79 5.1,-1.28 h 10.08 l 2.85,-0.97 5.3,-4.46 2.71,-1.44 4.8,-0.38 14.3,2.2 4.52,-1.44 24.4,-16.84 -0.55,-2.93 -3.22,-5.6 -10.44,-7.42 -10.7,-6.25 -3.76,-5.95 -5.68,-6.86 -8.39,-4.12 -7.43,-4.02 -7.43,-6.15 -2.86,-11.02 1.65,-13.77 z"
       style="fill:#000000;fill-opacity:1;stroke:#000000;stroke-width:3.16304779;stroke-miterlimit:4;stroke-dasharray:none;stroke-opacity:1"
       inkscape:connector-curvature="0" />
    <path
       id="TL-MT"
       title="Manatuto"
       class="land"
       d="m 514.24,90.31 h -0.01 l -2.03,0.28 -10.3,3.24 -5.34,1.08 -6.52,-0.68 -9.73,-4.76 -25.39,-4.49 -11.44,0.66 -5.36,1.74 0.01,0.01 4.23,5.55 -3.82,5.12 -4.72,3.56 -5.32,6.6 -6.14,1.74 -1.5,8.42 3.42,7.87 3.41,5.13 3.77,8.74 0.99,11.7 0.06,0.7 -1.65,13.77 2.86,11.02 7.43,6.15 7.43,4.02 8.39,4.12 5.68,6.86 3.76,5.95 10.7,6.25 10.44,7.42 3.22,5.6 0.55,2.93 18.07,-12.49 3.9,-1.62 0.01,-0.01 -0.09,-0.3 -6.37,-8.04 -4.17,-6.1 -2.66,-7.32 -1.06,-5.28 -0.15,-5.29 -5.12,-9.45 -5.73,-8.84 0.81,-4.78 3.21,-4.17 4.52,-3 2.71,-6.35 2.92,-7.77 4.72,-3.2 4.82,0.76 2.13,0.74 5.1,-4.75 2.81,-3.91 1.61,-5.44 -0.45,-8.02 -0.76,-7.42 -0.7,-5.73 -2.51,-4.83 z"
       style="fill:#000000;fill-opacity:1;stroke:#000000;stroke-width:3.16304779;stroke-miterlimit:4;stroke-dasharray:none;stroke-opacity:1"
       inkscape:connector-curvature="0" />
    <path
       id="TL-ER"
       title="Ermera"
       class="land"
       d="m 357.03,126.4 -6.47,-0.3 -8.69,3 -6.58,5.13 -4.31,3.4 -9.75,1.88 -11.75,2.24 -6.33,3.45 -11.19,4.42 -11.59,2.51 1.74,4.3 8.99,1.78 3.87,1.93 2.96,4.98 6.83,13.31 6.83,13.93 1.31,4.88 0.7,7.32 2.51,5.85 15.17,-0.56 5.91,-1.72 7.19,-2.1 0.15,-5.94 2.31,-3.26 2.92,-3.25 1.65,-4.22 4.37,-3.91 0.76,-6.26 -1.16,-2.18 -2.01,-3.76 -1.1,-4.47 -6.53,-3.26 -3.57,-3.65 3.97,-4.88 1.86,-5.44 -3.87,-3.91 0.6,-3 7.84,-2.69 5.22,-3 2.81,-7.57 -2.46,-4.93 z"
       style="fill:#000000;fill-opacity:1;stroke:#000000;stroke-width:3.16304779;stroke-miterlimit:4;stroke-dasharray:none;stroke-opacity:1"
       inkscape:connector-curvature="0" />
    <path
       id="TL-CO"
       title="Cova Lima"
       class="land"
       d="m 355.39,271.76 1.75,-6.73 3.87,-12.06 -3.87,-2.29 -5.37,-1.37 -3.22,-3.82 -0.8,-9.61 -2.56,-6.15 -3.47,-1.58 -1.66,-3.66 -3.16,-3.66 -0.31,0.08 -6.37,1.5 -5.77,4.93 -1.16,6.36 -0.85,9.1 -2.51,4.83 -7.94,-0.36 -4.22,1.02 6.63,8.34 -1.96,7.43 -13.7,1.93 -8.94,-0.81 -1.11,-3.26 -1.71,-2.54 -3.51,-1.93 -8.24,-2.55 -1.31,-0.36 0.3,1.22 -0.79,2.36 -1.98,0.92 -5.97,-0.38 -2.66,0.22 -3.77,2.04 -2.16,2.16 -2.09,1.43 -3.47,-0.21 -1.53,-0.94 -2.9,-3.31 -1.68,-1.24 -1.66,-0.46 -4.97,-0.05 -7.96,1.42 -4.02,4.94 -0.93,7.27 1.47,8.5 1.42,4.28 1.66,2.77 5.8,5.21 5.14,3.24 1.35,1.62 0.34,1.58 -0.49,3.87 0.24,1.73 5.47,8.65 1.12,3.66 2.6,15.04 8.46,-6.05 4.17,-4.13 4.12,-2.63 4.7,-1.38 11.35,-0.84 3.52,-1.27 2.65,-2.1 2.65,-2.93 4.5,-6.81 2.97,-3.49 6.7,-2.92 12.52,-10.48 8.74,-5.39 26.53,-9.89 z"
       style="fill:#000000;fill-opacity:1;stroke:#000000;stroke-width:3.16304779;stroke-miterlimit:4;stroke-dasharray:none;stroke-opacity:1"
       inkscape:connector-curvature="0" />
    <path
       id="TL-BO"
       title="Bobonaro"
       class="land"
       d="m 271.42,152.57 -4.82,-2.09 -4.71,-1.81 -0.05,-0.02 -0.63,9.34 -0.95,4.32 -3.58,3.08 -10.89,4.04 -2.25,2.18 -1.07,3.78 -11.77,17.97 -5.1,5.04 -8.32,4.77 v 0 l 0.72,5.98 -3.24,8.36 -0.3,4.22 1.23,3.77 2.02,3.12 2.85,2.21 3.6,1 4.38,-0.31 3.17,-1.3 6.2,-4.04 11.51,-5.06 3.28,-2.9 0.79,-1.8 1.08,-4.78 0.84,-1.4 2.51,-1.12 1.14,0.59 0.92,1.52 1.76,1.6 4.57,2.6 4.39,3.18 3.54,3.94 2.04,4.88 -0.09,5.34 -4.13,15.46 0.47,2.29 1.03,2.59 0.36,1.43 1.31,0.36 8.24,2.55 3.51,1.93 1.71,2.54 1.11,3.26 8.94,0.81 13.7,-1.93 1.96,-7.43 -6.63,-8.34 4.22,-1.02 7.94,0.36 2.51,-4.83 0.85,-9.1 1.16,-6.36 5.77,-4.93 6.37,-1.5 0.41,-6.13 0.19,-6.65 -5.91,1.72 -15.17,0.56 -2.51,-5.85 -0.7,-7.32 -1.31,-4.88 -6.83,-13.93 -6.83,-13.31 -2.96,-4.98 -3.87,-1.93 -8.99,-1.78 -1.74,-4.3 -1.72,0.39 z"
       style="fill:#000000;fill-opacity:1;stroke:#000000;stroke-width:3.16304779;stroke-miterlimit:4;stroke-dasharray:none;stroke-opacity:1"
       inkscape:connector-curvature="0" />
    <path
       id="TL-BA"
       title="Baucau"
       class="land"
       d="m 646.96,72.71 -5.19,1.41 -18.64,8.84 -10.02,3.4 -8.96,-8.52 -3.56,-1.24 -5.67,-0.38 -5.6,-1.18 -5.16,-2.08 -4.39,-3.21 -2.55,1.13 -4.84,0.08 -2.69,0.46 -8.07,4.54 -7.75,2.24 -10.71,7.62 -5.02,2.51 -9.77,1.38 -10.93,0.16 -3.2,0.44 4.65,3.69 2.51,4.83 0.7,5.73 0.76,7.42 0.45,8.02 -1.61,5.44 -2.81,3.91 -5.1,4.75 9.92,3.38 13.01,0.25 11.5,-4.32 12,-0.71 10.49,2.34 7.79,2.79 6.27,2.49 4.17,-3.15 -0.95,-7.41 0.75,-7.37 1.66,-6.45 4.72,4.67 4.12,10.77 6.57,3.25 9.9,-1.62 6.43,0.86 4.01,2.39 3.17,-1.53 2.86,-5.79 5.77,-2.79 7.89,2.39 5.62,1.52 4.42,3.35 3.42,4.47 3.01,-4.06 5.07,-7.31 6.58,-4.88 3.01,-2.49 -1.81,-4.01 -6.72,-6.86 -8.54,-7.77 -3.67,-3.6 2.06,-3.3 0.65,-4.17 -3.86,-2.33 -2.66,-2.8 -1.76,-6.14 -3.69,-5.44 z"
       style="fill:#000000;fill-opacity:1;stroke:#000000;stroke-width:3.16304779;stroke-miterlimit:4;stroke-dasharray:none;stroke-opacity:1"
       inkscape:connector-curvature="0" />
    <path
       id="TL-AN"
       title="Ainaro"
       class="land"
       d="m 404.04,162.01 0.75,-5.84 -4.11,-0.71 -7.13,1.12 -3.02,2.03 -3.01,2.04 -5.22,1.16 -1.61,4.53 -4.92,5.99 -7.94,2.95 -11.39,1.58 -1.06,0.15 1.16,2.18 -0.76,6.26 -4.37,3.91 -1.65,4.22 -2.92,3.25 -2.31,3.26 -0.15,5.94 -7.19,2.1 -0.19,6.65 -0.41,6.13 0.31,-0.08 3.16,3.66 1.66,3.66 3.47,1.58 2.56,6.15 0.8,9.61 3.22,3.82 5.37,1.37 3.87,2.29 -3.87,12.06 -1.75,6.73 15.57,-5.8 4.98,-2.83 4.96,-3.96 3.98,-0.84 12.33,1.8 2.42,-0.07 h -0.01 l -0.65,-1.7 -1.81,-9.05 1.76,-4.37 1.46,-3.77 -2.06,-5.54 -3.57,-3.41 -6.02,-2.9 -7.24,-3.2 -3.36,-5.7 -0.65,-8.13 0.45,-4.68 1.96,-3.46 2.01,-4.67 0.8,-4.68 5.62,-2.95 8.04,0.1 3.71,-2.39 0.71,-6.96 0.15,-4.52 1.05,-6.05 2.01,-9.61 z"
       style="fill:#000000;fill-opacity:1;stroke:#000000;stroke-width:3.16304779;stroke-miterlimit:4;stroke-dasharray:none;stroke-opacity:1"
       inkscape:connector-curvature="0" />
    <path
       id="TL-AL"
       title="Aileu"
       class="land"
       d="m 421.87,110.1 -6.63,-3.91 -9.34,-0.61 -11.15,5.48 -8.23,4.52 -5.83,1.17 -7.73,2.64 -9.54,1.43 -2.24,-1.67 -2.59,4.51 -1.56,2.74 1.11,0.05 2.46,4.93 -2.81,7.57 -5.22,3 -7.84,2.69 -0.6,3 3.87,3.91 -1.86,5.44 -3.97,4.88 3.57,3.65 6.53,3.26 1.1,4.47 2.01,3.76 1.06,-0.15 11.39,-1.58 7.94,-2.95 4.92,-5.99 1.61,-4.53 5.22,-1.16 3.01,-2.04 3.02,-2.03 7.13,-1.12 4.11,0.71 -0.75,5.84 4.77,-0.5 8.84,-4.52 4.37,-4.37 4.07,-1.32 6.36,0.52 -0.99,-11.7 -3.77,-8.74 -3.41,-5.13 -3.42,-7.87 1.5,-8.42 z"
       style="fill:#000000;fill-opacity:1;stroke:#000000;stroke-width:3.16304779;stroke-miterlimit:4;stroke-dasharray:none;stroke-opacity:1"
       inkscape:connector-curvature="0" />
    <path
       id="TL-OE"
       title="Oecussi"
       class="land"
       d="m 56.45,335.89 0.99,-0.82 2.98,-0.74 4.67,-0.46 4.13,-1.06 3.27,-2.07 2.14,-3.38 0.25,-2.32 -1.11,-4.27 -0.05,-1.68 0.85,-1.86 2.34,-3.36 0.89,-1.89 0.61,-7.27 1.62,-2.57 0.85,-0.49 1.1,-0.05 2.25,-1.22 7.25,-6.21 4.67,-6.13 0.94,-0.84 0.76,-0.99 0.95,-2.14 1.16,-8.6 3.62,-13.61 -0.24,-5.02 -0.08,0.02 -6.09,0.32 -4.82,0.93 -2.06,2.74 -2.69,1.44 -23.8,4.55 -16.17,5.01 -7.4,3.44 -2.29,2.53 -5.34,7.65 -3.06,1.58 -4.27,0.5 -19.63,7.9 -4.45,1.22 7.93,13.76 6.7,5.83 7.49,1.32 3.07,-1.88 4.87,-6.74 3.27,-2.78 3.98,-1.65 3.36,-0.18 3.22,1.4 3.66,3.13 2.76,3.36 2.36,4.02 1.74,4.23 0.85,4.12 -0.15,1.83 -0.85,4.35 v 1.46 l 0.77,3.18 z"
       style="fill:#000000;fill-opacity:1;stroke:#000000;stroke-width:3.16304779;stroke-miterlimit:4;stroke-dasharray:none;stroke-opacity:1"
       inkscape:connector-curvature="0" />
    <path
       id="TL-LI"
       title="Liquica"
       class="land"
       d="m 361.18,119.15 -3.49,-2.6 -1.51,-7.92 -0.35,-2.25 v -0.01 l -0.57,0.26 -4.98,1.08 -16,-1.08 -4.88,0.54 -16.09,4.66 -7.2,4.27 -2.73,0.76 -8.9,-1.32 -1.95,0.48 -4.65,2.52 -11.13,1.72 -4.86,1.64 -3.98,3.48 -3.14,5 -2.08,5.6 -0.85,12.67 0.05,0.02 4.71,1.81 4.82,2.09 7.23,-0.05 1.72,-0.39 11.59,-2.51 11.19,-4.42 6.33,-3.45 11.75,-2.24 9.75,-1.88 4.31,-3.4 6.58,-5.13 8.69,-3 6.47,0.3 1.56,-2.74 z"
       style="fill:#000000;fill-opacity:1;stroke:#000000;stroke-width:3.16304779;stroke-miterlimit:4;stroke-dasharray:none;stroke-opacity:1"
       inkscape:connector-curvature="0" />
    <path
       id="TL-DI"
       title="Dili"
       class="land"
       d="m 442.36,92.94 -4.23,-5.55 -0.01,-0.01 -23.17,7.53 -13.19,2.16 -7.2,-0.2 -4.47,-1.96 -6.64,6.72 -2.84,0.16 -6.29,-1.84 -5.93,0.72 -12.56,5.7 v 0.01 l 0.35,2.25 1.51,7.92 3.49,2.6 2.24,1.67 9.54,-1.43 7.73,-2.64 5.83,-1.17 8.23,-4.52 11.15,-5.48 9.34,0.61 6.63,3.91 0.49,-0.14 6.14,-1.74 5.32,-6.6 4.72,-3.56 z M 390.49,0 l -6.64,4.41 -6.05,6.38 -2.65,4.27 -1.78,3.14 -8.6,6.53 -3.03,2.93 -1.89,3.26 -0.66,2.4 0.83,2.36 2.55,2.89 3.15,1.8 7.83,2.38 1.6,0.92 1.03,1.08 2.29,-0.72 2.25,-1.74 1.07,-1.98 1.66,-7.47 9.37,-23.09 2.08,-7.83 z"
       style="fill:#000000;fill-opacity:1;stroke:#000000;stroke-width:3.16304779;stroke-miterlimit:4;stroke-dasharray:none;stroke-opacity:1"
       inkscape:connector-curvature="0" />
  </g>
</svg>
