<?xml version="1.0" encoding="UTF-8" standalone="no"?>
<!-- (c) ammap.com | SVG map of Svalbard and Jan Mayen - High -->

<svg
   version="1.1"
   id="svg17"
   sodipodi:docname="svalbardJanMayenHigh.svg"
   width="1024"
   height="1024"
   inkscape:version="1.1.2 (b8e25be8, 2022-02-05)"
   xmlns:inkscape="http://www.inkscape.org/namespaces/inkscape"
   xmlns:sodipodi="http://sodipodi.sourceforge.net/DTD/sodipodi-0.dtd"
   xmlns="http://www.w3.org/2000/svg"
   xmlns:svg="http://www.w3.org/2000/svg"
   xmlns:amcharts="http://amcharts.com/ammap">
  <sodipodi:namedview
     id="namedview19"
     pagecolor="#ffffff"
     bordercolor="#666666"
     borderopacity="1.0"
     inkscape:pageshadow="2"
     inkscape:pageopacity="0.0"
     inkscape:pagecheckerboard="0"
     showgrid="false"
     width="1024px"
     inkscape:zoom="0.37562755"
     inkscape:cx="451.24485"
     inkscape:cy="638.93076"
     inkscape:window-width="1512"
     inkscape:window-height="870"
     inkscape:window-x="0"
     inkscape:window-y="38"
     inkscape:window-maximized="1"
     inkscape:current-layer="svg17" />
  <defs
     id="defs11">
    <style
       type="text/css"
       id="style9">
			.land
			{
				fill: #CCCCCC;
				fill-opacity: 1;
				stroke:white;
				stroke-opacity: 1;
				stroke-width:0.5;
			}
		</style>
    <amcharts:ammap
       projection="mercator"
       leftLongitude="-9.077734"
       topLatitude="80.759032"
       rightLongitude="36.811330"
       bottomLatitude="70.832842" />
    <!-- All areas are listed in the line below. You can use this list in your script. -->
    <!--{id:"SJ-JN"},{id:"SJ-SV"}-->
  </defs>
  <g
     id="g15"
     transform="matrix(1.6562997,0,0,1.6562997,5.4738356,-320.33381)"
     style="fill:#000000;fill-opacity:1;stroke:#000000;stroke-opacity:1">
    <path
       id="SJ-JN"
       title="Jan Mayen"
       class="land"
       d="m 9.468,785.72 h -0.5 l -0.695,-0.085 -0.278,0.17 -0.304,0.255 -0.418,0.171 -0.473,0.171 -0.572,0.057 -0.13,0.348 -0.222,0.255 -0.597,0.383 -0.681,1.231 -0.5,0.679 -0.319,0.128 -0.257,0.826 -0.5,0.084 H 2.688 L 2.292,791.05 1.799,791.747 1.16,792 l -0.604,-0.19 0.014,-0.55 -0.542,-0.805 0.028,-0.381 0.243,-0.19 h 0.694 l 0.257,-0.912 0.604,-0.7 0.833,-0.765 0.806,-0.255 0.639,-0.255 1.139,-0.511 0.25,-0.426 0.472,-0.256 0.59,-0.49 0.465,-0.532 0.908,-0.053 0.017,-0.438 0.194,-0.598 0.167,-0.513 0.431,-0.47 0.014,-0.728 0.521,-0.706 0.34,-0.493 0.708,-0.386 0.202,-0.665 0.306,-0.257 0.854,-0.365 -0.625,-0.859 -0.027,-0.302 0.632,-0.021 0.167,-0.603 0.639,-0.258 0.723,0.086 0.222,-0.345 0.327,0.194 0.285,0.409 0.604,0.623 0.285,0.323 0.271,0.451 v 0.815 l -0.25,0.687 -0.215,-0.064 -0.243,0.279 0.181,0.214 -0.319,0.729 -0.056,0.899 0.208,0.384 0.167,0.685 -0.167,0.555 -0.799,0.704 -1.639,0.427 -0.945,0.085 -0.778,0.512 h -0.89 z"
       style="fill:#000000;fill-opacity:1;stroke:#000000;stroke-opacity:1" />
    <path
       id="SJ-SV"
       title="Svalbard"
       class="land"
       d="m 395.273,229.047 0.132,0.216 0.306,-0.173 0.334,0.346 0.409,0.043 -0.354,0.129 v 0.519 l -0.416,0.172 -0.195,0.518 -0.576,-0.216 0.098,-0.432 -0.153,-0.518 0.271,-0.735 z m 4.21,6.03 -0.209,0.086 -0.284,0.986 -0.521,-0.558 0.153,-0.601 -0.319,-0.429 0.125,-0.43 -0.16,-1.075 -0.439,-0.011 0.134,0.527 h -0.278 l -0.277,-0.516 -0.361,0.172 -0.111,0.344 -0.417,-0.172 0.216,-0.301 -0.431,-0.602 -0.035,-0.302 v -0.345 l -0.465,-0.474 0.076,-0.216 0.583,-0.172 0.084,-0.691 0.111,0.345 0.354,0.216 0.035,0.647 h 0.389 0.528 l 0.111,0.172 -0.049,0.301 0.431,0.603 0.389,0.86 0.091,-0.043 0.25,-0.344 0.333,-0.517 0.195,0.172 0.333,-0.172 0.111,-0.344 0.417,0.172 0.139,0.86 0.277,0.172 0.306,-0.172 0.111,0.172 -0.139,0.516 h -0.278 l -0.277,-0.172 -0.278,-0.516 h -0.306 l -0.354,0.646 0.486,0.515 -0.688,0.386 z m 5.488,-1.373 0.354,0.558 0.438,0.043 -0.271,0.301 -0.285,0.3 -0.208,0.171 0.132,0.214 h 0.389 l 0.223,0.343 0.083,0.857 -0.222,0.171 -1.223,0.171 -0.167,-0.171 h -0.5 l -0.056,0.171 h -0.528 l 0.167,0.514 -0.528,0.171 -0.222,-0.685 h -0.389 l -0.133,-0.214 0.104,-0.471 -0.354,-0.215 -0.063,-1.329 0.223,-0.172 h 0.861 l 0.473,-0.172 h 0.75 l 0.167,0.344 h 0.277 l 0.194,-1.031 z m -8.649,5.524 -0.944,-0.17 -0.611,-1.026 h -0.223 l -0.223,-0.342 -0.055,-0.513 0.917,0.342 0.055,-0.685 h 0.361 l 0.445,-0.171 h 0.75 l 0.222,0.685 h 0.445 l 0.111,-0.342 h 0.639 l 0.167,0.342 h 0.222 l 0.278,0.854 H 398.6 l -0.166,-0.342 h -0.306 l 0.132,0.555 -0.111,0.428 -0.604,0.213 0.021,0.469 0.063,0.554 0.056,0.17 0.41,0.042 -0.076,0.298 -0.201,0.128 -0.216,0.554 -0.521,-0.895 -0.369,-0.298 0.049,-0.299 -0.354,-0.213 z m -8.468,8.108 0.597,1.097 0.035,0.295 0.41,0.38 0.111,0.758 -0.188,0.547 -0.306,0.336 -0.445,0.336 0.021,0.463 -0.188,0.042 -0.528,0.503 h -0.444 -0.334 l -0.167,-0.335 -0.5,-0.168 -0.201,-1.051 -0.069,-0.758 0.056,-0.673 0.743,0.295 0.389,-0.168 -0.056,-0.337 h 0.528 l -0.167,-0.675 -0.243,-0.042 v -0.591 l 0.243,-0.211 h 0.5 z m -7.835,21.655 0.188,0.534 0.639,0.984 0.854,1.188 0.313,0.777 0.528,0.327 0.778,0.164 h 0.583 l 0.278,-0.327 h 0.444 v 0.327 l 0.306,-0.164 -0.083,-0.817 h -0.39 l -0.556,-0.327 0.021,-0.287 -0.291,-0.41 0.041,-0.738 0.202,-0.533 0.166,-0.492 0.834,-0.494 0.326,-0.534 -0.048,-0.453 -0.223,-0.329 -0.5,-0.165 -0.188,-0.535 0.132,-0.454 0.257,-0.289 0.431,-0.33 -1.16,-0.701 -0.076,-0.455 0.188,-0.537 h 0.333 l 0.445,-0.332 0.277,-0.166 h 0.334 l 0.465,-0.124 -0.271,-0.372 h -0.306 l -0.444,0.166 -0.167,-0.331 h -0.278 l -0.166,0.497 -0.299,-0.125 0.111,-0.331 0.132,-0.373 0.188,-0.041 0.034,-0.622 h 0.806 0.528 l 0.056,-0.332 -0.223,-0.333 h -0.222 l -0.111,-0.332 h 0.333 l 0.278,-0.332 h 0.611 l 0.09,-0.125 0.021,-0.208 -0.194,-0.332 -0.278,0.166 -0.611,-0.333 -0.111,0.333 -0.389,0.166 h -0.278 l -0.632,-0.706 -0.535,-0.291 h -0.389 l -0.223,0.166 -0.556,0.167 -0.833,0.166 -0.778,-0.166 -0.354,-1.041 0.153,-0.583 -0.432,-1.083 0.209,-1.169 -0.209,-0.92 0.306,-1.34 0.716,-0.377 0.16,0.294 0.09,0.544 0.278,0.503 0.368,0.293 0.465,0.711 h 0.557 l 0.076,0.459 -0.104,0.71 0.111,0.333 0.778,0.333 0.222,0.667 0.299,-0.042 -0.583,-2.254 -0.376,-0.25 -0.146,-0.46 -0.223,-0.334 -0.222,-0.334 -0.41,-0.88 -0.056,-0.42 0.209,-0.167 -0.265,-0.587 0.056,-1.261 0.264,-0.757 -0.097,-0.253 0.326,-0.042 0.167,0.337 0.5,0.168 0.111,0.504 0.333,0.504 0.577,0.546 -0.382,0.798 h 0.583 l 0.194,-0.168 0.271,0.377 -0.125,0.42 0.299,0.712 h 0.444 l 0.027,-0.503 h 1.001 l 0.444,-0.838 h 0.444 l 0.223,0.335 -0.076,0.964 -0.424,0.209 -0.077,0.293 0.792,2.006 -0.11,0.25 0.201,0.292 0.382,0.375 -0.132,0.458 -0.354,0.125 0.319,0.416 0.368,0.625 0.501,-0.167 0.277,-1.333 0.723,-0.167 h 0.778 l 0.306,-0.167 h 0.444 l -0.049,0.292 0.243,0.375 0.389,0.167 0.39,0.167 0.146,0.792 0.292,0.416 0.111,0.665 0.083,0.664 0.091,0.623 v 0.333 l 0.75,0.331 0.465,0.704 -0.215,0.621 0.132,0.537 -0.167,0.579 -0.514,0.413 -0.167,0.578 0.466,-0.124 0.604,0.701 0.277,0.66 0.084,0.659 -0.077,0.453 0.695,0.165 0.694,-0.494 0.223,-0.658 0.556,-0.66 0.444,-0.33 0.556,0.165 -0.167,0.33 0.195,0.33 -0.021,0.371 0.028,0.823 0.041,0.412 -0.291,0.822 0.271,1.518 -0.271,0.779 0.458,0.899 -0.056,0.654 0.174,1.103 0.25,0.164 h 0.778 l 0.056,-0.654 h 0.277 l 0.473,0.164 0.285,-0.694 0.132,-0.449 0.465,0.041 0.008,0.776 0.916,0.49 h 0.501 l 0.59,-0.368 0.077,-0.286 0.5,-0.49 0.277,-0.327 0.445,-0.327 0.09,-0.287 0.326,-0.368 0.133,0.041 0.313,0.287 0.326,0.286 -0.743,0.205 -0.076,0.286 0.235,0.164 -0.139,0.817 -0.208,0.163 0.132,0.205 h 0.583 l 0.473,-0.327 0.035,-0.612 -0.028,-0.245 0.104,-0.777 0.354,-0.532 -0.209,-0.411 0.459,-0.737 -0.181,-0.41 0.188,-0.533 0.806,0.328 0.389,0.656 0.118,0.451 0.348,0.246 0.201,0.287 0.084,0.492 0.361,0.327 0.389,0.327 0.361,0.164 0.382,-0.614 -0.083,-0.655 -0.167,-0.491 -0.264,-0.984 -0.084,-0.657 0.188,-0.205 0.278,0.329 0.223,0.164 0.11,-0.493 v -0.165 l 0.667,-0.164 0.063,0.452 0.354,0.206 0.466,1.025 0.027,0.902 -0.027,0.41 -0.028,0.573 -0.166,0.491 -0.181,0.49 0.235,0.571 0.174,0.286 0.077,0.449 -0.104,0.204 -0.25,-0.163 -0.327,0.367 -0.09,0.448 0.007,0.203 0.021,0.448 -0.688,0.041 -0.402,0.733 -0.348,0.975 0.319,0.812 -0.299,0.041 -0.465,0.284 0.132,0.203 0.667,-0.162 h 0.944 l 0.611,-0.325 h 0.278 l -0.077,0.446 0.236,0.081 0.702,1.094 0.027,0.647 h 1.223 l 0.056,-0.162 0.39,-0.162 h 0.277 l -0.326,0.607 0.291,0.404 -0.069,0.727 0.216,0.363 0.306,0.484 0.271,0.444 0.063,0.523 -0.222,0.322 0.007,0.443 0.382,0.362 0.229,0.121 0.208,0.241 -0.139,0.321 -0.076,0.282 -0.695,-0.482 -0.104,0.121 0.521,0.844 h 0.361 l 0.104,0.201 -0.431,0.401 0.354,0.841 0.494,0.2 0.117,0.441 0.494,0.52 -0.209,0.24 -0.174,0.52 0.584,0.16 0.583,-0.16 0.299,-0.28 -0.049,-0.2 -0.159,-0.44 0.264,-0.24 0.111,-0.32 -0.326,-0.602 -0.216,-0.04 0.271,-0.762 0.528,0.161 -0.083,0.481 0.473,0.16 0.527,0.642 0.556,0.16 h 0.278 l 0.271,-0.681 -1.049,-1.243 h -0.361 l -0.104,-0.201 0.32,-0.482 -0.125,-0.563 0.271,-0.684 0.139,-0.322 h 0.64 l 0.243,-0.201 -0.216,-0.443 -0.527,-0.322 -0.417,0.161 -0.132,-0.283 0.159,-0.362 0.584,0.161 0.243,-0.282 -0.327,-0.202 -0.25,-0.484 -0.944,-0.162 -0.299,-0.283 0.16,-0.363 0.415,0.321 0.446,0.002 0.243,-0.202 -0.077,-0.445 -0.055,-0.647 -0.383,-0.526 -0.056,-0.729 -0.166,-1.217 -0.056,-1.219 0.159,-0.366 0.258,-0.286 0.389,-0.977 0.41,-0.204 0.215,-0.529 -0.431,-0.98 0.216,-0.613 0.354,-0.858 -0.188,-0.45 -0.052,-0.491 -0.159,-0.532 -0.042,-0.902 v -0.739 l -0.125,-0.576 0.41,-0.205 0.194,-0.494 1.278,-0.329 0.104,-0.206 -0.077,-0.453 -0.118,-0.454 -0.215,-0.371 h -0.528 l -0.861,-0.33 -0.361,-0.661 -0.604,-0.372 -0.583,-1.489 -0.028,-0.828 -0.222,-1.161 0.181,-0.498 -0.069,-1.58 0.076,-0.208 h 0.527 l 0.557,-1.5 0.472,-0.333 1.111,-0.333 h 0.807 l 0.25,0.5 h 0.222 l 0.104,0.292 -0.208,0.167 0.264,0.916 -0.125,0.417 0.152,0.833 -0.132,0.374 -0.146,0.706 -0.236,0.748 0.348,0.249 -0.181,0.497 -0.195,0.58 0.16,0.538 0.361,0.331 0.399,0.02 0.435,0.807 0.416,0.661 h 0.445 l -0.056,-0.496 -0.417,-0.992 -0.799,-0.703 0.403,-0.662 -0.07,-0.747 0.459,-1.079 0.229,-0.291 0.694,-0.831 0.438,-1.54 -0.277,-1 0.007,-0.46 0.188,-0.042 0.027,-0.584 -0.236,-0.167 0.028,-0.417 0.125,-0.418 -0.653,-1.256 -0.027,-0.419 -0.223,-1.09 0.208,-0.589 -0.326,-0.546 -0.104,-0.463 0.383,-0.715 0.306,0.842 0.174,0.21 0.048,0.462 0.354,0.21 0.201,-0.042 0.133,0.042 -0.042,0.253 0.292,0.419 -0.125,0.42 0.458,0.419 0.341,0.629 h 0.277 l 0.076,-0.209 -0.159,-0.629 -0.688,-0.545 0.298,-0.126 0.528,0.335 0.473,0.671 0.527,0.168 0.195,0.67 h 0.889 l -0.021,0.294 0.41,0.711 0.527,-0.167 0.5,-0.167 0.306,0.502 0.216,0.376 -0.181,0.501 0.104,0.292 h 0.444 l 0.306,-0.501 0.159,0.543 -0.326,0.459 -0.473,0.334 0.167,0.167 h 0.528 l -0.035,0.292 -0.354,0.042 -0.09,0.625 -0.354,0.042 -0.25,0.666 -0.424,0.625 -0.486,0.748 0.216,0.457 h 0.389 l 0.382,0.373 -0.159,0.457 -0.493,0.373 0.188,0.953 h 0.611 l 0.166,0.166 0.202,0.538 0.125,0.58 0.007,0.372 -0.361,0.33 0.194,0.661 0.139,0.33 -0.36,0.33 0.063,0.454 0.375,0.576 -0.16,0.453 -0.215,0.535 0.041,0.74 -0.083,0.657 -0.521,0.041 -0.306,0.164 h -0.75 l -0.361,0.492 -0.389,0.164 -0.586,0.646 0.132,0.942 -0.152,0.818 -0.137,1.057 -0.086,0.657 0.181,0.408 -0.326,0.367 -0.389,-0.163 -0.271,0.204 0.403,0.163 -0.236,2.359 0.521,0.853 0.466,0.203 -0.027,0.486 -0.16,0.607 0.611,-0.162 -0.028,0.324 -0.11,0.162 0.027,0.485 h 0.278 l 0.11,-0.323 0.528,0.162 -0.188,0.202 0.027,0.405 0.327,0.363 0.354,-0.525 0.056,-0.485 -0.292,-0.486 0.125,-0.38 -0.515,-1.078 -0.284,-0.447 -0.194,-0.325 -0.299,-0.528 0.243,-0.284 0.527,0.163 0.361,0.649 h 0.695 l 0.333,0.649 0.444,0.487 0.194,0.324 0.299,-0.041 -0.604,-1.095 -0.416,-0.649 -0.243,-0.365 0.291,-0.407 -0.354,-0.692 h 0.277 l 0.556,0.489 0.341,0.285 0.215,0.366 0.118,0.447 0.25,1.785 0.633,0.526 0.215,-0.202 -0.069,-1.541 -0.035,-0.527 -0.048,-0.447 0.181,-0.487 -0.195,-0.325 -0.409,-0.692 -0.695,-0.814 v -0.163 l -0.333,-0.815 h 0.277 l 0.557,0.653 0.083,0.489 h 0.611 l 0.132,-0.448 -0.16,-0.367 h 0.445 l 0.632,0.53 -0.027,0.57 -0.292,0.244 -0.028,0.57 0.056,0.651 0.438,1.015 0.584,0.325 v 0.649 l 0.083,0.486 -0.493,0.365 -0.007,0.607 0.361,0.324 h 0.75 l 0.084,-0.647 0.556,-0.162 0.299,-0.688 -0.403,-0.974 0.111,-0.731 0.41,-0.203 0.277,-1.139 0.466,0.041 0.007,0.611 h 0.583 l 0.41,-0.203 0.194,-0.489 -0.159,-0.937 -0.493,-0.204 -0.098,-1.054 -0.348,-0.252 -0.125,-1.389 -0.291,-0.409 0.326,-0.45 0.167,0.164 0.563,0.041 0.132,0.287 h 0.417 l 0.159,-0.368 -0.104,-0.288 -0.195,-0.327 -0.277,-0.164 -0.417,-0.164 -0.465,0.123 -0.056,-0.738 0.291,-0.246 0.028,-0.575 -0.181,-0.329 0.243,-1.356 h 0.25 l 0.473,0.494 0.299,0.534 0.208,1.232 0.382,0.369 0.188,-0.205 -0.097,-0.575 0.243,-0.369 0.416,0.493 h 0.39 l 1.028,0.82 0.277,-0.82 -0.361,-0.329 -0.166,0.165 -0.528,-0.165 -0.382,-0.37 0.104,-0.288 0.41,-0.205 -0.598,-1.316 0.14,-0.412 0.298,-0.536 0.354,0.536 0.424,0.453 0.194,0.658 0.618,0.781 0.91,1.191 0.084,0.492 0.444,0.492 0.584,-0.328 0.132,-0.369 -0.111,-0.575 -0.431,-0.41 -0.007,-0.288 -0.445,-0.822 -0.034,-0.535 -0.021,-0.782 0.583,0.165 h 0.5 l 0.306,0.33 0.25,0.494 0.556,0.329 -0.048,0.288 0.243,0.206 0.465,-0.699 -0.348,-0.329 0.126,-0.412 -0.216,-0.371 -0.473,-0.166 -0.139,-0.33 h -0.389 l -0.077,-0.784 0.466,-0.041 0.132,0.289 0.063,0.371 h 0.417 0.333 l 0.528,0.495 0.132,-0.124 -0.292,-0.412 0.028,-0.604 -0.396,-0.014 -0.556,-0.496 h -0.722 l -0.306,-0.331 -1.057,-0.33 -0.527,-0.332 -0.361,-0.331 0.139,-0.497 0.028,-0.497 h 0.527 l 0.334,-0.829 0.222,-0.167 h 1.111 l 1.528,0.333 0.14,0.331 h 0.389 l 0.361,-0.331 h 0.25 l 0.049,0.456 0.007,0.207 0.215,0.373 -0.125,0.414 0.417,0.993 0.41,0.702 h 0.333 l 0.132,0.207 -0.632,0.784 -0.59,0.289 -0.292,0.331 -0.091,0.371 h -0.277 l -0.194,0.494 -0.41,0.206 0.104,0.288 0.277,-0.165 0.104,0.206 -0.486,0.822 0.056,0.74 0.347,0.246 0.063,0.779 h 0.278 l 0.194,-0.492 0.118,-0.287 0.292,-0.246 0.257,-0.123 0.694,-0.165 -0.021,-0.781 0.493,-1.192 0.466,0.041 -0.104,0.453 h 0.945 l 0.222,-0.165 0.299,-0.699 -0.042,-1.072 0.181,-0.413 -0.027,-0.413 0.201,-0.372 0.049,-0.621 -0.188,-0.372 -0.243,-0.041 -0.091,-1.118 -0.472,-0.166 -0.133,-0.29 0.438,-0.207 h 0.944 l -0.083,0.331 -0.183,0.032 -0.005,0.424 0.958,0.414 0.195,0.662 0.027,0.331 -0.181,0.827 0.181,0.413 -0.348,0.825 0.084,0.989 -0.028,0.823 0.348,0.329 -0.16,0.37 -0.215,0.041 -0.146,0.781 0.306,0.984 0.216,0.041 0.007,0.451 h -0.333 l -0.083,0.322 1.167,-0.164 0.278,-0.328 1.25,-0.164 0.063,-0.615 0.375,-0.41 -0.181,-0.329 0.104,-0.288 0.556,0.494 0.139,0.328 h 0.278 l 0.111,-0.328 0.417,-0.165 0.139,-0.329 0.778,-0.657 0.194,0.493 h 1.167 l -0.083,0.329 -0.466,0.78 0.382,0.041 0.139,0.328 0.473,0.164 -0.083,0.328 h -0.25 l -0.584,-0.492 h -0.277 l -0.473,0.492 -0.25,-0.82 -0.417,-0.164 -0.604,0.369 0.104,0.287 0.639,0.164 0.14,0.328 0.215,0.041 -0.264,0.656 0.111,0.491 0.271,0.123 0.611,0.164 0.076,-0.287 -0.514,-0.655 0.104,-0.205 0.639,-0.328 0.271,0.041 -0.347,0.491 0.188,0.451 h 0.277 l 0.361,0.164 -0.049,0.286 0.271,0.205 0.277,0.164 0.584,0.163 0.973,-0.327 0.778,0.49 -0.084,0.327 -0.417,-0.163 -0.104,0.204 0.382,0.449 0.438,-0.368 0.146,-0.613 h 0.277 0.5 l 0.194,-0.49 h 0.278 l 0.271,0.531 -0.347,0.49 0.104,0.286 1.084,-0.163 0.139,0.327 h 0.861 l 0.216,0.368 -0.382,0.123 -0.368,0.041 -0.327,0.123 -0.215,0.041 0.027,0.408 0.466,0.204 0.361,0.652 -0.334,0.163 -0.139,0.326 h -0.25 l -0.333,-0.326 -0.188,0.204 0.104,0.286 1.028,0.65 0.188,-0.285 -0.319,-0.244 0.076,-0.286 0.694,0.164 0.14,0.325 0.396,0.122 0.354,-0.122 h 0.333 l 0.104,-0.203 -0.382,-0.122 0.083,-0.326 h 0.417 l 0.139,0.163 h 0.528 l 0.277,-0.326 h 0.278 l 0.306,0.326 h 0.723 0.694 l 0.778,0.164 h 0.611 l 0.667,0.163 1.139,0.325 1.445,0.325 0.444,0.163 0.417,0.162 0.723,0.487 h 1 l 0.417,1.136 0.444,0.162 0.501,0.972 0.409,0.688 0.341,0.93 0.521,1.009 -0.291,0.323 0.104,0.282 1.528,-0.484 0.917,0.162 0.917,0.484 0.382,2.053 -0.298,0.683 h -0.361 l -0.361,0.803 -0.118,0.281 -0.223,0.802 -0.243,0.521 -0.034,0.76 -0.14,0.64 0.111,0.719 -0.125,0.399 0.348,1.275 -0.223,0.478 -0.736,1.511 0.264,0.477 -0.041,1.191 0.771,1.465 0.633,0.515 -0.015,1.501 -0.055,0.395 -0.084,0.553 0.319,0.631 -0.055,0.472 -0.223,0.472 -0.16,0.354 -0.389,0.158 -0.361,0.786 -0.444,0.628 -0.063,0.432 -0.348,0.392 -0.174,0.118 -0.299,0.196 0.077,0.588 -0.306,0.156 -0.25,-0.47 h -0.251 l -0.271,0.196 0.076,0.587 -0.472,0.313 -0.39,-0.313 h -0.417 l -0.361,0.469 -0.118,0.274 -0.326,0.352 -0.222,-0.313 h -0.584 l -0.444,0.313 -0.16,0.352 -0.174,0.43 -0.354,0.351 -0.069,0.858 -0.264,0.546 0.181,0.701 -0.216,1.127 h -0.611 l -0.194,0.777 -0.833,0.466 -0.723,0.155 -0.111,0.62 -0.549,0.504 -0.285,0.271 -0.243,0.193 -0.146,0.735 -0.639,0.31 -0.229,0.58 -0.104,0.193 -0.277,0.31 -0.556,0.154 -0.334,0.463 -0.694,0.309 -0.473,0.154 -0.194,0.462 -0.75,0.308 -0.278,0.617 h -0.25 l -0.389,-0.308 -0.611,0.308 -0.111,0.308 -1.001,0.154 -0.416,0.615 -0.89,0.614 -0.549,0.5 -0.201,0.882 -0.285,0.269 -0.181,0.383 0.265,0.766 -0.098,0.995 0.299,0.497 0.167,0.305 0.75,0.458 0.271,0.496 0.111,2.209 -0.625,0.684 -0.056,0.228 -0.139,0.228 -0.32,1.139 -0.159,0.341 -0.361,0.455 -0.771,0.341 -0.194,0.454 -0.229,0.568 -0.611,0.302 -0.583,1.057 -1.195,1.659 h -0.444 l -0.639,0.603 -0.556,0.452 -1.167,0.602 -1.64,-0.301 h -1.557 l -0.723,0.301 -0.527,0.15 -0.473,0.45 -0.694,-0.15 -0.445,0.3 -0.166,0.45 -0.667,0.15 -0.861,0.601 -0.806,0.15 -0.056,0.45 h -0.751 -1.056 l -0.5,0.149 -0.528,0.599 -0.389,0.149 -0.473,0.449 -0.667,0.897 -0.527,0.149 -0.778,0.448 -0.528,0.597 -0.215,1.23 0.014,0.67 -0.688,1.672 -0.444,0.742 h -1.473 -1.64 l -1.528,-0.148 h -0.584 l -0.361,-0.148 -0.611,-0.296 -0.556,0.148 -0.361,-0.445 -1.556,-0.297 -0.139,-0.297 -0.278,-0.446 -1,-0.596 -0.139,-0.149 -1.362,-0.149 h -0.889 l -0.667,-0.148 -0.5,-0.596 h -0.501 l -0.242,-0.187 -0.174,-0.261 -0.132,-0.485 0.014,-0.522 -0.403,-0.373 -0.417,-0.896 -0.014,-0.823 0.139,-0.674 0.348,-1.275 0.326,-0.488 0.223,-0.15 0.667,-0.15 0.354,-0.563 -0.431,-0.375 -0.229,-0.565 -1.334,-0.301 -0.111,-0.301 -0.139,-0.15 h -1.14 l -0.11,0.301 -0.361,0.15 -0.361,-0.15 h -0.334 l -0.472,0.15 -0.5,-0.904 h -0.723 l -0.361,0.603 -0.528,0.151 h -0.528 l -0.166,-0.301 h -0.39 l -0.076,0.264 -0.257,0.188 -0.174,0.038 h -0.444 l -0.076,0.264 h -0.25 l -0.251,-0.301 -0.36,0.15 -0.251,0.151 -0.306,0.15 h -0.444 l -0.389,-0.15 -0.223,0.15 -0.389,0.602 h -0.444 l -0.251,0.301 h -0.611 l -0.722,0.3 -0.111,0.3 -0.306,0.451 -0.299,-0.338 -0.396,-0.113 -0.39,-0.45 -0.694,0.15 -0.695,-0.902 -0.666,-0.301 -1.001,-0.452 h -1.084 l -0.556,-0.15 -0.583,-0.301 -0.667,0.301 -1.223,0.301 -0.667,0.301 -1.056,0.452 -0.806,0.15 -0.417,0.301 h -0.834 l -0.861,-0.451 h -0.556 l -0.611,-0.15 -0.417,-0.151 -0.354,-0.338 -0.055,-0.376 0.389,-1.055 0.299,-0.038 0.354,-0.491 -0.195,-0.831 -0.215,-0.038 -0.584,-0.453 -0.5,-0.302 -0.611,-0.757 -0.694,-0.151 h -0.5 -0.917 l -0.5,-0.605 -1.307,-0.303 -0.694,-0.455 h -0.5 l -0.167,-0.303 -0.278,-0.456 h -0.361 l -0.576,-0.266 -0.229,0.114 -0.416,0.152 -0.557,-0.152 -0.409,-0.645 -0.056,-0.38 -0.118,-0.342 -0.16,-0.495 -0.034,-0.724 -0.41,-0.647 -0.396,-0.572 -0.39,-0.152 -0.778,-0.458 -0.639,-0.764 -0.667,-0.765 0.076,-0.421 -0.271,-0.651 -0.417,0.153 -0.444,-0.459 v -0.153 l 0.25,-0.307 0.09,-0.191 0.07,-0.384 -0.431,-0.384 0.097,-0.385 -0.438,-0.345 -0.216,-0.346 0.14,-0.538 0.493,-0.963 1.64,-0.308 0.944,-0.462 0.646,-0.039 0.521,-0.27 0.64,0.154 1.528,0.154 0.666,0.308 0.501,0.309 0.521,0.809 -0.236,0.308 0.16,0.577 h 0.833 l 0.063,0.884 0.66,0.499 0.278,0.46 0.861,0.153 h 0.389 l 0.111,-0.307 h 0.223 l 0.277,0.153 v 0.307 l 0.417,0.153 h 0.361 l 0.361,-0.307 0.473,-0.153 0.25,-0.767 0.326,-0.039 0.451,0.039 0.133,0.038 0.257,0.729 h 0.25 l 0.076,-0.192 -0.16,-0.422 0.473,-0.153 0.229,-0.116 0.243,-0.038 0.549,0.346 -0.181,0.154 0.104,0.269 0.34,0.651 0.16,0.575 0.361,-0.306 0.271,0.038 0.167,0.843 -0.271,0.497 h 0.64 l 0.417,0.459 h 0.5 l 0.389,0.153 0.723,0.458 h 0.417 l 0.424,-1.185 0.271,-0.344 0.549,-0.651 -0.215,-0.421 -0.445,-0.46 h -0.25 l -0.111,0.153 -0.75,0.153 -0.056,0.307 h -0.527 l -0.501,-0.153 -0.382,-0.345 -0.118,-0.422 -0.277,-0.768 -0.194,-0.154 -0.723,-0.768 -0.75,-0.461 -0.723,0.154 -1.111,-0.308 -0.306,-0.308 -0.251,-0.154 -0.722,-0.154 -0.271,-0.347 -0.368,-0.578 -0.312,-1.055 -0.167,-0.464 -0.792,-1.159 -0.063,-0.426 -0.326,-0.271 0.299,-0.348 h 0.444 l 0.14,-0.311 1.027,-0.31 1.195,-0.31 0.5,-0.155 h 0.473 l 0.583,-0.311 0.667,-0.155 0.528,0.466 h 0.389 l 0.368,-0.582 0.438,-0.35 h 0.584 0.75 l 0.64,-0.311 1.25,0.155 0.89,0.155 0.25,0.155 h 0.25 l 0.216,-0.533 0.423,-0.088 h 0.473 l 0.271,0.194 0.118,0.738 1.056,-0.311 0.417,0.466 0.417,0.155 0.417,0.155 0.723,-0.155 h 0.361 l 0.833,0.155 0.778,-0.311 0.417,-0.311 0.215,-0.504 0.118,-1.206 0.584,-0.311 0.159,-0.35 -0.159,-0.584 -0.611,-0.468 -0.633,-0.195 -0.173,-0.273 -0.25,-0.468 -0.834,-0.156 -0.667,0.312 -0.41,-0.663 0.056,-0.626 -0.027,-0.391 0.243,-0.195 0.889,0.156 -0.056,-0.469 h -0.667 l -0.5,-0.47 -0.111,0.313 -0.389,0.157 -0.167,0.469 -0.166,0.469 -0.299,-0.039 0.604,-2.467 h 0.472 0.445 l 0.243,-0.196 -0.104,-0.274 -0.827,-0.51 -0.507,-0.432 -0.361,-0.157 h -0.194 l -0.583,0.157 -0.584,0.157 -0.167,-0.314 h -0.889 l -0.111,0.314 -0.584,0.314 h -0.472 l -0.807,0.471 -0.215,-0.275 0.354,-0.039 v -0.157 l -0.528,-0.314 h -0.417 l -0.243,0.196 0.188,0.432 -1.333,0.628 h -0.89 l -0.277,0.157 h -0.417 l -0.14,-0.471 0.133,-0.118 -0.354,-0.196 -0.528,0.942 -0.694,0.157 -0.778,-0.157 -0.361,-0.314 h -0.667 l -0.166,-0.314 h -0.39 l -0.723,1.568 -0.11,0.313 h -0.611 l -0.084,0.156 -0.361,-0.156 0.188,-0.196 -0.159,-0.587 h -0.473 l -0.167,0.157 -0.556,-0.157 -0.299,0.353 0.077,0.274 -0.834,0.157 -1.361,0.313 -0.111,0.313 -0.5,0.313 -0.39,0.157 -0.166,-0.313 -0.341,-0.195 -0.056,-0.392 -0.271,-0.352 v -0.313 h -0.417 l -0.243,1.213 -0.146,0.352 -0.306,0.469 -0.89,0.313 -0.723,0.312 -0.389,0.156 h -0.834 -0.667 l -0.583,0.156 -1.445,0.156 -0.667,0.624 -0.188,0.506 0.098,0.234 -0.493,0.972 -0.25,-0.778 -0.223,-0.312 -0.632,-0.194 0.215,-0.273 h 0.473 l 0.076,-0.663 0.125,-0.858 -0.201,-0.195 -0.417,-0.469 -1.973,0.156 -0.723,-0.156 -0.333,-0.156 h -0.473 l -0.556,-0.157 h -0.223 -0.806 -0.917 l -0.917,0.157 -0.306,0.469 -0.361,0.156 -0.166,0.468 -0.473,0.156 -0.25,-0.468 -0.091,-0.586 -0.354,-0.508 h -0.361 l -0.583,-0.157 0.132,-0.586 -0.493,-0.196 -0.201,-0.039 -0.327,0.039 0.077,0.274 -0.216,0.196 -0.361,-0.157 -0.277,-0.47 -0.223,-0.313 h -0.194 l -0.091,0.118 -0.215,0.195 -0.694,0.157 h -0.39 l -0.159,-0.274 0.264,-0.235 -0.028,-0.549 -0.188,-0.51 -0.361,-0.313 -0.271,0.118 -0.174,-1.217 -0.527,-0.157 -0.361,0.314 h -0.194 l -0.223,-0.157 -0.299,-1.141 -0.035,-0.591 -0.063,-0.749 -0.319,-0.474 -0.167,-0.394 0.042,-0.711 -0.222,-0.791 -0.41,-0.831 -0.473,-0.158 -0.049,-0.594 0.236,-0.237 0.223,-0.635 0.194,-0.635 0.229,-0.755 0.549,-0.198 0.063,-0.756 h 0.277 l -0.076,0.438 0.299,0.198 h 1.028 l -0.14,-0.318 -0.11,-0.478 -0.417,0.159 -0.194,-0.796 h -0.361 l -0.278,0.159 -1.139,0.159 -0.64,0.956 -0.299,-0.597 0.327,-0.518 0.333,-0.478 0.417,-0.319 h 0.306 l 0.639,-0.479 0.778,-0.479 0.194,-0.639 0.035,-0.52 0.159,-0.6 0.167,0.16 h 1.667 l 0.271,0.2 -0.82,0.16 0.077,0.44 0.166,0.319 0.077,0.28 -0.438,0.359 0.077,0.279 -0.299,0.359 h -0.25 l -0.278,-0.479 -0.132,0.04 -0.118,0.279 -0.41,-0.12 -0.034,0.279 0.465,0.358 0.091,0.598 0.167,0.478 h 0.527 l 1.001,-0.159 0.444,-0.16 0.473,-0.159 0.159,-0.598 0.208,0.116 0.16,0.322 -0.056,0.159 0.584,0.159 0.061,-0.309 -0.339,-0.168 -0.215,-0.438 0.576,-0.04 0.167,0.16 0.167,-0.479 0.09,-0.199 0.049,-0.758 0.639,0.319 -0.027,0.479 0.778,0.16 0.222,0.638 0.528,0.16 0.056,-0.319 h -0.194 l -0.243,-0.359 0.235,-0.319 0.368,0.04 h 0.417 l -0.146,-0.598 -1.133,-0.679 v -0.16 l 0.549,-0.2 -0.243,-0.12 v -0.32 l -0.583,0.16 -0.243,-0.44 0.938,-0.04 0.361,-0.48 0.417,0.32 h 0.417 l 0.826,-1.563 -0.604,0.441 h -0.277 l -0.194,-0.32 -0.077,-0.361 0.104,-0.441 0.389,-0.161 -0.076,-0.281 0.271,-0.361 0.556,0.963 0.493,-0.2 0.306,-0.482 -0.382,-0.442 v -0.321 l 0.076,-0.282 -0.243,-0.362 -0.75,0.161 -0.41,-0.362 -0.201,-0.282 -0.216,-0.362 0.326,-0.605 0.584,-0.322 v -0.162 l -0.334,-0.484 -0.194,0.323 h -0.277 l -1.307,-0.807 h -0.25 l -0.111,0.323 h -0.444 l -0.215,-0.444 0.271,-0.525 -0.667,-0.486 h -0.417 l 0.223,0.324 -0.223,0.162 -0.438,-0.122 0.021,0.606 0.389,0.484 0.243,0.363 -0.021,0.766 0.277,0.162 0.25,-0.162 0.278,0.162 0.132,0.282 -0.243,0.04 -0.306,0.161 -0.417,0.805 -0.694,0.161 -0.354,0.041 -0.056,0.724 0.375,0.241 0.368,0.281 0.077,0.361 -0.383,0.762 -0.354,-0.361 -0.146,-0.441 -0.167,-0.321 h -0.361 l -0.639,0.321 h -1.945 l -0.083,0.321 -0.64,0.642 -0.243,-0.361 0.042,-0.723 -0.299,-0.361 -0.139,-0.482 -0.694,-0.161 -0.028,0.321 0.167,0.804 h -0.584 l -0.132,-0.201 -0.167,-0.482 0.07,-0.402 -0.792,-2.012 -0.015,-1.049 -0.514,-0.888 -0.451,-1.902 -0.306,0.162 -0.445,-0.162 -0.076,0.202 0.515,0.971 v 0.486 l 0.034,0.444 -0.382,-0.202 0.042,-0.243 -0.403,-0.728 0.098,-0.405 -0.32,-0.404 -0.174,-0.77 h -0.583 -0.333 l -1.112,0.972 -0.438,-0.04 -0.063,-0.284 0.056,-0.324 0.528,-0.162 -0.077,-0.284 0.327,-0.528 0.277,0.163 0.243,-0.203 -0.159,-1.096 0.417,-0.325 h 0.611 0.333 l 0.611,-0.325 0.076,-0.774 -0.402,-0.732 0.076,-0.286 h 0.277 l 0.39,1.141 0.389,0.326 0.167,-0.164 0.396,-0.203 0.209,-0.163 0.166,-0.082 h 0.181 l 0.327,-0.529 0.222,0.489 h 0.39 l 0.389,0.326 v 0.326 h 0.444 l 0.528,-0.164 0.694,-0.163 0.278,-0.326 0.354,-0.041 -0.077,-0.448 -0.243,-0.041 0.16,-0.611 0.243,0.204 0.146,0.448 0.278,0.489 0.354,-0.204 -0.077,-0.774 0.473,0.652 h 0.556 l 0.445,-0.326 0.36,0.326 0.417,1.14 0.584,0.325 -0.188,0.285 0.243,0.365 0.25,-0.162 0.639,0.325 0.216,-0.203 0.014,-1.546 0.243,-0.203 h 0.473 l 0.132,-0.366 -0.243,-0.449 -0.278,0.163 -0.5,-0.489 -0.076,-0.449 0.243,-0.368 0.333,0.327 0.806,0.164 0.557,0.652 0.5,0.163 0.166,0.326 0.417,-0.163 0.111,0.326 h -0.306 l -0.243,0.285 0.188,0.53 h 0.223 l 0.215,0.366 -0.181,1.219 0.41,0.203 0.25,-0.163 0.201,0.284 0.486,0.893 0.611,0.648 0.598,1.214 0.243,0.364 0.278,-0.162 0.361,0.323 -0.188,0.283 0.277,0.565 0.132,0.282 0.64,0.323 0.166,-0.646 0.39,0.646 h 0.417 0.333 l 0.639,-0.484 0.133,-0.363 -0.354,-0.283 v -0.323 l 0.021,-0.364 v -0.485 l -0.154,-0.562 0.465,-0.364 0.14,-0.648 -0.167,-0.162 -0.194,0.162 -0.243,-0.365 -0.285,-0.447 -0.111,-0.325 0.473,-0.162 0.277,0.487 h 0.557 0.306 l 0.444,0.487 0.583,0.162 h 0.445 l 0.271,-0.447 -0.604,-0.365 v -0.325 l -0.583,-0.65 -0.778,-0.163 -0.417,-0.163 -0.389,-0.325 -1.084,0.163 -0.382,-0.366 -0.056,-0.408 0.159,-0.203 -0.527,-0.326 -0.444,0.163 -0.223,-0.326 -0.354,-1.019 0.021,-0.449 -0.216,-0.368 -0.042,-1.063 -0.458,-0.409 -0.341,-1.926 -0.493,-1.026 -0.034,-0.453 0.063,-0.699 0.208,-0.741 -0.611,-2.144 -0.319,-0.909 0.097,-0.911 -0.188,-0.372 0.195,-0.166 0.444,0.332 0.132,-0.042 -0.076,-0.29 1.056,0.166 0.389,0.662 h 0.89 l 0.277,0.165 0.056,0.331 h -0.277 l 0.166,0.662 0.557,0.496 0.5,0.825 0.451,0.454 0.299,0.701 0.09,0.617 z m 63.743,-13.923 0.604,0.376 0.493,0.877 -0.181,0.501 0.111,0.584 0.243,0.042 0.278,0.833 0.576,0.375 0.028,0.417 -0.292,0.249 0.097,0.582 -0.715,0.54 -1.14,-0.333 h -0.222 -0.611 l -0.167,-0.665 -0.493,-0.208 0.215,-0.625 0.216,-0.042 -0.181,-0.333 0.027,-0.583 0.515,-1.585 -0.042,-0.752 0.382,-0.042 -0.056,-0.334 z m -80.638,12.196 -0.091,-0.206 -0.111,0.329 h -0.444 l -0.076,-0.37 0.208,-0.165 -0.104,-0.289 0.223,-0.165 0.278,0.165 0.11,-0.33 0.188,-0.041 -0.216,-0.619 -0.41,-0.041 0.265,-0.825 -0.098,-0.248 0.604,0.124 0.223,-0.661 h 0.166 l 0.327,-0.538 -0.077,-0.786 h 0.167 l 0.306,-0.497 h 0.333 v -0.166 l -0.409,-0.041 0.076,-0.29 h 0.333 l 0.077,-0.208 -0.188,-0.457 h 0.277 l 0.167,0.332 h 0.223 l 0.277,0.498 h 0.389 v 0.332 l 0.834,0.166 v 0.332 h 0.389 l 0.056,0.166 0.278,-0.166 v 0.331 l 0.667,0.166 0.167,0.331 0.277,-0.165 0.299,0.703 -0.049,0.455 0.223,0.33 0.299,-0.124 0.056,0.413 -0.188,0.042 0.021,0.454 -0.264,0.247 0.132,0.289 h 0.944 v -0.495 h 0.444 l 0.133,0.206 v 0.578 l -0.188,0.041 -0.222,0.659 -0.584,-0.165 -0.688,0.535 0.326,1.604 h -0.166 l -0.167,0.493 -0.444,0.328 -0.417,-0.164 -0.444,0.82 -0.445,-0.82 h -0.277 l -0.216,0.205 0.077,0.287 -0.188,0.041 0.077,0.287 -0.5,0.164 0.076,-0.943 -0.243,-0.369 h -0.223 v -0.329 h -0.222 l -0.695,-0.822 -0.806,-0.165 -0.25,-0.658 -0.389,-0.165 0.083,0.329 h -0.444 z m 183.333,17.7 -0.64,0.322 -0.777,0.161 -0.501,0.321 -0.222,0.322 -0.64,0.161 h -0.583 l -1.39,-1.287 -0.889,-1.933 -0.452,-0.283 -0.188,-0.524 0.174,-0.524 0.027,-0.729 0.41,-1.335 0.535,-1.582 0.549,-1.015 0.417,-0.488 0.806,-1.466 1.334,-0.978 1.278,-0.817 0.833,-0.654 0.861,-0.654 0.834,-0.655 0.806,-0.82 0.806,-1.477 0.5,-0.329 0.945,-0.822 0.527,-0.329 1.945,-0.823 0.751,-0.165 1.861,-0.99 0.861,-0.33 1,-0.33 h 1.418 0.666 l 1.445,0.66 1.195,0.825 0.194,0.494 0.139,0.329 0.743,0.535 0.417,0.986 0.118,1.109 0.473,0.328 0.861,0.492 h 0.5 l 0.889,0.164 -0.048,0.287 0.326,0.369 h 0.333 l 0.16,0.368 -0.104,0.287 -0.854,0.858 -0.027,0.409 0.292,0.245 v 0.898 l -0.111,0.489 -0.604,1.018 -0.799,1.667 0.41,0.771 h -0.445 l -0.111,-0.325 h -0.5 l -0.5,-0.162 -0.139,0.324 -0.417,0.163 -0.917,-0.163 -0.778,0.487 -0.139,0.324 -1,0.324 -1.167,0.324 -0.667,0.162 h -0.64 -0.75 -0.639 l -0.528,0.324 -1.056,0.81 -1.39,0.485 H 553.4 l -0.889,-0.162 -0.778,0.162 -1.194,0.323 -0.917,1.13 -1.168,0.967 -1,0.644 z m 64.557,-7.64 0.792,0.406 0.194,0.569 -0.382,0.365 h -0.278 l 0.056,-0.325 -0.611,0.163 -0.299,-0.365 -0.007,-0.609 h 0.223 l 0.166,-0.325 z m -117.902,5.506 -0.028,-0.404 -0.166,-0.888 0.041,-0.567 -0.458,-0.323 0.16,-0.364 0.146,-0.283 0.16,-0.364 h 0.361 l 0.055,-0.486 0.306,-0.324 h 0.445 l 0.104,0.284 -0.152,0.324 0.188,0.364 0.444,0.162 -0.027,0.324 0.361,0.162 0.11,-0.324 0.361,-0.162 0.354,0.364 -0.236,0.485 0.188,0.445 0.445,0.162 0.639,0.323 0.25,0.162 0.584,0.484 0.104,0.605 -0.354,0.041 -0.104,0.201 -0.014,1.048 -0.473,0.644 -0.375,0.402 -0.452,0.282 -0.639,0.482 -0.417,-0.161 -0.473,-0.322 -0.5,-0.644 -0.333,-0.322 -0.354,-1.006 z m -226.028,34.132 0.361,-0.309 0.063,0.27 0.521,0.193 0.25,0.309 0.271,-0.425 -0.542,-0.231 0.132,-0.425 0.473,0.154 0.5,0.31 -0.021,0.733 0.354,0.347 0.882,-0.501 0.729,0.038 0.611,-0.154 0.479,0.347 0.625,-0.154 0.361,0.463 0.201,0.424 0.417,0.154 0.417,-0.309 0.278,-0.154 0.354,0.116 0.306,-0.849 -1.903,-1.159 -0.069,-0.541 h -0.598 l -0.118,0.271 -0.778,-1.083 -0.243,-0.503 -0.333,-0.621 -0.236,-0.465 0.479,-0.116 h 0.417 l 0.306,0.155 0.048,-0.893 -0.215,-0.194 h -1.111 l -0.299,-0.194 -0.444,-1.012 h 0.458 l 0.785,0.583 0.243,-0.272 -0.792,-0.544 -0.125,-0.39 -0.569,-0.155 -0.195,-0.624 0.167,-0.78 0.243,-0.195 0.507,0.429 0.431,-0.078 0.222,0.546 -0.069,0.468 h 0.458 l 0.028,-0.234 -0.278,-0.857 -0.125,-0.234 0.264,-0.625 -0.695,-0.469 -0.688,-0.195 -0.021,-0.9 0.271,-0.195 0.889,0.313 0.111,0.313 0.493,0.039 0.125,0.392 0.382,-0.118 -0.299,-0.352 0.215,-0.744 0.535,0.9 0.25,0.313 0.382,0.195 0.09,0.586 0.236,0.313 0.868,0.351 0.188,-1.054 -0.264,-0.078 -0.09,-0.587 0.271,-0.431 -0.458,-0.704 0.208,-0.313 -0.056,-0.549 -0.292,-0.078 -0.083,-0.393 h 0.458 l 0.257,0.275 0.278,0.157 0.354,-0.039 -0.125,-0.236 0.375,-1.02 0.042,-1.022 0.32,-0.078 0.118,-0.276 1.417,0.157 0.007,-0.433 0.514,-0.315 0.5,0.629 -0.056,0.394 -0.083,0.314 0.035,0.196 0.326,0.354 0.223,0.55 -0.223,0.313 -0.25,0.471 -0.827,0.196 0.063,0.431 0.223,0.47 0.431,0.078 0.264,-0.47 0.771,0.587 0.223,-0.313 0.493,0.822 -0.028,0.235 -0.347,0.078 -0.167,0.157 -0.201,0.274 -0.049,0.195 0.188,0.273 0.473,-0.156 0.076,0.118 -0.083,1.092 -0.354,-0.273 -0.41,0.195 0.153,0.858 -0.653,0.078 -0.056,0.39 0.549,0.039 0.194,-0.156 0.723,0.156 0.417,0.312 0.243,0.583 -0.473,-0.078 H 280.4 l -0.264,0.544 -0.354,0.039 -0.327,0.35 0.083,0.389 h 0.306 l 0.854,0.194 -0.604,-0.66 0.604,-0.117 0.202,-0.039 0.569,0.078 -0.375,0.544 0.208,0.466 0.167,0.542 -0.028,0.233 -0.431,0.621 0.521,0.348 0.118,0.271 0.25,0.232 0.604,0.116 0.271,-0.502 -0.097,-0.388 0.319,-0.775 -0.299,-0.504 0.077,-0.737 -0.236,-0.311 0.132,-0.194 0.354,0.039 0.479,0.583 0.118,1.203 0.542,0.232 0.042,0.698 0.243,0.503 0.667,0.155 0.354,-0.813 -0.083,-1.939 -0.403,-1.632 -0.368,-1.051 -0.09,-0.585 -0.986,-0.39 0.028,-0.234 0.299,0.117 0.046,-0.182 -0.317,-0.716 -0.056,-0.469 -0.278,-0.86 0.042,-0.392 -0.486,-0.626 0.104,-0.196 0.146,-0.196 0.264,-0.471 -0.069,-0.55 0.299,-0.196 0.035,0.275 0.306,-0.079 0.069,-1.1 -0.236,-0.235 -0.028,-0.708 0.521,0.275 0.306,-0.157 0.333,0.157 -0.16,0.276 0.66,0.511 0.243,-0.433 -0.236,-0.315 h 0.931 l 0.306,0.787 -0.181,0.236 0.875,0.942 -0.708,0.392 -0.125,0.549 -0.348,0.235 -0.028,0.235 0.271,-0.118 0.25,-0.157 0.333,0.47 0.132,-0.509 -0.125,-0.235 0.298,-0.196 0.16,0.196 0.055,0.47 0.083,0.313 -0.097,0.705 0.271,-0.117 0.417,0.156 0.132,0.352 -0.208,0.313 -0.174,0.273 -0.271,0.43 0.083,0.313 0.215,0.039 0.118,-0.273 0.347,-0.078 0.479,-0.273 0.257,-0.273 0.521,-0.352 0.313,-0.587 h 0.292 l 0.174,0.431 0.472,-0.157 0.473,0.313 0.577,-0.352 0.674,-0.587 0.007,-0.431 0.66,-0.196 0.396,-1.059 0.806,-0.785 0.778,-0.628 0.854,0.275 0.778,-0.157 1.438,-1.141 0.514,-0.866 0.744,-0.197 0.583,0.158 0.604,-0.197 0.479,-0.434 1.528,-0.315 0.445,-0.474 0.694,-0.315 0.466,-0.355 0.007,-0.435 0.306,0.158 0.173,0.276 0.542,0.237 0.535,0.908 -0.077,0.591 0.32,0.551 0.278,0.787 -0.014,0.866 0.327,0.354 0.25,0.314 0.216,0.589 -0.167,0.628 -0.57,0.47 0.056,0.47 0.25,0.313 -0.007,0.195 -0.354,0.508 -0.229,0.431 -0.007,0.586 -0.403,0.39 -0.083,0.391 0.431,0.078 0.083,0.39 -0.194,0.156 -0.5,0.78 -0.764,0.544 -0.583,0.467 0.181,0.544 -0.91,0.661 0.063,0.427 h 0.292 l -0.25,0.465 -0.271,0.039 -0.361,-0.466 -0.361,0.311 -0.417,-0.466 -0.583,0.155 -1.389,-0.155 -1,-0.466 -0.611,0.155 -0.194,-0.466 -0.611,-0.311 -0.354,0.039 -0.417,0.467 -0.097,0.389 -0.271,0.194 h -0.945 -0.361 -0.723 l -0.577,0.814 0.299,0.582 -0.035,0.427 -0.278,0.464 -0.167,0.155 -0.542,0.231 -0.417,0.464 -0.479,1.044 -0.722,0.617 -0.167,-0.154 -0.5,0.154 -0.035,0.733 -0.542,0.385 -0.417,0.463 -0.313,0.115 -0.215,0.192 1.132,0.27 -0.174,0.192 -0.41,-0.039 -0.382,0.192 -0.042,0.23 -0.486,0.077 -0.201,0.423 h -0.278 l -0.667,-0.615 -0.833,0.615 h -0.473 l -0.868,-0.73 -0.438,-0.039 -0.09,0.423 -0.514,0.308 0.854,0.192 0.257,0.423 0.194,0.46 0.688,0.039 0.16,0.191 -0.208,0.384 0.028,0.613 -0.118,0.038 -0.938,0.498 h 0.597 l 0.528,0.46 -0.299,0.268 0.16,0.421 -0.486,0.153 -0.229,-0.115 -0.16,0.573 0.375,0.229 0.063,0.268 0.778,0.153 0.167,-0.306 0.118,-0.267 0.41,0.114 0.778,-0.152 0.25,0.152 0.285,-0.42 0.104,-0.191 -0.048,-0.727 0.208,-0.229 0.34,-0.268 0.243,-0.422 -0.736,0.077 -0.055,-0.537 0.91,-0.191 0.521,-0.038 0.25,-0.46 -0.236,-0.384 0.354,-0.5 0.521,0.038 -0.028,0.845 -0.208,0.229 0.028,0.69 0.938,0.191 0.646,-1.188 1.056,-0.614 0.299,-0.653 0.722,-0.153 0.361,-0.308 h 0.472 0.389 l 0.695,0.154 0.354,-0.116 0.368,0.116 0.417,0.307 h 0.639 l 0.417,0.154 0.194,-0.307 0.09,-0.116 0.653,-0.154 0.056,0.539 -0.236,0.307 0.632,0.346 0.361,0.46 0.076,0.575 -1.07,1.302 -0.153,0.689 -0.688,0.955 0.104,0.268 -0.521,0.191 -0.472,-0.306 -0.66,0.726 0.083,0.305 0.403,0.076 0.167,0.686 -0.32,0.685 0.028,0.609 -0.389,0.38 0.195,0.456 0.354,0.19 0.09,-0.874 0.604,-0.19 -0.202,0.418 -0.069,1.063 0.632,0.342 0.354,-0.114 0.306,0.607 -0.153,0.228 0.208,0.909 0.174,0.492 0.215,-0.189 -0.097,-0.82 0.549,0.101 0.076,-0.265 -0.139,-1.366 -0.431,-0.683 -0.083,-0.38 0.083,-0.304 0.055,-0.304 h 0.292 l 0.674,0.267 0.417,0.152 -0.021,0.418 0.382,0.645 0.111,0.152 0.299,-0.341 h 0.153 l 0.681,0.835 0.264,0.38 0.5,1.061 0.549,0.643 -0.035,0.266 h -0.431 l 0.528,1.662 0.188,0.188 0.222,-0.151 0.299,0.038 0.25,0.151 0.778,0.68 -0.431,0.603 0.708,0.753 -0.604,0.188 -0.132,0.415 0.139,0.601 0.223,0.976 -0.111,1.126 0.194,0.973 -0.229,0.861 -0.063,0.411 h -0.292 l 0.056,0.448 0.333,0.448 0.438,-0.262 0.473,0.149 0.424,-0.56 0.819,-0.224 0.334,-0.823 0.333,-0.673 -0.069,-0.375 0.764,-1.274 0.028,-0.826 -0.361,-1.655 -0.382,-0.64 -0.341,-0.716 -0.854,-0.642 -0.076,-0.415 0.361,-0.302 0.097,-0.453 -0.569,-0.756 0.375,-0.833 0.25,-0.455 0.028,-0.228 -0.41,-0.493 -0.229,-1.177 -1.319,-1.444 0.326,-0.115 0.271,-0.571 -0.111,-0.762 -0.66,-0.801 0.035,-0.42 -0.097,-0.917 -0.264,-0.153 0.111,-0.459 0.111,-0.46 0.299,-0.038 0.077,-0.191 0.056,-0.383 -0.208,-0.307 0.25,-0.46 0.542,-0.23 0.833,-0.921 0.348,-0.846 0.111,-0.461 0.223,-0.308 0.222,-0.308 0.66,0.27 h 0.361 l -0.076,-0.27 0.243,-0.193 0.701,0.654 0.236,-0.23 0.027,-0.848 -0.36,-0.462 -0.57,-0.077 -0.527,-1.003 0.382,-0.348 0.118,-0.425 0.556,-0.464 0.438,0.116 -0.201,-0.426 -0.265,-0.077 0.375,-1.007 -0.208,-0.465 0.64,-0.62 0.444,-1.243 0.458,-0.544 -0.069,-0.389 0.611,-0.623 0.382,-0.039 0.188,0.272 -0.291,0.623 0.326,0.35 0.063,-0.739 0.278,-0.467 0.652,-0.077 -0.465,-0.584 -1.028,0.467 -0.049,-0.506 0.223,-1.014 0.083,-0.295 0.139,-0.642 0.111,-0.469 0.598,-0.391 0.25,-0.548 -0.014,-1.097 0.604,-0.196 0.056,-0.314 h 0.36 l 0.334,0.471 h 0.611 0.361 l 1.229,0.196 0.299,-0.039 0.243,0.353 -0.014,0.157 0.18,0.47 0.223,0.313 0.194,0.469 0.042,0.548 0.736,0.702 0.194,0.468 0.319,0.702 0.417,0.78 0.348,0.467 -0.264,0.389 0.055,0.389 0.584,0.777 0.438,-0.117 0.021,0.738 -0.235,0.31 0.056,0.465 0.286,0.533 0.484,0.9 0.16,0.193 0.139,0.619 -0.083,0.309 -0.042,0.387 0.264,0.618 0.341,0.347 0.479,1.35 1.125,0.308 -0.473,1.23 0.195,1.076 -0.195,0.767 -0.235,0.307 0.215,0.651 0.361,0.459 0.076,0.421 -0.375,0.229 -0.333,0.841 0.326,0.19 0.076,0.573 -0.458,0.61 0.215,0.19 h 0.417 l 0.827,-0.115 0.319,0.686 0.139,0.609 0.361,0.913 0.493,0.19 -0.576,0.722 0.215,0.189 0.361,-0.303 0.188,0.114 -0.417,0.835 -0.125,0.683 0.375,0.741 -0.208,0.244 0.027,0.53 0.14,0.605 0.222,0.302 0.084,0.226 -0.167,0.604 -0.028,1.283 v 0.602 l 0.188,0.188 0.146,0.866 0.598,0.977 v 0.676 l -0.32,0.075 -0.055,0.226 v 0.6 l 0.298,0.337 1.084,-0.15 -0.243,0.562 0.604,0.337 -0.354,0.412 0.14,0.599 0.027,0.373 0.25,0.821 0.243,0.187 0.271,-0.485 -0.097,-0.224 0.465,-0.187 -0.409,1.157 0.354,0.187 0.11,0.596 0.479,0.707 0.334,0.447 0.431,0.521 -0.278,1.115 -0.236,0.297 0.354,0.185 0.076,0.408 -0.632,0.186 -0.299,0.482 0.098,0.814 -0.473,0.592 -0.25,0.444 -0.486,1.329 -0.139,0.958 0.319,0.442 -0.264,0.442 -0.223,0.368 0.299,0.331 0.778,0.441 0.306,-0.294 0.409,-0.037 -0.014,-0.515 0.139,-0.589 0.25,-0.885 0.41,-0.479 0.146,-0.554 0.494,-0.479 0.229,0.701 0.723,0.59 0.243,-0.111 0.132,0.249 -0.208,0.305 0.181,0.884 0.375,0.883 0.639,0.882 0.466,0.33 -0.271,1.578 0.681,0.659 -0.015,0.659 0.195,0.878 0.181,0.365 -0.028,0.657 -1.042,0.146 0.576,0.328 0.494,-0.11 -0.015,0.657 0.493,0.182 0.216,0.328 v 0.655 l -0.236,0.291 0.514,0.728 -0.409,0.036 -0.076,0.254 0.354,0.182 0.743,0.472 -0.055,0.218 h -0.265 l 0.361,0.725 0.959,0.652 -0.069,0.362 0.194,0.29 0.271,-0.108 0.049,0.542 -0.208,0.29 0.416,1.012 0.354,0.036 0.584,0.577 0.354,-0.036 0.84,-0.108 0.417,-0.289 0.188,-1.265 -0.792,-0.723 0.57,-1.014 -0.682,-0.072 -0.117,-0.979 -0.494,0.036 0.042,0.363 h -0.292 l -0.194,-0.363 0.153,-1.162 -0.167,-0.437 -0.41,-0.327 0.188,-0.328 0.084,-0.364 -0.028,-0.437 -0.465,0.109 -0.035,-0.328 -0.042,-0.949 0.265,-0.438 -0.417,-0.584 0.063,-0.768 0.021,-0.548 -0.409,-0.476 -0.035,-0.549 -0.111,-1.174 -0.194,-0.44 -0.056,-0.22 -0.027,-0.515 -1.001,-1.177 -0.215,0.11 -0.299,-0.184 0.056,-0.369 0.361,-0.147 0.097,-0.442 -0.681,-2.732 -0.056,-0.962 -0.111,-1.705 -0.235,-1.412 -0.334,-0.893 -0.333,-1.043 -0.584,-1.045 -0.5,-0.896 -0.431,-1.197 0.319,-0.599 -0.139,-1.2 -0.403,-2.254 0.236,-0.903 -0.625,-0.979 0.056,-0.831 0.049,-0.34 0.271,-0.793 v -1.135 l -0.542,-0.682 -0.027,-1.138 0.236,-0.304 -0.348,-1.52 0.319,-0.609 -0.111,-0.761 -0.438,-0.343 -0.299,-0.191 -0.007,-0.419 0.035,-0.268 0.375,-0.229 -0.375,-1.452 0.694,-0.229 0.716,0.497 h 0.473 l 0.305,-0.153 1.945,0.765 0.104,-0.268 -0.223,-0.306 -0.416,-0.153 -0.417,-0.153 -2.077,-0.497 -0.063,-0.575 -0.986,-0.307 -0.125,-1.842 -0.216,-0.192 -0.326,-0.577 0.264,-0.461 -0.514,-0.924 0.166,-0.617 0.14,-0.462 0.299,-0.193 0.416,0.154 0.077,-0.116 -0.466,-0.347 0.049,-0.425 -0.361,-0.309 -0.938,0.271 -0.049,-0.58 0.382,-0.348 0.104,-0.426 -0.056,-0.31 -0.139,-0.619 -0.521,-1.279 0.056,-1.398 -0.361,-1.556 -0.007,-0.741 -0.028,-0.468 -0.291,-0.625 v -0.625 l -0.056,-0.938 0.159,-0.195 -0.09,-0.744 -0.41,-0.509 -0.049,-0.588 0.265,-0.392 -0.098,-0.864 -0.056,-0.235 v -0.708 l 0.054,-0.774 0.433,-0.406 -0.292,-1.341 0.133,-0.197 0.117,-0.119 0.417,-0.315 0.243,-0.197 1.14,0.158 0.368,-0.593 0.271,-0.039 -0.021,0.277 0.549,0.671 0.306,-0.158 0.778,0.158 0.813,0.276 0.771,0.355 0.743,-0.198 0.056,-0.158 -0.375,-0.316 -0.39,-0.315 -0.083,-0.396 0.431,-0.474 -0.056,-0.316 -0.75,-0.079 -0.327,0.197 -0.215,-0.514 0.069,-0.396 -1.015,-1.347 -0.194,-0.556 0.153,-1.032 0.083,-0.397 v -0.637 l -0.069,-0.796 0.111,-0.478 0.409,-0.837 h 0.306 l 0.271,-0.359 -0.264,-0.241 0.541,-0.719 -0.514,-0.56 0.569,-0.88 -0.041,-0.401 0.354,-0.2 0.368,-0.12 0.598,-0.401 0.306,-0.481 0.111,-1.045 0.479,-0.201 0.527,-0.804 0.216,0.04 -0.042,0.242 0.521,0.201 0.333,-0.161 0.466,0.362 -0.098,0.402 0.521,0.04 h 0.694 l 0.5,0.482 0.223,-0.161 0.528,-0.161 0.382,1.084 -0.028,0.641 0.084,1.442 -0.403,0.24 0.153,0.56 -0.306,-0.081 -0.375,-0.239 -0.341,0.04 -0.326,0.599 0.75,0.16 0.348,0.48 -0.493,0.04 -0.243,0.279 0.465,0.359 0.368,0.12 0.319,0.398 -0.083,0.398 -0.41,0.04 -0.277,-0.319 h -0.334 l -0.166,0.16 0.063,0.757 0.632,-0.12 0.063,0.438 0.576,0.517 0.917,-0.477 0.327,0.199 0.139,0.716 -0.083,0.318 -0.223,0.159 -0.014,1.27 0.799,0.832 0.034,0.594 0.14,0.633 0.354,0.039 0.299,0.355 -0.069,0.869 0.493,0.355 0.834,-0.158 0.723,0.158 0.306,-0.315 -0.104,-0.75 0.292,-0.395 -0.028,-0.554 -0.375,-0.237 -0.201,-0.277 -0.229,-1.069 -0.375,-0.317 0.083,-0.317 0.403,-0.238 0.319,-1.669 0.326,-0.04 0.723,-0.637 h 0.834 l 0.194,0.159 1.077,0.04 0.639,0.478 0.348,0.557 1.271,0.834 0.632,0.675 -0.069,0.873 0.444,0.633 0.354,0.198 1.028,0.317 h 0.777 l 0.424,0.909 0.89,1.263 0.431,0.631 0.167,0.394 0.5,1.023 -0.271,0.669 -0.5,-0.157 -0.611,0.157 -0.493,-0.196 -0.389,0.314 0.549,0.511 h 0.527 l 0.479,0.589 0.438,0.353 0.979,0.118 0.375,0.706 0.265,0.235 0.333,0.47 0.375,0.235 -0.125,1.487 0.334,0.468 0.848,0.702 0.139,1.637 -0.208,0.156 0.027,0.467 0.438,0.35 -0.299,0.661 0.181,0.389 -0.903,-0.078 -0.313,0.582 -0.007,0.427 -0.653,0.077 -0.201,0.271 -0.222,0.155 0.313,0.582 0.236,0.077 0.027,0.542 -0.348,0.077 -0.639,1.083 0.152,0.542 -0.11,0.309 -0.736,0.385 0.188,0.27 0.215,-0.038 0.069,-0.232 h 0.292 l -0.139,0.54 -0.306,0.462 -0.542,0.231 -0.153,0.54 -0.194,0.154 -0.652,0.077 0.083,0.846 0.236,0.077 -0.084,0.385 -0.36,0.615 -0.32,0.076 -0.25,0.307 0.111,0.23 0.111,0.613 h 0.458 l -0.361,0.613 -0.319,0.076 -0.139,0.459 -0.25,0.842 0.799,0.038 0.223,-0.153 0.409,0.344 -0.264,0.458 0.403,1.069 0.472,0.458 -0.027,0.229 -0.021,0.343 0.133,0.647 0.027,0.533 -0.027,0.608 -0.354,0.949 0.007,0.722 0.208,0.303 -0.194,0.606 -0.319,0.53 -0.223,0.757 -0.431,0.302 h -0.431 l -0.125,0.982 -0.486,0.528 -0.083,0.302 -0.028,0.679 0.473,0.452 0.528,0.752 h 0.444 l 0.466,0.188 0.715,-0.64 0.153,-0.527 0.271,-0.188 h 0.528 l 0.313,-0.489 0.41,-0.415 0.063,-1.17 0.306,-0.454 0.361,-0.757 0.298,-0.492 0.229,-0.719 0.604,-0.493 0.216,-1.101 -0.042,-1.901 v -0.38 -1.601 l 0.139,-1.375 0.056,-1.225 0.278,-0.919 0.521,-0.191 0.104,-0.882 -0.348,-0.23 -0.056,-0.384 0.716,-0.346 0.132,-0.423 -0.236,-0.154 0.25,-0.308 h 0.445 l 0.326,-0.192 0.035,-0.424 0.298,-0.192 0.25,0.154 0.521,0.5 -0.042,0.231 0.765,0.384 0.451,0.423 0.508,0.576 0.882,0.192 0.09,0.576 0.709,0.537 0.341,0.269 0.25,0.613 0.729,0.881 0.514,0.229 -0.139,0.994 -0.292,0.458 0.348,0.763 -0.542,0.229 -0.098,0.838 0.146,0.343 0.75,-0.152 0.417,0.457 0.611,-0.153 0.326,0.495 -0.111,0.38 -0.333,0.608 -0.209,0.076 -0.083,0.38 0.056,0.304 0.431,0.379 0.027,0.531 -0.208,0.151 0.223,0.303 0.291,-0.076 0.194,0.379 -0.125,0.454 0.153,0.908 v 0.831 l -0.098,0.378 0.223,0.679 0.098,0.679 -0.14,0.452 -0.236,0.226 0.376,0.678 -0.251,0.225 -0.465,-0.188 -0.271,0.188 -0.139,0.526 0.486,0.225 0.361,0.75 0.111,0.676 -0.194,0.15 -0.383,0.337 -0.549,0.187 0.188,0.262 0.333,-0.149 0.326,0.486 -0.111,0.375 -0.375,0.224 -0.139,0.524 0.542,0.15 -0.694,1.194 -1.07,0.522 -0.889,0.97 0.027,0.446 0.125,0.447 -0.125,0.447 0.966,0.483 0.777,-0.149 0.473,0.446 0.368,-0.557 0.354,-0.037 0.896,0.78 h 0.125 l 0.284,0.409 -0.451,1.594 -0.348,0.518 0.056,0.37 0.466,0.037 0.188,0.259 -0.354,0.333 0.049,-0.407 h -0.431 l -0.194,1.109 0.326,0.185 0.076,0.406 -0.306,0.443 -0.409,-0.111 -0.063,0.701 -0.236,0.294 0.743,-0.11 0.194,-0.295 0.326,0.037 -0.041,0.664 0.965,0.919 -0.021,0.258 1.16,0.184 0.528,-0.294 h 0.527 l 0.383,-0.184 0.277,-0.441 0.695,-1.178 0.139,-0.517 -0.181,-0.295 0.083,-0.295 0.167,-0.886 0.139,-0.444 0.799,-0.48 0.591,0.407 h 0.125 l -0.042,-0.37 0.375,0.148 0.015,0.519 0.291,0.369 -0.236,0.37 0.188,0.185 0.472,-0.148 0.306,0.443 0.299,0.479 -0.042,0.222 0.501,0.737 1.188,0.332 0.444,-0.294 0.64,0.441 0.306,0.442 0.159,0.552 -0.056,0.588 -0.18,0.147 -0.056,0.587 0.431,0.44 -0.195,0.586 -0.326,0.037 -0.243,0.33 -0.368,0.257 -0.382,0.695 0.466,0.183 0.034,-0.403 h 0.403 l 0.208,0.805 0.569,0.365 0.167,0.439 -0.931,1.095 0.486,0.218 0.042,0.365 0.25,0.146 0.438,-0.11 0.382,0.183 0.027,0.364 0.056,0.655 v 0.509 l -0.688,0.037 -0.132,0.254 v 0.437 l 0.25,0.581 0.194,0.291 0.403,0.362 -0.181,0.653 0.326,0.182 0.104,-0.182 0.069,-1.524 0.278,0.073 0.235,-0.364 -0.235,-0.072 -0.008,-0.255 0.195,-0.291 0.243,0.037 0.152,0.509 0.236,0.146 -0.132,0.181 -0.118,0.109 -0.25,0.291 -0.459,0.072 0.14,0.508 0.271,0.036 0.333,-0.29 0.167,-0.145 0.257,-0.109 0.299,-0.036 0.361,-0.436 0.313,0.254 0.515,0.072 0.542,0.653 0.549,0.036 0.159,-0.544 -0.458,-0.218 0.056,-0.654 0.333,-1.019 0.243,-0.036 0.285,0.691 0.25,0.582 0.777,0.291 0.223,0.581 0.569,0.362 0.861,0.435 0.473,0.291 0.507,0.543 0.021,0.543 -0.466,0.036 -0.215,0.253 0.222,1.879 0.167,0.289 0.473,0.722 0.409,0.324 0.258,0.684 0.75,0.288 0.271,-0.108 0.521,0.611 0.208,0.792 0.792,0.144 0.667,-0.288 0.424,-0.108 0.584,-0.144 h 0.861 l 0.306,0.575 h 0.416 l 0.751,-0.144 0.306,0.287 0.09,0.395 0.438,0.323 0.341,-0.539 0.243,-0.036 -0.076,0.395 0.521,0.323 0.41,0.609 -0.098,0.359 0.167,0.286 1.271,0.179 0.521,0.823 -0.111,0.286 -0.493,0.179 -0.271,0.322 -0.056,0.214 0.334,0.286 0.347,0.5 0.25,0.856 -0.076,0.535 0.132,0.534 -0.25,0.711 -0.402,0.711 0.277,0.426 0.431,-0.071 0.167,0.781 -0.167,0.426 -0.25,0.284 -0.549,0.177 -0.25,-0.142 -0.299,0.673 0.278,0.425 0.993,0.318 0.194,-0.283 0.382,0.177 -0.194,0.638 -1.049,-0.531 h -0.306 l -0.361,0.424 h -0.473 l -0.833,-0.424 -0.195,-0.283 -0.242,0.248 0.485,0.495 -0.055,0.637 -0.306,0.424 -0.521,0.035 -0.354,-0.317 -0.041,-0.354 -0.854,-0.602 0.034,-0.672 1.042,-0.142 -0.736,-0.708 -0.069,-0.567 -0.326,-0.177 -1.133,0.319 -0.708,-0.425 -1.021,-0.035 -0.479,0.674 -0.743,0.318 -0.382,-0.318 -0.32,-0.781 -0.458,-0.213 -0.181,-0.355 -1.188,-0.461 0.048,0.533 -0.25,0.284 -0.444,0.426 -0.41,0.177 -0.722,-0.142 -0.306,0.284 -0.417,-0.284 -0.257,-0.106 -0.376,-0.142 0.125,0.425 -0.125,0.071 h -0.291 l -0.306,0.426 -0.278,0.85 -0.333,0.566 -0.515,0.212 -0.444,0.848 -0.027,0.212 0.222,0.141 0.403,-0.071 -0.223,0.776 -0.854,0.176 -0.201,-0.529 -0.243,-0.035 -0.229,1.517 -0.382,-0.528 -0.229,0.247 -0.438,0.176 0.104,-0.458 0.027,-0.495 -0.854,-0.317 0.091,0.529 -0.084,1.057 0.125,0.493 -0.25,0.282 -0.521,0.175 -1.028,-0.422 -0.035,0.387 -0.576,0.175 -0.083,-0.281 -0.41,0.316 -0.153,0.493 v 0.421 l -0.25,0.281 -1.604,0.877 h -0.556 l -0.632,-0.035 -0.042,-0.351 -0.375,-0.07 -0.056,-0.352 0.299,-0.175 -0.188,-0.527 h 0.264 l 0.424,0.246 0.146,0.246 0.473,0.281 0.216,0.035 0.243,-0.246 -0.14,-0.351 h 0.153 l 0.41,0.175 0.188,-0.316 -0.195,-0.352 -0.333,-0.21 -0.083,-0.212 -0.327,-0.035 -0.5,-0.422 -0.528,0.563 -0.833,-0.141 -1.133,0.739 0.39,0.632 0.326,0.035 0.576,0.456 0.195,0.28 v 0.492 l -0.271,0.175 -0.465,-0.035 -0.174,-0.245 -0.278,-0.421 -0.188,0.526 0.306,0.28 0.181,0.28 -0.438,0.175 -0.5,-0.14 -0.334,-0.28 0.021,-0.667 0.618,0.246 0.215,-0.667 -0.549,-0.316 h -0.306 l -0.306,-0.281 -0.284,0.386 -0.515,0.21 -0.083,0.772 0.069,0.561 0.167,0.35 0.194,0.7 -0.389,1.189 -0.716,-0.105 -0.194,0.14 -0.723,-0.279 -0.556,-0.559 -0.25,-0.28 -0.584,0.141 -0.549,0.314 -0.917,1.955 0.243,0.523 0.007,-0.383 0.292,-0.14 0.181,0.488 0.403,0.348 -0.32,0.557 0.056,0.348 0.236,0.557 -0.598,0.557 0.883,0.59 h 0.527 l 0.077,0.729 0.194,1.109 0.069,0.762 0.576,0.173 0.91,1.555 v 0.415 l -0.069,0.759 0.181,1.033 0.028,0.275 -0.292,0.138 0.027,0.344 0.383,-0.103 0.215,0.309 -0.299,0.104 -0.063,0.653 -0.764,0.205 -0.431,0.481 -0.604,-0.103 -0.556,0.549 -0.883,-0.034 0.466,0.582 0.229,-0.239 0.597,-0.138 -0.347,1.097 0.139,0.479 0.625,0.479 0.069,1.162 0.278,0.41 0.889,1.5 0.236,-0.068 0.194,0.682 -0.291,0.545 0.125,0.476 -0.348,0.681 -0.535,0.577 -0.639,-0.137 h -0.723 l -0.076,0.238 0.375,0.407 -0.299,0.169 -0.299,0.102 0.139,0.407 0.431,0.203 0.417,0.813 0.556,1.286 0.417,1.147 0.278,0.81 0.056,0.741 -0.361,0.673 -0.611,1.479 -0.806,1.208 -0.361,0.269 -0.688,0.301 -0.527,-0.134 -0.202,0.503 -0.326,0.033 -0.889,-0.67 -0.258,-0.638 -0.354,0.101 -0.556,-0.402 -0.216,-0.302 0.069,-0.336 -0.188,-0.033 -0.104,0.234 -0.09,0.303 -0.917,0.536 -0.306,0.135 -0.771,0.436 -0.527,0.402 -0.084,0.268 -0.083,0.335 0.403,0.736 0.416,1.202 0.313,0.635 0.076,0.367 -0.028,0.533 -0.048,0.566 0.188,0.232 -0.611,1.065 -0.626,0.332 -0.056,0.199 -0.034,0.299 0.159,0.432 -0.25,0.465 -0.333,0.266 -0.688,0.165 -0.14,-0.133 -0.188,0.166 0.542,0.795 -0.069,0.332 0.875,0.463 0.417,0.793 -0.292,0.529 -0.257,0.099 h -0.417 l -0.333,0.265 -0.41,0.495 0.375,0.329 -0.208,0.33 0.111,0.132 0.771,0.297 0.334,-0.132 0.049,-0.231 -0.14,-0.396 -0.431,-0.264 0.278,-0.396 0.41,0.23 0.188,0.692 -0.07,0.33 0.403,0.725 0.111,0.526 0.223,1.315 -0.056,0.656 -0.084,0.328 -0.083,0.196 -0.069,0.328 0.056,0.263 0.152,0.263 0.056,0.654 -0.444,1.047 -0.167,0.522 -0.292,0.457 -0.014,0.457 -0.299,0.163 -0.833,-0.13 -0.243,0.162 -0.25,0.393 -0.084,0.325 0.848,0.652 -0.326,0.292 -0.049,0.423 0.125,0.456 -0.403,0.455 v 0.455 l 0.188,0.162 0.528,-0.13 0.604,0.747 -0.25,0.389 -0.319,0.583 -0.25,0.843 -0.084,0.582 -0.139,0.518 -0.007,0.872 -0.243,0.355 0.139,0.773 0.208,0.064 0.056,0.258 -0.235,0.838 0.347,0.515 -0.486,1.093 -0.292,0.964 -0.854,0.032 -0.14,-0.257 h -1 l -0.049,-0.225 0.292,-0.129 -0.188,-0.16 -0.993,0.354 -0.848,-0.707 -0.577,-0.161 -0.777,0.257 -0.591,-0.096 -0.459,-0.064 -0.083,-0.579 0.966,-0.031 0.313,-0.354 0.792,-0.063 0.083,-0.322 -1.104,-0.935 -0.715,0.161 0.208,0.193 -0.326,0.419 -0.223,-0.129 -1.104,0.097 -0.083,-1.096 1.069,-0.064 -0.486,-0.516 0.069,-0.323 -0.493,0.098 -1.361,-0.905 -0.354,0.42 0.028,0.453 0.354,0.29 0.216,0.741 -0.549,0.161 -0.104,0.354 0.743,0.806 0.118,0.61 0.375,-0.064 0.563,0.226 0.132,0.996 -0.681,0.962 0.326,0.481 0.104,0.609 0.027,0.384 -0.167,0.512 -0.188,-0.096 h -0.222 l -0.091,0.096 -0.708,0.576 -0.069,0.702 -0.153,0.064 0.056,0.319 0.375,-0.064 0.056,0.319 -0.083,0.639 -0.82,0.19 -0.041,0.574 -1.126,-0.064 -0.5,0.382 0.139,0.446 0.584,0.636 1.014,0.318 0.223,0.571 0.056,0.254 -0.389,0.889 -0.216,0.285 -0.229,0.35 -0.319,0.189 -0.25,0.887 0.208,0.569 -0.569,0.568 -0.236,0.443 -0.708,0.693 -0.973,1.514 0.444,0.692 0.611,0.503 0.382,-0.598 0.035,0.472 0.402,0.692 -0.694,1.067 -0.236,-0.063 -0.222,0.377 0.055,0.313 0.542,0.188 0.361,0.877 -0.236,0.375 -0.069,0.688 -0.222,0.375 -0.848,0.313 -0.473,0.749 0.25,0.438 0.931,0.25 -0.583,2.365 0.007,0.652 0.076,0.715 -0.431,0.186 -0.073,0.681 -0.438,0.402 -0.201,-0.341 -0.633,-0.154 -0.417,-0.372 -0.389,0.124 -1.361,-0.124 -0.202,0.589 -0.264,0.062 -0.25,0.496 0.576,0.465 0.834,0.124 0.952,1.02 0.027,0.434 h 0.236 l -0.014,-0.434 h 0.125 l 0.347,0.557 0.306,0.247 0.209,0.494 0.146,0.154 0.493,0.154 v 0.925 l -0.139,0.8 -0.375,0.862 -0.64,0.491 -0.36,0.859 -0.563,0.706 -0.09,0.705 -0.736,0.429 v 0.856 l -0.125,0.795 -0.306,0.245 -0.473,0.366 -0.465,0.152 -0.41,-0.092 -0.646,0.336 -0.276,0.123 -0.417,-0.366 -0.334,0.244 -0.333,0.366 -0.132,0.457 -0.084,0.731 -0.083,0.67 -0.083,0.305 0.597,0.851 0.667,-0.242 -0.014,-0.792 0.265,-0.121 0.222,0.486 0.028,0.365 0.125,0.547 0.402,0.183 -0.027,0.546 -0.299,0.03 -0.611,0.485 -0.021,0.213 0.215,0.03 0.341,-0.334 0.354,-0.151 0.771,0.455 0.125,-0.425 h 0.486 l 0.667,0.606 -0.153,0.182 0.278,0.728 0.167,0.241 0.299,0.03 0.159,0.454 0.139,0.303 0.056,0.303 -0.222,0.362 v 0.362 l -0.084,0.725 -0.271,0.15 -0.194,-0.12 -0.382,0.392 0.069,0.543 -0.015,0.964 -0.173,0.15 0.048,0.691 -0.194,0.602 -0.556,0.72 -0.431,-0.18 -0.014,1.26 -0.521,-0.09 -0.326,0.149 -0.236,0.779 -1.486,1.017 -0.069,0.3 -1.3,0.388 -0.423,-0.328 -0.771,-0.03 -0.549,-0.628 v -0.539 l -0.027,-0.658 0.208,-0.899 -0.25,-0.36 -0.438,0.091 -0.091,-0.33 -0.215,-0.03 -0.243,0.45 -0.14,0.06 -0.097,0.78 -0.354,0.149 -0.313,0.09 -0.444,-0.659 -0.25,-0.36 -0.431,-0.06 0.083,-0.78 0.083,-0.36 0.354,-0.15 0.146,0.211 0.653,0.119 0.083,-0.24 -0.743,-0.33 -0.382,0.09 -0.09,-0.451 -0.035,-0.571 -0.319,-0.421 0.194,-0.302 0.417,-0.241 h 0.236 l 0.368,-0.03 -0.146,-0.813 -0.382,-0.15 0.076,-0.937 -0.777,-0.241 h -0.834 l -1.069,-0.423 -0.542,-0.786 -0.445,-0.122 -0.736,-0.302 -0.235,-0.546 -0.918,-1.092 -0.958,-0.91 -0.334,-0.485 -0.402,-0.427 -0.459,-0.061 -0.417,-0.729 -0.152,-0.915 -0.444,-0.609 -0.431,-0.122 -0.452,-0.396 0.049,-0.458 -0.389,-0.366 -1.015,-0.184 -0.5,-0.855 0.473,-1.409 0.639,-0.613 0.834,-0.307 0.444,-0.307 0.493,-0.031 0.007,-0.46 0.354,-0.153 0.257,-0.339 0.167,-0.122 0.243,0.338 0.326,-0.153 0.056,-0.308 -0.292,-0.246 0.354,-0.277 1.028,0.615 0.216,-0.276 0.055,-0.309 -0.041,-0.246 0.799,-0.399 h 0.389 l 0.389,0.246 0.702,-0.4 0.549,0.031 0.41,-0.093 0.264,0.555 0.403,0.184 -0.042,0.678 0.097,0.491 -0.375,0.062 -0.174,0.338 -0.409,-0.093 0.167,0.431 0.826,0.398 -0.216,-0.46 0.292,-0.185 h 0.125 l 0.327,0.031 -0.049,0.338 0.277,0.368 0.41,0.153 0.313,-0.153 0.466,0.03 0.076,-0.338 -0.25,-0.368 -0.375,-0.307 -0.444,-1.106 -0.278,-0.801 0.799,-0.399 0.007,0.215 0.521,0.154 0.194,-0.123 -0.076,-0.216 0.11,-0.369 0.466,-0.031 0.66,0.832 -0.264,-0.801 0.354,-0.154 0.383,0.154 0.208,0.185 0.306,0.246 0.417,-0.185 0.271,0.093 0.243,-0.216 -0.264,-0.37 0.611,-0.37 -0.278,-0.37 h 0.486 l 0.084,0.186 0.146,0.277 0.216,-0.277 -0.084,-0.556 -0.465,-0.154 -0.528,-0.124 h -0.25 l -0.41,0.093 -0.042,-0.37 -0.166,-0.804 -0.493,-0.278 -0.89,0.123 -0.104,-0.154 0.098,-0.929 -0.653,-0.186 -0.166,-0.311 0.382,-0.65 0.438,0.278 0.069,0.311 0.223,0.124 0.514,-0.187 -0.027,-0.372 -0.403,-0.186 -0.181,-0.807 -0.326,-0.155 -0.694,-0.125 -0.334,0.373 -0.243,0.838 0.292,1.054 0.118,0.341 -0.035,0.341 -0.215,0.03 -0.202,-0.34 -0.36,-0.124 -0.348,0.062 -0.174,-0.217 -0.354,0.279 -0.056,0.31 0.236,-0.063 0.25,0.371 -0.277,0.989 -0.028,0.186 0.14,0.371 -0.104,0.154 -0.118,0.216 -0.375,-0.37 0.069,-0.31 -0.528,-0.803 -1.41,-0.093 -0.188,-0.278 -0.25,-1.858 0.209,-0.807 -0.223,-0.621 -0.883,-0.776 -1.243,0.031 0.417,0.808 0.431,0.125 0.194,1.116 -0.41,0.403 -0.382,-0.218 -0.903,-1.737 -0.549,-0.155 -0.556,-0.249 -0.188,0.218 0.194,0.622 0.417,1.24 0.542,-0.248 -0.348,-0.559 0.432,-0.248 0.139,0.868 0.723,0.992 -0.195,0.31 -0.076,0.155 0.438,0.835 -0.222,0.371 -0.827,0.031 -0.194,-0.248 -0.528,0.124 -0.257,0.34 0.028,0.371 -0.66,0.401 -0.466,-0.278 -0.152,-0.433 -0.306,-0.247 -0.327,-0.154 -0.424,0.711 -0.389,0.494 -1.938,0.03 -1.528,-0.741 -0.882,-0.525 -0.507,-0.34 -0.493,-0.712 0.097,-0.371 -0.236,-0.496 -0.416,-0.682 0.792,-0.807 -0.334,-0.621 -0.417,-0.373 h -0.486 l 0.25,-0.497 0.431,-0.249 -0.242,-0.28 -0.251,-0.498 -0.313,0.592 -0.319,-0.125 0.028,-0.188 0.222,-0.373 0.625,-0.997 -0.569,-0.188 0.042,-0.687 -0.431,-0.25 0.382,-0.031 0.549,0.281 0.098,0.624 0.458,-0.375 -0.444,-0.749 -0.549,-0.156 -0.25,0.125 -0.368,-0.719 -0.354,-0.031 -0.076,0.844 -0.167,0.063 -0.229,-0.406 -0.473,-0.125 h -0.527 l 0.021,0.344 -0.382,0.281 -0.604,-0.844 0.278,-0.501 0.416,-0.25 0.771,-0.031 0.104,-0.406 -0.236,-0.063 -0.563,-0.156 -0.646,0.47 -0.708,-0.125 -0.07,-0.251 0.167,-0.188 -0.806,-0.878 -0.299,-0.157 h -0.611 l -0.528,0.126 -0.118,-0.22 -0.444,-0.754 -0.382,-0.407 h -0.25 l 0.049,0.345 -0.348,0.377 0.326,0.157 0.111,-0.126 0.41,0.597 -0.438,0.031 -0.223,0.251 -0.611,-0.502 0.076,0.471 h -0.375 l 0.278,0.376 0.111,0.125 0.819,0.063 0.167,0.439 -0.354,0.156 -0.521,-0.22 0.167,0.438 h 0.236 l -0.466,0.532 -0.063,-0.47 -0.402,-0.313 -0.508,-0.345 -0.271,-0.532 -0.361,-0.628 0.069,-0.816 -0.347,-0.564 0.083,-0.44 -0.118,-0.409 -0.466,-0.157 0.265,-0.692 0.236,-0.379 -0.125,-0.63 -0.195,-0.252 -0.659,-0.158 -0.667,-0.252 -0.695,-0.379 -0.159,-0.601 0.083,-0.822 0.014,-1.203 -0.194,-0.761 -0.292,-0.189 -0.416,-0.382 0.083,-0.444 0.236,0.063 0.083,-0.444 -0.514,-0.317 0.069,-0.445 -0.82,-0.7 -0.333,-0.255 -0.264,-0.573 -0.348,-0.127 -0.056,-0.766 0.41,-0.159 0.076,-0.287 -0.152,-0.959 h 0.486 l 0.284,0.352 0.507,-0.352 -0.319,-1.407 -0.389,-0.513 -0.41,0.097 -0.667,-0.256 -0.41,-0.61 0.458,-1.347 -0.236,-0.579 0.25,-0.515 0.639,-0.515 0.521,-0.161 0.118,-0.354 0.334,-0.387 0.472,-0.387 0.89,-0.387 0.576,-0.032 1.258,-0.613 0.716,-0.032 0.944,0.646 0.444,-0.258 0.243,0.032 0.209,0.322 0.139,0.387 0.215,0.161 0.744,1.063 -0.265,0.708 0.042,0.257 0.042,0.836 -0.167,1.348 h 0.486 l 0.042,-0.193 0.549,-0.288 0.034,0.609 0.326,0.032 0.306,0.385 0.174,0.416 0.076,0.225 0.785,-0.609 0.327,0.225 -0.063,-0.353 -0.486,-0.448 0.083,-0.449 0.292,-0.064 0.083,-0.385 -0.208,-1.156 0.264,-0.579 -0.069,-0.772 1.132,0.097 0.417,-0.258 0.479,-0.226 0.827,-0.806 0.465,0.29 0.424,0.226 0.633,0.677 0.069,0.322 1.216,-0.097 1.361,0.515 0.639,-0.129 0.556,0.387 0.89,0.643 1.139,-0.129 0.751,-0.386 1.146,-0.225 0.299,0.097 0.118,0.354 0.466,0.032 0.25,-0.129 0.632,0.16 0.236,0.708 0.382,0.288 0.633,0.61 0.785,0.802 0.146,0.608 0.639,0.896 0.556,0.768 0.876,0.447 0.583,0.638 0.265,1.467 -0.146,0.159 -0.326,-0.351 0.222,1.083 h 0.265 l 0.319,-0.255 0.167,0.382 0.521,0.286 -0.118,-0.478 -0.319,-0.255 0.292,-0.572 -0.098,-0.573 0.223,-1.276 0.236,-0.319 0.083,-0.831 -0.208,-0.128 0.139,-0.512 0.292,-0.063 0.083,-0.832 -0.326,-0.032 -0.417,-0.385 -0.417,0.257 -1.111,-0.257 -0.604,-0.673 -0.333,-0.642 -0.646,-0.611 -0.535,-0.867 -0.854,-0.934 0.216,-0.419 -0.194,-0.322 -1.577,-0.677 -0.591,-0.354 -1.111,-0.259 -0.299,-0.161 -0.563,0.097 -0.16,0.032 -1.027,-0.388 h -0.834 l -0.479,-0.484 -1.049,-0.421 -1.25,0.13 -0.118,-0.355 -0.299,-0.162 -0.5,-0.129 -0.973,0.129 -0.285,0.098 -1.216,0.032 -0.409,-0.162 -0.265,-0.583 -0.409,-0.291 -0.16,0.032 -0.146,0.745 -0.438,-0.422 -0.152,-1.102 -0.5,-0.519 -1.049,-0.292 -0.049,-0.487 0.66,-0.162 -0.021,0.228 h 0.375 l 0.292,-0.585 0.743,-0.032 0.383,-0.358 0.257,-0.423 0.25,-0.13 0.417,-0.13 0.465,-0.163 0.702,-0.488 0.313,-0.358 0.243,-0.163 0.354,-0.162 0.646,-0.49 0.396,-0.489 0.277,-0.131 0.466,-0.032 0.527,0.261 h 0.361 l 0.556,-0.13 0.216,-0.229 -0.319,-0.262 0.743,-0.555 1.306,0.261 0.417,-0.393 0.667,0.132 0.215,-0.229 -0.306,-0.327 0.258,-0.229 h 0.556 l 0.527,0.522 0.479,0.36 0.403,-0.131 0.534,0.033 0.299,-0.229 -0.306,-0.393 -0.354,-0.032 -0.021,-0.491 0.854,-0.426 0.25,0.262 0.479,-0.754 0.604,-0.032 0.056,0.394 -0.326,0.36 0.604,0.032 0.361,-0.262 -0.048,-0.36 0.548,-0.295 0.361,0.263 h 0.39 l 1.473,-0.263 0.639,-0.131 0.799,-0.951 0.223,-0.395 0.201,-0.888 0.841,0.493 0.584,0.264 0.771,0.032 0.535,-0.493 1.049,-0.164 1.111,-0.132 0.75,-0.395 0.64,0.132 0.723,0.526 0.723,0.395 1.201,1.018 0.354,-0.361 0.424,0.361 0.465,0.032 0.077,-0.623 -0.236,0.065 -0.486,-0.723 -0.278,-0.395 -1.848,-0.854 -0.236,-0.594 -0.458,-0.197 -0.403,-1.385 -0.514,-1.454 0.111,-0.396 0.271,-0.165 0.229,0.363 0.465,0.166 0.827,-0.563 -0.431,-0.265 0.319,-0.332 -0.361,-1.061 -0.354,-0.431 -0.382,0.299 0.292,1.259 -0.299,-0.1 -0.132,-0.231 -0.153,-0.397 -0.347,0.265 -0.202,0.232 -0.556,0.132 -0.424,1.026 -0.159,0.43 0.021,0.496 -0.639,0.396 -0.66,0.165 -2.278,0.528 -0.493,-0.165 -0.431,-0.462 h -0.515 l -1.042,0.462 -0.354,-0.1 -1.139,0.265 -0.688,0.56 -0.674,-0.164 -1.758,0.89 -0.66,-0.362 -0.834,0.132 -0.833,-0.264 -0.618,-0.891 -0.682,-0.329 -0.84,-0.231 -0.25,-0.529 -0.285,-0.091 -0.966,-0.173 -0.694,0.132 -0.473,-0.132 -0.104,0.231 0.104,0.562 -0.139,0.132 -0.41,-0.099 -0.598,1.253 -0.333,0.264 -0.326,0.297 -0.229,0.362 -0.194,0.264 -0.271,0.427 -0.611,0.132 -0.173,0.493 -0.334,0.263 -1.049,0.165 -1.39,0.525 -0.194,-0.132 -1.028,0.132 -0.034,-0.23 -0.438,-0.164 0.077,0.624 -0.493,0.164 -0.396,0.754 -0.438,0.296 h -0.25 l -0.479,-0.886 -0.632,-0.558 -0.646,0.492 -0.152,0.655 0.159,0.296 0.41,-0.033 -0.104,-0.36 0.41,0.163 0.285,0.754 -1.612,-0.131 -0.063,0.229 -0.354,0.163 h -0.667 l -0.146,-0.229 -0.799,-0.295 -1.028,0.131 -0.527,-0.786 -0.528,-0.132 -0.889,0.132 -0.771,0.294 -0.403,0.591 0.111,0.654 -0.493,0.033 -0.104,0.163 -0.125,1.111 -0.354,-0.098 -0.139,0.262 -0.271,-0.164 -0.139,-0.522 -0.292,-0.589 -0.243,-0.163 h -0.833 l -0.049,-0.491 0.299,-0.819 0.271,-1.147 -0.32,-0.263 0.167,-1.117 -0.195,-0.395 -0.056,-0.329 -0.368,-0.428 -0.694,-0.527 0.132,-0.759 -0.111,-0.659 -0.167,-0.396 -0.521,-0.43 0.285,-0.231 0.41,-0.033 0.048,-0.231 -0.569,-0.396 0.125,-0.53 -0.32,-0.265 -0.278,-0.463 -0.056,-0.398 -0.014,-1.128 -0.375,-0.664 -0.056,-0.931 0.194,-0.8 0.083,-0.933 -0.056,-1.401 0.097,-1.673 -0.292,-0.334 -0.333,-1.006 0.194,-0.806 0.82,-0.066 -0.042,-0.471 0.694,-0.672 0.243,0.102 0.188,-0.223 -0.097,-0.148 0.382,-0.168 0.167,0.135 0.354,-0.303 0.069,-0.336 0.966,-0.304 h 0.694 l 0.612,0.27 0.777,1.211 0.341,1.041 0.236,0.067 0.194,0.806 -0.153,0.201 1.16,2.175 0.285,1.303 0.486,0.066 -0.111,0.468 -0.264,0.066 0.167,0.467 0.389,0.533 0.466,0.166 0.659,-0.433 -0.541,-2.135 0.027,-0.201 0.215,0.101 0.229,-0.234 -0.444,-0.937 0.319,-0.268 -0.361,-0.669 -0.771,-0.436 -0.188,-0.437 0.097,-0.604 -0.264,-0.47 -0.223,-0.739 0.194,-0.27 -0.034,-0.168 -0.299,-0.571 0.056,-0.337 0.438,-0.303 h 0.25 l 0.223,0.269 0.5,-0.134 0.5,-0.135 0.139,-0.135 1.14,0.403 0.223,0.27 1.243,-0.572 1.758,-0.506 0.222,-0.27 h 0.611 l 1.167,-0.404 1.091,1.314 1.077,0.168 0.41,-0.303 0.25,-0.472 -0.542,-1.417 0.139,-1.149 0.271,-0.304 0.584,0.135 0.188,-0.236 -0.375,-0.067 0.056,-0.204 0.667,-0.541 0.438,0.372 0.104,-0.372 -0.431,-0.407 0.36,-0.406 0.195,-0.136 0.333,-0.271 0.688,-0.034 0.077,-0.373 -0.348,-0.067 0.167,-0.748 0.333,-0.271 0.584,-0.067 0.235,0.136 0.015,-1.156 0.5,-0.818 0.667,-0.545 0.438,-0.307 0.25,0.272 1.306,0.137 -0.021,0.784 -0.111,0.408 0.167,0.408 0.389,0.137 0.028,-0.137 0.326,-0.374 0.334,0.272 0.972,0.408 0.466,-0.034 0.361,-0.408 0.083,-0.341 -0.166,-0.409 -0.584,-0.817 -0.639,-0.682 -0.626,-0.615 -0.236,-0.751 -0.409,-0.308 -0.049,-0.514 0.375,-0.411 0.229,-0.308 0.09,-0.377 0.556,-0.549 0.445,-0.068 0.215,-0.103 0.091,-0.515 0.194,-0.275 1.444,-1.236 0.243,-0.034 0.361,0.274 1.112,-0.138 2.306,-0.963 0.604,0.447 0.431,0.619 0.632,0.034 0.834,-0.274 0.299,0.171 0.056,0.345 -0.153,0.137 0.438,0.31 0.722,0.274 0.611,-0.138 h 0.417 l 0.223,-0.274 -0.056,-0.274 0.382,0.034 0.528,0.549 0.257,-0.034 0.667,0.138 0.611,-0.412 1.361,0.138 0.521,-0.241 0.319,0.894 0.25,0.138 0.667,0.549 0.625,0.137 0.027,-0.206 -0.659,-0.309 -0.834,-0.961 0.007,-0.653 0.25,-0.412 0.986,-0.481 0.229,-0.379 0.361,-0.276 0.41,-0.447 0.014,-0.482 1.271,-0.863 0.034,0.242 0.216,0.034 0.382,-0.311 0.194,-0.139 0.181,-0.621 0.695,-0.554 0.333,-0.138 0.292,-0.069 -0.139,-0.485 -0.39,-0.554 -0.167,-0.346 -0.083,-0.209 -0.791,-0.141 -0.842,0.522 -0.527,0.415 -0.271,0.45 -0.639,0.277 -0.868,0.242 -0.306,0.139 -0.479,1.07 -0.271,0.173 -0.465,-0.104 -0.069,0.76 -0.243,0.034 -3.05,-1.969 0.083,-0.346 h 0.792 l -0.333,-0.277 -0.486,-0.069 0.097,-0.484 -0.799,-0.45 -0.417,-0.139 -0.583,0.277 -0.667,-0.139 -0.083,0.416 -0.674,-0.798 -0.82,-0.555 0.223,-0.277 0.326,0.104 0.438,-0.312 0.306,-0.556 0.015,-0.626 0.597,-0.626 0.278,-0.975 -0.069,-1.744 0.958,-0.908 0.278,-0.98 -0.208,-0.771 0.194,-0.701 1.403,-0.912 0.041,-1.195 0.473,-0.703 0.556,-1.41 0.521,-0.317 h 0.5 l 1.028,0.565 h 0.417 l -0.16,-0.318 0.16,-0.106 0.305,0.283 0.188,-0.67 -0.195,-0.283 h -0.541 l 0.083,-0.282 0.271,-0.035 0.104,-0.389 -0.194,-0.283 -0.883,-0.176 -0.389,-0.284 h -1.39 -0.416 l -0.118,0.39 -0.438,0.177 -0.451,-1.097 -0.438,0.106 -0.223,0.424 -0.271,-0.176 0.152,-0.566 -0.11,-0.212 -0.494,0.106 -0.201,-0.673 -0.382,0.106 0.132,0.39 -0.111,0.85 -0.264,-0.071 -0.083,0.283 0.014,1.061 -0.438,0.317 -0.445,-0.141 -0.194,0.141 0.271,0.458 -0.069,0.353 -0.195,0.635 0.431,1.479 -0.166,0.563 -0.459,0.632 -0.083,0.327 -0.375,0.866 -0.028,0.561 -0.222,0.84 -0.417,0.42 -1.077,0.455 -0.382,0.314 -0.459,0.629 -0.5,0.279 -0.514,-0.14 -0.368,-0.524 -0.243,0.175 0.181,0.279 -0.181,0.349 0.299,0.174 0.188,0.523 -0.222,0.831 -1.001,1.12 -0.577,0.034 -0.889,0.417 h -1.306 l -1.779,1.111 -0.889,0.139 h -0.834 l -0.659,-0.173 -0.584,-0.973 -0.152,-0.626 -0.987,-0.904 -0.181,-1.046 -0.409,-0.873 0.104,-1.083 -0.11,-0.7 -0.292,-0.91 0.042,-0.771 -0.598,-0.421 0.723,-0.562 0.097,-0.421 -0.215,-0.175 -0.584,0.281 -0.132,-0.246 0.632,-0.457 0.417,0.14 0.89,-0.281 0.277,0.141 0.306,-0.282 0.257,-0.809 0.41,-0.176 0.361,-0.563 0.063,-1.799 0.056,-0.283 0.167,-0.566 0.166,-0.707 -0.222,-0.708 0.319,-0.709 -0.264,-0.567 0.333,-0.71 0.208,-0.781 v -0.641 l -0.055,-0.285 -0.653,-0.641 -0.285,-0.963 -0.354,-0.535 0.383,-0.321 0.132,-0.464 -0.153,-0.501 0.32,-1.216 -0.183,-0.51 -0.438,-0.466 -0.299,0.036 0.292,0.502 -0.299,0.036 -0.167,0.286 -0.243,-0.322 0.104,-0.251 h -0.695 l -0.667,0.143 -0.382,0.967 0.125,0.572 -0.166,0.572 -0.251,1 -0.652,0.856 0.125,1.14 -0.236,0.427 -0.083,0.854 0.652,0.71 -0.056,0.284 -0.326,0.177 -0.132,0.532 0.514,0.709 -0.083,0.779 -0.236,0.495 0.542,0.495 0.306,1.06 -0.493,0.035 -0.25,-0.282 h -0.751 l -0.909,0.741 0.208,0.282 -0.027,0.212 -0.32,0.141 -0.201,0.317 -0.5,0.141 -0.438,0.669 0.139,0.563 0.459,0.352 -0.084,0.352 -0.473,0.703 -0.438,-0.105 -0.146,-0.387 -0.632,-0.597 -0.438,-0.598 -0.729,-0.951 -0.465,-1.022 0.027,-0.212 0.709,-0.564 0.528,-0.424 -0.167,-1.556 -0.111,-1.276 -0.076,-0.745 -0.063,-0.39 -0.271,-0.319 -0.361,0.284 -0.306,-0.71 -0.889,0.426 -0.118,-0.391 -0.083,-0.285 -0.383,-0.036 -0.188,0.178 v 1.208 l 0.319,0.284 -0.375,0.354 0.042,0.497 -0.931,0.212 -0.459,0.779 -0.688,-0.106 -0.215,0.318 0.431,0.425 -0.181,0.354 0.027,0.424 0.854,0.883 0.049,0.529 -0.236,0.423 0.292,1.127 -0.084,0.282 -0.347,0.844 0.347,0.843 -0.181,0.842 0.932,1.821 -0.077,0.175 -0.284,0.105 -0.243,0.175 -1.417,-0.7 -0.723,0.14 -0.25,-0.14 -0.313,-0.105 -0.327,-0.175 -0.188,0.105 0.021,0.315 -0.077,0.455 0.084,0.35 0.188,1.013 0.479,0.803 0.354,-0.105 0.16,0.244 -0.083,0.279 -0.306,0.14 -0.216,-0.105 -0.826,0.313 -0.195,0.279 0.056,0.349 0.799,-0.104 0.368,0.521 0.327,0.313 0.146,0.521 1.243,0.451 0.778,0.278 0.452,0.521 0.486,0.208 0.389,0.764 0.223,1.177 0.235,0.899 0.966,1.416 0.049,0.518 -0.306,-0.483 -0.243,-0.034 -1.084,0.689 h -0.667 l -0.257,-0.518 -1.633,-0.587 -0.465,0.726 0.097,0.207 -0.159,0.31 -0.778,-0.827 -0.868,-1.209 -0.938,-0.587 -0.528,0.138 -0.535,-0.935 -0.465,-0.034 -0.258,1.35 -0.208,0.276 0.306,0.552 0.771,-0.104 -0.104,-0.518 0.292,-0.139 0.25,0.208 -0.181,0.275 0.431,0.415 -0.25,0.414 -0.515,-0.069 -0.25,0.483 0.327,0.172 0.25,-0.138 0.438,0.792 -0.604,0.311 -0.424,-0.104 h -0.792 l -0.223,0.345 0.195,0.413 -0.424,0.172 -0.104,0.24 0.188,0.172 1.611,-0.412 0.084,0.274 0.257,0.241 0.216,0.171 0.326,-0.171 -0.069,-0.345 0.271,-0.171 0.271,0.171 -0.098,0.481 -0.181,0.138 0.208,0.962 0.57,0.343 0.056,0.343 -0.028,0.686 -0.583,0.685 -0.917,0.411 -0.41,0.034 -0.576,0.717 0.014,0.479 -0.056,0.82 -0.278,0.545 h -0.264 l -0.042,-0.478 -0.208,-0.204 0.042,-1.435 -0.056,-0.273 -0.153,-0.342 -0.611,-0.411 -0.313,-0.24 -0.465,-0.444 -0.174,-0.515 -0.257,0.515 -0.577,0.171 -0.243,0.514 0.854,0.308 0.063,0.377 0.542,0.479 -0.139,0.614 -0.319,0.274 0.083,0.818 0.292,0.341 -0.056,0.886 -0.194,0.272 -0.347,-0.272 -0.07,-0.341 -0.403,-0.477 -0.181,-0.478 -0.389,-0.683 -0.486,-0.204 0.069,-0.343 -0.994,-0.307 -0.257,0.376 -0.042,0.273 0.236,0.137 0.264,0.682 h 0.403 l 0.598,0.954 0.333,0.273 0.208,0.272 -0.382,0.17 h -0.389 l -0.201,-0.238 -0.153,0.136 0.048,0.511 0.035,0.374 0.521,0.034 0.229,-0.374 0.264,0.068 0.139,0.544 -0.639,0.407 -1.521,0.441 -0.945,-0.271 -0.778,0.136 -1.417,-0.68 -0.806,-0.136 -0.389,0.136 -1.362,-0.407 -0.361,-0.137 -0.917,-0.816 -0.444,-0.136 -0.646,0.374 -0.333,0.816 -0.327,-0.102 -0.493,0.169 0.292,0.477 -0.299,0.17 -0.243,-0.103 -0.445,-1.02 0.125,-0.749 -0.431,-0.341 -0.278,-0.545 0.111,-0.614 0.111,-1.093 0.486,-1.572 v -0.754 l -0.389,-0.686 -0.465,-0.172 -0.16,-0.583 -0.194,-0.962 0.271,-0.104 0.528,-0.55 0.215,-0.31 0.278,-0.758 -0.41,-0.448 h -0.528 l -0.216,0.241 -0.194,-0.482 -0.118,-0.448 0.021,-0.38 -0.215,-0.173 -0.188,0.242 -0.32,0.138 0.389,0.621 -0.222,0.482 -0.243,0.172 -0.611,0.276 -0.882,-0.035 -0.542,-0.758 -0.361,-0.828 -0.576,-0.311 -0.354,-0.448 -0.472,-0.968 -0.479,-0.936 -1.466,-3.714 0.667,-0.557 0.382,-0.035 -0.132,0.244 0.542,0.626 0.069,0.487 0.708,0.347 -0.056,0.348 -0.799,0.035 -0.076,0.243 0.243,0.173 0.639,-0.139 0.528,0.416 -0.215,-0.937 0.167,-0.14 0.604,-0.313 0.577,0.104 0.313,-0.243 -0.076,-0.243 0.548,-0.174 0.369,-0.175 1.132,0.313 0.222,0.278 0.757,-0.104 0.382,-0.174 h 0.583 l 0.556,0.14 0.285,-0.522 0.41,-0.174 0.007,0.243 0.333,0.279 1.049,0.451 0.104,-0.104 -0.32,-0.347 -0.139,-0.627 h 0.264 l 0.202,0.243 0.215,-0.174 -0.097,-0.209 0.319,-0.278 0.333,-0.139 0.431,1.184 0.521,0.034 0.549,-0.522 -0.139,-0.557 -0.959,-0.627 -0.403,-0.209 -0.486,-0.209 -0.257,-0.524 -0.104,-0.384 0.799,-0.035 0.222,0.279 0.778,0.14 0.188,-0.523 -0.083,-0.28 -0.764,-0.209 0.278,-1.33 0.632,-0.315 0.063,-0.245 -0.452,-0.876 h -0.25 l -0.41,-0.316 -0.285,-0.526 -0.91,-1.018 0.111,-1.197 0.375,0.141 h 0.139 l -0.306,-0.563 -0.382,-0.035 -0.354,-0.388 -0.424,0.106 -0.215,0.317 0.097,0.774 -0.292,0.704 1.216,1.019 0.174,0.386 0.222,0.21 0.181,0.352 -0.153,0.14 -0.681,-0.772 -0.41,-0.315 -0.361,-0.281 -0.16,0.387 0.236,0.07 -0.028,0.211 -0.521,0.175 -0.25,-0.141 -0.299,-0.175 0.042,-0.351 -0.986,-0.492 -0.458,-0.633 -0.653,-0.141 v 0.774 l 0.333,0.421 0.736,0.351 0.347,1.053 0.486,0.21 -0.014,0.21 0.048,0.315 0.021,1.225 -0.417,0.559 -0.375,-0.14 -0.097,-0.91 -0.854,-0.175 -0.146,-0.385 -0.327,-0.175 -0.611,0.28 -0.132,0.385 0.403,0.629 -0.042,0.35 0.514,0.069 0.34,0.664 -1.077,-0.454 -0.195,-0.35 -0.146,-0.314 -0.25,-0.28 -0.306,0.28 h -0.583 l -0.361,0.28 -0.528,-0.28 h -0.611 l -0.528,0.28 -1.612,-0.14 -0.271,-0.314 v -0.771 h 0.82 l -0.438,0.245 0.167,0.28 0.834,-0.14 0.104,-0.175 -0.465,-0.525 -0.021,-1.087 0.208,-0.421 -0.167,-0.562 -0.348,-0.21 h -0.153 l -0.271,0.175 -0.417,0.141 H 285.5 l -0.528,-0.141 -1.354,0.105 -0.202,-0.105 -1.41,-1.019 -0.313,-0.388 -0.229,-0.528 -0.319,0.282 0.208,0.352 -0.486,-0.282 -0.223,-0.281 0.042,-0.353 -0.91,-0.739 -0.104,-0.389 -0.056,-0.353 -0.069,-0.494 -0.299,-0.317 -0.306,-0.565 -0.223,-0.425 0.139,-0.283 0.257,0.389 h 0.264 l 0.194,-0.283 0.223,-0.425 0.125,-0.637 -0.306,-0.496 -0.195,-0.497 0.181,-0.284 -0.188,-0.178 -0.167,0.284 -0.299,-0.177 0.014,-0.213 -0.243,-0.035 -0.361,0.567 -0.667,-0.284 -0.313,-0.106 -1.098,-0.781 -0.361,-0.426 0.153,-1.565 0.583,-0.712 -0.028,-0.571 0.264,-0.642 0.695,0.143 0.069,-0.428 -0.188,-0.179 -0.417,0.143 -0.104,-0.679 0.083,-0.429 0.688,-0.608 0.09,-0.394 0.458,-0.143 0.486,0.43 0.458,-0.071 0.229,0.179 1.556,-0.143 0.521,-0.251 -0.194,-0.43 -0.466,-0.179 -0.215,0.036 0.208,0.502 -0.66,-0.107 -0.223,-0.287 0.021,-0.395 -0.736,-0.501 -0.319,-0.646 -0.278,-0.144 -0.604,-0.036 -0.771,-0.036 -0.591,-0.539 -1.139,-0.863 -1.091,-1.982 -0.556,-0.866 -0.708,-0.65 -0.924,-1.122 -0.049,-0.615 -0.167,-1.378 0.715,-0.326 0.25,0.29 h 0.473 l 0.611,-0.436 0.889,-0.145 0.674,0.689 0.799,0.036 2.008,1.27 0.632,0.036 0.09,0.615 0.056,0.506 0.327,0.181 h 0.833 l 0.229,0.688 0.66,0.18 0.118,-0.325 0.82,0.072 0.201,0.253 -0.021,0.397 0.771,0.325 0.361,0.289 0.604,-0.108 0.125,0.938 0.466,0.036 0.667,-0.289 0.285,0.397 0.298,0.036 0.89,-0.433 0.556,-0.288 0.632,-0.469 0.25,-0.433 -1.327,-0.397 0.188,-0.325 -0.055,-0.507 -0.32,-0.361 0.069,-0.507 -0.125,-0.724 0.083,-0.436 0.389,-0.435 -0.056,-0.435 1.07,-0.217 0.25,-0.509 -0.167,-0.582 -0.577,-0.472 -0.473,0.291 h -0.583 l -0.945,-0.582 -1.083,-0.292 -0.869,-0.984 -0.743,-0.474 -0.472,0.146 -0.473,0.146 -0.25,0.146 -0.271,0.183 0.014,0.656 -0.688,0.036 -0.41,-0.328 0.042,-0.364 -0.306,-0.584 -0.528,-0.292 -1.153,-0.657 -0.313,-0.402 -0.563,-1.134 -0.5,-0.439 -0.653,-0.219 0.319,-0.367 0.292,-0.587 0.681,-0.513 0.292,-0.661 0.056,-1.029 0.521,-0.037 0.833,0.588 0.354,-0.405 -0.042,-0.441 0.208,-0.294 -0.792,-0.368 -0.611,-0.663 0.083,-0.443 0.181,-0.073 0.069,-1.107 0.278,-0.739 0.028,-0.74 0.278,-0.74 0.417,-0.593 0.389,-0.445 0.466,-0.333 0.479,0.037 0.41,-0.037 -0.007,0.26 -0.375,0.371 0.382,0.259 0.563,-0.333 0.438,0.333 1.14,-0.148 0.09,0.26 0.326,0.037 0.146,-0.259 0.319,-0.074 -0.243,-0.705 -0.361,0.148 -0.111,0.148 h -0.778 l -0.195,0.297 -0.278,-0.148 -0.007,-0.26 -0.667,-0.445 -0.66,-0.037 -0.924,-0.854 -0.243,0.111 -0.139,-0.148 0.222,-0.297 0.639,0.297 0.354,-0.334 -0.098,-0.224 0.542,-0.595 -0.194,-0.446 0.535,0.111 0.056,-0.446 0.827,0.707 0.194,-0.224 -0.215,-0.186 0.028,-0.596 0.583,0.149 0.174,0.856 0.604,0.334 0.521,-0.037 0.028,-0.223 -0.493,-0.186 -0.327,-0.112 0.083,-0.446 0.438,0.261 0.299,-0.186 -0.111,-0.224 -0.799,-0.186 -0.5,-0.447 -0.528,-0.448 -1.306,0.149 -0.466,-0.335 0.111,-0.522 0.382,-0.187 0.229,0.037 0.66,-0.635 0.298,0.336 -0.18,0.224 0.083,0.299 h 0.153 l 0.278,-0.672 0.083,-0.374 0.174,-0.412 0.604,0.262 -0.972,-1.123 -0.438,0.262 -0.423,0.262 -0.458,0.075 -0.646,0.412 -0.507,0.86 -0.382,-0.112 -0.271,0.411 -0.229,0.187 -0.257,-0.037 0.055,-0.299 -0.194,-0.523 -0.549,-0.187 -0.215,0.336 -0.202,0.411 -0.132,-0.262 0.236,-0.448 -0.25,-0.299 -0.375,-0.225 -0.202,-0.412 0.327,-0.412 -0.375,-0.224 -0.014,-0.824 -0.222,-0.301 -0.292,0.076 -0.389,-0.375 0.16,-0.488 0.306,0.3 0.507,-0.038 0.327,0.188 0.438,-0.413 -0.465,-0.338 -0.833,-0.15 -0.202,-0.263 -0.688,-0.188 -0.611,0.301 h -0.278 l -0.521,-0.113 -0.458,0.827 -0.542,0.45 0.361,0.451 0.403,0.075 -0.264,0.824 0.486,0.374 0.194,0.599 0.139,0.823 v 0.747 l -0.32,0.074 -0.027,0.224 0.333,0.597 0.792,0.373 -0.347,0.298 -0.056,0.373 0.799,0.93 -0.354,0.559 0.458,0.594 v 0.667 l -0.208,0.52 0.486,1.186 -0.056,0.296 0.028,0.518 -0.111,0.666 -0.139,0.591 -0.195,0.295 -0.41,0.037 -0.41,-0.332 0.014,-0.222 -0.262,-0.002 0.109,0.962 0.374,0.218 -0.026,0.224 -0.326,0.185 -0.257,0.553 -0.521,0.331 -0.063,0.258 -1.299,1.067 -0.861,-0.294 -0.473,0.147 -0.167,0.294 h -0.473 l -0.604,-0.037 -0.07,-0.515 -0.389,-0.221 0.222,-1.178 -0.264,-0.959 -0.167,-1.477 0.319,-0.888 -0.083,-0.444 -0.215,-0.037 -0.243,-0.555 0.111,-1.335 0.347,-0.297 -0.027,-0.594 -0.333,-0.595 h -0.153 l -0.07,0.373 -0.243,-0.112 -0.055,-0.447 -0.174,-0.855 -1.125,-1.118 0.264,-0.672 -0.431,-0.821 -0.306,-0.748 0.055,-0.375 0.438,0.112 -0.035,-0.711 -0.215,-0.187 -0.556,0.15 -0.827,-0.786 -0.535,-1.013 0.104,-0.864 -0.319,-0.676 0.139,-0.678 0.743,0.565 0.194,-0.151 0.215,-0.188 -0.347,-0.527 0.222,-0.452 0.271,0.113 -0.063,-0.415 -0.382,-0.038 -0.507,-0.868 -0.264,-0.075 -0.194,-0.68 0.16,-0.491 0.785,0.416 0.403,0.151 -0.111,-1.134 -0.264,-0.075 -0.223,-0.53 0.139,-0.606 0.472,-0.151 0.348,-0.303 0.063,-0.341 0.048,-0.266 -0.458,-0.759 0.57,-0.607 -0.327,-0.342 -0.333,0.304 -0.493,-0.19 -0.285,-0.418 -0.743,-0.724 0.16,-0.342 0.174,0.267 0.431,0.076 0.535,0.419 -0.396,-1.181 -0.354,-0.19 -0.473,0.152 -0.528,-0.457 -1.139,-0.61 -0.327,-0.878 0.271,-0.038 0.5,0.611 0.202,-0.115 -0.07,-0.458 -0.264,-0.076 -0.236,-0.535 -0.549,-0.038 -0.215,-0.65 0.132,-0.268 0.799,0.115 -0.111,-0.383 -0.493,-0.191 0.222,-0.306 0.424,-0.115 0.938,0.115 0.417,-0.153 h 0.723 l 0.174,0.268 0.347,0.536 0.236,0.537 h 0.292 l 0.167,-0.23 -0.208,-0.459 0.25,-0.459 0.5,-0.307 0.438,-0.038 0.201,0.881 0.25,0.307 0.32,-0.153 -0.132,-0.575 0.611,0.307 h 0.528 l 0.827,1.034 -0.056,-0.536 0.007,-0.345 0.41,-0.191 -0.111,-0.23 -0.848,-0.23 -0.201,-0.421 -0.896,-0.422 -1.049,-0.652 -1.612,-0.461 -0.576,-0.346 -0.611,-0.769 0.083,-0.539 0.827,-0.655 0.139,-0.154 0.063,-0.578 0.271,-0.347 0.778,0.309 0.243,-0.424 -0.382,-0.193 -0.25,0.154 z m -0.028,-7.604 -0.472,0.156 -0.75,-0.156 h -0.361 l -0.833,-0.156 -0.723,-0.78 -0.667,-0.156 0.055,-0.469 0.167,-0.156 h 0.194 l -0.056,-0.782 0.584,0.157 -0.049,-0.587 0.215,-0.195 0.556,0.156 0.167,0.157 0.389,0.156 0.445,0.156 0.389,0.47 0.271,0.43 -0.104,0.507 -0.556,-0.156 0.056,0.156 0.389,0.78 h 0.278 l -0.104,-0.273 0.188,-0.351 0.417,0.625 0.417,-0.156 0.16,0.195 -0.104,0.585 -0.306,-0.313 z m 0.111,2.025 0.577,0.816 0.111,0.388 0.063,0.194 0.473,0.311 0.222,0.155 0.271,1.202 -0.41,0.503 -0.278,-0.31 -0.611,0.155 -0.333,0.155 -0.118,0.581 -0.438,0.657 0.077,0.426 -0.438,0.039 -0.139,-0.464 h -0.389 -0.444 l -0.583,-0.309 -0.09,-0.58 -0.083,-0.387 -0.069,-0.387 0.576,-0.039 0.063,-0.116 0.319,-0.155 -0.299,-0.194 -0.389,0.155 -0.027,-0.309 -0.495,-0.505 0.243,-0.427 h 0.25 l 0.889,0.465 0.028,-0.31 h -0.223 l -0.16,-0.272 0.438,0.117 0.333,-0.155 0.049,-0.271 -0.994,-0.194 -0.417,-0.311 -0.528,-0.467 -0.104,-0.583 0.465,-0.194 1.056,0.623 h 0.417 l -0.111,-0.311 h -0.25 l -0.271,-0.35 0.076,-0.428 0.611,0.312 0.445,0.155 0.583,-0.311 0.299,0.194 z m 120.847,25.849 h 0.223 l 0.223,0.301 0.277,0.751 h 0.5 l 0.306,0.45 -0.222,0.751 h -0.39 l -0.194,-0.601 -0.194,-0.3 -0.611,-0.15 -0.584,-0.751 h -0.25 l -0.722,0.751 h -0.278 l -1.278,0.15 -0.333,0.15 -0.361,0.15 -0.306,-0.15 -0.39,0.15 -0.25,-0.601 -0.354,-0.789 0.291,-0.452 -0.041,-0.376 0.159,-0.64 -0.118,-0.415 -0.11,-0.603 -0.236,-0.075 0.11,-0.378 0.271,-0.339 0.556,0.302 0.389,-0.151 0.861,0.453 0.445,-0.302 0.416,0.151 0.195,0.604 0.659,0.49 0.285,0.414 0.466,0.489 0.034,0.414 z m 2.556,17.405 0.306,0.441 -0.021,0.257 0.243,0.184 1.223,0.294 0.889,-0.147 0.584,-0.441 h 0.389 l 0.361,0.588 h 0.473 l 0.194,0.293 -0.194,0.44 0.917,0.44 0.472,0.293 0.306,0.146 0.334,0.147 -0.167,0.293 0.883,0.695 -0.327,0.329 0.216,0.402 -0.604,0.475 -0.035,0.548 -0.271,0.329 -0.5,0.292 -0.306,-0.292 -0.75,-0.146 -0.945,0.583 -0.5,0.146 -0.313,0.547 -0.604,0.473 -0.306,-0.146 -0.528,0.146 -0.034,-0.546 -0.299,-0.474 -1.528,-0.292 -0.361,-0.583 0.188,-0.767 v -0.512 l -0.216,-0.037 -0.194,-0.292 -0.299,-0.476 v -0.513 l 0.236,-0.219 0.069,-1.101 0.41,0.11 0.521,-1.064 -0.16,-0.552 -0.549,-0.405 0.549,-0.037 z m 134.852,7.03 0.361,-0.146 0.444,-0.146 0.243,0.182 0.201,0.11 0.077,0.182 -0.14,0.656 h -0.152 l -0.396,-0.4 -0.188,0.4 0.188,0.036 0.084,0.292 -1.091,0.036 -0.549,0.255 0.188,0.545 -0.104,0.182 -0.34,0.109 -0.209,0.072 -0.117,0.545 -0.89,-0.145 -0.091,-0.545 -0.347,-0.364 v -0.364 l 0.021,-0.182 -0.229,-0.837 -0.208,-0.073 0.104,-0.255 0.222,-0.146 h 0.667 0.444 l 0.111,0.291 1.028,-0.146 z m -23.702,4.215 0.438,-0.181 -0.104,-0.689 0.556,-0.29 h 0.694 l 1.001,0.29 -0.16,0.544 0.077,0.181 1.111,-0.145 0.882,0.326 0.285,-0.036 0.194,0.436 0.528,0.145 0.222,0.145 0.64,1.013 0.166,0.289 0.556,0.579 0.258,0.253 0.326,0.325 1.39,-0.145 0.722,0.289 0.056,0.289 0.14,0.145 0.416,-0.145 h 0.445 0.583 l 0.361,-0.433 0.584,-0.289 0.194,-0.145 h 0.25 l 0.361,0.289 0.417,-0.578 0.444,-0.145 0.466,0.325 0.194,0.794 -0.16,0.325 -1.084,0.721 -1,0.289 -0.583,0.288 -0.807,0.432 -0.639,0.72 -0.806,0.432 -0.035,0.396 -0.243,0.179 -0.222,-0.287 -0.223,0.287 -0.035,0.323 -0.139,0.359 -0.465,0.323 -0.243,-0.395 0.208,-0.071 0.139,-0.646 -0.41,-0.179 -0.222,-0.144 -0.361,-0.719 -0.778,-1.007 -0.583,-0.577 -0.056,-0.433 -0.361,-0.145 h -0.444 l -0.14,0.145 h -1.389 -0.473 -0.611 l -0.25,-0.145 -0.528,-0.289 -0.222,0.145 -0.091,0.541 -0.188,0.325 -0.277,0.288 -0.584,-0.144 -0.223,-0.289 -0.5,-0.289 -0.861,0.144 -0.444,0.289 -0.389,0.864 -0.723,0.576 -0.5,0.431 -0.258,0.252 -0.382,0.18 -0.139,0.574 -0.556,0.574 -0.723,0.287 -0.556,0.287 -0.528,-0.287 -0.861,-0.574 h -1.445 l -0.465,-0.61 0.021,-0.396 -0.222,-0.144 v 0.288 h -0.223 l -0.021,-0.396 0.215,-0.18 0.444,0.144 0.64,-0.287 0.5,-0.144 h 0.444 l 0.577,-0.611 0.313,-0.973 0.75,-0.289 0.16,-0.397 -0.104,-0.324 0.007,-0.397 0.326,-0.325 0.445,0.145 0.556,-0.145 1.084,-0.145 0.688,-0.253 0.451,-0.326 0.479,-0.108 0.431,-0.795 -0.027,-0.652 -0.41,-0.907 0.973,0.29 -0.049,0.254 0.243,0.181 z m -225.765,40.644 -0.056,-0.414 0.236,-0.551 -0.077,-0.517 -0.278,0.827 -0.215,-0.173 0.181,-0.275 -0.069,-0.345 -0.007,-0.448 -0.327,-0.586 0.097,-0.622 -0.215,-0.449 -0.361,-0.276 -0.5,-0.276 -0.667,0.276 -0.132,-0.173 -0.063,-0.242 -0.583,-0.969 -0.327,-0.174 -0.09,-0.658 -0.417,-0.277 -0.028,-0.278 -0.583,-0.139 -0.25,-0.139 -0.667,-0.277 -0.083,0.277 -0.25,0.694 h -0.25 l -0.278,0.555 h -0.222 l -0.444,-0.555 -0.333,-0.556 -0.215,-0.451 -0.111,-0.903 -0.229,-1.287 -0.257,-0.662 -0.319,-1.046 -0.083,-1.188 0.347,-0.349 0.111,-0.63 -0.493,-0.595 -0.577,-0.315 v -0.701 l -0.083,-0.421 -0.069,-1.194 -0.215,-0.457 -0.243,-0.035 -0.083,-0.353 0.153,-0.141 -0.215,-0.458 -0.465,-0.176 -0.458,-2.328 -0.347,-0.212 -0.083,-0.424 -0.257,-0.672 -0.091,-0.531 -0.569,-0.637 -0.278,-0.851 -0.153,-0.923 -0.327,-0.177 -0.354,-0.604 -0.028,-0.641 -0.202,-0.32 -0.361,-0.712 -0.306,-0.285 -0.306,-0.713 -0.333,-0.428 -0.104,-0.321 0.431,-1 -0.208,-0.358 0.375,-0.5 -0.125,-0.931 0.236,-0.574 -0.319,-0.502 -0.028,-0.574 0.208,-0.431 -0.083,-0.504 -0.931,-1.799 -0.063,-0.541 0.473,-0.145 h 0.528 l 0.417,0.577 0.5,0.289 1,-0.289 0.167,0.145 0.611,0.288 0.25,0.576 0.417,0.144 0.222,-0.144 1.112,1.007 0.444,1.15 0.611,0.144 0.09,0.538 0.347,0.358 -0.243,0.395 -0.639,-0.143 0.298,0.608 -0.243,0.537 h -0.25 l -0.028,-0.286 -0.549,0.179 0.348,0.286 -0.236,0.572 0.056,0.501 0.403,0.071 0.194,0.429 -0.153,0.214 0.66,1.177 -0.077,-0.535 0.215,-0.321 0.417,0.143 h 0.278 l 0.861,0.428 0.243,0.321 0.313,0.534 0.188,0.605 -0.348,0.498 0.354,0.463 0.243,0.035 -0.438,0.675 h -0.223 l -0.132,-0.249 0.104,-0.319 -0.528,-0.427 -0.41,0.604 0.236,0.355 -0.347,0.213 -0.202,0.532 -0.076,0.319 0.104,0.391 -0.048,0.744 -0.507,0.248 -0.243,0.035 0.465,0.672 0.389,-0.141 0.111,-0.425 0.243,0.177 0.278,0.779 -0.271,-0.248 h -0.528 l 0.194,0.707 h 0.473 l 0.167,0.283 h 0.389 l 0.083,-0.283 0.167,-0.141 0.215,0.176 -0.104,0.53 -0.41,0.035 -0.174,0.248 -0.41,0.599 0.347,0.283 -0.048,0.528 0.215,0.035 0.028,0.774 -0.299,0.035 -0.049,0.247 0.16,0.175 0.361,-0.141 0.167,0.282 h 0.5 l 0.445,-0.282 0.063,0.669 0.264,0.07 -0.125,0.773 0.243,0.315 0.438,0.315 -0.181,0.352 0.215,0.456 0.243,0.035 0.055,0.491 -0.271,0.595 -0.271,0.035 -0.222,0.42 -0.118,0.804 h 0.222 l 0.389,-0.559 0.111,-0.42 h 0.222 l 0.028,0.28 0.389,0.14 0.445,-0.279 1.167,0.14 -0.063,0.664 -0.181,0.14 0.347,0.349 0.014,0.768 0.458,0.349 -0.098,0.627 0.236,0.07 0.396,1.08 h 0.473 l 0.222,0.695 0.444,0.139 -0.021,0.382 0.319,0.347 0.34,0.243 0.028,0.278 0.063,0.243 0.521,0.312 0.528,0.139 1.195,-0.139 0.382,0.312 -0.264,0.693 0.014,1.314 -0.153,0.069 -0.139,0.76 0.215,0.449 0.577,0.31 -0.125,0.759 0.903,1.446 -0.07,0.481 0.181,0.412 0.223,0.893 0.507,0.652 0.368,1.199 0.403,0.615 0.042,0.411 -0.306,0.888 0.326,0.581 0.007,0.512 0.597,0.886 -0.097,0.613 0.188,0.578 0.215,0.034 -0.132,0.646 h -0.5 l -0.25,-0.136 -0.444,-0.407 -0.556,-0.408 h -0.445 l -0.25,-0.545 -0.243,0.034 0.049,0.374 h -0.361 l -0.25,-0.136 -0.417,-0.545 -0.299,-0.716 -0.035,-0.375 -0.445,-0.956 -0.298,-0.17 0.333,-0.479 0.375,-0.479 -0.139,-1.438 -0.41,-0.72 -0.306,-0.137 -0.583,-0.824 -0.473,-0.138 -0.667,-0.687 z m 131.155,-32.458 0.438,0.179 0.243,0.682 -0.243,0.609 -0.41,0.322 -0.646,1.966 -0.743,-0.464 -0.027,-0.357 0.347,-0.572 -0.319,-0.214 -0.118,-0.394 -0.104,-0.25 0.652,-0.215 0.091,-1.398 h 0.583 z m 72.963,11.995 H 479.6 l -0.473,0.423 h -0.222 l -0.139,-0.141 -0.361,-0.141 -0.361,0.141 -0.528,0.706 -0.188,-0.317 0.042,-0.777 -0.056,-0.777 -0.153,-0.566 -0.034,-0.389 h -0.861 l -0.223,-0.708 -0.611,-0.283 -0.41,-0.461 -0.646,-0.674 -0.445,-0.568 -0.104,-0.178 -0.111,-0.711 0.098,-0.925 -1.098,-2.496 0.027,-0.429 -0.111,-1.074 0.743,-0.322 0.334,-0.43 h 0.417 l 0.194,-0.43 0.139,-0.287 h 1.084 l 0.104,0.251 0.423,0.18 0.14,0.573 0.389,0.43 0.354,0.608 0.063,0.68 0.257,0.25 0.292,0.5 -0.098,0.357 0.14,0.285 0.458,0.499 0.223,0.713 0.146,0.25 0.306,0.285 0.361,0.569 0.188,0.178 0.139,0.356 0.563,0.746 0.701,0.249 0.743,0.177 -0.027,0.709 -0.118,0.249 -0.209,0.07 -0.041,0.708 -0.14,0.354 -0.159,0.46 -0.111,0.425 -0.056,0.424 z m -70.219,27.075 -0.389,-0.272 -0.389,0.272 -0.39,0.683 -1.056,0.272 -0.778,0.272 h -0.361 l -0.889,0.409 -0.584,-0.409 -0.583,0.137 -0.556,0.136 -0.556,0.408 -0.084,0.272 -0.167,0.408 -0.583,0.136 -0.64,0.68 -0.806,-0.271 -0.188,-0.714 -0.118,-0.646 -0.361,-0.136 -1.473,-0.137 h -1 l -0.528,0.272 -0.306,-0.136 -0.027,-0.409 h 0.389 l 0.132,-0.307 -0.347,-1.023 0.632,-0.17 0.299,-0.443 0.111,-0.752 -0.132,-1.266 -0.445,-0.686 -1.444,-0.274 -0.216,-0.308 0.521,-0.104 0.527,-0.137 0.334,0.137 0.215,-0.651 -0.041,-0.55 -0.091,-0.31 h -0.306 l -0.396,-0.584 -0.236,-0.412 0.152,-2.137 -0.354,-0.725 -0.466,-0.726 -0.098,-1.453 -0.771,-1.005 -0.75,-0.277 -0.778,-0.278 -1.278,-0.693 -0.861,-0.278 -0.611,-0.556 -0.632,-0.035 0.416,-1.601 0.223,-0.278 0.243,-0.314 h 0.556 l 0.584,-0.419 0.639,-0.279 0.944,-0.279 0.528,-0.279 0.444,-0.14 0.417,-0.14 0.861,-0.279 0.584,-0.419 0.583,-0.14 0.751,-0.141 0.944,-0.28 0.167,-0.42 h 2.361 l 0.39,-0.14 0.277,-0.14 0.14,-0.42 0.076,-0.175 0.284,-0.386 0.035,-0.526 -0.007,-0.175 -0.361,-0.843 -0.306,0.141 -0.243,-0.105 0.625,-0.492 0.201,-0.95 h 0.417 l 0.39,-0.282 0.389,-0.705 0.5,0.282 h 0.528 l 0.111,-0.282 h 0.222 l 0.223,0.423 0.215,0.035 -0.152,0.422 0.104,0.247 4.362,0.141 v 0.281 l 0.444,0.282 0.223,-0.142 0.473,0.282 0.306,0.562 0.611,-0.281 v -0.704 h 0.36 0.473 l 0.167,-0.281 0.194,-0.141 h 0.306 l 0.389,-0.141 h 0.223 l -0.299,0.668 0.326,0.035 0.14,0.282 0.444,-0.563 0.243,0.035 -0.25,0.704 -0.236,0.352 0.514,0.351 0.14,0.492 0.146,0.175 0.104,0.175 -0.076,0.246 -0.361,-0.141 -0.188,0.526 0.409,0.035 0.111,0.42 -0.528,0.28 -0.076,0.175 0.104,0.245 -0.076,0.455 0.041,1.049 -0.264,0.698 0.326,0.313 h 0.334 l 0.188,0.314 -0.264,0.767 0.521,0.592 0.66,0.592 0.277,1.112 0.056,0.277 -0.319,2.012 0.194,0.554 0.431,0.623 -0.236,0.691 0.056,0.621 0.493,1.001 -0.076,0.724 v 1.17 l 0.056,0.481 -0.139,0.481 0.104,0.171 0.465,0.034 -0.549,0.79 h -0.277 l -0.16,0.72 0.076,0.377 0.41,0.172 0.027,0.343 -0.444,0.821 -0.083,0.547 -0.403,0.341 -0.229,0.239 -0.25,0.273 -0.611,0.546 -0.389,0.137 -0.584,-0.272 -0.556,-0.137 -0.333,0.137 -0.389,0.136 v -0.682 h -0.584 l -0.667,-0.138 -0.361,-0.137 -0.777,0.956 h -0.443 z m 13.728,55.561 -0.556,-0.89 -0.577,-0.286 0.132,-0.351 0.035,-0.413 -0.139,-0.701 0.549,-0.415 h 0.889 l 0.584,-0.511 -0.133,-0.99 0.334,-0.512 0.348,-0.896 -0.348,-0.704 -0.341,-0.354 -0.882,-1.443 -0.25,-0.386 0.056,-0.193 0.438,0.097 0.556,0.386 0.694,0.129 1.057,-0.386 0.806,-0.386 0.861,-0.257 0.076,-0.226 -0.215,-0.547 -0.445,0.129 -0.576,-0.29 0.076,-0.226 0.466,-0.161 -0.216,-0.612 -0.09,-0.29 -0.16,-0.354 -0.306,-0.258 -0.723,-0.13 -0.583,-0.129 -1.028,0.129 -0.466,0.807 0.181,0.58 -0.444,0.451 -0.236,-0.322 0.028,-0.838 0.152,-0.387 -0.111,-1.034 -0.938,-1.066 -0.466,-0.291 -0.646,-0.228 -0.611,-0.388 -0.473,-0.13 -0.132,0.227 0.264,0.648 -0.326,0.808 -0.444,0.518 -1.001,0.258 -0.277,0.388 -0.5,0.259 -0.035,0.483 -0.299,0.419 -0.25,-0.129 -0.639,0.129 -0.25,0.258 -0.556,0.773 h -0.307 l -0.229,0.097 -0.167,0.129 -0.264,0.321 -0.111,0.257 0.152,0.322 -0.326,0.546 -0.278,-0.129 -0.11,-0.385 h -0.194 l -0.188,0.225 -0.09,0.16 -0.223,0.258 -0.139,0.385 -0.5,0.257 -0.723,0.257 -1.695,-0.128 -0.722,-0.386 h -0.334 l -1,0.257 -0.611,0.257 -0.271,0.417 -0.201,0.353 -0.25,0.129 -1.334,0.512 -0.639,0.385 -1.278,1.023 -0.778,0.384 -0.861,0.255 -1.056,-0.383 -0.417,0.255 -0.694,0.128 h -0.334 l -0.299,-0.287 -0.083,-1.344 0.194,-0.896 0.167,-0.77 0.111,-0.385 0.097,-0.577 -0.111,-0.45 -0.632,-0.547 -0.076,-0.289 0.181,-0.579 0.451,-0.161 0.382,-0.29 -0.264,-1.096 0.319,-0.193 0.396,-1.13 0.25,-0.13 0.083,0.259 0.723,-0.129 0.806,-0.13 0.667,-0.388 0.604,-0.938 0.139,-0.454 0.056,-0.453 0.25,-1.882 -0.166,-1.301 0.083,-1.237 0.083,-1.305 0.153,-1.241 0.409,-1.08 0.535,-1.146 0.493,-0.951 0.091,-0.625 0.277,-0.788 0.383,-0.296 0.277,-0.396 0.083,-0.263 0.174,-0.495 0.271,-0.296 0.472,-0.264 0.111,-0.66 0.007,-0.297 0.028,-1.256 0.25,-1.059 0.188,-0.431 0.632,-0.298 -0.181,-0.929 -0.007,-0.232 -0.299,-0.697 -0.257,-0.365 -0.389,-0.665 -0.64,-0.399 -1.278,-0.533 -0.917,-0.133 -0.527,-0.4 -0.438,-0.699 -0.125,-0.868 -0.688,-1.103 -0.777,-0.536 -0.611,-0.535 -0.361,-0.134 -0.306,-0.269 -0.716,-1.106 -0.014,-0.47 -0.271,-0.437 -1.056,-0.537 0.188,-1.447 0.056,-0.472 0.313,-0.506 0.473,-0.54 0.917,-0.675 0.528,-0.405 1.167,-0.946 1.139,-0.542 0.5,0.136 1.084,-0.406 0.716,-0.848 0.063,-0.509 0.139,-0.406 0.723,0.135 0.528,0.136 0.444,-0.407 0.361,-0.271 0.306,0.408 0.527,-0.137 0.271,-0.305 -0.132,-0.782 h 0.5 l 0.75,-0.271 0.611,-0.137 0.64,0.137 0.534,0.169 0.243,0.103 0.834,0.136 0.694,0.136 h 0.528 0.333 l 1.167,-0.136 -0.382,0.441 0.188,0.374 h 0.39 l 0.583,0.136 0.473,-0.136 v -0.407 l 0.194,-0.136 0.473,-0.137 h 0.389 0.694 l 0.39,0.137 0.694,-0.137 0.257,-1.054 0.354,-0.578 1.195,0.136 0.639,-0.272 0.25,-0.272 0.695,-0.409 2.056,-0.546 0.834,0.683 0.993,0.715 0.341,0.783 0.972,0.272 0.633,0.577 -0.014,1.155 0.902,1.694 v 1.15 l -0.5,1.217 -0.792,1.281 0.542,0.674 -0.125,0.74 0.111,0.403 0.458,1.21 0.174,0.436 0.167,0.269 1.021,1.508 0.152,0.737 0.514,1.002 -0.027,0.468 -0.271,0.434 0.472,0.533 0.611,0.134 0.633,-0.101 0.25,0.733 -0.104,0.433 0.146,0.5 0.438,0.033 0.438,0.698 0.284,0.764 0.807,-0.266 0.242,0.166 0.369,0.896 0.556,0.133 -0.111,-0.398 -0.229,-0.764 -0.236,-0.398 0.41,-0.299 h 0.473 l 0.556,0.398 0.104,-0.632 -0.243,-0.565 -0.048,-0.366 0.854,-0.433 0.583,-0.134 0.167,0.4 h 0.333 l 0.306,-0.4 h 0.334 0.806 l 0.027,0.533 h 0.556 l 0.271,0.433 -0.292,0.399 0.243,0.232 h 1.251 v -0.266 h 0.333 l 0.417,0.266 0.306,0.532 0.966,0.1 -0.251,1.526 -0.375,0.928 -0.146,0.365 -0.438,0.694 -0.584,1.454 -0.361,2.109 0.125,1.382 -0.25,0.854 0.674,1.148 0.466,0.557 -0.069,0.852 0.014,0.916 -0.882,2.121 -0.89,0.261 -0.306,0.131 -0.299,0.684 -0.069,1.496 -0.486,0.844 v 0.325 l 0.292,0.194 -0.056,0.843 -0.403,0.323 -0.368,0.097 -0.25,0.13 -0.194,0.776 -0.299,0.421 0.319,0.774 -0.11,0.969 -0.604,0.806 -0.771,0.29 -0.146,1.384 -0.611,-0.129 -0.299,0.418 -0.083,0.322 -0.056,1.026 0.125,0.577 -0.132,0.354 -0.667,0.384 -0.883,0.288 -0.194,0.832 0.542,0.256 -0.132,0.288 -0.278,0.383 -0.417,0.384 -0.667,0.383 -0.368,0.351 -0.319,0.447 0.181,0.191 -0.465,0.541 -0.223,-0.255 h -0.334 l -0.409,0.414 -0.007,0.351 -1.084,0.127 -0.723,1.526 -0.444,-0.127 -0.299,0.476 0.111,0.571 0.132,0.35 -0.91,0.031 0.049,0.349 0.466,0.349 -0.077,0.158 h -0.389 l -0.444,0.507 -0.278,0.38 -0.201,0.222 -0.132,0.411 v 0.505 l -1.084,0.506 -0.778,0.127 -0.444,0.126 -0.528,0.378 -0.799,1.04 0.098,0.442 -0.326,0.534 -0.39,0.629 -0.611,0.126 -0.806,-0.503 -0.368,-0.85 -0.486,-1.387 0.083,-0.505 0.799,-0.79 0.035,-0.663 0.194,-0.57 0.334,-0.887 0.569,-0.443 0.167,-0.761 -0.042,-0.572 z m 37.263,40.132 -0.341,1.056 -0.598,0.784 -0.041,0.421 -0.473,0.843 -0.875,1.142 -0.508,0.93 -0.222,0.24 -0.452,0.809 -0.431,0.419 -0.723,1.913 -0.306,0.717 -0.306,0.716 0.125,0.298 -0.5,1.132 -0.139,0.416 -0.604,1.1 -0.433,0.277 -0.144,0.286 0.375,0.415 -0.084,0.298 -0.242,0.267 -0.584,0.354 -0.215,-0.385 -0.028,-1.127 0.542,-0.415 0.152,-1.249 0.611,-1.667 0.306,-0.477 0.32,-0.418 0.041,-0.418 0.778,-0.717 0.194,-0.479 0.361,-0.838 0.466,-0.748 0.361,-0.6 0.201,-0.21 0.598,-0.78 0.152,-0.66 0.084,-0.241 0.597,-0.781 0.403,-1.265 0.389,-0.604 0.167,-0.361 0.354,-0.513 0.333,-0.242 h 0.556 z m -85.134,117.521 0.883,0.338 0.243,0.338 -0.069,0.571 0.604,0.234 0.445,0.519 0.299,0.493 -0.084,0.569 -0.139,0.777 -0.083,0.311 -0.167,0.517 -0.604,0.853 -0.326,0.388 0.056,0.464 -0.07,0.877 -0.299,0.541 -0.861,-0.412 -0.048,0.489 0.235,0.052 0.028,0.36 -0.493,0.334 -1.174,-1.932 -0.598,-0.36 -0.229,-0.491 -0.472,-0.413 -0.361,-0.517 -0.521,-0.749 -0.167,-0.725 -0.041,-0.674 -0.486,-0.727 0.277,-0.83 0.633,-0.649 0.611,0.312 0.583,-0.207 0.139,-0.416 h 0.417 0.64 l 0.583,-0.104 h 0.167 z"
       style="fill:#000000;fill-opacity:1;stroke:#000000;stroke-opacity:1" />
  </g>
</svg>
