<?xml version="1.0" encoding="UTF-8" standalone="no"?>
<!-- Created with Inkscape (http://www.inkscape.org/) -->

<svg
   width="1024"
   height="1024"
   viewBox="0 0 270.93333 270.93334"
   version="1.1"
   id="svg5"
   inkscape:version="1.1.2 (b8e25be8, 2022-02-05)"
   sodipodi:docname="vector.svg"
   xmlns:inkscape="http://www.inkscape.org/namespaces/inkscape"
   xmlns:sodipodi="http://sodipodi.sourceforge.net/DTD/sodipodi-0.dtd"
   xmlns="http://www.w3.org/2000/svg"
   xmlns:svg="http://www.w3.org/2000/svg">
  <sodipodi:namedview
     id="namedview7"
     pagecolor="#ffffff"
     bordercolor="#666666"
     borderopacity="1.0"
     inkscape:pageshadow="2"
     inkscape:pageopacity="0.0"
     inkscape:pagecheckerboard="0"
     inkscape:document-units="mm"
     showgrid="false"
     width="1024px"
     units="px"
     inkscape:zoom="0.57727273"
     inkscape:cx="397.55906"
     inkscape:cy="561.25984"
     inkscape:window-width="1512"
     inkscape:window-height="870"
     inkscape:window-x="0"
     inkscape:window-y="38"
     inkscape:window-maximized="1"
     inkscape:current-layer="layer1" />
  <defs
     id="defs2" />
  <g
     inkscape:label="Layer 1"
     inkscape:groupmode="layer"
     id="layer1">
    <g
       id="eurasia_x5F_africa_x5F_australia_x5F_rob_x5F_krasts"
       transform="matrix(0.68107414,0,0,0.68107414,-11.6124,27.045009)"
       style="fill:#000000;fill-opacity:1;stroke:#000000;stroke-opacity:1">
      <polyline
         id="polyline12"
         points="226.915,118.833      227.294,117.983 228.237,117.229 228.616,115.812 229.183,115.245 230.882,114.396 231.731,114.206 232.487,114.018      232.677,113.451 232.677,112.885 232.96,112.696 233.715,113.545 234.563,113.64 235.698,112.507 237.681,111.373      240.986,109.958 242.78,108.353 242.97,107.314 242.403,106.085 242.875,105.236 244.007,104.953 244.479,105.425      244.479,106.181 244.479,107.314 244.007,108.258 243.818,109.958 244.386,111.563 245.991,112.317 247.407,111.846      248.823,112.696 249.201,113.262 250.618,113.829 251.656,114.868 251.845,115.717 251.751,117.322 253.829,120.155      256.001,124.782 256.189,125.065 257.322,125.349 258.456,126.765 259.211,127.237 259.589,128.748 260.345,129.22      261.194,131.486 261.761,132.715 261.854,133.847 262.894,134.508 264.026,134.697 265.065,135.548 266.294,136.681      266.199,137.435 266.576,138.097 267.804,137.907 269.599,136.962 269.882,135.83 269.882,134.886 269.22,134.226      268.088,134.319 267.804,133.563 267.899,132.337 268.937,129.881 270.448,126.954 272.337,124.782 273.47,124.688      274.509,124.688 274.319,124.027 274.697,124.027 274.792,123.838 275.358,124.499 275.075,125.632 275.831,126.388      276.774,127.52 276.681,128.653 276.681,130.164 276.774,131.108 277.343,131.581 277.343,131.959 276.586,132.431      275.548,132.809 274.981,133.281 274.792,134.226 274.886,135.548 275.548,136.492 279.797,138.757 283.574,139.136      287.068,138.947 291.034,138.475 292.546,137.624 296.134,136.868 299.061,135.358 300.099,134.132 300.478,133.187      300.194,132.809 299.438,132.619 299.532,131.015 301.327,130.164 302.838,130.353 303.216,130.636 304.161,130.542      304.444,131.015 304.161,132.903 305.293,133.281 308.032,133.187 310.677,132.524 312.565,130.92 313.792,131.015      315.492,132.619 318.798,134.319 319.552,134.132 323.423,133.563 325.218,134.132 329.562,137.907 331.356,139.985      333.435,141.306 334.188,141.968 335.323,142.818 338.345,142.628 339.478,142.628 340.611,143.479 340.233,144.045      339.383,143.667 338.532,143.29 337.21,144.517 336.077,146.689 335.417,149.427 335.323,151.504 335.89,152.544      337.116,153.017 338.626,153.298 338.723,154.055 339.288,154.433 340.421,152.731 342.122,151.6 343.632,150.938      344.482,149.899 346.371,149.239 346.276,147.822 345.899,146.689 345.237,146.122 344.577,146.5 343.632,145.651      342.876,144.707 342.122,144.045 342.403,143.479 343.16,144.139 344.954,144.611 346.938,146.878 347.882,149.333      349.677,153.582 352.509,158.492 353.926,159.814 355.152,161.985 355.719,166.801 356.759,168.029 357.703,168.974      360.44,171.427 363.556,172.843 365.634,174.45 369.317,178.321 375.739,183.231 379.137,184.363 383.104,184.363      388.204,184.081 395.286,183.137 402.651,181.154 405.296,180.304 412.851,177.942 413.038,178.509 412.755,179.171      412.095,180.114 409.073,180.494 406.522,180.682 405.769,181.248 401.046,182.382 395.759,184.175 389.524,184.743      386.976,184.932 384.708,185.78 382.442,186.442 379.044,186.82 375.55,187.952 373.282,188.991 371.866,190.407      369.884,192.578 368.373,193.713 366.388,194.185 363.463,194.751 361.196,196.167 359.308,196.827 357.892,198.433      356.381,200.417 355.624,201.171 354.492,201.171 353.926,201.455 353.735,202.304 353.169,202.776 352.604,202.776      352.604,202.399 353.169,201.737 353.264,201.077 353.83,200.699 355.343,200.227 355.719,199.755 355.343,199.188      353.926,198.528 351.28,197.112 350.431,195.884 349.864,195.411 349.11,195.033 346.843,193.995 346.371,194.278      346.087,194.751 346.371,195.411 345.709,198.244 345.521,198.904 345.709,199.473 346.56,200.511 346.653,202.021      346.653,203.816 346.843,204.761 347.693,205.137 349.204,204.57 350.809,203.438 351.471,203.06 351.847,203.248      351.187,204.192 349.771,205.232 348.069,205.893 345.806,206.271 343.917,207.688 343.538,208.254 341.649,208.726      336.737,214.014 334.095,216.94 332.206,218.167 324.936,220.435 324.18,220.435 320.968,219.584 314.642,217.791      311.053,217.413 308.692,217.507 307.372,218.924 306.237,221.097 305.104,222.04 303.5,221.851 300.194,222.04 298.967,220.056      297.361,218.64 296.606,218.64 295.189,217.979 292.356,216.091 291.601,214.862 288.296,211.653 282.819,207.025      281.024,204.854 279.892,203.06 278.569,200.133 277.53,197.394 276.681,197.018 274.509,194.751 274.226,193.05 272.62,189.369      272.148,183.043 271.677,182.099 271.581,178.793 270.448,173.788 270.165,168.407 269.22,167.179 268.088,164.536      265.821,162.836 262.233,163.496 260.722,162.081 259.966,160.947 262.233,160.759 263.743,160.003 265.255,157.926      266.388,154.905 266.576,151.693 265.915,147.538 264.782,146.122 263.743,145.462 263.46,146.405 262.517,146.782      261.854,146.218 261.382,145.083 261.761,144.139 262.988,143.951 263.177,143.29 263.177,142.347 262.61,141.685      261.95,141.306 261.288,141.59 260.533,141.685 259.966,141.496 259.683,140.646 259.778,139.796 261.854,138.947      262.799,139.323 263.649,138.569 263.556,137.53 262.894,136.396 262.517,135.735 260.722,134.886 259.022,134.979      256.473,134.604 253.733,134.792 251.751,134.604 250.052,133.091 248.163,132.903 246.464,132.337 245.802,132.146      245.424,132.431 243.818,133.563 240.798,134.979 238.247,133.753 236.17,132.243 234.093,132.146 232.298,131.486      230.788,131.298 229.654,129.787 229.371,127.237 229.087,126.388 228.616,126.388 228.237,125.632 227.954,124.876      228.332,123.648 228.237,121.194 227.482,119.684 227.011,119.4 226.915,118.833    "
         style="fill:#000000;fill-opacity:1;stroke:#000000;stroke-width:0.9443;stroke-linejoin:round;stroke-opacity:1" />
      <polyline
         id="polyline14"
         points="32.483,147.254      32.767,149.427 30.878,149.995 28.045,149.051 24.835,146.689 24.646,143.951 25.118,141.778 27.762,141.118 28.517,139.701      30.122,137.341 30.688,137.341 31.728,141.306 32.862,142.534 34.372,143.951 35.223,144.707 33.711,145.838 32.483,147.254         "
         style="fill:#000000;fill-opacity:1;stroke:#000000;stroke-width:0.9443;stroke-linejoin:round;stroke-opacity:1" />
      <polyline
         id="polyline16"
         points="326.54,84.935 327.296,84.84      327.579,84.557 328.146,84.273 328.335,83.802 327.956,83.329 328.051,82.763 327.956,82.102 327.579,81.913 327.296,82.102      327.391,83.046 327.106,83.424 326.634,83.612 326.446,83.991 326.162,84.18 326.067,84.368 326.067,84.84 326.54,84.935    "
         style="fill:#000000;fill-opacity:1;stroke:#000000;stroke-width:0.9443;stroke-linejoin:round;stroke-opacity:1" />
      <polyline
         id="polyline18"
         points="329.279,87.296      328.995,87.484 328.617,87.296 328.522,87.484 328.713,87.768 329.089,87.768 329.373,87.484 329.373,87.39 329.279,87.296         "
         style="fill:#000000;fill-opacity:1;stroke:#000000;stroke-width:0.9443;stroke-linejoin:round;stroke-opacity:1" />
      <polyline
         id="polyline20"
         points="328.335,87.579      328.617,87.673 328.713,87.862 328.808,87.862 328.808,87.956 328.808,88.051 328.713,87.956 328.617,87.862 328.522,87.768      328.335,87.768 328.335,87.673 328.335,87.579    "
         style="fill:#000000;fill-opacity:1;stroke:#000000;stroke-width:0.9443;stroke-linejoin:round;stroke-opacity:1" />
      <polyline
         id="polyline22"
         points="328.901,88.145      328.995,88.145 329.089,88.24 329.089,88.334 329.089,88.428 328.995,88.523 328.901,88.334 328.901,88.24 328.901,88.145      328.901,88.145    "
         style="fill:#000000;fill-opacity:1;stroke:#000000;stroke-width:0.9443;stroke-linejoin:round;stroke-opacity:1" />
      <polyline
         id="polyline24"
         points="327.862,81.44 327.673,81.44      327.673,81.63 327.769,81.819 327.956,81.913 328.051,81.819 328.051,81.725 328.051,81.536 327.956,81.44 327.862,81.44    "
         style="fill:#000000;fill-opacity:1;stroke:#000000;stroke-width:0.9443;stroke-linejoin:round;stroke-opacity:1" />
      <polyline
         id="polyline26"
         points="327.484,81.063      327.579,81.158 327.673,81.347 327.769,81.253 327.769,81.158 327.673,81.063 327.579,81.063 327.484,81.063    "
         style="fill:#000000;fill-opacity:1;stroke:#000000;stroke-width:0.9443;stroke-linejoin:round;stroke-opacity:1" />
      <polyline
         id="polyline28"
         points="322.575,75.397      322.479,75.587 322.575,75.681 322.763,75.493 322.669,75.397 322.575,75.397    "
         style="fill:#000000;fill-opacity:1;stroke:#000000;stroke-width:0.9443;stroke-linejoin:round;stroke-opacity:1" />
      <polyline
         id="polyline30"
         points="20.774,129.22 21.436,129.126      22.002,129.976 21.341,130.353 20.964,129.787 20.774,129.22    "
         style="fill:#000000;fill-opacity:1;stroke:#000000;stroke-width:0.9443;stroke-linejoin:round;stroke-opacity:1" />
    </g>
  </g>
</svg>
