<?xml version="1.0" encoding="UTF-8" standalone="no"?>
<!-- (c) ammap.com | SVG map of Equatorial Guinea - High -->

<svg
   version="1.1"
   id="svg22"
   sodipodi:docname="vector.svg"
   width="1024"
   height="1024"
   inkscape:version="1.1.2 (b8e25be8, 2022-02-05)"
   xmlns:inkscape="http://www.inkscape.org/namespaces/inkscape"
   xmlns:sodipodi="http://sodipodi.sourceforge.net/DTD/sodipodi-0.dtd"
   xmlns="http://www.w3.org/2000/svg"
   xmlns:svg="http://www.w3.org/2000/svg"
   xmlns:amcharts="http://amcharts.com/ammap">
  <sodipodi:namedview
     id="namedview24"
     pagecolor="#ffffff"
     bordercolor="#666666"
     borderopacity="1.0"
     inkscape:pageshadow="2"
     inkscape:pageopacity="0.0"
     inkscape:pagecheckerboard="0"
     showgrid="false"
     inkscape:zoom="0.25229703"
     inkscape:cx="311.1412"
     inkscape:cy="883.87883"
     inkscape:window-width="1512"
     inkscape:window-height="872"
     inkscape:window-x="0"
     inkscape:window-y="38"
     inkscape:window-maximized="0"
     inkscape:current-layer="g20" />
  <defs
     id="defs11">
    <style
       type="text/css"
       id="style9">
			.land
			{
				fill: #CCCCCC;
				fill-opacity: 1;
				stroke:white;
				stroke-opacity: 1;
				stroke-width:0.5;
			}
		</style>
    <amcharts:ammap
       projection="mercator"
       leftLongitude="5.4172940254"
       topLatitude="3.989000082"
       rightLongitude="11.3598632812"
       bottomLatitude="-1.6619999409" />
    <!-- All areas are listed in the line below. You can use this list in your script. -->
    <!--{id:"GQ-BS"},{id:"GQ-BN"},{id:"GQ-WN"},{id:"GQ-LI"},{id:"GQ-KN"},{id:"GQ-CS"},{id:"GQ-AN"}-->
  </defs>
  <g
     id="g20"
     transform="matrix(2.1254304,0,0,2.1254304,-718.46266,82.82711)"
     style="fill:#000000;fill-opacity:1;stroke:#000000;stroke-width:1.82281;stroke-miterlimit:4;stroke-dasharray:none;stroke-dashoffset:0;stroke-opacity:1">
    <path
       id="GQ-BS"
       title="Bioko Sur"
       class="land"
       d="m 424.40712,11.143299 -1.8195,-0.350748 -2.09352,-0.8330254 -6.6971,-4.7241328 -2.00583,-1.1508908 -4.14322,-1.3591474 -2.23601,0.1205696 h -0.0219 l -0.86591,11.8377338 -0.89879,1.961995 -2.11545,2.049682 -2.40042,1.720856 -1.90719,1.030321 1.38106,2.148329 0.43844,2.827904 -0.85495,2.444273 -2.5758,1.041282 -5.44755,-0.997439 -2.5758,-0.120569 -1.94008,1.118008 -3.62804,-0.997439 -2.84983,2.53196 -2.00584,3.858225 -1.03032,2.981355 -0.94263,6.477871 -0.60285,1.413952 -0.49324,1.698934 0.98648,2.005838 1.40299,2.005839 0.69053,1.65509 1.22762,4.504916 2.93751,2.290821 3.62804,0.854947 3.28827,0.109609 1.99488,0.438434 3.23345,2.071604 1.64413,0.723417 1.54548,0.02192 3.50748,-0.778221 1.10705,-0.383631 4.25281,2.367547 2.2141,0.800143 0.96455,-0.416512 0.80015,0.997438 3.50747,1.490678 1.46876,0.997438 1.42491,-1.720855 5.2393,-8.61524 6.87245,-7.935666 0.9536,-2.499078 0.0767,-7.058797 0.53709,-2.477155 4.3953,-2.619647 0.35075,-0.5042 0.41652,-0.822065 0.72341,-3.606125 2.64157,-2.093525 3.05808,-8.23161 0.43844,-0.51516 v 0 l -2.42235,-5.984632 -0.40556,-0.668614 -0.44939,-0.580925 -1.42491,-0.953596 -2.00585,-0.745339 -4.1432,-0.833025 -3.88015,-0.197296 -1.16184,0.142492 z"
       style="fill:#000000;fill-opacity:1;stroke:#000000;stroke-width:1.99796;stroke-miterlimit:4;stroke-dasharray:none;stroke-dashoffset:0;stroke-opacity:1" />
    <path
       id="GQ-BN"
       title="Bioko Norte"
       class="land"
       d="m 423.23431,-18.505841 -6.28058,1.753738 -5.38178,5.31602 -4.01168,6.5545973 -1.99488,5.39274561 -0.17537,2.33466429 h 0.0219 l 2.23601,-0.1205696 4.14322,1.3591474 2.00583,1.1508908 6.69709,4.7241328 2.09353,0.8330254 1.8195,0.350748 1.30435,-0.03288 1.16184,-0.142491 3.88015,0.197295 4.1432,0.833026 2.00584,0.745339 1.42492,0.953596 0.44939,0.580925 0.40555,0.668614 2.42236,5.984632 5.08584,-6.028476 1.5674,-4.241855 5.52428,-4.9104681 1.22762,-2.02776 0.97552,-2.3894686 0.62476,-2.6744511 0.23017,-2.9484726 -0.60284,-3.2444162 -1.52356,-2.6196464 -4.05552,-5.031037 -1.24954,-0.219217 -0.47131,-0.252101 -0.46036,-0.668612 -4.25281,1.666052 -5.19545,0.142491 -4.95432,-0.7563 -3.45267,-1.052243 -1.50164,1.107047 -2.09352,-0.109608 -4.75702,-0.997439 0.62477,-1.600286 z"
       style="fill:#000000;fill-opacity:1;stroke:#000000;stroke-width:1.99796;stroke-miterlimit:4;stroke-dasharray:none;stroke-dashoffset:0;stroke-opacity:1" />
    <path
       id="GQ-WN"
       title="Wele-Nzás"
       class="land"
       d="m 747.02922,263.67067 -3.90207,-0.72341 -2.67445,-0.84399 -17.54834,-7.47531 -4.19801,-0.86591 -1.50164,-0.0986 -5.52427,2.15929 -17.07703,10.17168 3.9459,4.76798 10.2813,8.19872 0.82206,2.52101 -0.25209,3.55132 -0.85495,3.64997 -1.00841,2.79502 -3.92398,5.86406 -0.63573,2.20313 0.3069,2.01681 1.89623,2.9375 0.59189,1.68798 -0.82206,4.30762 -1.75375,3.14577 0.1973,2.51003 5.05296,2.44427 4.7351,1.23858 4.198,0.47132 4.05553,-0.38363 4.38434,-1.39203 5.05296,-2.521 1.78662,-0.39459 1.44684,0.13154 2.65253,0.85494 1.5126,0.21921 1.49067,-0.67957 1.22762,-1.15088 1.04128,-0.30691 2.02776,3.66093 1.19474,-0.47132 1.86334,-2.1264 1.13993,-0.48228 1.10705,-0.72343 1.07416,-0.39458 1.01936,0.50419 0.31787,0.7015 0.2521,1.62221 0.49324,0.49323 2.43331,0.72343 7.76029,1.29338 0.76726,-0.0986 0.59189,-0.36171 1.44684,-0.69054 v 0.8988 l -0.9536,1.65509 -1.5126,0.78918 -5.43659,2.09353 -1.73182,1.23858 -6.91631,7.48627 -1.18377,1.80853 -2.25793,4.29667 -6.31346,8.50563 -2.89367,4.78989 -1.97296,4.81183 -0.26306,1.67701 0.32883,2.09353 1.16185,2.41138 9.93054,11.01568 1.87431,1.30434 6.3573,2.89366 1.7647,2.13738 1.54548,3.11288 2.51005,10.01823 1.3701,2.64157 1.21666,0.84398 1.2605,0.63573 1.07417,0.844 0.87686,1.08512 0.10961,1.64413 -0.14249,1.35914 -2.12641,3.09097 -0.28498,0.39458 -0.011,0.0329 11.15816,0.0329 45.81642,0.16441 -0.23018,-40.09484 -0.24113,-40.08388 -0.18634,-32.06053 h -0.0548 l -15.90421,-2.12642 -6.64228,0.99744 -1.74278,0.82207 -1.84142,0.28498 -9.75517,-1.04128 -3.37596,0.16441 -3.06903,0.64669 -3.00328,0.35074 -2.54292,-0.14248 -2.56484,-1.30434 -1.28243,-1.34819 -0.77822,-1.86335 -4.49395,-28.62978 -0.66862,-2.06064 -1.04128,-1.22762 -1.32626,-0.53708 -2.08257,0.82206 -1.52356,1.17282 -2.42235,2.58676 -1.50163,1.2057 -2.08257,0.7563 z"
       style="fill:#000000;fill-opacity:1;stroke:#000000;stroke-width:1.99796;stroke-miterlimit:4;stroke-dasharray:none;stroke-dashoffset:0;stroke-opacity:1" />
    <path
       id="GQ-LI"
       title="Litoral"
       class="land"
       d="m 513.62856,423.51296 0.37267,-1.49067 0.86591,-0.62477 -2.10449,-1.80854 0.49324,-1.66605 -0.6138,-1.31531 -1.23858,-0.8659 h -1.99488 l -0.78918,5.10776 1.90719,1.17281 1.24954,2.11545 z m 97.35441,-196.38582 -9.67845,-4.83374 -2.65253,-0.62477 -2.75117,-1.01935 -3.88014,-2.65253 -3.54037,-3.13481 -1.96199,-2.43331 -0.32883,-3.15673 0.49324,-3.15674 -0.13154,-2.87174 -1.75373,-2.5758 -3.0252,2.12641 -1.97295,2.65253 1.22762,3.43074 1.30434,2.67446 0.44939,3.45266 -1.27146,18.99519 -0.33979,0.82206 -0.70149,0.76726 -0.71246,1.03032 -0.33978,1.61125 0.16441,1.67701 0.47132,1.30434 1.45779,2.87175 4.24186,12.50635 0.60284,6.34634 -1.63316,5.18449 -5.41467,5.3489 -0.84399,1.44684 -0.32883,0.80014 -0.72341,0.74534 -0.69054,1.01936 -0.58093,3.70477 -0.49323,1.01936 -0.7015,0.64669 -0.64669,0.93167 -1.30434,3.03616 -0.65765,1.08513 -1.19474,1.21666 -3.13481,2.08256 -0.76726,0.86591 -0.88782,1.7099 -0.41652,0.56996 -8.98791,8.91119 -1.5674,4.1432 2.30178,4.2309 6.63132,6.30249 2.7183,0.6467 6.24769,-4.2309 3.09097,-0.16441 -3.40883,1.68797 -2.6635,1.73182 -2.89366,1.35915 -4.07744,0.53708 -2.89368,-1.01936 -1.91814,-1.79758 -1.99488,-0.65765 -3.13481,2.43331 -2.46619,4.50491 -1.78662,4.38435 -0.3398,1.63317 -0.71245,1.01936 -0.7015,0.74533 -0.33978,0.82207 -0.48228,0.2521 -2.65253,3.44171 -6.02847,5.46947 -4.20898,1.84143 -0.59188,2.51003 0.39458,5.86406 -0.76725,2.77311 -1.64413,3.46364 -2.14833,2.95942 -2.33467,1.24954 -1.74277,1.18378 -1.34819,2.77309 -2.48812,7.83702 -1.29338,2.23602 -1.79758,1.79759 -2.38947,0.98647 1.98392,2.5758 0.38363,1.2057 -0.29595,1.53452 1.962,1.41395 3.58421,4.01168 1.34817,0.84399 2.31275,-0.49324 4.52684,-2.15929 4.86663,-0.92071 1.78662,-0.81111 1.99487,-0.46036 2.78406,0.65765 2.45523,1.26051 1.6551,1.47971 1.24954,1.92912 2.38946,7.35473 1.37011,1.79759 3.79246,-1.60029 5.042,-1.24954 1.05224,-1.09608 1.23858,-2.20314 2.95943,-3.39787 3.48556,-3.06904 2.83886,-1.2057 -0.94263,0.61382 -1.19473,1.33721 -0.66862,1.64414 0.61381,1.53452 1.63317,0.40556 6.28058,-1.34819 1.85238,0.47131 3.82535,2.17025 1.56739,0.48228 1.87431,0.15345 2.2141,0.40556 1.87431,0.63572 0.92071,0.81111 -1.962,0.13153 -2.2689,0.40555 -1.99487,0.69054 -1.18377,0.9536 -0.3398,1.81949 1.17282,3.91304 0.20826,2.61964 -0.23018,0.80015 v 0 l 4.54876,0.52611 2.36754,0.86591 2.53196,1.78662 3.96783,4.5378 2.53197,1.96199 2.69637,1.1509 2.72925,0.41651 2.43331,-0.53708 1.79758,-1.75374 0.55902,-2.00584 0.011,-4.5378 0.81111,-2.23601 2.99231,-0.38363 v -0.0438 l -0.0438,-0.29593 1.00839,-3.1677 1.44684,-3.00327 0.85495,-1.22762 0.85495,-0.94263 0.80013,-0.66862 3.56229,-1.95104 3.70477,-1.43586 0.71246,-0.39459 1.85238,-0.71247 1.42491,-0.19729 1.39203,0.14249 3.14577,0.88784 1.86335,0.3617 2.35659,0.10962 2.92655,-0.24115 5.7106,-1.16185 2.40044,-0.83303 2.34562,-1.18377 2.0168,-1.56741 1.35914,-1.96199 0.51517,-1.91815 -0.14249,-1.96199 -0.59189,-1.79759 -0.83302,-1.41395 -1.32626,-0.76726 -0.92073,0.1425 -0.95359,0.83302 -1.0632,1.15089 -1.30435,0.56997 -1.60028,-0.17538 -1.65509,-0.89879 -0.81111,-1.13993 -0.77821,-3.85822 -0.52613,-1.22762 -0.85495,-1.03032 -0.47131,-1.27146 -0.12057,-2.09353 0.0548,-1.7647 -0.28498,-1.44683 -0.85495,-0.92071 -1.72085,-0.0438 -1.39203,-0.46035 -1.2605,-1.11801 -0.87688,-3.00328 -0.42747,-2.38947 -0.42746,-10.01823 -0.59189,-1.67701 -3.04713,-1.63317 -1.34819,-1.24954 -1.118,-2.41138 -0.26306,-2.06065 0.26306,-1.8195 1.58932,-3.46364 1.09609,-1.92911 -0.14249,-0.71246 -0.52612,-0.78917 -2.70734,-2.29083 -4.52683,-2.10448 -9.78805,-2.86079 -10.74166,-2.90463 -1.09608,-0.65765 -0.59189,-0.94263 -0.14248,-1.32627 0.83302,-1.69893 1.3701,-1.19474 2.57581,-0.88783 2.95944,-0.63572 2.01679,-1.32627 2.81695,-4.01168 9.4373,-16.6934 5.48043,-7.27802 1.30434,-3.04711 0.82208,-16.52899 0.56995,-2.76214 0.90976,-2.41139 1.77566,-2.94847 1.40298,-1.61125 5.84215,-5.14064 1.11801,-1.5126 0.77821,-1.92911 0.61382,-2.67446 0.17537,-7.32185 -1.17281,-8.46179 h -9.86478 -20.58451 z"
       style="fill:#000000;fill-opacity:1;stroke:#000000;stroke-width:1.99796;stroke-miterlimit:4;stroke-dasharray:none;stroke-dashoffset:0;stroke-opacity:1" />
    <path
       id="GQ-KN"
       title="Kié-Ntem"
       class="land"
       d="m 819.21748,293.90074 -0.0438,-8.02336 -0.24114,-40.11677 -0.0657,-12.28713 -1.17281,-5.86406 h -45.75065 l -45.77258,0.011 h -45.75065 -2.29082 l 0.23018,7.6178 1.30434,4.95431 2.34562,6.53267 0.32884,2.19218 -0.24115,1.8743 -1.24953,3.04713 -0.59189,2.27986 -0.38363,3.56227 0.28498,1.95105 0.69054,1.35914 0.28498,0.15345 1.70989,1.53452 1.66606,0.21922 6.49979,-0.54804 2.76214,0.64669 0.83302,0.99743 17.07703,-10.17168 5.52427,-2.15929 1.50164,0.0986 4.19801,0.86591 17.54834,7.47531 2.67446,0.84399 3.90207,0.72341 2.48812,-0.24113 2.08256,-0.7563 1.50164,-1.20571 2.42235,-2.58675 1.52356,-1.17282 2.08256,-0.82206 1.32627,0.53708 1.04128,1.22761 0.66861,2.06064 4.49395,28.62979 0.77823,1.86334 1.28242,1.34819 2.56485,1.30434 2.54292,0.14249 3.00327,-0.35075 3.06904,-0.64668 3.37595,-0.16441 9.75517,1.04128 1.84142,-0.28498 1.74278,-0.82208 6.64229,-0.99743 15.90421,2.12641 z"
       style="fill:#000000;fill-opacity:1;stroke:#000000;stroke-width:1.99796;stroke-miterlimit:4;stroke-dasharray:none;stroke-dashoffset:0;stroke-opacity:1" />
    <path
       id="GQ-CS"
       title="Centro Sur"
       class="land"
       d="m 684.50845,264.89829 -1.66606,-0.21922 -1.70988,-1.53452 -0.28498,-0.15346 -0.69054,-1.35914 -0.28498,-1.95104 0.38363,-3.56227 0.59189,-2.27987 1.24953,-3.04712 0.24114,-1.8743 -0.32883,-2.19218 -2.34562,-6.53268 -1.30434,-4.9543 -0.23019,-7.61781 -33.606,0.011 1.17281,8.46179 -0.17538,7.32185 -0.61381,2.67446 -0.77821,1.92911 -1.11801,1.5126 -5.84215,5.14064 -1.40299,1.61125 -1.77566,2.94847 -0.90975,2.41139 -0.56996,2.76214 -0.82207,16.52899 -1.30434,3.04711 -5.48043,7.27802 -9.43731,16.6934 -2.81695,4.01168 -2.01679,1.32626 -2.95944,0.63573 -2.5758,0.88782 -1.3701,1.19474 -0.83303,1.69894 0.14249,1.32626 0.59189,0.94264 1.09608,0.65765 10.74165,2.90463 9.78805,2.86078 4.52684,2.10449 2.70734,2.29083 0.52611,0.78917 0.1425,0.71246 -1.09609,1.92911 -1.58933,3.46364 -0.26305,1.81949 0.26305,2.06065 1.11801,2.41139 1.34819,1.24954 3.04712,1.63317 0.59189,1.67701 0.42747,10.01823 0.42747,2.38947 0.87687,3.00328 1.2605,1.118 1.39203,0.46036 1.72086,0.0438 0.85495,0.92071 0.28498,1.44684 -0.0548,1.7647 0.12056,2.09352 0.47132,1.27147 0.85495,1.03032 0.52612,1.22762 0.77822,3.85822 0.81111,1.13993 1.65508,0.89878 1.60029,0.17539 1.30435,-0.56997 1.06319,-1.15089 0.9536,-0.83302 0.92072,-0.1425 1.32627,0.76726 0.83302,1.41395 0.59189,1.79758 0.14248,1.962 -0.51516,1.91815 -1.35914,1.96199 -2.0168,1.56741 -2.34563,1.18377 -2.40043,0.83302 -5.7106,1.16186 -2.92655,0.24114 -2.35659,-0.10961 -1.86335,-0.3617 -3.14577,-0.88784 -1.39203,-0.14249 -1.42491,0.19729 -1.85239,0.71246 -0.71246,0.3946 -3.70476,1.43586 -3.56229,1.95104 -0.80014,0.66862 -0.85495,0.94263 -0.85494,1.22762 -1.44684,3.00327 -1.0084,3.1677 0.0438,0.29593 v 0.0438 l 4.45011,-0.58093 16.6934,0.0657 42.29798,0.13153 3.51843,0.011 45.7945,0.15345 34.63633,0.10961 0.011,-0.0329 0.28498,-0.39458 2.12641,-3.09098 0.14249,-1.35914 -0.10961,-1.64413 -0.87686,-1.08512 -1.07417,-0.844 -1.2605,-0.63572 -1.21666,-0.84399 -1.3701,-2.64157 -2.51005,-10.01823 -1.54548,-3.11288 -1.7647,-2.13738 -6.3573,-2.89366 -1.87431,-1.30434 -9.93054,-11.01567 -1.16185,-2.41139 -0.32883,-2.09353 0.26306,-1.67701 1.97296,-4.81182 2.89367,-4.7899 6.31346,-8.50563 2.25793,-4.29666 1.18377,-1.80854 6.91631,-7.48627 1.73182,-1.23858 5.43659,-2.09352 1.5126,-0.78919 0.9536,-1.65509 v -0.89879 l -1.44684,0.69054 -0.59189,0.3617 -0.76726,0.0986 -7.76029,-1.29338 -2.43331,-0.72342 -0.49324,-0.49323 -0.2521,-1.62221 -0.31787,-0.7015 -1.01936,-0.5042 -1.07416,0.39459 -1.10705,0.72342 -1.13993,0.48228 -1.86334,2.1264 -1.19474,0.47132 -2.02776,-3.66093 -1.04128,0.30691 -1.22762,1.15088 -1.49067,0.67958 -1.5126,-0.21921 -2.65253,-0.85495 -1.44684,-0.13153 -1.78662,0.39459 -5.05296,2.52099 -4.38434,1.39203 -4.05553,0.38363 -4.198,-0.47132 -4.7351,-1.23857 -5.05296,-2.44428 -0.1973,-2.51003 1.75375,-3.14577 0.82206,-4.30761 -0.59189,-1.68799 -1.89623,-2.9375 -0.3069,-2.0168 0.63573,-2.20314 3.92398,-5.86406 1.00841,-2.79502 0.85495,-3.64997 0.25209,-3.55132 -0.82206,-2.521 -10.2813,-8.19873 -3.9459,-4.76798 -0.83303,-0.99743 -2.76214,-0.64669 z"
       style="fill:#000000;fill-opacity:1;stroke:#000000;stroke-width:1.99796;stroke-miterlimit:4;stroke-dasharray:none;stroke-dashoffset:0;stroke-opacity:1" />
  </g>
</svg>
