<?xml version="1.0" encoding="UTF-8" standalone="no"?>
<svg
   version="1.0"
   width="1024"
   height="1024"
   viewBox="0 0 1024 1024"
   id="svg2"
   xml:space="preserve"
   sodipodi:docname="Palau_location_map.svg"
   inkscape:version="1.1.2 (b8e25be8, 2022-02-05)"
   xmlns:inkscape="http://www.inkscape.org/namespaces/inkscape"
   xmlns:sodipodi="http://sodipodi.sourceforge.net/DTD/sodipodi-0.dtd"
   xmlns="http://www.w3.org/2000/svg"
   xmlns:svg="http://www.w3.org/2000/svg"><sodipodi:namedview
   id="namedview66"
   pagecolor="#ffffff"
   bordercolor="#666666"
   borderopacity="1.0"
   inkscape:pageshadow="2"
   inkscape:pageopacity="0.0"
   inkscape:pagecheckerboard="0"
   showgrid="false"
   inkscape:zoom="0.57197153"
   inkscape:cx="382.01202"
   inkscape:cy="550.72671"
   inkscape:window-width="1512"
   inkscape:window-height="872"
   inkscape:window-x="0"
   inkscape:window-y="38"
   inkscape:window-maximized="1"
   inkscape:current-layer="Palau" /><defs
   id="defs116" />
	
		<g
   id="Palau">
			 
			
			
			
			
			
			
			
			
			
			
			
			
			
			
			
			
			
			
			
			
			
			
			
			
			
			
			
			
			
			
			
			<path
   d="m 830.62608,169.12714 0.003,0.66114 -0.48334,0.26666 -0.44207,-0.17063 c -0.26034,-0.34128 -0.52938,-0.68336 -0.85003,-0.97067 0.2754,-0.59606 0.065,-1.35402 0.0817,-1.98896 l 0.21747,-0.35239 0.26668,0.30477 0.14043,0.88494 0.26588,0.0429 c 0.33414,-0.21668 0.81908,-1.38973 0.95798,-1.81355 l -0.1754,-0.40001 c -2.14452,0.27303 -3.2144,-1.12146 -5.1732,0.54923 l -0.21667,0.44286 c -1.16116,-1.14607 -2.90723,-2.6715 -3.73503,-4.09537 l -0.79448,0.97544 -0.26033,0.0429 c -0.75717,-0.41272 -3.23581,-2.27546 -3.28424,-3.21599 1.67069,0.18493 4.1303,0.8794 5.66843,1.57386 0.15231,0.46033 0.66431,1.23178 1.15163,1.40719 0.2762,0.0452 4.66603,-1.25083 4.81603,-1.42862 0.0851,-0.227 0.11184,-0.50716 0.0851,-0.74686 l 0.39524,-0.4 c 0.5397,0.33652 1.03336,0.87542 1.37385,1.40799 0.13182,0.7516 0.0771,1.59767 0.41033,2.29847 2.3628,0.76987 0.63417,3.72315 -0.41904,4.72476 z"
   style="fill:#000000;fill-opacity:1;fill-rule:evenodd;stroke:#000000;stroke-width:2.30375;stroke-linejoin:round;stroke-miterlimit:3.86369;stroke-opacity:1"
   id="path71" />
			<path
   d="m 869.79561,19.604811 0.45716,0.560342 c 0.22064,0.807962 0.24445,4.014812 -0.77382,4.389039 l -0.26668,-0.08017 -0.0644,-0.703998 0.55637,-0.986534 -0.64129,-2.319923 0.29287,-0.671847 z"
   style="fill:#000000;fill-opacity:1;fill-rule:evenodd;stroke:#000000;stroke-width:2.30375;stroke-linejoin:round;stroke-miterlimit:3.86369;stroke-opacity:1"
   id="path73" />
			<path
   d="m 868.22809,25.689926 0.43098,-0.405566 0.44207,0.03215 0.28731,0.874638 -0.79447,1.786174 -0.57939,-0.159521 c -0.10403,-0.720286 0.0302,-1.43459 0.2135,-2.127877 z"
   style="fill:#000000;fill-opacity:1;fill-rule:evenodd;stroke:#000000;stroke-width:2.30375;stroke-linejoin:round;stroke-miterlimit:3.86369;stroke-opacity:1"
   id="path75" />
			<path
   d="m 832.32534,122.39546 c 0.82145,-0.0595 1.65959,-0.0644 2.48104,-0.009 l 0.88494,-0.66193 c 1.25957,-3.81521 -0.92305,-4.22077 -0.42224,-7.01768 l 0.44287,-0.4905 c 0.55161,-0.17224 1.97466,-0.37462 2.30483,-0.88574 l 0.39288,-0.0477 0.27223,0.48573 c 1.07066,-0.81589 3.89695,-2.77232 4.50809,-3.7652 1.08336,-0.6778 3.31598,0.90638 4.47395,0.99685 1.7199,0.13491 3.05804,-1.77784 4.15332,-2.87945 1.33416,-1.34132 2.41278,-3.09216 3.13185,-4.9065 -0.10074,-0.58336 -0.64605,-1.32148 -0.49207,-1.85562 l -0.48335,-0.30953 c -0.19286,-0.90796 0.29604,-1.65005 0.16985,-2.55961 -0.43495,-0.24525 -3.04137,-4.751739 -3.02868,-5.285088 -0.56747,-0.528593 -1.07622,-1.007172 -1.60005,-1.58338 0.15555,-1.410368 0.85479,-2.073882 2.03022,-2.746909 0.59445,-0.03656 1.25479,0.156366 1.80721,0.346836 0.24604,0.255563 2.21673,3.452482 2.23578,3.749325 0.34525,0.17779 0.67462,0.411129 0.97543,0.65558 l 0.0906,0.9278 c -1.88259,4.054106 -0.29208,3.149316 -0.11752,6.399416 0.0294,0.54366 -0.3524,1.23973 -0.30397,1.90403 0.21031,2.91756 1.06907,5.46764 0.55637,8.42567 -0.23333,1.34529 -0.36033,2.89533 -0.70002,4.19696 -0.2008,0.76829 -0.95002,1.38259 -1.1913,2.34531 -0.0771,0.30557 -0.18652,0.69209 -0.17381,1.01432 0.0682,1.73736 0.76352,3.44694 0.90241,5.16286 l -0.21984,0.53335 -0.57463,0.13247 -0.71112,0.97067 c -0.54368,-0.065 -1.0802,0.11898 -1.67863,0.005 l -0.44287,0.26667 -0.7524,1.41354 c 0.51668,3.06676 4.57078,4.74461 3.74377,8.06852 -1.47624,1.44132 -4.41126,2.29056 -5.43987,3.68504 0.49367,5.78353 0.60082,3.74933 -3.07629,7.42325 -0.25238,1.84927 0.97781,5.2081 -0.96034,6.31926 l -0.0857,1.10401 c 1.80641,2.80883 1.55323,2.94136 1.56752,5.9994 l -0.61827,0.4905 -0.30715,0.83734 c -0.3627,0.3016 -1.53734,0.88177 -1.98894,0.49049 0.21746,-1.0302 -0.91988,-2.00007 -0.3635,-3.04534 l -0.49207,-0.56987 c -0.37939,-0.14125 -0.94766,-0.18573 -1.32148,0.005 -0.84923,1.08019 -1.14528,2.00483 -1.80721,3.09295 l -1.154,0.44842 c -1.00083,0.25161 -1.154,0.43971 -1.90165,0.44764 l -0.49208,-0.48494 -0.75239,-0.17619 -0.21668,0.35716 c 0.33572,0.58652 0.67146,1.00955 1.15718,1.45084 0.10874,0.30317 0.1746,0.64764 0.18095,0.97067 l 0.48335,0.5278 0.44287,0.13329 0.26906,0.52779 -0.0881,0.48494 -0.6643,-0.30397 c -0.5778,0.0366 -1.09211,0.33016 -1.54688,0.66669 0.1024,-0.51032 -0.0366,-1.39132 -0.3635,-1.81275 l -0.39524,-0.26111 0.1754,-0.3524 c -1.34132,-0.91511 -4.26284,-3.88902 -4.1803,-5.64225 0.0357,-0.74843 0.26747,-1.5929 0.16985,-2.34134 -0.22064,-1.69212 -0.9667,-3.97155 -1.47624,-5.64701 -0.20318,-0.35636 -3.49058,-2.23102 -4.47316,-3.25327 -0.0961,-0.39922 -0.17223,-0.81987 -0.1873,-1.23178 l -1.15162,-1.36512 -0.93417,-0.0429 -0.48335,-0.44207 0.12549,-0.57065 c 1.23417,-0.60241 0.90242,-2.32469 1.09925,-3.36042 l 0.62382,0.0429 0.79685,-0.40001 0.12613,-1.85561 0.35081,-0.35717 c 0.1619,-0.66669 -0.17937,-1.34925 -0.13735,-2.02624 l 0.48653,-0.57621 c 0.67146,0.0174 1.55957,-0.26271 2.12071,-0.62383 0.0826,-0.28414 0.1762,-0.5778 0.31033,-0.84288 l 1.63734,0.0857 0.006,2.15959 0.4889,0.61827 1.15163,0.17064 c 0.67066,-0.76828 1.00003,-1.60956 1.85721,-2.25563 l 0.0851,-0.40001 -0.53335,-0.65558 c -1.04764,-0.21747 -4.2668,-0.35793 -4.69854,-1.40242 -0.29765,-1.25877 0.73652,-2.44055 0.52382,-3.70646 l 0.26112,-0.30954 c 0.90876,-0.16588 1.86672,-0.40398 2.79453,-0.31985 l 0.56828,-0.57621 c -0.40081,-0.34525 -0.65955,-1.13814 -0.75558,-1.63181 0.42131,-0.7358 0.26972,-1.83901 0.5213,-2.69301 z"
   style="fill:#000000;fill-opacity:1;fill-rule:evenodd;stroke:#000000;stroke-width:2.30375;stroke-linejoin:round;stroke-miterlimit:3.86369;stroke-opacity:1"
   id="path77" />
			<path
   d="m 812.2469,172.02327 c 0.53098,0.34128 0.91988,0.99526 1.05798,1.60481 l -0.40161,0.22382 -0.39842,-0.12776 c -0.22223,-0.56271 -0.82702,-0.7032 -0.97543,-1.23735 l -0.35716,-0.0429 0.30715,-0.26666 c 0.204,0.0114 0.61511,0.0245 0.76749,-0.15394 z"
   style="fill:#000000;fill-opacity:1;fill-rule:evenodd;stroke:#000000;stroke-width:2.30375;stroke-linejoin:round;stroke-miterlimit:3.86369;stroke-opacity:1"
   id="path79" />
			<path
   d="m 786.6437,173.29792 0.98177,0.42064 c 0.32858,0.35398 0.52304,1.08892 0.18176,1.49847 l -0.35795,0.22461 -0.39207,-0.22461 c -0.19921,-0.50954 -0.59684,-1.02543 -0.62462,-1.58338 z"
   style="fill:#000000;fill-opacity:1;fill-rule:evenodd;stroke:#000000;stroke-width:2.30375;stroke-linejoin:round;stroke-miterlimit:3.86369;stroke-opacity:1"
   id="path81" />
			<path
   d="m 792.85738,176.56627 -0.88494,0.22382 c -0.59049,-0.2135 -1.42147,-0.50875 -2.03578,-0.2127 l -0.21984,0.35715 c -0.38255,-0.0372 -0.82066,-0.14759 -1.15083,-0.35239 -0.17619,-0.25954 -0.27462,-0.41113 -0.35794,-0.7032 1.0421,-0.52781 4.25093,-0.71907 4.64933,0.68732 z"
   style="fill:#000000;fill-opacity:1;fill-rule:evenodd;stroke:#000000;stroke-width:2.30375;stroke-linejoin:round;stroke-miterlimit:3.86369;stroke-opacity:1"
   id="path83" />
			<path
   d="m 796.85276,176.07577 c 0.76749,0.73336 1.26195,1.79292 1.2802,2.85883 l -0.26666,0.0477 c -0.4048,-0.41192 -1.608,-2.52867 -1.01354,-2.90646 z"
   style="fill:#000000;fill-opacity:1;fill-rule:evenodd;stroke:#000000;stroke-width:2.30375;stroke-linejoin:round;stroke-miterlimit:3.86369;stroke-opacity:1"
   id="path85" />
			<path
   d="m 807.78883,175.87339 c 0.42542,0.77701 0.32779,1.57069 0.25715,2.4104 -0.34843,-0.0507 -0.80003,0.002 -1.10957,0.18095 0.33653,1.21196 0.8294,1.69054 -0.12386,2.82629 l -0.83494,0.0914 0.0357,-1.06114 c -0.31112,-0.4405 -0.57383,-1.00718 -0.6651,-1.54132 l 0.13182,-0.26667 c -0.0977,-0.47224 -0.19445,-0.95798 -0.35716,-1.41354 1.03337,-0.11898 1.56434,-0.43414 2.24929,-1.15163 z"
   style="fill:#000000;fill-opacity:1;fill-rule:evenodd;stroke:#000000;stroke-width:2.30375;stroke-linejoin:round;stroke-miterlimit:3.86369;stroke-opacity:1"
   id="path87" />
			<path
   d="m 815.47479,165.09526 c -2.04848,4.14379 4.94937,3.08978 4.1049,7.14626 -0.44367,0.0627 -1.45322,0.13247 -1.86038,-0.12777 l -0.52781,0.1333 c 0.0754,3.36677 -0.4873,2.89612 1.12544,5.73827 l 0.61827,0.21826 0.48573,-0.57541 0.4897,0.44208 c 0.0849,0.77621 -0.4778,1.52782 -0.43652,2.38421 l -0.61826,0.4905 -0.22541,-0.48574 c -1.38972,-0.4881 -2.1326,-1.16749 -2.3088,-2.73025 l -1.06035,-0.74684 -0.84367,0.0914 -0.13182,0.39446 0.4889,0.44287 -0.0906,0.26667 c -3.11836,1.71275 -1.34132,1.99054 -2.82072,4.15886 l -1.05481,0.57621 c -0.10322,0.28175 -0.26429,0.71113 -0.53334,0.88574 l -0.88495,-0.30478 -0.71113,0.35241 c -0.0793,1.48735 -2.19928,1.68814 -2.24451,3.49851 l -0.35716,0.26668 c -0.13183,-0.37699 -0.19049,-0.79845 -0.21985,-1.19449 -0.38652,0.006 -0.9405,0.006 -1.28257,0.22938 -0.53414,-1.0802 -1.67229,-3.139 -2.53977,-4.01046 -1.48655,0.23652 -2.17071,-1.48496 -3.06201,-2.33579 1.80324,0.2254 3.24377,1.608 4.66128,2.7247 0.131,0.43651 0.32858,0.92463 0.62382,1.2802 0.38335,0.18412 0.85479,0.29365 1.28021,0.30398 l 0.61827,-0.30955 c 0.63494,-2.28498 3.53106,-2.29214 4.59856,-4.16997 -0.013,-1.04209 0.19286,-2.38897 0.83257,-3.22629 0.71431,-0.14044 1.76752,-1.18098 1.7572,-1.94688 l 0.53334,-0.13328 c 0.24605,0.27461 0.42224,0.73414 0.4016,1.104 l 0.26588,0.12775 0.52779,-0.1754 0.22541,-0.35794 -0.18176,-0.79446 0.35716,-0.44288 c 0.26906,0.11037 0.5889,0.177 0.87939,0.1762 l 0.1754,-0.26667 c -0.11182,-0.8405 0.054,-1.57862 -0.22222,-2.42628 l 0.39287,-0.30953 0.44763,0.1762 0.57144,-0.22383 c -0.28175,-2.09054 -1.82307,-2.82231 -3.33344,-4.01045 -0.28255,-0.62303 -0.46827,-1.52226 -0.39842,-2.20801 l 0.74923,-0.61827 z"
   style="fill:#000000;fill-opacity:1;fill-rule:evenodd;stroke:#000000;stroke-width:2.30375;stroke-linejoin:round;stroke-miterlimit:3.86369;stroke-opacity:1"
   id="path89" />
			<path
   d="m 803.90696,201.35358 c -1.21352,0.52065 -3.0112,1.17862 -4.33584,0.71987 -0.9302,-1.52227 -1.26276,-2.13817 -0.8048,-3.9303 -0.0294,-0.27382 -0.23255,-0.58335 -0.44842,-0.74684 l 0.1754,-0.84209 0.88733,-0.30954 1.19289,0.34684 c -0.0658,0.67463 -0.12223,1.27701 -0.0851,1.94611 l 0.53335,0.0857 c 0.21826,0.21032 0.38097,0.54446 0.44763,0.83734 2.87629,-0.46828 1.76991,-1.39212 2.51675,-2.17071 0.19128,0.25001 0.51827,0.4397 0.79607,0.57065 0.16588,-0.91194 0.0388,-3.55408 0.29921,-4.10649 l 0.35716,-0.0477 c 0.0785,1.33337 0.83653,2.31753 0.89367,3.57313 0.0564,1.23497 -1.0794,2.03737 -1.13338,3.34296 l -0.005,0.10713 c 0.34605,0.69763 0.9429,1.57147 1.02226,2.33577 -0.013,0.11428 -0.16508,0.33017 -0.30793,0.26668 -0.32937,-0.7881 -1.30956,-1.49049 -2.00086,-1.97861 z"
   style="fill:#000000;fill-opacity:1;fill-rule:evenodd;stroke:#000000;stroke-width:2.30375;stroke-linejoin:round;stroke-miterlimit:3.86369;stroke-opacity:1"
   id="path91" />
			<path
   d="m 783.04676,224.74324 c -1.14448,0.5389 -2.15007,0.65636 -3.18422,1.47226 l -0.0443,0.92781 c 0.66827,0.0635 1.84212,-0.74288 2.3469,-1.2056 l 0.3516,-0.0421 c 0.0817,0.24605 0.31986,0.48257 0.53334,0.61828 l 0.44446,-0.13898 0.26668,0.0914 0.30793,0.61827 0.53335,0.3516 0.0492,0.39526 -0.35716,0.5754 c -0.57621,0.008 -1.29211,-0.52065 -1.72228,-0.3889 -1.13495,1.74609 -1.93735,2.04133 -3.31359,3.36438 l -0.66193,-0.0848 c -0.35637,0.10955 -0.71669,0.36033 -0.97544,0.62382 l -0.0851,0.44288 0.26668,0.48493 0.35159,0.0429 0.18176,0.39446 -0.26667,0.40001 -0.39525,-0.35159 h -0.39843 l -0.0851,0.7516 -0.49207,0.30954 -0.26111,-0.1762 c 0.12614,-1.54371 -0.65954,-3.76918 -0.45716,-5.3859 0.36906,-2.94056 2.85089,-2.78581 4.27713,-4.69856 0.72542,-0.97224 0.96431,-2.26436 1.66671,-3.18343 0.42066,-0.20556 2.00564,-0.95956 2.43182,-0.93894 0.38255,0.50167 -0.97383,4.05496 -1.30956,4.73037 z"
   style="fill:#000000;fill-opacity:1;fill-rule:evenodd;stroke:#000000;stroke-width:2.30375;stroke-linejoin:round;stroke-miterlimit:3.86369;stroke-opacity:1"
   id="path93" />
			<path
   d="m 755.46887,249.93533 0.44208,-0.13328 c 0.22936,-0.1873 0.42541,-0.51033 0.48653,-0.79924 l 0.57144,-0.0484 c 0.0977,-0.40477 0.22936,-0.81114 0.39288,-1.19449 -0.3143,-1.02542 -1.10877,-2.68738 -0.49527,-3.66361 1.10241,0 2.52231,-0.0817 3.58822,0.28811 0.4016,0.55161 0.83177,1.0802 1.2802,1.5945 0.57939,1.64371 -2.29928,3.82711 -3.2517,4.95969 -0.83733,0.1873 -2.3977,0.47304 -3.18422,0.23413 l -0.14044,-0.61827 z"
   style="fill:#000000;fill-opacity:1;fill-rule:evenodd;stroke:#000000;stroke-width:2.30375;stroke-linejoin:round;stroke-miterlimit:3.86369;stroke-opacity:1"
   id="path95" />
			<path
   d="m 341.07681,677.44845 0.6651,0.45795 0.0785,0.79527 c -0.17779,0.34128 -0.70796,0.65478 -1.08099,0.704 -0.32143,0.0245 -0.79685,-0.37066 -0.99526,-0.58177 -0.0253,-0.34287 0.009,-0.71113 0.0872,-1.04527 0.34842,-0.19684 0.83653,-0.37224 1.24528,-0.33018 z"
   style="fill:#000000;fill-opacity:1;fill-rule:evenodd;stroke:#000000;stroke-width:2.30375;stroke-linejoin:round;stroke-miterlimit:3.86369;stroke-opacity:1"
   id="path97" />
			<path
   d="m 407.81469,745.33559 -0.48334,0.0477 c -0.51431,-0.86352 -0.71986,-1.52226 -0.55955,-2.50642 0.54129,-3.32631 2.93184,1.00399 1.04289,2.4588 z"
   style="fill:#000000;fill-opacity:1;fill-rule:evenodd;stroke:#000000;stroke-width:2.30375;stroke-linejoin:round;stroke-miterlimit:3.86369;stroke-opacity:1"
   id="path99" />
			<path
   d="m 188.81154,995.71196 0.24009,0.19763 0.13493,0.53901 c -0.0679,0.2689 -0.65954,0.5785 -0.88177,0.6872 l -0.22857,-0.1332 -0.0322,-0.8001 z"
   style="fill:#000000;fill-opacity:1;fill-rule:evenodd;stroke:#000000;stroke-width:2.30375;stroke-linejoin:round;stroke-miterlimit:3.86369;stroke-opacity:1"
   id="path101" />
			<path
   d="m 780.70382,195.41926 c 0,0 1.42227,3.04772 2.64136,1.42227 1.21909,-1.62545 -2.64136,-1.42227 -2.64136,-1.42227 z"
   style="fill:#000000;fill-opacity:1;fill-rule:evenodd;stroke:#000000;stroke-width:2.30375;stroke-linejoin:round;stroke-miterlimit:3.86369;stroke-opacity:1"
   id="path103" />
			<path
   d="m 789.6438,205.17196 c -1.62545,0.20318 -1.42227,3.86044 0.20318,3.65726 1.62545,-0.20318 1.42227,-3.86044 -0.20318,-3.65726 z"
   style="fill:#000000;fill-opacity:1;fill-rule:evenodd;stroke:#000000;stroke-width:2.30375;stroke-linejoin:round;stroke-miterlimit:3.86369;stroke-opacity:1"
   id="path105" />
			<path
   d="m 798.78695,207.00059 c -0.40636,0.81272 2.23499,3.04772 3.2509,1.62545 1.01591,-1.42227 -2.84454,-2.43818 -3.2509,-1.62545 z"
   style="fill:#000000;fill-opacity:1;fill-rule:evenodd;stroke:#000000;stroke-width:2.30375;stroke-linejoin:round;stroke-miterlimit:3.86369;stroke-opacity:1"
   id="path107" />
			<path
   d="m 389.34504,552.86028 0.56272,0.78891 c 0.59922,0.0366 1.39925,0.34048 1.85879,0.73177 0.19921,0.61511 0.19921,1.52546 0,2.14055 l -0.73257,0.67542 c -0.65637,0.13247 -1.42782,0.15637 -2.0834,0 -1.03972,-0.79923 -1.58258,-2.25721 -1.40878,-3.54774 0.56194,-0.0146 1.4191,-0.37145 1.80324,-0.78891 z"
   style="fill:#000000;fill-opacity:1;fill-rule:evenodd;stroke:#000000;stroke-width:2.30375;stroke-linejoin:round;stroke-miterlimit:3.86369;stroke-opacity:1"
   id="path109" />
			<path
   d="m 392.22132,546.5164 c -1.21908,0 -2.03181,2.43818 -0.20318,2.43818 1.82863,0 1.42227,-2.43818 0.20318,-2.43818 z"
   style="fill:#000000;fill-opacity:1;fill-rule:evenodd;stroke:#000000;stroke-width:2.30375;stroke-linejoin:round;stroke-miterlimit:3.86369;stroke-opacity:1"
   id="path111" />
			<path
   d="m 309.93293,1007.7378 c 2.03181,0.8127 3.65726,-3.6572 1.62545,-4.47 -2.03181,-0.8127 -3.65726,3.6573 -1.62545,4.47 z"
   style="display:inline;fill:#000000;fill-opacity:1;fill-rule:evenodd;stroke:#000000;stroke-width:2.30375;stroke-linejoin:round;stroke-miterlimit:3.86369;stroke-opacity:1"
   id="path113" />
		</g>
	</svg>
