<?xml version="1.0" encoding="UTF-8" standalone="no"?>
<!-- Created with Inkscape (http://www.inkscape.org/) -->
<!-- original file: https://commons.wikimedia.org/wiki/File:Belize_location_map.svg -->

<svg
   version="1.0"
   width="1024"
   height="1024"
   viewBox="0 0 1024 1024"
   id="svg2"
   xml:space="preserve"
   sodipodi:docname="vector.svg"
   inkscape:version="1.1.2 (b8e25be8, 2022-02-05)"
   xmlns:inkscape="http://www.inkscape.org/namespaces/inkscape"
   xmlns:sodipodi="http://sodipodi.sourceforge.net/DTD/sodipodi-0.dtd"
   xmlns="http://www.w3.org/2000/svg"
   xmlns:svg="http://www.w3.org/2000/svg"><sodipodi:namedview
   id="namedview1097"
   pagecolor="#ffffff"
   bordercolor="#666666"
   borderopacity="1.0"
   inkscape:pageshadow="2"
   inkscape:pageopacity="0.0"
   inkscape:pagecheckerboard="0"
   showgrid="false"
   height="1024px"
   inkscape:zoom="0.44109288"
   inkscape:cx="291.32186"
   inkscape:cy="621.18436"
   inkscape:window-width="1512"
   inkscape:window-height="872"
   inkscape:window-x="0"
   inkscape:window-y="38"
   inkscape:window-maximized="0"
   inkscape:current-layer="svg2" /><defs
   id="defs182" />
	
		<g
   style="display:none"
   id="Hilfslinien_anzeigen">
		</g>
		<g
   id="Land"
   style="fill:#000000;fill-opacity:1;stroke:#000000;stroke-opacity:1"
   transform="matrix(1.0284412,0,0,1.0284412,45.634326,-12.04157)">
			 
			<path
   d="m 439.20972,137.30981 1.30664,2.45337 3.35254,3.70337 0.57178,2.2124 -0.33887,2.27417 -4.98389,3.48828 -2.41943,4.36694 -2.53516,2.08545 -10.71484,6.58594 -2.17236,1.06982 -4.54883,2.24023 -2.9126,2.08057 -1.01855,2.11035 -0.27393,3.03467 0.34814,2.1333 1.45166,4.05029 1.71533,1.7749 0.29834,0.46143 1.66748,-0.20142 4.89258,-2.7312 10.60156,-4.30884 2.0498,-0.27002 0.74756,0.61987 0.13672,0.91406 -7.76611,7.24219 -3.84961,6.83301 -3.31836,5.88965 -0.64648,2.57275 1.2207,-0.43628 3.23438,-3.44214 5.33203,-6.82642 8.32373,-4.04077 5.71436,-1.95654 11.4502,-2.45874 6.26709,-1.34399 1.58838,0.17896 0.51416,0.99585 -1.39404,1.72388 0.21191,1.06763 0.74707,0.62061 1.36475,-0.12891 3.6792,-2.52002 2.27539,-0.11279 1.25439,1.99707 0.20654,1.21924 -1.15332,1.11987 -3.13086,1.54175 -0.70654,1.43164 0.83154,0.16577 3.74365,-1.98706 4.6377,-1.24219 3.8877,-1.04102 7.8916,-5.25635 2.13867,-0.95068 5.33447,-1.729 6.46387,-1.40454 1.62451,-1.94653 0.98975,-0.28638 0.43262,1.37524 -0.36035,3.26074 1.61475,3.14404 0.19727,1.75098 -1.00928,1.42529 -0.85059,1.04907 0.19678,1.75122 0.0552,0.39038 1.49951,10.50269 -0.4707,0.97876 -0.91553,0.4397 -0.56738,2.19336 0.35352,1.44922 2.12891,-0.49316 0.67285,0.46802 -0.80029,2.5686 0.53613,4.03638 -0.77881,10.16699 1.49463,5.11108 1.00928,3.4436 0.11279,2.12915 -1.84033,5.89282 -0.36328,3.4126 0.27197,6.31079 -0.93506,5.98486 -0.34131,6.67944 -1.83789,5.74121 -0.85107,1.04858 -2.47217,3.07056 -1.2666,3.32031 -0.73535,7.58398 -0.98291,4.4646 -1.89062,4.52441 -3.11914,5.64258 -2.92676,3.13843 -1.49268,3.31665 -0.60059,2.70483 -0.0527,0.24634 0.74707,5.02686 -1.1001,2.56348 -0.93018,1.2749 -2.45361,1.93359 -1.22266,0.96484 -3.40527,4.87842 -0.59619,-0.54224 0.0508,-3.11353 -0.44482,-0.46387 -1.84766,1.94287 -0.27393,2.88208 -1.58838,0.0486 -3.16943,4.42676 0.35303,1.44946 0.98535,-0.13477 0.74512,-1.53979 0.34814,-0.72021 0.76172,-0.29028 0.28369,1.06787 -3.89502,11.70728 -0.58643,3.63574 -0.0962,5.77148 -0.48535,1.96704 -0.98291,4.69214 -2.23486,19.96729 -1.74463,15.58838 -0.7373,3.63379 -5.42627,8.79395 -2.1167,5.05273 -1.68945,1.79395 -1.93457,3.56348 -1.25391,2.30713 -2.15088,2.46924 -1.59326,0.58105 -0.5166,-0.76807 0.625,-1.28076 -0.20703,-1.29492 -1.21582,0.58691 -0.86279,2.03662 -1.18213,12.66406 0.3584,5.93018 0.53076,4.48975 1.00439,3.28271 0.24512,0.146 7.22363,4.30957 4.43311,0.91113 2.91992,1.34082 0.67041,0.54297 3.06348,6.35645 2.53516,1.63818 1.88184,0.26025 3.18115,-1.00781 2.93652,0.20312 2.96289,3.16553 0.42041,1.90576 0.27637,1.52344 -1.0166,2.26074 -1.92188,2.3208 -1.90332,1.10596 -1.9707,0.64941 -2.85205,-0.65674 -3.89062,-1.73828 -2.18652,0.0386 -2.67676,2.45996 -2.54248,3.37402 -1.79492,3.84229 -1.58838,8.67676 -0.39404,2.14941 -1.07422,5.98145 -8.09082,30.23828 -0.86523,4.26904 -2.89062,14.271 -0.0815,27.18604 -0.007,2.34961 0.86279,12.01074 1.2207,3.58936 0.11328,0.25977 2.48193,6.92041 3.7749,8.41553 1.46826,2.15039 1.33838,0.93457 3.69824,-0.84863 1.57373,0.17871 1.26416,0.93262 0.93945,2.37012 1.65088,9.44238 1.46826,11.4126 3.45801,4.61475 1.08838,3.67969 0.33398,1.12842 -0.93506,6.66406 -1.24707,2.7876 -1.29492,1.19189 -4.01807,0.69336 -2.38379,0.41113 -3.70264,1.37891 -4.18115,3.19287 -1.07422,1.42432 -0.40137,1.5874 0.55518,2.89404 -0.42529,1.33252 -1.23486,3.87695 0.13428,2.47314 0.041,0.71875 1.63379,5.72021 2.25195,4.74463 2.27051,3.53076 0.3916,3.65039 3.21289,5.5957 0.21143,0.91406 -7.05518,0.10742 -1.28809,0.7373 -1.69629,2.78027 -3.17432,1.46387 -0.46143,0.75098 -0.30273,2.22803 -0.37695,2.77051 -0.82666,0.13721 -1.34131,-0.70508 -0.084,0.60547 -1.62207,3.00928 0.27148,1.82568 -0.4873,2.26904 3.31836,8.40527 0.6416,2.21143 -3.61914,5.93506 -0.49512,2.7998 0.53613,8.88916 -1.57373,4.67871 -5.92334,4.91016 -3.69824,1.60791 -1.21582,1.04248 -1.0166,2.08008 -0.4541,0.93115 -0.16797,6.06836 -2.86914,6.17627 -0.57227,3.10156 1.91797,5.73291 0.6582,2.05029 -0.49756,3.17871 -2.92188,4.88428 0.64893,1.60449 -1,1.729 -1.57129,-0.10205 -1.71338,-0.63525 -0.12744,-0.28809 -0.95898,-2.1582 -2.53516,-0.87598 -0.771,1.58154 -2.70117,0.25928 -2.57568,1.85498 2.90967,0.73047 1.78076,1.16699 -0.23779,0.83105 -2.40088,0.26416 -2.47705,5.34814 -1.98486,2.39551 -0.26904,7.96289 -0.47363,1.58594 -0.83154,0.59424 -3.21973,0.0239 -1.44434,1.34229 -0.40381,2.04248 -0.98047,0.36328 -1.99902,-1.54932 -0.23291,0.67871 0.76904,3.65479 -0.91846,1.35107 -1.43213,0.58447 -2.52051,-1.70947 -0.25,1.66504 0.65869,0.99609 2.46045,0.875 0.0986,3.41553 3.62598,-2.14209 0.89404,0.2417 -0.16113,0.68066 -2.82129,3.52051 -2.63574,1.02051 -0.59131,-0.46436 -0.26172,-2.58447 -0.51416,-0.61475 -1.20166,0.13232 -1.96826,1.5625 -0.99707,1.65283 -3.46973,12.00928 -1.25195,3.69824 -1.99707,3.4585 -5.74072,3.70361 -1.74902,1.94531 -1.09814,3.47266 -5.75537,4.91797 -0.56689,2.9502 0.24756,3.64502 -0.84814,1.73242 -2.0332,0.95508 -2.07373,0.25928 -3.3208,0.4165 -1.43213,0.73633 -3.68848,6.99902 -1.28076,0.73926 -0.51221,-0.8418 1.69434,-3.54004 -0.13721,-0.9126 -0.81689,-0.31543 -1.35498,0.58594 -1.65576,0.65771 -1.72998,0.73242 -1.85547,-0.93799 -4.51758,-3.32959 -2.5083,-2.46484 -6.75488,-3.74219 -0.3916,1.20801 -0.70166,4.26953 -0.0312,0.1958 0.92725,3.27588 -1.08594,2.71533 -0.9082,0.82031 -1.34326,-0.0952 -2.81152,-2.39307 -3.61914,2.29834 -6.08398,1.88428 -3.32568,2.68311 -4.85645,-0.29736 -1.72998,0.73438 -4.92383,4.78516 -0.84814,1.88379 -0.0288,2.35156 1.6626,9.88525 1.38916,2.52295 -0.85791,2.71777 -1.82617,2.32568 -1.2666,5.44385 -1.21582,1.65137 -0.91309,0.51904 -0.51904,0.29541 -3.51807,0.55713 -5.19043,2.58203 -3.70508,3.3623 -1.90088,2.7041 -1.93701,5.28271 -1.66748,1.87354 -5.57471,3.86719 -3.15771,1.47412 -2.18896,1.86621 -0.47119,1.73779 -0.33154,2.72656 0.25,3.87109 -0.46387,1.35938 -2.71533,2.08643 -12.22852,7.28662 -8.72266,2.55273 -2.16016,1.67578 -1.18506,2.88477 -1.11719,-0.31592 -1.79736,-0.50879 0.0772,0.90967 0.74951,0.83203 1.34814,1.28516 0.39648,6.29346 6.09863,14.99854 0.38184,2.19922 -0.29785,0.91113 -1.91992,1.05762 -4.979,1.59082 c -2.91406,0.84424 -6.22461,-0.66846 -9.05176,-1.16016 -1.60596,-0.2793 -3.68213,-0.0894 -5.21436,-0.53613 -0.11816,-0.0347 -3.61768,-1.95361 -3.95801,-2.1377 -1.00879,-0.27197 -3.896,1.55908 -4.66895,2.11133 l -1.35059,-0.0884 -0.72217,-2.00684 c -0.81738,-2.27002 -2.67822,-2.51855 -4.78027,-3.35889 -0.0352,-0.0142 -2.56982,0.31641 -2.71289,0.33398 l -1.51611,3.4458 -0.74756,-0.52832 -1.59619,-3.45605 -0.82227,-0.52832 -0.82178,0.23047 -0.51904,0.98828 0.37988,1.51562 c -0.45459,0.67285 0.0644,2.09082 -0.83545,2.83057 l -0.9707,-0.2998 -2.4751,-2.87305 -0.74756,-0.14941 -0.59326,0.76074 -0.21143,3.49023 -0.89404,0.0791 -3.12988,-4.01318 c -1.625,-1.74609 -4.91455,-0.70166 -6.48438,0.78125 l -0.17041,2.20654 -0.22119,0.60791 c -0.65918,0.003 -4.40723,-0.6665 -4.40723,-0.6665 l -2.32324,-2.11475 c -0.93066,1.00879 -3.54834,3.20996 -5.06299,3.20605 l -1.09668,-0.42578 -2.19336,-0.85107 c -1.90381,-1.26514 -3.70654,-4.60107 -6.4375,-3.84229 -1.12695,0.85596 -1.2832,2.6084 -1.5332,3.90381 -2.3623,-0.53906 -7.25244,1.84863 -9.61401,2.74512 l -1.60522,-0.80957 -0.54297,-2.57812 -0.42554,-8.55322 1.56226,-14.26123 0.94434,-10.36475 0.36987,-5.67285 8.38159,-129.76855 13.65576,-211.4624 -0.15137,-96.44922 -0.24023,-155.06592 0.0288,-2.61279 0.47119,-42.14111 5.75732,-6.93774 6.99268,-1.22314 3.55664,-5.21289 c 2.59082,-0.71265 5.35449,-1.3064 7.89111,-2.17041 3.1084,-1.05884 9.52832,-4.50659 12.72607,-3.90698 0.20264,0.11279 1.87305,1.01367 1.95361,1.0874 1.57373,1.44385 6.41553,5.5332 7.55469,6.93115 l 3.01172,5.25342 1.50586,2.62671 0.98047,0.31616 1.75439,-1.34521 c 0.78711,-0.0796 1.97852,0.90527 2.40039,1.47363 l 1.5835,0.32422 c 1.80762,-0.60938 4.66406,-2.03125 6.51465,-1.28418 l 7.86719,11.95166 c 2.03027,1.00293 4.0835,2.14648 6.15869,3.04272 1.93506,0.83569 5.64453,1.44727 6.98779,3.2063 0.55859,0.73145 0.75098,1.96899 1.32666,2.67627 0.40723,0.50049 1.70801,1.11304 2.17188,1.62427 0.44629,0.49121 0.71631,1.427 1.10791,1.9895 1.43164,2.0564 3.23877,4.13135 5.37793,5.47998 -0.12109,-2.52856 -0.32178,-5.08643 -0.36523,-7.61597 -0.007,-0.37891 0.22314,-2.55298 0.1875,-2.73169 -0.29297,-1.47778 -1.29395,-2.94946 -1.60791,-4.42749 -0.23486,-1.10815 -0.19189,-4.30127 0.44482,-5.38672 3.29248,-3.08081 7.19189,-5.88062 11.65186,-6.90723 2.03271,-1.90356 3.22998,-5.75464 4.08984,-6.62891 l 3.76123,-2.4292 1.88086,-1.2146 0.14111,-3.03711 c 0.0273,-0.59229 -0.0679,-0.94189 0.0703,-1.51855 0.0967,-0.40332 0.31445,-0.56689 0.51611,-0.92944 1.71973,-3.09912 2.05078,-2.38257 3.94141,-4.62964 1.02637,-1.21997 2.43799,-6.30811 2.82129,-7.8291 1.25049,-1.15527 3.33789,-3.43213 4.67383,-4.31689 1.11963,-0.74219 3.12354,-1.10742 4.3877,-1.68555 1.34912,-0.6167 2.60205,-1.54199 3.95996,-2.13086 1.52051,-0.65918 3.25391,-1.13135 4.8252,-1.67798 l 0.74756,-1.30322 1.49463,-2.60669 c 0.93652,-3.06299 1.04492,-6.5127 1.89307,-9.61377 0.75049,-2.74365 3.56299,-6.55054 5.08496,-8.8335 0.63916,-0.9585 1.16699,-1.40674 1.63867,-2.45825 1.60352,-3.57349 2.03418,-8.24097 3.67676,-11.7771 0.83008,-1.78711 1.59082,-2.63965 2.60791,-4.32715 l 5.21582,-8.6543 2.40283,-1.28809 c 3.59424,-1.92651 4.63672,-4.44287 5.78418,-8.04346 l 0.86035,-2.69995 c 0.14551,-0.94312 -0.26367,-2.14917 -0.18262,-3.11792 l 0.66797,-4.44678 c 0.13037,-0.86719 0.16455,-1.36328 0.33398,-2.22363 0.3999,-2.03052 1.61133,-4.24854 0.92285,-6.36841 0.30518,-2.27759 4.77197,-5.03809 6.30518,-6.66724 1.65137,-1.75488 2.97266,-3.9502 4.55371,-5.78174 1.08936,-1.2627 2.44873,-2.33032 3.53711,-3.59375 0.47607,-0.55225 1.4541,-2.97412 1.41553,-3.625 -0.0781,-1.31396 -0.8252,-2.72314 -0.92529,-4.04102 -0.20068,-2.6377 1.82568,-4.62695 2.75146,-6.87207 0.47803,-1.16016 0.52441,-2.59961 0.96338,-3.78418 0.28125,-0.7583 1.06104,-1.42871 1.396,-2.18164 1.8374,-4.12817 3.54248,-8.51318 3.7417,-13.06006 0.003,-0.0644 -0.002,-0.36255 0.0166,-0.40723 1.24658,-2.99609 1.58008,-4.60156 4.26758,-6.69629 0.92236,-0.71851 2.2627,-1.12939 3.14111,-1.88281 2.10986,-1.81104 4.09521,-4.0625 6.07715,-6.02832 0.0195,-0.0198 0.89355,-0.24146 1.06641,-0.2876 l 0.52393,0.46411 5.59424,1.07544 1.70361,2.83838 c 1.72656,1.39697 5.84766,-0.20239 7.67529,-1.01855 l 8.70312,-3.88745 c 0.11914,-0.0532 1.28711,-0.0735 1.46582,-0.0693 0.92969,1.0542 1.77441,2.20532 2.62451,3.323 1.84277,0.93066 6.76318,0.51611 8.73193,0.2605 2.73193,-0.35474 5.48828,-1.29761 8.25684,-1.41235 2.32218,-0.0961 5.16838,0.63825 7.24748,1.62848 z"
   style="fill:#000000;fill-opacity:1;fill-rule:evenodd;stroke:#000000;stroke-opacity:1"
   id="path10" />
		</g>
		<g
   id="Meer"
   style="fill:#000000;fill-opacity:1;stroke:#000000;stroke-opacity:1"
   transform="matrix(1.0284412,0,0,1.0284412,45.634326,-12.04157)">
			
		</g>
		<g
   id="Seen"
   style="fill:#000000;fill-opacity:1;stroke:#000000;stroke-opacity:1"
   transform="matrix(1.0284412,0,0,1.0284412,45.634326,-12.04157)">
			
			
			
			
			
		</g>
		<g
   id="Linien"
   style="fill:#000000;fill-opacity:1;stroke:#000000;stroke-opacity:1"
   transform="matrix(1.0284412,0,0,1.0284412,45.634326,-12.04157)">
			
			
			
			
			
			
			
			
			
			
			
			
			
			
			
			
			<polygon
   points="550.75464,259.55688 547.89526,262.84644 546.3645,263.88159 545.53784,263.48584 545.25415,262.49316 545.52563,259.91528 548.96704,258.00366 550.93481,257.8894 551.30005,258.65552 "
   style="fill:#000000;fill-opacity:1;fill-rule:evenodd;stroke:#000000;stroke-width:1.4174;stroke-linejoin:round;stroke-miterlimit:3.86369;stroke-opacity:1"
   id="polygon59" />
			<polygon
   points="557.52124,266.06665 555.64233,269.60132 554.78198,275.43457 553.87378,275.41772 553.20825,274.57007 552.10767,268.39526 552.36206,266.88086 554.81079,265.33081 557.08179,265.2981 "
   style="fill:#000000;fill-opacity:1;fill-rule:evenodd;stroke:#000000;stroke-width:1.4174;stroke-linejoin:round;stroke-miterlimit:3.86369;stroke-opacity:1"
   id="polygon61" />
			<polygon
   points="547.55396,328.55322 544.63452,331.30981 543.30542,331.79858 542.2771,332.177 531.98511,333.05029 531.39185,332.4314 531.85571,331.75635 534.28979,330.81348 537.52173,327.53076 539.4895,327.3396 542.87524,328.16235 542.79126,324.43823 545.06226,324.25244 547.1311,322.6958 550.75464,316.42285 555.94507,307.44043 555.06567,305.90454 554.00366,306.03638 549.69263,310.43726 548.02759,310.55835 547.45532,308.72412 546.41528,307.64111 546.66724,306.20239 548.20288,304.86401 548.68335,303.42944 547.60669,300.21851 547.00854,295.64917 547.97925,292.09692 548.19556,291.58521 552.79468,280.71558 557.98755,273.74829 558.80005,270.72485 561.073,266.2854 560.64282,264.98535 559.30444,263.74463 559.4729,262.7605 560.32104,261.94067 562.06274,261.74536 562.76001,260.9231 562.77417,260.08813 560.96509,259.82544 560.52271,259.13354 560.76538,258.22656 561.14282,257.93677 563.37524,256.22437 564.11255,253.12329 563.50464,249.08521 564.0647,247.42456 568.35376,244.69507 569.94458,244.57397 573.76782,246.54639 575.97876,245.75342 579.29468,242.39844 580.05396,242.26099 580.79663,243.03491 582.56519,249.75513 582.67554,251.88477 582.34155,252.71558 581.40698,255.05127 576.18774,258.97656 575.10132,260.47534 572.90991,272.66504 569.55298,278.37476 566.20337,287.88306 564.46362,287.92603 563.65356,290.87329 564.30737,292.32959 563.34399,295.50171 563.14185,295.9314 560.51099,301.52563 558.49683,308.47632 "
   style="fill:#000000;fill-opacity:1;fill-rule:evenodd;stroke:#000000;stroke-width:1.4174;stroke-linejoin:round;stroke-miterlimit:3.86369;stroke-opacity:1"
   id="polygon63" />
			<polygon
   points="529.56323,341.89307 528.35181,342.02271 523.51733,341.93457 522.54419,341.46094 522.63306,340.70264 524.38208,340.05127 529.82739,339.69556 530.49048,340.6189 "
   style="fill:#000000;fill-opacity:1;fill-rule:evenodd;stroke:#000000;stroke-width:1.4174;stroke-linejoin:round;stroke-miterlimit:3.86369;stroke-opacity:1"
   id="polygon65" />
			<polygon
   points="533.83569,365.21655 535.37817,363.4978 535.97632,363.81274 536.47144,365.72119 535.08032,371.8479 535.84448,375.50854 535.61597,379.9856 534.51294,382.5481 533.13159,383.96509 531.47095,383.85864 530.66138,382.62866 530.67798,381.73999 530.69019,381.03394 532.93921,377.65747 532.15601,370.65454 "
   style="fill:#000000;fill-opacity:1;fill-rule:evenodd;stroke:#000000;stroke-width:1.4174;stroke-linejoin:round;stroke-miterlimit:3.86369;stroke-opacity:1"
   id="polygon67" />
			<polygon
   points="530.98071,394.55981 529.13989,404.93188 528.0564,406.50659 527.53735,406.04175 526.91235,402.91675 526.88647,400.02954 529.20044,392.8562 530.04858,391.88403 530.56763,392.42505 "
   style="fill:#000000;fill-opacity:1;fill-rule:evenodd;stroke:#000000;stroke-width:1.4174;stroke-linejoin:round;stroke-miterlimit:3.86369;stroke-opacity:1"
   id="polygon69" />
			<polygon
   points="493.51831,400.71899 496.25317,399.70386 499.32886,396.26489 502.89282,395.41675 505.6394,393.64282 507.56177,391.55103 510.30347,385.67554 511.7356,385.85327 511.93286,386.13257 512.76636,387.31519 513.32397,389.98315 512.98755,392.02856 512.21362,393.07788 510.55542,392.97241 509.33716,393.63354 505.62964,398.57983 498.25708,406.11938 491.63013,409.95142 485.19019,411.50854 483.15698,411.32153 483.0564,411.06958 482.79419,410.40356 483.20044,408.66431 484.04614,407.69116 490.73364,404.84644 "
   style="fill:#000000;fill-opacity:1;fill-rule:evenodd;stroke:#000000;stroke-width:1.4174;stroke-linejoin:round;stroke-miterlimit:3.86369;stroke-opacity:1"
   id="polygon71" />
			<polygon
   points="504.42065,416.48364 500.5979,414.97192 498.67798,412.50757 499.67993,411.23413 500.81177,411.32983 503.18579,413.65112 504.7356,415.72925 "
   style="fill:#000000;fill-opacity:1;fill-rule:evenodd;stroke:#000000;stroke-width:1.4174;stroke-linejoin:round;stroke-miterlimit:3.86369;stroke-opacity:1"
   id="polygon73" />
			<polygon
   points="522.57739,422.20483 521.95532,423.25708 521.07104,422.10132 520.60229,418.59937 521.21509,413.82495 522.073,412.16968 522.98608,411.73071 523.53149,415.00708 "
   style="fill:#000000;fill-opacity:1;fill-rule:evenodd;stroke:#000000;stroke-width:1.4174;stroke-linejoin:round;stroke-miterlimit:3.86369;stroke-opacity:1"
   id="polygon75" />
			<polygon
   points="604.25903,434.92749 603.74487,434.23413 603.98755,433.3269 604.75415,432.73462 606.71948,432.39429 607.23169,433.23999 606.448,434.81909 "
   style="fill:#000000;fill-opacity:1;fill-rule:evenodd;stroke:#000000;stroke-width:1.4174;stroke-linejoin:round;stroke-miterlimit:3.86369;stroke-opacity:1"
   id="polygon77" />
			<polygon
   points="597.11987,437.59644 592.10474,439.62476 591.73706,439.08569 592.36938,437.65552 592.01587,436.28101 593.00366,435.92065 593.51538,436.84253 595.85815,436.58423 "
   style="fill:#000000;fill-opacity:1;fill-rule:evenodd;stroke:#000000;stroke-width:1.4174;stroke-linejoin:round;stroke-miterlimit:3.86369;stroke-opacity:1"
   id="polygon79" />
			<polygon
   points="484.17114,445.59302 482.42163,446.54956 480.60767,446.74634 480.32153,445.75317 480.72778,444.01343 481.7395,442.13257 483.33716,441.24927 485.06958,441.43188 485.34155,443.18335 "
   style="fill:#000000;fill-opacity:1;fill-rule:evenodd;stroke:#000000;stroke-width:1.4174;stroke-linejoin:round;stroke-miterlimit:3.86369;stroke-opacity:1"
   id="polygon81" />
			<polygon
   points="511.23804,419.26489 511.63696,417.98071 512.31958,417.76489 514.12183,418.25317 514.78735,419.02515 516.72876,424.60522 518.63696,427.67749 516.62085,435.23608 516.96899,436.83716 520.2229,440.54224 521.46265,442.99536 521.58032,444.89575 520.24438,448.13745 519.49243,447.97241 515.68335,441.44702 515.06128,438.24585 515.64478,434.91479 515.54419,432.10278 512.72534,423.69751 "
   style="fill:#000000;fill-opacity:1;fill-rule:evenodd;stroke:#000000;stroke-width:1.4174;stroke-linejoin:round;stroke-miterlimit:3.86369;stroke-opacity:1"
   id="polygon83" />
			<polygon
   points="481.72241,452.30933 480.88403,452.82642 479.37964,452.64819 479.00952,452.18579 479.02661,451.19946 480.55933,449.6311 481.68628,449.87866 482.19604,451.02661 "
   style="fill:#000000;fill-opacity:1;fill-rule:evenodd;stroke:#000000;stroke-width:1.4174;stroke-linejoin:round;stroke-miterlimit:3.86369;stroke-opacity:1"
   id="polygon85" />
			<polygon
   points="607.38989,452.83862 605.4436,452.04028 604.49683,450.27466 604.81909,449.21753 606.1814,448.94116 606.92114,449.6394 608.15649,452.09448 "
   style="fill:#000000;fill-opacity:1;fill-rule:evenodd;stroke:#000000;stroke-width:1.4174;stroke-linejoin:round;stroke-miterlimit:3.86369;stroke-opacity:1"
   id="polygon87" />
			<polygon
   points="508.6189,462.12866 507.18921,462.02759 506.68188,460.80298 507.38599,459.29663 511.78589,457.70532 512.36987,458.77954 511.74976,459.83081 "
   style="fill:#000000;fill-opacity:1;fill-rule:evenodd;stroke:#000000;stroke-width:1.4174;stroke-linejoin:round;stroke-miterlimit:3.86369;stroke-opacity:1"
   id="polygon89" />
			<polygon
   points="492.81226,460.85913 492.33862,462.14136 491.88452,462.28589 490.68091,462.03687 489.12378,460.48999 487.73706,457.80737 488.12866,456.90308 488.7395,456.53394 491.14673,456.72876 "
   style="fill:#000000;fill-opacity:1;fill-rule:evenodd;stroke:#000000;stroke-width:1.4174;stroke-linejoin:round;stroke-miterlimit:3.86369;stroke-opacity:1"
   id="polygon91" />
			<polygon
   points="524.15894,474.56274 523.40161,474.62524 522.88501,474.08374 521.34985,466.91724 521.83765,464.95093 523.04614,464.74536 524.06519,466.89038 524.79077,472.82739 "
   style="fill:#000000;fill-opacity:1;fill-rule:evenodd;stroke:#000000;stroke-width:1.4174;stroke-linejoin:round;stroke-miterlimit:3.86369;stroke-opacity:1"
   id="polygon93" />
			<polygon
   points="516.09448,465.83423 516.37085,467.28198 515.0564,469.23267 514.49634,471.12134 514.52026,474.08374 513.19409,476.71753 512.21362,476.77563 511.3269,475.69604 510.51245,474.84595 509.95728,472.10229 509.7146,468.67993 509.46948,465.33374 509.18823,464.1897 509.73608,462.98462 510.95435,462.24731 512.92505,461.59888 514.18188,462.98901 515.73657,464.68774 "
   style="fill:#000000;fill-opacity:1;fill-rule:evenodd;stroke:#000000;stroke-width:1.4174;stroke-linejoin:round;stroke-miterlimit:3.86369;stroke-opacity:1"
   id="polygon95" />
			<polygon
   points="700.46167,476.64868 702.93188,481.10767 702.30688,482.15698 701.55005,482.21655 698.87085,480.63989 696.16479,480.35327 694.09595,478.25757 694.49976,477.05103 697.33032,474.9104 698.53442,475.01196 "
   style="fill:#000000;fill-opacity:1;fill-rule:evenodd;stroke:#000000;stroke-width:1.4174;stroke-linejoin:round;stroke-miterlimit:3.86369;stroke-opacity:1"
   id="polygon97" />
			<polygon
   points="513.07642,496.68774 511.9563,496.13647 514.87866,492.61987 516.38745,492.49585 517.04858,493.49487 516.34692,494.84937 514.59009,496.2605 "
   style="fill:#000000;fill-opacity:1;fill-rule:evenodd;stroke:#000000;stroke-width:1.4174;stroke-linejoin:round;stroke-miterlimit:3.86369;stroke-opacity:1"
   id="polygon99" />
			<polygon
   points="518.45874,507.87378 516.6687,506.85376 514.97925,504.39282 515.22437,503.18237 517.11353,502.83667 517.63208,503.37769 518.63208,506.51001 "
   style="fill:#000000;fill-opacity:1;fill-rule:evenodd;stroke:#000000;stroke-width:1.4174;stroke-linejoin:round;stroke-miterlimit:3.86369;stroke-opacity:1"
   id="polygon101" />
			<polygon
   points="576.00269,523.99048 577.05249,524.23853 577.48999,525.08276 577.27612,525.57251 577.09595,525.9856 575.88745,526.81323 575.80103,526.87183 574.74829,526.77612 574.00806,526.0022 574.48413,524.79614 "
   style="fill:#000000;fill-opacity:1;fill-rule:evenodd;stroke:#000000;stroke-width:1.4174;stroke-linejoin:round;stroke-miterlimit:3.86369;stroke-opacity:1"
   id="polygon103" />
			<polygon
   points="587.23901,502.79321 586.73169,501.64429 587.14038,499.98169 588.53394,497.95825 589.74048,497.83032 591.37915,498.84937 593.47681,503.44751 593.54663,503.85229 594.96948,512.36206 596.2981,514.76147 599.26587,520.11694 599.73657,523.16333 596.30054,533.80298 595.18042,533.24976 594.54858,530.80688 593.18628,531.2356 591.03101,533.69946 589.59888,533.89868 589.16821,532.67554 589.90601,529.50122 589.76929,526.36157 589.69458,524.63647 590.11987,521.02954 590.14185,520.84839 589.13452,518.32251 589.85083,516.21069 591.68677,514.6521 592.17212,512.91479 590.02124,503.00024 "
   style="fill:#000000;fill-opacity:1;fill-rule:evenodd;stroke:#000000;stroke-width:1.4174;stroke-linejoin:round;stroke-miterlimit:3.86369;stroke-opacity:1"
   id="polygon105" />
			<polygon
   points="564.0188,537.20093 563.60815,534.99048 564.69165,533.34155 565.5979,533.13062 566.177,534.43237 565.69653,536.01831 564.99927,537.14331 "
   style="fill:#000000;fill-opacity:1;fill-rule:evenodd;stroke:#000000;stroke-width:1.4174;stroke-linejoin:round;stroke-miterlimit:3.86369;stroke-opacity:1"
   id="polygon107" />
			<polygon
   points="593.49878,449.75366 595.85571,450.53687 597.35522,451.0354 600.54419,452.09497 602.03149,453.18726 603.84106,457.09692 605.18384,457.80737 605.65259,460.93042 600.54614,467.96851 599.34497,471.74194 597.66772,475.23267 594.24829,482.35034 593.61646,485.33472 593.17407,487.41724 586.34497,494.04224 584.60034,494.76782 583.47095,494.74585 578.66772,489.5647 578.49438,489.60718 576.39917,490.12769 575.16138,491.85132 575.35376,493.67749 574.92847,494.93384 574.71704,495.56323 574.5271,495.54517 569.75269,495.08813 567.84204,496.57056 566.04224,500.32056 565.49438,501.46167 564.83862,504.41138 564.86987,506.91724 564.91772,507.13696 566.12134,512.56079 566.01099,514.53345 563.06274,523.43823 559.29956,527.54321 558.74438,529.1272 558.48999,534.8938 560.16968,537.81079 559.47046,539.01245 556.65161,536.6814 556.52661,536.40747 555.63745,534.45972 555.45483,532.10181 557.59595,521.89038 561.73413,509.51538 561.75317,508.45239 560.51782,505.9231 560.19116,499.0061 560.97437,493.09741 562.00317,490.38354 564.3938,487.31519 566.92212,485.08569 568.65894,484.8147 571.66284,485.40405 572.44165,483.97583 578.38403,478.45728 579.57104,477.35474 583.20923,472.10913 584.19165,471.97632 584.78296,472.59546 585.38599,476.70874 586.34741,477.71411 588.23364,477.52368 590.85767,478.25854 591.13647,478.25269 592.66724,478.21802 593.82056,477.02563 593.84204,476.92065 594.14966,475.51294 593.64478,470.18726 594.44556,467.77222 598.6604,463.98218 600.08521,461.30933 600.22437,461.05103 600.48169,459.38501 599.37134,458.22339 594.47632,457.84839 594.0271,457.81421 590.60522,459.4187 588.53149,461.70728 587.83472,462.47827 587.00073,462.76538 585.81177,461.8313 585.77075,461.65503 585.32153,459.77124 585.58569,457.72534 586.67163,456.07593 588.89478,450.04321 590.05298,448.62231 591.03784,448.33813 "
   style="fill:#000000;fill-opacity:1;fill-rule:evenodd;stroke:#000000;stroke-width:1.4174;stroke-linejoin:round;stroke-miterlimit:3.86369;stroke-opacity:1"
   id="polygon109" />
			<polygon
   points="509.34937,543.0188 507.82837,543.97876 506.61011,540.31128 506.73511,537.35229 507.73706,536.07935 509.39966,535.65356 510.43774,536.58423 511.2981,539.02954 "
   style="fill:#000000;fill-opacity:1;fill-rule:evenodd;stroke:#000000;stroke-width:1.4174;stroke-linejoin:round;stroke-miterlimit:3.86369;stroke-opacity:1"
   id="polygon111" />
			<polygon
   points="580.34741,541.61646 581.30347,542.84937 581.84204,542.17651 581.94507,540.6604 581.82495,539.06274 582.51929,538.08911 585.78052,536.86206 586.67896,537.10767 586.88062,538.4021 586.31128,540.66919 585.5686,544.14771 584.18237,545.94263 581.37329,547.17944 580.47437,547.0105 579.12915,542.42749 579.51587,541.7522 "
   style="fill:#000000;fill-opacity:1;fill-rule:evenodd;stroke:#000000;stroke-width:1.4174;stroke-linejoin:round;stroke-miterlimit:3.86369;stroke-opacity:1"
   id="polygon113" />
			<polygon
   points="592.61206,541.77954 592.65503,543.60327 589.62036,548.93481 587.09009,551.46753 582.15405,553.80103 581.10376,553.70483 578.13647,551.3689 578.22534,550.61108 588.45972,546.55786 589.52856,545.66772 591.40552,541.98413 "
   style="fill:#000000;fill-opacity:1;fill-rule:evenodd;stroke:#000000;stroke-width:1.4174;stroke-linejoin:round;stroke-miterlimit:3.86369;stroke-opacity:1"
   id="polygon115" />
			<polygon
   points="579.06616,558.14478 579.24634,560.57837 578.55444,565.42456 577.71362,566.16772 576.96851,565.84937 575.95923,563.40015 575.27466,559.66626 575.6106,557.77417 576.53149,556.80493 578.0354,556.83423 "
   style="fill:#000000;fill-opacity:1;fill-rule:evenodd;stroke:#000000;stroke-width:1.4174;stroke-linejoin:round;stroke-miterlimit:3.86369;stroke-opacity:1"
   id="polygon117" />
			<polygon
   points="667.84106,566.24585 667.42065,564.64233 668.60522,561.85815 670.62134,558.86304 671.90942,558.43481 671.76294,562.00073 670.59497,563.95044 "
   style="fill:#000000;fill-opacity:1;fill-rule:evenodd;stroke:#000000;stroke-width:1.4174;stroke-linejoin:round;stroke-miterlimit:3.86369;stroke-opacity:1"
   id="polygon119" />
			<polygon
   points="556.41138,541.76392 557.46606,541.70776 558.20142,542.55737 559.60718,548.20288 559.49927,550.02319 558.03101,552.12183 558.63892,556.0061 558.56177,560.25659 559.22534,561.21118 560.54224,563.10376 560.95044,565.46558 560.25366,566.59155 559.19849,566.72339 558.31177,565.79468 557.14429,562.90405 556.36548,560.97437 555.50317,554.65601 555.53442,554.24341 555.7937,550.94067 555.07056,545.07983 555.48364,543.03735 "
   style="fill:#000000;fill-opacity:1;fill-rule:evenodd;stroke:#000000;stroke-width:1.4174;stroke-linejoin:round;stroke-miterlimit:3.86369;stroke-opacity:1"
   id="polygon121" />
			<polygon
   points="575.45483,570.37622 573.88062,574.21802 573.05444,574.2019 572.01831,573.27075 569.30542,565.17017 569.11597,563.19214 570.22095,560.40405 571.48511,561.18726 "
   style="fill:#000000;fill-opacity:1;fill-rule:evenodd;stroke:#000000;stroke-width:1.4174;stroke-linejoin:round;stroke-miterlimit:3.86369;stroke-opacity:1"
   id="polygon123" />
			<polygon
   points="519.21606,608.04126 518.88208,605.60522 521.97192,600.72632 523.24536,601.05396 523.68042,602.04858 523.01733,605.52954 520.79712,607.91821 "
   style="fill:#000000;fill-opacity:1;fill-rule:evenodd;stroke:#000000;stroke-width:1.4174;stroke-linejoin:round;stroke-miterlimit:3.86369;stroke-opacity:1"
   id="polygon125" />
			<polygon
   points="532.19653,630.90405 531.13452,631.49146 530.16138,631.24634 529.7312,630.09937 530.13501,628.43677 531.66333,627.02271 532.48267,627.41724 532.90796,628.94312 "
   style="fill:#000000;fill-opacity:1;fill-rule:evenodd;stroke:#000000;stroke-width:1.4174;stroke-linejoin:round;stroke-miterlimit:3.86369;stroke-opacity:1"
   id="polygon127" />
			<polygon
   points="498.68481,671.05981 497.94751,670.28784 497.83179,668.31226 498.68286,666.73315 499.57886,667.05298 499.78345,668.34692 499.59595,670.54517 "
   style="fill:#000000;fill-opacity:1;fill-rule:evenodd;stroke:#000000;stroke-width:1.4174;stroke-linejoin:round;stroke-miterlimit:3.86369;stroke-opacity:1"
   id="polygon129" />
			<polygon
   points="502.18384,686.22876 502.81567,684.34253 503.72388,683.90308 504.80542,686.57935 504.26489,687.40503 502.90698,687.83569 "
   style="fill:#000000;fill-opacity:1;fill-rule:evenodd;stroke:#000000;stroke-width:1.4174;stroke-linejoin:round;stroke-miterlimit:3.86369;stroke-opacity:1"
   id="polygon131" />
			<polygon
   points="509.35913,705.63843 508.54663,704.94019 508.6355,704.10669 510.01245,702.53833 510.99292,702.25269 511.50464,703.09644 510.72876,704.60083 "
   style="fill:#000000;fill-opacity:1;fill-rule:evenodd;stroke:#000000;stroke-width:1.4174;stroke-linejoin:round;stroke-miterlimit:3.86369;stroke-opacity:1"
   id="polygon133" />
			<polygon
   points="484.05347,706.85571 484.52222,705.72534 486.49731,704.24243 486.70386,705.46069 485.24536,707.33179 484.26733,707.54272 "
   style="fill:#000000;fill-opacity:1;fill-rule:evenodd;stroke:#000000;stroke-width:1.4174;stroke-linejoin:round;stroke-miterlimit:3.86369;stroke-opacity:1"
   id="polygon135" />
			<polygon
   points="629.44653,723.43726 628.70679,722.89087 628.87476,721.98315 632.00122,719.31421 632.27515,720.68628 631.79468,722.27075 630.65063,723.23413 "
   style="fill:#000000;fill-opacity:1;fill-rule:evenodd;stroke:#000000;stroke-width:1.4174;stroke-linejoin:round;stroke-miterlimit:3.86369;stroke-opacity:1"
   id="polygon137" />
			<polygon
   points="451.42358,791.13989 447.97778,791.0813 447.84546,790.09253 448.83569,789.04712 450.03735,788.84009 451.2937,789.92358 451.87524,790.99585 "
   style="fill:#000000;fill-opacity:1;fill-rule:evenodd;stroke:#000000;stroke-width:1.4174;stroke-linejoin:round;stroke-miterlimit:3.86369;stroke-opacity:1"
   id="polygon139" />
			<polygon
   points="488.33521,850.96704 486.61987,850.70923 485.74048,849.6311 486.64868,848.9646 488.37134,848.84351 489.78198,849.47534 489.47192,850.22827 "
   style="fill:#000000;fill-opacity:1;fill-rule:evenodd;stroke:#000000;stroke-width:1.4174;stroke-linejoin:round;stroke-miterlimit:3.86369;stroke-opacity:1"
   id="polygon141" />
			<polygon
   points="512.73022,33.11108 511.97339,32.87012 510.64673,30.56567 512.85767,25.74243 514.00171,25.53491 514.23462,29.64233 513.427,32.28809 "
   style="fill:#000000;fill-opacity:1;fill-rule:evenodd;stroke:#000000;stroke-width:1.4174;stroke-linejoin:round;stroke-miterlimit:3.86369;stroke-opacity:1"
   id="polygon143" />
			<polygon
   points="757.25317,41.11328 756.08765,42.22729 754.87427,42.12378 751.03149,40.56177 749.52759,39.95142 748.2561,38.93506 748.65259,38.25952 751.04126,38.02466 751.16626,38.01221 752.80493,39.49341 "
   style="fill:#000000;fill-opacity:1;fill-rule:evenodd;stroke:#000000;stroke-width:1.4174;stroke-linejoin:round;stroke-miterlimit:3.86369;stroke-opacity:1"
   id="polygon145" />
			<polygon
   points="510.55542,35.80786 511.12769,37.87036 510.71167,39.91406 508.87134,45.42847 507.77563,47.30884 506.48022,47.43799 506.03833,46.74609 506.22778,44.46973 507.97485,40.01758 507.63843,37.57959 508.20337,35.61401 509.43579,34.72388 "
   style="fill:#000000;fill-opacity:1;fill-rule:evenodd;stroke:#000000;stroke-width:1.4174;stroke-linejoin:round;stroke-miterlimit:3.86369;stroke-opacity:1"
   id="polygon147" />
			<polygon
   points="726.85571,66.19751 725.78149,66.70581 725.4187,65.93823 726.53833,63.22705 727.80493,60.82251 728.49438,60.53418 728.84985,61.68164 728.04517,63.79224 "
   style="fill:#000000;fill-opacity:1;fill-rule:evenodd;stroke:#000000;stroke-width:1.4174;stroke-linejoin:round;stroke-miterlimit:3.86369;stroke-opacity:1"
   id="polygon149" />
			<polygon
   points="723.95532,70.46533 724.30591,71.76538 723.59204,73.19336 721.18677,75.64819 720.75952,74.27124 "
   style="fill:#000000;fill-opacity:1;fill-rule:evenodd;stroke:#000000;stroke-width:1.4174;stroke-linejoin:round;stroke-miterlimit:3.86369;stroke-opacity:1"
   id="polygon151" />
			<polygon
   points="717.83716,82.16138 718.41138,80.74829 719.02173,77.84155 719.64185,77.44849 719.95435,78.54224 719.5022,80.50171 718.59644,83.19116 717.33032,85.67065 716.09253,86.70776 715.66528,85.40649 "
   style="fill:#000000;fill-opacity:1;fill-rule:evenodd;stroke:#000000;stroke-width:1.4174;stroke-linejoin:round;stroke-miterlimit:3.86369;stroke-opacity:1"
   id="polygon153" />
			<polygon
   points="773.11499,72.78589 769.18823,57.0686 769.06812,56.58179 769.4021,55.22119 770.59448,56.3125 772.03833,59.61328 773.07397,64.34912 775.16479,69.33667 776.48853,71.26685 775.53735,73.06885 774.552,86.72632 773.08862,91.09985 771.84644,92.28735 770.63257,92.26001 769.96704,91.48462 769.99829,90.04126 771.75269,86.20581 772.7688,81.51709 772.32935,77.40308 "
   style="fill:#000000;fill-opacity:1;fill-rule:evenodd;stroke:#000000;stroke-width:1.4174;stroke-linejoin:round;stroke-miterlimit:3.86369;stroke-opacity:1"
   id="polygon155" />
			<polygon
   points="712.87769,91.65308 713.97827,89.77783 714.73999,89.64209 715.15063,91.7793 714.48999,94.34839 713.49292,94.85864 "
   style="fill:#000000;fill-opacity:1;fill-rule:evenodd;stroke:#000000;stroke-width:1.4174;stroke-linejoin:round;stroke-miterlimit:3.86369;stroke-opacity:1"
   id="polygon157" />
			<polygon
   points="710.77759,101.25854 713.09888,101.08179 714.65356,100.96338 715.39819,101.66333 714.83618,103.09473 711.35181,102.79126 710.3811,102.00977 710.40015,101.97534 "
   style="fill:#000000;fill-opacity:1;fill-rule:evenodd;stroke:#000000;stroke-width:1.4174;stroke-linejoin:round;stroke-miterlimit:3.86369;stroke-opacity:1"
   id="polygon159" />
			<polygon
   points="740.3313,106.92554 743.27026,104.33179 744.82251,99.27466 746.66821,98.17603 748.87866,97.76978 749.69067,98.77563 749.85425,99.90601 749.95532,100.60571 749.87134,100.7981 746.60327,108.20581 745.13745,109.23657 742.47729,109.40503 740.59106,108.90747 740.15112,108.21362 "
   style="fill:#000000;fill-opacity:1;fill-rule:evenodd;stroke:#000000;stroke-width:1.4174;stroke-linejoin:round;stroke-miterlimit:3.86369;stroke-opacity:1"
   id="polygon161" />
			<polygon
   points="769.24634,96.56006 768.31372,101.02222 767.34546,103.58374 765.38696,106.35083 762.38306,108.4104 756.2439,111.46265 755.42896,110.60864 755.79663,109.99536 756.05884,109.55884 758.45679,107.48511 766.25708,97.93481 768.73657,95.5603 "
   style="fill:#000000;fill-opacity:1;fill-rule:evenodd;stroke:#000000;stroke-width:1.4174;stroke-linejoin:round;stroke-miterlimit:3.86369;stroke-opacity:1"
   id="polygon163" />
			<polygon
   points="478.84644,92.08813 479.28345,93.15991 478.64185,95.27637 476.29175,99.56665 474.93188,103.87427 469.19116,111.4502 466.33374,114.51685 465.89185,113.67358 467.69897,109.90454 470.34448,105.9231 470.89966,104.89551 475.59009,96.21167 478.00513,92.37769 "
   style="fill:#000000;fill-opacity:1;fill-rule:evenodd;stroke:#000000;stroke-width:1.4174;stroke-linejoin:round;stroke-miterlimit:3.86369;stroke-opacity:1"
   id="polygon165" />
			<polygon
   points="712.09888,139.4353 711.23853,140.70825 710.51538,139.02075 710.33032,129.74585 710.39282,129.48145 711.16431,126.19263 712.17114,125.22632 712.59888,126.52759 711.47192,129.61841 711.5437,130.01953 712.69263,136.48438 "
   style="fill:#000000;fill-opacity:1;fill-rule:evenodd;stroke:#000000;stroke-width:1.4174;stroke-linejoin:round;stroke-miterlimit:3.86369;stroke-opacity:1"
   id="polygon167" />
			<polygon
   points="715.17017,155.68774 714.56958,155.44678 713.76685,153.90942 712.82446,148.26538 712.7356,145.30005 713.27173,145.00806 713.64185,145.396 "
   style="fill:#000000;fill-opacity:1;fill-rule:evenodd;stroke:#000000;stroke-width:1.4174;stroke-linejoin:round;stroke-miterlimit:3.86369;stroke-opacity:1"
   id="polygon169" />
			<polygon
   points="748.05444,118.26929 750.54858,115.72241 752.78589,113.43628 754.84985,112.79932 755.28979,113.49316 753.55249,116.64526 750.84692,119.34351 749.75122,120.4353 748.43433,125.1936 748.47241,126.94214 750.03931,129.3623 750.82007,130.56665 751.59399,133.39551 750.70239,136.35132 750.20532,137.99951 750.37573,144.00708 749.77271,147.41235 744.49585,159.98462 739.64868,166.79077 733.9397,171.37524 732.72095,171.6521 731.23608,170.25122 731.40454,169.49487 738.77661,162.54224 742.72485,157.66528 746.6897,149.6228 747.85034,145.16577 748.38354,136.9519 748.53052,134.69409 748.47046,134.31323 747.79712,130.04224 745.57202,124.21704 745.68286,123.74951 746.15845,121.72241 "
   style="fill:#000000;fill-opacity:1;fill-rule:evenodd;stroke:#000000;stroke-width:1.4174;stroke-linejoin:round;stroke-miterlimit:3.86369;stroke-opacity:1"
   id="polygon171" />
			<polygon
   points="569.40894,211.81714 571.52856,211.78174 572.34546,212.70874 569.65405,214.93677 569.00757,212.94897 "
   style="fill:#000000;fill-opacity:1;fill-rule:evenodd;stroke:#000000;stroke-width:1.4174;stroke-linejoin:round;stroke-miterlimit:3.86369;stroke-opacity:1"
   id="polygon173" />
			<polygon
   points="573.33276,241.37134 572.64819,241.58667 572.29028,240.4397 573.03735,236.88354 573.97925,235.00171 575.11597,234.94775 575.14478,237.60767 574.65942,239.19409 "
   style="fill:#000000;fill-opacity:1;fill-rule:evenodd;stroke:#000000;stroke-width:1.4174;stroke-linejoin:round;stroke-miterlimit:3.86369;stroke-opacity:1"
   id="polygon175" />
			
			
		</g>
	</svg>
