<?xml version="1.0" encoding="UTF-8" standalone="no"?>
<!-- (c) ammap.com | SVG map of Yemen - High -->

<svg
   version="1.1"
   id="svg851"
   sodipodi:docname="vector.svg"
   width="1024"
   height="1024"
   inkscape:version="1.1.2 (b8e25be8, 2022-02-05)"
   xmlns:inkscape="http://www.inkscape.org/namespaces/inkscape"
   xmlns:sodipodi="http://sodipodi.sourceforge.net/DTD/sodipodi-0.dtd"
   xmlns="http://www.w3.org/2000/svg"
   xmlns:svg="http://www.w3.org/2000/svg"
   xmlns:amcharts="http://amcharts.com/ammap">
  <sodipodi:namedview
     id="namedview853"
     pagecolor="#ffffff"
     bordercolor="#666666"
     borderopacity="1.0"
     inkscape:pageshadow="2"
     inkscape:pageopacity="0.0"
     inkscape:pagecheckerboard="0"
     showgrid="false"
     width="1024px"
     inkscape:zoom="0.66273787"
     inkscape:cx="447.38654"
     inkscape:cy="516.79558"
     inkscape:window-width="1920"
     inkscape:window-height="1027"
     inkscape:window-x="0"
     inkscape:window-y="25"
     inkscape:window-maximized="0"
     inkscape:current-layer="svg851" />
  <defs
     id="defs826">
    <style
       type="text/css"
       id="style824">
			.land
			{
				fill: #CCCCCC;
				fill-opacity: 1;
				stroke:white;
				stroke-opacity: 1;
				stroke-width:0.5;
			}
		</style>
    <amcharts:ammap
       projection="mercator"
       leftLongitude="41.814080"
       topLatitude="19.005793"
       rightLongitude="54.536672"
       bottomLatitude="12.124339" />
    <!-- All areas are listed in the line below. You can use this list in your script. -->
    <!--{id:"YE-AB"},{id:"YE-AD"},{id:"YE-AM"},{id:"YE-BA"},{id:"YE-DA"},{id:"YE-DH"},{id:"YE-HD"},{id:"YE-HJ"},{id:"YE-HU"},{id:"YE-IB"},{id:"YE-JA"},{id:"YE-LA"},{id:"YE-MA"},{id:"YE-MR"},{id:"YE-MW"},{id:"YE-RA"},{id:"YE-SA"},{id:"YE-SD"},{id:"YE-SH"},{id:"YE-SN"},{id:"YE-TA"}-->
  </defs>
  <g
     id="g849"
     style="fill:#000000;fill-opacity:1;stroke:#000000;stroke-width:3.77953;stroke-miterlimit:4;stroke-dasharray:none;stroke-opacity:1"
     transform="matrix(1.2760971,0,0,1.2760971,5.0677126,215.50331)">
    <path
       id="YE-AB"
       title="Abyān"
       class="land"
       d="m 204.77,390.11 -1.44,-2.16 -1.15,-2.8 0.33,-2.63 2.47,-1.48 2.3,-3.13 2.8,-7.25 0.99,-4.94 2.31,-0.66 1.65,-0.99 0.66,-2.64 -1.32,-1.64 -2.14,-2.14 -2.64,-1.32 1.65,-3.46 2.14,-1.48 1.65,-2.31 0.82,-2.47 -1.15,-1.15 h -1.82 l -2.47,0.82 -1.31,-1.98 1.15,-1.15 1.98,-0.5 2.3,0.17 -0.16,-2.47 -1.16,-0.99 0.33,-2.31 1.32,-0.98 2.97,0.49 1.81,-0.66 -0.33,-1.65 -1.32,-0.98 -0.49,-1.98 0.66,-1.32 v 0 l 4.28,0.17 v 0 l 2.96,-0.5 1.65,1.48 1.81,-1.15 h 3.96 l 0.82,1.65 1.81,2.14 5.77,-0.16 2.3,-1.16 2.64,-3.46 6.42,-3.13 3.96,-2.63 h 1.31 l 0.5,-2.64 -0.17,-2.63 1.82,-0.33 1.15,-0.83 0.82,-5.43 0.5,-2.15 0.99,-1.48 1.38,-0.74 v 0 l 2.47,-1.32 2.31,-0.98 1.97,-1.65 v 0 l 3.79,-0.33 3.3,1.65 1.48,2.47 2.14,2.63 0.49,2.14 -1.31,2.47 -0.66,1.98 -1.65,1.65 -0.16,1.81 v 0 l 3.95,-0.49 3.29,-0.83 v 0 l 2.47,-0.16 1.49,0.82 2.96,-1.65 v 0 l 3.63,-2.3 0.82,-3.13 v 0 l 1.45,-1.15 v 0 l 4.45,0.32 4.28,-0.82 3.13,0.82 3.46,2.15 h 5.6 l 0.99,2.14 0.98,-0.66 1.16,-2.31 v 0 l 0.82,-1.81 2.47,-0.33 1.82,0.99 v 6.59 l 2.8,1.48 2.3,1.81 v 0 l 0.5,12.93 0.66,5.77 v 0 l 0.98,1.98 -0.98,3.46 v 0 l 0.11,3.49 -1.42,0.17 -3.06,0.76 -2.39,0.94 -1.97,0.18 -6.02,1.38 -2.7,0.88 -1.05,0.53 -4.08,2.79 -5.17,1.98 -3.27,1.49 -2.58,-0.69 -2.46,-0.13 -5.63,1.29 -2.2,0.16 -2.39,0.51 -0.67,-0.23 -0.16,-0.28 -0.67,-0.14 h -1.85 l -1.09,0.28 -0.69,-0.14 -0.59,0.09 -0.17,-0.25 -0.49,0.02 -1.38,-0.41 -1.2,-0.08 -0.19,0.14 -1.45,-0.59 -1.52,-0.1 -1.82,0.18 -0.81,0.31 -1.73,0.06 -1.24,0.35 -1.75,-0.11 -0.69,0.23 -1.18,0.02 -0.12,0.14 -0.43,-0.12 -0.45,0.21 -4.15,-0.39 -1.23,0.2 -1.87,0.6 -1.87,0.05 -1.88,0.65 -2.8,-0.07 -1.59,0.58 -2.17,0.34 -2.42,0.85 -1.52,0.16 -0.38,0.32 -1.45,0.42 -2.16,0.05 -1.02,0.32 -1.63,1.04 -5.48,5.12 -2.92,3.57 -2.32,3.72 -0.45,-0.03 0.03,0.47 -0.17,0.32 -1.59,1.55 -1.13,1.4 -1.66,1.37 -1.76,0.57 -3.46,0.48 -2.92,0.61 -2.27,0.71 -3.08,1.36 -1.57,0.9 -1.66,1.53 z"
       style="fill:#000000;fill-opacity:1;stroke:#000000;stroke-width:3.77953;stroke-miterlimit:4;stroke-dasharray:none;stroke-opacity:1" />
    <path
       id="YE-AD"
       title="'Adan"
       class="land"
       d="m 204.08,391.25 -1.88,3.69 -0.97,2.77 -0.38,2.45 0.31,0.62 0.4,-0.17 -0.37,0.65 0.1,0.18 0.49,0.11 -0.06,0.39 -0.24,-0.3 -0.49,-0.07 -0.29,0.35 0.16,0.27 -0.28,0.3 -0.57,0.04 -0.47,-0.19 -0.29,0.11 -0.74,-0.33 -0.55,-0.5 -0.49,0.23 0.17,-0.27 -0.08,-0.45 -1.11,-0.23 0.24,-0.76 2.11,-0.6 0.59,0.34 0.5,-0.47 0.07,-0.34 -0.33,-1.15 -0.57,-0.05 0.02,-0.14 0.4,-0.1 -0.55,-0.46 0.64,-0.16 0.29,0.21 0.02,-0.23 -1.81,-0.79 -0.48,0.48 0.09,1.69 -0.67,-1.11 v 0.44 l -1.37,-0.26 -1.02,0.05 -2.09,1.15 -0.67,1.16 -0.29,1.39 -0.67,-0.26 -0.24,-0.4 0.05,-0.48 0.28,-0.07 0.02,-0.32 -1.4,-0.26 -0.52,0.23 -0.55,1.04 -0.04,0.49 1.68,-0.18 0.64,0.51 2.72,0.19 -0.62,0.62 0.3,0.67 -0.62,0.19 -0.38,-0.18 -0.09,-0.42 -0.6,0.21 -0.24,0.44 0.1,0.28 0.26,0.11 -0.12,0.32 -0.19,-0.26 -0.38,-0.1 -0.57,0.35 -1.37,0.14 -0.38,0.34 -0.19,-0.09 -0.14,-0.49 -0.33,-0.18 -0.45,0.06 -0.27,-0.28 0.05,-0.52 0.31,-0.14 v -0.37 l -0.6,-0.73 -0.66,-0.3 -1.02,-0.16 -1.28,0.14 -1.61,0.77 -1.32,1.31 -0.36,-0.56 0.66,-0.39 -0.17,-0.72 -0.37,-0.53 -1.55,-1.34 -1.28,-0.7 -1.14,-0.33 -1.95,-0.35 -1.87,-0.04 -0.86,0.12 -2.25,0.83 -1.94,1.3 -1.94,1.89 -2.01,2.5 -1.88,2.71 -0.28,-0.04 0.12,-0.3 -0.35,-0.37 -0.99,0.05 v 0 l 0.67,-3.15 1.81,-2.8 1.98,-2.64 5.77,-2.64 12.19,-0.33 5.27,-0.49 3.29,-1.48 1.98,-1.32 5.44,-0.82 5.08,-0.27 v 0 z"
       style="fill:#000000;fill-opacity:1;stroke:#000000;stroke-width:3.77953;stroke-miterlimit:4;stroke-dasharray:none;stroke-opacity:1" />
    <path
       id="YE-AM"
       title="'Amrān"
       class="land"
       d="m 115.1,223.89 v -1.32 0 l 1.65,-0.66 v 0 l -0.49,-1.32 -1.32,-0.49 v 0 l -0.33,-1.98 v 0 l 0.66,-2.14 2.3,-0.33 0.99,1.15 1.49,-0.32 v -3.63 l 1.48,-0.66 v 0 l -0.17,-1.81 v 0 h -2.3 l -0.17,-4.61 v 0 l 1.49,0.16 v 0 l -0.5,-2.14 -0.99,-0.99 0.17,-1.31 -0.5,-1.16 0.5,-2.3 -0.99,-2.31 -1.81,-1.32 -1.98,0.99 -1.32,2.31 -1.64,0.66 -0.66,-1.82 0.98,-1.48 1.49,-0.49 v 0 l 0.82,-1.65 v 0 l -1.81,-2.47 -0.82,-1.65 -1.32,-1.81 0.33,-5.44 -1.81,-1.64 v 0 l -1.65,-1.32 0.33,-2.97 v 0 -2.47 l -1.16,-3.46 1.16,-1.64 v 0 l 0.99,-1.32 v 0 l -0.24,-12.3 1.26,-0.63 v 0 l 2.3,-0.83 5.27,-0.49 1.98,-0.99 1.15,-1.15 2.64,-0.66 v 0 l 1.81,0.33 2.14,1.32 3.46,0.33 v 0 l 2.8,0.33 2.8,0.65 4.7,-0.2 v 0 l -0.02,0.04 v 0 l 3.46,0.66 1.65,0.82 1.81,-0.99 1.48,1.16 v 0 l 1.15,2.96 4.12,3.79 v 0 l 0.33,4.45 -1.15,0.99 -0.17,7.9 v 0 h 2.81 l -0.66,5.27 -1.32,1.98 0.66,3.46 1.64,1.81 v 0 l 2.31,0.66 v 3.46 0 l 0.16,0.14 v 0 l -1.67,1.59 -3.63,0.16 -1.98,1.98 h -3.78 l -0.33,3.3 -1.16,3.95 0.99,0.82 1.32,1.49 -0.66,2.38 -1.81,2.48 -2.97,2.47 0.17,3.62 1.48,0.66 -0.66,1.65 -2.47,0.66 -0.99,2.14 -2.8,1.97 -3.13,0.66 -0.16,-3.29 -2.64,1.48 0.33,1.48 -0.99,1.16 0.5,1.31 v 0 l -4.19,-1.89 -1.81,-0.5 -0.82,-1.31 -1.32,0.16 -0.49,2.31 -1.82,0.16 -1.48,0.83 -1.48,-1.32 h -1.98 v 0 z"
       style="fill:#000000;fill-opacity:1;stroke:#000000;stroke-width:3.77953;stroke-miterlimit:4;stroke-dasharray:none;stroke-opacity:1" />
    <path
       id="YE-BA"
       title="Al Bayḑā'"
       class="land"
       d="m 222.18,330.13 -0.17,-8.4 -1.15,-1.64 -1.98,-0.17 -1.98,1.98 -1.81,1.48 -1.48,2.31 -2.31,0.16 -0.49,-1.15 -2.64,-0.16 v 0 l -0.16,-3.63 v 0 l -1.32,-1.48 -1.15,-1.65 -3.3,-0.16 -0.33,-3.63 -3.62,-3.95 -0.16,-1.48 -2.15,-0.33 -3.78,0.33 h -3.13 l -2.8,2.14 -3.13,-2.47 -1.49,1.97 -0.49,1.49 v 0 h -2.97 v 0 l -3.95,-1.16 -0.33,-3.79 1.32,-0.16 0.16,-2.31 -1.15,-0.65 v 0 l -1.32,-0.33 v -1.98 l 1.49,-1.48 h 3.78 l 1.32,-6.59 1.15,-0.83 h 1.65 l -0.16,-2.8 -1.49,-1.64 -0.32,-6.1 1.81,-2.8 2.96,-2.31 3.13,-1.31 v 0 l 2.14,-2.64 v 0 l 2.55,-0.9 v 0 l 0.02,0.08 v 0 l 2.97,-1.32 h 2.8 l 1.32,-0.82 h 1.31 l 0.83,7.24 0.99,6.76 1.48,4.45 2.47,1.81 3.13,0.99 0.49,-2.15 1.98,-1.64 1.98,0.16 1.64,1.48 1.49,0.17 0.49,-1.48 -2.47,-1.82 0.99,-1.31 2.96,1.97 1.98,-0.16 0.66,-2.47 1.15,-1.81 1.81,0.98 -0.33,1.98 h 3.63 l 0.66,-2.63 1.64,-3.79 -0.15,-2.31 v 0 l 8.46,0.25 v 0 l 0.49,7.9 v 0 l 6.76,0.5 3.62,6.92 1.32,4.77 v 0 5.28 l 3.79,-0.17 1.97,-0.82 h 1.65 l 1.65,2.14 4.28,3.95 v 0 l -1.38,0.74 -0.99,1.48 -0.5,2.15 -0.82,5.43 -1.15,0.83 -1.82,0.33 0.17,2.63 -0.5,2.64 h -1.31 l -3.96,2.63 -6.42,3.13 -2.64,3.46 -2.3,1.16 -5.77,0.16 -1.81,-2.14 -0.82,-1.65 h -3.96 l -1.81,1.15 -1.65,-1.48 -2.96,0.5 v 0 z"
       style="fill:#000000;fill-opacity:1;stroke:#000000;stroke-width:3.77953;stroke-miterlimit:4;stroke-dasharray:none;stroke-opacity:1" />
    <path
       id="YE-DA"
       title="Aḑ Ḑāli'"
       class="land"
       d="m 208.17,324.39 -1.97,5.42 -2.14,2.47 -3.3,2.8 -3.46,2.14 -2.47,2.3 -2.63,0.5 -1.82,1.65 -1.81,-0.99 h -2.8 l 1.98,5.93 0.82,3.29 h -3.13 l -0.66,-1.15 h -1.64 l -0.66,1.15 -1.65,0.99 -2.64,0.33 -1.97,0.66 -1.81,-1.32 -2.15,1.65 -1.31,-1.32 -2.15,-0.66 v 0 l -0.98,-1.81 -1.16,-1.48 -3.46,-0.5 -1.31,0.83 -2.31,-0.5 -0.33,-2.47 1.81,-0.66 0.17,-1.64 -0.5,-2.48 v 0 l -1.64,-2.47 v 0 l 0.33,-2.14 2.14,-1.64 1.15,-1.98 2.31,-2.64 -0.66,-2.47 1.64,-1.32 2.64,-0.98 h 3.62 l 1.49,-1.49 -2.31,-0.66 -1.15,-1.64 1.15,-1.82 1.81,-0.65 0.17,-2.97 1.48,-0.16 1.65,0.49 1.81,-1.32 -0.08,-1.97 v 0 h 2.88 v 0 l 0.49,-1.49 1.49,-1.97 3.13,2.47 2.8,-2.14 h 3.13 l 3.78,-0.33 2.15,0.33 0.16,1.48 3.62,3.95 0.33,3.63 3.3,0.16 1.15,1.65 1.32,1.48 v 0 z"
       style="fill:#000000;fill-opacity:1;stroke:#000000;stroke-width:3.77953;stroke-miterlimit:4;stroke-dasharray:none;stroke-opacity:1" />
    <path
       id="YE-DH"
       title="Dhamār"
       class="land"
       d="m 120.79,316.67 -1.34,1.19 v 0 l -1.81,1.16 h -2.63 l -3.79,-3.96 -3.3,-0.16 v 0 l -2.14,-1.32 -0.49,-2.47 1.81,-0.99 0.66,-1.81 v 0 l -1.16,-1.15 -2.14,-3.96 -1.48,-2.3 v -1.82 0 l 1.81,-0.32 h 2.31 v 0 l 0.16,1.31 h 1.49 l 0.82,-1.64 1.81,-1.32 1.48,-0.66 1.16,-1.48 0.49,-1.82 3.79,-0.49 0.66,1.32 3.29,-0.17 1.98,-1.48 2.96,-1.48 3.13,-3.3 1.49,-1.31 0.33,-1.65 -2.14,-2.64 0.49,-3.13 -2.14,-1.97 -3.79,-2.8 -3.3,-3.13 -0.35,-2.21 v 0 l 0.35,0.06 v 0 -1.48 h 4.78 l 0.17,1.32 h 1.81 l 2.47,-2.14 0.49,-1.81 1.98,-0.33 1.48,-1.32 0.99,-1.48 h 1.65 l 0.16,-1.65 1.49,-1.32 7.24,0.33 4.62,3.79 6.91,0.49 0.83,-1.15 -0.99,-0.66 v -1.65 h 1.98 l 1.64,1.65 1.82,1.49 2.96,-0.99 2.64,-0.33 0.98,-1.32 1.65,-0.99 2.14,-0.33 1.98,-0.99 3.95,-0.33 1.49,0.66 -0.17,9.23 2.97,0.33 1.31,0.98 0.99,1.16 0.83,1.32 0.65,2.3 1.82,1 v 0 l -0.73,0.9 v 0 l -3.13,1.31 -2.96,2.31 -1.81,2.8 0.32,6.1 1.49,1.64 0.16,2.8 h -1.65 l -1.15,0.83 -1.32,6.59 h -3.78 l -1.49,1.48 v 1.98 l 1.32,0.33 v 0 l -3.23,2.38 -1.65,-2.3 -3.95,-0.17 -0.82,-0.82 -0.83,-1.98 h -2.8 l -1.64,-0.99 -1.65,-0.66 h -1.98 l -1.97,-0.65 -1.32,-1.98 -1.32,-0.99 -0.99,-1.15 -1.81,-0.5 -1.15,4.62 -3.13,0.16 -0.5,1.32 h -2.3 v -6.76 h -1.49 l -1.81,2.15 -0.66,1.64 -1.97,2.14 -1.65,0.33 -1.32,1.65 -1.48,-0.16 -0.66,1.31 1.15,0.5 0.33,1.65 0.83,1.64 -2.31,2.64 -3.46,2.31 -1.48,0.32 0.16,-2.63 h -2.3 v 2.63 l -1.16,4.12 -1.15,1.16 v 0 z"
       style="fill:#000000;fill-opacity:1;stroke:#000000;stroke-width:3.77953;stroke-miterlimit:4;stroke-dasharray:none;stroke-opacity:1" />
    <path
       id="YE-HD"
       title="Ḩaḑramawt"
       class="land"
       d="m 698.72,438.74 0.9,0.11 0.19,0.21 1.23,0.08 0.16,0.41 0.37,0.14 0.36,0.43 -0.1,1.56 -1.76,0.53 -0.19,-0.37 -1.8,-0.53 -0.88,-0.93 -0.99,-0.44 h -0.67 l -0.47,-0.3 0.19,-0.3 1.7,-0.21 0.02,-0.32 z m -59.29,-4.05 0.12,0.19 0.71,0.16 0.87,-0.37 0.41,0.34 0.11,-0.21 0.39,0.02 0.12,0.17 0.28,-0.09 0.47,0.39 0.59,-0.07 1.27,1.27 0.35,-0.14 1.66,0.97 0.46,-0.23 2.41,0.3 0.55,-0.19 0.76,0.21 0.59,-0.34 0.31,0.39 0.73,0.12 0.19,-0.2 0.86,0.67 0.47,0.12 1.14,-0.39 0.78,0.25 1.51,0.14 0.97,-0.61 0.26,0.07 -1.02,0.79 -0.38,0.02 -0.31,0.37 -0.03,0.65 0.17,0.25 0.64,0.19 -0.07,0.39 -0.38,0.09 -0.78,-0.33 -1.81,0.58 -1.83,-0.07 -0.37,0.27 -1.85,-0.61 -0.21,0.12 -1.57,-0.14 -0.66,-1.48 -0.24,-0.11 -1.4,0.18 -1.06,-0.32 -0.33,0.14 -0.5,-0.33 -0.54,0.26 -0.62,-0.23 -0.33,-0.7 -1.05,-0.46 -0.78,0.21 -0.14,-0.16 -1.07,0.12 0.14,-0.19 -0.59,-0.44 -1.64,-0.72 -0.15,-0.3 0.43,-0.23 -0.07,-0.25 -0.36,0.16 0.1,-0.42 z m 90.81,-29.77 2.09,0.79 1.82,0.23 2.16,-0.17 0.29,-0.18 0.36,0.09 3.08,2.45 3.74,2.62 2.34,1.09 2.4,0.53 0.73,-0.25 0.81,-0.76 1.19,-1.97 0.62,-0.32 1.35,-0.28 1.09,0.53 1.04,0.26 0.31,-0.16 0.42,0.25 0.57,-0.34 0.33,0.05 0.35,-0.44 1.74,0.07 4.48,-1.81 0.47,-0.72 0.16,-0.76 0.35,-0.09 1.61,0.35 0.54,0.31 1.03,1.04 1.34,0.74 h 0.55 l 0.97,-0.32 0.48,-0.4 0.02,0.6 0.64,0.37 0.24,0.42 0.61,0.44 -0.5,0.49 1.23,-0.49 0.92,0.41 h 0.81 l 0.17,0.61 0.74,0.26 0.73,0.65 0.35,0.11 0.33,-0.21 0.73,0.58 0.43,-0.12 0.52,0.28 1.04,0.04 0.36,0.18 0.31,-0.18 0.36,0.06 1.97,1.21 0.85,0.35 0.97,0.04 1.12,1.02 2.15,1.16 1.16,0.04 1.22,-0.81 0.51,0.3 0.83,-0.18 -0.04,0.6 0.19,0.28 -0.54,-0.07 -1.33,0.58 -2.45,0.46 -0.88,0.38 -0.73,1.38 0.33,0.51 v 0.37 l -0.69,-0.02 -0.52,0.42 -0.55,0.1 -0.28,0.21 -0.05,0.42 -0.4,-0.03 -0.97,0.42 -1.4,0.14 -1.76,0.67 h -0.86 l -0.07,0.18 -1.83,-0.05 -1.42,0.23 -2.01,0.85 -0.5,0.53 -0.6,1.55 -1.71,0.35 -0.78,0.85 -2.51,1.6 -0.8,0.09 -2.06,-0.37 -3.34,0.24 -1.09,0.3 -0.33,0.81 -0.59,0.41 -2.3,-0.49 -2.71,0.14 -5.55,1.37 -3.25,0.4 -3.6,0.3 -3.18,-0.18 -1.61,-0.33 -4.92,-1.78 h -0.97 l -0.19,-0.26 -0.54,0.11 -0.22,-0.79 0.12,-0.18 -0.66,-0.39 -0.83,-1.51 -1.56,-1.34 -1.18,-0.67 -0.29,-0.88 -0.71,-0.79 -0.55,-0.12 -2.52,-1.27 -6.57,-4.14 -0.07,-0.4 0.85,-0.48 0.69,0.32 0.57,0.02 2.68,-0.65 0.76,-0.63 0.29,-0.69 0.1,-2.48 0.23,-0.67 -0.09,-0.58 -0.22,-0.05 0.09,-0.69 -0.26,-0.84 1.25,-0.69 1.07,-0.35 0.55,-0.07 0.42,0.18 1.14,-0.21 0.99,-1.27 0.1,-0.51 1.4,0.06 0.64,-0.63 z M 399.36,54.46 376.89,81.5 l -15.31,19.22 -4.23,12.05 -3.91,9.45 -4.56,2.93 -3.91,2.93 -4.23,1.96 -4.23,2.93 -12.7,-0.65 v 0 l 0.03,39.44 v 0 l -42.1,47.47 37.5,-3.85 22.15,-0.65 22.8,-2.93 14.33,0.98 -8.14,12.7 v 0 l -8.47,8.14 v 0 l -1.63,11.73 -2.6,4.23 v 0 l 3.26,1.3 3.91,2.93 v 0 l -0.33,3.91 -1.95,2.93 -3.26,1.63 -5.54,3.26 -3.26,2.61 1.63,2.61 2.93,1.96 4.89,6.51 -0.33,4.89 h 2.61 v 0 l 11.73,6.19 6.19,0.98 1.95,3.91 v 0 l 3.91,2.61 5.21,4.23 0.33,2.61 1.96,2.93 v 0 l 8.79,3.26 h 6.19 l 2.61,-0.65 2.61,-1.63 v 2.93 0 l 2.61,0.98 2.93,3.26 v 0 l 2.61,3.91 0.15,0.45 v 0 l 4.7,0.23 0.76,-0.09 0.1,-0.55 0.16,0.51 0.74,-0.23 2.08,-1.84 1.73,-2.46 1.25,-0.9 1.06,-0.19 1.21,-1.63 0.28,0.11 0.69,-0.62 1.7,-2.38 0.33,-0.09 0.21,-0.89 -0.15,-0.89 0.31,-0.62 2.11,-1.01 0.43,0.25 0.17,-0.34 0.45,-0.09 0.36,-0.48 0.62,-1.74 0.45,-0.14 0.45,-0.53 1.99,-0.14 0.81,-0.73 0.16,-0.28 -0.1,-1.13 -0.73,-0.39 -0.02,-0.58 0.36,-0.51 0.21,-1.15 0.93,-1.99 0.42,-0.18 0.12,-0.87 2.82,-3.78 2.68,-2.27 0.55,-0.23 0.83,0.04 0.57,0.12 0.12,0.32 0.4,-0.25 0.4,0.25 -0.02,0.34 h 0.24 l 0.19,0.34 0.83,0.34 0.09,-0.34 -0.28,-0.5 0.09,-0.64 0.55,-1.01 2.63,-1.4 2.68,-1.76 5.97,-3.16 3.75,-1.23 1.52,-0.83 1.56,-0.6 0.86,-0.28 0.42,0.21 v -0.37 l 4.41,-2.5 3.65,-1.42 3.32,-0.91 4.55,-0.8 4.81,-1.67 0.62,0.02 1.19,-0.34 5.21,-2.35 1.71,0.27 1.87,-0.41 1.09,0.07 1.02,1.73 -0.26,0.34 2.47,-0.69 2.94,-1.26 1,0.23 0.74,-0.14 0.64,0.43 1.71,-0.14 0.47,-0.3 -0.07,-0.62 0.47,-0.46 4.15,-2.47 2.94,-1.28 0.83,-0.19 0.85,0.62 0.03,-0.28 0.57,-0.52 0.1,-0.44 1.9,-1.67 2.34,-1.58 4.1,-2.26 6.95,-1.78 4.84,-0.73 2.47,-0.62 1.09,0.14 5.02,-1.28 v 0 l -1.2,-2.43 -1.22,-1.46 -1.22,-3.42 -1.71,-3.42 -1.95,-2.44 -1.47,-3.18 -3.66,-0.24 -0.98,-1.47 -1.95,-0.98 -3.42,-0.98 -4.64,-2.44 -5.62,-1.71 -5.13,-0.49 -0.24,-2.2 1.96,-0.49 -0.24,-5.13 -4.15,-1.47 -2.44,-0.49 -1.47,-1.95 0.25,-2.44 2.2,-10.26 0.73,-6.35 1.96,-3.18 1.95,-1.71 0.98,-3.18 -1.47,-2.44 -1.95,-2.2 -2.69,-1.95 1.47,-5.62 2.2,-4.15 1.47,-3.42 -0.24,-4.4 2.93,-4.4 -2.2,-1.47 -0.24,-2.93 1.71,-2.69 2.2,-2.44 3.67,-2.44 5.37,-1.47 4.89,-0.24 3.42,-1.71 2.69,-2.2 1.95,-2.2 0.24,-4.15 4.15,-3.42 4.89,-3.18 5.13,-3.66 4.15,-2.2 4.15,-1.95 2.93,-0.24 0.73,-2.93 0.98,-1.71 2.44,-3.18 3.42,-2.69 2.93,-3.42 0.73,-2.93 1.95,-2.93 3.18,-5.62 4.15,-10.26 3.18,-7.08 1.47,-7.33 1.95,-19.05 1.22,-4.64 2.2,-3.42 1.95,-4.15 3.42,-5.13 2.2,-6.11 2.44,-4.64 2.2,-3.66 3.42,-4.4 2.93,-3.18 1.95,-3.42 5.37,-6.11 L 636.25,0 V 0 L 561.9,14.73 457.34,26.13 Z"
       style="fill:#000000;fill-opacity:1;stroke:#000000;stroke-width:3.77953;stroke-miterlimit:4;stroke-dasharray:none;stroke-opacity:1" />
    <path
       id="YE-HJ"
       title="Ḩajjah"
       class="land"
       d="m 87.04,153.23 1.16,-0.08 v 0 l 0.75,0.81 1.97,0.17 v 0 l 1.65,1.15 2.8,0.33 3.95,-1.65 v 0 l 1.49,-0.49 1.97,-0.33 2.47,0.82 2.64,0.5 v 0 l 0.3,12.27 v 0 l -0.99,1.32 v 0 l -1.16,1.64 1.16,3.46 v 2.47 0 l -0.33,2.97 1.65,1.32 v 0 l 1.81,1.64 -0.33,5.44 1.32,1.81 0.82,1.65 1.81,2.47 v 0 l -0.82,1.65 v 0 l -1.48,0.49 -0.99,1.48 0.66,1.82 1.64,-0.66 1.32,-2.31 1.98,-0.99 1.81,1.32 0.99,2.31 -0.5,2.3 0.5,1.16 -0.17,1.31 0.99,0.99 0.5,2.14 v 0 l -1.49,-0.16 v 0 l 0.17,4.61 h 2.3 v 0 l 0.17,1.81 v 0 l -1.48,0.66 v 3.63 l -1.49,0.32 -0.98,-1.15 -2.31,0.33 -0.66,2.14 v 0 l 0.33,1.98 v 0 l 1.32,0.49 0.49,1.32 v 0 l -1.65,0.66 v 0 1.32 l -1.48,0.49 -3.62,-0.49 -3.13,-0.83 v 0 l -2.47,0.33 -3.3,0.17 -3.13,1.15 -3.46,0.17 -0.99,0.82 -3.22,0.33 v 0 l -1.16,-0.49 v -5.61 l -1.31,-0.98 0.16,-1.49 h 1.32 l -0.33,-3.79 -0.99,-0.82 0.16,-1.98 2.15,-2.3 v -5.93 l -1.49,-0.99 -2.3,0.16 -5.44,1.82 -3.79,1.97 -2.47,0.17 -2.14,0.66 -2.8,0.16 -0.99,-0.82 -1.97,-0.5 -2.97,-2.3 -1.8,-0.07 v 0 l 0.14,-1.79 0.21,-0.35 -0.06,-1.22 0.4,-1.14 -0.03,-0.75 0.27,-0.93 -0.27,-1.36 0.69,-1.54 0.07,-0.89 -0.23,-0.56 0.05,-0.52 0.3,-0.48 -0.12,-1.18 -0.62,-0.96 0.24,-0.42 -0.68,-2.63 0.16,-0.71 -0.26,-1.31 0.4,-0.68 0.01,-0.34 -0.08,-0.71 -0.57,-0.83 -0.71,-1.82 0.24,-0.88 -0.09,-1.15 -0.45,-1.04 -0.24,-1.25 0.26,-1.32 -0.09,-0.52 -0.34,-0.56 -0.24,-1.1 -1.4,-0.97 -0.5,-1.32 0.83,-0.98 2.47,0.16 1.15,0.82 4.83,0.25 0.84,-0.68 2.15,-0.07 0.22,-1.79 -1.03,-2.79 0.06,-0.31 1.54,-0.93 0.82,-0.94 0.66,-0.29 1.27,-0.04 2.54,-0.94 1.93,-0.31 0.69,-0.44 1.55,-0.36 0.28,-0.46 -0.37,-1.45 1.04,-2.72 0.16,-1.36 0.66,-0.87 v -0.27 l -0.76,-0.97 -0.03,-0.39 1.19,-0.31 0.32,0.4 1.58,0.83 1.33,0.33 z"
       style="fill:#000000;fill-opacity:1;stroke:#000000;stroke-width:3.77953;stroke-miterlimit:4;stroke-dasharray:none;stroke-opacity:1" />
    <path
       id="YE-HU"
       title="Al Ḩudaydah"
       class="land"
       d="m 60.1,337 0.23,0.15 0.19,0.65 -0.14,0.3 -0.47,0.28 -0.12,1.15 0.23,0.64 -0.52,-0.12 -0.28,0.27 -0.02,0.35 -0.55,0.14 0.07,0.32 -0.22,0.62 -1.04,1.77 -0.31,0.16 -0.8,-0.19 -0.55,0.18 -0.21,0.46 -0.35,0.05 -0.22,0.41 -0.26,0.04 0.04,0.67 -0.12,-0.25 -0.21,-0.02 -0.86,0.44 -0.41,-0.37 -0.16,-0.94 0.14,-0.19 0.4,-0.07 0.07,-0.25 0.45,0.16 0.09,-0.21 -0.17,-0.34 0.16,-0.32 1.11,-0.62 0.16,-0.58 -0.1,-0.78 0.23,-0.76 0.59,-0.76 0.93,-0.25 0.33,-0.65 0.61,-0.16 0.57,-0.44 0.81,-0.02 0.24,-0.21 -0.04,-0.32 0.43,-0.16 z m 1.71,-6.13 0.21,0.07 -0.02,0.16 -0.98,1.82 -1.16,0.46 v -0.53 l -0.21,-0.25 0.52,-0.87 0.8,-0.76 z m -2.83,-12.38 0.33,0.76 1.23,1.08 0.09,0.85 0.42,0.05 -0.43,0.58 0.1,2 -0.62,0.97 -0.02,1.19 0.23,0.35 0.07,0.73 -0.57,0.59 0.02,0.21 0.26,0.04 0.21,0.53 0.31,0.21 -0.67,0.53 -0.6,-0.25 0.28,-0.94 -0.54,-0.04 -0.64,0.43 0.21,0.44 -0.35,0.23 -0.26,-0.27 0.14,-1.35 0.83,-0.89 -0.09,-0.28 -0.36,-0.18 -1,0.16 -0.66,-0.14 -0.26,-0.68 -0.52,0.17 -0.15,-0.1 0.09,-0.73 -0.17,-0.32 -1.05,-0.58 -0.59,0.09 0.03,-0.97 -0.66,-0.11 0.24,-0.39 0.64,-0.46 0.38,-0.74 0.21,0.28 0.31,-0.11 0.48,-0.94 H 55.6 l -0.35,0.6 0.23,-0.64 1.66,-1.17 0.45,0.05 0.57,-0.57 0.52,0.04 z m 8.94,-35.76 0.16,0.09 -0.19,0.3 0.16,0.28 0.71,-0.14 -0.09,0.69 0.33,0.37 1.31,-0.32 -0.1,0.25 -0.73,0.3 -0.15,0.3 -0.43,-0.19 -0.86,-0.62 -0.5,-0.71 0.1,-0.57 z m -46.51,-25.53 0.59,0.41 -0.05,0.69 -0.28,0.09 0.05,0.25 -0.36,-0.05 -0.02,-0.44 -0.28,0.11 -0.21,-0.34 0.14,-0.5 z m 1.16,-3.1 0.57,0.16 0.45,0.59 -0.17,0.34 0.16,0.05 -0.1,0.39 0.29,0.57 -0.16,0.43 -0.9,0.82 -0.24,-0.02 -0.03,-0.36 -0.38,-0.28 -0.19,-0.89 -0.35,-0.59 0.14,-0.2 -0.14,-0.18 0.19,0.07 0.42,-0.25 0.05,-0.41 z m 28.31,-24.24 0.5,0.11 -0.14,0.39 0.71,0.59 -0.02,0.71 -0.74,-0.44 -0.16,0.36 -0.47,0.25 -0.5,-0.52 -0.29,-0.07 -0.02,0.3 -0.33,0.13 -0.6,0.8 0.43,-0.04 0.78,-0.46 0.09,0.48 -0.55,0.28 0.42,0.61 -0.5,0.21 -0.43,-0.11 -1.57,0.25 0.02,0.23 0.52,0.05 0.23,0.41 h 0.47 l 1.99,-1.02 0.69,-0.02 -0.47,1.55 -0.28,0.27 -0.14,0.66 -0.57,0.96 0.26,0.73 -0.5,-0.02 0.05,0.3 0.31,0.02 0.21,0.7 -0.22,1.28 -0.35,0.7 -0.81,0.75 -0.41,1.07 -0.92,0.09 -0.55,-0.21 -1.37,-1.18 -0.67,-1.02 -0.07,-0.84 1.23,-0.02 0.64,-1.62 -0.04,-0.77 -0.5,-1.07 0.05,-0.96 -0.24,-0.43 2.11,-2.51 0.78,-0.28 -0.35,-0.61 0.83,-0.2 1.18,-0.86 z m -7.95,-3.11 0.87,0.39 0.81,-0.09 0.12,0.14 -1.19,1.46 -0.78,-0.11 -0.1,-0.23 0.16,-0.48 0.64,0.04 0.04,-0.53 -0.97,0.02 0.14,0.21 -0.12,0.28 -0.21,-0.05 -0.5,0.3 -0.26,-0.45 0.26,-0.5 z m -8.44,-1.82 0.71,0.28 -0.02,0.21 -0.33,0.2 0.26,1.52 0.43,0.48 1.59,1.09 0.05,0.32 -0.16,0.14 -1.04,-0.57 -0.9,-0.93 -0.1,-0.75 -0.35,-0.39 -0.15,-0.82 -0.62,-0.57 z m -32.86,-1.51 0.33,0.07 0.34,0.39 -0.07,1.12 -1.64,0.66 -0.47,-0.39 -0.1,-0.71 0.64,-0.86 z m 44.72,-1.29 0.05,0.39 -0.35,0.57 -0.33,0.25 -0.81,0.05 v -0.52 l 0.17,-0.16 0.48,-0.05 z m 2.56,-4.73 0.4,0.25 0.28,0.55 1.78,0.61 v 0.21 l -0.21,0.16 -1.23,-0.23 -0.52,0.52 -0.59,-0.04 -0.24,-0.34 v -0.71 l -0.62,-0.45 -0.02,-0.2 0.12,-0.21 z m -2.47,-3.75 0.45,0.07 0.09,0.25 -0.28,0.21 -1.54,-0.12 0.16,-0.32 z m -16.55,-0.3 0.26,0.13 0.05,1.25 0.5,2.25 -0.79,-0.62 -0.26,-1.05 -0.48,-0.11 0.23,-1.61 z m 12.81,-1.28 0.33,0.25 -0.05,0.52 -0.17,0.18 -0.64,-0.07 0.07,-0.46 z m -6.88,-0.86 1.04,0.88 1.16,0.5 0.54,0.04 0.35,0.36 0.76,-0.14 0.12,0.27 0.35,0.16 1.56,-0.04 -0.15,0.54 0.19,0.23 -0.14,-0.04 -0.05,0.32 -1.38,0.16 -2.89,-0.62 -1.35,0.23 -0.4,0.25 -0.45,-1.02 0.42,-0.66 -0.29,-0.34 0.09,-0.2 -0.22,-0.41 0.19,-0.36 z m 14.78,-1.45 0.07,0.34 -0.52,1.34 -0.81,0.7 -0.41,-0.12 0.1,-0.73 0.54,-1.07 z m 11.54,-6.86 1.8,0.07 2.97,2.31 1.98,0.49 0.99,0.82 2.8,-0.16 2.14,-0.66 2.47,-0.16 3.79,-1.98 5.44,-1.81 2.31,-0.16 1.48,0.99 v 5.93 l -2.14,2.31 -0.16,1.98 0.99,0.82 0.33,3.79 h -1.34 l -0.16,1.48 1.32,0.99 v 5.6 l 1.15,0.49 v 0 l -0.16,2.31 0.99,0.99 v 0 l 0.82,1.48 -1.98,1.32 v 0 l 0.49,5.93 1.15,0.99 0.99,1.81 2.31,2.14 4.61,3.13 1.48,1.98 v 0 l 0.17,2.31 0.82,1.15 1.15,0.99 1.81,0.99 v 0 l 1.48,0.82 v 0 l 0.4,0.13 -0.4,0.94 0.17,1.65 v 0 l 1.98,0.82 2.47,0.49 v 0 h 2.97 l 1.65,1.65 v 0 l -1.48,1.81 v 0 l -0.19,0.67 -0.14,-0.01 v 0 l -4.78,-0.16 -0.82,2.47 -1.65,1.65 -2.31,0.49 -1.65,4.28 1.15,1.32 0.49,2.31 0.82,1.15 -1.81,2.31 -0.33,4.94 2.14,1.98 v 0 l 0.66,2.97 0.99,2.47 v 0 l 0.66,2.97 v 0 l 0.82,1.48 -0.16,1.65 -1.15,0.49 v 0 1.48 0 h -2.14 l -1.81,0.33 v 0 1.81 l 1.48,2.31 2.14,3.95 1.15,1.15 v 0 l -0.66,1.81 -1.81,0.99 0.5,2.47 2.14,1.32 v 0 l 3.29,0.16 3.79,3.95 h 2.64 l 1.81,-1.15 v 0 l 1.34,-1.19 0.31,1.85 v 0 l 1.32,0.66 v 0 l -1.65,1.48 -1.65,0.66 v 0 l 0.33,2.47 -1.15,1.81 -2.96,-2.47 -0.99,1.32 0.33,1.65 v 0 l 1.15,1.32 0.99,1.48 v 0 l -2.59,0.12 v 0 l -0.04,-0.12 v 0 h -1.81 l -2.14,1.32 -2.47,-0.49 -3.62,0.82 v 0 l -0.66,2.97 -0.16,1.81 v 0 l 0.49,1.48 -2.96,0.33 -0.99,3.46 -1.32,1.15 -1.81,0.33 v 0 l -1.98,1.15 -1.81,0.66 v 0 l -1.25,0.42 v 0 l -0.21,-1.97 -3.22,-7.91 -0.19,-1.82 0.4,-1.29 -0.07,-0.57 -0.78,-0.94 -1.35,-0.67 0.05,-0.78 -0.67,-0.97 -1.88,-1.29 -0.14,-1.04 -0.74,-1.06 -0.02,-1.43 -1.35,-1.51 -0.1,-0.64 -0.55,-0.83 -0.95,-0.58 0.52,-0.62 0.14,-0.87 -1.25,-2.36 0.07,-1.08 -0.81,-2.52 -0.07,-1.47 -0.54,-2.15 -0.62,-0.81 -1.23,-2.87 -0.26,-2.27 -0.62,-1.7 -1.59,-2.52 -0.12,-1.37 -0.38,-1.51 -0.31,-0.44 -0.02,-0.96 -0.69,-1.12 -0.55,-2.8 -1.28,-0.92 -0.16,-1.17 0.19,-0.53 0.48,0.32 -0.16,1.01 0.19,0.57 1.11,0.32 -0.17,0.23 0.54,2.49 0.88,0.03 -0.07,0.66 0.31,0.48 0.4,0.05 0.62,2.13 0.45,0.02 0.05,-1.63 -1.07,-0.83 -0.24,0.11 -0.16,-0.19 0.35,-0.16 0.59,0.07 0.31,-0.51 -0.04,-0.23 -0.78,-0.51 0.4,-0.5 -0.1,-0.96 0.38,-0.53 0.05,-0.75 -0.19,-0.34 -0.35,-0.07 -0.17,-0.51 -0.78,-0.16 -0.14,-0.21 0.03,-0.19 0.57,0.11 0.29,-0.44 -1.21,-3.68 0.09,-2.22 -1.14,-0.94 0.1,-0.82 -1.12,-1.76 -0.16,-1.74 0.35,-1.01 -0.19,-1.12 -0.52,-1.19 -1.23,-0.96 -0.15,-0.8 -0.26,-0.32 -2.01,-1.65 -0.26,-1.32 -0.57,-1.53 0.09,-1.03 0.33,-0.55 0.47,0.27 -0.21,0.52 0.54,0.6 0.45,-0.05 0.28,0.27 -0.83,0.2 -0.09,0.39 -0.04,1.05 0.35,0.41 0.21,1.12 0.19,0.11 0.29,0.05 0.36,-0.92 -0.43,-0.71 0.8,0.05 0.66,-0.36 0.09,0.3 -0.57,0.25 -0.19,0.66 0.67,1.32 0.42,0.34 -0.28,1.14 0.47,0.13 0.17,-0.14 0.09,-1.39 -0.14,-0.2 0.42,-0.44 0.02,-0.76 -0.35,-0.71 -0.52,-0.43 0.35,-0.28 0.52,0.36 -0.1,0.41 0.26,0.3 0.38,-0.53 -0.45,-1.14 -0.05,-1.8 -1.04,-3.15 -0.67,-1.03 -1.28,-1.08 -0.6,-0.12 -0.33,-0.32 -0.22,-0.59 -0.42,-0.34 0.14,-0.94 -0.38,-0.39 -0.02,-2.12 -0.26,-0.43 0.36,-0.5 0.28,-1.44 -1.11,-2.08 -0.73,-0.69 -3.84,-2.12 -3.68,-1.23 -2.75,-0.55 -0.64,0.5 -0.07,0.48 0.19,0.52 -0.43,0.75 -0.74,0.14 -0.74,-0.14 -0.47,-0.11 -0.48,-0.37 -0.24,-0.96 -1.35,-1.53 0.19,-1.17 0.45,-0.5 1.16,0.62 0.24,0.52 0.54,0.11 h 1.83 l 0.71,-0.69 -0.04,-0.77 0.33,-0.23 0.28,-0.85 -1.16,-1.66 -0.07,-0.93 0.88,-0.48 0.45,-0.71 v -1.51 l 0.17,-0.36 0.35,-0.21 0.38,0.14 0.07,0.77 -0.67,1.23 -0.35,1.46 0.19,0.3 0.88,-0.41 0.8,-0.02 0.02,0.64 0.62,0.54 -0.21,0.82 0.42,0.46 0.57,-0.27 0.33,0.07 0.07,0.36 0.4,-0.37 0.35,-0.02 0.12,0.36 0.38,0.3 -0.26,0.96 0.17,0.93 0.28,0.18 0.74,-0.27 -0.07,-0.39 1.63,-2.01 -0.02,-0.69 -1.04,-1.1 -0.54,-0.19 -0.54,0.05 0.65,-0.77 0.21,-0.43 0.31,-1.92 -0.04,-0.57 -0.78,-0.02 -0.26,-0.37 v -0.37 l 0.29,-0.16 -0.05,-0.96 -0.66,-1.05 -0.09,-0.62 -0.59,-0.3 0.67,-0.96 0.16,-0.75 -0.14,-0.46 0.24,-0.52 -0.83,-0.96 0.09,-0.73 -0.43,-0.52 -0.22,-1.07 -0.55,-1.21 -1.16,-0.66 -0.8,0.07 -0.28,-0.14 -0.66,-0.84 -0.12,-0.53 0.76,-0.07 0.49,-1.39 0.5,-0.41 -0.14,-0.71 -1,-0.64 v -0.89 l -0.74,-0.64 0.48,-0.64 -0.19,-0.46 0.07,-0.55 0.57,-0.93 -0.05,-0.86 -0.17,-0.18 -0.85,0.11 -0.67,0.8 -0.28,-0.75 0.07,-0.12 0.33,0.11 -0.1,-0.55 0.14,-0.82 -0.33,-0.05 0.5,-0.71 0.17,0.21 0.1,-0.59 0.45,-0.05 0.67,0.52 0.16,-0.34 -0.52,-0.09 -0.21,-0.52 0.97,0.16 0.31,-0.37 1.18,-0.71 0.31,-1.21 -0.29,-0.57 0.35,-0.07 0.24,-0.41 0.38,0.14 0.29,-0.09 0.26,-0.71 -0.04,-0.3 h -0.17 l 0.02,-0.36 0.4,0.05 0.74,-0.5 0.09,-0.32 -0.15,-0.37 0.23,-0.59 1.92,-2.09 z"
       style="fill:#000000;fill-opacity:1;stroke:#000000;stroke-width:3.77953;stroke-miterlimit:4;stroke-dasharray:none;stroke-opacity:1" />
    <path
       id="YE-IB"
       title="Ibb"
       class="land"
       d="m 174.24,303.62 1.15,0.65 -0.16,2.31 -1.32,0.16 0.33,3.79 3.95,1.16 v 0 h 0.09 v 0 l 0.08,1.97 -1.81,1.32 -1.65,-0.49 -1.48,0.16 -0.17,2.97 -1.81,0.65 -1.15,1.82 1.15,1.64 2.31,0.66 -1.49,1.49 h -3.62 l -2.64,0.98 -1.64,1.32 0.66,2.47 -2.31,2.64 -1.15,1.98 -2.14,1.64 -0.33,2.14 v 0 l 1,1.5 v 0 l -1.27,1.72 -1.48,1.48 -1.48,0.82 -1.98,-0.49 -1.48,-1.48 -0.83,-1.16 -1.48,0.83 -1.15,1.48 h -1.81 v -2.31 l -3.3,0.33 -2.8,-2.14 -0.82,1.48 -2.47,-1.64 -2.47,-0.66 -1.82,0.16 -2.96,-0.16 0.16,-1.49 1.32,-1.15 0.82,-1.15 -1.31,-1.32 -1.65,0.49 -0.33,1.32 -1.65,1.49 -0.82,-1.49 0.66,-1.48 v -1.65 l -2.31,0.17 -2.63,2.3 -1.32,-1.81 -1.15,0.5 -0.17,1.97 -2.3,-0.49 -2.8,-0.33 -0.17,-1.81 v 0 l -0.62,-1.86 v 0 l 2.6,-0.12 v 0 l -0.99,-1.48 -1.15,-1.32 v 0 l -0.33,-1.65 0.98,-1.31 2.97,2.47 1.15,-1.82 -0.33,-2.47 v 0 l 1.65,-0.66 1.65,-1.48 v 0 l -1.32,-0.66 v 0 l -0.33,-1.97 v 0 l 1.15,-1.16 1.16,-4.12 v -2.63 h 2.3 l -0.16,2.63 1.48,-0.32 3.46,-2.31 2.31,-2.64 -0.83,-1.64 -0.33,-1.65 -1.15,-0.5 0.66,-1.31 1.48,0.16 1.32,-1.65 1.65,-0.33 1.97,-2.14 0.66,-1.64 1.81,-2.15 h 1.49 v 6.76 h 2.3 l 0.5,-1.32 3.13,-0.16 1.15,-4.62 1.81,0.5 0.99,1.15 1.32,0.99 1.32,1.98 1.97,0.65 h 1.98 l 1.65,0.66 1.64,0.99 h 2.8 l 0.83,1.98 0.82,0.82 3.95,0.17 1.65,2.3 z"
       style="fill:#000000;fill-opacity:1;stroke:#000000;stroke-width:3.77953;stroke-miterlimit:4;stroke-dasharray:none;stroke-opacity:1" />
    <path
       id="YE-JA"
       title="Al Jawf"
       class="land"
       d="m 312.77,184.25 -11.43,1.01 -24.54,3.79 v 0 l -11.53,1.48 -10.87,2.14 -7.09,1.81 v 0 l -4.77,1.65 -3.63,2.8 -2.8,2.8 -1.98,3.79 -1.64,2.31 -4.78,1.81 H 214.2 v 0 l -24.38,-16.8 h -15.48 l -1.32,0.82 v 0 l -3.95,-0.16 -2.64,-0.83 -3.62,-0.16 v 0 l -2.14,0.33 -2.31,-1.98 v 0 -3.46 l -2.31,-0.66 v 0 l -1.64,-1.81 -0.66,-3.46 1.32,-1.98 0.66,-5.27 h -2.81 v 0 l 0.17,-7.9 1.15,-0.99 -0.33,-4.45 v 0 l -4.12,-3.79 -1.15,-2.96 v 0 l -1.48,-1.16 -1.81,0.99 -1.65,-0.82 -3.46,-0.66 v 0 l 1.65,-2.97 3.29,-1.31 14.66,-14.33 6.26,-4.29 4.12,-2.14 4.78,-0.82 h 17.62 l -0.13,-24.55 h 20.13 l 11.3,7.28 11.29,0.76 15.32,2.51 15.81,1.76 9.29,0.75 h 14.06 l 19.33,-2.76 14.78,19.94 v 0 l 0.03,39.44 v 0 z"
       style="fill:#000000;fill-opacity:1;stroke:#000000;stroke-width:3.77953;stroke-miterlimit:4;stroke-dasharray:none;stroke-opacity:1" />
    <path
       id="YE-LA"
       title="Laḩij"
       class="land"
       d="m 105.93,406.68 0.44,-2.75 1.32,-1.81 3.3,-5.43 1.48,-3.79 1.48,-2.31 1.98,-0.16 1.32,-1.49 -0.33,-5.43 0.33,-1.49 2.96,0.5 1.98,-0.5 0.66,-1.48 1.64,-0.49 1.16,-0.99 h 1.31 l 1.82,1.48 3.62,0.66 1.65,1.81 0.99,-0.82 -0.17,-2.47 1.32,-0.83 1.15,0.66 0.83,1.49 3.12,-0.17 0.17,-3.79 4.94,0.17 -1.15,-1.32 -0.82,-1.81 1.48,-0.17 v -2.8 l 1.32,-0.16 0.98,2.47 4.62,-0.5 1.64,0.66 1.16,-1.31 1.81,-0.83 v -1.97 l -1.32,-1.65 0.99,-2.47 -1.32,-1.16 0.33,-1.31 1.98,-0.83 1.81,0.5 h 2.14 l 0.33,-1.65 -1.65,-0.66 -1.81,-0.33 -1.81,-0.66 -0.17,-1.97 1.32,-0.83 1.48,-0.49 1.49,-0.17 0.82,-0.99 1.48,-0.82 1.82,-0.66 1.64,-1.81 1.81,-1.32 v 0 l 2.15,0.66 1.31,1.32 2.15,-1.65 1.81,1.32 1.97,-0.66 2.64,-0.33 1.65,-0.99 0.66,-1.15 h 1.64 l 0.66,1.15 h 3.13 l -0.82,-3.29 -1.98,-5.93 h 2.8 l 1.81,0.99 1.82,-1.65 2.63,-0.5 2.47,-2.3 3.46,-2.14 3.3,-2.8 2.14,-2.47 1.97,-5.42 v 0 0.15 0 l 2.64,0.16 0.49,1.15 2.31,-0.16 1.48,-2.31 1.81,-1.48 1.98,-1.98 1.98,0.17 1.15,1.64 0.17,8.4 v 0 l -4.02,-0.16 v 0 l -0.66,1.32 0.49,1.98 1.32,0.98 0.33,1.65 -1.81,0.66 -2.97,-0.49 -1.32,0.98 -0.33,2.31 1.16,0.99 0.16,2.47 -2.3,-0.17 -1.98,0.5 -1.15,1.15 1.31,1.98 2.47,-0.82 h 1.82 l 1.15,1.15 -0.82,2.47 -1.65,2.31 -2.14,1.48 -1.65,3.46 2.64,1.32 2.14,2.14 1.32,1.64 -0.66,2.64 -1.65,0.99 -2.31,0.66 -0.99,4.94 -2.8,7.25 -2.3,3.13 -2.47,1.48 -0.33,2.63 1.15,2.8 1.44,2.16 v 0 l -0.64,1.03 v 0 l -5.08,0.27 -5.44,0.83 -1.97,1.32 -3.3,1.48 -5.27,0.49 -12.19,0.33 -5.77,2.64 -1.97,2.63 -1.82,2.8 -0.66,3.15 v 0 l -2.64,0.92 -4.01,2.27 -1.32,-0.07 -0.84,0.35 -0.99,-0.49 -0.9,-0.09 -2.4,1.04 -1.16,0.1 -0.73,-0.38 -0.74,-0.07 -0.52,-0.43 0.12,-0.07 0.52,0.37 1,0.11 0.21,0.19 0.9,0.07 0.73,-0.21 v -0.79 l -0.32,-0.44 -1.79,-0.72 -1.47,0.38 -2.51,1.61 -1.14,0.29 -1.49,0.8 -3.77,0.1 -1.06,0.57 -1.67,0.05 -1.13,-0.27 -0.78,-0.7 0.02,-1.5 -0.43,-0.74 -3.96,-1.28 -2.87,-1.64 -0.69,-0.14 -0.97,0.21 -0.76,-0.25 -0.87,-0.72 -0.53,-0.19 -1.01,-0.32 -1.04,-0.09 -1.08,-0.67 -2.05,-0.08 -0.36,-0.39 -0.69,-0.21 -0.4,0.09 -1.81,-0.92 -0.92,0.25 -1.04,0.59 -2.77,3.37 -0.2,0.04 -0.21,-0.39 z"
       style="fill:#000000;fill-opacity:1;stroke:#000000;stroke-width:3.77953;stroke-miterlimit:4;stroke-dasharray:none;stroke-opacity:1" />
    <path
       id="YE-MA"
       title="Ma'rib"
       class="land"
       d="m 230.85,276.27 0.15,2.31 -1.64,3.79 -0.66,2.63 h -3.63 l 0.33,-1.98 -1.81,-0.98 -1.15,1.81 -0.66,2.47 -1.98,0.16 -2.96,-1.97 -0.99,1.31 2.47,1.82 -0.49,1.48 -1.49,-0.17 -1.64,-1.48 -1.98,-0.16 -1.98,1.64 -0.49,2.15 -3.13,-0.99 -2.47,-1.81 -1.48,-4.45 -0.99,-6.76 -0.83,-7.24 h -1.31 l -1.32,0.82 h -2.8 l -2.97,1.32 v 0 l -0.66,-1.98 v 0 l -0.33,-2.63 1.49,-1.49 1.81,-3.13 1.15,-3.95 3.3,-3.95 3.29,-2.97 2.8,-8.07 0.33,-3.95 -2.14,-0.33 -14.99,-7.58 -1.98,-0.49 v 6.26 l -6.59,-0.33 -0.82,-7.91 -3.29,2.3 -2.64,1.32 -2.31,-0.82 -2.14,-1.48 0.83,-2.47 3.79,-0.33 2.14,-0.83 1.64,-1.15 1.65,-1.65 2.31,-1.15 1.97,-0.33 2.31,-0.82 1.32,-2.15 -0.83,-1.81 -1.64,-0.66 -2.97,-0.82 -2.47,-6.09 0.33,-2.48 -1.15,-5.6 -2.31,-4.94 -0.99,-1.32 -0.16,-1.64 -1.98,-0.91 v 0 0 0 l 1.32,-0.82 h 15.48 l 24.38,16.8 v 0 h 13.51 l 4.78,-1.81 1.64,-2.31 1.98,-3.79 2.8,-2.8 3.63,-2.8 4.77,-1.65 v 0 l 7.09,-1.81 10.87,-2.14 11.53,-1.48 v 0 l 24.54,-3.79 11.43,-1.01 v 0 l -31.04,34.97 v 0 l -1.24,1.29 -19.77,12.19 v 0 l -6.09,4.78 -4.29,2.8 -3.29,1.81 v 0 l -2.97,1.15 -2.8,4.29 -5.1,3.62 v 0 l -3.46,4.61 -2.8,4.94 v 0 l 0.33,5.6 -1.81,4.12 v 0 l -0.33,5.77 z"
       style="fill:#000000;fill-opacity:1;stroke:#000000;stroke-width:3.77953;stroke-miterlimit:4;stroke-dasharray:none;stroke-opacity:1" />
    <path
       id="YE-MR"
       title="Al Mahrah"
       class="land"
       d="m 559.53,253.46 -1.2,-2.42 -1.22,-1.47 -1.22,-3.42 -1.71,-3.42 -1.96,-2.44 -1.46,-3.18 -3.67,-0.24 -0.97,-1.47 -1.96,-0.98 -3.42,-0.97 -4.64,-2.45 -5.62,-1.71 -5.13,-0.48 -0.24,-2.2 1.95,-0.49 -0.24,-5.13 -4.16,-1.47 -2.44,-0.49 -1.47,-1.95 0.25,-2.44 2.2,-10.26 0.73,-6.36 1.96,-3.17 1.95,-1.71 0.98,-3.18 -1.47,-2.44 -1.95,-2.2 -2.69,-1.95 1.46,-5.62 2.2,-4.15 1.47,-3.42 -0.24,-4.4 2.93,-4.4 -2.2,-1.46 -0.25,-2.94 1.71,-2.68 2.2,-2.45 3.67,-2.44 5.37,-1.46 4.89,-0.25 3.42,-1.71 2.68,-2.2 1.96,-2.2 0.24,-4.15 4.16,-3.42 4.88,-3.17 5.13,-3.67 4.15,-2.2 4.16,-1.95 2.93,-0.25 0.73,-2.93 0.98,-1.71 2.44,-3.17 3.42,-2.69 2.93,-3.42 0.74,-2.93 1.95,-2.93 3.18,-5.62 4.15,-10.26 3.17,-7.09 1.47,-7.33 1.95,-19.05 1.23,-4.64 2.19,-3.42 1.96,-4.15 3.42,-5.13 2.2,-6.11 2.44,-4.64 2.2,-3.67 3.42,-4.39 2.93,-3.18 1.95,-3.42 5.38,-6.11 2.19,-4.79 v 0 l 24.6,52.35 0.24,5.09 23.47,48.88 -2.42,4.59 4.84,-0.48 1.45,5.08 16.94,36.54 -3.84,1.54 -2.73,0.72 -4.34,0.85 -2.01,0.91 -5.81,2.01 -0.26,0.21 -0.01,0.31 -1.79,0.77 -0.89,0.16 -3.81,1.31 -0.29,0.32 -1.42,0.72 -7.84,2.6 -5.39,2.19 -2.65,1.43 -2.3,1.61 -2.7,2.29 -3.04,3.39 -5.47,6.95 -1.17,2.81 -0.73,1.28 -0.14,2.29 -0.48,1.63 -0.5,0.45 -1.35,3.45 -0.76,1.23 -0.36,1.31 0.25,2.14 0.4,0.25 0.28,0.54 0.62,0.23 -0.28,0.88 -0.22,0.16 -0.22,3.25 0.96,0.81 0.7,0.21 0.98,1.41 -0.64,-0.25 -0.15,0.36 0.64,1.02 -0.32,0.78 0.45,0.29 0.02,0.2 -0.47,0.07 -0.34,0.43 -0.09,0.89 0.35,1.11 0.14,1.3 1.83,5.69 -0.95,0.57 -0.88,0.93 -1.91,0.38 -10.56,3.73 -3.05,1.16 -0.67,0.57 -4.22,1.71 -0.8,0.69 -0.52,0.74 0.45,0.33 -0.31,0.47 0.05,0.25 0.61,0.53 -0.62,-0.05 -0.25,0.25 -0.98,-0.89 -0.57,-0.29 -4.27,1.23 -4.38,1.79 -2.3,1.44 -0.55,1.43 0.1,0.9 1.3,0.45 0.34,0.45 -0.27,0.32 -1.14,0.01 -0.78,0.45 -1.54,-0.04 -0.14,-0.26 -1.66,0.21 -2.27,0.66 -3.9,1.53 -0.33,0.48 -0.88,0.5 -0.07,0.47 -0.4,-0.25 -0.33,0.16 -0.03,0.23 -0.44,-0.11 -1.07,0.57 0.07,0.64 -0.9,-0.34 -1.99,0.82 -0.29,0.18 -0.02,0.66 -1.31,0.07 -0.38,-0.32 h -0.26 l -0.38,0.3 -0.45,-0.03 -1.66,0.53 -4.33,1.96 -1.35,0.18 -3.78,1.34 -0.8,0.05 -0.07,-0.86 -0.14,0.68 -0.41,0.46 -6.14,1.13 -6.78,1.99 -1.26,0.16 -4.9,1.62 -0.52,-0.14 z"
       style="fill:#000000;fill-opacity:1;stroke:#000000;stroke-width:3.77953;stroke-miterlimit:4;stroke-dasharray:none;stroke-opacity:1" />
    <path
       id="YE-MW"
       title="Al Maḩwīt"
       class="land"
       d="m 131.48,225.12 0.82,1.82 -2.47,1.31 0.66,1.65 1.32,0.33 v 1.48 l -1.49,0.33 -0.98,0.83 -0.83,1.64 h -3.62 l -0.83,1.98 -2.3,2.14 -2.8,1.81 -3.79,0.83 -1.48,2.14 -2.97,0.33 -1.32,1.48 -0.49,3.29 1.15,0.83 -0.16,1.32 -0.5,1.48 -1.97,0.99 v 0 l -0.59,1.37 -0.4,-0.14 v 0 l -1.48,-0.82 v 0 l -1.81,-0.99 -1.16,-0.99 -0.82,-1.15 -0.17,-2.31 v 0 l -1.48,-1.97 -4.61,-3.13 -2.31,-2.15 -0.99,-1.81 -1.15,-0.99 -0.49,-5.93 v 0 l 1.97,-1.31 -0.82,-1.49 v 0 l -0.99,-0.98 0.17,-2.31 v 0 l 3.22,-0.33 0.99,-0.82 3.46,-0.17 3.13,-1.15 3.3,-0.17 2.47,-0.33 v 0 l 3.13,0.83 3.62,0.49 2.47,-0.82 v 0 h 1.98 l 1.48,1.32 1.48,-0.83 1.82,-0.16 0.49,-2.31 1.32,-0.16 0.82,1.31 1.81,0.5 z"
       style="fill:#000000;fill-opacity:1;stroke:#000000;stroke-width:3.77953;stroke-miterlimit:4;stroke-dasharray:none;stroke-opacity:1" />
    <path
       id="YE-RA"
       title="Raymah"
       class="land"
       d="m 113.99,262.52 -0.14,0.49 v 0 l 2.64,4.28 1.97,0.99 v 0 l 2.45,0.43 v 0 l 0.35,2.21 3.3,3.13 3.79,2.8 2.14,1.97 -0.49,3.13 2.14,2.64 -0.33,1.65 -1.49,1.31 -3.13,3.3 -2.96,1.48 -1.98,1.48 -3.29,0.17 -0.66,-1.32 -3.79,0.49 -0.49,1.82 -1.16,1.48 -1.48,0.66 -1.81,1.32 -0.82,1.64 h -1.49 l -0.16,-1.31 v 0 h -0.17 v 0 -1.49 0 l 1.16,-0.49 0.16,-1.65 -0.82,-1.48 v 0 l -0.66,-2.97 v 0 l -0.99,-2.47 -0.66,-2.96 v 0 l -2.14,-1.98 0.33,-4.94 1.81,-2.31 -0.82,-1.15 -0.5,-2.31 -1.15,-1.31 1.65,-4.29 2.3,-0.49 1.65,-1.65 0.83,-2.47 4.77,0.17 v 0 z"
       style="fill:#000000;fill-opacity:1;stroke:#000000;stroke-width:3.77953;stroke-miterlimit:4;stroke-dasharray:none;stroke-opacity:1" />
    <path
       id="YE-SA"
       title="Amanat Al Asimah"
       class="land"
       d="m 161.46,221.99 0.99,1.82 v 0 l -1.32,0.16 -1.81,-0.99 -0.83,1.48 -3.13,0.33 -0.49,2.31 -1.48,1.65 -2.15,1.81 0.33,2.63 1.49,1.98 v 2.14 l -1.49,2.47 h -3.29 l -0.66,-3.29 -1.48,-0.17 -0.33,-2.14 1.48,-2.3 -1.32,-1.49 -1.97,-0.65 0.99,-1.98 h 2.47 l 1.48,-1.15 0.99,-3.3 1.31,-1.65 1.98,-0.16 0.5,-1.81 h 1.81 l 1.81,-1.32 2.96,1.65 v 0 z"
       style="fill:#000000;fill-opacity:1;stroke:#000000;stroke-width:3.77953;stroke-miterlimit:4;stroke-dasharray:none;stroke-opacity:1" />
    <path
       id="YE-SD"
       title="Şā‘dah"
       class="land"
       d="m 140.26,152.44 -4.7,0.2 -2.8,-0.65 -2.8,-0.33 v 0 l -3.46,-0.33 -2.14,-1.32 -1.81,-0.33 v 0 l -2.64,0.66 -1.15,1.15 -1.98,0.99 -5.27,0.49 -2.3,0.83 v 0 l -1.32,0.66 v 0 l -2.64,-0.5 -2.47,-0.82 -1.97,0.33 -1.49,0.49 v 0 l -3.95,1.65 -2.8,-0.33 -1.65,-1.15 v 0 l -1.97,-0.17 -0.75,-0.81 v 0 l 0.35,-0.19 0.06,-0.4 -0.11,-0.95 -0.56,-0.55 0.23,-1.01 -0.53,-1.35 0.02,-0.43 0.65,-0.46 0.09,-0.46 -0.16,-0.55 1.72,0.36 0.87,-0.56 -0.36,-1.28 -0.5,-0.27 0.42,-0.94 -0.03,-1.34 -0.85,-0.01 -0.98,-0.85 -0.6,-1.5 -0.75,-0.35 -2.05,-0.27 -1.3,-1.84 -0.8,-0.64 -0.44,-2.03 0.73,-0.39 0.87,-0.08 1.11,-0.8 -0.35,-0.61 -0.25,-2.3 0.14,-2.16 4.11,0.48 0.98,-1.65 -1.48,-2.96 -2.95,-0.87 -0.46,0.04 -1.31,0.69 -0.22,-1.88 0.18,-0.35 1.12,-0.57 0.2,-1.93 -0.27,-0.36 -0.02,-0.33 1.02,-0.31 0.28,-0.28 -0.13,-0.41 0.14,-0.33 0.64,-0.34 0.81,-0.81 0.02,-0.53 -0.83,-1.13 -0.24,-0.74 0.29,-0.97 2.21,-0.72 0.57,-0.59 1.1,-0.11 0.86,0.14 1.6,-1.1 0.71,-0.1 1.01,0.14 0.01,-0.7 -0.42,-0.75 -0.49,-0.36 -0.68,-0.05 -0.3,-0.21 0.39,-0.49 -0.03,-0.28 -0.36,-0.41 -1.41,-0.6 -1.4,-1.02 -0.16,-1.32 v -2.96 l 2.31,-4.28 2.14,-1.82 2.97,-0.98 3.29,-0.66 2.97,-0.17 2.3,0.83 2.47,1.81 2.97,2.63 2.47,3.13 3.46,3.63 0.28,0.52 0.94,0.27 1.34,-0.79 1.94,0.12 1.09,0.51 -0.07,0.66 0.21,0.45 0.55,-0.32 h 0.54 l 0.68,0.47 h 1.01 l 0.78,0.37 0.54,-0.49 0.43,0.23 1.93,-0.52 1.97,0.82 2.74,0.48 2.47,-3.48 3.19,-0.11 2.15,-0.84 1.96,2.39 1.46,-2.72 15,-1.98 5.77,-0.25 4.77,2.51 3.51,-0.5 2.51,-1.76 h 15.52 l 0.13,24.55 H 175 l -4.78,0.82 -4.12,2.14 -6.26,4.29 -14.66,14.33 -3.29,1.31 z"
       style="fill:#000000;fill-opacity:1;stroke:#000000;stroke-width:3.77953;stroke-miterlimit:4;stroke-dasharray:none;stroke-opacity:1" />
    <path
       id="YE-SH"
       title="Shabwah"
       class="land"
       d="m 334.63,348.6 -0.14,-3.47 v 0 l 0.98,-3.46 -0.98,-1.98 v 0 l -0.66,-5.77 -0.5,-12.93 v 0 l -2.3,-1.81 -2.8,-1.48 v -6.59 l -1.82,-0.99 -2.47,0.33 -0.82,1.81 v 0 l -1.15,2.31 -0.99,0.66 -0.99,-2.14 h -5.6 l -3.46,-2.14 -3.13,-0.83 -4.28,0.83 -4.45,-0.33 v 0 l -1.45,1.15 v 0 l -0.82,3.13 -3.63,2.3 v 0 l -2.96,1.65 -1.49,-0.82 -2.47,0.16 v 0 l -3.29,0.83 -3.95,0.49 v 0 l 0.16,-1.81 1.65,-1.65 0.66,-1.98 1.31,-2.47 -0.49,-2.14 -2.14,-2.63 -1.48,-2.47 -3.3,-1.65 -3.79,0.33 v 0 l -1.97,1.65 -2.31,0.98 -2.47,1.32 v 0 l -4.28,-3.95 -1.65,-2.14 h -1.65 l -1.97,0.82 -3.79,0.17 v -5.28 0 l -1.32,-4.77 -3.63,-6.92 -6.75,-0.5 v 0 l -0.49,-7.9 v 0 l -11.2,-0.33 0.33,-5.77 v 0 l 1.81,-4.12 -0.33,-5.6 v 0 l 2.8,-4.94 3.46,-4.61 v 0 l 5.1,-3.62 2.8,-4.29 2.97,-1.15 v 0 l 3.29,-1.81 4.29,-2.8 6.09,-4.78 v 0 l 19.77,-12.19 1.24,-1.29 v 0 l 37.51,-3.85 22.14,-0.65 22.81,-2.93 14.33,0.97 -8.15,12.71 v 0 l -8.47,8.14 v 0 l -1.62,11.73 -2.61,4.23 v 0 l 3.26,1.3 3.91,2.93 v 0 l -0.33,3.91 -1.95,2.93 -3.26,1.63 -5.54,3.26 -3.26,2.61 1.63,2.6 2.93,1.96 4.89,6.51 -0.32,4.89 h 2.6 v 0 l 11.73,6.19 6.19,0.97 1.95,3.91 v 0 l 3.91,2.61 5.21,4.23 0.33,2.61 1.95,2.93 v 0 l 8.79,3.26 h 6.19 l 2.61,-0.66 2.6,-1.63 v 2.94 0 l 2.61,0.97 2.93,3.26 v 0 l 2.61,3.91 0.15,0.45 v 0 l -1.84,0.14 -1.73,0.46 -0.72,0.36 -2.22,1.88 -0.69,-0.29 -0.74,0.37 -0.4,0.47 -0.45,-0.15 -0.14,-0.23 0.04,-0.87 -1.01,-0.67 -0.45,0.14 0.11,0.36 -0.12,0.1 -0.56,0.02 -0.17,-0.25 -0.85,-0.16 -0.81,0.61 -0.8,-0.38 -1.24,0.32 -0.35,-0.49 -0.97,-0.25 -0.39,0.19 -0.31,0.43 0.32,0.3 0.09,0.39 -0.5,-0.09 -1.49,0.71 -0.15,0.62 -0.42,-0.02 -0.55,-0.65 -0.42,0.4 -1.02,-0.03 -0.08,0.23 0.2,0.37 -0.43,0.23 -0.22,-0.12 -0.06,-0.41 -1.05,-0.02 -0.49,-0.23 -0.51,0.89 -0.64,0.14 -0.97,-0.14 -0.21,0.42 -0.59,-0.19 0.21,-1.24 -0.83,-0.8 -2.68,-1.57 -1.97,-0.78 -1.99,-0.66 -2.16,-0.32 -2.03,0.12 -1.74,0.43 -2.74,1.44 -2.31,2.16 -3.32,2.42 -1.23,1.19 -2.11,0.74 -2.61,0.18 -1.61,0.44 -1.13,0.62 -1.88,1.47 -1.04,0.48 -1.71,1.72 -1.19,1.73 -2.04,1.49 -6.46,5.92 -3.47,2.36 -0.73,0.7 -1.78,0.52 -1.73,0.12 -2.21,0.9 -4.03,1.26 z"
       style="fill:#000000;fill-opacity:1;stroke:#000000;stroke-width:3.77953;stroke-miterlimit:4;stroke-dasharray:none;stroke-opacity:1" />
    <path
       id="YE-SN"
       title="Şan‘ā'"
       class="land"
       d="m 158.52,191 2.15,1.84 2.14,-0.33 v 0 l 3.62,0.17 2.64,0.82 3.95,0.17 v 0 l 1.98,0.91 0.17,1.65 0.99,1.32 2.31,4.94 1.15,5.6 -0.33,2.47 2.47,6.1 2.97,0.82 1.65,0.66 0.82,1.81 -1.32,2.14 -2.31,0.82 -1.98,0.33 -2.31,1.15 -1.65,1.65 -1.65,1.15 -2.14,0.82 -3.79,0.33 -0.82,2.47 2.14,1.48 2.31,0.82 2.64,-1.32 3.29,-2.31 0.82,7.91 6.59,0.33 v -6.26 l 1.98,0.49 14.99,7.58 2.14,0.33 -0.33,3.95 -2.8,8.07 -3.29,2.97 -3.29,3.95 -1.15,3.95 -1.81,3.13 -1.48,1.48 0.33,2.64 v 0 l 0.63,1.9 v 0 l -2.54,0.9 v 0 l -1.41,1.74 v 0 l -1.82,-0.99 -0.66,-2.31 -0.82,-1.32 -0.99,-1.15 -1.32,-0.99 -2.96,-0.33 0.17,-9.22 -1.48,-0.66 -3.95,0.33 -1.98,0.99 -2.14,0.33 -1.65,0.99 -0.99,1.32 -2.63,0.33 -2.96,0.99 -1.81,-1.48 -1.65,-1.65 h -1.98 v 1.65 l 0.99,0.66 -0.82,1.15 -6.92,-0.49 -4.61,-3.79 -7.25,-0.33 -1.48,1.32 -0.16,1.65 h -1.65 l -0.99,1.48 -1.48,1.32 -1.98,0.33 -0.49,1.81 -2.47,2.14 h -1.81 l -0.16,-1.32 h -4.78 v 1.48 0 l -2.8,-0.49 v 0 l -1.98,-0.99 -2.64,-4.28 v 0 l 0.33,-1.15 v 0 l 1.48,-1.81 v 0 l -1.65,-1.65 h -2.96 v 0 l -2.47,-0.49 -1.98,-0.82 v 0 l -0.16,-1.65 0.99,-2.31 v 0 l 1.98,-0.99 0.49,-1.48 0.17,-1.32 -1.15,-0.82 0.49,-3.29 1.32,-1.48 2.97,-0.33 1.48,-2.14 3.79,-0.82 2.8,-1.81 2.31,-2.14 0.82,-1.98 h 3.62 l 0.82,-1.65 0.99,-0.82 1.48,-0.33 v -1.48 l -1.32,-0.33 -0.66,-1.65 2.47,-1.32 -0.82,-1.81 v 0 l -0.49,-1.32 0.99,-1.15 -0.33,-1.48 2.64,-1.48 0.17,3.29 3.13,-0.66 2.8,-1.98 0.99,-2.14 2.47,-0.66 0.66,-1.65 -1.48,-0.66 -0.16,-3.62 2.97,-2.47 1.81,-2.47 0.66,-2.39 -1.32,-1.48 -0.99,-0.82 1.15,-3.95 0.33,-3.29 h 3.79 l 1.98,-1.98 3.62,-0.16 z m 1.78,29.02 v 0 l -2.96,-1.65 -1.81,1.32 h -1.81 l -0.49,1.81 -1.98,0.17 -1.32,1.65 -0.99,3.29 -1.48,1.15 h -2.47 l -0.99,1.98 1.98,0.66 1.32,1.48 -1.48,2.31 0.33,2.14 1.48,0.17 0.66,3.29 h 3.29 l 1.48,-2.47 v -2.14 l -1.48,-1.98 -0.33,-2.64 2.14,-1.81 1.48,-1.65 0.49,-2.31 3.13,-0.33 0.82,-1.48 1.81,0.99 1.32,-0.16 z"
       style="fill:#000000;fill-opacity:1;stroke:#000000;stroke-width:3.77953;stroke-miterlimit:4;stroke-dasharray:none;stroke-opacity:1" />
    <path
       id="YE-TA"
       title="Tā‘izz"
       class="land"
       d="m 99.48,407.61 0.9,0.48 0.38,-0.12 0.42,0.42 -0.19,0.35 0.24,0.41 -0.12,0.14 0.14,0.32 -0.5,0.53 -0.33,-0.12 0.21,-0.25 -0.15,-0.39 -0.22,0.41 -0.36,0.04 0.26,-0.81 -0.36,-0.44 -0.24,0.41 -0.86,-0.26 0.78,0.81 -1.19,-0.48 -0.36,-0.42 0.17,-0.48 0.38,-0.26 z m 14.7,-78.71 0.66,1.98 v 0 l 0.17,1.81 2.8,0.33 2.31,0.49 0.17,-1.98 1.15,-0.49 1.32,1.81 2.64,-2.31 2.31,-0.16 v 1.65 l -0.66,1.48 0.82,1.48 1.65,-1.48 0.33,-1.32 1.65,-0.49 1.32,1.32 -0.82,1.15 -1.32,1.15 -0.16,1.48 2.97,0.17 1.81,-0.16 2.47,0.66 2.47,1.65 0.82,-1.48 2.8,2.14 3.29,-0.33 v 2.31 h 1.81 l 1.15,-1.48 1.48,-0.82 0.82,1.15 1.48,1.48 1.98,0.49 1.48,-0.82 1.48,-1.48 1.26,-1.71 v 0 l 0.65,0.97 v 0 l 0.49,2.47 -0.16,1.65 -1.81,0.66 0.33,2.47 2.31,0.49 1.32,-0.82 3.46,0.49 1.15,1.48 0.99,1.81 v 0 l -1.81,1.32 -1.65,1.81 -1.81,0.66 -1.48,0.82 -0.82,0.99 -1.48,0.17 -1.48,0.49 -1.32,0.82 0.17,1.98 1.81,0.66 1.81,0.33 1.65,0.66 -0.33,1.65 h -2.14 l -1.81,-0.49 -1.98,0.82 -0.33,1.32 1.32,1.15 -0.99,2.47 1.32,1.65 v 1.98 l -1.81,0.82 -1.15,1.32 -1.65,-0.66 -4.61,0.49 -0.99,-2.47 -1.32,0.17 v 2.8 l -1.48,0.17 0.82,1.81 1.15,1.32 -4.94,-0.16 -0.16,3.79 -3.13,0.16 -0.82,-1.48 -1.15,-0.66 -1.32,0.82 0.17,2.47 -0.99,0.82 -1.65,-1.81 -3.62,-0.66 -1.81,-1.48 h -1.32 l -1.15,0.99 -1.65,0.49 -0.66,1.48 -1.98,0.49 -2.96,-0.49 -0.33,1.48 0.33,5.44 -1.32,1.48 -1.98,0.17 -1.48,2.31 -1.48,3.79 -3.29,5.44 -1.32,1.81 -0.44,2.74 v 0 l -0.57,0.44 -0.09,0.32 -0.28,-0.32 -0.45,0.42 -0.09,-0.48 -0.14,0.35 -0.31,0.07 -0.38,-0.42 -0.19,0.12 0.04,0.34 -0.33,-0.18 -0.19,0.12 0.23,-0.42 h -0.21 l -0.22,0.33 -0.17,-0.07 -0.29,-0.56 0.09,-0.33 -0.41,-0.21 1.18,-1.41 0.26,0.49 0.99,-0.02 -0.78,-0.67 -0.43,0.07 -0.21,-0.18 0.35,-2.71 0.85,-2.64 0.45,-0.79 -0.04,-0.44 -2.42,-2.8 -0.02,-0.39 -1.23,-1.73 -0.52,-1.67 -1.3,-0.92 0.24,-0.25 0.03,-0.6 -0.81,-1.78 -1.83,-2.98 -1.35,-2.89 -2.32,-2.88 -1.69,-2.59 -1.75,-3.39 -0.55,-2.37 -1.12,-1.89 0.05,-0.41 0.31,-0.23 -0.09,0.76 0.78,1.25 0.1,-1.5 -0.28,-0.44 -0.16,-1.02 -0.29,0.11 -0.03,0.63 -0.14,-0.65 0.14,-0.33 0.36,-0.02 0.19,-0.72 -0.41,-0.41 0.4,0.04 0.33,-0.25 0.17,-0.49 0.14,-1.92 -0.14,-3.27 0.42,-0.3 0.14,-0.56 -0.04,-0.34 -0.24,-0.21 0.23,-4.01 0.19,-0.9 0.36,-0.25 -0.1,-0.58 0.5,-1.01 -0.12,-0.35 0.14,-0.49 0.52,-0.76 -0.24,-0.87 0.47,0.02 0.45,-0.57 -0.05,-0.64 -0.5,-0.62 -0.1,-0.9 0.31,-2.24 v 0 l 1.25,-0.42 v 0 l 1.81,-0.66 1.98,-1.15 v 0 l 1.81,-0.33 1.32,-1.15 0.99,-3.46 2.97,-0.33 -0.49,-1.48 v 0 l 0.17,-1.81 0.66,-2.96 v 0 l 3.62,-0.82 2.47,0.49 2.14,-1.32 h 1.71 z"
       style="fill:#000000;fill-opacity:1;stroke:#000000;stroke-width:3.77953;stroke-miterlimit:4;stroke-dasharray:none;stroke-opacity:1" />
  </g>
</svg>
