<?xml version="1.0" encoding="UTF-8" standalone="no"?>
<!-- Created with Inkscape (http://www.inkscape.org/) -->

<svg
   width="1024"
   height="1024"
   viewBox="0 0 270.93333 270.93333"
   version="1.1"
   id="svg8"
   inkscape:version="1.1.2 (b8e25be8, 2022-02-05)"
   sodipodi:docname="bouvetisland.svg.2022_03_11_18_13_51.0.svg"
   inkscape:export-filename="D:\Cartographie\Île Bouvet\Background map ice sheet.png"
   inkscape:export-xdpi="96"
   inkscape:export-ydpi="96"
   xmlns:inkscape="http://www.inkscape.org/namespaces/inkscape"
   xmlns:sodipodi="http://sodipodi.sourceforge.net/DTD/sodipodi-0.dtd"
   xmlns="http://www.w3.org/2000/svg"
   xmlns:svg="http://www.w3.org/2000/svg"
   xmlns:rdf="http://www.w3.org/1999/02/22-rdf-syntax-ns#"
   xmlns:cc="http://creativecommons.org/ns#"
   xmlns:dc="http://purl.org/dc/elements/1.1/">
  <title
     id="title9655">Location map of Bouvet Island</title>
  <defs
     id="defs2" />
  <sodipodi:namedview
     id="base"
     pagecolor="#ffffff"
     bordercolor="#666666"
     borderopacity="1.0"
     inkscape:pageopacity="0.0"
     inkscape:pageshadow="2"
     inkscape:zoom="0.5"
     inkscape:cx="871"
     inkscape:cy="570"
     inkscape:document-units="px"
     inkscape:current-layer="g10011"
     showgrid="false"
     fit-margin-top="0"
     fit-margin-left="0"
     fit-margin-right="0"
     fit-margin-bottom="0"
     units="px"
     inkscape:window-width="1512"
     inkscape:window-height="870"
     inkscape:window-x="0"
     inkscape:window-y="38"
     inkscape:window-maximized="1"
     inkscape:pagecheckerboard="0" />
  <metadata
     id="metadata5">
    <rdf:RDF>
      <cc:Work
         rdf:about="">
        <dc:format>image/svg+xml</dc:format>
        <dc:type
           rdf:resource="http://purl.org/dc/dcmitype/StillImage" />
        <dc:title>Location map of Bouvet Island</dc:title>
        <dc:date>2020/02/17</dc:date>
        <dc:creator>
          <cc:Agent>
            <dc:title>Eric Gaba for Wikimedia Commons</dc:title>
          </cc:Agent>
        </dc:creator>
        <dc:rights>
          <cc:Agent>
            <dc:title>CC-BY-SA 4.0</dc:title>
          </cc:Agent>
        </dc:rights>
        <dc:source>© Norwegian Polar Institute (data) &amp; Eric Gaba (map)</dc:source>
        <dc:description>Location map of Bouvet Island. Equirectangular projection, WGS84, true scale latitude 54.41995° S, central meridian 3.35835° E. Geographic limits of the map: 54.3795° S, 54.4604° S, 003.2667° E, 003.45° E.</dc:description>
        <cc:license
           rdf:resource="http://creativecommons.org/licenses/by-sa/4.0/" />
      </cc:Work>
      <cc:License
         rdf:about="http://creativecommons.org/licenses/by-sa/4.0/">
        <cc:permits
           rdf:resource="http://creativecommons.org/ns#Reproduction" />
        <cc:permits
           rdf:resource="http://creativecommons.org/ns#Distribution" />
        <cc:requires
           rdf:resource="http://creativecommons.org/ns#Notice" />
        <cc:requires
           rdf:resource="http://creativecommons.org/ns#Attribution" />
        <cc:permits
           rdf:resource="http://creativecommons.org/ns#DerivativeWorks" />
        <cc:requires
           rdf:resource="http://creativecommons.org/ns#ShareAlike" />
      </cc:License>
    </rdf:RDF>
  </metadata>
  <g
     inkscape:groupmode="layer"
     id="g10011"
     inkscape:label="Land"
     style="display:inline"
     transform="translate(0,-3.4566982e-5)">
    <g
       id="g10009"
       style="display:inline;fill:#000000;stroke:#000000;stroke-width:10.5859;stroke-miterlimit:4;stroke-dasharray:none;stroke-opacity:1;fill-opacity:1"
       transform="matrix(0.02620642,0,0,-0.02620642,143.81303,-158359.23)">
      <path
         inkscape:connector-curvature="0"
         d="m -726.61774,-6044246 -3.10119,3 -0.0199,4 4.07696,1 1.02039,-5 z"
         id="path9657"
         style="fill:#000000;stroke:#000000;stroke-width:10.5859;stroke-miterlimit:4;stroke-dasharray:none;stroke-opacity:1;fill-opacity:1" />
      <path
         inkscape:connector-curvature="0"
         d="m -236.64349,-6044390 h -4.57982 l 0.97534,4 5.54501,6 3.98752,-1 -1.95067,-8 z"
         id="path9659"
         style="fill:#000000;stroke:#000000;stroke-width:10.5859;stroke-miterlimit:4;stroke-dasharray:none;stroke-opacity:1;fill-opacity:1" />
      <path
         inkscape:connector-curvature="0"
         d="m 903.16931,-6044578 -6.0841,2 -1.01697,4 7.44616,4 3.60029,-3 -0.97437,-4 z"
         id="path9661"
         style="fill:#000000;stroke:#000000;stroke-width:10.5859;stroke-miterlimit:4;stroke-dasharray:none;stroke-opacity:1;fill-opacity:1" />
      <path
         inkscape:connector-curvature="0"
         d="m 1219.5184,-6044711 -3.5226,7 3.4634,4 4.0877,-1 2.0129,-4 -1.9698,-4 z"
         id="path9663"
         style="fill:#000000;stroke:#000000;stroke-width:10.5859;stroke-miterlimit:4;stroke-dasharray:none;stroke-opacity:1;fill-opacity:1" />
      <path
         inkscape:connector-curvature="0"
         d="m 104.47403,-6044721 -4.11831,7 -0.18188,16 6.53547,7 4.18006,-19 -0.97509,-4 z"
         id="path9665"
         style="fill:#000000;stroke:#000000;stroke-width:10.5859;stroke-miterlimit:4;stroke-dasharray:none;stroke-opacity:1;fill-opacity:1" />
      <path
         inkscape:connector-curvature="0"
         d="m 116.74583,-6044747 -1.89786,3 0.37768,4 4.07718,1 2.01197,-4 -1.47294,-4 z"
         id="path9667"
         style="fill:#000000;stroke:#000000;stroke-width:10.5859;stroke-miterlimit:4;stroke-dasharray:none;stroke-opacity:1;fill-opacity:1" />
      <path
         inkscape:connector-curvature="0"
         d="m 1437.4805,-6044748 -4.0878,1 1.3505,8 3.0703,3 h 4.0823 l 1.0229,-5 z"
         id="path9669"
         style="fill:#000000;stroke:#000000;stroke-width:10.5859;stroke-miterlimit:4;stroke-dasharray:none;stroke-opacity:1;fill-opacity:1" />
      <path
         inkscape:connector-curvature="0"
         d="m -4332.8301,-6045264 -3.0996,3 0.979,4 3.5767,2 3,-3 -0.979,-4 z"
         id="path9671"
         style="fill:#000000;stroke:#000000;stroke-width:10.5859;stroke-miterlimit:4;stroke-dasharray:none;stroke-opacity:1;fill-opacity:1" />
      <path
         inkscape:connector-curvature="0"
         d="m -3213.3733,-6045387 -3.0139,6 0.978,4 3.9746,2 4.6116,-7 -2.4717,-4 z"
         id="path9673"
         style="fill:#000000;stroke:#000000;stroke-width:10.5859;stroke-miterlimit:4;stroke-dasharray:none;stroke-opacity:1;fill-opacity:1" />
      <path
         inkscape:connector-curvature="0"
         d="m -2148.2512,-6045420 -3.6223,8 1.4704,5 4.0784,1 3.0015,-3 -1.3523,-9 z"
         id="path9675"
         style="fill:#000000;stroke:#000000;stroke-width:10.5859;stroke-miterlimit:4;stroke-dasharray:none;stroke-opacity:1;fill-opacity:1" />
      <path
         inkscape:connector-curvature="0"
         d="m -2961.9194,-6045454 -0.4163,4 3.4722,3 1.0998,-1 -0.5796,-4 z"
         id="path9677"
         style="fill:#000000;stroke:#000000;stroke-width:10.5859;stroke-miterlimit:4;stroke-dasharray:none;stroke-opacity:1;fill-opacity:1" />
      <path
         inkscape:connector-curvature="0"
         d="m -2544.9526,-6045529 -1.355,2 2.9739,3 4.0876,-1 -0.9778,-4 h -3.6655 z"
         id="path9679"
         style="fill:#000000;stroke:#000000;stroke-width:10.5859;stroke-miterlimit:4;stroke-dasharray:none;stroke-opacity:1;fill-opacity:1" />
      <path
         inkscape:connector-curvature="0"
         d="m -4742.0737,-6045834 -3.5933,2 -0.5146,4 h 8.0673 l -0.3823,-4 z"
         id="path9681"
         style="fill:#000000;stroke:#000000;stroke-width:10.5859;stroke-miterlimit:4;stroke-dasharray:none;stroke-opacity:1;fill-opacity:1" />
      <path
         inkscape:connector-curvature="0"
         d="m 3369.8445,-6045829 -4.5051,4 0.375,4 4.0715,2 3.5034,-3 0.1231,-4 z"
         id="path9683"
         style="fill:#000000;stroke:#000000;stroke-width:10.5859;stroke-miterlimit:4;stroke-dasharray:none;stroke-opacity:1;fill-opacity:1" />
      <path
         inkscape:connector-curvature="0"
         d="m -4979.041,-6046098 -3.3985,1 -2.6933,3 2.478,3 5.5894,-3 z"
         id="path9685"
         style="fill:#000000;stroke:#000000;stroke-width:10.5859;stroke-miterlimit:4;stroke-dasharray:none;stroke-opacity:1;fill-opacity:1" />
      <path
         inkscape:connector-curvature="0"
         d="m -5022.3232,-6046183 -4.8101,3 1.7017,2 3.5781,2 2.6055,-4 z"
         id="path9687"
         style="fill:#000000;stroke:#000000;stroke-width:10.5859;stroke-miterlimit:4;stroke-dasharray:none;stroke-opacity:1;fill-opacity:1" />
      <path
         inkscape:connector-curvature="0"
         d="m -4996.3643,-6046230 -3.4008,1 -0.355,4 1.456,4 2.5694,-2 0.3579,-5 z"
         id="path9689"
         style="fill:#000000;stroke:#000000;stroke-width:10.5859;stroke-miterlimit:4;stroke-dasharray:none;stroke-opacity:1;fill-opacity:1" />
      <path
         inkscape:connector-curvature="0"
         d="m -5061.9141,-6046740 h -1.8838 l -2.975,7 1.7309,3 h 3.6133 l 2.5864,-6 z"
         id="path9691"
         style="fill:#000000;stroke:#000000;stroke-width:10.5859;stroke-miterlimit:4;stroke-dasharray:none;stroke-opacity:1;fill-opacity:1" />
      <path
         inkscape:connector-curvature="0"
         d="m -4808.4331,-6047195 h -4.5825 l -1.0332,9 2.9726,4 3.6231,-9 z"
         id="path9693"
         style="fill:#000000;stroke:#000000;stroke-width:10.5859;stroke-miterlimit:4;stroke-dasharray:none;stroke-opacity:1;fill-opacity:1" />
      <path
         inkscape:connector-curvature="0"
         d="m -4852.1831,-6047852 -2.6025,3 0.9834,3 5.0156,-1 0.6845,-4 z"
         id="path9695"
         style="fill:#000000;stroke:#000000;stroke-width:10.5859;stroke-miterlimit:4;stroke-dasharray:none;stroke-opacity:1;fill-opacity:1" />
      <path
         inkscape:connector-curvature="0"
         d="m -4895.998,-6047932 -1.1084,5 3.559,5 2.5074,-4 -1.4786,-4 z"
         id="path9697"
         style="fill:#000000;stroke:#000000;stroke-width:10.5859;stroke-miterlimit:4;stroke-dasharray:none;stroke-opacity:1;fill-opacity:1" />
      <path
         inkscape:connector-curvature="0"
         d="m -4855.2544,-6048419 -7.0913,4 -0.6143,4 3.5791,2 4.0938,-2 1.5112,-4 z"
         id="path9699"
         style="fill:#000000;stroke:#000000;stroke-width:10.5859;stroke-miterlimit:4;stroke-dasharray:none;stroke-opacity:1;fill-opacity:1" />
      <path
         inkscape:connector-curvature="0"
         d="m -4562.5259,-6048842 -2.5039,3 0.9761,5 2.5083,-4 z"
         id="path9701"
         style="fill:#000000;stroke:#000000;stroke-width:10.5859;stroke-miterlimit:4;stroke-dasharray:none;stroke-opacity:1;fill-opacity:1" />
      <path
         inkscape:connector-curvature="0"
         d="m -5180.9302,-6049385 -7.4863,3 -1.6314,6 3.4805,2 7.1919,-4 -0.6235,-6 z"
         id="path9703"
         style="fill:#000000;stroke:#000000;stroke-width:10.5859;stroke-miterlimit:4;stroke-dasharray:none;stroke-opacity:1;fill-opacity:1" />
      <path
         inkscape:connector-curvature="0"
         d="m -4790.6665,-6049423 -5.5938,3 0.9805,4 3.48,2 h 4.0869 l 3.0025,-3 z"
         id="path9705"
         style="fill:#000000;stroke:#000000;stroke-width:10.5859;stroke-miterlimit:4;stroke-dasharray:none;stroke-opacity:1;fill-opacity:1" />
      <path
         inkscape:connector-curvature="0"
         d="m -4683.2441,-6049489 -0.6148,4 2.0772,4 3.0024,-3 -0.4819,-4 z"
         id="path9707"
         style="fill:#000000;stroke:#000000;stroke-width:10.5859;stroke-miterlimit:4;stroke-dasharray:none;stroke-opacity:1;fill-opacity:1" />
      <path
         inkscape:connector-curvature="0"
         d="m -4663.8047,-6049514 -12.1728,3 -0.016,4 12.044,4 2.6079,-4 z"
         id="path9709"
         style="fill:#000000;stroke:#000000;stroke-width:10.5859;stroke-miterlimit:4;stroke-dasharray:none;stroke-opacity:1;fill-opacity:1" />
      <path
         inkscape:connector-curvature="0"
         d="m -4262.1763,-6049641 -5.6069,6 3.48,2 h 4.0869 l 0.5151,-4 z"
         id="path9711"
         style="fill:#000000;stroke:#000000;stroke-width:10.5859;stroke-miterlimit:4;stroke-dasharray:none;stroke-opacity:1;fill-opacity:1" />
      <path
         inkscape:connector-curvature="0"
         d="m -4056.323,-6049786 -12.6846,6 0.9798,4 8.0698,1 5.1133,-7 z"
         id="path9713"
         style="fill:#000000;stroke:#000000;stroke-width:10.5859;stroke-miterlimit:4;stroke-dasharray:none;stroke-opacity:1;fill-opacity:1" />
      <path
         inkscape:connector-curvature="0"
         d="m -3712.8701,-6050029 -5.1011,4 1.9763,4 4.5899,-1 1.6123,-4 z"
         id="path9715"
         style="fill:#000000;stroke:#000000;stroke-width:10.5859;stroke-miterlimit:4;stroke-dasharray:none;stroke-opacity:1;fill-opacity:1" />
      <path
         inkscape:connector-curvature="0"
         d="m -3246.9688,-6050584 -9.194,5 0.4807,4 4.092,-1 7.0962,-4 z"
         id="path9717"
         style="fill:#000000;stroke:#000000;stroke-width:10.5859;stroke-miterlimit:4;stroke-dasharray:none;stroke-opacity:1;fill-opacity:1" />
      <path
         inkscape:connector-curvature="0"
         d="m 255.59485,-6050764 -4.61733,6 2.57145,4 3.99839,-2 0.33829,-3 z"
         id="path9719"
         style="fill:#000000;stroke:#000000;stroke-width:10.5859;stroke-miterlimit:4;stroke-dasharray:none;stroke-opacity:1;fill-opacity:1" />
      <path
         inkscape:connector-curvature="0"
         d="m 642.81604,-6050797 -7.19952,4 -0.52491,5 4.57575,2 7.59833,-4 z"
         id="path9721"
         style="fill:#000000;stroke:#000000;stroke-width:10.5859;stroke-miterlimit:4;stroke-dasharray:none;stroke-opacity:1;fill-opacity:1" />
      <path
         inkscape:connector-curvature="0"
         d="m 449.79413,-6050836 -1.61615,4 1.97833,3 4.09302,-1 -0.97611,-4 -1.32052,-1 z"
         id="path9723"
         style="fill:#000000;stroke:#000000;stroke-width:10.5859;stroke-miterlimit:4;stroke-dasharray:none;stroke-opacity:1;fill-opacity:1" />
      <path
         inkscape:connector-curvature="0"
         d="m 3301.0498,-6050921 -0.041,7 5.5483,6 4.0938,-1 0.023,-4 -5.5425,-7 z"
         id="path9725"
         style="fill:#000000;stroke:#000000;stroke-width:10.5859;stroke-miterlimit:4;stroke-dasharray:none;stroke-opacity:1;fill-opacity:1" />
      <path
         inkscape:connector-curvature="0"
         d="m -831.23889,-6051152 -3.59943,2 -0.0198,4 3.47497,3 4.09796,-2 -0.47876,-4 z"
         id="path9727"
         style="fill:#000000;stroke:#000000;stroke-width:10.5859;stroke-miterlimit:4;stroke-dasharray:none;stroke-opacity:1;fill-opacity:1" />
      <path
         inkscape:connector-curvature="0"
         d="m -2883.6599,-6051470 -2.5689,3 0.9373,5 h 4.0884 l 3.0051,-3 -1.4778,-4 z"
         id="path9729"
         style="fill:#000000;stroke:#000000;stroke-width:10.5859;stroke-miterlimit:4;stroke-dasharray:none;stroke-opacity:1;fill-opacity:1" />
      <path
         inkscape:connector-curvature="0"
         d="m -421.7565,-6044154 -2.62268,1 -1.76544,3 0.84967,5 2.61389,1 3.05856,-1 1.75989,-3 0.022,-5 z"
         id="path9731"
         style="fill:#000000;stroke:#000000;stroke-width:10.5859;stroke-miterlimit:4;stroke-dasharray:none;stroke-opacity:1;fill-opacity:1" />
      <path
         inkscape:connector-curvature="0"
         d="m -637.79218,-6044169 -11.16528,3 -7.19794,6 -2.65313,13 1.45349,8 2.46899,4 4.07678,1 9.38874,-2 10.37317,-8 2.17041,-16 -3.14069,-5 z"
         id="path9733"
         style="fill:#000000;stroke:#000000;stroke-width:10.5859;stroke-miterlimit:4;stroke-dasharray:none;stroke-opacity:1;fill-opacity:1" />
      <path
         inkscape:connector-curvature="0"
         d="m 969.9245,-6044217 -1.99487,1 -1.8584,1 -1.32446,2 1.87451,3 1.61944,1 3.05976,-1 1.02221,-5 z"
         id="path9735"
         style="fill:#000000;stroke:#000000;stroke-width:10.5859;stroke-miterlimit:4;stroke-dasharray:none;stroke-opacity:1;fill-opacity:1" />
      <path
         inkscape:connector-curvature="0"
         d="m 950.93866,-6044221 -2.48853,2 -2.41052,4 1.17578,2 1.79492,1 3.98761,-1 1.61426,-4 -1.91607,-3 z"
         id="path9737"
         style="fill:#000000;stroke:#000000;stroke-width:10.5859;stroke-miterlimit:4;stroke-dasharray:none;stroke-opacity:1;fill-opacity:1" />
      <path
         inkscape:connector-curvature="0"
         d="m 928.21136,-6044251 -9.18597,5 -4.12445,8 3.29987,16 3.56805,3 4.09253,-2 2.00714,-3 h 4.08185 l 6.04101,6 h 3.9823 l 5.88391,-11 -2.20922,-6 -5.94153,-6 -4.04462,-7 z"
         id="path9739"
         style="fill:#000000;stroke:#000000;stroke-width:10.5859;stroke-miterlimit:4;stroke-dasharray:none;stroke-opacity:1;fill-opacity:1" />
      <path
         inkscape:connector-curvature="0"
         d="m -219.13718,-6044426 -5.10811,6 -0.0203,4 0.35656,4 0.95705,4 0.49284,1 h 3.79193 1.51465 l 5.49074,-1 3.9977,-3 0.61767,-4 -4.04144,-8 z"
         id="path9741"
         style="fill:#000000;stroke:#000000;stroke-width:10.5859;stroke-miterlimit:4;stroke-dasharray:none;stroke-opacity:1;fill-opacity:1" />
      <path
         inkscape:connector-curvature="0"
         d="m 1093.1472,-6044669 -3.3055,2 -2.2042,2 1.2458,2 1.7251,1 1.9702,1 2.1121,-1 0.5193,-4 z"
         id="path9743"
         style="fill:#000000;stroke:#000000;stroke-width:10.5859;stroke-miterlimit:4;stroke-dasharray:none;stroke-opacity:1;fill-opacity:1" />
      <path
         inkscape:connector-curvature="0"
         d="m 1279.868,-6044683 h -2.2026 l -0.7585,2 1.153,3 1.4141,1 1.6515,1 2.3312,-1 -0.01,-2 -0.5484,-1 -1.2261,-2 z"
         id="path9745"
         style="fill:#000000;stroke:#000000;stroke-width:10.5859;stroke-miterlimit:4;stroke-dasharray:none;stroke-opacity:1;fill-opacity:1" />
      <path
         inkscape:connector-curvature="0"
         d="m 1274.421,-6044711 -1.2377,1 -0.7921,1 -1.5944,4 1.5035,2 2.7585,-2 0.6918,-3 z"
         id="path9747"
         style="fill:#000000;stroke:#000000;stroke-width:10.5859;stroke-miterlimit:4;stroke-dasharray:none;stroke-opacity:1;fill-opacity:1" />
      <path
         inkscape:connector-curvature="0"
         d="m 1086.1508,-6044722 -9.0822,4 -1.6145,4 1.4667,5 4.5694,2 8.0757,-2 3.0032,-3 0.6295,-6 -3.0705,-3 z"
         id="path9749"
         style="fill:#000000;stroke:#000000;stroke-width:10.5859;stroke-miterlimit:4;stroke-dasharray:none;stroke-opacity:1;fill-opacity:1" />
      <path
         inkscape:connector-curvature="0"
         d="m 667.53943,-6044738 -2.49451,1 -1.39239,2 -0.2218,2 1.57397,2 h 2.4978 1.65601 l 1.34686,-3 z"
         id="path9751"
         style="fill:#000000;stroke:#000000;stroke-width:10.5859;stroke-miterlimit:4;stroke-dasharray:none;stroke-opacity:1;fill-opacity:1" />
      <path
         inkscape:connector-curvature="0"
         d="m 600.43024,-6044757 -4.6012,4 2.0752,3 6.94354,5 4.08758,-1 0.61847,-4 -0.96942,-5 z"
         id="path9753"
         style="fill:#000000;stroke:#000000;stroke-width:10.5859;stroke-miterlimit:4;stroke-dasharray:none;stroke-opacity:1;fill-opacity:1" />
      <path
         inkscape:connector-curvature="0"
         d="m 658.7309,-6044767 -3.10242,3 -1.01679,4 2.47345,3 4.08765,-1 0.51886,-4 -1.97028,-4 z"
         id="path9755"
         style="fill:#000000;stroke:#000000;stroke-width:10.5859;stroke-miterlimit:4;stroke-dasharray:none;stroke-opacity:1;fill-opacity:1" />
      <path
         inkscape:connector-curvature="0"
         d="m 493.68225,-6044781 -1.87561,1 -1.37091,1 0.0592,2 0.69712,2 1.86844,1 h 2.1091 l 1.13476,-2 0.65802,-2 -1.48471,-1 z"
         id="path9757"
         style="fill:#000000;stroke:#000000;stroke-width:10.5859;stroke-miterlimit:4;stroke-dasharray:none;stroke-opacity:1;fill-opacity:1" />
      <path
         inkscape:connector-curvature="0"
         d="m 807.28424,-6044786 -5.67554,2 -1.11645,4 1.47235,4 4.07178,2 h 3.98279 l 3.6004,-3 0.51904,-4 -3.112,-3 z"
         id="path9759"
         style="fill:#000000;stroke:#000000;stroke-width:10.5859;stroke-miterlimit:4;stroke-dasharray:none;stroke-opacity:1;fill-opacity:1" />
      <path
         inkscape:connector-curvature="0"
         d="m 1720.5405,-6044834 -6.5936,4 -5.7416,12 2.4728,3 16.2631,-6 1.6151,-4 -0.9738,-4 z"
         id="path9761"
         style="fill:#000000;stroke:#000000;stroke-width:10.5859;stroke-miterlimit:4;stroke-dasharray:none;stroke-opacity:1;fill-opacity:1" />
      <path
         inkscape:connector-curvature="0"
         d="m 1711.4502,-6044883 -0.3798,2 -1.7387,3 -0.2284,2 0.2064,2 4.4294,-2 h 0.9284 l 2.3312,-2 -0.7034,-2 -0.7682,-2 -1.9186,-1 z"
         id="path9763"
         style="fill:#000000;stroke:#000000;stroke-width:10.5859;stroke-miterlimit:4;stroke-dasharray:none;stroke-opacity:1;fill-opacity:1" />
      <path
         inkscape:connector-curvature="0"
         d="m 3167.8071,-6045075 h -3.7341 l -3.6079,3 -1.0191,4 0.6402,5 1.4411,4 7.4285,2 9.0469,1 3.1042,-3 0.023,-4 -3.9319,-6 -5.0654,-5 z"
         id="path9765"
         style="fill:#000000;stroke:#000000;stroke-width:10.5859;stroke-miterlimit:4;stroke-dasharray:none;stroke-opacity:1;fill-opacity:1" />
      <path
         inkscape:connector-curvature="0"
         d="m -1447.5406,-6045114 -4.6094,6 -1.015,4 0.9765,4 3.9783,1 3.1061,-4 0.5364,-8 z"
         id="path9767"
         style="fill:#000000;stroke:#000000;stroke-width:10.5859;stroke-miterlimit:4;stroke-dasharray:none;stroke-opacity:1;fill-opacity:1" />
      <path
         inkscape:connector-curvature="0"
         d="m -1458.5698,-6045119 -3.1012,3 -1.513,4 1.4745,4 h 3.9831 l 2.1056,-3 -0.4787,-4 z"
         id="path9769"
         style="fill:#000000;stroke:#000000;stroke-width:10.5859;stroke-miterlimit:4;stroke-dasharray:none;stroke-opacity:1;fill-opacity:1" />
      <path
         inkscape:connector-curvature="0"
         d="m -1510.0934,-6045131 -5.1024,5 0.9574,8 2.973,3 4.0874,-1 3.5944,-2 1.5128,-4 -0.9766,-4 z"
         id="path9771"
         style="fill:#000000;stroke:#000000;stroke-width:10.5859;stroke-miterlimit:4;stroke-dasharray:none;stroke-opacity:1;fill-opacity:1" />
      <path
         inkscape:connector-curvature="0"
         d="m -4601.314,-6045165 -1,1 -4.0786,-1 -3.5932,2 1.9589,8 3.5762,2 4.1157,-8 z"
         id="path9773"
         style="fill:#000000;stroke:#000000;stroke-width:10.5859;stroke-miterlimit:4;stroke-dasharray:none;stroke-opacity:1;fill-opacity:1" />
      <path
         inkscape:connector-curvature="0"
         d="m -4344.4478,-6045272 -3.9917,2 -2.6059,4 2.4731,4 4.0869,-1 3.0997,-3 0.5146,-4 z"
         id="path9775"
         style="fill:#000000;stroke:#000000;stroke-width:10.5859;stroke-miterlimit:4;stroke-dasharray:none;stroke-opacity:1;fill-opacity:1" />
      <path
         inkscape:connector-curvature="0"
         d="m -5326.5786,-6045286 -3.605,5 0.4819,4 3.4776,2 3.5928,-2 1.0117,-4 -0.98,-4 z"
         id="path9777"
         style="fill:#000000;stroke:#000000;stroke-width:10.5859;stroke-miterlimit:4;stroke-dasharray:none;stroke-opacity:1;fill-opacity:1" />
      <path
         inkscape:connector-curvature="0"
         d="m -4544.1016,-6045301 h -1.5542 l -5.9174,3 1.4775,4 h 4.5806 l 3.4936,-2 -0.9795,-4 z"
         id="path9779"
         style="fill:#000000;stroke:#000000;stroke-width:10.5859;stroke-miterlimit:4;stroke-dasharray:none;stroke-opacity:1;fill-opacity:1" />
      <path
         inkscape:connector-curvature="0"
         d="m -2140.6587,-6045361 -3.1057,4 0.9724,5 2.9736,3 4.0923,-2 1.0144,-4 -1.9685,-5 z"
         id="path9781"
         style="fill:#000000;stroke:#000000;stroke-width:10.5859;stroke-miterlimit:4;stroke-dasharray:none;stroke-opacity:1;fill-opacity:1" />
      <path
         inkscape:connector-curvature="0"
         d="m -3097.7122,-6045385 -0.5327,1 -2.8205,2 -0.6153,4 3.5762,2 2.6025,-3 0.022,-4 z"
         id="path9783"
         style="fill:#000000;stroke:#000000;stroke-width:10.5859;stroke-miterlimit:4;stroke-dasharray:none;stroke-opacity:1;fill-opacity:1" />
      <path
         inkscape:connector-curvature="0"
         d="m 2531.7117,-6045380 -5.8274,4 -2.1082,3 0.9676,5 4.0771,1 3.989,-1 1.1179,-4 z"
         id="path9785"
         style="fill:#000000;stroke:#000000;stroke-width:10.5859;stroke-miterlimit:4;stroke-dasharray:none;stroke-opacity:1;fill-opacity:1" />
      <path
         inkscape:connector-curvature="0"
         d="m -2704.4287,-6045445 -1.0142,4 -3.594,2 -3.2111,6 -1.9222,6 0.9778,4 3.4719,3 6.1065,-7 2.6777,-6 1.5591,-6 -1.4756,-4 z"
         id="path9787"
         style="fill:#000000;stroke:#000000;stroke-width:10.5859;stroke-miterlimit:4;stroke-dasharray:none;stroke-opacity:1;fill-opacity:1" />
      <path
         inkscape:connector-curvature="0"
         d="m 2543.6064,-6045428 -5.1484,4 -2.9978,3 2.3792,4 3.0986,3 3.7522,-1 3.8389,-3 1.1237,-5 -2.0686,-4 z"
         id="path9789"
         style="fill:#000000;stroke:#000000;stroke-width:10.5859;stroke-miterlimit:4;stroke-dasharray:none;stroke-opacity:1;fill-opacity:1" />
      <path
         inkscape:connector-curvature="0"
         d="m -2676.4771,-6045460 -2.4675,2 -0.6377,2 0.9778,4 1.8394,1 2.7414,-1 2.105,-3 -0.48,-4 z"
         id="path9791"
         style="fill:#000000;stroke:#000000;stroke-width:10.5859;stroke-miterlimit:4;stroke-dasharray:none;stroke-opacity:1;fill-opacity:1" />
      <path
         inkscape:connector-curvature="0"
         d="m -2706.7236,-6045466 -3.1009,3 -0.8254,2 0.8074,2 1.978,3 h 2.115 l 1.4792,-2 0.5161,-4 -0.9758,-2 z"
         id="path9793"
         style="fill:#000000;stroke:#000000;stroke-width:10.5859;stroke-miterlimit:4;stroke-dasharray:none;stroke-opacity:1;fill-opacity:1" />
      <path
         inkscape:connector-curvature="0"
         d="m -2591.8838,-6045469 -3.5989,3 2.4578,7 4.5764,1 4.0921,-2 2.0146,-5 -2.9739,-3 h -4.083 z"
         id="path9795"
         style="fill:#000000;stroke:#000000;stroke-width:10.5859;stroke-miterlimit:4;stroke-dasharray:none;stroke-opacity:1;fill-opacity:1" />
      <path
         inkscape:connector-curvature="0"
         d="m -3477.5654,-6045480 -4.594,3 -1.0135,4 2.9747,3 h 4.083 l 3.1001,-3 -0.4805,-4 z"
         id="path9797"
         style="fill:#000000;stroke:#000000;stroke-width:10.5859;stroke-miterlimit:4;stroke-dasharray:none;stroke-opacity:1;fill-opacity:1" />
      <path
         inkscape:connector-curvature="0"
         d="m 2593.9275,-6045450 -2.595,1 -10.1091,9 -0.6714,13 4.0715,2 8.0948,-5 5.645,-12 z"
         id="path9799"
         style="fill:#000000;stroke:#000000;stroke-width:10.5859;stroke-miterlimit:4;stroke-dasharray:none;stroke-opacity:1;fill-opacity:1" />
      <path
         inkscape:connector-curvature="0"
         d="m -2973.6123,-6045476 -5.7178,-4 -6.5993,6 -2.625,8 1.9379,12 4.0921,-2 z"
         id="path9801"
         style="fill:#000000;stroke:#000000;stroke-width:10.5859;stroke-miterlimit:4;stroke-dasharray:none;stroke-opacity:1;fill-opacity:1" />
      <path
         inkscape:connector-curvature="0"
         d="m -3531.5884,-6045492 -5.0918,3 0.4805,4 4.0742,2 3.4985,-3 0.615,-4 z"
         id="path9803"
         style="fill:#000000;stroke:#000000;stroke-width:10.5859;stroke-miterlimit:4;stroke-dasharray:none;stroke-opacity:1;fill-opacity:1" />
      <path
         inkscape:connector-curvature="0"
         d="m -3501.6951,-6045496 -1.5156,5 2.9746,3 3.5982,-3 -0.9786,-4 z"
         id="path9805"
         style="fill:#000000;stroke:#000000;stroke-width:10.5859;stroke-miterlimit:4;stroke-dasharray:none;stroke-opacity:1;fill-opacity:1" />
      <path
         inkscape:connector-curvature="0"
         d="m -2636.6921,-6045492 -7.691,5 0.9869,2 8.1569,2 3.0013,-3 -0.4798,-4 z"
         id="path9807"
         style="fill:#000000;stroke:#000000;stroke-width:10.5859;stroke-miterlimit:4;stroke-dasharray:none;stroke-opacity:1;fill-opacity:1" />
      <path
         inkscape:connector-curvature="0"
         d="m -3513.0664,-6045501 -4.7441,1 0.4804,4 3.4768,2 2.6023,-3 z"
         id="path9809"
         style="fill:#000000;stroke:#000000;stroke-width:10.5859;stroke-miterlimit:4;stroke-dasharray:none;stroke-opacity:1;fill-opacity:1" />
      <path
         inkscape:connector-curvature="0"
         d="m 2893.0437,-6045548 -0.2693,2 0.059,1 1.1152,2 1.3572,2 h 1.792 l 2.0134,-1 -0.188,-2 -0.5071,-1 -1.7256,-2 h -1.2209 z"
         id="path9811"
         style="fill:#000000;stroke:#000000;stroke-width:10.5859;stroke-miterlimit:4;stroke-dasharray:none;stroke-opacity:1;fill-opacity:1" />
      <path
         inkscape:connector-curvature="0"
         d="m -4427.0483,-6045596 -2.0044,3 h -4.083 l -9.0079,3 -6.7602,5 0.5386,14 3.3408,11 2.9751,3 4.0791,1 7.6938,-6 8.1035,-9 -1.2265,-12 z"
         id="path9813"
         style="fill:#000000;stroke:#000000;stroke-width:10.5859;stroke-miterlimit:4;stroke-dasharray:none;stroke-opacity:1;fill-opacity:1" />
      <path
         inkscape:connector-curvature="0"
         d="m 3094.1699,-6045590 h -1.4939 l -3.0659,3 -1.5557,4 3.4393,8 4.413,5 6.0967,3 4.0889,-1 7.2051,-6 -4.7871,-8 -6.2854,-6 z"
         id="path9815"
         style="fill:#000000;stroke:#000000;stroke-width:10.5859;stroke-miterlimit:4;stroke-dasharray:none;stroke-opacity:1;fill-opacity:1" />
      <path
         inkscape:connector-curvature="0"
         d="m 3147.4888,-6045614 h -2.9878 l -4.1004,3 2.2862,4 3.7539,2 3.5029,-3 1.1187,-4 z"
         id="path9817"
         style="fill:#000000;stroke:#000000;stroke-width:10.5859;stroke-miterlimit:4;stroke-dasharray:none;stroke-opacity:1;fill-opacity:1" />
      <path
         inkscape:connector-curvature="0"
         d="m 3155.0571,-6045622 h -1.3474 l 0.5567,4 1.8923,3 1.1511,1 2.8323,-1 -1.5222,-4 -1.9226,-3 z"
         id="path9819"
         style="fill:#000000;stroke:#000000;stroke-width:10.5859;stroke-miterlimit:4;stroke-dasharray:none;stroke-opacity:1;fill-opacity:1" />
      <path
         inkscape:connector-curvature="0"
         d="m 3233.2446,-6045632 -6.6194,8 -0.6208,4 4.0774,1 7.0998,-5 -0.9668,-5 z"
         id="path9821"
         style="fill:#000000;stroke:#000000;stroke-width:10.5859;stroke-miterlimit:4;stroke-dasharray:none;stroke-opacity:1;fill-opacity:1" />
      <path
         inkscape:connector-curvature="0"
         d="m -4558.9087,-6045836 -17.7358,2 -17.7569,7 -1.0122,4 2.4776,3 21.707,1 25.8154,-5 0.1157,-4 -1.979,-3 z"
         id="path9823"
         style="fill:#000000;stroke:#000000;stroke-width:10.5859;stroke-miterlimit:4;stroke-dasharray:none;stroke-opacity:1;fill-opacity:1" />
      <path
         inkscape:connector-curvature="0"
         d="m -4542.6543,-6045841 -3.104,4 1.9751,4 5.0835,-1 -0.9795,-4 z"
         id="path9825"
         style="fill:#000000;stroke:#000000;stroke-width:10.5859;stroke-miterlimit:4;stroke-dasharray:none;stroke-opacity:1;fill-opacity:1" />
      <path
         inkscape:connector-curvature="0"
         d="m -4738.7842,-6045859 -5.5898,3 -0.1201,5 4.5732,2 4.0957,-3 0.5142,-4 z"
         id="path9827"
         style="fill:#000000;stroke:#000000;stroke-width:10.5859;stroke-miterlimit:4;stroke-dasharray:none;stroke-opacity:1;fill-opacity:1" />
      <path
         inkscape:connector-curvature="0"
         d="m -4853.4463,-6046048 -5.0835,1 -2.1035,3 -0.02,5 3.4736,3 4.5899,-2 3.1201,-8 z"
         id="path9829"
         style="fill:#000000;stroke:#000000;stroke-width:10.5859;stroke-miterlimit:4;stroke-dasharray:none;stroke-opacity:1;fill-opacity:1" />
      <path
         inkscape:connector-curvature="0"
         d="m -5412.8105,-6046070 -5.5894,2 -0.6138,4 3.0762,3 3.9839,1 2.103,-3 0.016,-4 z"
         id="path9831"
         style="fill:#000000;stroke:#000000;stroke-width:10.5859;stroke-miterlimit:4;stroke-dasharray:none;stroke-opacity:1;fill-opacity:1" />
      <path
         inkscape:connector-curvature="0"
         d="m -4944.5513,-6046105 -7.6894,5 -2.0244,8 2.976,3 4.5855,-1 4.1118,-7 0.016,-4 z"
         id="path9833"
         style="fill:#000000;stroke:#000000;stroke-width:10.5859;stroke-miterlimit:4;stroke-dasharray:none;stroke-opacity:1;fill-opacity:1" />
      <path
         inkscape:connector-curvature="0"
         d="m 3582.9246,-6046073 -4.0953,2 -0.4538,4 0.4065,4 2.9643,4 4.0894,-1 3.0056,-3 0.1233,-4 -1.9683,-4 z"
         id="path9835"
         style="fill:#000000;stroke:#000000;stroke-width:10.5859;stroke-miterlimit:4;stroke-dasharray:none;stroke-opacity:1;fill-opacity:1" />
      <path
         inkscape:connector-curvature="0"
         d="m -4948.4546,-6046125 -7.5776,2 -11.1792,6 -1.5103,4 0.98,4 4.9717,2 8.0835,-4 z"
         id="path9837"
         style="fill:#000000;stroke:#000000;stroke-width:10.5859;stroke-miterlimit:4;stroke-dasharray:none;stroke-opacity:1;fill-opacity:1" />
      <path
         inkscape:connector-curvature="0"
         d="m -4902.0156,-6046145 -4.8408,5 2.5732,4 h 3.9839 l 2.1079,-4 1.0083,-3 z"
         id="path9839"
         style="fill:#000000;stroke:#000000;stroke-width:10.5859;stroke-miterlimit:4;stroke-dasharray:none;stroke-opacity:1;fill-opacity:1" />
      <path
         inkscape:connector-curvature="0"
         d="m -5009.4492,-6046184 h -1.3462 l -5.9663,5 -3.5381,6 -2.1939,5 1.9302,3 3.6338,3 5.5308,-3 6.1548,-5 2.3525,-5 1.2729,-5 -1.9794,-3 z"
         id="path9841"
         style="fill:#000000;stroke:#000000;stroke-width:10.5859;stroke-miterlimit:4;stroke-dasharray:none;stroke-opacity:1;fill-opacity:1" />
      <path
         inkscape:connector-curvature="0"
         d="m 3848.0115,-6046296 -1.4448,2 -0.02,3 2.5313,3 1.7097,1 1.5532,-2 -1.5156,-5 z"
         id="path9843"
         style="fill:#000000;stroke:#000000;stroke-width:10.5859;stroke-miterlimit:4;stroke-dasharray:none;stroke-opacity:1;fill-opacity:1" />
      <path
         inkscape:connector-curvature="0"
         d="m 3785.3047,-6046305 h -6.5737 l -3.1055,3 0.3249,4 3.1136,4 4.5756,1 3.4441,-2 3.763,-4 -1.4702,-4 z"
         id="path9845"
         style="fill:#000000;stroke:#000000;stroke-width:10.5859;stroke-miterlimit:4;stroke-dasharray:none;stroke-opacity:1;fill-opacity:1" />
      <path
         inkscape:connector-curvature="0"
         d="m 3822.5195,-6046321 -2.5454,1 -1.291,3 0.6458,2 1.7453,1 2.1189,1 2.1301,-2 1.4566,-2 0.2595,-3 -1.3132,-1 z"
         id="path9847"
         style="fill:#000000;stroke:#000000;stroke-width:10.5859;stroke-miterlimit:4;stroke-dasharray:none;stroke-opacity:1;fill-opacity:1" />
      <path
         inkscape:connector-curvature="0"
         d="m -5041.333,-6046441 -2.5899,2 -0.8847,2 0.3823,4 3.5776,2 3.5938,-2 1.0122,-4 -2.478,-3 h -1.1919 z"
         id="path9849"
         style="fill:#000000;stroke:#000000;stroke-width:10.5859;stroke-miterlimit:4;stroke-dasharray:none;stroke-opacity:1;fill-opacity:1" />
      <path
         inkscape:connector-curvature="0"
         d="m 3841.0024,-6046415 h -4.0454 l -1.5178,4 2.7234,3 3.4224,2 1.6809,-1 1.823,-2 0.3945,-3 0.1333,-2 z"
         id="path9851"
         style="fill:#000000;stroke:#000000;stroke-width:10.5859;stroke-miterlimit:4;stroke-dasharray:none;stroke-opacity:1;fill-opacity:1" />
      <path
         inkscape:connector-curvature="0"
         d="m -5080.2505,-6046614 -4.1123,7 7.5303,10 0.5303,-8 z"
         id="path9853"
         style="fill:#000000;stroke:#000000;stroke-width:10.5859;stroke-miterlimit:4;stroke-dasharray:none;stroke-opacity:1;fill-opacity:1" />
      <path
         inkscape:connector-curvature="0"
         d="m -5077.9751,-6046759 -1.6924,2 -0.3198,3 0.1562,3 1.336,2 2.958,3 1.4473,-1 0.9467,-3 0.7222,-3 -1.9761,-4 z"
         id="path9855"
         style="fill:#000000;stroke:#000000;stroke-width:10.5859;stroke-miterlimit:4;stroke-dasharray:none;stroke-opacity:1;fill-opacity:1" />
      <path
         inkscape:connector-curvature="0"
         d="m -4943.4634,-6046915 -4.9648,4 -0.749,3 0.9702,1 h 2.6196 l 1.2817,-1 0.8262,-3 z"
         id="path9857"
         style="fill:#000000;stroke:#000000;stroke-width:10.5859;stroke-miterlimit:4;stroke-dasharray:none;stroke-opacity:1;fill-opacity:1" />
      <path
         inkscape:connector-curvature="0"
         d="m -4929.6514,-6046930 h -5.084 l -2.6728,4 -0.01,1 1.0713,1 h 2.145 l 3.436,-2 z"
         id="path9859"
         style="fill:#000000;stroke:#000000;stroke-width:10.5859;stroke-miterlimit:4;stroke-dasharray:none;stroke-opacity:1;fill-opacity:1" />
      <path
         inkscape:connector-curvature="0"
         d="m -4930.4429,-6046956 -3.9961,2 -1.6025,3 0.2397,2 0.2149,1 4.6069,-1 0.4761,-5 z"
         id="path9861"
         style="fill:#000000;stroke:#000000;stroke-width:10.5859;stroke-miterlimit:4;stroke-dasharray:none;stroke-opacity:1;fill-opacity:1" />
      <path
         inkscape:connector-curvature="0"
         d="m 4339.0859,-6046887 0.9463,5 7.5952,-4 5.8672,-8 3.899,-9 -1.9683,-4 -3.9722,-2 -4.0903,1 -5.7559,9 z"
         id="path9863"
         style="fill:#000000;stroke:#000000;stroke-width:10.5859;stroke-miterlimit:4;stroke-dasharray:none;stroke-opacity:1;fill-opacity:1" />
      <path
         inkscape:connector-curvature="0"
         d="m -4924.2046,-6046969 h -1.1357 l -3.5635,2 -1.0127,4 2.8555,1 2.7231,-1 1.0127,-4 z"
         id="path9865"
         style="fill:#000000;stroke:#000000;stroke-width:10.5859;stroke-miterlimit:4;stroke-dasharray:none;stroke-opacity:1;fill-opacity:1" />
      <path
         inkscape:connector-curvature="0"
         d="m 4338.9863,-6046923 -2.1162,4 0.4741,4 1.4966,1 1.9717,2 2.6079,-3 -0.4673,-5 z"
         id="path9867"
         style="fill:#000000;stroke:#000000;stroke-width:10.5859;stroke-miterlimit:4;stroke-dasharray:none;stroke-opacity:1;fill-opacity:1" />
      <path
         inkscape:connector-curvature="0"
         d="m -4897.2153,-6046994 h -2.5904 l -3.0048,4 -0.1158,4 1.9585,1 2.624,-1 z"
         id="path9869"
         style="fill:#000000;stroke:#000000;stroke-width:10.5859;stroke-miterlimit:4;stroke-dasharray:none;stroke-opacity:1;fill-opacity:1" />
      <path
         inkscape:connector-curvature="0"
         d="m -4877.6274,-6047034 h -3.0884 l -0.5142,4 2.9722,4 3.5986,-3 1.0127,-4 z"
         id="path9871"
         style="fill:#000000;stroke:#000000;stroke-width:10.5859;stroke-miterlimit:4;stroke-dasharray:none;stroke-opacity:1;fill-opacity:1" />
      <path
         inkscape:connector-curvature="0"
         d="m -4858.959,-6047076 -3.6587,1 0.482,4 3.4785,2 z"
         id="path9873"
         style="fill:#000000;stroke:#000000;stroke-width:10.5859;stroke-miterlimit:4;stroke-dasharray:none;stroke-opacity:1;fill-opacity:1" />
      <path
         inkscape:connector-curvature="0"
         d="m -4855.875,-6047736 -2.9692,3 -0.5142,4 2.9766,3 4.0932,-2 2.6026,-3 -2.5743,-4 z"
         id="path9875"
         style="fill:#000000;stroke:#000000;stroke-width:10.5859;stroke-miterlimit:4;stroke-dasharray:none;stroke-opacity:1;fill-opacity:1" />
      <path
         inkscape:connector-curvature="0"
         d="m -4833.1973,-6047755 -1.6494,1 -0.036,9 -3.6152,7 6.9252,12 11.1958,-9 h 8.1705 l 4.1171,-8 -2.956,-8 -13.1563,1 -7.5517,-5 z"
         id="path9877"
         style="fill:#000000;stroke:#000000;stroke-width:10.5859;stroke-miterlimit:4;stroke-dasharray:none;stroke-opacity:1;fill-opacity:1" />
      <path
         inkscape:connector-curvature="0"
         d="m -4843.917,-6047831 h -1.9346 l -4.0293,1 0.98,4 4.0728,3 h 3.9853 l 3.1011,-3 -2.4746,-4 z"
         id="path9879"
         style="fill:#000000;stroke:#000000;stroke-width:10.5859;stroke-miterlimit:4;stroke-dasharray:none;stroke-opacity:1;fill-opacity:1" />
      <path
         inkscape:connector-curvature="0"
         d="m -4862.9795,-6047895 -2.3564,2 0.8525,3 2.1538,2 2.687,1 3.2222,-1 0.016,-4 z"
         id="path9881"
         style="fill:#000000;stroke:#000000;stroke-width:10.5859;stroke-miterlimit:4;stroke-dasharray:none;stroke-opacity:1;fill-opacity:1" />
      <path
         inkscape:connector-curvature="0"
         d="m -4883.793,-6047944 -2.1557,1 -1.7808,1 1.3057,5 3.084,4 2.2255,-1 0.7759,-2 -0.3779,-5 z"
         id="path9883"
         style="fill:#000000;stroke:#000000;stroke-width:10.5859;stroke-miterlimit:4;stroke-dasharray:none;stroke-opacity:1;fill-opacity:1" />
      <path
         inkscape:connector-curvature="0"
         d="m 4750.8052,-6048116 h -1.5943 l -1.1967,2 -0.8204,2 0.2657,2 0.6064,2 1.6758,1 1.8989,1 1.6621,-2 1.4453,-1 -0.087,-2 -0.3862,-2 -1.4658,-2 z"
         id="path9885"
         style="fill:#000000;stroke:#000000;stroke-width:10.5859;stroke-miterlimit:4;stroke-dasharray:none;stroke-opacity:1;fill-opacity:1" />
      <path
         inkscape:connector-curvature="0"
         d="m 4757.5981,-6048125 -3.2558,1 0.3877,2 0.6929,2 0.6074,2 0.9663,1 1.6103,-1 1.2842,-1 -0.9863,-3 z"
         id="path9887"
         style="fill:#000000;stroke:#000000;stroke-width:10.5859;stroke-miterlimit:4;stroke-dasharray:none;stroke-opacity:1;fill-opacity:1" />
      <path
         inkscape:connector-curvature="0"
         d="m -4784.77,-6048207 -3.604,4 1.977,4 3.5786,2 h 3.9859 l 3.1015,-3 -0.9804,-4 z"
         id="path9889"
         style="fill:#000000;stroke:#000000;stroke-width:10.5859;stroke-miterlimit:4;stroke-dasharray:none;stroke-opacity:1;fill-opacity:1" />
      <path
         inkscape:connector-curvature="0"
         d="m -4788.2046,-6048220 9.043,6 h 4.0854 l 3.1055,-4 z"
         id="path9891"
         style="fill:#000000;stroke:#000000;stroke-width:10.5859;stroke-miterlimit:4;stroke-dasharray:none;stroke-opacity:1;fill-opacity:1" />
      <path
         inkscape:connector-curvature="0"
         d="m -4787.0396,-6048237 0.4903,2 -3.1011,3 3.0767,3 3.4956,-2 0.1162,-4 z"
         id="path9893"
         style="fill:#000000;stroke:#000000;stroke-width:10.5859;stroke-miterlimit:4;stroke-dasharray:none;stroke-opacity:1;fill-opacity:1" />
      <path
         inkscape:connector-curvature="0"
         d="m -4830.8691,-6048314 -4.0894,1 2.4746,4 4.0816,1 1.0127,-4 z"
         id="path9895"
         style="fill:#000000;stroke:#000000;stroke-width:10.5859;stroke-miterlimit:4;stroke-dasharray:none;stroke-opacity:1;fill-opacity:1" />
      <path
         inkscape:connector-curvature="0"
         d="m -4852.5474,-6048325 -3.1054,4 3.0766,3 3.4961,-2 0.5147,-4 z"
         id="path9897"
         style="fill:#000000;stroke:#000000;stroke-width:10.5859;stroke-miterlimit:4;stroke-dasharray:none;stroke-opacity:1;fill-opacity:1" />
      <path
         inkscape:connector-curvature="0"
         d="m -4832.3188,-6048325 -2.001,2 2.4746,4 3.1015,-3 z"
         id="path9899"
         style="fill:#000000;stroke:#000000;stroke-width:10.5859;stroke-miterlimit:4;stroke-dasharray:none;stroke-opacity:1;fill-opacity:1" />
      <path
         inkscape:connector-curvature="0"
         d="m -4849.9199,-6048334 -2.6114,5 4.0816,1 2.0054,-3 z"
         id="path9901"
         style="fill:#000000;stroke:#000000;stroke-width:10.5859;stroke-miterlimit:4;stroke-dasharray:none;stroke-opacity:1;fill-opacity:1" />
      <path
         inkscape:connector-curvature="0"
         d="m -4859.4536,-6048342 -5.0903,1 0.4819,4 3.9819,2 8.0757,-1 0.6143,-4 z"
         id="path9903"
         style="fill:#000000;stroke:#000000;stroke-width:10.5859;stroke-miterlimit:4;stroke-dasharray:none;stroke-opacity:1;fill-opacity:1" />
      <path
         inkscape:connector-curvature="0"
         d="m -4884.7114,-6048356 -2.0215,7 2.977,3 h 4.086 l 1.5107,-4 -2.4751,-4 z"
         id="path9905"
         style="fill:#000000;stroke:#000000;stroke-width:10.5859;stroke-miterlimit:4;stroke-dasharray:none;stroke-opacity:1;fill-opacity:1" />
      <path
         inkscape:connector-curvature="0"
         d="m -4871.8999,-6048369 -5.0981,3 1.4624,8 h 4.0854 l 6.103,-5 -2.5747,-4 z"
         id="path9907"
         style="fill:#000000;stroke:#000000;stroke-width:10.5859;stroke-miterlimit:4;stroke-dasharray:none;stroke-opacity:1;fill-opacity:1" />
      <path
         inkscape:connector-curvature="0"
         d="m -4590.9336,-6048720 -11.6846,6 0.482,4 3.5752,3 h 8.5708 l 3.5996,-3 3.521,-8 z"
         id="path9909"
         style="fill:#000000;stroke:#000000;stroke-width:10.5859;stroke-miterlimit:4;stroke-dasharray:none;stroke-opacity:1;fill-opacity:1" />
      <path
         inkscape:connector-curvature="0"
         d="m -4568.1602,-6048829 -4.5927,2 -1.0132,4 3.48,2 4.0903,-1 1.0127,-4 z"
         id="path9911"
         style="fill:#000000;stroke:#000000;stroke-width:10.5859;stroke-miterlimit:4;stroke-dasharray:none;stroke-opacity:1;fill-opacity:1" />
      <path
         inkscape:connector-curvature="0"
         d="m -4571.603,-6048840 -2.6118,5 3.5795,2 2.0098,-4 z"
         id="path9913"
         style="fill:#000000;stroke:#000000;stroke-width:10.5859;stroke-miterlimit:4;stroke-dasharray:none;stroke-opacity:1;fill-opacity:1" />
      <path
         inkscape:connector-curvature="0"
         d="m -4575.8032,-6048933 -4.0904,1 -2.6118,5 1.9766,4 h 4.0864 l 3.6001,-3 0.016,-4 z"
         id="path9915"
         style="fill:#000000;stroke:#000000;stroke-width:10.5859;stroke-miterlimit:4;stroke-dasharray:none;stroke-opacity:1;fill-opacity:1" />
      <path
         inkscape:connector-curvature="0"
         d="m -4631.4355,-6049170 -4.6094,6 0.4819,4 2.9776,3 3.6005,-3 1.5113,-4 -0.482,-4 z"
         id="path9917"
         style="fill:#000000;stroke:#000000;stroke-width:10.5859;stroke-miterlimit:4;stroke-dasharray:none;stroke-opacity:1;fill-opacity:1" />
      <path
         inkscape:connector-curvature="0"
         d="m -5240.3564,-6049365 -4.961,2 -3.0127,6 -0.7192,5 h 4.0869 l 5.9702,-2 5.7188,-5 0.1157,-4 z"
         id="path9919"
         style="fill:#000000;stroke:#000000;stroke-width:10.5859;stroke-miterlimit:4;stroke-dasharray:none;stroke-opacity:1;fill-opacity:1" />
      <path
         inkscape:connector-curvature="0"
         d="m -5217.8818,-6049377 -4.065,2 4.9556,7 -2.0254,8 -4.0981,3 1.479,4 3.9829,1 8.6831,-3 2.1133,-5 -0.961,-9 -5.5576,-6 z"
         id="path9921"
         style="fill:#000000;stroke:#000000;stroke-width:10.5859;stroke-miterlimit:4;stroke-dasharray:none;stroke-opacity:1;fill-opacity:1" />
      <path
         inkscape:connector-curvature="0"
         d="m -5206.1309,-6049392 -1.4218,5 0.3891,4 3.4805,2 4.0903,-1 2.5078,-4 -0.9804,-4 z"
         id="path9923"
         style="fill:#000000;stroke:#000000;stroke-width:10.5859;stroke-miterlimit:4;stroke-dasharray:none;stroke-opacity:1;fill-opacity:1" />
      <path
         inkscape:connector-curvature="0"
         d="m -4321.126,-6049394 -2.0146,5 -4.0948,2 -0.5151,4 3.9829,1 7.6997,-6 -0.98,-4 z"
         id="path9925"
         style="fill:#000000;stroke:#000000;stroke-width:10.5859;stroke-miterlimit:4;stroke-dasharray:none;stroke-opacity:1;fill-opacity:1" />
      <path
         inkscape:connector-curvature="0"
         d="m -5194.2778,-6049415 -3.1021,3 -1.5146,5 2.4795,3 4.0825,1 3.0024,-3 1.1123,-4 -0.074,-4 z"
         id="path9927"
         style="fill:#000000;stroke:#000000;stroke-width:10.5859;stroke-miterlimit:4;stroke-dasharray:none;stroke-opacity:1;fill-opacity:1" />
      <path
         inkscape:connector-curvature="0"
         d="m -4755.6201,-6049438 -1.8208,4 -1.7881,1 -1.0132,4 2.978,3 4.5889,-1 0.017,-4 -1.3017,-3 -0.5826,-1 z"
         id="path9929"
         style="fill:#000000;stroke:#000000;stroke-width:10.5859;stroke-miterlimit:4;stroke-dasharray:none;stroke-opacity:1;fill-opacity:1" />
      <path
         inkscape:connector-curvature="0"
         d="m -5228.812,-6049453 -6.9985,3 -2.6939,3 -0.6299,8 1.9776,4 3.58,2 4.73,-6 1.5098,-9 z"
         id="path9931"
         style="fill:#000000;stroke:#000000;stroke-width:10.5859;stroke-miterlimit:4;stroke-dasharray:none;stroke-opacity:1;fill-opacity:1" />
      <path
         inkscape:connector-curvature="0"
         d="m -4652.3042,-6049499 -4.5273,3 -1.5777,3 -2.1054,3 3.5761,3 9.0576,3 4.0948,-2 2.0058,-3 0.017,-4 -2.4756,-4 z"
         id="path9933"
         style="fill:#000000;stroke:#000000;stroke-width:10.5859;stroke-miterlimit:4;stroke-dasharray:none;stroke-opacity:1;fill-opacity:1" />
      <path
         inkscape:connector-curvature="0"
         d="m -4622.7104,-6049521 -3.6255,9 3.4394,12 3.48,2 8.0698,1 3.6211,-8 -1.9809,-3 z"
         id="path9935"
         style="fill:#000000;stroke:#000000;stroke-width:10.5859;stroke-miterlimit:4;stroke-dasharray:none;stroke-opacity:1;fill-opacity:1" />
      <path
         inkscape:connector-curvature="0"
         d="m -4264.8057,-6049632 h -4.0869 l -4.4936,2 -2.1099,4 3.0772,3 4.4814,1 4.0947,-2 1.5122,-4 z"
         id="path9937"
         style="fill:#000000;stroke:#000000;stroke-width:10.5859;stroke-miterlimit:4;stroke-dasharray:none;stroke-opacity:1;fill-opacity:1" />
      <path
         inkscape:connector-curvature="0"
         d="m -4157.5464,-6049681 -0.8916,1 -3.1987,2 0.8686,5 3.7154,3 4.977,-1 2.5777,-4 0.1167,-4 z"
         id="path9939"
         style="fill:#000000;stroke:#000000;stroke-width:10.5859;stroke-miterlimit:4;stroke-dasharray:none;stroke-opacity:1;fill-opacity:1" />
      <path
         inkscape:connector-curvature="0"
         d="m -4145.7339,-6049693 -1.8159,3 0.8784,2 2.8438,2 3.0566,-2 -0.98,-4 z"
         id="path9941"
         style="fill:#000000;stroke:#000000;stroke-width:10.5859;stroke-miterlimit:4;stroke-dasharray:none;stroke-opacity:1;fill-opacity:1" />
      <path
         inkscape:connector-curvature="0"
         d="m -4164.7666,-6049718 -3.1147,4 0.9794,6 4.0782,2 3.5014,-3 0.6148,-4 z"
         id="path9943"
         style="fill:#000000;stroke:#000000;stroke-width:10.5859;stroke-miterlimit:4;stroke-dasharray:none;stroke-opacity:1;fill-opacity:1" />
      <path
         inkscape:connector-curvature="0"
         d="m -4013.2742,-6049783 -4.5979,3 -1.6118,4 3.5757,3 5.6118,-7 z"
         id="path9945"
         style="fill:#000000;stroke:#000000;stroke-width:10.5859;stroke-miterlimit:4;stroke-dasharray:none;stroke-opacity:1;fill-opacity:1" />
      <path
         inkscape:connector-curvature="0"
         d="m -3917.1943,-6049827 -3.1031,3 -1.0136,4 2.479,3 4.0827,1 2.0105,-4 -0.9795,-4 z"
         id="path9947"
         style="fill:#000000;stroke:#000000;stroke-width:10.5859;stroke-miterlimit:4;stroke-dasharray:none;stroke-opacity:1;fill-opacity:1" />
      <path
         inkscape:connector-curvature="0"
         d="m -3723.9126,-6049988 -8.0786,1 -2.5095,4 5.9594,5 4.0913,-1 z"
         id="path9949"
         style="fill:#000000;stroke:#000000;stroke-width:10.5859;stroke-miterlimit:4;stroke-dasharray:none;stroke-opacity:1;fill-opacity:1" />
      <path
         inkscape:connector-curvature="0"
         d="m -3684.2124,-6050058 -5.0466,3 -1.0867,5 3.4758,3 h 4.0872 l 3.0036,-3 -0.1201,-7 z"
         id="path9951"
         style="fill:#000000;stroke:#000000;stroke-width:10.5859;stroke-miterlimit:4;stroke-dasharray:none;stroke-opacity:1;fill-opacity:1" />
      <path
         inkscape:connector-curvature="0"
         d="m -3616.8208,-6050178 -6.0896,2 0.9795,4 3.5757,3 3.5022,-3 1.6123,-4 z"
         id="path9953"
         style="fill:#000000;stroke:#000000;stroke-width:10.5859;stroke-miterlimit:4;stroke-dasharray:none;stroke-opacity:1;fill-opacity:1" />
      <path
         inkscape:connector-curvature="0"
         d="m -3424.7776,-6050460 -7.2087,7 1.9765,4 h 4.0874 l 3.6021,-3 z"
         id="path9955"
         style="fill:#000000;stroke:#000000;stroke-width:10.5859;stroke-miterlimit:4;stroke-dasharray:none;stroke-opacity:1;fill-opacity:1" />
      <path
         inkscape:connector-curvature="0"
         d="m 3419.8037,-6050650 -2.4233,2 -1.6878,2 -0.2112,2 0.6863,2 h 2.002 2.0854 l 0.739,-2 0.2815,-2 -0.2595,-2 z"
         id="path9957"
         style="fill:#000000;stroke:#000000;stroke-width:10.5859;stroke-miterlimit:4;stroke-dasharray:none;stroke-opacity:1;fill-opacity:1" />
      <path
         inkscape:connector-curvature="0"
         d="m 383.7515,-6050771 -3.99845,2 -4.62793,8 2.97534,3 8.07053,1 3.59964,-2 0.54544,-9 -0.67773,-2 z"
         id="path9959"
         style="fill:#000000;stroke:#000000;stroke-width:10.5859;stroke-miterlimit:4;stroke-dasharray:none;stroke-opacity:1;fill-opacity:1" />
      <path
         inkscape:connector-curvature="0"
         d="m 438.0304,-6050779 -7.60862,6 -0.51941,4 6.5828,5 8.03134,3 2.01492,-4 -0.47757,-4 -4.4447,-8 z"
         id="path9961"
         style="fill:#000000;stroke:#000000;stroke-width:10.5859;stroke-miterlimit:4;stroke-dasharray:none;stroke-opacity:1;fill-opacity:1" />
      <path
         inkscape:connector-curvature="0"
         d="m 2331.7185,-6050782 h -1.4954 l -1.2263,1 -0.8901,3 0.5261,2 0.947,2 h 2.1487 l 1.9334,1 1.8012,-2 1.8047,-1 -2.7217,-4 z"
         id="path9963"
         style="fill:#000000;stroke:#000000;stroke-width:10.5859;stroke-miterlimit:4;stroke-dasharray:none;stroke-opacity:1;fill-opacity:1" />
      <path
         inkscape:connector-curvature="0"
         d="m 2815.4761,-6050782 -4.5921,1 1.4551,7 5.5547,5 3.6008,-2 -2.4465,-8 z"
         id="path9965"
         style="fill:#000000;stroke:#000000;stroke-width:10.5859;stroke-miterlimit:4;stroke-dasharray:none;stroke-opacity:1;fill-opacity:1" />
      <path
         inkscape:connector-curvature="0"
         d="m 245.97345,-6050812 -1.10776,2 -0.80386,4 0.76304,4 2.75052,1 2.71332,-1 3.22574,-3 1.01776,-4 -4.23768,-2 z"
         id="path9967"
         style="fill:#000000;stroke:#000000;stroke-width:10.5859;stroke-miterlimit:4;stroke-dasharray:none;stroke-opacity:1;fill-opacity:1" />
      <path
         inkscape:connector-curvature="0"
         d="m 1583.2756,-6050825 -1.6985,5 -0.3448,4 2.9746,3 4.1043,-3 1.617,-3 -2.5757,-4 z"
         id="path9969"
         style="fill:#000000;stroke:#000000;stroke-width:10.5859;stroke-miterlimit:4;stroke-dasharray:none;stroke-opacity:1;fill-opacity:1" />
      <path
         inkscape:connector-curvature="0"
         d="m 784.30054,-6050846 -2.91095,1 -1.45606,6 4.83319,2 3.23737,-1 2.00995,-3 -1.92798,-5 z"
         id="path9971"
         style="fill:#000000;stroke:#000000;stroke-width:10.5859;stroke-miterlimit:4;stroke-dasharray:none;stroke-opacity:1;fill-opacity:1" />
      <path
         inkscape:connector-curvature="0"
         d="m 1229.5925,-6050870 h -2.115 l -0.4275,2 -0.7888,2 -0.2154,3 h 1.7104 2.0782 l 0.2412,-4 -0.32,-2 z"
         id="path9973"
         style="fill:#000000;stroke:#000000;stroke-width:10.5859;stroke-miterlimit:4;stroke-dasharray:none;stroke-opacity:1;fill-opacity:1" />
      <path
         inkscape:connector-curvature="0"
         d="m 1457.4625,-6050900 -3.0902,5 -1.556,6 1.2962,2 2.1771,1 1.6285,-1 1.9715,-1 1.2997,-3 0.8214,-2 -2.1319,-4 z"
         id="path9975"
         style="fill:#000000;stroke:#000000;stroke-width:10.5859;stroke-miterlimit:4;stroke-dasharray:none;stroke-opacity:1;fill-opacity:1" />
      <path
         inkscape:connector-curvature="0"
         d="m 926.45923,-6050906 -4.13117,2 -0.98571,4 0.47717,4 4.48132,1 3.10675,-3 -0.39019,-3 z"
         id="path9977"
         style="fill:#000000;stroke:#000000;stroke-width:10.5859;stroke-miterlimit:4;stroke-dasharray:none;stroke-opacity:1;fill-opacity:1" />
      <path
         inkscape:connector-curvature="0"
         d="m -2975.1072,-6050942 h -3.4299 l -2.4229,4 1.6934,5 3.0862,1 3.7849,-1 0.3498,-3 -1.0114,-3 z"
         id="path9979"
         style="fill:#000000;stroke:#000000;stroke-width:10.5859;stroke-miterlimit:4;stroke-dasharray:none;stroke-opacity:1;fill-opacity:1" />
      <path
         inkscape:connector-curvature="0"
         d="m 903.32959,-6050925 -3.11743,5 0.47717,4 3.57868,2 3.99346,-1 0.4198,-4 -1.87268,-4 z"
         id="path9981"
         style="fill:#000000;stroke:#000000;stroke-width:10.5859;stroke-miterlimit:4;stroke-dasharray:none;stroke-opacity:1;fill-opacity:1" />
      <path
         inkscape:connector-curvature="0"
         d="m 3566.436,-6050915 -1.2221,3 -0.3147,4 3.9821,1 3.6011,-2 -1.9643,-5 z"
         id="path9983"
         style="fill:#000000;stroke:#000000;stroke-width:10.5859;stroke-miterlimit:4;stroke-dasharray:none;stroke-opacity:1;fill-opacity:1" />
      <path
         inkscape:connector-curvature="0"
         d="m 3609.2571,-6050940 -1.992,2 -1.6152,1 -0.21,2 0.1863,2 h 2.0254 l 2.0684,-1 -0.116,-4 z"
         id="path9985"
         style="fill:#000000;stroke:#000000;stroke-width:10.5859;stroke-miterlimit:4;stroke-dasharray:none;stroke-opacity:1;fill-opacity:1" />
      <path
         inkscape:connector-curvature="0"
         d="m -1136.6968,-6051172 -6.9144,1 -0.7588,2 5.3886,6 2.9967,-1 4.6837,-2 0.9134,-3 z"
         id="path9987"
         style="fill:#000000;stroke:#000000;stroke-width:10.5859;stroke-miterlimit:4;stroke-dasharray:none;stroke-opacity:1;fill-opacity:1" />
      <path
         inkscape:connector-curvature="0"
         d="m -1714.7067,-6051440 h -3.3711 l -3.2149,1 -2.0033,2 -1.0071,2 2.4785,3 h 3.9887 l 3.2298,-2 3.3751,-3 z"
         id="path9989"
         style="fill:#000000;stroke:#000000;stroke-width:10.5859;stroke-miterlimit:4;stroke-dasharray:none;stroke-opacity:1;fill-opacity:1" />
      <path
         inkscape:connector-curvature="0"
         d="m -1689.3503,-6051446 -2.2762,3 -1.2473,4 1.9668,2 h 2.0123 l 3.717,-1 3.8852,-4 -4.2746,-2 z"
         id="path9991"
         style="fill:#000000;stroke:#000000;stroke-width:10.5859;stroke-miterlimit:4;stroke-dasharray:none;stroke-opacity:1;fill-opacity:1" />
      <path
         inkscape:connector-curvature="0"
         d="m -2861.9353,-6051467 -4.551,1 -3.041,2 2.4794,3 h 4.3584 l 3.2291,-2 z"
         id="path9993"
         style="fill:#000000;stroke:#000000;stroke-width:10.5859;stroke-miterlimit:4;stroke-dasharray:none;stroke-opacity:1;fill-opacity:1" />
      <path
         inkscape:connector-curvature="0"
         d="m -2901.2649,-6051480 -4.0298,2 -3.1767,4 0.4807,4 4.0837,1 3.9917,-1 3.596,-1 0.097,-4 -1.0578,-4 z"
         id="path9995"
         style="fill:#000000;stroke:#000000;stroke-width:10.5859;stroke-miterlimit:4;stroke-dasharray:none;stroke-opacity:1;fill-opacity:1" />
      <path
         inkscape:connector-curvature="0"
         d="m -2873.2766,-6051495 -8.689,3 -5.1169,7 0.4804,4 2.4795,3 5.2491,3 6.3952,2 5.8784,-3 3.7349,-6 0.6165,-4 -0.9793,-4 -4.0747,-3 -2.8833,-2 z"
         id="path9997"
         style="fill:#000000;stroke:#000000;stroke-width:10.5859;stroke-miterlimit:4;stroke-dasharray:none;stroke-opacity:1;fill-opacity:1" />
      <path
         inkscape:connector-curvature="0"
         d="m -2256.0205,-6051494 -3.3306,4 -1.2981,5 2.9776,3 4.093,-1 0.7959,-4 -0.2603,-4 z"
         id="path9999"
         style="fill:#000000;stroke:#000000;stroke-width:10.5859;stroke-miterlimit:4;stroke-dasharray:none;stroke-opacity:1;fill-opacity:1" />
      <path
         inkscape:connector-curvature="0"
         d="m -2228.1809,-6051498 h -3.9888 l -4.0083,2 -2.5962,3 -0.6169,4 4.0791,2 3.2849,-1 4.3076,-2 1.614,-4 z"
         id="path10001"
         style="fill:#000000;stroke:#000000;stroke-width:10.5859;stroke-miterlimit:4;stroke-dasharray:none;stroke-opacity:1;fill-opacity:1" />
      <path
         inkscape:connector-curvature="0"
         d="m -3250.1543,-6051599 -3.6033,3 1.9768,4 3.5811,2 h 3.9888 l 1.1145,-4 -3.0735,-4 z"
         id="path10003"
         style="fill:#000000;stroke:#000000;stroke-width:10.5859;stroke-miterlimit:4;stroke-dasharray:none;stroke-opacity:1;fill-opacity:1" />
      <path
         inkscape:connector-curvature="0"
         d="m -3198.5552,-6051653 -7.6008,5 -2.0122,4 -7.1975,4 -2.0122,4 8.0639,3 4.0931,-1 12.0571,2 1.4783,4 -2.0123,4 -8.0861,2 -0.1175,4 6.0564,6 3.9532,8 -5.6197,8 -18.0913,-13 -9.1697,-2 -14.6987,9 -1.1145,4 3.0779,3 17.1164,8 4.4519,8 -3.5034,3 h -4.0886 l 0.9795,4 2.9739,4 8.0639,3 6.0518,8 3.437,12 -12.6863,4 -0.018,4 16.9898,14 -2.0342,9 7.5652,4 29.7932,5 18.217,7 7.9241,12 10.634,8 0.4763,5 -8.1989,5 18.5935,12 9.5327,9 -1.5137,4 5.5574,6 -1.6221,6 -3.1045,3 9.034,9 25.3098,4 8.0634,3 1.9588,8 6.0513,7 h 25.8261 l 12.1787,-3 2.5108,-4 7.2016,-5 21.2439,-1 7.7049,-6 20.79,-11 13.8462,-18 28.0147,-21 5.2797,-21 -9.5234,-11 -2.3394,-12 -6.0556,-6 -4.093,1 -4.1424,12 -5.602,4 1.1553,-13 -2.9063,-19 -7.8518,-28 -3.4766,-3 -8.5669,-2 -11.3039,8 -2.4751,-4 -2.4527,-9 -21.0373,-24 -12.6555,-2 -7.062,-4 -8.0728,-1 -1.5137,4 -0.1445,10 -13.8147,12 -6.9536,-6 -16.6128,-9 -9.0076,-15 -31.7392,-16 h -4.0884 l -4.1021,3 -4.1418,12 -7.5652,-3 h -3.9888 l -2.1074,3 h -4.0886 l -3.4768,-3 -7.8977,-18 -1.4602,-8 -2.575,-4 -8.0549,-5 h -8.5759 l -3.4993,2 -2.134,9 -4.093,1 -2.9737,-4 0.018,-4 -7.0356,-10 z"
         id="path10005"
         style="fill:#000000;stroke:#000000;stroke-width:10.5859;stroke-miterlimit:4;stroke-dasharray:none;stroke-opacity:1;fill-opacity:1" />
      <path
         inkscape:connector-curvature="0"
         d="m -860.57147,-6051108 h -6.58069 l -33.21368,-18 -18.23188,-3 -22.20544,-6 -4.09302,1 -16.14789,-1 -16.78051,5 -37.47082,-4 h -22.235 l -17.7776,6 h -9.0735 l -31.2302,-16 -9.1487,-5 h -21.7365 l -17.2546,1 -24.2196,-2 -13.6113,-11 -12.6533,-2 -28.7382,-16 -4.448,-8 -9.3265,-30 -7.5537,-5 -12.1841,4 -28.9209,1 -6.9507,-6 -13.1568,-1 -5.55,-7 -8.062,-3 -3.4753,-3 -0.9778,-4 -3.5751,-3 -12.6535,-2 -15.4777,-16 -9.1589,-3 -13.1717,2 -15.6064,-10 h -13.6605 l -29.2575,-13 -16.0715,-17 -12.0315,-7 -4.4534,-7 -25.255,-15 -1.975,-4 -0.9538,-9 -2.9771,-3 -24.6953,-7 -7.0221,-12 -3.979,-2 -68.7165,-18 -18.2525,1 -8.0434,-7 -8.0625,-3 -34.5108,1 -48.879,-17 -12.1556,-2 -18.0817,-14 -21.8234,-3 -16.6714,4 -7.0514,-6 -12.6449,-4 -6.5527,-6 -17.118,-7 -1.9328,-13 -12.3084,-33 -13.3285,14 -26.5287,21 -26.8189,-1 -34.5487,10 -22.374,8 -17.1558,1 -41.6141,7 -17.7821,7 h -4.5869 l -25.8684,8 -88.1297,-4 -10.5324,-8 -18.1158,-7 h -13.6611 l -52.0862,-14 h -13.1626 l -7.103,5 -4.093,1 -25.6987,-7 -17.731,-4 -46.0872,4 -47.5278,-8 -20.3603,4 -15.1338,-5 -36.3782,-4 -17.2783,6 -8.0679,-3 -21.8423,1 -4.6008,3 -16.3406,19 -4.0974,2 -20.9182,17 -91.8606,27 -12.1563,-2 -1.9714,-5 -3.4809,-2 h -4.587 l -11.2043,8 -16.7703,3 -32.2668,-9 0.018,-4 -7.0253,-12 -3.9751,-3 -10.7012,7 -27.4441,5 -3.5037,3 -3.6213,7 -2.3381,32 22.2641,60 -1.6181,5 -8.0857,2 -2.1075,3 3.3951,21 2.9008,20 -14.9609,23 1.9536,9 -4.5268,53 -18.1643,48 -4.2959,24 -9.7439,16 -2.1524,12 -12.0635,44 -27.0556,30 -3.648,13 -11.3027,8 -4.1419,12 -7.1059,6 -16.9446,21 -3.0268,8 -35.2217,28 -9.2666,21 -20.5288,20 -0.5074,2 -2.5061,3 -24.5717,76 -3.701,25 -7.7619,19 -28.1004,19 -6.8271,33 -13.3267,15 -4.5906,1 -12.6528,-2 -18.7612,4 -3.9837,-1 -63.4106,67 -33.1104,25 -18.4589,26 -9.3645,21 -6.6065,6 -1.5132,4 0.4807,4 -12.3374,17 -0.5161,4 1.4734,5 -1.1145,4 -21.7685,8 -3.6111,5 -10.1997,7 -10.7378,16 -37.1653,17 -19.2319,-2 -13.6275,-7 -17.8244,18 -4.0918,1 -2.4749,-4 h -4.5859 l -16.3289,18 -22.856,6 -5.2844,23 3.4192,16 -0.6506,12 -9.2373,15 -6.2595,18 -22.4573,29 -11.8291,15 -22.4307,22 -18.9285,20 -7.1994,5 -1.0186,5 1.4778,4 -3.9917,1 0.3594,9 -3.1206,7 -11.2044,9 -1.5127,4 0.3335,15 -9.2104,9 0.9319,15 -2.1109,4 -9.0847,3 -5.1404,13 -4.1003,3 -12.1792,4 -1.6382,10 -8.2568,19 h -8.6726 l 3.3894,23 -2.6438,12 -6.6053,6 -7.2509,17 1.9807,3 -2.6785,20 -8.2607,20 -16.9202,16 -2.6091,4 -1.0747,18 -6.2063,6 -16.7725,6 -6.1111,7 -5.0923,2 -21.7439,3 -12.187,6 -12.1657,1 -15.7757,6 -14.8476,22 -16.7593,3 -1.0142,4 4.43,13 -7.7442,16 -3.5971,2 -17.6265,-4 -10.6958,7 h -4.5855 l -7.5586,-4 -1.5166,5 6.952,6 -6.7645,20 -0.068,15 -4.1214,8 -2.643,12 -6.7,5 -13.7331,18 -4.0911,1 -5.4097,-17 -29.757,-11 -17.2234,-5 -3.4973,2 -5.7117,7 -3.4973,2 -8.0696,-1 -3.5972,2 -22.2326,1 -3.6014,3 3.9532,8 -0.524,6 -2.6044,3 -24.3599,9 -24.8115,-2 -6.1104,7 h -8.074 l -3.1027,3 -0.5196,5 -7.198,5 -1.0139,4 -3.0029,2 -4.0911,1 -23.1828,-10 h -4.087 l -0.5151,4 4.4517,8 0.4814,4 -2.5049,3 -4.0908,1 -2.9775,-3 -4.5811,-1 -2.6299,9 -14.2959,10 3.0562,8 -3.103,3 h -4.0865 l 0.4771,5 7.5542,5 -3.1236,8 1.4781,4 0.7705,30 -2.6084,4 -10.5957,7 -26.6655,36 -23.379,13 -2.1098,4 -0.1548,13 -11.687,6 -16.6245,-5 -12.6675,2 1.4785,4 3.4805,2 2.5747,4 7.5542,5 1.9765,4 -2.1308,9 1.478,4 2.9776,3 -1.0176,5 -9.7315,15 h -8.0737 l -22.9751,11 -3.6597,17 -20.2505,4 -13.8095,13 0.4819,4 2.9732,4 0.9799,4 -1.666,17 0.959,9 10.5278,9 -1.645,12 13.5669,21 0.3735,6 -2.5044,3 -8.1982,6 -9.71,10 -3.9951,2 -4.581,-1 -10.0371,-7 -27.2515,-14 -1.5117,4 0.9761,5 14.0073,11 -0.5152,4 -6.1049,6 -24.7886,-7 -3.4966,2 -4.6143,7 -29.4316,7 -2.1059,3 -27.4839,18 -12.355,22 -3.4971,2 -4.0781,-2 -1.478,-4 -15.4615,-21 -25.2827,-8 -17.0605,-20 -3.314,-18 1.0298,-8 -1.2793,-28 -5.9512,-7 -4.0825,-1 -47.7134,17 -6.603,6 -8.1772,1 -8.5342,-9 -2.3179,-18 4.7754,-22 2.2085,-28 -3.9541,-8 -9.5313,-9 h -4.0864 l -5.1206,9 -12.6709,3 -12.1396,-5 -4.481,-1 -7.6914,4 0.9761,5 -3.9951,2 -9.1778,2 -2.0102,4 -0.1158,4 3.5508,9 3.4722,4 0.4819,4 -2.1093,4 -4.0909,1 -30.7534,-11 -6.1089,7 -3.1225,8 2.9165,18 -9.211,9 -8.0693,-1 -3.6006,3 -3.1225,8 8.9838,21 20.521,27 3.9541,8 55.3472,42 9.5601,2 39.477,-2 6.0674,3 12.0107,12 2.2554,33 -6.1333,13 -23.521,24 -7.7817,26 -3.1021,3 -21.1836,-11 -1.0132,4 14.295,38 -0.2188,29 9.3731,23 3.3647,30 12.3218,33 5.374,26 -2.1465,12 1.4785,4 7.0552,6 1.3374,14 8.5093,15 -1.6318,9 0.9633,7 -4.6176,8 0.9804,4 -0.664,16 12.977,19 10.0283,10 -0.017,4 -6.7431,15 -6.5982,5 -2.0097,4 0.3818,4 -3.6416,13 2.9155,18 -3.6372,12 10.4854,19 1.4619,8 -8.0591,45 -10.231,16 -5.1323,12 -7.6899,4 -1.5112,4 1.4619,8 -23.7334,52 -14.8023,13 -4.6128,7 -13.8017,12 -8.7071,9 -9.0727,1 -12.1372,-5 -12.6763,5 -9.2012,8 -4.4882,1 -12.2784,4 -13.2031,12 -0.6308,8 -3.1382,12 -8.0801,2 -6.5977,5 -3.122,8 1.4458,12 -4.251,16 -4.0938,2 -12.0459,-3 -2.6235,8 7.5327,10 -0.016,4 -8.2124,10 -16.2637,5 -7.2236,12 -11.7002,10 -16.6333,-2 -4.5923,2 -14.4883,34 -10.1967,8 5.873,26 -2.1089,4 1.4053,22 -4.0894,1 -11.643,-4 -2.0049,3 1.9766,4 34.6269,37 35.1484,31 12.9561,24 -0.6143,4 3.9449,10 5.8559,30 -0.667,17 1.4575,9 10.5298,8 0.4781,5 -6.6055,7 -12.6753,5 -3.1011,3 -3.1748,21 6.5147,64 -11.0489,45 -35.0556,20 -9.7022,9 -2.7837,23 -13.8198,17 -15.4746,32 -1.0166,5 -5.6162,9 0.98,4 -0.6343,9 14.2725,43 3.9204,16 10.6245,9 0.8725,6 -1.6836,22 2.4541,9 7.0498,6 1.462,8 -7.5928,5 7.8974,18 17.5826,13 12.4399,28 -0.6304,8 1.462,8 -0.5186,5 5.5752,1 2.977,3 0.4576,10 4.9243,14 -3.2822,23 13.4726,19 3.9321,13 -3.0214,8 -8.6724,1 -29.2471,-11 -3.603,4 1.956,9 23.7671,11 1.4786,4 -0.6304,8 7.8847,21 7.8316,34 13.4106,34 -0.6792,20 -7.3877,28 2.7769,25 0.9214,4 1.3413,30 -9.7251,15 3.9194,16 12.7393,52 -7.8609,22 2.3843,26 -3.2656,19 -12.8296,19 -6.6484,17 -5.209,7 -0.5147,4 1.9356,14 -4.7681,21 -13.311,15 -1.0122,4 -15.4478,26 0.98,4 -6.1055,7 -16.1552,4 -2.1123,5 2.956,8 4.9756,4 -4.0117,9 -14.0342,41 -5.167,9 -13.4038,16 -19.2886,25 -3.7671,20 -4.1123,7 -18.9092,20 -5.1167,9 -12.5913,58 -3.5986,3 -1.6099,4 -9.5791,4 h -12.1533 l -15.7759,9 -5.1167,9 -5.0961,4 -4.1167,8 -3.1001,3 -0.5186,5 3.418,17 -1.128,8 -18.4057,19 -0.4937,-1 -3.4985,3 -7.7149,11 -4.0922,2 -3.0205,8 1.8081,21 -8.919,38 -4.5781,-1 -3.104,4 -2.5225,8 -7.0283,-11 -5.0723,-2 -3.9882,1 -0.016,4 1.2793,4 5.6089,17 -0.5141,4 1.8447,12 -0.6704,18 15.2143,56 12.2622,47 6.2261,37 2.9722,4 -1.5103,4 -0.6499,13 -4.1323,12 12.229,55 2.4502,10 -0.6182,5 0.8204,19 5.353,31 -6.0757,-1 -1.6099,4 3.0757,3 5.4097,17 2.9761,4 9.4814,20 9.6948,41 9.5215,10 2.9356,13 0.2934,25 20.1665,14 42.7315,24 6.5293,11 28.7763,2 18.5806,11 17.042,22 23.1333,18 0.9756,5 -2.1284,9 -3.1036,4 -7.0878,4 -12.1592,2 -6.1001,6 -0.6343,9 3.0757,3 14.7768,-9 28.9449,-15 3.9799,1 3.0752,3 -11.789,9 4.0547,7 h 16.1352 l -0.017,4 -12.8013,13 -8.5859,5 -1.1118,4 3.0713,4 h 12.1509 l 20.247,-7 4.0791,1 -3.0996,3 -1.5102,4 21.2226,-2 10.0225,9 3.437,12 -26.4385,11 -3.5224,9 0.9755,5 -14.7773,9 0.9795,4 -1.1118,4 -3.4937,2 -2.104,3 0.4815,4 2.976,3 35.4644,-2 4.2646,-3 h 2.8399 l 18.1684,9 30.2608,4 21.3218,-2 17.2671,-8 1.9794,3 -3.6347,11 2.4531,9 21.1646,13 12.9809,16 24.6626,9 3.5938,-2 12.6318,4 12.977,17 5.4239,13 -0.5147,4 12.022,7 h 8.665 l 7.0874,-4 13.1343,3 23.1392,16 6.4404,8 15.1006,9 h 8.665 l 6.5977,-6 h 4.0835 l 1.3159,2 2.521,2 5.6909,4 14.4863,13 -1.0288,8 2.9751,3 8.0586,2 6.042,8 -4.3159,32 -9.2041,10 -2.1455,13 -8.5815,4 h -4.5811 l -9.7017,10 -1.1123,4 1.4771,4 67.6802,10 2.0708,5 1.8212,17 8.523,10 -4.1167,8 -0.017,4 7.4233,11 -13.2041,14 -2.6225,8 0.9419,13 -0.6143,4 -3.498,3 -20.8389,6 -3.5977,3 -1.5146,5 -0.2036,25 -6.6021,7 -3.1206,8 0.9795,4 -2.1245,8 -3.5976,3 -34.3497,-2 -24.4814,20 -13.6475,1 -91.7514,31 -3.5977,3 1.4776,4 -1.5103,4 -8.1787,3 1.9756,4 24.249,12 22.5029,25 8.0298,57 4.5523,7 3.9751,2 6.0498,6 -1.1329,9 -3.9917,2 -7.5556,-3 -22.1123,-23 h -3.9834 l -3.5728,-3 -0.4809,-4 8.7046,-10 1.6098,-4 -3.9336,-12 -1.4399,-13 -11.0254,-7 -4.0869,1 -11.1821,7 -17.7593,8 h -12.1494 l -3.5933,2 -0.5142,4 1.4776,4 14.4443,23 10.0293,7 0.979,4 -4.6138,8 1.4776,4 7.5561,3 -5.6054,7 0.4814,4 4.0786,1 h 14.1407 l 17.1157,3 -2.0039,3 -7.0869,4 -29.4097,8 -7.1904,5 -16.647,4 -3.5972,3 -9.9233,40 2.4731,4 21.0493,15 -2.0039,3 -12.1611,3 -6.5972,6 -12.1611,3 -3.5972,3 0.9795,4 3.9707,3 24.771,6 0.461,9 -17.7334,2 -3.0992,3 -3.1406,13 0.959,9 11.6343,4 8.0781,-3 8.2065,-10 28.3345,-13 21.0191,-26 1.2148,-29 -1.3242,-17 -1.9751,-4 -7.5474,-5 -1.9795,-3 1.0288,-8 5.108,-7 8.1694,-1 10.7217,-16 9.0454,4 7.6885,-5 8.0742,-2 3.477,2 -0.054,13 3.4732,3 h 4.083 l 12.3271,-19 -1.4233,-17 6.2441,-17 6.0996,-6 4.0869,-1 8.0498,4 17.1202,3 3.5766,2 -4.7881,26 6.3316,33 3.4648,5 16.6011,8 20.2314,-4 8.1617,1 2.9751,3 -0.6685,17 -1.3828,2 1.4282,1 13.5933,-2 6.6967,-6 10.8882,-32 16.1158,4 7.0493,5 2.8296,14 3.5976,-3 11.8296,-19 2.6392,-12 4.1167,-8 3.9873,-1 6.0493,6 -0.5313,8 0.979,4 22.8589,-13 3.979,1 4.585,-1 4.5723,2 4.4267,13 2.4771,3 7.6806,-3 13.7266,-20 2.9307,-34 24.0219,-28 8.5723,-2 7.0957,-6 8.7676,-72 12.5928,-58 14.9814,-34 4.5767,1 10.8491,25 8.0371,7 4.0918,-2 30.0981,-29 16.2705,-9 3.1001,-3 28.4334,-12 11.1877,-7 8.0835,-4 14.1372,1 29.2239,13 12.6433,1 9.0498,3 6.5471,6 5.3838,22 7.418,12 12.6221,6 32.855,2 2.3715,2 5.3921,4 2.75,4 7.0493,5 16.7859,-13 7.6597,2 h 3.9834 l 12.3091,-14 3.9922,-2 8.1704,-1 3.4726,3 4.4258,13 15.5623,17 12.1364,3 8.5774,-2 84.1026,-12 10.1238,-4 h 3.0388 l 3.9878,-1 25.7671,6 53.0925,-3 8.2095,-10 h 8.5644 l 3.0742,3 8.3867,18 7.0362,8 4.5764,1 4.0874,-1 17.2849,-12 h 3.9834 l 16.5615,16 11.1797,-6 12.1538,-1 38.8904,11 8.5686,-1 8.5515,3 21.2161,-1 23.7837,4 27.4343,-11 13.6519,-2 2.9702,4 -2.0093,4 2.9744,3 9.049,3 3.594,-2 10.7171,-14 20.4035,-19 33.5096,-11 16.801,-16 16.237,-1 33.2002,14 5.0437,8 9.5074,12 26.6403,11 19.6783,9 -6.2674,21 -7.4292,36 1.4717,5 6.5462,6 4.0783,1 8.5733,-2 13.7915,-11 9.5556,1 -4.1362,12 -0.135,8 h 4.5808 l 7.2188,-11 3.979,1 -0.5157,4 -6.1235,11 -1.1396,10 -3.1272,9 -0.5335,8 2.9653,5 8.0843,-4 29.417,-9 11.1933,-8 34.6267,-83 37.1128,-15 12.7962,-11 9.0669,-1 1.476,4 14.9571,18 17.2014,6 16.2995,-15 15.7615,-6 7.7625,-21 3.0009,-3 9.1575,2 27.1289,13 15.7661,-7 48.4761,5 27.21,17 13.9424,22 8.0527,3 5.5452,7 -0.1358,8 -23.592,42 -4.635,12 2.9738,3 4.0877,-1 40.8381,-46 11.8733,-27 11.1807,-6 6.5818,-2 h 9.6599 l 11.52,7 8.5598,1 14.2861,-9 13.159,-3 11.1989,-10 8.1844,-4 20.6865,6 4.0876,-1 13.6934,-11 39.5996,-14 17.7446,-4 15.3145,-17 21.3528,-9 10.095,-8 h 31.3745 l 4.5444,8 0.8137,18 -3.6448,13 -3.101,3 -0.5484,11 30.2146,13 1.5352,-9 5.2107,-7 23.3674,-14 13.3508,-23 2.5218,-7 16.2605,-6 h 8.0664 l 43.8027,25 2.4343,12 -1.5124,4 1.9734,4 12.0129,8 4.5486,7 10.012,10 h 3.9836 l 8.02,10 -2.0056,3 3.979,1 60.3855,36 26.7651,5 57.6502,2 34.1545,22 9.5181,9 4.0876,-1 2.0103,-4 -0.8589,-8 3.4995,-3 38.3833,12 16.6211,2 1.9777,3 36.2917,13 14.1315,2 18.6935,6 19.8687,-11 21.6951,3 16.5928,8 13.1544,-2 12.7797,-7 50.9536,7 16.5926,8 10.0201,9 -2.1764,17 9.9206,29 -3.2671,17 -17.7917,14 -19.6215,43 3.9455,8 40.8706,12 8.5686,-1 17.9054,-16 11.2288,-16 31.5957,-27 16.7154,3 54.8735,20 16.5775,11 8.5115,11 8.5448,4 15.5624,15 22.1251,17 h 9.0616 l 7.5442,5 3.9449,8 7.544,5 10.4789,17 75.4876,40 14.1256,3 3.5945,-2 4.9692,2 15.5326,21 3.4756,2 h 4.0827 l 6.0983,-5 9.3859,-26 16.7533,-5 h 9.0615 l 8.0852,-4 17.1883,8 49.9638,6 26.915,-6 30.2232,10 29.7105,13 31.8307,7 0.4784,4 22.038,14 12.6316,3 20.6681,9 14.4503,18 12.119,7 12.6559,-2 31.6424,25 12.5269,4 26.0609,26 22.29494,2 29.59472,16 23.12708,15 26.75586,6 26.20868,16 h 4.48077 l 29.50513,35 16.48535,29 23.98273,23 3.39599,18 -0.51764,4 3.44544,8 19.91736,9 7.87878,4 5.33673,12 25.07727,23 5.93451,8 29.71674,11 8.16968,-1 16.35949,34 8.50818,11 -0.11944,4 6.99469,15 5.93921,7 -5.03303,51 7.04432,5 6.36731,21 -8.46802,41 -22.25256,50 -2.66822,16 9.29944,32 -1.16949,75 3.91284,14 -14.51081,35 8.51746,9 1.34412,10 -3.6687,17 0.94586,10 -6.75,16 -13.41034,33 2.27514,23 -0.61724,4 13.04724,20 7.58124,-3 8.04431,4 21.47448,26 8.05414,2 14.79419,-12 17.43268,-22 7.09851,-6 h 4.57965 l 7.03864,6 12.16601,-4 24.13751,11 10.50306,10 11.61816,6 16.5509,15 13.52469,3 15.68482,9 29.30975,-7 10.95032,20 6.54559,5 7.58133,-3 11.33032,-16 20.26032,-10 4.08685,-1 4.61487,-7 -6.39066,-16 -5.04217,-7 0.61746,-4 -6.9931,-15 -2.97165,-3 -0.97043,-5 2.00626,-3 27.25372,5 15.08743,9 21.3205,-3 3.99243,-2 0.84323,-29 -3.41895,-13 3.15192,-13 -4.72702,-30 2.67432,-17 9.72799,-14 3.59934,-3 18.71231,2 30.24106,5 30.18527,16 8.07956,-3 5.74083,-13 -1.92532,-13 -34.58977,-31 -1.97098,-4 0.51807,-4 3.59939,-3 5.76612,-18 3.49481,-2 9.66763,-2 4.09724,-3 4.12764,-9 -1.45289,-8 -7.53635,-6 -1.46812,-5 1.65886,-13 -10.47267,-16 2.13641,-9 41.14697,-25 0.23651,-27 -6.90866,-12 -4.55971,-4 -10.76971,-36 12.51854,-34 6.60182,-6 9.06564,-1 h 13.74019 l 9.5838,-4 15.81289,-16 44.02902,-4 11.29696,-9 2.52995,-8 0.65856,-12 7.7228,-11 26.507709,-8 13.682068,-24 14.782165,-9 h 22.303444 l 7.587708,-3 12.027376,4 47.106298,-2 19.729111,-11 42.111549,-10 16.707042,4 25.36271,-14 20.39466,-15 21.33892,-6 19.19633,4 31.90892,-9 13.13806,1 12.17345,-5 17.70276,4 h 22.2041 l 23.32019,-4 13.1796,-7 33.33526,5 18.7244,-1 32.32904,6 18.24219,-4 64.68924,6 7.94992,3 4.53833,8 -0.63928,8 20.82055,-2 h 3.94293 l 3.64533,-3 1.51446,-4 4.09815,-3 30.34253,5 25.15442,7 8.04413,4 20.8258,-3 12.17908,-6 33.51868,-12 49.13543,-8 37.51239,-14 9.03974,4 7.03772,6 9.64776,2 h 22.2041 l 13.63581,1 3.59515,-2 12.66132,-3 11.67621,-5 28.7705,1 29.65979,22 29.25751,3 16.68506,8 42.36859,9 31.65569,20 21.6553,4 7.0799,-2 13.6812,-2 68.6166,17 12.1151,6 4.3838,18 h 9.5586 l 32.5022,-8 18.2695,-9 37.1905,-28 2.659,-13 8.0868,-4 13.1485,-1 3.5683,3 9.5857,-4 2.6104,-4 3.972,2 54.1928,-5 7.5457,4 3.9393,8 11.5067,8 19.8577,-8 14.079,11 h 12.6452 l 3.9937,-2 12.3557,-20 0.6191,-4 31.1294,-29 10.7358,-15 16.7496,-4 31.8572,1 15.1783,-8 9.155,1 8.6178,-10 1.139,-8 9.7185,-11 38.4947,-11 45.6148,-1 13.1379,1 13.6633,-4 35.745,-36 30.8,-42 26.0047,-21 6.1182,-7 23.3719,-13 18.2443,-4 25.4964,-19 54.7389,-67 14.2948,-10 21.8516,-7 16.3031,-13 12.6574,-2 28.9384,-11 h 25.7906 l 4.492,-2 2.1134,-4 -4.9176,-11 0.022,-4 38.8759,-43 34.6103,-27 57.3084,-9 21.8975,-16 24.9675,-13 9.616,-10 23.0546,-27 9.1841,-4 h 8.5696 l 4.575,1 9.0729,-2 59.7259,-49 80.1279,-28 28.124,-25 49.7115,-21 51.9423,-28 30.9847,-19 17.7375,-2 12.1321,3 h 4.083 l 3.5083,-4 0.5207,-4 -4.4357,-8 8.7492,-15 39.6436,-19 4.6208,-7 7.6909,-4 15.1084,5 28.4393,-10 11.5747,-4 12.2719,-3 h 17.1289 l 11.6973,-8 25.9268,-6 3.9663,3 29.893,-3 4.5752,1 15.1802,-11 12.1638,1 8.6526,2 38.469,-4 4.0007,-3 8.6468,3 7.5456,4 11.2344,-14 43.0906,-12 16.7363,-1 12.6765,-5 37.4505,-1 30.5605,-14 h 8.0667 l 17.0942,6 2.9702,3 0.9668,5 8.9988,11 10.7112,6 14.0219,5 2.0091,-3 -3.4331,-9 1.019,-4 8.635,5 h 3.9834 l 1.523,-5 -7.1306,-17 -7.6158,-16 -7.331,-10 6.9551,-11 11.7978,-8 14.1472,-1 26.7603,5 3.5969,-2 1.019,-4 -14.5232,-20 0.6558,-10 8.2305,-11 31.4114,-6 10.2045,-8 41.5689,-58 18.301,-13 7.7444,-13 52.5432,-44 21.4124,-16 13.1814,-6 11.7988,-8 5.9873,-2 13.9021,-10 20.0247,-35 12.719,-12 h 8.1665 l 1.0195,-4 -3.9368,-8 17.3653,-23 30.3542,-46 28.6318,-25 -2.9406,-8 -3.5738,-2 -1.4704,-4 1.6172,-4 21.4433,-22 6.2459,-12 22.4516,-24 13.1824,-6 9.72,-10 0.5217,-4 38.5596,-52 41.852,-37 67.5762,-75 24.9082,-17 26.0037,-18 5.0857,-1 7.552,3 h 4.0837 l -1.8909,-17 5.1216,-7 4.0957,-2 7.7349,-11 3.219,-22 5.7727,-16 0.906,-35 2.022,-5 8.2331,-11 3.1355,-8 10.2554,-16 -0.4741,-4 7.7829,-19 -0.9722,-4 6.7513,-13 4.2033,-20 20.0948,-28 15.792,-9 30.4228,-57 37.9522,-50 0.5461,-8 22.0164,-17 9.7522,-14 62.4731,-69 52.396,-33 9.7227,-10 22.3559,-6 8.5728,-1 8.7265,-10 7.1089,-6 0.124,-4 21.9361,-20 2.6142,-4 11.6914,-6 9.5689,-1 5.6211,-7 18.2534,-4 26.6616,-27 8.5488,3 36.5137,-8 2.9341,9 8.6846,-3 6.1255,-8 1.02,-4 -0.9717,-4 h -8.0689 l -2.4721,-3 3.665,-13 2.5147,-4 7.2929,-69 10.941,-30 21.1084,-31 0.2334,-22 5.2592,-13 13.2534,-17 5.7881,-18 14.3799,-21 6.7173,-7 1.0449,-8 -0.9717,-4 6.2798,-17 25.0401,-22 9.7729,-18 56.8594,-61 1.519,-4 10.2168,-9 2.0166,-4 -1.3027,-15 12.9419,-30 2.1836,-15 3.7539,-11 8.1001,-5 4.0098,-4 1.1264,-5 24.2368,-37 3.542,-9 11.356,-16 0.7085,-18 20.2202,-48 0.024,-4 -3.4316,-9 2.1904,-16 -2.4604,-5 -3.4683,-3 8.8516,-30 0.1552,-9 -7.3437,-21 0.2778,-29 6.2876,-18 1.8027,-33 -1.2905,-17 1.9766,-46 -1.8194,-12 11.8169,-26 -2.1919,-12 -1.9824,-6 0.9463,-8 12.3779,-20 2.9053,-35 11.1558,-48 6.2758,-16 -0.9414,-9 11.3702,-18 8.6894,-52 6.6504,-12 -0.8857,-18 -5.4004,-13 -3.2339,-25 -5.1162,-43 2.1723,-13 -6.8271,-24 3.1933,-17 -1.4638,-5 3.1382,-8 -4.4102,-12 -10.458,-17 -12.2524,-33 -1.8765,-19 -46.7412,-80 -12.1738,-46 -4.2437,-23 -40.4565,-49 -9.8057,-26 -16.0703,-12 -2.9346,-9 2.1968,-17 -11.3823,-29 -13.9468,-17 -17.0552,-14 -15.1103,-55 -11.4683,-15 -13.1421,-2 -29.8154,-47 -2.9107,-13 -10.1098,-9 -3.9375,-8 -8.5523,-3 -20.2431,-47 -12.9761,-13 -10.8921,-28 -24.9072,-34 -4.8252,-26 -16.4038,-23 -3.9077,-13 -33.8804,-50 -32.8545,-55 -4.8804,-17 -13.4512,-17 -19.4101,-37 -3.4697,-3 -17.4839,-27 -13.938,-19 -6.874,-17 -7.0459,-5 -11.0147,-8 -7.3481,-21 -10.6221,-7 -12.2656,-32 -12.063,-16 -7.9373,-6 -29.2046,-66 1.6429,-8 -14.0869,-11 -16.1751,-45 -11.0371,-21 -4.9414,-7 -15.6233,-54 5.4866,-34 4.1347,-8 -4.8037,-30 -10.9797,-14 -1.7918,-17 0.5765,-13 -7.3797,-16 -0.4743,-4 9.236,-11 14.3077,-9 1.0207,-4 -6.0442,-6 -8.0618,-2 -4.4433,-7 2.1772,-14 -4.062,-16 -2.0469,-6 1.9571,-17 -2.9424,-8 6.5378,-43 9.7649,-16 12.0552,1 6.7146,-6 4.0928,-1 2.9724,3 20.2407,-1 4.0989,-2 -1.9695,-4 h -4.0869 l -1.9756,-3 3.1082,-3 h 8.5725 l 8.092,-2 4.6333,-8 1.1448,-8 -8.9688,-17 1.2229,-21 5.6243,-7 -10.7544,-35 -2.9663,-4 -8.0684,-1 -25.4377,-31 -8.6423,-5 -35.8797,-1 -16.593,-9 -12.4643,-16 -12.1373,-4 -12.3984,-27 -11.948,-19 -4.5735,-2 -4.4919,1 -4.075,-2 -4.5915,1 -18.5691,-12 -8.0686,-1 3.1858,-16 -1.94,-9 -37.2922,-16 -25.0833,-23 -11.6274,-6 -19.342,-33 -3.9637,-4 -16.6059,-7 -15.971,-30 -6.9423,-6 -8.5613,-2 -2.574,-3 -1.3423,-9 -4.5381,-8 -17.1926,-9 -2.9729,-3 -1.9463,-8 -5.9338,-8 -11,-11 -3.323,-28 9.4074,-23 -4.4147,-12 -12.1031,-10 -42.8659,-17 -65.6172,-65 -17.6043,-7 -7.5,-13 -15.9148,-23 0.522,-4 -4.5681,-3 -1.9705,-4 1.1204,-4 -13.405,-26 -3.5655,-4 -8.562,-2 -9.5,-12 -7.9402,-6 -5.5359,-8 -11.019,-8 -10.8545,-36 -2.9731,-3 -8.5562,-3 -2.9734,-3 4.2168,-22 -3.3952,-16 -2.9732,-3 -9.7236,9 -21.3821,7 -17.6111,-6 -50.6343,-2 -32.9702,12 -10.1631,-1 -47.6784,4 -8.5913,2 -8.5682,-1 -4.5744,-2 -10.1922,4 -23.7395,2 -38.9406,-7 h -16.6492 l -36.1541,11 -22.2148,-3 -19.0723,-13 -56.999,-22 -36.6033,-32 -36.9304,-10 -32.2214,-14 -67.1873,-20 -81.7268,-22 -86.5105,-6 -12.6848,4 -35.5386,8 -19.2192,-4 -61.3435,5 -13.0322,-6 -25.9275,1 -3.9937,1 -11.2285,11 -4.6033,3 h -14.6557 l -130.7622,-44 h -3.9881 l -3.4697,-1 -5.5747,-4 -13.0422,-21 0.1447,-8 -8.059,-3 -12.6731,2 -18.1609,-15 -23.6785,-9 -108.896,3 -66.9945,17 -8.0646,-2 -12.1914,5 -12.6454,-3 -36.5628,13 -8.5743,-1 -16.2734,4 -48.1776,4 -8.5964,4 h -22.2333 l -5.1955,2 -34.8896,-1 -57.9091,14 -9.5601,-2 -5.5888,1 -22.7041,-5 -17.7521,1 -28.7858,-5 -50.0944,-10 -3.9497,-7 1.1406,-8 -1.4735,-4 -3.5782,-2 h -3.9881 l -6.7403,11 -6.1147,6 -12.651,-3 -11.1993,6 -24.189,-7 -12.285,4 -16.157,1 -26.2882,-6 -6.3075,5 -2.7762,-3 -8.1591,-3 -7.1061,5 -3.9934,1 -56.6753,-10 -33.2076,-18 -26.7871,-6 -29.9376,5 -68.2199,-14 h -12.1636 l -8.092,3 h -13.1607 -46.566 l -58.994,-24 -8.3403,-25 -5.519,-12 -13.4629,-18 -12.0426,-4 h -8.6743 l -22.8963,12 -25.85,5 -42.03725,-8 -16.17865,5 -24.04083,21 -9.08362,2 -7.70379,5 -54.318,15 -13.82275,12 -22.25482,3 -7.20508,5 -57.31891,17 -24.31128,-3 -9.71863,9 -19.79907,11 -24.84668,4 -16.29352,7 -5.61493,6 -35.03717,8 -7.59832,4 -47.15308,-1 -17.64179,-1 -38.12231,7 -26.83517,3 -72.62323,26 -21.71369,-4 -9.17761,1 -39.70065,23 -21.25678,4 -11.6336,-6 -8.56897,-1 -13.17072,1 -13.81046,10 -46.71621,11 -42.4614,-2 -5.55211,-6 1.62107,-5 7.09933,-4 -1.97328,-4 -16.12027,-6 -40.10503,5 -45.432011,-7 -54.714481,-4 -15.108116,-9 -29.296412,-3 -6.544299,-7 -22.721404,-2 -21.844601,2 -40.468074,-3 -7.342552,-3 -18.05657,-1 -24.61471,-3 -97.74146,-52 -39.80456,-15 -18.1796,-14 -55.44821,-17 -13.10013,-12 -19.68564,-11 h -20.23974 l -21.57007,-13 -20.71313,-5 -44.86078,-21 -21.65519,-16 -44.88647,-17 -13.10095,-12 -36.31726,-15 -3.92328,-13 -13.95361,-21 -3.47974,-2 -8.07117,-1 -22.65326,-16 -30.23108,-16 -5.05023,-7 h -16.65106 l -57.97046,-33 z"
         id="path10007"
         style="fill:#000000;stroke:#000000;stroke-width:10.5859;stroke-miterlimit:4;stroke-dasharray:none;stroke-opacity:1;fill-opacity:1" />
    </g>
  </g>
</svg>
