<?xml version="1.0" encoding="UTF-8" standalone="no"?>
<svg
   width="1024"
   height="1024"
   viewBox="0 0 2047.9999 2048"
   id="svg2"
   version="1.1"
   inkscape:version="1.1.2 (b8e25be8, 2022-02-05)"
   sodipodi:docname="vector.svg"
   xmlns:inkscape="http://www.inkscape.org/namespaces/inkscape"
   xmlns:sodipodi="http://sodipodi.sourceforge.net/DTD/sodipodi-0.dtd"
   xmlns="http://www.w3.org/2000/svg"
   xmlns:svg="http://www.w3.org/2000/svg"
   xmlns:rdf="http://www.w3.org/1999/02/22-rdf-syntax-ns#"
   xmlns:cc="http://creativecommons.org/ns#"
   xmlns:dc="http://purl.org/dc/elements/1.1/">
  <metadata
     id="metadata618">
    <rdf:RDF>
      <cc:Work
         rdf:about="">
        <dc:format>image/svg+xml</dc:format>
        <dc:type
           rdf:resource="http://purl.org/dc/dcmitype/StillImage" />
        <dc:title>Flag of Oman</dc:title>
      </cc:Work>
    </rdf:RDF>
  </metadata>
  <defs
     id="defs616" />
  <sodipodi:namedview
     pagecolor="#ffffff"
     bordercolor="#666666"
     borderopacity="1"
     objecttolerance="10"
     gridtolerance="10"
     guidetolerance="10"
     inkscape:pageopacity="0"
     inkscape:pageshadow="2"
     inkscape:window-width="1512"
     inkscape:window-height="872"
     id="namedview614"
     showgrid="false"
     inkscape:zoom="0.38779045"
     inkscape:cx="483.50855"
     inkscape:cy="510.58503"
     inkscape:window-x="0"
     inkscape:window-y="38"
     inkscape:window-maximized="1"
     inkscape:current-layer="svg2"
     fit-margin-top="0"
     fit-margin-left="0"
     fit-margin-right="0"
     fit-margin-bottom="0"
     inkscape:pagecheckerboard="0"
     width="1024px" />
  <title
     id="title4">Flag of Oman</title>
  <path
     style="fill:#000000;fill-opacity:1;stroke:#000000;stroke-width:0.821762;stroke-opacity:1"
     d="m 771.20639,1360.3677 -27.2723,9.7071 v 585.9675 c 1.79785,0.1918 3.59357,0.5156 5.3929,0.6678 2.08563,0.1776 4.22385,0.1712 6.31721,0.2567 0.40792,0.018 0.93763,-0.016 1.33552,0.051 5.58585,0.9237 15.91868,1.9875 11.71011,9.8612 l 0.25672,0.565 0.97592,0.565 0.92432,-0.051 0.46232,1.5408 c 0.80697,-0.5867 3.38977,0.026 4.21153,0.3082 l 0.5136,1.0272 h 1.12992 l 0.6676,1.284 1.13009,0.1545 0.46216,0.3595 c 0.48813,-0.4977 1.94642,-1.6828 2.722,-1.6435 0.88619,0.3499 2.10503,1.4275 2.41401,2.3627 l 2.31112,-1.6435 0.20544,0.4621 c 0.9258,0.1677 1.44762,1.0658 2.00313,1.7463 l 1.07848,0.3081 0.51377,0.8218 c 0.6127,-0.6344 2.02843,-1.2384 2.92744,-1.1299 l 0.77048,-0.7191 -0.15449,-1.0785 0.35961,-0.4623 1.1812,-0.1019 0.46232,-0.6163 c 1.101,0.5456 5.33093,-0.4531 6.47121,-0.7705 l 1.84896,0.8732 0.87321,-0.4109 0.15449,-1.1299 1.23264,0.2055 0.61632,0.6163 1.48953,-0.6676 0.66776,0.5649 1.59208,-0.4624 0.30816,-1.1812 c 2.4357,-1.5301 0.50949,-2.9862 1.43809,-3.9033 0.92694,1.2326 2.12425,1.7133 2.97888,2.9789 2.25492,-0.4224 3.30595,-0.5368 2.97889,-3.0304 l 2.722,0.8732 c 0.2748,-0.3846 1.16493,-0.5649 1.59225,-0.5649 l 0.77048,-0.9246 1.38664,-0.2054 1.33537,-1.5407 -0.1019,-0.6163 1.23264,-3.0303 0.71904,-0.5651 c 2.59184,0 4.79334,0.4525 5.44417,3.3385 0.65248,-0.2744 1.29017,-1.3539 1.43809,-2.0029 0.79053,-0.095 1.91224,-0.9293 2.36256,-1.541 l 0.56504,0.1035 c 1.07602,-1.1522 3.53884,-3.1782 5.18729,-3.4412 l 0.71904,-1.2326 1.28409,-0.3082 0.61632,-0.5649 0.25672,-1.8489 c 0.35829,-0.4273 1.30989,-0.7138 1.84896,-0.6678 0.82587,-0.5719 0.68453,-1.1472 0.92448,-1.4381 0.67549,-0.8168 3.74181,-4.2682 3.85193,-5.136 l 0.51377,-0.3081 c 0.42534,-1.6058 1.19517,-1.9064 1.90024,-3.0304 0.66727,-1.063 1.21703,-2.3201 1.79768,-3.441 1.16345,-2.25 7.21409,-2.7159 9.55282,-2.9789 l 0.46232,-0.6676 c -0.65576,-1.7817 0.11998,-5.2285 1.84897,-6.2147 0.20215,-1.7832 1.25483,-3.1218 2.15712,-4.6224 l 0.41088,-0.1545 c 1.39864,-0.5025 2.56275,-0.8163 3.54377,-2.0029 0.20544,-0.2465 0.64788,-1.2197 0.82176,-1.3867 0.29633,-0.283 1.8774,-1.1715 2.0544,-1.3868 0.90756,-1.0962 1.71634,-2.8216 2.46529,-4.0575 l -0.308,-1.0272 -1.28408,-1.0272 c -0.023,-1.1551 -1.9226,-3.1932 -2.61928,-4.1088 0.36617,-1.6859 0.97888,-4.3705 2.56784,-5.3927 l 1.28408,-0.3082 c 0.046,-0.054 0.29173,-0.3087 0.30816,-0.3594 0.73794,-3.3035 0.27365,-3.2797 2.56801,-5.8553 l 0.82176,-0.9243 c -0.1397,-1.2921 0.0888,-2.8761 0.46232,-4.1088 0.82176,-0.2156 1.86359,-1.2931 2.25985,-2.0031 -0.15449,-1.7602 0.069,-2.9886 1.0272,-4.571 l -0.3596,-1.6435 1.28392,-1.3868 -1.1812,-0.7705 c -0.21695,-1.1914 -3.0162,-6.8374 -3.54393,-8.0634 -0.31194,-0.7248 -0.71198,-1.4076 -1.07848,-2.1057 l -0.46216,-0.3084 c -0.91413,0.2729 -2.27037,0.2893 -3.18449,0 l -0.51344,0.4109 c -2.07084,-0.8903 -4.14036,-3.6829 -4.31425,-5.9577 -0.0838,-1.0994 0.23124,-2.2905 0.15449,-3.3896 -0.0164,-0.2107 -1.11595,-2.9285 -1.23264,-3.4413 -1.15047,-5.0554 3.62035,-12.8124 6.72809,-16.3839 l 0.20544,-2.4139 c 0.13313,-0.166 0.98004,-1.2564 1.07865,-1.3353 0.30569,-0.2433 0.48812,-0.3098 0.82176,-0.5136 0.89079,-0.544 2.00148,-1.102 2.82472,-1.7463 0.74978,-0.5834 1.27258,-1.2597 2.10585,-1.7462 l 1.12992,-0.6163 c 0.17257,-1.3411 1.30036,-1.9739 2.10568,-2.8762 0.45247,-0.5078 0.84395,-1.2992 1.33553,-1.7462 1.47079,-1.3379 3.63334,-1.746 5.29001,-2.722 2.17931,-1.284 2.58806,-2.4099 5.70089,-3.3385 0.97165,-1.5844 1.05399,-3.4697 2.0544,-4.982 -0.81831,-0.6555 -1.05004,-2.0523 -1.0272,-3.0302 0.0526,-2.1448 1.09179,-5.2396 2.92761,-6.5227 0.68206,-0.4764 1.57943,-0.7014 2.25985,-1.1813 2.04125,-1.4348 2.51541,-3.306 1.33536,-5.4442 0.32706,-1.0256 0.82012,-2.1892 1.0272,-3.2356 0.0592,-0.2993 -0.11669,-1.4982 -0.0509,-1.7464 0.17537,-0.6719 0.7695,-1.6136 1.07848,-2.2599 0.55551,-1.1598 2.00313,-1.1143 3.03033,-1.6435 0.87896,-0.4498 1.64385,-1.1766 2.51656,-1.6435 0.76753,-0.4109 1.6879,-0.631 2.46529,-1.0272 0.76588,-0.391 1.43414,-0.972 2.20857,-1.3352 1.26682,-0.5953 2.67105,-0.9721 3.95464,-1.541 1.9295,-0.8559 3.87461,-2.2388 5.85505,-2.9274 0.63112,-0.2186 1.40029,-0.2383 2.05441,-0.4109 3.34621,-0.8875 6.57163,-1.8631 9.96386,-2.6194 2.51623,-0.5602 5.11349,-1.2774 7.65257,-1.6948 3.69349,-0.6081 7.4358,-1.0314 11.14523,-1.5408 2.76441,-0.3797 5.7548,-1.0088 8.52578,-1.1812 3.74395,-0.2326 7.63992,-0.035 11.40194,-0.051 0.1282,0 0.28269,-0.2054 0.41088,-0.2054 1.0157,0.018 2.18507,-0.023 3.18433,0.1019 0.15614,0.02 0.63226,0.4108 0.77048,0.4108 l 5.64945,0.2055 c 0.20248,0.016 0.93566,-0.1854 1.07865,-0.1545 1.73391,0.3676 10.35909,2.5631 11.86409,0.3083 l 1.1301,0.4622 c 1.855,-1.4907 4.2965,-1.6797 5.5982,-3.9034 l 0.565,-0.051 c 0.795,-1.3295 3.0483,-0.8621 3.8519,-1.9519 l 1.2327,-0.1019 0.8732,-0.6678 c 1.3965,-0.056 2.8674,-0.172 4.2628,-0.1544 0.4421,0 0.948,0.2217 1.3866,0.2054 1.7934,-0.053 3.7264,-0.6102 5.5469,-0.2569 0.9206,0.1792 1.9547,0.6172 2.8762,0.7191 0.6464,0.072 1.4451,-0.2301 2.1058,-0.2055 2.9814,0.1118 5.7384,1.4052 8.9367,1.2327 l 0.9759,-0.8218 c 0.6356,-0.016 3.0157,-0.1594 3.4925,-0.6163 3.032,1.2392 4.5398,-0.4413 6.6254,-2.3111 h 0.873 c 1.1605,-0.067 2.4382,-0.232 3.5954,-0.2055 1.1253,0.026 2.9669,0.7368 3.9546,-0.1035 0.853,0.5936 11.1727,1.3293 13.3537,1.5922 0.082,0.1233 0.6117,0.701 0.6676,0.7191 3.2678,1.0222 6.6883,2.4817 10.1694,2.4652 0.1739,0 0.7189,-0.3382 0.9244,-0.3594 0.8304,-0.085 1.7796,0.016 2.6194,0 l 0.873,-0.7192 0.2055,-2.5166 c -0.7016,-0.8283 -0.8218,-1.9697 -0.6163,-2.9789 0.016,-0.056 0.4725,-2.2371 0.5137,-2.3112 0.938,-1.6894 3.3868,-3.5417 5.3415,-3.698 0.626,-0.6996 1.3409,-1.6397 2.0544,-2.2084 0.6372,-0.5095 1.4778,-0.8193 2.1057,-1.3353 0.6229,-0.5128 1.0872,-1.3132 1.6948,-1.849 1.0176,-0.8974 2.3006,-1.3937 3.0303,-2.6707 0.4265,-0.7495 0.1763,-3.5753 0.051,-4.3656 0.3997,-0.6984 0.8091,-1.621 1.2841,-2.2598 0.8858,-1.1901 9.3206,-6.9657 11.1452,-8.2691 4.3455,0.6213 3.8782,-4.0936 6.7281,-5.4954 1.2376,-0.6098 2.711,-1.0446 4.0061,-1.541 1.1332,-0.8327 0.3073,-5.2068 0.1019,-6.2145 -0.1956,-0.9662 -0.7766,-1.963 -0.9245,-2.9274 -0.021,-0.1381 0.1381,-1.8575 0.1545,-2.1059 0.043,-0.6375 0.5131,-0.9688 0.6676,-1.5408 0.1893,-0.6919 0.092,-1.5067 0.2567,-2.2085 0.6066,-2.5879 1.2879,-6.4231 2.7736,-8.6798 0.058,-0.036 0.3844,-0.1627 0.4109,-0.2054 1.4442,-2.3731 3.3071,-4.9232 4.3655,-7.4986 0.1315,-0.3187 0.18,-1.5347 0.3082,-1.7975 0.1939,-0.3981 1.6208,-2.1741 1.695,-2.414 0.6519,-2.1036 0.716,-4.6534 1.1812,-6.8309 0.082,-0.3845 0.754,-2.0187 0.7703,-2.2598 0.079,-1.3018 -0.4055,-2.7475 -0.3595,-4.0575 0.084,-2.3501 0.5176,-4.8435 0.7704,-7.1905 0.054,-0.5062 0.4168,-1.0829 0.5137,-1.5922 0.043,-0.2268 -0.056,-1.0185 0,-1.1812 0.6952,-2.0016 3.9949,-7.3178 3.8519,-9.1421 l -1.1812,-15.0484 0.2055,-3.39 c 0.3349,-1.0925 1.4203,-2.2634 1.9002,-3.3383 0.6689,-1.5005 1.1349,-3.2248 1.6948,-4.7765 l -0.5648,-1.0785 c 1.9015,-1.6897 9.8624,-9.6321 9.6042,-11.6074 3.3138,-2.3406 6.4017,-6.8276 9.0394,-9.9125 0.1167,-0.1363 0.286,-1.1116 0.4109,-1.284 0.5851,-0.8072 1.5616,-1.6329 2.2598,-2.3626 0.1249,-0.1315 0.5095,-0.2297 0.6163,-0.3595 2.5606,-3.1326 5.0667,-6.3551 8.1664,-8.988 0.5916,-0.5029 1.4732,-0.8189 2.1057,-1.284 2.0102,-1.4743 3.6849,-3.585 5.7523,-4.982 1.9824,-1.3378 4.3361,-2.455 6.4201,-3.6465 0.1775,-0.1019 0.759,-0.1101 0.9757,-0.2055 3.7984,-1.6484 7.7018,-2.932 11.5047,-4.5197 6.2705,-2.6164 12.3327,-5.8536 18.6438,-8.3717 0.7199,-0.2876 1.9016,-0.5793 2.6707,-0.719 0.1677,-0.033 0.6854,0.1455 0.8218,0.1027 6.9225,-2.1366 13.943,-3.6244 20.9037,-5.5982 3.7321,-1.0585 7.9213,-3.0266 11.8641,-2.9789 l 0.6163,-0.565 c 2.5836,0.072 5.6766,-1.6373 8.1662,-2.3112 5.279,-1.4282 11.0482,-2.1682 16.4866,-2.7221 l 9.4503,-0.9758 c 0.079,-0.01 0.7133,-0.3102 0.8218,-0.3595 l 0.4109,0.2054 c 4.3224,-0.5999 8.5709,-0.3517 12.8913,-0.6163 0.3387,-0.02 1.4699,-0.4623 1.7464,-0.4623 9.4139,0.1496 18.8323,0.2347 28.2479,0.3596 0.2024,0 0.6464,-0.2371 0.8732,-0.2568 0.5407,-0.044 1.1989,0.035 1.7462,0.051 l 8.6798,0.2568 c 0.1035,0 1.0471,-0.5604 1.2326,-0.6163 0.865,-0.2597 2.3734,-0.062 3.2871,-0.1027 1.0359,-1.0632 2.4245,-1.1977 3.4925,-2.0031 0.7515,-0.5686 1.2865,-1.5757 2.0031,-2.2085 1.369,-1.2045 9.2276,-1.4758 11.3505,-1.438 0.2667,0.01 2.2299,-0.526 2.6194,-0.6164 l 0.6164,-2.1571 1.1299,0.2055 1.5921,-1.9004 c 0.9126,0.064 3.0681,-1.9198 3.6466,-2.5166 l 0.3082,-0.9759 -1.4381,0.4623 -1.4895,-0.4623 c -1.257,-1.014 -2.7705,-3.8129 -3.0816,-5.3414 -0.4004,-1.9673 0.084,-4.1133 -0.5649,-6.1119 -0.6377,-0.161 -2.4144,-0.8276 -2.6707,-1.5408 -1.1209,-5.6637 -0.2326,-11.0658 0.9244,-16.6406 0.03,-0.1383 -0.087,-1.4153 -0.1019,-1.6436 l -1.6949,-2.0544 c -0.8348,-0.4289 -2.0147,0.189 -2.8762,0.2055 -3.476,0.044 -5.0998,-9.4315 -5.136,-11.6074 l -1.2326,-1.3354 c -0.5386,-2.8254 -1.095,-5.5518 -0.8731,-8.423 l 0.051,-0.3596 c -0.2116,-3.3692 -0.2305,-8.1572 0.7704,-11.3505 0.7166,-2.2829 1.9716,-4.4854 2.6195,-6.7796 1.0108,-3.5894 0.6199,-12.8319 -2.2086,-15.3053 0.2696,-0.7133 0.082,-2.0532 -0.2054,-2.7221 -1.5285,-0.212 -1.9451,-3.9039 -3.6467,-4.571 -0.4222,-1.4562 -0.8245,-3.7115 -1.746,-4.982 l 0.1019,-0.3595 c -1.2831,-0.7512 -1.0498,-1.5798 -1.6436,-2.3112 -0.1821,-0.2251 -1.0107,-0.6812 -1.2326,-0.9245 -2.9516,-3.2361 -0.4748,-11.6045 0.6163,-14.9457 0.2355,-0.7184 0.7623,-1.3843 0.9759,-2.1058 0.053,-0.1792 -0.034,-0.8518 0,-1.0786 0.054,-0.3436 0.4939,-1.1292 0.5136,-1.4381 0.051,-0.7693 -0.551,-3.3256 -0.4623,-3.8006 0.2551,-1.3608 1.3334,-2.7993 1.695,-4.1602 0.2339,-0.8809 0.1747,-2.2557 0.2569,-3.1843 0.016,-0.1331 -0.074,-0.5629 -0.1036,-0.719 -0.4498,0.2383 -1.417,0.4503 -1.9002,0.2054 -0.3731,-0.3188 -1.2294,-1.1336 -1.4381,-1.5922 l -0.9245,0.051 c -0.4372,-0.4604 -1.7157,-1.5408 -2.4138,-1.5408 l -0.6164,0.719 c -1.3973,-0.9319 -1.887,-6.9472 -1.6435,-8.6285 0.2526,-1.7454 1.2289,-3.3581 1.1812,-5.1874 l 0.5649,-0.5649 -0.051,-0.3595 1.0272,-1.2327 0.1019,-0.9245 c 0.5308,-0.054 7.6169,-8.2874 8.3203,-9.3475 0.4552,-0.6837 0.8448,-1.5318 1.2326,-2.2598 -0.9959,-1.9723 1.577,-4.9775 2.722,-6.266 -0.3791,-1.2786 2.7403,-7.1275 3.3385,-9.1934 l -0.6677,-1.1813 c -0.048,-0.75 0.1035,-1.4872 0.3596,-2.2085 H 771.20606 Z"
     id="rect8"
     inkscape:connector-curvature="0" />
  <path
     style="fill:#000000;fill-opacity:1;stroke:#000000;stroke-width:5.42363;stroke-miterlimit:4;stroke-dasharray:none;stroke-opacity:1"
     d="m 1015.7318,304.40392 c -0.6387,0.0493 -1.3636,0.40678 -2.003,0.51361 -0.7757,0.12803 -1.6598,0.071 -2.4138,0.2568 -2.3129,0.5703 -5.7348,2.55773 -7.8582,3.74928 -0.7807,0.43882 -4.98661,3.07175 -5.49544,3.69793 -1.36807,1.67968 -10.58183,13.32405 -10.78579,13.96995 -1.13633,3.61575 -1.10642,7.42708 -0.1019,11.09379 0.58625,2.14644 0.86893,6.40316 1.54064,8.01217 1.99771,4.78101 1.09229,5.55881 0.15449,10.32338 -0.051,0.25146 -0.47859,2.0655 -0.46216,2.20849 0.0279,0.71986 0.9332,3.42551 1.12976,4.36561 0.4214,2.00674 3.13716,6.92047 4.05753,9.60434 -0.25639,3.43989 -3.84009,4.6824 -5.80361,6.98497 -0.57753,2.70853 1.04479,5.70303 0.20544,7.80674 -1.5666,1.32468 -3.65256,1.79678 -5.23889,3.13297 -0.71099,3.41195 -0.10683,2.95711 0.46232,6.21457 0.12655,0.7363 -0.069,1.69899 0.1019,2.41393 0.24324,1.01898 1.04035,2.06426 1.23264,3.0816 0.41581,2.1826 0.32706,8.1979 0.20544,10.68291 -0.1249,2.54417 -1.00255,3.69053 -0.1019,6.47137 1.27045,0.44211 2.28122,1.51944 3.28705,2.36256 1.3329,1.1176 2.95834,2.40736 3.64649,4.05745 1.34325,3.21967 0.41088,10.07645 0.41088,13.76451 -1.07437,1.06829 -7.7668,11.26553 -8.52562,12.63459 -0.51162,0.92366 -2.34333,7.26561 -2.20856,8.16626 1.30824,2.70359 7.06797,1.84526 9.2961,1.38672 1.48771,0.81847 3.06254,1.42699 4.51968,2.31121 3.18055,1.92949 3.56678,0.48853 6.06071,-0.77041 1.4014,-0.70671 2.8592,-1.28646 4.2628,-2.00304 0.5095,-0.25803 1.1851,-0.80779 1.6949,-0.92448 2.0395,-0.47005 5.0493,-0.23174 7.2417,-0.41088 0.6722,0.66234 1.3568,1.30742 1.7977,2.15712 -0.3902,3.17364 -0.115,4.13264 2.3624,6.26593 0.7023,3.05203 0.9225,6.38715 1.2841,9.50162 1.1784,1.61888 2.5851,3.06477 3.7494,4.67377 0.5877,0.81519 4.0506,6.94184 4.5197,7.96082 0.3448,0.75109 0.5142,1.80582 0.6163,2.61937 -3.3566,2.53267 -17.8837,5.41171 -21.6227,6.31729 -4.592,1.11267 -8.94259,3.99335 -13.19965,6.11185 -1.68412,0.83656 -3.45337,1.95292 -5.39273,1.28401 -1.57449,-1.32797 -4.98185,-3.03682 -5.59817,-4.87921 -2.533,-0.97954 -6.4957,2.34448 -10.16946,2.568 -1.78438,0.10847 -3.21424,-0.76547 -4.87913,-0.97584 -2.651,-0.33865 -10.42569,-0.76629 -13.25091,-0.46224 -4.80402,0.51606 -6.92482,4.06073 -10.42618,5.90641 h 2.61944 c -2.48829,0.9894 -4.83113,2.27299 -7.29313,3.28705 -0.73959,0.30405 -1.64763,0.38047 -2.36257,0.71904 -0.47498,0.22352 -1.10362,0.81108 -1.5408,1.12992 -0.9894,0.32378 -1.89252,0.66563 -2.77345,0.82176 -3.10626,0.55223 -6.58806,0.0822 -9.55298,1.23265 0.0789,2.25327 0.39774,4.45436 0.97576,6.62545 1.07191,1.12417 6.80156,4.90715 8.11506,5.49553 0.89523,0.40102 2.05638,0.49059 2.92745,0.92448 1.25401,0.62619 2.16698,1.79062 3.59521,2.36257 0.73301,1.09787 1.60654,3.20158 1.5408,4.51969 -0.16271,3.27883 -1.00354,6.71297 -0.77048,9.96386 0.0493,0.68042 0.31424,1.42206 0.41088,2.10577 1.39929,9.92359 1.79522,9.62159 -4.87913,17.92467 -1.56628,1.66325 -3.13305,3.24719 -4.36569,5.08465 -1.50481,2.24506 -4.34186,8.83723 -4.72513,11.50467 -0.20692,1.4463 -0.0427,3.05202 -0.15449,4.51969 -0.11341,1.52026 -0.3744,3.15187 -0.56488,4.67377 -0.31293,2.49322 -1.22656,4.59365 -1.90041,6.98497 -0.3435,1.2195 -0.47991,2.60088 -0.8732,3.80065 -0.29863,0.91216 -1.81478,3.07175 -2.51657,3.69793 -0.87599,0.78232 -2.00444,1.37111 -2.92744,2.10576 -2.10733,1.67475 -8.04702,7.55734 -8.83394,10.11795 -0.26494,0.86449 -0.2582,2.07166 -0.41088,2.97888 -0.30602,1.80459 -0.80763,3.58987 -1.13009,5.39281 -0.28876,1.61887 -0.42682,3.27349 -0.77032,4.87921 -0.7593,3.54015 -1.94281,6.99196 -2.72216,10.52883 -0.34136,1.5482 -0.44573,3.25787 -0.87304,4.77649 -0.39774,1.41343 -1.13239,2.87575 -1.64353,4.26289 -0.97296,2.63785 -1.73654,5.38582 -2.722,8.01217 -1.37136,3.65684 -4.24489,5.75809 -5.70106,8.93666 -0.62782,1.3707 -0.7026,3.16009 -1.5408,4.46833 -1.21621,1.89991 -2.94355,3.52166 -4.16025,5.49553 -1.56759,2.54418 -1.77961,8.72629 -3.49249,11.19651 0.66875,4.53474 0.86302,2.67189 0.66777,2.87616 l 722.32857,2.36257 c -1.3235,-2.38127 -2.0728,-11.74878 -1.592,-15.25395 0.1676,-1.2195 0.3931,-2.21054 0.2567,-3.49249 l -0.5651,-0.46224 -0.5134,-1.95169 c -0.8535,-0.5325 -1.9367,-1.04569 -2.6707,-1.69488 -0.75,-0.66234 -1.2971,-1.66201 -2.0544,-2.31121 -0.1698,-0.14463 -0.9661,-0.35911 -1.1814,-0.5136 -2.3782,-1.69118 -5.3078,-3.33019 -6.7283,-6.00913 -0.038,-0.57852 -0.1594,-2.36667 -0.4108,-2.87617 l -0.5135,-0.35952 c -0.4938,-1.90484 -0.1985,-3.89268 -0.1545,-5.85505 l -1.0784,-1.64352 0.308,-1.48945 c -0.8083,-0.48977 -1.6702,-1.13485 -2.5166,-1.5408 -0.286,-0.13641 -1.3156,-0.28104 -1.5408,-0.41088 -1.231,-0.71 -1.6056,-2.18547 -2.4139,-2.82481 -2.0927,-1.65338 -5.8613,-2.74345 -6.7795,-5.59825 -1.5914,-0.51771 -2.5175,-1.68379 -3.8521,-2.568 -0.7034,-0.46512 -1.6131,-0.83491 -2.3625,-1.23265 -0.4438,-0.3928 -2.3565,-2.07001 -2.4139,-2.15712 -1.0324,-1.53669 -0.5578,-3.22624 -2.7736,-4.51969 -1.3963,-3.77682 -0.1737,-3.8216 -0.6163,-6.21457 -0.2576,-1.39535 -1.1221,-4.56037 -0.7189,-5.90642 -0.5115,-1.84403 -3.1233,-4.49092 -4.5197,-5.64961 l 1.1298,-0.87312 -1.3867,-0.71904 -0.3081,-1.5408 -1.6436,-0.30817 -0.565,1.33537 -2.0544,-0.71904 -0.2054,0.66768 0.6677,1.84896 -2.0544,-1.5408 c 0.4618,-0.42074 0.5097,-2.07207 0.4623,-2.61937 l -0.7704,-0.97584 -2.0544,-0.20544 -0.976,2.41393 -0.5649,-2.51665 -0.719,-0.2568 c -2.0955,1.03706 -3.6703,-0.38952 -5.8036,-0.61632 0.12,-0.97461 -1.3383,-3.16502 -1.9004,-3.85201 l -1.2327,1.64352 c -0.447,-0.008 -1.0773,-0.43512 -1.3353,-0.7704 l 0.051,-0.66768 c -0.1671,-0.54894 -0.7399,-1.56956 -1.2839,-1.84896 l -1.5922,0.35952 -2.9788,-1.33537 -0.9759,-1.7976 -0.7705,-0.46224 -0.2567,-0.71904 c 0.2567,-0.37308 0.4148,-1.1102 0.2567,-1.54081 l -1.6946,-1.7976 1.3354,-1.12992 -1.4896,-2.46529 c -0.5336,0.0838 -1.4556,-0.53127 -1.7975,-0.87312 l -0.9757,0.0513 -0.9247,-0.46224 -0.5649,0.41088 -1.1812,-0.30816 -0.5137,0.46224 -0.5135,-0.20544 -0.2569,-0.61632 0.6678,-1.12993 -0.1545,-0.87312 -0.4109,-0.35952 c -0.8579,0.45526 -2.9363,1.26058 -3.9546,1.0272 l -0.9247,-0.56496 c -0.6914,-0.0789 -1.7293,0.19353 -2.3111,0.56496 -2.5935,0.27447 -2.812,-2.95711 -4.7251,-3.3384 -0.6114,-0.003 -2.1489,0.005 -2.722,0.2568 -0.3356,1.44959 -1.8118,2.47638 -2.4653,3.85201 l -1.849,0.87312 -3.5953,1.7976 c -1.1374,0.33528 -1.8122,0.30652 -2.9788,0.5136 -7.4012,1.31647 -9.2214,1.3366 -16.7948,0.66768 l -0.4109,0.46225 -9.0394,-0.92449 c -0.2777,-0.0279 -0.3221,-0.5173 -0.4108,-0.7704 -2.1826,-0.99433 -4.5138,-1.90772 -6.6254,-3.03024 -1.2182,-0.64591 -1.9519,-1.76638 -3.3899,-2.20849 l -0.2055,-0.87312 c -2.1297,-0.74616 -6.1839,-5.7096 -7.7038,-5.75233 -0.046,-0.0707 -0.1994,-0.37637 -0.2569,-0.41088 -1.1061,-0.69521 -2.2843,-1.56875 -3.4411,-2.15713 -0.8503,-0.43225 -1.8936,-0.64097 -2.7736,-1.0272 -0.5701,-0.24982 -1.0729,-0.67631 -1.6435,-0.92448 -2.9892,-1.30167 -5.9219,-2.44474 -9.0906,-3.18433 -1.9657,-0.46019 -4.3168,-0.0485 -6.0605,-1.33536 -0.3649,0.0625 -0.9235,0.21366 -1.2841,0.20544 -2.8907,-0.0493 -5.8454,-0.17832 -8.7311,-0.10272 -1.1246,0.0296 -2.3121,0.37513 -3.4412,0.46224 -2.7134,0.21037 -5.4557,0.16928 -8.1663,0.41088 -1.7022,0.1512 -3.2447,0.63769 -4.9819,0.61632 -5.0834,-0.0608 -10.1446,0.5814 -14.8944,-1.48944 l -0.4623,0.10272 c -1.1188,-1.31646 -2.3407,-1.01118 -3.5438,-1.69489 -1.3493,-0.76588 -2.5286,-1.95004 -3.8521,-2.77344 -0.2396,-0.14956 -1.2058,-0.37719 -1.3866,-0.5136 -1.0437,-0.79876 -1.7127,-2.26519 -3.0302,-2.72209 -0.1512,-0.62782 -1.0795,-1.47547 -1.5922,-1.7976 l -0.5136,1.12992 0.4623,1.12992 -0.5138,0.10272 c -0.3494,-0.52593 -1.3143,-1.33536 -2.0029,-1.33536 l 2.1571,-2.51665 -1.1814,-2.36256 c -0.1819,0.0427 -0.6175,0.0851 -0.7703,0.154 -0.3698,0.16928 -4.4145,2.09097 -4.5197,2.10576 -1.9147,0.26461 -6.0842,-0.27899 -8.1662,-0.35952 l -0.4623,0.35952 c -0.9549,-0.48484 -1.8769,-0.10239 -2.8247,-0.2568 -3.8707,-0.62947 -10.5076,-1.43521 -13.97,-3.74929 l -0.7705,0.66768 -0.9759,-0.97584 c -2.179,-0.59002 -4.5538,-1.05473 -6.6766,-1.7976 -2.5904,-0.90723 -5.0244,-2.47967 -7.6013,-3.44113 -0.7942,-0.29583 -1.8132,-0.41376 -2.5682,-0.7704 -0.9084,-0.42896 -1.7038,-1.29386 -2.6193,-1.69488 -0.2202,-0.097 -1.4471,-0.10848 -1.7462,-0.20544 -2.0035,-0.65413 -4.263,-2.16165 -5.9065,-2.72209 -1.2977,-0.44375 -2.736,-0.58468 -4.0574,-0.97584 -1.3312,-0.39445 -2.7693,-1.33249 -4.1088,-1.59217 -0.3583,-0.0687 -1.8309,-0.0786 -2.0544,-0.15399 -0.6278,-0.21366 -1.2752,-0.92161 -1.9004,-1.18129 -0.7294,-0.3024 -1.7425,-0.46059 -2.5166,-0.66768 -2.8794,-0.7741 -5.7482,-1.47999 -8.5257,-2.568 -3.6158,-1.41836 -7.7673,-2.36339 -11.5047,-3.49249 -2.4406,-0.73794 -4.5189,-1.83294 -6.8823,-2.72209 -1.535,-0.57852 -3.0462,-0.87846 -4.5709,-1.5408 -3.0981,-1.34769 -6.439,-3.25335 -9.8099,-3.80065 -0.074,-0.0756 -0.4429,-0.42937 -0.5136,-0.46224 -0.9154,-0.42732 -2.0823,-0.85586 -2.9276,-1.38672 -0.6339,-0.39938 -1.1107,-1.19772 -1.7461,-1.59217 -0.9632,-0.59659 -2.2197,-0.89284 -3.1845,-1.48944 -0.997,-0.61632 -2.2421,-1.63818 -3.1329,-2.41392 -0.6903,-0.59989 -1.5753,-1.45534 -2.1571,-2.15713 -0.4438,-0.53743 -0.7478,-1.42699 -1.2326,-1.90032 -0.9714,-0.94996 -2.2992,-1.67722 -3.3385,-2.56801 -0.4154,-0.355 -0.703,-0.95694 -1.1298,-1.284 -5.8462,-4.4786 -11.704,-9.03445 -17.5139,-13.55907 -3.951,-3.07503 -9.6655,-7.26766 -12.9427,-10.88834 -1.425,-1.57286 -2.5187,-3.8212 -3.8007,-5.5469 -1.4578,-1.96565 -3.7382,-3.61493 -5.0333,-5.64961 -1.3526,-2.12507 -2.125,-4.76704 -3.4924,-6.88225 -0.7922,-1.22607 -2.2837,-2.26108 -3.1844,-3.44113 -1.8144,-2.37653 -3.4448,-5.02507 -5.136,-7.49858 -4.2501,-6.21416 -8.9662,-12.18631 -13.4563,-18.23283 -3.1589,-4.25344 -5.9923,-8.82121 -9.2449,-12.99411 -2.0215,-2.59348 -5.6111,-3.80846 -8.0636,-6.00913 -3.3258,-2.98629 -8.3336,-7.89344 -11.1963,-11.04243 -3.2368,-3.55823 -5.3083,-8.45511 -7.9609,-12.42915 -1.1751,-1.76021 -2.7151,-3.27965 -3.9034,-5.03329 -0.6327,-0.9368 -1.0305,-2.12672 -1.6435,-3.0816 -0.8004,-1.24579 -1.9459,-2.36791 -2.6707,-3.64657 -0.429,-0.75602 -0.4757,-1.88512 -0.8731,-2.67073 l -6.9849,-13.81587 c -3.5685,-7.05564 -5.9996,-15.69852 -8.6285,-23.16341 -0.1496,-0.42238 -0.547,-0.93434 -0.7705,-1.33536 -1.4677,-2.63128 -3.1385,-5.26379 -4.4684,-7.96082 -0.6816,-1.38055 -0.8295,-3.13789 -1.4381,-4.57104 -1.834,-4.31918 -3.5116,-8.64412 -5.136,-13.04547 l -1.1298,-3.08161 c -0.5279,-2.3601 -0.7057,-5.19025 -1.0272,-7.6013 -2.035,0.0649 -3.9625,0.38401 -5.8552,1.18129 l -0.4109,0.66768 c -2.3719,3.77024 0.8085,10.04234 0.1036,14.63763 -1.1702,2.33052 -6.0993,3.27924 -8.6285,3.74929 -1.401,2.41269 -0.4542,3.0475 -3.2871,6.00913 -0.9483,0.99105 -2.2095,1.11842 -3.4925,1.5408 -1.7033,0.56045 -3.0993,1.40481 -4.8793,1.79761 -4.2123,0.93023 -4.4664,-1.50752 -8.3718,2.20848 -2.3744,2.25985 -0.7678,7.67279 -2.722,9.96386 -1.5005,0.23996 -2.8975,0.71658 -4.3142,1.23265 -0.6278,0.79875 -1.314,4.24645 -1.4894,5.29009 -0.8436,0.87435 -4.7182,2.29518 -5.9065,2.36256 -0.3139,0.0181 -0.4575,-0.0682 -0.7704,-0.10272 -1.0678,-0.11997 -2.4157,-0.45073 -3.4925,-0.46224 -0.5434,-0.007 -1.1607,0.20026 -1.6948,0.154 -0.6936,-0.0592 -1.7004,-0.48854 -2.414,-0.66768 -2.0932,-0.49799 -2.843,-1.21128 -4.3143,-2.67073 l -0.2054,-1.74624 -0.4622,-0.30816 0.5651,-1.0272 c -0.028,-0.0592 -0.2737,-0.59167 -0.3084,-0.61633 -0.3647,-0.26789 -0.8705,-0.55756 -1.1812,-0.87312 -0.8825,-0.89736 -3.7452,-5.68495 -3.8519,-7.19041 l 0.2054,-3.95473 c -0.5609,-1.25565 -5.253,-3.95268 -6.7795,-6.36865 -0.7664,-1.21621 -2.5175,-3.73162 -1.5922,-5.23874 0.5275,-0.85627 1.3772,-1.0913 2.2598,-1.43808 1.9805,-0.77739 4.4022,0.0498 6.0605,1.284 0.1906,0.14299 0.7513,0.96598 0.9758,1.18129 1.1721,1.12252 2.6993,2.06591 4.1088,2.87616 l 0.4108,-0.5136 c -0.9741,-1.7898 -1.6783,-3.32115 -2.3111,-5.29009 -0.028,-0.0904 0,-0.2642 0,-0.35952 -0.1956,-5.78685 -0.2196,-9.22674 -3.1329,-14.38083 -1.6093,-1.18169 -4.2983,-2.53883 -6.1632,-3.03025 -1.0361,-0.27118 -2.5537,-0.0789 -3.6466,-0.20544 -0.927,-0.10683 -2.8114,-0.83614 -3.6467,-0.7704 z"
     id="rect10"
     inkscape:connector-curvature="0"
     sodipodi:nodetypes="ccccccccccccccccccccccccccccccccccccccccccccccccccccscccccccccccccccccccsccccccccccccccccccccccccccccccccccccccccccccccccccccccccccccccccccccccccccccccccccccccccccccccccccccccccccccccccccccccccccccccccccccccccccccccccccccccscccccccccccccccccccccccccccccccccccccccccccccccccccccccccc" />
  <path
     inkscape:connector-curvature="0"
     style="fill:#000000;fill-opacity:1;stroke:#000000;stroke-width:3.28705;stroke-miterlimit:4;stroke-dasharray:none;stroke-opacity:1"
     d="m 1095.4953,12.627139 c -2.3881,3.219662 -0.8768,4.794569 -1.3354,7.036335 -0.044,0.218588 -1.0316,2.080701 -1.1813,2.465285 -0.5925,1.539982 0.7647,2.404064 -0.5649,5.290092 l -0.5649,0.20544 -0.9759,-0.770402 -1.3354,1.386723 -0.7703,-0.10272 -0.8218,-0.719041 -0.565,-0.05136 -1.6948,2.927527 4.8277,4.93057 3.133,0.770402 0.1019,0.410881 -0.7705,0.15408 -0.308,0.359521 2.2084,1.592163 0.3595,0.821762 -1.0785,1.694884 -0.4622,0.15408 -0.9759,-0.873122 -1.5922,-0.20544 c -0.4776,-0.221876 -1.0846,-1.749942 -1.2327,-2.208485 l -1.0785,-0.770402 -0.6676,-1.540803 -1.2326,-0.513601 -1.2326,-1.643524 -1.2327,-0.30816 c -0.5612,1.074864 -0.048,1.567099 -0.1545,2.362565 -0.086,0.631113 -0.4776,1.269211 -0.565,1.900324 -0.1151,0.831623 0.4541,1.302081 -0.3595,2.516645 0.1611,0.677132 0.3164,1.335774 0.5136,2.003045 l -0.3081,0.513601 -1.3867,-0.102721 c -1.373,2.340378 -1.7072,6.623811 -0.3596,9.09074 l 1.2327,0.821762 1.6948,0.05136 c 1.7017,-0.686993 3.1963,-3.395931 3.8521,-4.981931 l 0.719,0.667681 c 0.7528,0.04931 2.8218,-2.697843 3.4411,-3.389767 l 0.7704,0.10272 1.2327,2.876167 0.6676,-0.410881 1.0272,-3.903369 0.5138,1.900324 0.4621,-0.2568 0.5136,-1.284003 0.9758,0.10272 0.2054,2.208485 c 0.5396,-0.259677 2.2365,-0.780674 2.8249,-0.410881 l 0.4622,1.181283 -0.308,0.821761 h -1.0272 l -0.051,0.513602 c 0.5062,0.397732 1.8798,1.677215 2.0029,2.362565 l -0.1019,0.30816 -1.5922,-0.462241 -0.2055,1.900324 c -0.9894,-0.03451 -2.6181,-1.156629 -3.287,-1.797603 -1.3904,-0.126552 -3.0183,8.2e-5 -4.3655,0.35952 l -1.541,-0.564961 c -0.1101,0.815188 -2.7393,5.217365 -3.2356,5.444172 l -0.719,0.05136 -0.8731,-1.540803 -0.7705,-0.154081 -1.0784,0.462241 -2.9791,-1.181282 -0.9243,0.15408 1.3866,1.027202 0.1019,0.462241 c -0.5111,0.299121 -1.8284,-0.05802 -2.3111,-0.2568 -0.8323,-0.432247 -1.3161,-3.790787 -1.3868,-4.62241 l -0.873,1.181282 -0.5651,0.05136 0.051,-3.287047 -0.6676,-0.2568 -1.3354,1.643523 -1.284,-1.078562 h -0.9758 c -0.6097,0.136412 -1.5014,2.529383 -1.7462,3.081607 l -0.6676,0.35952 -1.3356,-0.770401 -0.8217,-1.489443 -0.7703,-0.205441 -1.2841,1.694884 -0.8218,0.2568 -0.3594,-0.513601 c 0.5489,-2.092205 -0.922,-3.643691 -1.0272,-5.546892 -0.089,-1.586 0.567,-3.239795 -0.2055,-4.77649 l -0.719,-0.564961 c -1.3214,2.059335 -2.0865,2.067552 -3.3898,3.287047 -2.5902,2.422554 -3.5993,8.578371 -4.3142,11.812825 -0.4241,1.921279 -1.881,6.158694 -3.5952,7.241776 -1.683,1.063359 -2.1817,0.456505 -3.6467,2.413925 -0.5829,0.780674 -0.8656,1.984965 -1.3866,2.824806 -1.3428,2.161233 -3.527,3.905834 -4.8792,6.060493 -0.5246,0.83491 -0.7139,2.255736 -1.13,3.184327 -0.1085,0.241598 -0.251,0.445395 -0.3595,0.616321 l 4.6737,1.078562 c 0.3305,-0.12162 3.7453,-1.429865 3.8521,-1.438083 0.1413,-0.0099 4.6485,0.701374 5.0847,0.770402 1.8043,1.314819 3.0305,5.199287 3.0816,7.293135 0,0.144631 -0.7496,4.117027 -0.8217,4.51969 0.023,1.470954 -0.1003,2.982995 0.051,4.314249 0.051,0.4569 0.8962,3.523715 0.873,3.697928 l -2.1569,15.151229 c -0.016,0.10519 -1.1561,2.5298 -1.3356,2.92753 1.2462,2.03633 -1.7145,8.59522 -2.3111,10.83698 -0.2679,1.0042 -0.3226,2.29642 -0.4621,3.33841 -0.5316,3.97568 1.5772,7.66991 3.0301,11.24786 -0.4585,1.1554 -1.2063,2.5791 -1.4381,3.74929 -1.0568,5.36611 -0.456,11.11762 -0.3081,16.53796 0.044,1.59915 1.475,3.29074 2.568,4.36561 4.2567,4.18605 7.0341,8.19707 12.8913,9.55298 2.6268,-0.99926 4.4454,-2.89425 6.5228,-4.72513 -0.1364,-0.42896 -0.2211,-0.86532 -0.3082,-1.33537 -0.7116,-3.88693 0.3236,-6.35673 2.7222,-9.60434 l -0.5138,-2.00304 0.5138,-1.5408 -1.2826,-2.31121 c 0.023,-0.0986 0.1759,-0.94133 0.2054,-0.97584 1.4381,-1.6616 4.4719,-4.63802 5.4955,-6.36865 0.4868,-0.82177 1.8412,-3.58782 2.7222,-3.90337 l 0.6163,0.41088 -2.5167,5.29009 0.8732,0.0514 c 5.1179,-3.82448 5.8961,-6.86089 6.4713,-13.04547 l 0.4109,-0.2568 1.0785,2.41393 0.4109,0.10272 0.5137,-0.61632 0.5649,-2.82481 1.4895,-0.66768 0.051,-4.21153 -1.438,-1.33536 0.5136,-0.66769 2.0544,0.35953 0.8217,-0.56497 0.2569,-0.66768 c -0.097,-0.6344 -2.1017,-1.74994 -2.6194,-2.00304 l -0.051,-0.56496 0.4621,-0.41088 c 1.2754,-0.0791 2.4678,0.0456 3.7492,0.15408 0.8188,-1.64681 3.491,-6.42002 3.6979,-8.06354 l -0.1544,-0.61632 -1.7976,-0.66768 -0.565,-1.23265 0.565,-4.77649 0.7703,-0.35952 3.698,2.05441 2.2084,-0.97585 1.9518,0.56497 c 0.1644,-1.29674 1.5099,-3.06846 2.6193,-3.69793 l -0.4109,-0.41088 c -0.8069,-0.0723 -2.7874,1.40891 -3.3385,1.90032 -0.7175,-0.17093 -1.947,-1.5104 -2.3624,-2.0544 l 0.4622,-1.95169 -0.3082,-0.87312 c -1.1241,-0.98776 -3.9216,-1.15704 -4.3657,-2.259843 0.2272,-0.826693 1.307,-1.355496 1.9519,-1.797604 0.1183,-0.08053 1.5025,-1.774595 1.6948,-2.003045 l 0.6676,-0.20544 0.8218,0.462241 c 0.4933,-1.153754 -1.2271,-4.782243 -0.308,-7.755377 -1.7624,-0.609665 -2.4707,1.224836 -4.9821,-0.564961 -0.6393,-0.09697 -1.928,0.974199 -2.3112,1.386723 l -0.5135,-0.564961 c 0,-0.119977 -0.03,-0.403485 0,-0.513601 0.9395,-3.619039 0.2443,-3.264038 3.4925,-4.314249 l 0.8218,0.2568 0.7189,1.181283 2.0031,-0.770402 2.2085,0.564961 c 1.4805,-1.18005 0.5089,-4.481888 2.2599,-6.163213 1.2931,-1.244147 3.5904,-1.096641 4.7251,-2.516645 l -0.1035,-0.462241 c -1.502,-0.450326 -3.2496,-1.166902 -4.7764,-1.438083 -0.9188,-0.162709 -4.9626,0.777386 -5.7011,1.438083 l -0.6163,-0.513601 -0.1019,-2.927527 -0.6678,-0.35952 -1.1299,1.078562 -0.5136,0.10272 c -0.1101,-0.427316 -0.4306,-2.319012 -0.8732,-2.465285 l -0.9243,-0.10272 c -0.2699,0.652478 -1.4039,3.873785 -1.9519,4.108808 l -0.7703,0.102721 -1.0272,-1.078563 -0.9245,0.256801 -0.2054,-0.924482 c 0.3912,-1.000906 2.3036,-5.405138 2.2086,-6.317294 l -0.4624,-0.821761 -0.7703,-0.05136 c -0.4786,0.542363 -1.611,1.49232 -2.3627,1.643524 l -1.0272,-0.15408 c -0.8377,1.479171 -1.4853,3.273899 -1.849,4.93057 l -0.6163,0.462241 -1.849,0.05136 c -0.3676,-1.429865 0.5076,-4.499556 1.5923,-5.495531 l -0.3082,-0.821762 1.4381,-3.595208 -0.5649,-0.975842 -1.3355,2.619366 -0.7189,-0.256801 c -0.062,-0.908868 -0.4179,-2.684696 -1.0786,-3.389767 l 0.4109,-0.975842 c 0.7921,-0.609747 3.2264,-0.730546 4.1602,-0.719042 0.6882,-0.312269 1.5229,-1.410143 1.849,-2.054404 l -0.5651,-1.386723 3.1329,-3.492488 1.2327,-0.35952 2.9276,0.873121 0.719,1.027203 c -0.378,0.971322 -2.6033,1.852251 -3.4925,2.054404 l -0.4109,1.078562 0.6164,2.157125 -0.8218,2.619366 0.1545,0.564961 0.4109,0.15408 c 0.7011,-0.115047 1.6183,-0.894488 1.9515,-1.489443 0.2404,-5.012747 2.3557,-3.262394 4.5711,-6.368654 l 0.4623,0.05136 0.4109,0.975843 -1.1813,2.516645 0.4108,1.797604 -0.7704,1.129922 v 0.821762 l 1.3868,1.232643 c 0.2087,1.304957 0.5949,2.823984 2.0544,3.132966 2.1464,-1.060072 5.8287,-1.495606 8.1663,-1.027202 l 0.5649,0.462241 0.4109,1.489443 h 0.5136 l 0.8217,-0.770401 0.6676,-0.05136 0.051,-3.287047 -0.3594,-0.35952 -1.0786,0.719041 -0.6164,-0.30816 c -0.4125,-1.824295 -1.4744,-4.117438 -3.6465,-4.160169 l -0.4623,0.15408 -0.9757,1.438083 c -0.4888,-0.03945 -1.349,-0.408005 -1.5923,-0.873122 -0.2449,-1.239217 -0.9047,-4.880854 -0.5136,-6.111853 l 1.1812,0.05136 0.3083,-0.513601 c -0.1819,-0.512779 -0.3311,-1.731863 0.051,-2.208485 l 2.7735,-2.311205 1.0272,-0.05136 1.0272,0.975842 0.1019,0.821762 -0.8218,1.848964 1.2327,0.975842 0.4621,1.643524 c 0.6035,-0.138056 2.2158,-0.770813 2.4653,-1.438083 -0.8112,-1.918074 -2.5041,-4.347942 -1.4381,-6.471374 0.347,-0.486483 1.2347,-1.027202 1.849,-1.027202 l 0.4623,-0.770402 -0.1545,-0.308161 -1.5409,-0.10272 -0.9758,-1.129922 c -1.9278,0.869424 -2.9501,-0.915854 -4.3142,-2.105765 l -0.3082,0.719042 0.3596,1.848964 -1.695,1.951684 -1.3353,0.05136 c -0.6772,-0.608104 -2.3108,-1.604901 -3.2871,-1.540803 l -0.4621,-0.975842 0.1545,-1.540804 -0.3595,-0.513601 -0.5138,-0.10272 -1.1812,0.564961 -1.1812,-0.616321 0.3595,-1.027202 -1.4895,-0.410881 -0.3595,-0.462241 0.3595,-0.770402 1.284,-0.616321 0.2569,-0.719042 c -0.03,-0.802039 -1.4159,-2.331749 -1.9518,-2.824806 l -0.1019,-0.564961 0.5134,-0.821762 c 1.1674,-0.529625 4.6959,-0.490181 5.9578,-0.462241 l 0.1545,-0.616321 -0.7191,-1.797604 0.1545,-0.616321 3.8521,-0.616322 0.6163,1.027203 c 0.6969,-0.336923 1.471,-1.412609 1.6436,-2.157125 0.7083,-0.803683 6.1303,-0.420742 7.1904,-0.410881 l 0.4621,0.359521 -0.3594,0.924482 c 0.7955,0.376449 2.2963,0.391569 3.1331,0.2568 0.4861,-0.147917 1.2454,-1.582302 1.438,-2.003044 l -0.2054,-0.410881 -2.5682,-0.410881 -0.1019,-0.462241 0.7703,-1.284002 c -0.8567,-1.480815 -1.1486,-4.200025 -0.8732,-5.855053 l -0.8217,0.10272 -0.4109,-0.2568 -0.7703,2.978886 c -0.6656,-0.539076 -2.8704,-2.095082 -3.8007,-2.003044 l -0.2567,0.873122 c 0.3251,0.772456 2.2707,1.723645 2.9787,2.003044 0.2717,1.053499 1.0737,2.373248 1.9004,3.081607 -0.4355,0.386228 -3.9132,-0.08629 -4.9305,0.10272 -0.5128,0.09697 -1.7275,0.82587 -2.2084,0.513601 -0.5087,-0.410881 -0.6924,-1.888409 -0.6678,-2.465285 -0.8382,0.872711 -2.0758,1.753639 -3.3385,1.232642 -1.112,-1.370698 -0.8927,-2.49076 -0.2567,-4.211529 l -0.4109,-0.30816 -0.7705,0.30816 -1.5406,-0.410881 c -0.4198,0.471692 -2.0634,2.078647 -2.7736,2.003045 l -0.6163,-0.770402 c -0.1836,-0.866137 0.4853,-1.538749 0.6677,-2.311205 0.1956,-0.823405 -0.258,-1.339883 0.6163,-2.311205 l -0.2568,-0.513601 -0.6164,-0.359521 -0.4621,0.256801 -1.1814,2.516645 -0.5134,0.10272 -0.2055,-0.821761 0.4622,-1.592164 -0.6676,-0.564961 c -0.6581,0.808614 -1.541,2.227796 -2.5682,2.568005 l -0.2567,-0.667681 1.3354,-1.951684 -1.4381,-1.129923 c -0.235,0.470048 -0.9565,1.73022 -1.4381,2.003045 l -0.3594,-0.102763 -0.1545,-0.616322 1.1299,-2.516645 -0.2054,-0.513601 z m -10.7856,209.600611 c -1.6797,1.27537 -5.9884,1.40603 -8.1664,3.38977 -2.3223,2.11521 -0.6387,6.43809 -2.2598,8.47441 -3.3359,1.85719 -6.6053,3.2739 -10.4775,2.87617 -0.2426,1.5482 -1.4216,2.74427 -1.6435,4.26289 -0.2,1.38056 0.4689,3.06435 0.6678,4.41697 0.2613,1.76843 0.3722,5.73302 1.1299,7.24177 0.8842,1.75857 10.9943,3.4362 12.3777,2.41393 0.9521,-0.70179 1.6629,-1.82637 2.6194,-2.51665 0.641,-0.46347 4.1138,-2.47473 5.136,-3.03024 0.6492,-0.35336 1.4879,-0.53497 2.1057,-0.92448 0.1414,-0.0888 1.2134,-1.62504 1.2841,-1.79761 0.2071,-0.50949 0.5146,-3.60466 0.4623,-3.95473 -0.2189,-1.42986 -0.883,-3.11119 -1.2841,-4.51969 -0.5588,-1.96236 -0.8217,-6.90773 -0.8217,-9.03938 0,-2.38311 -0.6172,-4.9659 -1.1299,-7.29313 z"
     id="rect10-1" />
  <path
     inkscape:connector-curvature="0"
     style="fill:#000000;fill-opacity:1;stroke:#000000;stroke-width:0.821762;stroke-opacity:1"
     d="m 881.63063,686.47178 c -0.38261,0.40022 -0.77377,0.80175 -1.07865,1.23264 -1.11891,1.57943 -2.92826,5.13191 -3.2356,7.0877 -0.11176,0.71 0.0329,1.5067 -0.1019,2.20848 -0.0674,0.34186 -0.55715,1.00009 -0.61632,1.33537 -0.22188,1.24743 -0.0986,3.14283 0.30816,4.36561 -1.01241,1.3707 -1.71863,2.92506 -2.41384,4.46833 -2.55765,5.68001 -2.33266,7.86631 -2.15729,13.81587 0.0329,1.10116 0.17881,2.34818 0.10354,3.44112 -0.15285,2.23026 -0.86499,4.30603 -0.8732,6.5741 0,1.89991 0.50374,3.95349 0.71904,5.85505 0.14134,5.43678 0.38376,11.676 0.71904,16.89748 0.0345,0.55222 0.30816,1.20059 0.30816,1.74624 0,1.38878 -2.26888,13.1145 -2.56801,14.48355 -0.24159,1.10774 -0.88733,2.48624 -0.77032,3.64657 0.1282,1.26387 0.75882,2.4394 0.77032,3.74929 l 88.49339,146.63311 -47.4053,152.12861 -82.02218,263.3233 -58.6018,20.9035 h 595.77733 c 0.7484,-2.1049 2.4536,-4.0922 3.1843,-6.0091 0.4569,-1.1981 0.347,-2.9362 0.6678,-4.2115 0.223,-0.8892 2.0531,-4.5887 2.5165,-5.3415 0.8859,-1.4413 1.8398,-1.5408 1.6948,-3.5952 -0.018,-0.2662 -0.1811,-2.7977 -0.1545,-2.9275 0.5671,-2.6839 0.9009,-5.7211 2.1059,-8.2176 l -0.3083,-0.4623 0.4108,-0.9245 c -0.9198,-2.7644 3.0468,-11.1673 2.0032,-16.1784 -0.9155,-0.6114 -1.7744,-1.351 -2.6195,-2.0544 -0.6322,-3.0767 -0.237,-11.6127 2.0031,-14.3295 0.1085,-0.1331 2.9198,-2.3646 3.2358,-2.6193 1.354,-1.0897 0.191,-3.5352 0.8731,-4.7252 1.2868,-0.8184 1.987,-2.0655 3.0816,-3.0302 2.3272,-2.0544 5.1545,-3.8438 7.6525,-5.701 0.1266,-0.094 1.0951,-0.2062 1.2841,-0.3081 l 8.1662,-4.417 c 0.9307,-0.5046 1.3737,-3.0077 1.7977,-3.9034 0.401,-0.8447 1.089,-1.7162 1.5922,-2.5166 l -0.3083,-0.7704 -0.8218,-0.4623 -0.5134,0.1028 -0.2054,0.4108 -1.541,-0.3595 c -1.7121,-1.2622 -2.8114,-4.5677 -2.9787,-6.6254 2.3402,-5.9808 2.9646,-5.4553 8.0122,-9.9125 1.132,0.1101 1.9922,-1.2093 2.9274,-1.5922 3.1112,-1.2787 6.9002,-1.5987 9.9124,-3.0302 0.3111,-0.148 1.6192,-1.78 2.0544,-2.0545 0.6019,-0.378 1.2083,-0.2876 1.6435,-1.0272 -0.8313,-0.9285 0.025,-4.0102 0.1036,-5.136 0.043,-0.6196 -0.059,-1.4249 -0.1036,-2.0544 0.1217,-1.4906 0.5559,-2.1115 1.2327,-3.2357 -0.1723,-0.8743 0.3629,-2.3868 0.7705,-3.1329 l -0.4622,-1.1813 -0.3606,-0.7704 c 0.081,-0.4208 0.5243,-2.8725 0.6163,-3.0303 1.3444,-2.2943 4.2642,-3.5122 6.8309,-3.9033 l 0.9246,-1.0272 2.3624,-0.6163 0.5138,-1.13 1.0784,0.2055 0.7705,-0.8732 c 1.7254,-0.47 2.8755,-0.4692 4.006,-1.9516 l 1.0786,-1.4381 c 1.2129,-1.0962 3.6388,-1.0712 5.1875,-2.0031 l 0.6676,0.2055 1.0784,1.1299 c 0.8535,-0.2778 2.8206,-0.5925 3.698,-0.3082 0.2813,0.092 1.0671,0.7943 1.3355,0.8732 0.3415,0.1022 1.8706,0.056 2.1057,0.154 1.5564,0.659 3.2443,1.8707 4.7251,2.722 0.212,0.1217 0.5399,0.2162 0.7705,0.3082 0.2592,0.5111 -0.02,1.5942 -0.2569,2.0544 0.1479,0.498 1.3436,1.4204 1.7462,1.6949 l 0.7705,-0.2568 -0.1545,1.1299 c -0.5473,3.6289 -1.0231,2.4361 -2.3625,5.1874 -0.7232,1.4841 -1.2144,3.3228 -1.7975,4.8792 l -1.2327,0.1027 c 0.2511,-0.4684 0.9051,-3.0076 0.5134,-3.287 l -0.6676,-0.051 c -0.6491,1.0913 -0.4838,2.1917 -0.4621,3.3898 h -0.4623 c -0.3748,1.0502 -0.8693,2.8141 -0.7704,3.9547 -1.4545,0.6624 -1.0515,1.803 -1.3868,2.8762 -0.3007,0.9713 -1.042,2.0556 -1.2326,3.0302 -0.026,0.1249 0.1397,2.2985 0.1545,2.568 l -1.6435,-0.8217 c -1.3236,2.0988 -3.4437,4.8077 -4.4172,7.0363 -0.034,0.082 -0.2386,3.359 -0.2567,3.6466 2.0166,5.6537 6.3399,2.8872 9.7584,5.2901 l 1.7463,2.9275 1.4893,0.051 0.051,-0.5136 -1.5921,-1.7976 v -0.4108 l 0.6163,0.051 c 2.3828,2.0166 4.9991,1.7442 7.8068,0.6677 l 0.873,0.3081 -0.2567,0.3596 c -1.4054,0.7938 -3.871,1.1176 -5.4443,1.0272 0.072,0.756 1.3036,1.1139 1.8489,1.1813 2.6563,-0.3633 4.76,-2.4834 7.3959,-2.8762 1.7686,-0.263 4.7848,0.2309 6.6769,0.3081 l 0.6164,0.9759 c 1.1894,0.636 3.9193,2.0158 5.29,2.1571 l 0.8217,-0.2568 c 0.858,0.4964 2.4998,1.736 2.8762,2.7221 1.5877,0.177 6.1854,0.5987 7.704,0.051 1.1982,-2.6345 2.8441,-1.982 4.1601,-5.3414 l 1.541,-0.8731 0.2567,-1.4895 0.4622,-0.5136 c 1.2311,0.061 2.8577,-2.0219 5.0847,-2.1057 0.4585,-0.9319 1.8233,-2.545 2.9274,-2.7735 0.4605,-0.7313 1.8503,-3.2784 2.0032,-4.0574 0.7609,-3.8607 -0.1151,-5.7035 1.9002,-9.5016 -0.1821,-1.1357 -0.4926,-2.4033 -0.5649,-3.5439 -0.025,-0.3895 1.3206,-5.6533 1.5408,-6.1118 0.3961,-0.8218 1.111,-1.8733 1.6435,-2.6194 0.4224,-0.59 1.0388,-1.0934 1.4381,-1.6949 0.3452,-0.5194 0.6699,-1.7331 0.5651,-2.3626 0.6475,-0.8727 1.2346,-1.7598 1.9002,-2.6193 -0.1397,-1.185 0.1003,-3.1729 0.7705,-4.2116 l 1.2326,-0.9244 c 0.3892,-2.6001 -0.2084,-4.4466 0.6676,-6.8823 0.031,-0.085 0.1036,-0.2921 0.1545,-0.3595 3.8158,-4.9372 6.1176,-8.3512 11.3505,-11.9669 1.0864,-0.7511 2.4481,-1.2121 3.5438,-1.9517 1.432,-0.9664 2.7846,-2.1822 4.1603,-3.2357 l -1.9517,-0.3082 -0.5651,-2.0544 -1.6435,0.154 c -0.4124,-1.0042 0.4556,-4.2353 0.8218,-5.136 0.031,-0.079 1.0147,-1.2934 1.13,-1.4381 -0.2287,-0.94 -0.1855,-2.3305 0.1019,-3.0816 l 1.1301,-0.8731 0.051,-0.7704 c -0.6015,-0.2334 -1.7906,-0.2539 -2.3626,0.1027 l -0.3081,-0.8731 c 1.2047,-2.3683 1.2301,-3.829 4.006,-4.2629 l -0.5648,-2.2085 c 0.1052,-0.2728 6.176,-5.1766 7.6013,-6.5227 l 1.4893,-0.051 1.9517,-1.5408 c 2.3765,-8.2111 4.4383,-9.8365 9.9639,-16.0244 0.1709,-0.1906 1.5079,-1.6061 1.5408,-1.6949 0.3468,-0.9499 0.8579,-2.9246 1.6435,-3.5952 l -1.0272,-0.5136 c -0.8579,-1.6895 -0.8776,-4.7444 -0.3594,-6.5227 2.7852,-3.1868 4.7049,-6.8506 6.728,-10.5288 2.7612,-5.0177 7.2084,-8.7181 10.8369,-13.0455 2.5051,-2.9863 4.2951,-6.7027 7.4988,-9.0908 2.3992,-1.7881 5.1076,-3.5286 7.139,-5.7523 1.8456,-2.0182 2.9185,-4.4379 4.4682,-6.6254 1.0506,-1.4825 2.3524,-3.0397 3.5439,-4.417 1.7027,-1.9706 5.7407,-5.9183 7.5499,-7.3959 4.211,-3.4382 8.9133,-6.3809 13.1996,-9.7584 l 9.0394,-7.0877 c 1.9788,-1.5531 4.7334,-3.9103 7.139,-5.1874 2.9835,-1.581 6.2541,-2.6078 9.4502,-3.6465 1.1346,-0.3682 2.2209,-0.588 3.3385,-1.1813 0.7117,-0.378 1.4291,-1.0712 2.1572,-1.3867 1.5449,-0.6689 3.2648,-1.0026 4.8278,-1.6436 2.7677,-1.134 6.8675,-3.2652 8.9367,-5.4955 0.1019,-0.1101 0.894,-1.4615 1.0272,-1.6949 l -0.1545,-0.7704 -1.3867,-1.0785 -0.3081,-0.9245 c 1.4512,-6.0794 5.6512,-7.7521 7.4985,-11.8642 l -0.2054,-1.4381 c 0.5144,-1.8572 2.1473,-3.2998 3.3898,-4.6738 0.2958,-0.327 3.2351,-5.0283 3.5437,-5.855 1.8937,-5.0719 1.6457,-4.4683 4.9821,-8.7825 0.8168,-1.0552 3.407,-5.08715 3.4924,-6.21461 0.079,-1.0387 -0.5666,-2.33791 -0.1545,-3.38976 0.8494,-2.15959 2.386,-3.57754 3.4925,-5.49553 0.6275,-1.08637 1.3208,-2.71839 1.7461,-3.90337 0.666,-1.8539 -1.0941,-3.65479 -0.3594,-6.11186 2.1201,-7.09673 11.8697,-15.95491 16.8975,-20.90356 0.396,-0.39116 0.8113,-0.7552 0.9244,-1.33536 l -0.9758,-2.56801 c 0.143,-0.68206 0.3427,-1.32016 0.719,-1.90032 1.4085,-2.16781 2.7357,-4.49997 4.263,-6.5741 1.316,-1.78651 3.3539,-3.57137 5.0846,-4.93057 2.6263,-2.06262 4.9404,-2.96779 5.7009,-6.72817 0.054,-0.78889 -0.675,-2.07207 -1.1812,-2.61937 0.4585,-2.4472 1.5631,-3.87337 2.5167,-6.11185 0.2971,-0.6985 0.3086,-1.56957 0.6163,-2.25985 0.6193,-1.38877 1.778,-2.79481 2.2599,-4.21152 0.048,-0.13806 0.3744,-3.25007 0.4108,-3.59521 l -0.1035,-5.18737 c 2.5562,-3.75052 3.2856,-5.57607 6.985,-8.16626 0.3208,-2.86302 3.1815,-5.40966 4.6738,-7.70402 0.2761,-0.42238 1.36,-2.77344 1.5408,-2.97888 0.3632,-0.41253 2.3107,-1.47178 2.8248,-1.95169 0.5329,-0.49799 1.0968,-1.4993 1.5409,-2.10576 0.031,-0.0427 0.4449,-0.26707 0.5135,-0.30816 0.067,-0.20051 0.7287,-1.97387 0.7192,-2.05441 -0.1069,-0.85956 -0.1217,-1.55888 0.308,-2.36256 2.3967,-1.70269 4.4232,-3.75217 6.5741,-5.75233 0.4769,-0.95818 0.1035,-1.64312 0.3083,-2.41393 l 3.1841,-12.01827 c 0.4837,-1.82266 -0.2435,-2.39831 -0.4621,-4.16016 -0.043,-0.34186 0.2072,-1.74666 0.1545,-2.00305 -0.1611,-0.75602 -0.8256,-1.60983 -1.0787,-2.36256 -0.59,-1.75693 0.5048,-4.14168 1.4896,-5.5469 0.1216,-0.61632 -0.7787,-1.74254 -1.1814,-2.10576 l -0.1019,-4.72513 3.6465,-6.26593 c -0.033,-0.29419 -0.023,-0.74945 -0.1019,-1.02721 -1.2346,-4.1992 -2.1963,-8.2965 -4.4172,-12.12098 -0.064,-0.10847 -1.9173,-1.96031 -2.1569,-2.20849 l -1.4381,-7.03633 -0.8218,-0.41088 c -1.5304,-0.0575 -5.6723,0.23667 -6.0606,2.0544 l 1.1301,0.30816 c 0.6848,-0.43882 2.0785,-0.47169 2.8247,-0.20544 l 0.3082,0.66768 -0.3597,0.71905 c -1.132,0.40718 -2.0394,0.56003 -3.287,0.35952 -0.2575,-0.48813 -0.9823,-1.53752 -1.5406,-1.74625 l -0.3588,-1.07798 -3.1843,-0.51361 -0.3082,0.87313 c -0.2416,0.10354 -0.5366,0.18654 -0.7705,0.30816 v 1.284 c 1.9413,1.52519 2.062,4.27278 3.3899,5.08465 l 2.2084,0.20544 0.7191,0.87312 -0.3082,0.66768 c -1.1488,0.74781 -3.2451,1.46397 -4.6224,0.97585 -0.4667,-0.86943 -3.6703,-3.26158 -4.571,-3.38977 l -0.3596,-0.61632 0.1545,-0.7704 c 0.4352,-0.40595 2.1169,-1.84157 2.2599,-2.36257 -0.3161,-0.7741 0.099,-2.19534 0.5649,-2.82481 -0.087,-0.0822 -0.8785,-0.86161 -0.9245,-0.87312 -2.2073,-0.57359 -4.5716,-1.02473 -6.7283,-1.74624 -2.7624,-0.9253 -5.1519,-2.57622 -8.1662,-2.97889 -1.9064,-0.25474 -3.9837,-0.0197 -5.9063,-0.20544 -1.2346,-0.11833 -2.4623,-0.63234 -3.6979,-0.7704 -3.823,-0.4306 -6.407,-0.10354 -10.3235,-1.43808 l -0.6163,0.35952 c -0.2679,0.96146 -0.53,1.90156 -0.719,2.87616 -0.4339,0.14135 -1.6518,0.65824 -1.849,1.12993 h -1.6435 l -0.976,0.7704 -1.4893,-1.23264 c 0.3714,-1.22114 1.4338,-3.42429 2.5166,-4.21153 l 0.2568,0.5136 -0.3081,0.61632 0.2567,1.33536 h 1.3355 l 0.8731,-1.18128 c -0.5769,-2.1563 -5.8083,-4.97823 -7.6013,-6.16321 -0.4931,-0.32542 -1.3773,-0.31309 -1.849,-0.71904 -0.189,-0.16271 -0.6024,-0.85916 -0.7705,-0.97585 -0.6127,-0.42731 -1.5883,-0.56866 -2.1569,-1.0272 -1.4945,-1.20635 -3.3287,-2.99203 -4.6226,-4.41697 -1.2341,-1.35755 -2.2523,-3.42428 -3.5951,-4.62241 -0.1829,-0.16271 -2.9013,-1.27619 -3.3385,-1.5408 -0.636,-0.38459 -1.1249,-1.12171 -1.7462,-1.54081 -1.3526,-0.91215 -1.3362,-0.38376 -2.8762,-2.15712 -1.249,-1.43808 -0.6163,-3.72381 -1.6435,-4.67377 -4.781,-1.34933 -6.3778,-4.41122 -7.1391,-9.24482 l -0.9758,-0.82176 -2.1571,-0.20544 -0.9759,-0.71904 -1.6436,0.56496 -3.6464,-2.00305 c -1.6616,-2.04618 -1.1439,-3.25828 -1.9004,-4.82785 -0.4698,-0.97625 -1.5593,-1.84198 -2.003,-2.8248 -0.5884,-1.30332 -0.7215,-2.96163 -1.2327,-4.31425 -0.7445,-1.9673 -4.4325,-5.49142 -5.1874,-7.24178 -0.9743,-2.25984 0.4377,-4.04717 -2.6193,-5.85505 -0.4059,-0.76095 -0.2169,-3.09804 -0.1019,-3.90337 -1.6419,-2.19246 -1.8194,-4.88046 -2.8762,-7.29313 -0.5653,-1.29346 -1.5883,-2.67237 -2.3111,-3.90337 -0.089,-0.15285 -0.3998,-1.32427 -0.4623,-1.38673 -0.4766,-0.48155 -2.4604,-2.56143 -2.9276,-2.77344 -1.4164,-0.64426 -3.2389,-0.47293 -4.6737,-1.38672 -0.7231,-0.46183 -1.2966,-1.24662 -2.003,-1.74625 -1.0096,-0.71 -2.6991,-0.96557 -3.7493,-1.74624 -0.8284,-0.61468 -1.4611,-1.69037 -2.2599,-2.36257 -1.2967,-1.0913 -2.9756,-1.93935 -4.2115,-3.0816 -0.2301,-0.21366 -5.4427,-5.77452 -5.4956,-5.85506 -0.4761,-0.72808 -1.5231,-5.91627 -2.2599,-7.54993 -1.8698,-1.44795 -4.2445,-2.86795 -5.8549,-4.51969 -0.3883,-0.39773 -2.7525,-4.99796 -2.8248,-5.13601 -0.546,-1.04343 -1.0185,-1.86428 -1.4381,-2.61937 H 881.63178 Z m -137.69654,683.60302 -496.4981,177.0897 151.87193,342.726 -6.16321,9.1421 0.15449,0.3081 -1.59208,0.4109 -0.051,-0.051 -0.051,0.1545 0.61632,1.5408 12.94275,1.8489 57.21532,131.071 c 1.75512,-0.8546 3.46159,-1.8596 5.18729,-2.568 0.86449,-0.355 1.92046,-0.4503 2.77345,-0.8217 0.23831,-0.1052 0.86038,-0.7337 1.12992,-0.8731 l 7.08769,-3.6979 c 1.23922,-0.6469 2.54796,-0.3144 3.74938,-0.6678 2.84773,-0.8382 5.81922,-1.5649 8.62849,-2.5167 1.02721,-0.3479 2.01611,-1.0302 3.03017,-1.4381 0.91708,-0.3693 1.99524,-0.3793 2.92761,-0.7189 0.23814,-0.087 1.11299,-0.6365 1.28392,-0.6677 1.3822,-0.2428 3.26305,0.035 4.57096,-0.3595 1.68823,-0.5096 3.40013,-2.1587 5.08474,-2.5681 2.52281,-0.6114 5.66424,-0.2814 8.26889,-0.6676 1.18696,-0.1743 2.40842,-0.8323 3.59538,-1.0785 1.27668,-0.265 2.6178,-0.2801 3.90336,-0.5138 1.0844,-0.1969 2.31359,-0.8796 3.44105,-0.4621 l 1.28408,-1.284 c 3.83056,-0.8797 8.27383,-1.6228 12.17227,-1.7464 0.11833,0 3.32074,0.4642 3.54376,0.5138 0.2863,0.062 0.9899,0.4842 1.23265,0.5134 0.8469,0.1036 1.95184,-0.161 2.77361,0 0.27397,0.053 1.36708,0.8174 1.64352,0.8732 1.75364,0.3534 3.74838,-0.2391 5.34145,0.9245 l 1.0272,-1.4893 c 1.26995,-0.6233 4.26955,-1.8109 5.75234,-1.5923 0.99876,-1.5252 3.31367,-1.1924 4.7764,-1.7462 1.59751,-0.6065 3.40801,-2.5228 5.29018,-2.0544 l 0.56488,-0.6678 -0.46233,-2.2084 c 0.22188,-1.3477 1.64731,-3.3364 2.51673,-4.3143 2.02646,0.1299 4.15647,-2.8605 5.13601,-2.568 0.23009,-1.6254 2.57047,-1.987 3.49249,-2.8761 1.61887,-1.5581 1.6312,-2.6648 4.41697,-4.3656 l 0.5136,-1.9004 c 3.97733,-1.7289 8.36077,-2.3142 12.58331,-3.133 1.22064,-0.2367 1.81971,0.1862 2.92744,0.3083 1.47589,0.1594 3.29855,-0.084 4.72513,-0.4623 l 0.92448,-0.8732 5.44418,-1.1298 1.18136,0.8218 c 0.92498,0.1611 1.74329,-0.3951 2.61928,-0.5138 2.16288,-0.2887 4.39972,-0.4109 6.5741,-0.6163 0.1019,-0.5453 0.53431,-1.8598 1.07864,-2.157 0.83458,-0.4324 2.49799,-0.2138 3.28705,0.2055 0.68025,-0.46 2.10486,-1.785 2.25984,-2.6707 1.50054,-1.4613 3.16658,-1.7851 5.13602,-1.2327 l 0.66759,-0.8732 -0.3596,-0.5649 -1.43808,-0.1545 -1.0272,-0.9244 c 0.49338,-1.3477 1.14093,-2.4168 -0.20544,-3.5952 2.85365,-2.8631 3.98916,-4.0569 8.01217,-5.8037 l 0.61632,0.2568 c 2.25541,-0.9944 4.98218,-0.846 7.08786,-2.0032 0.59792,0.5238 3.26996,0.028 4.00593,-0.1019 20.559,-3.6506 39.26082,-7.9236 60.19405,-7.6013 0.18292,0 0.7524,0.3266 0.97592,0.3595 0.89408,0.1298 1.94347,0.033 2.82489,0.2054 0.49273,0.095 0.9963,0.5739 1.48936,0.6678 0.58345,0.1117 1.50465,-0.3867 2.00313,0.1545 0.46807,-0.5818 1.38089,-0.8801 2.10568,-0.9245 l 11.7101,-0.719 c 1.86212,-0.1135 3.91225,0.4108 5.80361,0.4108 0.63638,0 1.37695,-0.1512 2.00313,-0.1019 0.22385,0.018 0.44408,0.079 0.6676,0.1019 v -585.9675 z"
     id="rect6" />
</svg>
