<?xml version="1.0" encoding="UTF-8" standalone="no"?>
<svg
   version="1.1"
   id="Anguilla"
   x="0px"
   y="0px"
   width="1024"
   height="1024"
   viewBox="0 0 1024 1024"
   enable-background="new 0 0 1776.815 1604.402"
   xml:space="preserve"
   sodipodi:docname="Anguilla_location_map.svg"
   inkscape:version="1.1.2 (b8e25be8, 2022-02-05)"
   xmlns:inkscape="http://www.inkscape.org/namespaces/inkscape"
   xmlns:sodipodi="http://sodipodi.sourceforge.net/DTD/sodipodi-0.dtd"
   xmlns="http://www.w3.org/2000/svg"
   xmlns:svg="http://www.w3.org/2000/svg"><defs
   id="defs921" /><sodipodi:namedview
   id="namedview919"
   pagecolor="#ffffff"
   bordercolor="#666666"
   borderopacity="1.0"
   inkscape:pageshadow="2"
   inkscape:pageopacity="0.0"
   inkscape:pagecheckerboard="0"
   showgrid="false"
   inkscape:zoom="0.40513538"
   inkscape:cx="1373.6149"
   inkscape:cy="802.20099"
   inkscape:window-width="1512"
   inkscape:window-height="872"
   inkscape:window-x="0"
   inkscape:window-y="38"
   inkscape:window-maximized="1"
   inkscape:current-layer="Anguilla" />

<path
   fill="#FEFEE9"
   stroke="#0978AB"
   stroke-width="0.944646"
   stroke-linejoin="round"
   stroke-miterlimit="3.8637"
   d="m 853.82417,817.23285 -0.84221,0.73979 -0.92942,-0.44472 c -0.78523,0.12602 -1.6529,0.13874 -2.2709,0.71011 -0.11388,-0.0582 -1.1991,-0.59984 -1.23539,-0.63135 -0.74954,-0.64588 -1.37724,-2.06913 -2.18005,-2.71622 -0.415,-0.33506 -1.63168,-0.59742 -2.16481,-0.42715 l -0.68347,-0.64952 c -0.0182,-0.65437 -0.5514,-1.6862 -1.14151,-2.00975 -0.29142,-0.0752 -1.39474,-0.29023 -1.5753,-0.50653 -0.29514,-0.034 -1.27904,0.10179 -1.49658,0.24175 -0.841,0.54288 -2.03101,2.00127 -2.12732,3.07551 -0.0104,0.11573 0.15329,0.83615 0.18542,0.95853 0.11934,0.45806 0.26172,0.92157 0.63073,1.25541 l -0.48714,0.32113 -0.026,0.8125 c -0.99974,1.14757 -1.24933,2.72835 -2.46723,3.76685 -1.24145,-0.12966 -2.29748,0.37929 -3.08271,1.32146 -0.14004,0.16783 -0.12367,0.49198 -0.64649,0.89611 l -0.47198,0.10179 -0.026,0.34779 0.14723,0.26113 -0.52533,0.71011 c -0.44107,-0.29203 -1.1888,-0.0388 -1.84014,-0.40413 -0.16784,0.31871 -0.62588,0.69254 -0.97186,0.79372 l -0.35498,0.86885 0.37014,0.89188 0.70651,0.51017 -0.3284,0.49501 -0.51018,-0.057 c -0.38287,0.1036 -0.93306,1.03546 -1.08816,1.35538 0.11812,0.58408 0.53564,1.29782 0.86525,1.78011 l 0.2605,-0.46471 c 0.88638,0.29568 2.11518,0.38777 3.0343,0.21145 l -0.72158,0.64892 0.7331,0.91126 -0.11692,0.21206 -0.57807,0.20359 0.223,0.47623 -0.45744,0.43867 v 0.44957 c -0.32657,0.0994 -0.64527,0.23085 -0.95973,0.36293 l -0.18481,0.26781 c 0.14056,0.53258 0.44168,0.49017 0.63134,0.72949 0.20421,0.25811 0.38053,0.63558 0.5514,0.92157 l 0.63133,0.33263 -0.3284,0.66891 -1.31116,0.19328 v 0.23327 l -1.22032,0.25024 0.34052,0.39988 1.23184,-0.0982 0.0797,0.20782 -0.98216,0.0376 -0.48775,0.38534 -0.35507,-0.0376 -0.95609,-1.26207 c -0.66823,0.10542 -1.58622,0.61013 -2.0479,1.09969 -0.5223,-0.11996 -1.62138,0.21691 -2.08912,0.40777 l -0.30233,0.4417 c -0.98277,0.0818 -3.78021,0.40595 -4.51512,1.04274 l -0.4835,-0.5138 -0.44592,0.0757 -0.23816,0.32476 -0.24959,-0.14723 c -0.49987,0.41746 -1.83043,1.68802 -1.95705,2.37632 l -9.81612,4.01284 c -1.34386,0.54955 -2.79862,1.51837 -3.91467,2.44054 -0.64407,-0.0903 -1.75346,0.22539 -2.19152,0.73313 l -0.0643,-0.54409 c -0.43019,-0.0273 -1.07183,0.23145 -1.43174,0.43867 l 0.15875,0.61558 -0.11693,0.30598 -0.69921,-0.083 -0.28719,0.5556 c -0.16299,-0.25083 -0.71375,-0.40716 -0.9864,-0.42291 l -0.6271,0.55924 -0.8428,0.0831 -0.0115,-0.46472 c -0.24175,-0.18843 -1.04214,-0.43443 -1.31479,-0.43443 -0.0951,0 -0.55318,0.19874 -0.64225,0.19692 -0.36777,-0.009 -0.78523,-0.23387 -1.15241,-0.23812 -0.44897,-0.006 -0.88097,0.3084 -1.53775,0.21146 l -0.88037,0.72162 -0.60468,-0.19267 c -0.22903,0.13633 -0.75435,0.53561 -0.83857,0.8125 l 0.0527,0.30232 0.48775,0.39327 -0.59317,0.0831 -0.24963,0.43812 -0.74768,0.1926 -0.40836,0.51382 c 0.0109,0.31445 0.10845,1.08574 0.32899,1.34148 l 1.6547,0.64224 c 0.26538,0.3187 0.42897,0.96458 0.43443,1.36807 -0.24842,0.045 -0.76948,0.25816 -0.88036,0.51745 l 0.0376,0.49138 -0.47199,-0.0797 -0.3405,0.23807 c -0.0218,0.44895 0.08,1.06097 0.30233,1.45839 l -0.35505,-0.0872 0.10603,0.27566 0.44594,-0.0372 -0.30235,0.14358 0.17027,0.26483 c -0.2563,-0.18299 -0.81372,-0.25998 -1.11485,-0.25331 l 0.24962,0.53261 0.40777,0.20785 0.18117,0.329 -0.55137,0.63861 -1.17907,-0.75561 -0.46108,0.117 -0.4835,-0.35932 -0.21146,0.3478 0.1854,0.41561 -0.61983,0.0981 -0.15451,0.81614 c -0.18782,0.052 -2.3654,0.6471 -2.40297,0.66892 -0.0467,0.0268 -1.8607,1.70383 -2.02127,1.85166 l -0.19691,-0.40782 c 0.21994,-0.18896 0.47623,-0.66892 0.41927,-0.97125 -0.53258,0.13943 -2.64654,0.56535 -3.11308,0.16602 -0.62528,0.14905 -0.96094,0.60839 -1.36386,0.75197 -0.53925,0.192 -1.24451,0.27566 -1.80981,0.40045 -0.575,-0.32172 -1.27298,-0.81735 -1.87828,-1.05057 -0.15207,-0.0589 -1.0694,-0.11397 -1.29963,-0.1739 -0.69497,-0.17996 -1.45658,-0.60891 -2.15396,-0.72166 l -0.73555,0.13085 c -1.94129,0.34598 -2.72774,2.43268 -3.29243,4.09224 0.19751,0.46956 0.23144,1.30753 0.0376,1.78437 l -2.90162,-0.009 c -1.25784,1.86499 -0.86704,4.54786 -2.22909,6.60485 -0.49865,0.0873 -3.36393,0.60345 -3.76685,0.83494 -0.27688,0.15874 -0.5047,0.54291 -0.77433,0.7253 -0.99245,0.67309 -2.07458,1.27299 -3.09854,1.90069 -1.1609,-0.59505 -2.59444,0.37135 -3.81956,-0.30233 l -1.94613,0.60466 -0.18116,-0.44168 -0.6574,-0.40842 c -0.77736,-0.0951 -1.68256,0.15147 -2.40298,0.43865 l -0.1551,0.74833 c -0.36173,0.43925 -0.98034,0.82524 -1.48444,1.06937 l -0.58954,1.71171 0.56287,0.74824 -0.47198,-0.0537 -0.3284,-0.26717 c -0.24357,-0.0632 -1.93523,1.14272 -2.22909,1.3336 l 0.0376,-0.52897 0.64224,-0.32537 -0.30233,-0.64952 c -0.29447,-0.16541 -0.87734,-0.15329 -1.16757,0.0147 -0.35929,-0.24179 -1.06819,-0.46774 -1.50746,-0.38174 l -0.88036,-1.18265 -0.5138,0.13934 0.0679,-0.63133 -0.30234,-0.5023 -0.68405,0.55556 -0.52532,-0.0981 -0.89127,0.70287 c 0.0503,0.4059 -0.0321,1.15052 -0.27628,1.50013 l 0.27628,0.21148 -0.32899,0.60467 c -1.11121,0.83433 -2.22909,1.7789 -3.38514,2.54291 -0.23327,0.1539 -2.13093,1.07492 -2.19152,1.14091 -0.21509,0.23452 -2.2927,3.59297 -2.59989,4.07344 -0.15026,0.23452 -1.39235,0.79251 -1.70802,0.86525 0.56591,-0.82705 1.33357,-1.03854 1.68136,-1.43596 0.21812,-0.24967 0.79251,-1.41725 0.78584,-1.8177 l 0.64225,-0.26838 0.49866,-1.21669 c -0.12906,-0.42652 -0.12179,-0.99731 -0.0527,-1.43171 l 0.38171,-0.27566 -0.0794,-2.38062 0.44957,-0.67611 -0.0794,-0.6762 -0.88036,-0.1551 0.0261,-0.74834 c -0.25145,-0.26595 -1.52746,-0.31869 -1.82496,-0.26838 -0.0521,0.01 -1.1512,0.46168 -1.27298,0.51018 -0.82584,0.88517 -0.84159,2.55322 -0.15874,3.50628 l -0.20782,0.35932 0.0527,1.24206 c -0.45927,0.44418 -0.99912,0.95003 -1.34085,1.49719 l 0.17026,0.26838 c -0.15631,0.39569 -0.17146,1.0058 -0.14359,1.42089 -0.36657,0.16117 -0.781,0.66762 -0.9446,1.02027 l -0.39261,0.0459 -0.48714,1.01671 -0.39262,-0.10972 -0.6574,0.37447 -0.1545,0.50229 -0.38171,0.0372 -0.0527,0.18897 c -0.31264,0.0658 -0.6683,0.13882 -0.95974,0.27574 l -0.20782,0.33992 -0.24963,-0.26483 c -0.12905,0.0736 -0.96155,0.58049 -1.03911,0.69498 -0.14299,0.2127 -0.49016,0.99611 -0.35506,1.26934 l -0.26052,0.25695 -0.30235,0.0641 -0.0793,0.13631 0.22297,0.1739 -0.18116,0.0641 -0.14723,0.24535 0.0679,0.28362 c -0.32537,0.53131 -0.82341,1.05786 -1.29965,1.45476 -0.10482,0.6658 0.0103,2.18845 -0.0679,2.52412 -0.27144,1.15849 -1.81404,2.5708 -2.21817,4.23644 -0.60651,0.38953 -1.29237,0.78886 -1.82496,1.27964 l -0.15511,-0.29081 -0.30234,0.0147 v 0.33991 l -0.24962,0.41933 -0.78949,-0.0606 -0.11693,0.22725 0.36656,0.26414 -0.0376,0.32112 0.30234,-0.0372 0.48351,0.40418 -0.45746,0.86879 -0.56651,-0.13934 -0.11694,-0.56707 -0.36656,0.68043 -0.57802,-0.0303 -0.0376,0.21868 -0.57802,0.29877 -0.0945,0.2793 c -0.31264,-0.01 -1.40325,0.0269 -1.64016,0.27626 l -0.77433,-0.106 -0.19631,0.23443 -0.34051,0.0416 c -0.0636,0.11207 -0.20903,0.2515 -0.3284,0.30233 l -0.30233,-0.26474 -2.57324,-0.0303 -0.23812,0.24179 0.0261,0.52889 0.69921,0.45743 c -0.18299,0.10366 -0.52047,0.15216 -0.72526,0.10185 l -0.12845,0.12843 c -0.5441,-0.0736 -1.53473,-0.18724 -1.90432,0.35507 -0.0612,0.4926 -0.39566,1.25842 -0.78948,1.58197 -0.66164,-0.10661 -1.70742,0.11813 -2.2709,0.47744 l -0.0376,0.34356 -1.41658,0.7634 -1.62865,-0.56708 -1.08818,0.28718 -0.3702,-0.24968 -0.2672,0.18542 c -0.92823,0.64346 -0.49744,0.69923 -1.03245,1.41301 -0.26053,0.3471 -0.73374,0.71551 -1.05062,1.02391 l 0.42292,0.95245 -0.23812,0.0528 -0.30234,0.47987 -0.52531,0.24179 -0.0909,0.44228 -0.33991,-0.019 -0.18541,-0.24968 c -0.33808,0.24483 -1.05728,0.3575 -1.45839,0.33992 -1.08696,-0.5301 -1.62985,-1.72192 -2.75439,-2.17633 -1.95886,-0.7925 -2.68835,-0.51927 -4.67386,0.1545 -0.73859,0.2508 -1.66985,0.56526 -2.36118,0.91487 -0.0382,0.019 -0.42958,0.46653 -0.49865,0.52897 -1.09727,0.98701 -1.41052,1.19486 -1.99885,2.73561 -0.45139,-0.17269 -0.92277,-0.4344 -1.31115,-0.72166 -1.03062,0.17814 -1.73528,-0.0606 -2.51991,0 -0.58227,0.045 -1.17786,0.28059 -1.76073,0.33992 -0.57924,0.0589 -1.4081,-0.16178 -2.20304,0.13639 -0.1642,0.0615 -1.16028,0.85183 -1.4699,1.03482 l -0.69496,-0.0753 c -0.53439,0.58465 -1.59835,0.77189 -1.90432,1.45111 l -0.24963,-0.35507 c -0.66042,0.57678 -1.54806,1.06816 -2.35027,1.40929 l -0.41928,-0.26475 -0.35505,0.0981 -0.39322,-0.17026 -0.26417,0.0338 -0.27629,-0.52109 0.0152,-0.3478 -0.24962,-0.22655 c 0.06,-0.35447 0.0945,-0.7156 0.12845,-1.07309 l 0.21146,-0.10964 0.15874,-0.99368 0.39262,-0.22656 0.13269,-0.43448 0.47199,-0.14359 1.10334,-2.72773 c -0.0139,-0.0805 -0.16238,-0.95488 -0.1739,-0.97489 -0.46715,-0.83372 -1.19906,-1.68858 -1.75709,-2.4745 l 0.11694,-0.46471 c -0.31083,-0.28838 -0.84038,-0.99004 -0.86522,-1.44323 0.59256,-0.69126 0.40898,-1.37716 0.1436,-2.18785 -1.03972,-1.4208 -6.48186,-3.31792 -8.1208,-3.93956 -0.67739,-0.25686 -1.04336,-0.45016 -1.73711,-0.65861 -0.0534,-0.0156 -2.91131,-0.47562 -2.95434,-0.47623 -1.07849,-0.013 -2.82528,0.26604 -3.9371,0.39266 -0.74464,0.0849 -1.65409,0.15147 -2.37632,0.32839 -1.92552,0.47199 -5.2331,1.77103 -6.62727,3.28329 -0.47684,0.51745 -0.88521,1.19789 -1.39416,1.67412 -0.95247,0.89131 -2.92284,2.04607 -4.04313,2.85252 -0.96519,0.69499 -1.79527,1.47355 -3.00402,1.73777 -0.11634,0.40045 -0.95671,1.16446 -1.26208,1.41717 l -0.10543,0.52533 c -1.29237,-0.18239 -2.5393,1.18265 -3.08339,2.21028 -0.32961,-0.17148 -0.84462,-0.23756 -1.20938,-0.18906 l -1.6662,1.10332 -0.66891,1.51901 0.21146,0.5592 c -0.57742,0.85979 -1.33721,1.32814 -2.37632,1.32632 l -0.56712,-0.3284 -1.19361,0.47199 -0.15511,-1.44324 -0.77433,-0.28354 0.56288,-0.12843 -0.0261,-0.69499 c -0.86522,-1.26933 -2.40177,-1.64926 -3.76806,-2.09336 -0.39444,-0.12782 -0.60771,-0.23209 -1.01124,-0.32839 -0.99549,-0.23868 -2.961,0 -3.93165,0.21633 -2.67381,0.59011 -3.40937,0.74582 -5.36156,2.64225 l -1.31237,1.27479 c -0.44715,0.52715 -0.76221,1.23911 -1.17906,1.79831 -0.41565,0.55746 -0.95005,1.20334 -1.43173,1.70382 -1.65591,1.72071 -3.71232,3.2754 -5.04044,5.28216 0.15026,0.85858 -0.65921,2.75319 -1.01245,3.50265 0.26599,0.57141 0.0103,1.71171 -0.53682,2.0595 l -0.95973,-0.52169 c 0.12663,-0.65255 -0.18723,-0.95367 -0.34052,-1.50386 -0.12966,-0.46653 -0.19631,-0.98883 -0.29083,-1.46566 0.0818,-0.41076 0.62528,-0.96155 0.95973,-1.17122 v -0.70278 l 0.30235,-0.28718 c -0.24175,-0.65012 -1.11788,-0.92647 -1.66863,-1.17303 -0.83189,-0.37144 -0.36232,-0.21148 -1.42568,-0.42288 l -1.72316,-0.34234 c -1.36447,-0.11579 -3.7111,0.78704 -4.87017,1.49225 -0.85068,0.51745 -1.5408,1.22274 -2.19637,1.95584 -0.35869,0.40114 -1.3051,1.46445 -1.26814,2.04919 l 0.66891,0.12843 0.23448,0.30961 c -0.59923,0.73067 -2.33451,2.48593 -3.34393,2.65619 -0.6883,0.0485 -1.73468,-0.3562 -2.00975,-1.03906 l -0.0643,-0.7634 c -1.11182,0.21382 -2.46781,0.25383 -3.58569,0.0528 -0.4526,-0.72522 -0.91974,-1.67767 -1.45475,-2.33144 -0.0473,-0.0572 -2.16365,-2.09397 -2.1691,-2.097 -0.38898,-0.23997 -0.66709,-0.25634 -1.09303,-0.42054 l -2.18607,-0.84161 -1.06819,-0.15086 c -2.03944,-0.28899 -4.29822,0 -5.92928,1.34875 -0.39383,0.32598 -0.3187,0.65074 -0.55137,1.0052 -0.36959,0.56344 -1.24329,1.01126 -1.20936,1.80619 l 0.76282,0.009 -1.53776,1.64736 -0.24902,-0.24171 c -0.13572,-0.25626 -0.19026,-0.7725 -0.0491,-1.03915 l 0.22296,-0.0981 -0.10603,-0.44592 -0.78948,-0.2036 -0.34052,0.23816 -0.13207,-0.36659 c -0.30537,-0.20967 -0.781,-0.28051 -1.11606,-0.34113 l -1.1815,-0.21451 c -0.37444,-0.0277 -1.98915,0.45379 -2.25574,0.61193 -0.44655,0.26544 -0.96277,0.81675 -1.36751,1.1603 l -0.23448,0.68772 0.20782,0.3096 -0.77069,0.0268 -0.14723,0.18542 0.0151,0.89547 c -0.12602,0.1642 -1.47051,0.5992 -1.73407,0.69499 l 0.19631,0.13995 -0.0793,0.17389 c -1.58441,-0.61436 -4.61449,0.14117 -5.28945,1.86309 -1.12455,0.15207 -2.07641,-0.35559 -3.14762,-0.42713 -1.08577,-0.0719 -2.29513,0.0494 -3.38877,0.0719 l -0.40777,-0.49502 -0.023,-0.37386 0.56288,-0.1739 -0.32839,-0.17754 1.07667,-0.29869 0.10604,-0.49502 0.58953,-0.54049 -0.23448,-0.20048 0.0757,-0.35871 c 0.56894,-6.1e-4 1.37962,-0.56534 1.69651,-1.0052 l -0.3702,-0.57435 0.35505,-0.12852 0.55197,-0.92214 c 0.30598,-0.0675 0.59862,-0.19936 0.85249,-0.37742 l 0.11815,-0.0831 3.36271,-0.31021 c 0.47987,-1.12454 2.05884,-2.21573 2.17637,-3.20759 0.2351,-0.1351 0.90642,-0.44046 1.19422,-0.35507 l 0.35506,-0.44956 v -0.55564 l 0.29082,-0.0113 -0.0945,-0.40409 0.34415,-0.3096 0.23447,0.14722 0.22298,-0.26119 0.24962,0.0303 0.24964,-0.41925 -0.64226,-0.60466 1.16756,-1.19789 0.78948,0.18966 c 0.21874,-0.25816 0.37869,-0.54836 0.30234,-0.89616 l 0.70709,0.29454 c 0.21266,-0.29818 0.25023,-1.02218 0.22296,-1.36391 l 2.02127,-0.0915 0.22297,-1.17061 0.27568,-0.0606 -0.0643,-0.29505 -0.34051,-0.16723 0.98276,-0.23686 -0.11694,-0.45328 h -0.3284 l -0.1963,-0.32112 0.0643,-0.3284 1.0391,-0.0572 -0.0261,-0.64224 -0.21146,-0.009 -0.0909,-0.16966 0.20782,-0.17753 -0.41927,-0.0719 -0.0643,-0.1739 0.40776,-0.071 0.1436,-0.223 -0.72163,0.0459 -0.34353,-0.20785 0.3702,-0.55919 0.70647,0.10176 -0.14299,-0.41197 0.23811,-0.10185 -0.0412,-0.24534 0.57802,-0.45744 0.85431,0.26475 0.0903,-0.13632 -0.22297,-0.16601 c 0.18298,-0.61012 0.90642,-0.80645 1.44324,-0.9858 v -0.20057 c 0.37565,0.0779 0.88703,0.0286 1.24693,-0.0981 l 0.15875,0.26839 0.74827,0.0494 0.0793,-0.41933 c 0.42837,-0.50767 1.50505,-0.17866 2.10064,-0.49494 l 0.45745,0.15511 0.0261,0.3284 -0.32476,0.3665 0.4835,0.74045 c 0.43564,0.0814 2.71441,0.66165 3.01857,0.65741 0.0297,0 1.06455,-0.24604 1.11424,-0.26484 0.20298,-0.0745 0.3908,-0.28293 0.59317,-0.36295 0.36717,-0.14419 0.8119,-0.23079 1.19422,-0.33983 l 0.10603,-0.23027 c 0.54348,-0.22361 1.13121,-0.75492 1.4808,-1.2166 -0.11209,-0.19754 -0.002,-0.79138 0.0527,-0.99004 0.28236,-0.16056 1.57291,-0.78947 1.64017,-1.08462 l -0.31386,-0.62709 0.82705,-0.41924 0.64285,0.0372 -0.0376,-0.15511 0.35506,-0.17389 0.0758,0.29081 0.40776,-0.18906 -0.17025,-0.36659 0.24963,-0.44955 0.13208,0.3284 0.35506,-0.11692 0.17026,-0.37386 0.22297,0.23816 0.28719,-0.29515 0.61619,0.0946 0.21146,-0.36598 0.63134,0.0338 c 0.04,-0.0468 0.28174,-0.34538 0.31385,-0.36659 1.57957,-1.05482 4.9544,-3.0531 6.208,-4.42419 l 1.71528,-2.194 0.85795,-1.09725 v -0.70712 l -0.6689,-0.49865 0.32839,-0.0945 -0.22297,-0.62345 1.15605,-0.6574 0.30234,0.25322 0.1551,0.53261 0.67255,-0.23807 0.12845,-0.3478 2.14244,-0.76704 1.86252,1.14082 c 1.02396,-0.30536 2.29876,-0.55252 3.26819,-0.97489 1.24148,-0.541 3.26578,-2.04607 4.29579,-2.84039 l 3.10582,-2.39267 c 0.65194,-0.60041 3.19064,-3.42695 3.74443,-4.14489 0.7816,-1.01308 2.49325,-4.01716 2.92465,-5.34642 l -0.17026,-0.54049 -0.43079,0.17754 -0.48714,-0.35508 c 0.35203,-0.37386 0.75979,-1.24993 0.64225,-1.78315 l -0.74767,-0.39317 c 1.05122,0.0164 1.48202,-0.3969 1.61713,-1.42453 0.66588,-0.71673 1.98006,-1.86794 2.7544,-2.34174 0.0903,-0.0554 0.87067,-0.16056 0.9973,-0.22422 0.79069,-0.39681 1.5008,-1.01422 2.28603,-1.42445 0.74344,-0.38833 1.6129,-0.6865 2.38784,-1.01672 0.59801,0.28241 1.70074,-0.3187 2.3236,-0.3284 0.85189,-0.013 2.60231,0.42115 3.4536,0.74834 0.0757,0.0294 0.42776,0.26292 0.47199,0.26838 0.5659,0.0719 1.18574,-0.0364 1.75649,0.0147 0.51925,0.0468 1.05849,0.25574 1.57593,0.28354 0.92883,0.0494 2.23151,0.0615 3.00766,-0.53677 0.41504,-0.3193 0.32657,-0.63557 0.4835,-0.99004 0.13088,-0.29505 0.3593,-0.61072 0.52531,-0.89192 0.25327,-0.22534 1.22028,-0.10661 1.51171,-0.045 l 0.47199,-0.33325 c 1.01185,-0.0879 1.81344,0.50957 2.80711,0.5792 0.28113,0.0199 0.61983,-0.11207 0.90702,-0.11328 0.62529,-0.009 1.30268,0.2411 1.88918,-0.11691 l 1.02396,0.23807 0.79009,-0.25323 c 0.46169,0.10115 2.24181,0.5792 2.4672,1.03906 1.65046,0.13935 2.26726,0.11025 3.78199,-0.59314 l 1.86312,0.51018 c 0.57076,-0.30173 1.09789,-0.24968 1.66622,-0.42722 0.67799,-0.21139 1.48201,-0.59981 2.08549,-0.99004 l 0.1854,-0.34044 1.01245,-0.42721 0.17025,-0.36659 0.27569,0.23027 c 0.42231,-0.0987 0.55318,-0.45198 0.92944,-0.61193 l 0.1854,0.10539 0.61559,-0.67255 0.49865,-0.0676 0.21146,-0.18118 c 0.95671,-0.15086 4.51512,-0.50472 5.17252,-1.11483 l 1.23178,0.20784 c 1.15726,-0.57504 2.39086,-1.22759 3.5972,-1.6626 0.31324,-0.11327 0.74949,-0.0649 1.07667,-0.1545 0.87431,-0.23997 1.5729,-0.70832 2.53507,-0.552 l 0.24962,-0.2114 c 0.77494,0.0632 1.66076,-0.0433 2.41449,-0.21512 0.73071,0.51866 1.59714,0.0355 2.66351,0.4835 l 0.37021,0.41925 c 0.39625,0.17329 0.94882,0.22845 1.37538,0.21148 l 0.13268,-0.43076 c 0.44776,0.18836 1.23421,0.45319 1.73407,0.41924 l 0.472,0.48351 0.56287,0.0372 0.3284,0.39621 1.03487,-0.0303 0.26477,0.23807 c 0.5138,-0.19754 1.36508,-0.20845 1.88918,-0.0528 l 0.91793,-0.40045 0.0267,0.29082 c 1.11545,0.039 2.39388,-0.9858 3.15246,-1.64624 1.55958,-1.35715 2.8265,-2.5126 3.86076,-4.31212 1.39235,-2.42419 1.891,-5.2567 1.67349,-8.0305 l -0.1133,-1.44566 c -0.063,-0.23331 -0.1739,-0.33568 -0.28478,-0.55019 l -0.56894,-1.10089 c -0.47198,-0.58951 -1.94309,-1.28694 -2.67865,-1.4172 l -1.57169,0.93369 c -0.41807,-0.0615 -1.06153,-0.0988 -1.47354,0.0372 l -0.9561,-0.38962 -0.46108,0.41197 c -0.24539,-0.22839 -0.82038,-0.37501 -1.14091,-0.38531 l -0.10602,-0.45382 0.39322,-0.43078 0.69859,-0.19631 c 0.0212,-0.0382 0.20904,-0.39748 0.22298,-0.40777 0.49501,-0.37445 1.09667,-0.75252 1.54927,-1.1718 0.72949,-0.67497 1.40991,-1.48081 2.097,-2.20243 0.0109,-0.0115 0.16965,-0.55379 0.1854,-0.60468 1.43052,-1.47293 3.05735,-2.54112 4.73386,-3.7002 l 2.48659,-1.71771 1.98006,-0.57438 c 1.56502,-0.36051 2.24605,-0.0394 3.69172,-0.0721 0.0649,0 0.42957,-0.19994 0.5253,-0.21873 1.0173,-0.2054 2.12972,-0.35142 3.1246,-0.63134 0.80524,-0.22661 1.95704,-1.11303 2.83377,-0.74465 l 1.40507,-0.69496 0.60468,0.0679 0.72162,-0.5138 0.9973,0.0982 c 1.20512,-0.42898 2.19394,-1.34388 3.29485,-1.96492 1.19483,-0.67376 1.5317,-0.26841 2.25575,-0.41201 0.58469,-0.11572 1.28571,-0.3193 1.85162,-0.51017 1.03667,-0.3502 2.04246,-0.80341 2.86042,-1.54563 0.11028,-0.1 0.48835,-0.64467 0.56711,-0.6986 0.52411,-0.36232 2.10731,-0.85431 2.25576,-1.52685 l 1.85161,-0.83008 0.32839,-0.67375 c 0.57196,-0.27629 1.28268,-0.53985 1.81344,-0.87673 0.9664,-0.61317 3.50995,-2.53748 4.35638,-3.33241 0.77252,-0.72587 1.70196,-1.70378 2.36178,-2.53143 1.15302,-1.44749 1.8716,-3.14581 2.6005,-4.82353 0.21024,-0.4835 0.41382,-0.72829 0.53925,-1.24027 0.009,-0.0358 -0.11209,-2.20545 -0.12119,-2.38782 l -2.02126,-1.04274 0.0794,-0.54773 -0.9973,-0.41928 -0.32839,-0.91066 1.44688,-1.12212 0.11693,-1.20513 -0.36657,-0.31384 0.27206,-0.51381 -1.2736,-0.40049 -0.18116,-0.2569 0.48351,-0.20419 -0.0376,-0.31749 -0.49865,-0.0903 c -0.12179,-0.55803 0.3284,-1.62319 0.60468,-2.07458 l -0.21206,-0.27569 -0.40777,-0.0831 0.0679,-1.89342 0.77433,-0.083 0.23448,-0.97851 -3.57054,-2.6411 0.0679,-0.57802 c -1.34024,-0.3605 -1.40568,-1.48747 -2.91677,-1.93098 l -0.39262,-0.85008 -1.85162,-0.68769 c -0.23387,-0.51985 -1.28994,-1.08091 -1.78315,-1.25419 l 0.17027,-0.41202 1.35235,-0.0679 0.40777,-0.48774 -0.39687,-0.58954 0.3175,-0.63861 1.06152,0.0945 -0.0643,-0.49865 c 0.77737,0.16177 1.78254,-0.0776 2.44055,0.22297 l 0.14359,-0.27932 1.95704,-0.6271 0.0527,-0.56712 0.56288,-0.20358 c 0.10604,-0.20964 0.3999,-0.535 0.64286,-0.58954 l 0.26477,-0.55924 -0.15874,-0.21267 c 0.15208,-0.42957 0.38474,-0.89429 0.65739,-1.26147 l -0.11693,-0.83492 c 0.61922,-0.61862 0.60043,-1.07304 0.95609,-1.58684 0.26236,-0.37868 0.71254,-0.61619 0.97125,-1.05425 l 0.6574,0.56651 0.38172,0.0527 0.70707,0.65013 0.54046,-0.10966 0.52531,0.26477 c 0.28659,-0.103 0.62649,-0.48714 0.72162,-0.7707 -0.39262,-0.48108 -0.58953,-1.4899 -0.54045,-2.08912 0.13389,-0.329 0.88945,-1.63106 1.05001,-1.78739 0.11027,-0.10664 0.21146,-0.1133 0.34657,-0.1854 0.83008,-0.44352 1.24754,-0.5653 2.2,-0.46472 l 0.32901,-0.4308 0.22296,0.37445 0.64589,0.17752 0.27568,-0.27628 0.37807,-0.0261 0.44595,-0.64952 0.32839,0.0643 0.17026,-0.13209 c 0.13329,0.2363 0.40958,0.56106 0.65739,0.6877 0.27144,-0.20783 0.53379,-0.71981 0.54046,-1.06154 l 0.33991,-0.13208 0.0261,-0.46109 0.61619,-0.21145 c 0.10482,-0.21146 -0.20903,-0.95611 -0.30235,-1.14878 0.94581,-0.56166 2.0037,-1.09606 2.90224,-1.72256 0.52592,-0.36656 0.94338,-0.96094 1.4699,-1.3263 0.99791,-0.69193 2.7859,-1.71892 4.01648,-1.94977 l 0.44593,-0.7404 0.44595,0.69496 0.47622,0.0376 0.4726,-0.52894 -0.19691,-0.95186 c 0.0793,-0.38717 0.36898,-0.84825 0.64285,-1.12575 l 0.27568,-0.083 c 0.0497,-0.0539 0.38474,-0.43442 0.41928,-0.45685 0.73858,-0.48834 1.57472,-0.95973 2.27089,-1.50019 0.62226,-0.4829 1.14454,-1.19604 1.78315,-1.64743 0.70163,-0.49501 1.64136,-0.41806 2.41812,-0.60467 0.52774,-0.12664 1.18756,-0.44897 1.66621,-0.72163 l 0.51016,0.21206 1.72317,-1.06577 0.98276,0.2042 0.35506,-0.22661 c 1.41597,0.59984 3.37543,-1.71953 4.18793,-2.4672 l 2.51871,-2.31997 c 0.0776,-0.0715 1.0894,-0.3181 1.70802,-0.98216 l 0.0115,-0.34354 1.66985,-0.48774 0.44593,0.39261 c 1.04456,-0.24235 2.10185,-0.66647 3.0834,-1.08818 l 0.9973,0.37808 0.39323,-0.14724 0.61921,0.26478 c 0.85553,-0.33809 1.71711,-0.71738 2.58475,-1.02033 0.79251,-0.27689 1.69893,-0.42049 2.4672,-0.74464 0.89915,-0.37868 1.82314,-0.96822 2.69018,-1.42809 0.0449,-0.0242 0.42109,-0.006 0.49865,-0.0261 0.33021,-0.0939 0.64467,-0.29688 0.97488,-0.39261 0.89794,-0.26175 1.8807,-0.51925 2.7962,-0.70709 0.22782,-0.0467 1.32873,-0.11753 1.45475,-0.16237 0.49926,-0.17752 1.0682,-0.65376 1.54927,-0.90702 1.4172,-0.74586 3.96801,-1.80073 5.2107,-2.68654 0.58045,-0.41382 1.04456,-1.06031 1.61713,-1.48869 0.33567,-0.25144 0.83189,-0.36353 1.17907,-0.60467 0.86401,-0.59984 1.60259,-1.72498 2.03641,-2.65988 l 0.27932,-0.0915 c 0.60832,-0.19994 0.9664,-0.54834 1.51898,-0.80402 0.35323,-0.1636 0.72647,-0.0788 1.10333,-0.3587 0.29446,0.11816 0.66951,0.15875 0.98216,0.17753 0.61074,1.39174 1.75951,2.66654 2.90223,3.65779 0.10663,0.0927 0.89854,0.67012 0.93368,0.71798 0.40959,0.56651 0.74768,1.43355 1.07667,2.06307 0.26236,0.27386 1.33298,0.49926 1.65107,0.46836 0.0382,-0.006 0.97915,-0.35688 1.07666,-0.39262 0.42176,0.11875 0.84464,0.23751 1.26206,0.3702 1.01854,-0.39201 1.26154,-1.09304 1.99464,-1.60926 0.66589,-0.46896 1.96675,-0.82401 2.78107,-0.74827 0.37075,-0.35022 0.85668,-0.93006 1.27358,-1.20149 0.084,-0.0552 0.8216,-0.18601 0.95973,-0.25266 1.32754,-0.64467 2.37448,-1.75164 3.60814,-2.51628 0.38468,-0.23872 1.64129,-0.53197 2.1157,-0.57802 l 0.70711,-0.71435 0.12055,-0.47199 0.31385,-0.18541 0.0372,-0.30961 0.21148,0.38111 0.17027,-0.2151 0.36659,0.1436 c 0.61132,-0.50107 3.1694,-0.87672 3.94068,-0.96761 l 0.19633,-0.37808 c 0.73794,-0.33869 1.48567,-0.66527 2.21755,-1.01608 0.19087,-0.0915 0.40842,-0.27144 0.60466,-0.33627 0.19694,-0.0649 0.46359,-0.0327 0.66892,-0.0831 0.6574,-0.16117 1.29783,-0.60893 1.77224,-1.08092 l 0.69499,0.14784 c 0.22482,-0.16602 0.43318,-0.59136 0.4344,-0.86947 0.53503,0.057 1.43353,-0.0673 1.88924,-0.38534 0.21442,0.17086 0.71854,0.36536 0.99723,0.26417 l 0.35507,-0.44593 0.9864,-0.26782 0.41933,0.3587 c 0.38894,0 0.81727,-0.11816 1.19417,-0.20419 l 0.23452,0.28356 c 0.84758,0.10663 1.4111,-0.72708 2.53504,-0.45685 l 0.38174,-0.54773 0.77432,-0.0188 0.23443,0.34051 c 0,0.4211 -0.27687,1.15666 -0.6574,1.39053 0.13579,0.46957 -1.47589,2.32846 -1.41656,2.96222 0.052,0.55682 0.41993,0.93732 0.69498,1.38265 0.0598,0.0969 0.33992,0.67497 0.38114,0.71799 0.20473,0.21266 0.5986,0.3387 0.82758,0.53621 0.3193,0.27629 0.56534,0.68466 0.89192,0.94823 0.56465,0.45623 1.46324,1.13847 2.10064,1.4699 0.0338,0.0176 1.21174,0.28295 1.32632,0.30961 0.2605,0.0612 3.96857,-1.92371 4.45086,-2.1691 0.0554,-0.0285 0.3963,-0.53076 0.4835,-0.60469 0.23877,-0.20054 0.65013,-0.26235 0.89617,-0.45684 0.50951,-0.40534 1.04151,-0.79554 1.52259,-1.23542 l 0.11691,-0.40049 c 0.16541,-0.13876 0.63134,-0.46231 0.86525,-0.45746 l 0.19633,0.23812 0.12722,-0.0224 c 0.63921,-0.11391 0.59435,-0.53743 0.9761,-0.74828 0.6089,-0.33688 1.38807,-0.64589 2.03638,-0.90703 0.77319,-0.31142 1.59591,-0.40292 2.34667,-0.83128 0.27202,-0.0418 0.72036,0.10966 0.90699,0.31385 1.50931,-0.58408 3.07795,-1.56503 4.37154,-2.52052 0.29384,-0.21691 0.50896,-0.60165 0.80099,-0.82341 0.20602,-0.15693 0.54109,-0.22419 0.7634,-0.36657 0.89374,-0.57135 1.76202,-1.20936 2.63749,-1.80981 l 0.19632,-0.54409 c 0.6859,-0.13208 1.35057,-0.34172 1.9988,-0.59438 0.13155,-0.0509 0.19572,-0.12723 0.33627,-0.13087 0.75016,-0.0182 1.63896,0.36535 2.37638,0.30961 0.80039,-0.0606 1.68192,-0.61438 2.4823,-0.67618 0.65619,-0.0509 2.5902,0.34354 3.52932,0.39262 0.0494,0.30901 0.16541,0.6374 0.2909,0.92156 0.33325,0.12483 1.04088,0.21874 1.37898,0.0455 l 0.23391,-0.27204 0.38166,-0.11694 0.0909,-0.18904 0.95973,0.0491 c 0.13632,0.22055 0.50533,0.44595 0.75916,0.48351 0.54595,-0.007 1.80922,-0.48714 2.12731,-0.93308 l 0.0902,-0.39262 c 0.3181,-0.1339 0.71682,-0.5865 0.77441,-0.93368 -0.0675,-0.91369 -1.04582,-1.45658 -0.97065,-2.42176 0.0329,-0.432 0.64346,-1.11849 0.94822,-1.37538 0.29869,-0.25145 0.79735,-0.39141 1.073,-0.6574 0.0312,-0.0303 0.49745,-0.8222 0.5514,-0.91065 l 0.29082,-0.14361 c 0.12176,-0.49804 2.78592,-1.78193 3.43847,-2.74711 0.36772,0.0333 1.15901,-0.65134 1.3905,-0.87674 l 0.35507,0.13633 0.33991,-0.41928 0.69915,-0.21146 0.31385,0.30235 0.32839,0.0564 0.44601,-0.27568 c -0.17026,0.10786 -0.39448,0.40656 -0.39266,0.61923 0.42531,-0.27932 0.86646,-0.53864 1.31117,-0.78584 l 0.18541,0.0491 0.31385,-0.10179 0.26475,0.14723 0.32476,-0.12845 0.0416,-0.15147 0.2605,-0.12845 c -0.0502,-0.0879 -0.0641,-0.25205 -0.0372,-0.34778 l 0.10609,-0.11694 -0.0528,-0.13209 0.13207,-0.083 c 0.0329,-0.23205 0.21269,-0.40777 0.40417,-0.52531 0.0277,-0.12905 0.0797,-0.2575 0.13207,-0.37808 0.13632,-0.10119 1.0052,-0.45563 1.11484,-0.44593 l 0.0797,-0.15088 0.11692,0.0188 0.0797,-0.16602 c 0.13883,-0.0903 1.00944,-0.28901 1.22093,-0.27931 0.10115,-0.12785 0.3193,-0.25145 0.47198,-0.29871 0.12783,-0.41746 0.5411,-0.34112 0.64589,-1.1106 l -0.17026,-0.27932 0.11691,-0.0491 c -0.78947,-0.93914 -0.31567,-1.76617 0.13207,-2.70531 0.0632,-0.13148 0.0234,-0.23631 0.18117,-0.34779 -0.0294,-0.12784 0.10124,-0.23266 0.15874,-0.32839 0.0667,-0.11148 0.11397,-0.41746 0.13207,-0.5441 0.19451,-0.27568 0.48533,-0.44048 0.73258,-0.66103 l 0.0268,-0.11693 c 0.17208,-0.0479 0.38106,-0.4314 0.44592,-0.58954 l 0.11692,-0.0679 0.21209,0.0491 c 0.0442,-0.0152 0.25322,-0.0975 0.28717,-0.0982 0.59869,-0.0158 0.8707,0.35991 1.3148,-0.3702 0.15087,-0.2478 0.1739,-0.4114 0.10601,-0.70283 l -0.19625,-0.0491 -0.12063,-0.18116 0.0147,-0.15148 h -0.39257 c 0.0797,-0.15389 0.11267,-0.46411 0.0268,-0.62346 0.0658,-0.24539 0.35923,-0.51561 0.51009,-0.72525 l 0.18542,-0.0679 0.0528,-0.16602 0.11752,-0.0455 c 0.1745,-0.33627 0.2618,-0.63376 0.52533,-0.92581 l 0.27566,-0.0981 0.0641,-0.14784 0.14299,-0.0376 c 0.0701,-0.11694 0.12479,-0.25811 0.14722,-0.39262 0.16299,-0.13086 1.08635,-0.11875 1.2851,-0.0643 l 0.11691,0.1133 h 0.26423 c -0.009,0.17451 0.0182,0.36051 0.0641,0.52896 0.12549,0.0564 0.29567,0.20176 0.35507,0.32839 h 0.17027 v 0.11694 l 0.18541,0.0831 0.2605,-0.16602 c 0.11518,0.006 0.2418,0.008 0.35507,-0.0188 l 0.0372,0.13208 0.14723,0.034 c 0.23504,-0.0769 0.56101,-0.1642 0.74825,-0.3284 h 0.12851 l 0.24959,-0.26477 c 0.1739,0 0.97974,-0.206 1.10332,-0.329 0.1248,0.0309 0.36781,-0.0606 0.47259,-0.11694 l -0.14358,0.23024 c 0.12297,0.057 0.25089,0.11331 0.38114,0.15087 0.14358,0.20297 0.12782,0.65861 0.106,0.90703 l 0.14359,-0.0152 c -0.0831,0.0969 -0.14117,0.2878 -0.17027,0.40776 l 0.17027,-0.0339 -0.18542,0.1854 -0.026,0.17753 0.14722,-0.0303 v 0.16602 l -0.14722,0.0491 -0.0372,0.21145 c -0.90344,0.70709 -1.82619,2.37208 -2.08548,3.46875 l 0.23443,0.36657 c -0.0312,0.45987 -0.23807,1.19179 -0.55131,1.54927 -0.71984,0.2775 -1.53841,0.95489 -2.08548,1.47716 -0.36962,1.38024 -0.61748,2.98283 -0.21149,4.38668 l 1.28813,0.41565 c -0.61375,0.4423 -1.16212,1.05849 -0.8804,1.85524 l 0.43085,0.5029 -0.0494,0.62346 c 0.23868,0.0903 0.52897,0.41685 0.58951,0.66527 0.4266,0.35324 1.10332,0.61862 1.64017,0.72526 l 0.60405,0.75918 c -0.5792,0.82281 -1.78012,1.1306 -2.44046,2.00612 -0.8113,-0.1236 -4.12013,-0.75555 -4.76419,-0.57802 -0.19997,0.35445 -1.35906,0.2369 -2.10064,1.19785 0.16662,0.88522 -0.17208,1.49656 0.14359,2.50477 -0.21209,0.89551 -2.00971,1.33781 -1.65472,2.52052 -0.85122,0.23388 -1.8546,1.11363 -2.4254,1.74558 -0.3465,0.38292 -0.61012,1.01123 -0.98571,1.44324 l -0.0528,0.53258 0.13207,0.21873 c -0.14783,1.23482 -0.82342,1.99097 -1.86672,2.61443 -0.27938,0.7713 -0.45025,1.74013 -0.43085,2.56173 l -0.86516,1.09908 c -1.03248,0.17633 -2.05284,0.58287 -2.48239,1.59472 l -2.75864,0.1436 c -0.0494,0 -0.40348,0.18843 -0.4835,0.21146 -0.8216,0.23872 -1.58804,0.36353 -2.36538,0.76706 l -0.48351,0.86885 c -0.42357,-0.0969 -0.95912,0.0249 -1.34754,0.15754 l -0.96458,0.3296 c -0.67074,0.39504 -1.90249,2.57263 -2.22907,3.23426 l -0.52533,0.24539 c -0.62709,0.93005 -1.0524,3.09855 -1.32632,4.18673 l -0.3284,0.24539 -0.17026,0.39807 -0.38166,0.10118 -0.33991,0.40413 -0.38175,-0.34354 c -0.32961,0.14723 -1.07786,0.0939 -1.41717,0.0412 -1.59894,0.59802 -3.4687,2.1988 -4.1752,3.78502 -0.24301,0.54592 -0.25513,1.34873 -0.30112,1.92978 -0.0372,0.46775 -0.0294,1.05789 0.10418,1.51716 0.0857,0.29325 0.30051,0.58651 0.40842,0.87673 0.17087,0.46048 0.25808,0.97306 0.44592,1.42445 0.35446,0.85492 1.01611,1.73407 1.64441,2.40419 0.2993,0.31871 0.68642,0.86643 1.15121,0.97731 l 0.44592,-0.0346 0.41924,-0.50895 -0.0908,0.84461 c 0.86758,1.06032 1.73586,1.98491 3.0834,2.39632 l 2.06305,-2.05884 1.09908,-0.21933 c 0.59314,0.15632 1.39595,0.87673 1.76072,1.33782 -0.0329,0.47745 -0.0381,0.95792 -0.0372,1.43596 l 0.35144,0.1333 0.026,0.77312 -0.65377,1.01669 c 0.0667,0.32113 0.42895,1.64016 0.27566,1.90069 -0.26293,-0.0255 -0.55071,0.20843 -0.72036,0.349 -0.77674,0.64528 -0.8598,0.9561 -1.15728,1.91038 l 0.51018,0.62347 c -0.0658,0.57984 -0.23513,1.48262 -0.53685,1.99885 l -0.18542,-0.63498 -0.45683,-0.41928 -0.93305,0.1133 -0.11692,-0.2266 c -1.084,-0.15208 -2.83139,1.44142 -2.69386,2.52779 -0.74098,-0.0515 -2.27151,-0.0412 -2.88708,0.54773 -0.0346,0.0327 -0.38651,0.59438 -0.4344,0.6689 -0.18663,0.29083 -0.2999,0.5653 -0.28717,0.92581 l 0.21139,0.36596 0.19633,0.10966 -0.40772,0.43807 c -0.10185,0.9761 0.75855,1.61349 0.73673,2.58838 -0.34053,0.56227 -0.92882,2.08549 -0.57799,2.75439 l -0.40842,0.38172 -0.24898,1.94977 c 0.20958,0.31204 1.04391,0.62649 1.37897,0.71799 l 0.3284,1.16028 c -0.37386,0.50592 -0.99732,0.56893 -1.3523,1.1409 -0.15632,0.93065 0.77492,1.70075 0.40772,2.59989 l 0.57435,1.01609 -0.0113,0.65012 c -0.46783,0.40353 -1.21305,1.13 -1.19426,1.80981 l 0.39327,0.50652 c -0.30363,0.17692 -1.15788,0.13633 -1.48507,0.0982 l -0.69498,-0.65013 -0.0372,-0.44957 -0.30233,-0.412 -1.49598,0.31021 c -0.65922,0.13633 -1.39777,-0.33627 -2.0479,-0.33627 -0.18966,0 -1.06209,0.3393 -1.14575,0.37141 l -1.11302,0.43322 c -0.36416,0.24357 -1.28874,1.77709 -1.48143,2.21393 0.11761,0.1224 1.26692,1.30086 1.29965,1.35236 0.36235,0.57621 0.30779,1.68197 0.98277,2.06307 h 0.26474 l 0.49866,1.13726 -0.39257,1.06516 -0.86888,0.20783 -0.69499,0.884 c -0.78583,-0.16784 -2.9464,1.31661 -3.52872,1.76437 l -1.03906,-0.0945 -0.27574,-0.51743 -1.41656,0.36596 -0.82766,-1.07667 -1.33776,0.67618 -0.72166,-0.52532 c -0.31142,0.10846 -1.68979,0.47139 -1.77224,0.81251 l -0.23807,-0.27568 -0.35507,0.21146 -0.52533,-0.1436 -0.106,0.31749 0.63133,0.34778 c -0.31991,0.12118 -1.0737,1.39962 -1.16758,1.66621 -0.0139,0.0394 -0.058,1.02335 -0.0641,1.12938 l -1.76072,1.88918 c -1.57048,0.22237 -3.0507,0.35687 -4.62237,0.46836 z"
   id="path830"
   style="fill:#000000;fill-opacity:1;stroke:#000000;stroke-opacity:1" />
<path
   fill="#FEFEE9"
   stroke="#0978AB"
   stroke-width="0.944646"
   stroke-linejoin="round"
   stroke-miterlimit="3.8637"
   d="m 402.15539,691.53037 c -0.97913,0.10361 -2.18971,0.11028 -3.13733,0.33264 -0.71435,0.16783 -3.23123,1.36447 -4.12129,1.73043 -1.19604,-0.37505 -3.51116,-0.28174 -4.62116,0.32839 l -1.40568,2.72411 -1.06213,-1.40144 -1.48504,2.05883 -1.3257,0.3587 -0.73313,-0.27569 c -1.89463,0.57984 -2.33391,0.56045 -3.98981,-0.74161 -1.20392,-0.94702 -0.89733,-0.48775 -1.45779,-1.72922 l -0.10603,-0.22297 c 0.33385,-0.88946 0.97913,-1.80981 1.74559,-2.37329 l -0.14421,-0.16602 -0.15329,0.0103 c -0.70647,0.0461 -1.25117,-0.44654 -1.92008,-0.55076 -1.01608,-0.15753 -2.11821,-0.0158 -3.13611,-0.16601 -0.62346,-0.0915 -1.26571,-0.49017 -1.88857,-0.57439 -0.96216,-0.13027 -2.00611,0.0376 -2.9707,-0.083 -0.9658,-0.12057 -2.02066,-0.44897 -2.97676,-0.66104 l 0.16965,-0.412 -4.37213,-1.31479 -5.11981,1.89281 c -0.1333,0.70284 -0.31991,1.4384 -0.40716,2.14608 -0.15754,1.28086 0.004,2.6726 -0.57863,3.87288 l -1.48081,0.74464 -1.07788,-0.0831 -0.57803,0.41201 -1.15604,0.82341 c -1.0591,0.50834 -2.28968,0.51319 -3.29425,1.23905 l 0.24963,0.90703 1.07607,0.65739 c 0.0533,0.61559 0.19934,1.63956 0.51501,2.19152 0.37383,-0.18056 1.08455,-0.11027 1.42749,0.1133 l 0.13207,0.57802 -0.24901,0.62711 0.49925,0.28356 -0.0794,0.57439 c 0.44049,0.21327 0.93611,0.77735 1.1821,1.18634 l -0.27629,0.75979 -2.33512,-0.53683 c 1.33237,0.79251 4.12796,2.01036 5.61906,2.3121 1.13424,0.22963 2.41753,0.0787 3.54449,0.3284 l 1.09303,0.54651 0.54652,0.27326 0.41988,-0.41625 c 0.0848,0.009 0.87552,0.0751 0.90642,0.0872 1.40992,0.56107 3.47056,1.23846 4.77626,1.9007 0.014,0.007 1.38387,1.20755 1.40568,1.23602 0.31204,0.40292 0.59136,1.17786 0.82705,1.64743 l -1.6547,0.49501 0.41927,0.57802 c 1.55352,-0.33384 3.20337,-0.93186 4.62116,-1.64742 l 0.81615,-1.56805 -1.81345,-0.083 0.1745,-1.89645 c 0.97974,-0.77373 1.95219,-1.73588 2.71623,-2.7247 l 6.10196,-1.3978 -0.82766,-0.16602 -0.0794,-0.74464 c 1.26571,-0.4211 2.51325,-0.99791 3.71837,-1.56442 l 0.23448,-1.07667 0.91793,0.083 1.15666,0.82766 2.31209,-0.74465 c 0.88461,-1.04092 1.78739,-2.18788 2.46781,-3.37785 h 1.15301 l -0.82402,-1.65107 2.2297,-0.57802 0.73556,0.24963 0.32839,-0.66103 1.40144,-0.3284 0.67314,0.6574 0.98216,-0.24539 0.74828,-0.90702 0.56712,0.7404 0.41867,-0.90703 c 0.81068,-0.27688 1.82919,-1.43475 2.22969,-2.14608 z"
   id="path832"
   style="fill:#000000;fill-opacity:1;stroke:#000000;stroke-opacity:1" />
<path
   fill="#FEFEE9"
   stroke="#0978AB"
   stroke-width="0.944646"
   stroke-linejoin="round"
   stroke-miterlimit="3.8637"
   d="m 507.40468,723.86211 c -0.44654,0.3502 -1.59289,0.69011 -2.15032,0.57802 -1.36204,-0.27326 -3.26032,-1.03305 -4.37092,-1.89705 v -0.57803 l -1.31539,-0.41201 -0.99731,0.98943 -0.57802,-0.16238 -0.90339,-1.16029 h -1.65469 c -0.15148,-0.45745 -0.20298,-1.27541 0,-1.73043 l -1.88918,-0.0793 c -0.27811,0.64891 -1.87888,1.31297 -2.48295,1.48444 l -1.48505,-0.49441 -0.48351,-0.82765 -3.38938,0.99427 1.32691,0.81977 -0.82825,0.99368 1.40567,-0.16602 0.81614,1.15241 0.82705,-0.24539 c 0.49077,0.47684 0.97185,1.06274 1.32327,1.65106 l 1.89342,-0.82765 1.24693,0.33264 -0.91914,1.07304 c 0.10966,0.16419 1.09667,1.67469 1.15241,1.73043 0.0291,0.0285 1.28753,0.75434 1.40568,0.82341 1.1724,-0.38232 3.93831,-1.05122 5.19918,-0.74041 l 0.24962,0.9858 c 1.52201,-0.24236 3.09128,-0.57621 4.62056,-0.73677 1.16149,-0.12179 1.76012,0.25508 3.21548,-0.24963 l 2.21817,-2.14244 -2.54596,0.40777 -0.66891,-0.49139 z"
   id="path834"
   style="fill:#000000;fill-opacity:1;stroke:#000000;stroke-opacity:1" />
<path
   fill="#FEFEE9"
   stroke="#0978AB"
   stroke-width="0.944646"
   stroke-linejoin="round"
   stroke-miterlimit="3.8637"
   d="m 525.40157,726.32143 c -0.90219,0.58045 -1.82738,1.83162 -2.49387,2.65624 -0.12784,-0.0212 -1.4396,-0.24842 -1.4808,-0.24539 -0.49926,0.037 -1.88373,0.60045 -2.56173,0.74101 l -0.57802,-0.90702 -0.82402,0.16601 c -0.31263,-0.52409 -0.58892,-1.09 -0.82704,-1.65106 -0.52592,0.0661 -1.50322,0.0249 -1.9837,-0.24962 l -0.65739,-1.23906 c -0.78282,0.51985 -1.66015,1.45233 -2.05883,2.31209 l 0.90702,0.90702 c 0.84462,0.11816 1.7056,0.21025 2.55809,0.24964 l 1.65469,1.31903 1.39053,-0.0831 0.66891,0.82342 -0.0909,0.90702 -0.8119,0.74465 -0.0418,0.60831 c 0.5035,0.55137 1.2954,1.00094 1.93099,1.37175 l -0.1436,0.41201 0.45805,0.13753 0.91673,0.27447 c 0.2478,0.0133 1.4911,-0.27265 1.65469,-0.24539 0.0728,0.0121 2.10912,0.82705 2.3121,0.90703 1.69529,-0.50047 3.38876,-1.06153 5.10466,-1.48505 l 0.82764,-1.40143 c -1.4705,-0.75252 -1.73467,-1.18876 -1.73467,-2.74834 v -0.87915 c -0.0915,-0.42109 -0.42776,-0.9052 -0.57439,-1.32266 -0.17934,-0.51199 -0.30234,-1.07426 -0.44957,-1.59835 -0.17207,-0.34597 -2.62655,-0.43867 -3.07188,-0.4817 z"
   id="path836"
   style="fill:#000000;fill-opacity:1;stroke:#000000;stroke-opacity:1" />
<path
   fill="#FEFEE9"
   stroke="#0978AB"
   stroke-width="0.944646"
   stroke-linejoin="round"
   stroke-miterlimit="3.8637"
   d="m 576.65114,721.17193 -1.40568,-0.57802 c -0.79978,0.69739 -1.76739,0.8537 -2.75803,0.49502 l -0.18116,-0.44594 c -0.74404,-0.41989 -1.68984,0.28295 -2.49386,0.27932 l -0.72163,-0.51016 c -0.0933,0.006 -1.09303,0.04 -1.11847,0.0491 -0.74525,0.27266 -1.58502,0.82887 -2.29756,1.20149 0.96944,0.16602 2.77015,0.0806 3.64991,-0.44593 l 1.16756,0.34778 0.46109,-0.3284 0.10542,0.39687 0.38172,-0.083 0.11694,-0.24963 0.26113,0.36293 c 0.79554,0 1.88131,-0.12299 2.652,0 0.0255,0.006 1.08819,0.56348 1.18271,0.61196 0.33991,-0.27387 0.79615,-0.70648 0.99791,-1.10334 z"
   id="path838"
   style="fill:#000000;fill-opacity:1;stroke:#000000;stroke-opacity:1" />
<path
   fill="#FEFEE9"
   stroke="#0978AB"
   stroke-width="0.944646"
   stroke-linejoin="round"
   stroke-miterlimit="3.8637"
   d="m 516.08412,947.58253 c -0.086,-0.75552 0.14542,-1.97333 0.58953,-2.60718 -0.1351,0.0814 -0.41685,0.16905 -0.57802,0.13216 l -0.11694,-0.15147 h 0.3284 l 0.30234,-0.26483 h 0.24963 l 0.0527,-0.18117 -0.12117,-0.17754 -0.15451,0.11337 -0.23811,-0.0303 -0.0643,-0.11691 -0.10603,0.2114 -0.43443,0.0372 -0.19631,0.16238 c -0.12542,-0.0433 -0.33506,-0.0338 -0.45745,0.0147 0.1333,0 0.32537,0.0927 0.4308,0.16602 -0.24357,-0.0502 -0.37324,0.0138 -0.58954,0.11327 l -0.1854,-0.0797 -0.39263,0.0649 c -0.0115,0.13943 -0.0655,0.28363 -0.11693,0.41206 0.15571,-0.009 0.55803,0.01 0.69496,0.10176 -0.30113,0.0199 -0.50714,0.23088 -0.82766,0.16601 l 0.0152,0.19633 0.26053,0.21149 c -0.21206,0.0823 -0.7404,0.0416 -0.95973,0.019 l -0.12845,0.13207 0.49865,0.19633 0.0903,0.17744 -0.0903,0.25332 h -0.24963 v 0.14359 h 0.17026 l 0.10542,0.23443 -0.0261,0.24967 h 0.14359 l 0.11694,-0.10175 0.1436,0.019 0.0527,0.18117 0.13208,0.0147 c 0.0242,0.1739 0.10301,0.33689 0.0793,0.51382 h 0.13209 c 0.16299,-0.19512 1.07365,-0.30051 1.44446,-0.52715 z"
   id="path840"
   style="fill:#000000;fill-opacity:1;stroke:#000000;stroke-opacity:1" />
<path
   fill="#FEFEE9"
   stroke="#0978AB"
   stroke-width="0.944646"
   stroke-linejoin="round"
   stroke-miterlimit="3.8637"
   d="m 354.81928,683.61436 -1.24693,-0.66103 c -0.58651,0.33264 -2.16547,-0.10118 -2.71683,-0.329 l -0.40777,0.57802 0.6574,1.15242 c 0.68466,0.50228 2.06671,0.74222 2.88709,0.57802 z"
   id="path842"
   style="fill:#000000;fill-opacity:1;stroke:#000000;stroke-opacity:1" />
<path
   fill="#FEFEE9"
   stroke="#0978AB"
   stroke-width="0.944646"
   stroke-linejoin="round"
   stroke-miterlimit="3.8637"
   d="m 517.09293,950.78354 c 0.26781,-0.0598 1.479,-0.40478 1.68136,-0.26119 v -0.20057 l -0.23811,-0.11328 c -0.12179,-0.44349 -0.33991,-0.69377 -0.34052,-1.19001 -0.20842,-0.0294 -0.49501,-0.20533 -0.63134,-0.36286 l -0.0115,-0.14723 -0.71011,-0.51018 c -0.8016,0.13753 -1.6032,0.2793 -2.39934,0.44592 l 0.0491,0.14723 0.22297,-0.0528 c 0.0933,0.0537 0.19995,0.20481 0.21146,0.31385 l -0.19631,0.10184 0.0261,0.16602 0.1854,-0.019 0.0115,0.16601 0.27568,-0.11691 0.10603,-0.21512 c 0.13209,-0.11995 0.46593,-0.0641 0.60469,0.019 l 0.0757,0.21512 -0.24964,0.29445 0.3702,-0.0831 -0.17025,0.23452 c -0.13572,-0.009 -0.27265,0.009 -0.40777,0.0147 l -0.11693,0.10176 0.0757,0.12843 c 0.0951,0.0528 0.29447,0.0867 0.39686,0.0338 0.0637,-0.15632 0.34658,-0.36659 0.4835,-0.44592 l 0.0909,-0.21512 0.30234,0.0338 v 0.29869 l 0.1854,-0.019 0.0376,0.13207 -0.20782,0.0528 -0.0679,0.14358 -0.1545,0.0191 c -0.11209,0.12903 -0.23691,0.2514 -0.36657,0.36295 0.0206,0.21503 0.0866,0.46289 0.18116,0.6574 0.21388,0.009 0.42898,-0.009 0.64225,-0.0156 z"
   id="path844"
   style="fill:#000000;fill-opacity:1;stroke:#000000;stroke-opacity:1" />
<path
   fill="#FEFEE9"
   stroke="#0978AB"
   stroke-width="0.944646"
   stroke-linejoin="round"
   stroke-miterlimit="3.8637"
   d="m 401.0781,686.41844 -0.73313,0.7404 -0.32779,-0.57802 -1.9843,0.82765 -0.40413,0.57803 c 0.10906,0.0412 1.27722,0.49199 1.31055,0.49501 1.02577,0.0927 2.25574,-0.0539 3.29546,-0.0794 -0.56591,-0.34414 -1.12333,-1.32751 -1.15666,-1.98369 z"
   id="path846"
   style="fill:#000000;fill-opacity:1;stroke:#000000;stroke-opacity:1" />
<path
   fill="#FEFEE9"
   stroke="#0978AB"
   stroke-width="0.944646"
   stroke-linejoin="round"
   stroke-miterlimit="3.8637"
   d="m 543.90013,960.96188 c 0.15995,-0.17806 0.4011,-0.54525 0.43078,-0.79372 -0.103,-0.20412 -0.19328,-0.4344 -0.23447,-0.66103 -0.45867,-0.12783 -1.08213,0.34597 -1.52262,0.49865 v 0.2612 c 0.28174,0.34901 0.8331,0.80281 1.32631,0.6949 z"
   id="path848"
   style="fill:#000000;fill-opacity:1;stroke:#000000;stroke-opacity:1" />
<path
   fill="#FEFEE9"
   stroke="#0978AB"
   stroke-width="0.944646"
   stroke-linejoin="round"
   stroke-miterlimit="3.8637"
   d="m 851.30429,738.28361 0.23443,-0.4417 c -0.039,-0.13391 -0.14661,-0.37384 -0.2605,-0.46472 -0.44176,0.15147 -0.60717,-0.43746 -1.71897,0.23447 v 0.23025 c 0.14783,0.21872 0.39083,0.32839 0.56291,0.5253 0.1739,-0.0394 0.61558,-0.0624 0.75916,0.083 0.13025,0.01 0.3284,-0.083 0.42297,-0.16662 z"
   id="path850"
   style="fill:#000000;fill-opacity:1;stroke:#000000;stroke-opacity:1" />
<path
   fill="#FEFEE9"
   stroke="#0978AB"
   stroke-width="0.944646"
   stroke-linejoin="round"
   stroke-miterlimit="3.8637"
   d="m 558.68152,720.16676 c -0.36838,0.0321 -0.93671,-0.23691 -1.1718,-0.5138 -0.48229,0.0691 -1.64137,0.057 -2.04792,-0.29446 l -0.60044,0.36292 1.02335,0.0455 -0.10542,0.29871 0.56287,0.34778 0.27569,-0.41201 0.26478,0.0152 -0.12119,0.36293 0.54046,-0.23024 0.64225,0.27931 z"
   id="path852"
   style="fill:#000000;fill-opacity:1;stroke:#000000;stroke-opacity:1" />
<polygon
   fill="#FEFEE9"
   stroke="#0978AB"
   stroke-width="1.5591"
   stroke-linejoin="round"
   stroke-miterlimit="3.8637"
   points="905.002,1174.155 905.414,1173.145 904.416,1173.531 904.304,1173.88 "
   id="polygon854"
   style="fill:#000000;fill-opacity:1;stroke:#000000;stroke-opacity:1"
   transform="matrix(0.60589434,0,0,0.60589434,-30.150846,8.7983276)" />
<path
   fill="#FEFEE9"
   stroke="#0978AB"
   stroke-width="0.944646"
   stroke-linejoin="round"
   stroke-miterlimit="3.8637"
   d="M 36.718682,77.779399 36.29516,77.56491 36.25757,76.896008 c 1.110603,-0.476237 2.398126,-2.199399 2.69138,-3.347569 0.137534,-0.539852 0.118759,-1.326909 0.169049,-1.892814 0.725861,-0.530764 1.587437,-2.223026 1.904932,-3.070672 l 1.326295,-0.5859 c -0.435032,-0.676179 -0.766452,-1.551696 -0.959732,-2.327241 l 1.272983,-2.116389 -0.366564,-0.902782 1.012447,-1.37538 -0.645883,-0.532581 c -0.51016,0.540457 -1.304489,1.072433 -2.006119,1.322061 v 0.794327 l -0.747667,0.638007 0.694355,0.846435 -0.535612,0.739796 c -1.734074,0.106638 -3.033106,1.844949 -4.22793,2.860428 -0.978525,0.831287 -2.051559,1.398404 -2.860429,2.441149 l -0.05274,0.528945 -0.106028,1.057892 c 0.08967,0.712531 0.545909,1.457173 0.630737,2.169706 0.119356,1.003968 -0.464728,3.198517 -0.788882,4.235204 l 0.471994,1.11424 1.167561,0.264164 c -0.568937,0.484716 -1.12394,1.054259 -1.58684,1.640768 h -0.642246 l -0.578628,0.744039 0.419885,2.16849 -1.11424,-0.05153 -0.578631,0.422301 0.419885,1.379019 -0.366566,0.846438 0.551362,0.634365 h 0.827654 c 0.342332,-0.505309 0.900357,-1.061524 1.140896,-1.590468 0.07214,-0.158137 0.0582,-0.265992 0.09573,-0.435638 0.265386,-1.208152 0.109068,-0.763429 0.891879,-1.794054 l 0.350204,-0.461091 -0.404132,-1.136046 0.929447,-0.930053 0.264164,-1.337814 c 0.42716,-0.272045 1.695899,-1.029412 2.217577,-1.038497 z"
   id="path856"
   style="fill:#000000;fill-opacity:1;stroke:#000000;stroke-opacity:1" />
<polygon
   fill="#FEFEE9"
   stroke="#0978AB"
   stroke-width="1.5591"
   stroke-linejoin="round"
   stroke-miterlimit="3.8637"
   points="1455.087,1203.009 1455.187,1203.252 1455.087,1203.439 "
   id="polygon858"
   style="fill:#000000;fill-opacity:1;stroke:#000000;stroke-opacity:1"
   transform="matrix(0.60589434,0,0,0.60589434,-30.150846,8.7983276)" />
<path
   fill="#FEFEE9"
   stroke="#0978AB"
   stroke-width="0.944646"
   stroke-linejoin="round"
   stroke-miterlimit="3.8637"
   d="m 996.83944,675.9292 -0.3925,0.0643 -0.1437,-0.26478 -0.3175,0.2151 c -0.5416,-0.13875 -1.5068,0.14602 -1.9685,0.412 -0.6126,-0.2569 -1.7861,-0.28901 -2.3763,0.0643 l -0.7216,-0.46108 v -0.82402 c -0.8295,-0.0636 -2.2515,0.61256 -2.9132,1.03911 -0.1012,-0.10846 -1.0591,-1.12273 -1.0881,-1.1712 -0.2691,-0.44169 -1.1573,-2.42479 -1.1186,-3.00402 0.5532,-0.1654 1.207,-0.90642 1.3682,-1.44687 l 0.5895,-0.23449 -0.1697,-0.39686 h -1.0239 c -0.203,0.14845 -2.16064,1.52322 -2.3503,1.56806 -0.52101,0.12299 -1.27965,0.0903 -1.8249,0.12845 l -0.15874,0.77857 c -0.22785,0.35929 -0.81069,0.73434 -1.22032,0.82765 -0.90335,-0.6689 -1.53893,-2.6314 -1.50741,-3.71776 l 1.4965,-0.40413 1.56084,0.57438 0.82697,-0.90702 -1.32563,-0.39686 -1.06158,-1.33782 0.48351,-1.1518 -3.94857,0.98579 -0.67256,0.66103 c -0.8125,0.13087 -1.73404,0.39201 -2.46722,0.77433 l -0.17026,0.72525 -0.38166,-0.45683 -0.35144,0.32475 -0.0537,0.66103 -0.3284,0.13209 -0.41924,-0.27932 0.0902,-0.36293 -0.56283,-0.36293 -0.89556,0.0491 -0.6956,0.55923 1.37907,0.78948 0.106,0.41564 -0.68399,0.41202 c -1.72989,-0.0837 -3.66148,-0.54773 -5.27801,-1.15242 l -0.17026,-0.57802 1.07674,-1.48505 -1.7305,-0.90702 -3.63836,0.49138 -1.15242,-1.8098 0.32537,-0.33204 -2.21816,-0.9864 c -1.788,0.71496 -3.03014,2.15396 -4.70054,3.04523 v 1.07668 l -1.2469,0.82704 1.07664,0.57439 c -0.0928,0.60287 0.009,1.60562 0.3284,2.14245 l -3.62329,3.29848 -0.49866,-0.412 c -1.30086,0.0297 -2.70832,0.23811 -3.96372,0.57802 l -1.48506,-0.49502 -1.31117,0.74465 -1.80982,-0.16602 -4.71561,2.80347 -0.1545,0.90703 -2.31273,3.13187 1.236,2.3957 1.65472,0.57439 0.49866,3.05674 0.56283,0.57438 c 0.31696,3.17489 0.54776,6.37825 0.66892,9.56708 -0.66286,0.37444 -1.97333,1.25965 -2.6374,1.48868 -0.63376,0.21873 -3.25488,0.27386 -4.04253,0.16238 l -0.90708,2.14607 0.57807,1.06941 -2.40296,0.66103 c 0.57738,0.48775 1.34684,1.40082 1.57591,2.14244 1.38867,0.11269 2.59929,0.7398 3.79346,1.37417 0.32233,0.17147 0.47744,0.33325 0.82705,0.43927 0.65983,0.19995 2.22301,0.24964 2.96649,0.33264 l 1.65472,-1.40144 h 0.57799 l 1.15242,-1.32266 v -0.98579 c 0.57132,-0.0243 1.4293,0.0412 1.97221,-0.083 0.0234,-0.006 0.84273,-0.53076 0.9179,-0.57802 l 0.23452,-0.91065 c 1.0233,-0.39263 3.4293,-1.18029 4.29212,-1.64743 0.0762,-0.0412 1.30025,-1.32206 1.48507,-1.48081 0.26232,-0.2254 0.64164,-0.35566 0.90699,-0.57803 1.16333,-0.97487 2.66901,-2.20363 3.54387,-3.4645 0,-0.12239 0.0104,-1.3669 0,-1.40567 -0.16299,-0.60832 -0.63861,-1.39114 -0.90699,-1.97643 0.0346,-0.16238 0.39984,-1.93886 0.41924,-1.98006 0.0191,-0.0418 1.05855,-1.28329 1.15606,-1.40143 l 0.79553,0.0261 1.59168,0.0527 c 0.70165,0.16542 1.44323,0.85007 2.14246,0.99004 0.0234,0.006 2.75258,0.009 2.80775,0 0.0242,-0.006 1.06392,-0.53198 1.15597,-0.57803 0.013,-0.11693 0.14004,-1.27602 0.1545,-1.31479 0.1636,-0.432 1.07855,-1.4808 1.576,-1.57169 0.89365,-0.16299 1.90007,-0.006 2.79614,-0.16238 0.99368,-0.1751 2.38548,-1.30206 2.98104,-2.06307 2.55323,0.98094 5.55912,1.04456 8.24441,0.82341 l 0.98277,0.57802 c 0.10843,-0.99487 1.62684,-2.01641 2.56171,-2.05943 l -0.15874,-0.49502 c 0.3872,-0.23569 1.13666,-0.30113 1.5643,-0.16601 l 0.4987,-0.3284 -0.2496,-0.99366 0.4987,-0.16298 0.7325,-1.65107 1.4056,-0.60831 c 0.6187,0.14722 1.2409,0.28234 1.8632,0.41564 l 0.1054,0.16601 c 0.283,-0.007 0.6435,-0.0909 0.8919,-0.23024 l 0.08,-0.18541 0.2757,-0.166 h 0.578 l 0.4193,-0.29447 c 0.082,-0.10845 0.058,-0.36354 0.015,-0.47987 l 0.2078,0.13632 c 0.5114,-0.2066 1.0451,-0.14177 1.5486,-0.39685 l 0.1703,-0.23449 -0.1285,-0.19631 v -0.20055 l 0.223,-0.0606 0.1702,0.11391 c 0.1745,0.006 0.5004,-0.0667 0.6314,-0.19631 h 0.2496 l 0.011,-0.34779 0.1963,-0.0145 0.1588,0.1133 0.7331,-0.19631 c 0.018,-0.19691 0.082,-0.44169 0.1848,-0.61195 0.1951,-0.0279 0.3902,-0.0757 0.5787,-0.13269 v -0.13208 c 0.2429,0.0103 0.4907,-0.0127 0.7325,-0.0297 l 0.1739,-0.13269 0.1435,0.1963 0.1703,-0.0981 -0.037,-0.21874 -0.1321,-0.12844 0.027,-0.19632 c 0.2824,0.04 0.6047,-0.10058 0.8126,-0.28355 0.069,-0.17269 0.1084,-0.37323 0.1169,-0.55925 l -0.1703,-0.1133 c -0.4011,-0.0655 -0.8204,0.37748 -1.2578,0.41201 l -0.1854,0.24963 -0.3926,0.0606 -0.1587,0.18479 h -0.1177 z"
   id="path860"
   style="fill:#000000;fill-opacity:1;stroke:#000000;stroke-opacity:1" />
<path
   fill="#FEFEE9"
   stroke="#0978AB"
   stroke-width="0.944646"
   stroke-linejoin="round"
   stroke-miterlimit="3.8637"
   d="m 942.57497,661.27322 c 0,-0.23448 -0.32658,-0.37808 -0.51381,-0.40777 -0.0372,0.2769 -0.50282,0.4932 -0.72158,0.62347 l -0.0372,0.14723 c -0.16298,0.0152 -0.32718,0.0352 -0.48714,0.0679 l -0.24959,0.23084 c -0.40356,0.0133 -0.97852,-0.1757 -1.32632,0.0188 l -0.1545,0.17752 -0.24967,-0.0151 -1.07665,1.10334 -0.14358,-0.11391 c -0.21391,0.24054 -0.59678,0.4623 -0.907,0.54409 l -0.0528,0.19631 c 0.0459,0.0879 0.14055,0.20782 0.23443,0.24963 -0.1254,0.0636 -0.25201,0.21146 -0.32476,0.32839 l 0.0113,0.11694 c -0.0902,0.21934 -0.30961,0.25447 -0.4835,0.37808 h -0.13207 l -0.026,0.23387 c 0.32839,-6e-4 1.24638,-0.0188 1.48082,0.0606 -0.22959,0.14844 -0.49624,0.27508 -0.77432,0.28356 0.058,0.17268 0.14904,0.35323 0.26475,0.49501 0.66164,0.17874 0.99731,-0.33991 1.61349,-0.46108 l 0.0797,-0.16602 c 0.2902,-0.063 0.58465,-0.16783 0.80099,-0.37807 v -0.14723 l 0.13206,-0.15087 c 0.15693,0.0315 0.76462,-0.43019 0.82767,-0.57803 l 0.19633,-0.0339 0.41924,-0.36294 c -0.009,-0.11148 -0.0632,-0.25629 -0.13207,-0.34354 l 0.0268,-0.19691 c 0.14237,-0.0218 0.39863,0.0903 0.51381,0.16298 0.0502,-0.0969 0.18472,-0.20964 0.28718,-0.24539 l -0.22301,-0.15147 0.0147,-0.18116 c 0.83372,0.10906 0.80402,-1.23663 1.11241,-1.48504 z"
   id="path862"
   style="fill:#000000;fill-opacity:1;stroke:#000000;stroke-opacity:1" />
<path
   fill="#FEFEE9"
   stroke="#0978AB"
   stroke-width="0.944646"
   stroke-linejoin="round"
   stroke-miterlimit="3.8637"
   d="m 990.71084,668.55426 -0.026,-0.42716 0.4309,-0.34778 -0.5744,0.0794 -0.015,-0.13209 -0.2496,0.11694 -0.2757,-0.21509 -0.7064,0.0527 0.3926,-0.3284 -0.7101,0.0455 -0.091,0.20055 -0.6047,0.11331 -0.3666,-0.14724 -0.015,0.26478 -0.1969,-0.13208 c -0.1224,0.22842 0.01,0.71494 0.117,0.92156 l 2.5204,0.15147 z"
   id="path864"
   style="fill:#000000;fill-opacity:1;stroke:#000000;stroke-opacity:1" />
<polygon
   fill="#FEFEE9"
   stroke="#0978AB"
   stroke-width="1.5591"
   stroke-linejoin="round"
   stroke-miterlimit="3.8637"
   points="1704.466,1096.005 1702.863,1095.73 1702.127,1096.547 1703.062,1097.096 1703.755,1096.628 1704.035,1096.822 1704.098,1096.36 "
   id="polygon866"
   style="fill:#000000;fill-opacity:1;stroke:#000000;stroke-opacity:1"
   transform="matrix(0.60589434,0,0,0.60589434,-30.150846,8.7983276)" />
<polygon
   fill="#FEFEE9"
   stroke="#0978AB"
   stroke-width="1.5591"
   stroke-linejoin="round"
   stroke-miterlimit="3.8637"
   points="1679.035,1097.309 1680.27,1097.252 1680.893,1096.41 1680.856,1095.949 1679.378,1096.741 "
   id="polygon868"
   style="fill:#000000;fill-opacity:1;stroke:#000000;stroke-opacity:1"
   transform="matrix(0.60589434,0,0,0.60589434,-30.150846,8.7983276)" />
<path
   fill="#C6ECFF"
   stroke="#0978AB"
   stroke-width="0.944646"
   stroke-linejoin="round"
   stroke-miterlimit="3.8637"
   d="m 680.87344,852.64737 c 0.0497,-0.78585 0.32113,-1.75709 0.71799,-2.44054 l 1.65469,0.13935 0.14361,0.42292 0.27204,-0.33627 c 1.72256,0.27689 3.50873,0.36656 5.24826,0.49501 0.32052,0.0236 0.6998,-0.0273 1.01245,0.0261 0.7513,0.12966 1.66682,0.60468 2.33875,0.94458 0.35081,0.44958 1.41537,1.90309 1.4808,2.48238 l -0.56651,0.33628 -0.20418,1.13363 -0.23024,-0.0873 c 0.15632,0.81736 0.0758,1.78376 0.008,2.60354 -0.0333,0.40166 -0.16117,0.73006 -0.12481,1.1597 l -0.17026,0.12115 -0.0982,0.67256 -3.26819,1.76072 c -0.10482,0.0563 -0.72647,0.95004 -0.83855,1.02763 -0.17027,0.11813 -0.29447,0.1351 -0.4823,0.2217 l -0.96459,0.4435 c -0.31143,0.11821 -0.74888,0.13337 -1.0391,0.27938 -0.51138,0.25747 -0.73253,0.7337 -1.40567,0.89183 -0.11937,-0.32658 -0.68285,-0.31566 -0.88764,-0.49502 -0.78646,-0.68823 -1.36569,-2.06305 -1.37174,-3.10938 0,-0.0814 0.13147,-0.34719 0.13632,-0.43873 0.0787,-1.63229 0.26356,-4.24241 -0.32113,-5.80386 l 0.12482,-0.28718 c -0.123,-0.065 -0.24781,-0.5035 -0.27629,-0.62709 -0.29385,-0.0381 -0.76524,-1.27358 -0.88824,-1.53655 z"
   id="path870"
   style="fill:#000000;fill-opacity:1;stroke:#000000;stroke-opacity:1" />
<path
   fill="#C6ECFF"
   stroke="#0978AB"
   stroke-width="0.944646"
   stroke-linejoin="round"
   stroke-miterlimit="3.8637"
   d="m 801.51307,811.89007 c 0.19874,0.0793 0.43443,0.17631 0.60468,0.30961 0.36718,-0.0685 0.91794,0.26841 1.15241,0.12119 l 0.0715,-0.14724 c 0.12178,-0.0218 0.34899,-0.11027 0.42715,-0.21509 l 0.0455,-0.16965 c -0.0303,-0.0685 -0.13571,-0.25509 -0.21508,-0.27992 v -0.18904 c -0.18117,0.0115 -0.47442,-0.0115 -0.63862,-0.10179 l -0.29447,0.0945 -0.1139,0.15875 c -0.14905,0.009 -0.30234,0.0346 -0.44594,0.0757 l -0.3284,-0.13208 c -0.12905,0.0891 -0.25023,0.32112 -0.26477,0.47502 z m -4.4921,5.47486 0.57075,-0.31748 c 0.15026,-1.40386 0.82341,-2.30725 1.63591,-3.37787 0.0527,-0.0697 0.0903,-0.1648 0.13209,-0.24175 l 0.63134,-0.26478 0.24903,-0.33627 -0.15148,-0.40049 c -0.49986,0.1648 -0.95913,-0.24357 -1.5117,-0.13209 l -0.40777,-0.49501 0.0866,-0.47987 0.69497,-0.25327 0.0261,-0.21146 0.55924,-0.12481 -0.16601,-0.26053 c 0.44109,-0.33264 1.30994,-0.18176 1.82858,-0.24175 0.11694,-0.0133 0.28417,-0.13814 0.40051,-0.15147 0.2369,-0.0267 1.01729,-0.034 1.24329,0.0945 l 0.4005,-0.16966 0.0714,-0.38171 c 0.22177,-0.15632 0.48957,-0.31688 0.74768,-0.40413 l 0.15874,0.17025 0.17026,-0.37383 h 0.32113 l 0.0527,-0.15148 0.23812,0.15875 0.36657,-0.71011 c 0.12844,-0.0624 0.26477,-0.11876 0.38898,-0.18904 0.90339,-0.50835 1.89342,-1.18937 2.8374,-1.59835 0.23993,-0.10361 1.05547,-6e-4 1.81345,-0.37383 0.44167,-0.21752 0.57495,-0.64589 0.97488,-0.84281 l 0.0563,-0.16964 c 0.2121,-0.008 0.48117,-0.077 0.66529,-0.18541 l 0.32112,0.10179 0.58535,-0.18903 0.106,-0.31689 0.4344,-0.25326 0.446,0.13874 c 0.21443,0.19753 0.40349,0.49442 0.53252,0.75314 0.46471,0.33263 1.31784,0.69496 1.9044,0.68041 l 0.0797,0.16965 -0.4344,0.11391 c -0.12964,0.21267 -0.30051,0.40959 -0.47198,0.58953 l 0.0338,0.24175 -0.20412,0.44959 c 0.12298,0.19872 0.14177,0.64042 0.1248,0.86157 l 0.30233,0.0945 c 0.13085,0.17329 0.20421,0.46291 0.23088,0.67255 -0.15208,0.43745 -0.59687,1.08697 -0.50654,1.52685 -0.24483,0.13996 -0.45198,0.0752 -0.66528,0.14723 -0.41743,0.14239 -0.74461,0.41382 -1.2088,0.44231 l -0.22292,-0.0758 -0.019,-0.23448 -0.30233,0.0188 -0.13935,-0.13209 -0.71438,0.24539 -0.026,0.2987 0.51745,0.19692 c -0.17329,0.20297 -0.55322,0.78281 -0.50594,1.07667 l -0.31384,0.29083 c -0.12359,-0.10482 -0.39197,-0.16056 -0.54777,-0.12481 -0.12964,0.0988 -0.30293,0.34536 -0.30233,0.51743 -0.0921,-0.0188 -0.21685,-0.11391 -0.2611,-0.19631 l -0.17754,0.0818 -0.026,0.19752 0.21512,0.0376 0.13207,-0.0497 0.21209,0.0757 c -0.14116,0.33809 -0.19693,0.70647 -0.3284,1.05001 l -0.46107,0.10967 -0.12488,-0.28719 0.0719,-0.41202 -0.30233,-0.50591 H 809.912 l -0.0988,-0.27205 -0.68345,0.0376 -0.23025,0.20358 -0.47198,-0.0903 -0.0982,-0.21449 c 0.10058,-0.11693 0.25084,-0.31688 0.29446,-0.46956 l -0.18904,-0.0115 v -0.14723 l -0.46835,0.13997 -0.26114,0.29083 c 0.0564,0.069 0.12603,0.23205 0.0982,0.32476 l 0.20419,0.12481 c -0.49684,0.24902 -0.68345,0.7198 -0.89551,1.19907 -0.20843,-0.0758 -0.63861,-0.0661 -0.81978,0.0818 l -0.26477,-0.10178 -0.30234,0.55923 0.16601,0.0679 -0.0412,0.35505 -0.23084,0.0757 c 0.086,0.22661 0.13511,0.47806 0.15874,0.71799 l -0.34778,0.32113 0.13208,0.14784 -0.21145,0.35505 -0.17753,0.0376 0.0982,0.15875 -0.37444,0.0757 -0.10542,0.13935 -0.11694,-0.10178 -0.26478,0.10178 -0.20782,0.46109 -0.31021,0.15874 -0.41929,-0.13208 -0.21872,0.25326 0.13208,0.25266 -0.54348,0.15874 -0.16602,-0.24599 -0.57802,0.0303 0.23811,-0.55136 0.39263,-0.17026 -0.57803,-0.21509 c -0.39201,0.11512 -0.82099,0.19146 -1.22815,0.2266 -0.32536,-0.18116 -0.69315,-0.31566 -1.03911,-0.44957 l 0.0794,-0.53258 -0.52532,0.25326 0.0982,0.32476 -0.2569,0.38535 0.34779,0.33628 -0.69496,0.26113 c -0.0412,0.23812 -0.28175,0.55379 -0.46836,0.69496 l -0.52531,0.034 -0.23024,-0.69132 -0.39262,-0.20358 -0.034,-0.49865 z"
   id="path872"
   style="fill:#000000;fill-opacity:1;stroke:#000000;stroke-opacity:1" />
<path
   fill="#C6ECFF"
   stroke="#0978AB"
   stroke-width="0.944646"
   stroke-linejoin="round"
   stroke-miterlimit="3.8637"
   d="m 583.30143,921.56541 c 0.33264,-0.15995 1.71408,-1.85762 1.93826,-2.22967 0.19449,-0.32355 0.34172,-0.76219 0.49865,-1.11059 l -0.0982,-0.16966 c 0.11634,-0.4835 0.53561,-0.77431 0.83493,-1.13363 0.33385,-0.40045 0.46533,-1.01178 1.04274,-1.16758 l 0.12481,-0.31748 c 0.26721,-0.0797 0.53562,-0.7822 0.59318,-1.01239 0.13935,-0.1739 0.42473,-0.24907 0.62104,-0.28362 1.21664,-0.21322 0.9464,0.22664 1.52867,0.25695 l 0.18116,-0.20785 c 0.58833,-0.0511 1.27844,-0.47805 1.82132,-0.41924 l 0.20358,0.13995 c 0.79554,-0.4532 1.27904,-0.26657 1.8401,-0.47623 l 0.4005,0.17875 c 0.45987,-0.17815 3.2991,-1.0052 3.50995,-0.86222 l 0.20418,0.29869 c -0.11815,0.19754 -0.48229,0.49199 -0.46835,0.70287 -0.26721,0.065 -0.61378,0.43925 -0.74041,0.66528 0.2569,0.0242 0.52834,0 0.78221,-0.0372 l 0.24963,0.13207 0.0715,0.2793 0.23085,0.0762 c -0.14663,0.36355 -0.11816,0.63557 -0.38171,0.97125 0.2369,0.23928 0.13329,0.66104 0.32839,0.89911 l 0.36657,-0.12116 0.18479,0.36295 c 0.13512,0.0736 0.37263,0.12176 0.52532,0.0945 l 0.0981,0.22301 0.28356,0.0945 0.17752,-0.045 0.2569,0.25322 0.22297,-0.0675 0.22297,0.0675 v 0.2987 l -0.23024,0.15874 c -0.37869,-0.12055 -1.16392,-0.11873 -1.4699,0.15874 l -0.0261,-0.35507 -0.19268,-0.17026 c -0.27568,-0.009 -0.72101,0.4066 -0.87249,0.60111 v 0.13934 c -0.88339,0.20118 -1.76436,0.24474 -2.64836,0.39318 -1.20876,0.20178 -2.92707,1.05491 -3.85773,1.86135 -0.20903,0.18118 -0.84704,0.82585 -0.95186,1.10453 -0.0455,0.12056 -0.0781,0.46775 -0.12481,0.56292 -0.0824,0.16723 -0.29144,0.34347 -0.4005,0.50282 -0.56651,0.82705 -1.16938,1.91652 -2.34663,1.90015 -0.2884,-0.13086 -0.64951,-0.32294 -0.967,-0.36598 -0.46533,-0.82282 -1.89402,-0.75068 -2.70168,-0.67256 -0.53501,-0.30354 -0.74768,-1.59531 -0.86583,-2.15156 z"
   id="path874"
   style="fill:#000000;fill-opacity:1;stroke:#000000;stroke-opacity:1" />
<path
   fill="#C6ECFF"
   stroke="#0978AB"
   stroke-width="0.944646"
   stroke-linejoin="round"
   stroke-miterlimit="3.8637"
   d="m 641.13647,901.59638 c 0.17026,-0.74219 0.26175,-1.49841 0.36657,-2.2509 0.0503,-0.36113 0.0182,-0.73733 0.0945,-1.11544 l 0.54409,0.16602 0.23812,0.329 c 0.38656,0.0606 0.81492,0.29566 0.97125,0.67256 l 0.47259,0.0372 0.20359,0.24595 c 0.7204,-0.15571 1.40688,0.17935 1.85524,0.72954 l -0.16601,0.58951 0.1133,0.29869 0.22297,0.15147 -0.12482,0.34355 c 0.0793,0.17935 0.45928,0.30839 0.63135,0.3284 l 0.14359,0.29081 c 0.1436,-0.009 0.40171,0.0606 0.49865,0.17754 l 0.23025,-0.0303 0.28355,0.22664 0.51743,0.0459 0.35506,-0.24179 1.14514,0.2036 0.31385,-0.41933 c 0.19086,0.0649 0.5962,0.0885 0.7707,-0.045 l 0.15874,0.10176 -0.26477,0.30596 0.40776,0.0191 0.32113,-0.21513 0.47199,0.12489 0.29083,-0.13216 0.18904,-0.72157 c -0.15632,-0.11389 -0.21145,-0.69742 -0.21509,-0.8695 l -0.15874,-0.0945 c -0.007,-0.4641 0.53924,-1.18637 0.93368,-1.41353 l 0.23024,-0.93314 0.15874,-0.12116 0.0455,-0.25262 0.28295,-0.15147 0.18904,-0.98277 0.17753,-0.15874 c 0.38535,0.1642 1.05971,0.14722 1.44748,0.009 l 0.14359,0.12479 c 0.25508,0.052 0.59439,0.0346 0.81615,0.17754 l 0.0564,0.20412 -0.20782,0.30969 -0.28356,0.11267 -0.0527,0.28051 c 0.16299,-0.0814 0.36232,-0.18481 0.54409,-0.21573 l 0.246,0.43085 -0.0873,0.32537 -0.32112,0.14358 -0.10542,0.41197 -0.30235,0.26059 0.11694,0.46835 0.17753,0.17754 c -0.12906,0.41439 -0.58105,0.70702 -0.93368,0.92578 l -0.3284,0.009 -0.1436,0.32112 -0.15874,0.0528 -0.13632,0.18897 -0.2569,0.0641 c -0.0473,0.21209 -0.16602,0.4532 -0.29447,0.62709 l 0.32113,0.15087 c -0.0618,0.18178 -0.16117,0.65619 -0.0606,0.84281 0.20963,0.084 0.43321,0.39751 0.48773,0.6083 h 0.30235 l 0.15874,0.25331 -0.008,0.35499 -0.20358,0.17754 c 0.20782,0.24482 0.25508,0.58656 0.20358,0.89555 l -0.22297,0.13207 c -0.0612,0.19148 -0.19631,0.42773 -0.34778,0.56292 0.0982,0.25626 0.1442,0.60345 0.11693,0.87668 -0.2163,0.30839 -0.51501,0.532 -0.74827,0.82342 -0.074,0.28899 -0.13512,0.62527 -0.12481,0.92578 l 0.0981,0.11337 -0.0606,0.15874 -0.18903,0.0113 -0.0945,0.33619 -0.2151,0.0268 c -0.0994,-0.25384 -0.40655,-0.80766 -0.66527,-0.94458 -0.33688,-0.17814 -0.7301,-0.28717 -1.07667,-0.44955 -0.70769,-0.33143 -1.33721,-0.90639 -1.9837,-1.31844 -0.057,-0.0364 -0.26357,-0.0598 -0.33627,-0.0945 -0.7301,-0.34598 -1.44567,-0.68771 -2.19515,-1.01611 l -0.13209,-0.38538 c -0.31446,0.28908 -1.35842,-0.039 -1.68136,-0.15147 -0.21994,-0.0762 -0.40474,-0.30172 -0.5968,-0.37378 -0.10603,-0.0398 -0.42958,-0.0615 -0.5138,-0.10184 -0.36415,-0.17511 -0.5859,-0.54343 -1.02397,-0.64588 -0.61316,0.32476 -1.59895,0.12115 -1.7074,0.18905 -0.21025,-0.14783 -0.27387,-0.68226 -0.2569,-0.90699 l 0.0982,-0.11336 -0.0982,-0.13995 0.0376,-1.40505 z"
   id="path876"
   style="fill:#000000;fill-opacity:1;stroke:#000000;stroke-opacity:1" />
<path
   fill="#C6ECFF"
   stroke="#0978AB"
   stroke-width="0.944646"
   stroke-linejoin="round"
   stroke-miterlimit="3.8637"
   d="m 585.55294,902.46526 0.007,-0.26847 c 0.77979,-0.46713 1.7577,-0.8791 2.12729,-1.77951 0.12906,-0.071 0.25691,-0.15086 0.38899,-0.21504 0.67012,-0.32657 1.35781,-0.63679 2.01823,-0.98216 0.30658,-0.16056 0.57379,-0.39872 0.89188,-0.54412 0.23085,0.24361 0.49865,0.45986 0.76282,0.66467 l 0.11694,-0.15874 -0.0715,-0.18542 0.20357,-0.26474 c 0.0267,-0.32537 -0.0394,-0.73742 -0.16237,-1.03915 0.40594,-0.61072 2.29512,-3.53417 2.10063,-3.98251 l 0.20419,-0.1248 0.83492,-1.7117 c 0.95004,-0.47441 1.62561,0.12064 2.22181,-0.045 l 0.44595,0.25322 c 0.77494,-0.10721 1.53957,0.0903 2.30118,0.12055 0.42716,0.0173 0.86583,-0.0693 1.29965,-0.0372 0.58226,0.0424 1.15907,0.15693 1.74921,0.18473 l 0.30235,0.30241 c 0.16661,-0.009 0.58226,-0.0779 0.69496,-0.22663 0.59195,0.0745 1.13301,-0.19512 1.70377,-0.26051 0.23509,-0.0268 0.50895,0.0511 0.74767,0.0372 0.39081,-0.0225 0.87733,-0.22716 1.26208,-0.0753 0.0279,0.3284 -0.0606,0.77735 -0.22297,1.06513 -0.73555,-0.13874 -3.31363,0.76886 -3.65354,1.50022 -0.13148,0.0121 -0.37444,-0.039 -0.46836,-0.14359 -0.62165,0.13207 -1.14211,0.43197 -1.72679,0.60102 -0.50168,0.1448 -1.0579,0.14844 -1.56442,0.2987 -0.20662,0.0615 -0.46957,0.24058 -0.69133,0.23452 -0.58287,-0.0173 -1.07304,-0.18542 -1.62865,0.16965 -0.0811,0.5307 -1.213,0.97004 -1.62864,1.13363 -1.11182,0.43864 -1.40628,0.63133 -1.38325,1.91583 -0.27326,0.34294 -0.53986,0.69438 -0.78585,1.05785 -0.85613,0.12427 -2.98221,0.0208 -3.3512,1.06521 -0.11331,0.045 -0.95853,0.39076 -1.02033,0.43865 -0.13753,0.106 -0.22902,0.31869 -0.36656,0.42288 -0.27751,0.21088 -0.63861,0.33991 -0.9143,0.552 -0.5556,0.42713 -1.08515,0.93549 -1.61713,1.39414 -0.25447,-0.53253 -0.87006,-0.7919 -1.12817,-1.36686 z"
   id="path878"
   style="fill:#000000;fill-opacity:1;stroke:#000000;stroke-opacity:1" />
<path
   fill="#C6ECFF"
   stroke="#0978AB"
   stroke-width="0.944646"
   stroke-linejoin="round"
   stroke-miterlimit="3.8637"
   d="m 550.50861,923.22741 c -0.0521,-0.17936 -0.007,-0.47441 0.0643,-0.64225 0.54228,-0.64952 1.6347,-0.93912 2.18728,-0.14359 l 0.0945,0.36659 c 0.39746,0.32901 1.9219,-0.16965 2.43691,-0.17753 0.34051,-0.009 1.32388,0.44773 1.68135,0.5895 0.0564,0.33568 0.14784,1.4887 -0.13633,1.75769 l -0.65739,0.44904 c 0.16844,0.51736 0.0382,1.01178 0.17026,1.52681 l 0.24902,0.19632 c 0.14057,0.39621 0.21934,1.33784 -0.0188,1.69222 0.5441,0.16905 1.68984,0.15693 2.03641,0.58171 l -0.11694,0.47623 c -0.20297,0.17754 -0.41867,0.34962 -0.64588,0.49502 l -0.0527,0.43865 -0.3593,0.27201 c -0.15935,-0.0139 -0.41686,0.0537 -0.54046,0.15996 -0.18783,-0.0164 -0.46836,-0.11449 -0.61196,-0.24171 0.0818,-0.21876 -0.0115,-0.80402 -0.0564,-1.02156 -0.21207,0.12964 -0.44655,0.33627 -0.58591,0.54412 -0.12663,0.0485 -0.47017,-0.14783 -0.56712,-0.21512 -0.2884,0.25271 -1.5426,-0.44774 -2.02913,-0.31749 -0.11997,-0.20966 -1.06577,-0.26959 -1.29601,-0.30233 l -0.0909,-0.36295 -0.71799,-0.0945 -0.13572,0.15874 -0.28356,0.0303 c -0.30901,-0.29324 -0.69193,-0.59808 -0.96761,-0.91859 -0.44594,-0.51798 -0.42837,-3.61835 -0.10967,-4.10671 0.29022,-0.44228 0.83553,-0.70287 1.05971,-1.19061 z"
   id="path880"
   style="fill:#000000;fill-opacity:1;stroke:#000000;stroke-opacity:1" />
<path
   fill="#C6ECFF"
   stroke="#0978AB"
   stroke-width="0.944646"
   stroke-linejoin="round"
   stroke-miterlimit="3.8637"
   d="m 875.73937,771.62415 0.47987,-0.0491 0.11336,-0.13207 c -0.10487,-0.55137 0.35923,-1.85405 0.86516,-2.12003 0.34962,6.1e-4 1.33663,-0.0261 1.65109,-0.19752 0.17814,-0.24054 0.71499,-0.76283 1.02399,-0.7398 l 0.19685,0.15874 0.009,0.26054 c -0.0727,0.12542 -0.29142,0.39564 -0.44956,0.42352 0.20118,0.26356 0.87616,0.33263 1.20153,0.35869 0.24474,0.27871 0.61678,0.39989 0.87304,0.67254 l -0.0945,0.21933 -0.58951,0.18541 0.009,0.37807 -0.23443,0.2151 c 0.27869,0.0503 0.72703,-0.0861 0.94821,-0.25326 0.6277,0.0503 1.87157,1.7068 1.80255,2.20666 l 0.30233,0.25266 0.18542,-0.0188 c 0.23443,0.0903 0.50714,0.39929 0.61193,0.61983 l -0.0113,0.58954 c -0.2599,0.74161 -1.91583,1.16392 -2.60718,1.08091 -0.4344,-0.0521 -0.84758,-0.29871 -1.30753,-0.25327 -0.49805,0.0497 -0.83243,0.46352 -1.31472,0.48775 l -0.16601,0.36597 c -0.55504,0.28961 -1.92258,0.51016 -2.57323,0.55196 l -0.23452,0.35869 c -0.3581,-0.006 -0.88526,0.3078 -1.08028,0.60105 l -0.2612,0.0188 c -0.37317,-0.64285 0.009,-0.95731 0.0372,-1.56805 0.0147,-0.30234 -0.10479,-0.77191 -0.15874,-1.06395 -0.33567,-1.81648 -0.30718,-2.09095 0.77553,-3.60993 z"
   id="path882"
   style="fill:#000000;fill-opacity:1;stroke:#000000;stroke-opacity:1" />
<path
   fill="#C6ECFF"
   stroke="#0978AB"
   stroke-width="0.944646"
   stroke-linejoin="round"
   stroke-miterlimit="3.8637"
   d="m 566.35154,931.05985 c 0.41746,-0.54231 1.14211,-1.14515 1.72316,-1.5075 0.0236,-0.31627 0.20359,-1.31722 0.52531,-1.49597 0.24418,-0.0615 0.50895,-0.20049 0.74828,-0.24171 0.58833,-0.10184 1.30812,-0.0494 1.87403,-0.23391 0.16117,-0.0528 0.31871,-0.24353 0.47987,-0.2987 0.55136,-0.18723 1.18755,0.0485 1.70741,-0.0676 0.42231,-0.0945 1.6238,-0.63194 2.0255,-0.92578 l 0.0903,0.23452 c 0.69678,0.01 1.46929,0.0433 2.14244,-0.17754 0.0866,-0.2702 0.16601,-0.55018 0.21206,-0.8313 0.22842,-0.18723 1.06698,-0.25747 1.34509,-0.26474 l 0.0872,-0.26059 c 0.14966,-0.14116 0.47624,-0.23383 0.67618,-0.22655 l 0.45382,0.21625 c 0.54833,-0.2308 1.14392,-0.0502 1.70741,-0.22413 0.0479,-0.13328 0.22539,-0.59687 0.33627,-0.68347 l 0.007,-0.20421 0.2157,0.12116 c 0.13935,0.16177 0.20297,0.51805 0.15874,0.72166 -0.11754,0.0814 -0.31809,0.28899 -0.34777,0.43864 l -0.33628,0.0563 -0.30961,0.40045 c 0.31931,0.34719 0.60104,0.47389 1.05789,0.32113 l 0.007,0.43812 -0.24964,0.21503 -0.0261,0.54049 0.44593,0.61982 c 0.22964,6e-4 0.57258,0.18117 0.71011,0.36295 l 0.1436,0.39266 -0.10967,0.42288 c -0.39505,0.38114 -0.83856,0.78523 -1.30752,1.07664 -0.43382,-0.34597 -1.01184,-0.32961 -1.49232,-0.64588 -0.83007,-0.54586 -1.71467,-1.06998 -2.51628,-1.65463 -0.36171,-0.26423 -0.535,-0.66043 -0.98579,-0.85434 l -0.37443,0.0113 c -0.13937,0.13753 -0.57015,0.40712 -0.76283,0.43016 -0.59438,0.0719 -1.22996,-0.0217 -1.82131,0.0831 -0.40474,0.0719 -0.78161,0.2514 -1.16393,0.39196 -0.70527,0.25937 -1.46687,0.47562 -2.15396,0.77553 -1.2548,0.54776 -3.30697,1.98433 -3.87651,3.33247 l -0.98579,-0.44964 z"
   id="path884"
   style="fill:#000000;fill-opacity:1;stroke:#000000;stroke-opacity:1" />
<path
   fill="#C6ECFF"
   stroke="#0978AB"
   stroke-width="0.944646"
   stroke-linejoin="round"
   stroke-miterlimit="3.8637"
   d="m 978.81295,676.90045 0.29445,-0.39626 0.62709,0.26478 0.79371,-0.19631 0.0641,-0.26478 -0.87253,-0.2987 c -0.0433,-0.39928 0.058,-1.79163 0.49442,-2.01036 l 1.96493,-0.39686 c 0.27929,0.67436 1.57591,0.93247 2.19148,1.02033 l -0.0831,0.38171 0.66104,-0.11694 0.627,0.46472 0.1473,0.9561 0.8428,0.62711 -0.363,0.59317 -0.3629,-0.0679 c -0.2351,0.15148 -0.73912,0.32112 -1.02387,0.23448 l -0.69135,0.39262 c 0.0329,0.31748 -0.12358,0.8319 -0.23028,1.12212 l -0.94094,-0.29447 -0.34719,0.19631 -0.46107,-0.41201 c -0.61557,0.21267 -2.06063,0.67982 -2.72409,0.64225 -0.2605,-0.43684 -0.51988,-1.92795 -0.60769,-2.44114 z"
   id="path886"
   style="fill:#000000;fill-opacity:1;stroke:#000000;stroke-opacity:1" />
<path
   fill="#C6ECFF"
   stroke="#0978AB"
   stroke-width="0.944646"
   stroke-linejoin="round"
   stroke-miterlimit="3.8637"
   d="m 559.96965,933.11926 c 0.37263,-0.0225 0.7501,-0.0511 1.11848,-0.11327 l 0.0188,0.33627 c 0.3302,0.16602 0.97488,0.0546 1.30752,-0.0372 l 0.0679,-0.17754 c 0.25266,-0.27929 1.76679,-1.01005 2.1691,-1.22456 l 0.58954,0.0753 0.69132,-0.46835 1.20149,0.58951 c 0.0133,0.0433 0.0994,0.28657 0.0982,0.31748 -0.005,0.20482 -0.0964,0.44661 -0.12482,0.65377 -0.0951,0.69741 -0.0988,1.45172 -0.0527,2.15398 l -0.2872,0.2987 c -0.75979,0.0208 -1.28753,0.64891 -1.96491,0.72166 -0.23812,-0.12307 -0.65558,-0.20421 -0.92157,-0.15095 l -0.28719,-0.50646 c -0.24539,-0.17208 -1.01003,-0.10608 -1.27723,-0.0563 l -0.2678,0.44168 -1.18271,0.14722 -0.47199,-0.59678 0.0376,-0.21512 -0.30234,-0.29869 c -0.0976,-0.50654 -0.63073,-1.47112 -0.15935,-1.89037 z"
   id="path888"
   style="fill:#000000;fill-opacity:1;stroke:#000000;stroke-opacity:1" />
<path
   fill="#C6ECFF"
   stroke="#0978AB"
   stroke-width="0.944646"
   stroke-linejoin="round"
   stroke-miterlimit="3.8637"
   d="m 799.05314,781.01006 c 0.54954,-0.88885 0.37929,-1.56502 1.37901,-2.12003 0.24902,-0.0679 0.70163,0.0594 0.91854,0.1739 0.27871,0.28841 0.22479,1.30267 0.21933,1.6662 0.42837,0.50472 0.78464,1.18089 1.27662,1.6135 0.14118,0.12421 0.78221,0.27326 0.94096,0.38899 0.2266,0.1648 0.49804,0.61195 0.72949,0.83916 l 0.96337,-0.16299 c 0.46351,0.3181 0.96096,1.15909 1.06577,1.71165 l -0.14359,0.51381 c -0.21207,0.20782 -0.47442,0.38958 -0.72162,0.55196 -0.27811,-0.0376 -0.68709,-0.0455 -0.94823,-0.12845 -0.69072,-0.21993 -1.33478,-0.59923 -2.04004,-0.82341 -0.12542,-0.0394 -0.20964,-0.0327 -0.32113,-0.10178 -0.38656,-0.24115 -0.70526,-0.69921 -1.08091,-0.96761 -0.53017,-0.37869 -0.88885,-0.31386 -1.35236,-0.95611 -0.43745,-0.60468 -0.66951,-1.48808 -0.88521,-2.19879 z"
   id="path890"
   style="fill:#000000;fill-opacity:1;stroke:#000000;stroke-opacity:1" />
<path
   fill="#C6ECFF"
   stroke="#0978AB"
   stroke-width="0.944646"
   stroke-linejoin="round"
   stroke-miterlimit="3.8637"
   d="m 939.09112,685.42841 0.49502,-0.57803 1.65108,0.083 1.06937,1.07304 -0.99004,0.82341 0.0831,1.07304 c 0.75612,0.35748 1.76678,1.39235 1.98,2.22545 -0.65559,0.63619 -1.8074,1.50746 -2.72046,1.73407 -0.57677,-0.53137 -1.36382,-2.25877 -1.48506,-2.96949 -0.0173,-0.0988 0.16602,-1.20149 0.16602,-1.40143 6e-4,-0.64467 -0.17087,-1.41659 -0.24899,-2.06308 z"
   id="path892"
   style="fill:#000000;fill-opacity:1;stroke:#000000;stroke-opacity:1" />
<path
   fill="#C6ECFF"
   stroke="#0978AB"
   stroke-width="0.944646"
   stroke-linejoin="round"
   stroke-miterlimit="3.8637"
   d="m 854.31192,785.92508 0.11691,-0.10543 c 0.38357,-0.0612 0.83191,0.3284 1.06582,0.59317 l 0.13571,-0.43079 c 0.27384,-0.0775 0.66649,-0.0333 0.93366,0.0455 0.18845,-0.24479 0.69502,-0.99003 0.69926,-1.31843 l -0.17029,-0.54773 0.0641,-0.26053 c 0.26971,0.11391 0.67683,0.13027 0.95976,0.0721 l 0.34779,-0.40412 0.47623,0.29445 0.35144,-0.0606 0.0797,-0.46835 c 0.5889,-0.14481 1.28207,0.12541 1.80246,-0.0866 0.3381,0.13875 0.59748,0.58651 0.63861,0.94096 -0.97125,1.43172 -1.74132,0.83431 -2.39508,2.1073 -0.87244,0.46533 -1.53348,-0.0352 -2.4036,0.22418 -0.058,0.27023 -0.36962,0.6174 -0.61194,0.73677 l -0.0908,0.8428 -0.8313,0.29446 -0.46835,-0.29446 c -0.0762,-0.12179 -0.6568,-1.95826 -0.69984,-2.17456 z"
   id="path894"
   style="fill:#000000;fill-opacity:1;stroke:#000000;stroke-opacity:1" />
<path
   fill="#C6ECFF"
   stroke="#0978AB"
   stroke-width="0.944646"
   stroke-linejoin="round"
   stroke-miterlimit="3.8637"
   d="m 602.42346,917.92282 0.0793,-0.12116 0.61559,-0.0459 0.008,-0.49502 -0.10542,-0.0945 c 0.0576,-0.2721 -0.21328,-1.52204 -0.36657,-1.78739 0.0885,-0.39933 0.11633,-0.83615 0.12482,-1.24327 l 0.17753,-0.0946 0.14359,0.0563 0.22297,0.59678 0.24963,0.15147 c 0.14723,0.01 0.42776,-0.0329 0.54773,-0.13207 l 0.16965,0.0459 0.0982,0.20776 -0.0449,0.10184 c -0.0782,-0.0879 -0.30294,-0.10972 -0.40837,-0.0946 l -0.0873,0.12489 -0.43805,0.0528 c -0.10604,0.0779 -0.20783,0.34234 -0.23812,0.46108 0.21752,0.69316 0.0218,1.37966 0.28356,2.16853 l 0.21146,-0.0831 c 0.2266,0.14186 0.77978,0.16602 1.03184,0.15086 0.27204,0.33749 1.59713,0.77562 2.04792,0.74834 0.38535,-0.0234 0.75373,-0.18542 1.15241,-0.1248 0.49198,0.0745 1.03668,0.28112 1.51171,0.43076 0.2066,-0.0598 0.48895,-0.24421 0.61619,-0.41924 l 0.0866,-0.36659 c 0.17934,-0.0779 0.50471,-0.0805 0.68406,0 l 0.11694,0.40409 -0.30234,0.16723 -0.69496,1.30268 -0.41565,-0.15147 -0.15147,0.31688 0.30961,0.20785 -0.28296,0.38174 -0.38171,-0.24179 -0.21509,0.31688 0.17025,0.51381 -0.13208,0.17026 -0.36657,-0.0303 -0.13208,0.13934 -0.21509,-0.0338 c -0.10664,-0.44713 -2.52477,-2.22179 -2.57688,-2.97732 -0.61558,-0.045 -1.03667,-0.33809 -1.59046,-0.46834 -0.47805,-0.10973 -1.02699,-0.14359 -1.51353,-0.2127 z"
   id="path896"
   style="fill:#000000;fill-opacity:1;stroke:#000000;stroke-opacity:1" />
<path
   fill="#C6ECFF"
   stroke="#0978AB"
   stroke-width="0.944646"
   stroke-linejoin="round"
   stroke-miterlimit="3.8637"
   d="m 678.54984,915.62161 0.034,-0.30233 0.27568,-0.026 c 0.22115,-0.1345 0.82523,-0.72825 1.00154,-0.75916 l -0.0194,-0.44592 0.0988,-0.18542 -0.0988,-0.20784 c 0.0491,-0.22898 0.0855,-0.4629 0.11391,-0.69491 0.37748,-0.0667 0.91551,-0.0572 1.27662,0.0902 0.24357,0.11328 0.40292,0.91306 0.80887,1.25419 l 0.034,1.28813 c -0.21449,0.12237 -0.69193,0.47077 -0.78221,0.72166 l -0.4423,0.19269 -0.0527,0.21139 -0.22721,0.15511 -0.44958,-0.39257 c -0.40595,0.0857 -1.46262,-0.49138 -1.57108,-0.8992 z"
   id="path898"
   style="fill:#000000;fill-opacity:1;stroke:#000000;stroke-opacity:1" />
<path
   fill="#C6ECFF"
   stroke="#0978AB"
   stroke-width="0.944646"
   stroke-linejoin="round"
   stroke-miterlimit="3.8637"
   d="m 540.05754,931.74384 0.27205,-0.34771 c 1.42688,-0.71681 3.03735,1.13363 4.73809,0.2799 0.30113,-0.15147 0.60529,-0.49866 0.89188,-0.69196 0.4932,-0.33203 1.00578,-0.55737 1.47353,-0.95185 l -0.0261,-0.21512 0.1963,-0.12601 0.23812,0.0762 c 0.0449,-0.25755 0.26174,-0.59323 0.42715,-0.78583 l -0.0872,-0.21512 0.15874,-0.23452 -0.18541,-0.34356 c 0.0781,-0.30778 0.3278,-0.73673 0.57803,-0.9373 l 0.25689,0.2612 0.0982,0.41197 c -0.14602,0.16844 -0.17571,0.75855 -0.17025,0.96337 l 0.17752,-0.0908 c 0.0115,0.12964 0.14057,0.30839 0.24963,0.37378 l 0.0267,0.43085 -0.17752,0.24958 c -1.15847,-0.14298 -4.71265,2.20907 -4.8817,3.2567 -0.103,0.13328 -0.38959,0.21391 -0.54773,0.20785 l -0.0376,0.15874 h -0.61922 l -0.26114,-0.18905 -0.0866,-0.49502 c -0.22721,-0.23331 -0.54348,-0.48654 -0.84643,-0.61558 l -0.12481,-0.28353 c -0.52289,-0.0615 -1.14454,-0.0736 -1.66257,0.0372 z"
   id="path900"
   style="fill:#000000;fill-opacity:1;stroke:#000000;stroke-opacity:1" />
<path
   fill="#C6ECFF"
   stroke="#0978AB"
   stroke-width="0.944646"
   stroke-linejoin="round"
   stroke-miterlimit="3.8637"
   d="m 369.38558,709.30792 c 0.62348,-0.2981 1.31177,-0.15208 1.86192,-0.46109 l 0.57863,0.16602 c 0.33143,0.36232 0.74404,1.21602 0.6271,1.73043 l -0.29446,0.37808 -0.49502,-0.26054 c -0.18661,0.4829 -0.56773,1.0997 -0.98942,1.41658 -1.06153,-0.54833 -1.46688,-1.851 -1.28875,-2.96948 z"
   id="path902"
   style="fill:#000000;fill-opacity:1;stroke:#000000;stroke-opacity:1" />
<path
   fill="#C6ECFF"
   stroke="#0978AB"
   stroke-width="0.944646"
   stroke-linejoin="round"
   stroke-miterlimit="3.8637"
   d="m 583.24811,925.77396 0.19631,-0.21503 0.29447,0.10176 c 0.0788,-0.17451 0.32718,-0.41864 0.52531,-0.44956 l -0.22297,-0.52169 c 0.0291,-0.1539 0.19388,-0.37508 0.34354,-0.43077 h 0.32112 l 0.11694,0.19694 0.24963,-0.0675 c 0.0485,-0.10661 0.14118,-0.37326 0.1133,-0.49502 0.34961,-0.0779 0.68163,0.16359 1.00518,0.26474 l 0.24903,0.30606 0.32899,0.0945 c 0.0849,0.22906 0.0764,0.61618 -0.008,0.84282 -0.19752,-0.13632 -0.41564,-0.25028 -0.63134,-0.35507 l -0.36657,0.47622 0.0267,0.45744 -0.15875,0.16966 -0.21509,-0.026 -0.2569,0.40054 -0.42715,-0.13267 -0.1133,-0.31688 0.15146,-0.34416 -0.20782,-0.30961 -0.1854,0.0641 -0.1436,0.50654 -0.27205,0.0945 -0.18903,0.33628 -0.23812,0.019 -0.26053,-0.23443 z"
   id="path904"
   style="fill:#000000;fill-opacity:1;stroke:#000000;stroke-opacity:1" />
<path
   fill="#C6ECFF"
   stroke="#0978AB"
   stroke-width="0.944646"
   stroke-linejoin="round"
   stroke-miterlimit="3.8637"
   d="m 584.74407,902.43919 0.52531,-0.019 c 0.3187,0.5708 0.8537,1.01854 1.28086,1.5075 -0.46715,0.57434 -0.99307,0.93487 -1.74558,0.8119 -0.32234,-0.47623 -0.57742,-1.87227 -0.0606,-2.30061 z"
   id="path906"
   style="fill:#000000;fill-opacity:1;stroke:#000000;stroke-opacity:1" />
<path
   fill="#C6ECFF"
   stroke="#0978AB"
   stroke-width="0.944646"
   stroke-linejoin="round"
   stroke-miterlimit="3.8637"
   d="m 524.55513,728.97767 0.14784,-0.23024 0.24539,-0.0643 c 0.25205,0.15451 0.60286,0.23388 0.82764,0.39687 0.41565,0.30173 0.86947,1.02941 0.78948,1.56442 l -0.1133,0.20054 -0.75919,0.1133 -0.31384,-0.21508 c -0.14057,-0.21449 -0.13694,-0.71981 -0.0982,-0.95611 l -0.67618,-0.37808 z"
   id="path908"
   style="fill:#000000;fill-opacity:1;stroke:#000000;stroke-opacity:1" />
<path
   fill="#C6ECFF"
   stroke="#0978AB"
   stroke-width="0.944646"
   stroke-linejoin="round"
   stroke-miterlimit="3.8637"
   d="m 682.11674,864.49685 0.24175,-0.22664 0.30235,-0.009 0.63134,0.65376 -0.15148,0.22725 -0.57802,0.019 c -0.10725,-0.23452 -0.27629,-0.4738 -0.44594,-0.66528 z"
   id="path910"
   style="fill:#000000;fill-opacity:1;stroke:#000000;stroke-opacity:1" />
<path
   fill="#C6ECFF"
   stroke="#0978AB"
   stroke-width="0.944646"
   stroke-linejoin="round"
   stroke-miterlimit="3.8637"
   d="m 633.1526,904.28297 0.27629,-0.0459 -0.0793,-0.15147 c 0.15692,-0.0779 0.46775,-0.0667 0.63134,-0.0277 l 0.18904,0.18662 0.60469,-0.0632 -0.18904,0.203 c -0.51441,0.11328 -0.84401,0.29506 -1.3869,0.13995 z"
   id="path912"
   style="fill:#000000;fill-opacity:1;stroke:#000000;stroke-opacity:1" />
<path
   fill="#C6ECFF"
   stroke="#0978AB"
   stroke-width="0.944646"
   stroke-linejoin="round"
   stroke-miterlimit="3.8637"
   d="m 605.16998,914.51041 0.0982,-0.0675 0.30234,0.0112 0.0606,0.0641 v 0.11328 c -0.0976,0.052 -0.2987,0.0693 -0.39686,0.009 z"
   id="path914"
   style="fill:#000000;fill-opacity:1;stroke:#000000;stroke-opacity:1" />
<path
   fill="#C6ECFF"
   stroke="#0978AB"
   stroke-width="0.944646"
   stroke-linejoin="round"
   stroke-miterlimit="3.8637"
   d="m 604.73615,914.68855 0.0606,-0.11388 c 0.0903,-0.0208 0.26115,0.009 0.32839,0.0753 v 0.10185 l -0.0793,0.0753 -0.11331,-0.0494 -0.15146,0.019 z"
   id="path916"
   style="fill:#000000;fill-opacity:1;stroke:#000000;stroke-opacity:1" />
</svg>
