<svg version="1.2" xmlns="http://www.w3.org/2000/svg" viewBox="0 0 36 36" width="36" height="36"><style>.A{fill:#88c9f9}.B{fill:#5c913b}.C{fill:#76bbee}</style><circle class="A" cx="18" cy="18" r="18"/><path class="B" d="m30.9 24.8c-1 0.9-1.7 0.8-2.2 1.9c-0.6 1-0.2 1.7-1.3 2.7q-1.6 1.5-3.4 2.6c-0.6 0.4-2.2 2.1-3.1 2.7c-0.8 0.5-1.1 0-1.1 0c0 0 0.3-1.7 1-2.4c0.7-0.7 1.1-3.3 0.9-4.1c-0.3-0.8-1.4-1.1-1.8-1.4c-0.4-0.3-1.4-1.5-1.4-2.3c0-0.6 0.9-1.8 1.4-2.5c-0.3-0.1-1-0.7-1.3-0.8c-0.5-0.2-1.6-1.7-2.5-1.8c-0.9-0.2-1.3-0.7-2-1.3c-0.7-0.5-2.5-1.3-2.4-2.2c0.1-0.9-1.7-1.6-2-1.6c-0.3 0-1.1 0-1.7-1.1c-0.6-1.1-1.7-2.2-1.4-2.9c0.3-0.8 0.4-1.8 0.2-2.6c-0.1-0.9-1.3-1.2-1.5-1c-0.3 0.3-1.4 1.3-1.6 0.4c1.5-2 3.4-3.7 5.6-4.9c0.5 0 0.8 0.1 0.9 0.4c0.1 0.6 0.3 1.4 1.1 1.1c0.9-0.3 3.1-0.5 4.1-1.3c1-0.8 2.2-0.8 3.3-0.5c1 0.3 3.8 0.2 3.2 1.2c-0.6 0.9-1.8 0.8-2.4 1.9c-0.7 1.1 0.1 1.8 1 1.8c0.9 0 1.7 0.2 2.3-0.7c0.5-0.9-0.4-2.5 0.3-2.3c0.7 0.1 1.5 0.8 2 2c0.6 1.2 1.4 0.5 1.7 1.2c0.4 0.7 2.1 2 1.2 1.8c-0.8-0.3-1.7-0.4-1.9 0.4c-0.3 0.9 0.3 1.8-0.3 1.7c-0.6-0.1-0.8 0.1-1.7 0c-0.9-0.1-1.3-0.6-2 0.5c-0.8 1.2-1.3 2-1.6 2.5c-0.3 0.6-0.8 0.9-0.6 2c0.3 1.1-0.6 0.8-0.6-0.1c0-1-0.5-1.1-1.2-1c-0.8 0.2-1.8 0.3-1.8 1.1c0.1 0.8-0.3 1.7 0.3 2.4c0.7 0.6 1.4-0.1 1.8 0.1c0.4 0.3 1.5 0 1.1 0.4c-0.4 0.4-1.8 0.9-1 1.5c0.8 0.7 1.6 0.9 1.9 0.9c0.3 0.1 0.1-0.7 1.1-1.1c1-0.4 2.6-1.3 3-0.6c0.4 0.7 0.3 0.6 1.8 0.7c1.4 0.2 1.7 0.6 2.4 2c0.6 1.3 0.4 1.2 1.4 1.5c1.1 0.4 1.7 0.3 0.8 1.1z"/><path class="C" d="m23.9 33.5q-0.1-0.1-0.1-0.1q-0.1 0-0.2 0q0 0.1 0 0.2q0 0 0 0.1q0.1 0.1 0.2 0.1q0.1 0.1 0.1 0q0.1 0 0.1-0.1q0-0.1-0.1-0.2zm-0.1-0.3l0.3 0.5q0.1 0.1 0.1 0.2q0 0.1-0.1 0.2q0 0-0.1 0q0 0.1 0 0.1l-0.1-0.1q0 0 0.1 0q0-0.1 0.1-0.1q0 0 0-0.1q0-0.1 0-0.2h-0.1q0 0.1 0 0.1q0 0.1 0 0.1q-0.1 0.1-0.2 0q-0.1 0-0.2-0.1q-0.1-0.1-0.1-0.2q0-0.1 0.1-0.2q0 0 0.1-0.1q0 0 0.1 0.1l-0.1-0.1zm0.7-0.2l-0.3 0.3q0.1 0.1 0.2 0.1q0 0 0.1 0q0-0.1 0.1-0.1q0-0.1 0-0.1l0.1 0.1q0 0-0.1 0.1q0 0 0 0q-0.2 0.1-0.3 0.1q-0.1 0-0.2-0.1q-0.1-0.2-0.1-0.3q0-0.1 0.1-0.2q0.1-0.1 0.2 0q0.1 0 0.2 0.1zm-0.3 0.2l0.2-0.2q0 0-0.1 0q-0.1-0.1-0.1 0q-0.1 0-0.1 0.1q0 0.1 0.1 0.1zm0.5-0.6q-0.1 0-0.1 0.1q0 0.1 0.1 0.2q0.1 0.1 0.1 0.1q0.1 0 0.2 0q0-0.1 0-0.1q0-0.1-0.1-0.2q0-0.1-0.1-0.1q-0.1 0-0.1 0zm-0.1-0.1q0.1 0 0.2 0q0.1 0 0.2 0.1q0.1 0.2 0.1 0.3q0 0.1-0.1 0.2q-0.1 0-0.2 0q-0.1 0-0.2-0.1q-0.1-0.2-0.1-0.3q0-0.1 0.1-0.2zm0.6-0.4l0.1 0.1q-0.1 0-0.1 0q0 0 0 0q-0.1 0-0.1 0.1q0 0.1 0.1 0.2l0.2 0.2l-0.1 0.1l-0.4-0.5l0.1-0.1l0.1 0.1q0-0.1 0-0.1q0-0.1 0-0.1q0.1 0 0.1 0q0 0 0 0zm0.5-0.1q0 0-0.1-0.1q-0.1 0-0.1 0.1q-0.1 0-0.1 0.1q0 0.1 0.1 0.1q0.1 0.1 0.1 0.2q0.1 0 0.2-0.1q0 0 0-0.1q0-0.1-0.1-0.2zm-0.1-0.3l0.4 0.5q0.1 0.1 0.1 0.2q0 0.1-0.1 0.2q-0.1 0-0.1 0q-0.1 0.1-0.1 0.1l-0.1-0.1q0.1 0 0.1 0q0.1 0 0.1-0.1q0.1 0 0.1-0.1q0-0.1-0.1-0.1v-0.1q0 0.1 0 0.1q-0.1 0.1-0.1 0.1q-0.1 0.1-0.2 0q-0.1 0-0.2-0.1q-0.1-0.1-0.1-0.2q0-0.1 0.1-0.2q0 0 0.1 0q0 0 0.1 0l-0.1-0.1zm0.7-0.2l0.1 0.1l-0.4 0.2q0.1 0.1 0.2 0.1q0.1 0 0.1 0q0.1-0.1 0.1-0.1q0-0.1 0.1-0.1v0.1q0 0 0 0.1q-0.1 0-0.1 0q-0.1 0.1-0.2 0.1q-0.1 0-0.2-0.1q-0.1-0.2-0.1-0.3q0-0.1 0.1-0.2q0.1 0 0.2 0q0.1 0 0.1 0.1zm-0.3 0.3l0.3-0.3q-0.1 0-0.2 0q0 0-0.1 0q0 0 0 0.1q0 0.1 0 0.2z"/></svg>