<?xml version="1.0" encoding="UTF-8" standalone="no"?>
<!-- Created with Inkscape (http://www.inkscape.org/) -->

<svg
   width="1024"
   height="1024"
   id="svg2913"
   sodipodi:version="0.32"
   inkscape:version="1.1.2 (b8e25be8, 2022-02-05)"
   sodipodi:docname="vector.svg"
   inkscape:export-filename="D:\Wikipédia\Guatemala carte.svg"
   inkscape:export-xdpi="72.000000"
   inkscape:export-ydpi="72.000000"
   version="1.0"
   inkscape:output_extension="org.inkscape.output.svg.inkscape"
   xmlns:inkscape="http://www.inkscape.org/namespaces/inkscape"
   xmlns:sodipodi="http://sodipodi.sourceforge.net/DTD/sodipodi-0.dtd"
   xmlns="http://www.w3.org/2000/svg"
   xmlns:svg="http://www.w3.org/2000/svg"
   xmlns:rdf="http://www.w3.org/1999/02/22-rdf-syntax-ns#"
   xmlns:cc="http://creativecommons.org/ns#"
   xmlns:dc="http://purl.org/dc/elements/1.1/">
  <defs
     id="defs2915" />
  <sodipodi:namedview
     id="base"
     pagecolor="#ffffff"
     bordercolor="#666666"
     borderopacity="1.0"
     inkscape:pageopacity="0.0"
     inkscape:pageshadow="2"
     inkscape:zoom="0.38430753"
     inkscape:cx="279.72389"
     inkscape:cy="663.5311"
     inkscape:document-units="px"
     inkscape:current-layer="svg2913"
     inkscape:window-width="1512"
     inkscape:window-height="872"
     inkscape:window-x="0"
     inkscape:window-y="38"
     showguides="true"
     inkscape:guide-bbox="true"
     width="1024px"
     height="804px"
     inkscape:pagecheckerboard="0"
     showgrid="false"
     inkscape:window-maximized="0" />
  <metadata
     id="metadata2918">
    <rdf:RDF>
      <cc:Work
         rdf:about="">
        <dc:format>image/svg+xml</dc:format>
        <dc:type
           rdf:resource="http://purl.org/dc/dcmitype/StillImage" />
        <dc:creator>
          <cc:Agent>
            <dc:title>STyx</dc:title>
          </cc:Agent>
        </dc:creator>
        <dc:date>2008-03-11</dc:date>
        <cc:license
           rdf:resource="http://creativecommons.org/licenses/by-sa/2.5/" />
        <dc:rights>
          <cc:Agent>
            <dc:title>by-sa 3.0 + GPL</dc:title>
          </cc:Agent>
        </dc:rights>
        <dc:description>Carte de l'Antarctique</dc:description>
        <dc:language>none</dc:language>
        <dc:title>Carte de l'Antarctique</dc:title>
        <dc:publisher>
          <cc:Agent>
            <dc:title>Inkscape</dc:title>
          </cc:Agent>
        </dc:publisher>
        <dc:coverage />
        <dc:subject>
          <rdf:Bag>
            <rdf:li>map</rdf:li>
          </rdf:Bag>
        </dc:subject>
      </cc:Work>
      <cc:License
         rdf:about="http://creativecommons.org/licenses/by-sa/2.5/">
        <cc:permits
           rdf:resource="http://web.resource.org/cc/Reproduction" />
        <cc:permits
           rdf:resource="http://web.resource.org/cc/Distribution" />
        <cc:requires
           rdf:resource="http://web.resource.org/cc/Notice" />
        <cc:requires
           rdf:resource="http://web.resource.org/cc/Attribution" />
        <cc:permits
           rdf:resource="http://web.resource.org/cc/DerivativeWorks" />
        <cc:requires
           rdf:resource="http://web.resource.org/cc/ShareAlike" />
      </cc:License>
    </rdf:RDF>
  </metadata>
  <g
     id="g2177"
     transform="matrix(1.4970387,0,0,1.4970387,-341.3568,-448.51456)"
     style="fill:#000000;fill-opacity:1;stroke:#000000;stroke-opacity:1">
    <!-- <image
       xlink:href="Antarctica_research_station.gif"
       sodipodi:absref="K:\Inkscape\Antarctica_research_station.gif"
       width="1134"
       height="1278"
       id="image2477"
       x="0"
       y="0" />
-->
    <path
       d="m 271.93764,532.41149 c -0.3003,0 -1.91275,-1.13338 -3.58322,-2.51862 l -3.03721,-2.51862 2.20616,-0.0426 2.20615,-0.0426 1.37706,2.56122 c 0.75738,1.40868 1.13136,2.56123 0.83106,2.56123 z m 394.56245,377.473 -5.14611,-0.011 -2.72451,-1.58189 c -1.49848,-0.87003 -4.34365,-2.71874 -6.32259,-4.10824 l -3.59805,-2.52634 -15.4415,0.2903 -15.44149,0.29031 -2.48733,-2.24609 c -1.36803,-1.23536 -4.88974,-3.40365 -7.82604,-4.81843 l -5.33872,-2.57234 0.57642,-1.9098 c 0.31701,-1.0504 0.47092,-4.12577 0.34198,-6.83418 l -0.2344,-4.92436 1.31142,-2.43915 1.31143,-2.43916 h 1.88614 1.88615 l 3.99213,-8.41052 3.99213,-8.41052 0.25932,-3.72824 0.2593,-3.72826 3.03514,-3.21589 3.03514,-3.21591 -1.65977,-3.53435 c -0.91289,-1.94389 -2.99845,-7.6788 -4.63461,-12.74426 l -2.97484,-9.2099 -6.62361,-8.38963 -6.6236,-8.38964 2.69903,-4.34704 c 1.48447,-2.39088 3.59457,-5.08686 4.68912,-5.99108 l 1.99007,-1.64402 -0.8684,-5.11644 -0.86841,-5.11643 -2.41894,-3.94854 c -1.33041,-2.1717 -2.4211,-4.82149 -2.42374,-5.88843 -0.003,-1.06693 -1.12515,-4.0206 -2.49447,-6.56369 -1.3693,-2.54309 -4.98766,-7.19979 -8.04079,-10.34822 -3.05312,-3.14844 -8.51577,-8.84347 -12.13922,-12.65563 l -6.58808,-6.9312 -10.13677,-5.05299 -10.13676,-5.05299 -6.05722,-6.28628 c -3.33148,-3.45746 -7.93071,-7.66215 -10.22053,-9.34375 l -4.16331,-3.05747 h -3.65 -3.65002 l -0.83243,2.15931 -0.83244,2.15932 2.43114,1.36237 c 1.33714,0.74929 4.10459,2.96145 6.14989,4.9159 l 3.71875,3.55353 -1.57407,1.88791 -1.57405,1.8879 1.61626,3.88406 1.61625,3.88405 -0.70624,0.70299 -0.70625,0.70301 -2.76548,-1.47323 -2.76546,-1.47324 -1.84756,1.52628 -1.84755,1.52629 v 4.32533 4.32534 h -0.97706 c -0.53738,0 -1.72253,-1.1882 -2.63367,-2.64047 l -1.65661,-2.64045 -3.46623,0.39938 -3.46622,0.3994 -3.01988,5.75596 -3.01989,5.75598 0.79701,4.96123 0.79699,4.96123 -2.29106,-0.96558 c -1.26009,-0.53107 -3.44895,-1.03174 -4.86413,-1.11261 l -2.57305,-0.14704 -0.40709,3.52168 -0.40708,3.52168 h -2.2469 -2.24691 l -3.4227,3.55612 -3.42272,3.55611 0.77395,4.74736 0.77395,4.74736 1.76479,1.45791 1.76481,1.45792 v 3.54803 3.54801 l -1.92979,0.73713 -1.92979,0.73712 v 1.99281 1.9928 l 3.21632,1.21722 3.21631,1.21722 v 1.84787 c 0,1.01634 -0.3514,2.75943 -0.78091,3.87353 l -0.7809,2.02566 h -4.11282 -4.11284 l -3.95757,-4.16199 c -2.17666,-2.28909 -4.63501,-5.47471 -5.46299,-7.07915 l -1.50541,-2.91717 -4.16546,0.27924 -4.16547,0.27925 -1.40818,-0.86631 -1.40819,-0.86631 -3.36752,2.63673 -3.36754,2.63671 v 1.762 1.76199 l -2.89469,3.02473 -2.89468,3.02474 -5.14611,-0.23827 c -2.83036,-0.13106 -7.02765,-0.88622 -9.32732,-1.67815 -2.29966,-0.79193 -6.06275,-2.10492 -8.36242,-2.91776 l -4.18121,-1.47789 -3.85958,0.13941 c -2.12277,0.0767 -5.16219,-0.13366 -6.75427,-0.46743 l -2.89468,-0.60683 v -2.70177 -2.70177 l -4.50031,-5.27765 c -2.47517,-2.90272 -5.22512,-5.98779 -6.11101,-6.85571 -0.88587,-0.86792 -2.97764,-2.88488 -4.64836,-4.48214 -1.67072,-1.59725 -7.10685,-8.09057 -12.08029,-14.42959 -4.97344,-6.33903 -9.83006,-11.98635 -10.79249,-12.5496 l -1.74987,-1.02409 v -2.89313 -2.89313 l -1.64341,-2.23716 -1.6434,-2.23715 -2.53782,-0.47085 c -1.39579,-0.25897 -2.78345,-0.51495 -3.08368,-0.56884 -0.30025,-0.0539 0.76529,-1.48726 2.36785,-3.18526 l 2.91375,-3.08729 -0.48848,-2.35531 -0.4885,-2.35531 -3.56871,0.25215 -3.56871,0.25216 0.41352,-2.17308 0.4135,-2.17307 4.81379,-0.39746 4.81377,-0.39745 v -5.55541 -5.55541 l -3.88449,-7.35057 -3.88449,-7.35058 0.81135,-4.30497 0.81135,-4.30496 h -1.1724 c -0.64482,0 -1.90318,0.72034 -2.79635,1.60076 l -1.62396,1.60077 -1.27033,-2.24107 -1.27033,-2.24107 h -2.50913 -2.50912 v 1.83372 1.8337 l -3.62886,2.5721 -1.62886,6.07209 -1.60052,-4.4058 -1.60053,-4.40581 h -1.75982 -1.75981 l -0.826,2.59051 c -0.4543,1.42478 -0.66431,4.45852 -0.4667,6.74165 l 0.35929,4.15114 -0.98245,1.58232 c -0.54034,-0.62972 -1.38678,1.58232 -1.88098,1.58232 h -0.89852 l -0.21509,-6.72321 c -0.11831,-3.69776 -0.20707,-9.02831 -0.19725,-11.84565 0.01,-2.81735 -0.0392,-7.13941 -0.10895,-9.60459 -0.0697,-2.46517 -0.28437,-8.90782 -0.47696,-14.31698 l -0.35017,-9.83484 -2.10773,-2.33097 -2.10772,-2.33097 2.46986,-3.02324 2.46987,-3.02325 v -2.42515 -2.42515 l 3.78158,-11.73363 5.78159,-8.23362 -0.65561,-1.68532 c -0.36061,-0.92692 -2.38339,-2.66699 -4.49508,-3.86682 l -3.83943,-2.18151 v -1.84164 -1.84165 l 3.21632,-0.80353 3.21631,-0.80354 v -1.20633 c 0,-0.66348 1.15429,-2.27676 2.56508,-3.58507 l 2.56508,-2.37874 -0.49597,-17.34568 -0.49596,-17.34569 -1.39684,-2.59803 c -0.76828,-1.42891 -3.19114,-4.10087 -5.38414,-5.93769 l -3.9873,-3.33966 h -5.43336 l -3.93335,-1 -1.32439,-1.3183 -1.3244,-1.31831 -9.73785,-1.08703 c -5.35581,-0.59787 -10.37553,-1.47933 -11.15491,-1.9588 l -1.41707,-0.87176 v -3.51015 -3.51013 l -1.54383,-1.53673 -1.54383,-1.53674 h -2.88309 -2.88309 l -0.72632,-1.16981 c -0.39947,-0.64339 -3.40735,-2.4617 -6.68419,-4.0407 l -5.95787,-2.87089 -2.33777,1.45325 -2.33779,1.45326 -0.81366,-1.31048 -0.81366,-1.31049 1.41978,-1.70287 1.41977,-1.70286 -3.2388,-2.1124 -3.23882,-2.11239 2,-1.4887 c 0,-0.81878 -1.19991,-2.76008 -2.66644,-4.31396 -1.46655,-1.55389 -2.78272,-3.60799 -2.92483,-4.56467 -0.14211,-0.95668 -1.03075,-3.59317 -1.97476,-5.85884 l -1.71638,-4.11939 -2.55231,-0.80635 -2.5523,-0.80635 0.64379,-2.45053 3.14378,-1.95054 -1.8372,-7.99105 c -1.01047,-4.39509 1.76502,-8.35547 1.27885,-9.41197 l -0.88393,-1.92092 2.44354,-9.28433 c -0.031,-5.10639 0.0388,-9.28438 0.1552,-9.28443 0.11639,-7e-5 1.60655,2.4842 3.31145,5.52058 l 3.09983,5.52068 -1.21374,2.70759 -1.21373,2.70758 -0.41653,6.08658 c 1.14593,3.34762 -0.9165,5.13203 -1.9165,7.9098 v 2.32322 l 3.65394,3.2407 c 2.00967,1.7824 2.24385,3.53402 3.57597,4.50361 l 2.42204,1.76289 -1.86422,3.46729 -1.8642,3.4673 3.18576,2.76642 1.18576,2.76642 2.82791,5.74067 2.8279,5.74066 4.50805,2.40972 4.50804,2.40971 4.88038,0.15151 4.88036,0.15151 1.13665,-2.56122 1.13664,-2.56123 8.05491,0.15612 8.0549,0.15612 4.05772,2.01494 4.05771,2.01496 4.55433,1.83042 c 3.32988,0.45673 7.61182,1.4781 9.51545,2.26969 l 3.46114,1.43927 0.61307,2.33358 0.61305,2.33359 3.21763,-0.80386 3.21762,-0.80385 1.38762,2.58086 1.38762,2.58088 -0.77629,2.01369 -0.7763,2.01368 h 1.21767 1.21766 l 1.46546,-3.20153 1.46544,-3.20152 h 1.31411 1.31411 v 3.06451 3.06452 l 2.04589,0.78148 2.04588,0.78147 1.36561,-0.84011 1.3656,-0.84011 1.41298,1.90738 c 0.77715,1.04907 2.7156,2.59807 4.30768,3.44224 l 2.89468,1.53485 v 3.84183 3.84184 l 2.07776,3.15646 2.07775,3.15648 h 2.26427 2.26428 l 0.80408,4.00191 c 0.44224,2.20105 0.80408,7.60537 0.80408,12.00961 v 8.0077 l 2.77317,1.83285 2.77317,1.83285 -2.27324,5.92506 -2.27325,5.92505 -4.89335,1.94893 c -2.69133,1.07191 -5.23737,2.50302 -5.65786,3.18024 l -0.7645,1.23132 2.1626,2.15266 2.1626,2.15266 4.60348,-0.75758 c 2.53193,-0.41666 6.80208,-1.37357 9.48923,-2.12644 l 4.88574,-1.36888 1.19342,-3.12449 1.19342,-3.1245 h 1.87494 1.87493 l 0.73018,2.29002 0.73018,2.29001 -2.29978,4.4332 c -1.26487,2.43826 -3.34116,5.9926 -4.61395,7.89855 l -2.31418,3.46537 0.83008,1.33692 c 0.45655,0.73532 1.55602,1.33694 2.44326,1.33694 h 1.61316 l 3.69771,-3.84184 3.69771,-3.84183 h 2.33236 2.33236 l -4e-5,2.88137 -4e-5,2.88138 -4.50281,3.57627 -4.5028,3.57628 v 1.86632 1.86633 h 2.59674 2.59672 l 6.7306,-3.42733 c 3.70181,-1.88503 6.98145,-3.62346 7.28807,-3.86318 0.30663,-0.23972 -0.12757,-1.11777 -0.9649,-1.95124 -0.83731,-0.83346 -1.52238,-2.48212 -1.52238,-3.66369 v -2.14829 l 1.76672,-1.45951 1.76672,-1.45952 2.09286,0.79943 2.09286,0.7994 v 3.70483 3.70482 h 1.88453 1.88451 l 1.37706,-2.56123 1.37706,-2.56122 h 6.94688 6.94688 l 3.50957,1.3282 3.50957,1.3282 1.39866,-1.43353 1.39866,-1.43352 -4.3003,-3.60858 -4.3003,-3.60857 0.45322,-2.34255 0.45321,-2.34253 3.4632,-1.21234 3.46322,-1.21234 5.12368,1.68318 5.1237,1.6832 5.52088,-1.39491 5.52089,-1.3949 2.06261,1.85805 2.0626,1.85805 h 2.1905 2.19049 l 0.65895,-1.7093 0.65896,-1.70931 -4.51171,-6.67353 -4.51171,-6.67355 -0.83206,-4.41485 -0.83206,-4.41485 0.80937,-3.20995 0.80936,-3.20995 h 4.47834 4.47834 v -3.53013 c 0,-1.94157 -0.56913,-5.50544 -1.26472,-7.9197 l -1.26474,-4.38955 1.77158,-6.75287 1.77156,-6.75287 2.70947,-3.42869 2.70948,-3.42871 v -4.23624 -4.23624 l -2.70014,-4.55534 -2.70012,-4.55534 h -1.23935 c -0.68164,0 -4.1448,0.94597 -7.69593,2.10214 l -6.45657,2.10212 -2.54612,-2.53439 -2.5461,-2.53439 -0.14152,-4.37004 -0.14153,-4.37002 2.02628,-8.32398 c 1.11447,-4.57818 2.61131,-10.0528 3.32632,-12.16581 0.71501,-2.113 2.00823,-6.14693 2.87382,-8.96428 l 1.57379,-5.12244 3.90083,-5.44537 3.90082,-5.44535 4.31343,-2.53329 c 2.37238,-1.39331 4.54399,-3.26496 4.82579,-4.15922 0.28179,-0.89427 0.87354,-3.789 1.315,-6.43274 l 0.80265,-4.8068 2.02722,-1.59626 c 1.11497,-0.87794 3.69357,-3.24196 5.73021,-5.25338 l 3.70301,-3.6571 v -1.7855 -1.78548 h -2.31574 c -1.27367,0 -2.96003,0.64132 -3.74749,1.42516 l -1.43174,1.42515 -1.39862,-0.86043 -1.39862,-0.86041 v -3.09308 -3.09306 l 3.85958,-1.98669 3.85958,-1.98669 0.0234,-2.20818 0.0234,-2.20819 3.83618,-5.6353 c 2.10989,-3.09943 3.8273,-6.26894 3.81646,-7.04336 -0.0108,-0.77444 -0.51232,-2.18174 -1.11441,-3.12736 l -1.09472,-1.7193 2.72257,-4.99334 c 1.49742,-2.74635 3.14191,-4.9981 3.65444,-5.00392 0.51252,-0.006 1.84861,1.7541 2.96909,3.91091 l 2.03724,3.92147 2.12586,-0.40752 2.12586,-0.40753 0.79264,-3.8341 c 0.43595,-2.10876 1.49249,-5.13072 2.34785,-6.71547 0.85534,-1.58476 2.03347,-2.88138 2.61804,-2.88138 h 1.06286 l -0.61178,3.1856 -0.61178,3.1856 1.76737,0.67508 1.76735,0.67509 6.22599,-1.1578 6.22598,-1.15779 3.41069,1.77136 c 1.87588,0.97425 4.69292,1.77491 6.26011,1.77925 l 2.84941,0.008 1.37481,-2.55703 1.37481,-2.55705 5.38688,-2.73554 5.38689,-2.73555 8.40026,-0.63209 8.40026,-0.6321 1.92979,-1.57015 1.92979,-1.57016 5.553,0.19235 5.553,0.19236 3.2243,4.10095 3.22431,4.10095 h 1.67901 c 0.92346,0 2.34652,-0.8006 3.16236,-1.7791 l 1.48335,-1.7791 3.47555,-0.66135 3.47557,-0.66133 3.65377,1.88076 3.65377,1.88074 6.79956,-0.84564 6.79955,-0.84564 4.36484,4.3249 c 2.40064,2.37868 6.64103,6.00166 9.42307,8.05104 l 5.05825,3.72615 11.02334,1.81573 c 6.06283,0.99863 12.6795,1.77205 14.70371,1.71868 l 3.68038,-0.097 3.92343,2.01955 3.92342,2.01956 7.2115,-0.51923 7.21151,-0.51924 4.14513,-3.05054 4.14514,-3.05055 0.80775,0.80403 0.80774,0.80403 0.18044,9.9902 0.18042,9.9902 3.20159,4.25948 3.20158,4.25948 3.67337,-0.73129 3.67338,-0.7313 3.93513,-3.29597 3.93514,-3.29597 2.69097,0.65664 c 1.48005,0.36116 5.87515,1.05368 9.76689,1.53895 l 7.0759,0.8823 1.57168,1.2369 c 0.86443,0.68028 3.75912,1.81907 6.43264,2.53062 2.67351,0.71156 6.59776,1.4275 8.72052,1.59098 l 3.85959,0.29725 0.4449,3.08463 c 0.2447,1.69654 1.03926,3.80498 1.76568,4.6854 l 1.32079,1.60076 h 2.90873 2.90875 l 0.70672,-2.69007 0.70671,-2.69007 1.48521,0.91368 1.4852,0.91369 -0.58712,2.23481 -0.58712,2.23479 1.18223,2.10282 1.18223,2.1028 h 1.83282 1.83283 l 1.99586,-3.84183 c 1.09773,-2.11301 2.47354,-3.84184 3.05738,-3.84184 0.58383,0 3.02944,0.65469 5.4347,1.45485 l 4.37319,1.45487 3.65281,3.34743 c 2.00904,1.84109 4.51556,4.99219 5.57004,7.00244 l 1.91724,3.65501 -0.8663,6.26973 -0.86629,6.26974 h -3.24558 -3.24556 l 0.93123,3.52168 c 0.51218,1.93692 -0.98613,3.32678 -0.88512,6.14412 l -0.31636,8.62245 2.45875,3.06122 c 0.80232,1.40868 3.37109,3.65446 3.87506,6.82398 l 0.91629,5.76275 1.90828,2.99146 1.90828,2.99144 -0.41031,16.32875 c 1.97434,7.60579 7.94829,11.90626 8.38657,12.61215 l 0.79686,1.28343 -2.11809,1.74585 -2.11808,1.74587 -9.76812,0.2309 c -5.37248,0.12698 -11.78648,0.41512 -14.25334,0.6403 l -4.48523,0.40941 -0.48141,2.48822 -0.48139,2.48822 -3.07417,2.40702 -3.07417,2.40702 v 3.10859 3.10858 h -6.43263 -6.43264 v 1.23556 c 0,0.67955 1.22546,1.88837 2.72323,2.68627 l 2.72323,1.45073 12.89707,0.27906 12.89706,0.27906 2.39107,2.93928 2.39109,2.93929 v 2.41934 2.41936 h 1.20828 c 0.66456,0 3.88392,2.3051 7.15415,5.12244 l 5.94586,5.12245 h 3.20196 3.20196 l 3.78307,1.94731 3.78307,1.9473 2.49164,4.86157 c 1.37041,2.67386 3.34143,5.56359 4.38005,6.4216 1.03862,0.85802 2.38354,1.47156 2.98871,1.36345 0.60517,-0.10812 1.86998,-0.12834 2.8107,-0.0449 l 1.71038,0.15165 -0.84578,3.83308 -0.84577,3.83308 2.60146,3.29202 2.60146,3.29201 -0.71484,1.85424 -0.71482,1.85425 3.43874,7.22932 3.43873,7.22932 -0.8147,4.79992 -0.81469,4.79993 2.10904,6.18345 2.10904,6.18347 -0.67201,3.86278 -0.67202,3.86278 1.10661,5.71948 1.10661,5.71948 -1.61765,2.2989 -1.61765,2.29891 0.61781,6.70865 c 0.33982,3.68976 1.14297,7.71713 1.7848,8.94972 l 1.16699,2.24107 h 1.8086 c 0.99473,0 2.20603,0.64011 2.6918,1.42247 l 0.8832,1.42249 -3.55401,2.82083 -3.554,2.82083 1.4602,2.71586 1.4602,2.71587 v 4.36714 4.36714 l -11.42617,4.22469 c -4.63439,6.44858 -8.17748,15.71744 -8.55706,15.22469 -4.62198,-6 -0.0395,3.90443 -1.15002,5.00985 l -2.01912,3.00985 1.28396,2.38809 c 0.70619,1.31346 1.28398,3.53738 1.28398,4.94205 v 2.55394 l 2.12895,2.11916 2.12895,2.11916 0.58168,6.02583 0.58168,6.02582 -1.84648,1.52541 c -1.01557,0.83896 -4.11383,1.99432 -6.88504,2.56744 l -5.03856,1.04205 -0.46687,2.5053 c -0.25678,1.37792 -1.0544,3.22565 -1.77249,4.10607 l -1.30562,1.60077 h -2.82722 -2.8272 l -5.51778,4.70129 -5.51778,4.70129 -2.36255,5.48629 -2.36257,5.4863 -0.85825,8.06112 -0.85826,8.06113 -1.77957,2.82777 -1.77956,2.82777 0.31599,2.84295 0.31601,2.84293 -3.21632,0.92484 c -1.76897,0.50867 -5.37245,0.98231 -8.00775,1.05251 l -4.79144,0.12765 -1.8871,3.63247 -1.88709,3.63247 1.85405,3.55728 c 1.01974,1.95651 1.85407,4.53987 1.85407,5.74083 v 2.18356 l -4.84385,6.31418 c -2.66413,3.47281 -6.82321,8.47523 -9.24241,11.11649 l -4.39856,4.80229 h -2.90367 -2.90367 l -0.79357,1.27813 c -0.43647,0.70296 -4.08898,2.7457 -8.11672,4.53943 -4.02773,1.79372 -10.01369,4.67622 -13.30213,6.40554 -3.28844,1.72933 -6.71648,3.14424 -7.61785,3.14424 -0.90138,0 -2.55287,0.761 -3.66998,1.69112 -1.1171,0.93012 -4.34684,2.3667 -7.1772,3.19237 l -5.1461,1.50124 -1.51868,-2.03471 -1.51868,-2.03472 -7.48701,0.32495 -7.48701,0.32494 -2.12669,-0.93166 -2.12669,-0.93166 -5.4538,2.76953 -5.45378,2.76953 -2.96879,-1.58154 -2.96877,-1.58155 -3.97541,1.6391 -3.97539,1.63909 -1.75578,2.49519 -1.75578,2.49521 -2.61125,-1.39108 c -1.43619,-0.76508 -3.74101,-1.39107 -5.12182,-1.39107 -1.38082,0 -4.16882,0.86086 -6.19558,1.91303 l -3.68501,1.91302 z m -347.257,-329.59367 c -1.11927,0.42752 -2.09542,0.57158 -2.16926,0.32015 -0.0738,-0.25145 -0.26822,-2.56473 -0.43201,-5.14066 l -0.29778,-4.68349 -2.2118,-2.20162 -2.21179,-2.20162 0.39239,-3.35979 0.39239,-3.35977 -4.18121,-0.40129 -4.18122,-0.40129 v -2.48009 -2.48008 h -1.129 c -0.62094,0 -1.89953,0.92418 -2.84131,2.05372 l -1.7123,2.05371 -5.05486,-0.67488 -5.05486,-0.67487 -1.9639,-1.95488 -1.96389,-1.95486 1.51977,-1.82281 1.51977,-1.8228 12.50892,0.49798 12.50891,0.49796 7.31078,2.04187 7.31078,2.04188 3.95892,3.85278 3.95892,3.85277 v 3.13377 c 0,1.72358 -0.59931,4.24843 -1.33179,5.6108 -0.73248,1.36236 -1.91228,2.47703 -2.62175,2.47703 h -1.28996 l 0.37033,-3.52168 0.37032,-3.52168 -3.61574,-0.41269 -3.61575,-0.41269 -1.70952,1.41226 -1.70953,1.41225 -0.62671,3.26336 -0.62671,3.26335 1.77078,0.67639 1.77076,0.67638 v 1.7839 c 0,0.98114 -0.24213,1.78391 -0.53804,1.78391 -0.29593,0 -1.4538,0.34978 -2.57305,0.77732 z m 143.2874,-7.96099 h -2.23246 l -2.04344,-7.15018 -4.54344,-7.65018 -6.34446,-6.21646 -6.34445,-6.21644 -1.37744,-3.93313 -1.37742,-3.93312 3.07904,-2.00819 3.07904,-2.00818 2.96906,0.41892 2.96907,0.41892 0.41111,2.88138 0.41111,2.88137 h 2.40765 2.40765 l 0.84416,1.3596 c 0.46429,0.74779 2.23836,1.88725 3.94238,2.53213 l 3.09823,1.17253 2.11523,4.4153 2.11524,4.4153 -0.42671,9.56022 -2.9267,9.06021 z M 269.24131,455.29419 h -1.71536 l 0.85767,-0.85375 0.85769,-0.85373 0.85769,0.85373 0.85768,0.85375 z m 327.89354,358.4701 -2.46583,0.1011 0.77727,-0.7737 0.77728,-0.7737 1.68856,0.6726 1.68857,0.67261 z M 260.87889,448.89113 c -0.3538,0 -0.64326,-0.28814 -0.64326,-0.64031 0,-0.35216 0.28946,-0.6403 0.64326,-0.6403 0.35379,0 0.64326,0.28814 0.64326,0.6403 0,0.35217 -0.28947,0.64031 -0.64326,0.64031 z m 254.39157,341.63429 c -1.09589,0.20764 -2.39849,-0.0266 -2.89468,-0.52051 l -0.90217,-0.898 0.0463,-5.86948 0.0463,-5.86946 3.19278,3.84183 3.19277,3.84184 -0.34436,2.54813 -0.34436,2.54815 z m -137.2428,-8.17531 c -0.58331,0 -1.47264,-0.66371 -1.9763,-1.47488 l -0.91574,-1.4749 2.35405,-1.7134 c 1.29474,-0.94238 2.5181,-1.55013 2.71859,-1.35057 0.20048,0.19957 0.0305,1.6343 -0.37777,3.1883 l -0.74228,2.82545 z m 2.64717,-10.24489 h -1.71537 l 0.85768,-0.85375 0.85769,-0.85373 0.85769,0.85373 0.85767,0.85375 z m -6.46193,-7.68367 c -0.60796,0 -1.34897,-0.43221 -1.64669,-0.96046 -0.29773,-0.52825 -0.92186,-2.54522 -1.38696,-4.48214 l -0.84565,-3.52168 h 2.50566 2.50567 l 2.02169,2.01239 c 1.11193,1.1068 2.02168,2.77398 2.02168,3.70482 v 1.69243 l -2.03501,0.77732 c -1.11925,0.42753 -2.53243,0.77732 -3.14039,0.77732 z m -53.59573,-70.93739 -0.90836,1.63655 -0.89363,-0.88952 -0.89364,-0.88953 v -7.55443 -7.55441 l 1.35108,-2.51291 1.35108,-2.5129 1.35492,0.83353 5.35492,0.83355 -4.90401,8.48676 c 3.5028,5.66772 -1.31277,9.2232 -1.81236,10.12331 z m 105.63916,-92.74891 c -0.32295,0.32149 -2.12292,-0.61793 -3.99993,-2.0876 l -3.41271,-2.6721 v -1.82797 -1.82797 h 1.19892 c 0.6594,0 2.45938,1.76201 3.99993,3.91557 1.54055,2.15356 2.53676,4.17859 2.21379,4.50007 z m -89.03116,-10.97686 c -1.01963,0 -2.23547,-0.61462 -2.70189,-1.36581 l -0.84801,-1.36581 0.7166,-0.71331 0.7166,-0.71332 1.98528,0.75833 1.98528,0.75831 v 1.32081 1.3208 z m 111.20863,-1.28061 c -0.70759,0 -1.28652,-0.57628 -1.28652,-1.28061 0,-0.70434 0.57893,-1.28061 1.28652,-1.28061 0.70759,0 1.28653,0.57627 1.28653,1.28061 0,0.70433 -0.57894,1.28061 -1.28653,1.28061 z m -156.93528,-12.17872 -1.30751,0.80437 v -1.99649 c 0,-1.09807 0.2553,-1.9965 0.56733,-1.9965 0.31204,0 0.90042,0.53646 1.30751,1.19212 l 0.74018,1.19212 z M 238,470.5 l 0.5,-3.5 3.5,-7 2,4 z m 5,-24 -3,4 2.5,8 V 452 l 2,-3 z m 21.5,80.5 13.5,14 5,-1 h -0.5 l -1.5,-4 -8,-6.5 -3.5,-3.5 z m 0,-77 -6,-3 3.5,-5 5.5,4.5 z m -20.5,-21.5 1,-4.5 -4.5,3.5 z M 289,365 c -5,6 -3,8.5 -3,8.5 l 6,-7 z m 41.5,232.5 5.5,0.5 2,-5.5 -8,0.5 z M 898,698 l 1,-10 7,2 h -10 z m -621,-208 6,12 4,-8 z m 271,-111 -1,6 5,-1 z m -246,190 -7,1 3,10 z"
       style="fill:#000000;fill-opacity:1;fill-rule:nonzero;stroke:#000000;stroke-width:1px;stroke-opacity:1"
       id="Antarctique" />
  </g>
</svg>
