<?xml version="1.0" encoding="UTF-8" standalone="no"?>
<svg
   id="svg2"
   viewBox="0 0 1024 1024"
   version="1.1"
   sodipodi:docname="vector.svg"
   width="1024"
   height="1024"
   inkscape:version="1.1.2 (b8e25be8, 2022-02-05)"
   xmlns:inkscape="http://www.inkscape.org/namespaces/inkscape"
   xmlns:sodipodi="http://sodipodi.sourceforge.net/DTD/sodipodi-0.dtd"
   xmlns="http://www.w3.org/2000/svg"
   xmlns:svg="http://www.w3.org/2000/svg"
   xmlns:rdf="http://www.w3.org/1999/02/22-rdf-syntax-ns#"
   xmlns:cc="http://creativecommons.org/ns#"
   xmlns:dc="http://purl.org/dc/elements/1.1/">
  <sodipodi:namedview
     id="namedview17"
     pagecolor="#ffffff"
     bordercolor="#666666"
     borderopacity="1.0"
     inkscape:pageshadow="2"
     inkscape:pageopacity="0.0"
     inkscape:pagecheckerboard="0"
     showgrid="false"
     inkscape:zoom="0.57619921"
     inkscape:cx="318.46625"
     inkscape:cy="473.79447"
     inkscape:window-width="1512"
     inkscape:window-height="872"
     inkscape:window-x="0"
     inkscape:window-y="38"
     inkscape:window-maximized="1"
     inkscape:current-layer="svg2" />
  <defs
     id="defs11">
    <style
       id="style9">.cls-1{fill:#b9b9b9;stroke:#fff;stroke-linecap:round;stroke-width:0.6px;}</style>
  </defs>
  <title
     id="title13">Nouvelle Calédonie</title>
  <path
     id="path5868"
     class="cls-1"
     d="m 128.83999,340.02079 c 0.14275,2.13591 -1.171,-1.73234 0,0 z m 38.57514,-22.40127 c -0.68156,-1.10874 1.06795,-0.91125 0,-0.001 z m -8.89246,1.38029 c 0.59247,1.79889 0.16743,-1.56919 -0.9295,-1.69155 -0.322,-0.71161 -2.8282,-0.75777 -0.83397,-1.11411 2.7799,-0.63755 1.66687,3.60851 3.93479,3.60314 1.02395,-1.08513 3.1824,-2.108 3.98524,-1.07332 1.26652,-0.68371 1.00678,2.08868 2.1928,0.40786 -2.1767,-0.161 2.52337,-3.14161 2.20782,-0.0912 -0.66976,1.32233 0.66438,3.72227 1.46401,3.40242 -1.47153,-1.51874 -0.8007,-3.53444 -0.38103,-5.29039 -0.12021,-0.65902 0.20178,-3.118 -0.85866,-1.55846 -0.78996,-1.93198 1.95881,-1.68512 1.6776,0.19105 -0.34454,1.97705 0.98853,0.2694 0.45938,-0.83397 -1.71731,-2.16489 -0.84363,-4.86215 -1.62286,-7.30824 -0.26296,-0.77816 -1.75273,-2.3699 0.22111,-1.88583 1.88367,0.67727 3.97128,-0.26189 5.71006,1.04542 1.30516,0.72341 3.28436,0.73307 3.99168,1.65613 0.76528,-0.77708 1.9953,-0.12128 0.31126,-0.8769 -0.82109,-1.96955 2.75522,-0.0751 3.33374,0.69873 1.44898,0.53666 0.0569,2.53948 1.95022,2.33554 0.80821,2.12947 3.13088,1.51875 4.80955,2.09083 1.95666,-0.28228 4.33299,-0.20715 5.58878,1.56276 0.65365,1.07332 0.87798,2.29905 2.46864,1.72912 2.24324,0.71376 4.73656,1.0819 6.43992,2.84322 1.36848,1.21393 3.27792,3.08687 5.21204,1.90622 1.51124,-0.29516 1.90407,0.88978 1.698,1.87938 0.3821,-1.26866 2.94304,-0.63433 1.85255,0.0945 0.77064,0.73522 1.18065,0.96599 1.35346,0 2.21104,0.71805 3.47219,2.7273 5.23887,4.15482 0.98746,2.12303 3.15664,3.35198 5.29147,4.3169 a 17.133416,17.133416 0 0 0 4.50151,4.92868 c 0.85222,1.80104 3.84356,0.83934 4.10008,2.79064 -1.64218,-0.71161 -2.38706,2.22177 -1.89226,2.37526 1.76454,0.65901 0.35849,3.8457 2.05112,5.03387 a 13.631171,13.631171 0 0 0 5.44924,2.02321 c 1.44684,0.98423 1.51875,3.07506 3.77273,2.79707 1.0658,1.23647 3.34339,-0.45616 3.66109,1.7742 1.58315,1.85255 3.86396,2.79063 4.63889,5.21741 a 44.850845,44.850845 0 0 0 5.12618,2.75522 c 0.88979,1.75487 2.97954,1.57992 4.53693,2.24216 2.74233,0.51412 5.5115,1.43932 7.23418,3.8221 2.31837,0.93593 3.18561,3.07613 3.65788,5.27966 1.81713,1.25471 2.52445,3.21996 4.19131,4.61528 a 7.942572,7.942572 0 0 1 3.51727,4.84497 c 0.48836,2.02535 3.39277,1.19138 4.33515,2.84966 1.00784,1.73878 1.72589,4.16556 2.70047,5.57483 0.82109,1.47796 2.02106,2.82283 2.93768,4.32012 0.12021,1.83323 2.34735,2.45897 2.3613,4.20527 -0.5753,0.58496 -3.26611,2.67686 -1.23432,1.78493 0.96599,-2.87757 2.79064,0.088 4.36627,0.10196 1.92554,-2.03931 3.69223,1.15597 5.74334,1.4082 a 30.443664,30.443664 0 0 0 4.57879,2.74126 c 2.08116,1.37814 2.97524,3.66324 4.86643,5.27537 1.70336,1.2472 -1.71731,2.26685 -2.60495,2.63071 1.16778,-0.42933 2.84108,0.22969 4.25035,0.64399 a 1.8385981,1.8385981 0 0 1 0.61501,2.05219 c 1.60355,-0.0944 1.2955,-2.19065 2.91944,-2.48044 a 3.7405221,3.7405221 0 0 1 4.64747,1.29657 c 1.6658,0.14382 2.78312,1.77527 4.21279,2.57597 1.8343,0.84041 3.3713,2.35164 5.02958,3.3026 1.85255,0.65473 2.71121,2.32374 4.08828,3.54196 2.30119,-0.41537 3.62353,2.02107 5.56838,2.87972 1.88905,1.03361 4.09794,1.16455 6.09861,1.93198 2.108,0.51412 4.07862,2.25397 6.26605,2.08975 1.77634,0.13417 3.56449,-0.2694 5.31615,-0.0644 1.88797,0.61394 3.8704,0.72772 5.78091,1.21178 0,0.44865 -0.59355,2.84967 1.2268,1.97599 1.54558,0.54739 0.50768,-0.12129 0.85329,-1.21286 1.7581,0.9134 4.83746,-1.12484 6.62883,0.82539 0.73308,1.56168 1.01751,0.65902 2.16811,0.23076 1.62286,1.03683 0.11592,4.40706 2.72408,3.22855 1.33736,-0.0944 1.98672,-2.78312 3.27471,-0.75132 0.37566,2.52874 3.67397,2.20352 3.74374,4.75803 0.55705,2.01354 0.86939,4.787 -1.85148,4.97913 1.90514,1.45006 1.32233,4.74193 0.56242,6.35406 -2.57597,0.89837 1.05937,2.27651 1.36097,3.74052 1.76991,1.60998 -3.56235,0.93164 -1.13128,2.11015 1.75166,-1.13128 3.21996,0.92413 4.02495,2.0114 1.56598,0.13631 0.63541,1.94271 2.08868,2.26041 -0.39176,1.23432 2.2046,0.59462 2.87865,1.63145 1.84504,0.64399 -0.40142,3.43463 2.00818,3.87791 2.59207,1.1141 1.94057,4.85892 4.91259,5.40202 1.40712,1.71731 3.56664,0.14919 5.39022,0.8812 1.71731,0.91768 3.7652,-0.71698 5.70362,-0.25009 2.25397,0.61931 4.93728,-0.0762 6.73723,1.71087 a 2.6736415,2.6736415 0 0 1 0.39499,4.86751 c 0.36171,2.36131 -1.71732,3.85 -1.98028,5.98484 -0.25867,1.77634 1.01321,3.37345 1.16885,4.94801 -1.16026,1.86006 -4.70759,-0.25975 -5.07681,1.52733 1.43288,-0.0902 2.55236,-0.0376 2.96129,1.60998 2.79063,1.40498 0.15456,4.62279 1.48333,6.39914 0.13739,1.9674 1.21715,2.94412 2.70369,3.98846 a 4.9297613,4.9297613 0 0 0 3.11263,4.40061 c 1.04649,0.26941 2.05327,1.68082 0.77172,2.30013 1.93198,-0.51627 2.5706,1.07332 3.45073,2.24109 2.40746,0.87798 5.72831,0.7685 7.2492,3.07507 1.01644,0.66867 1.23003,2.79922 1.34273,3.03105 1.947,-1.18065 0.90803,2.55773 2.92587,1.46187 2.23358,-1.03254 4.81706,-0.63756 7.24491,-0.55706 1.41249,0.10197 4.29973,2.28403 1.5853,3.05253 -1.3277,0.37458 -2.08868,2.40101 -0.21467,2.06828 2.12196,-2.79063 5.7047,-0.98101 6.82525,1.73234 1.3234,1.14416 2.3774,2.61783 4.09794,3.04501 1.91695,1.14416 4.85785,1.16241 4.67753,4.07862 1.90944,1.19783 2.10263,5.15194 -0.85866,4.35768 -2.3495,-0.0301 -4.01744,-1.65398 -6.2156,-2.80244 -2.22821,-0.43576 -3.47434,-2.08438 -5.27751,-3.18239 -2.43,-1.44254 -1.49192,3.42389 0.64399,2.84644 2.46863,1.73986 4.60562,4.03032 7.4306,5.25927 2.6833,1.08621 2.18098,4.67002 4.52404,6.1995 0.43577,1.65399 1.62394,2.99242 2.31193,4.58416 0.65473,-1.13772 0.0665,1.73341 1.34595,1.63037 1.25471,-1.08942 3.51727,-0.0193 4.53478,1.60998 2.20782,0.4143 3.96162,2.33984 6.38196,2.31086 a 5.903263,5.903263 0 0 1 6.43992,2.14127 c 0.94345,2.29047 3.36808,2.25398 5.07466,0.91233 1.81499,-1.78171 3.52694,-0.0676 5.74656,-0.20608 2.04575,0.96599 3.27256,3.34876 4.9845,4.89756 1.29443,1.50265 2.60281,3.21996 2.34521,5.19487 0.19642,2.33877 4.57234,-0.0944 3.73623,2.05219 -1.58959,0.87261 -0.91233,2.46005 0.77386,1.55954 1.62608,-0.0816 2.53304,-1.12377 3.72764,-0.009 2.81747,0.78782 0.10734,2.27973 -0.90159,3.03857 0.0204,1.29335 1.74415,2.11659 -0.34668,2.46005 -0.74059,1.0422 1.4887,2.12196 0.15027,3.40135 0.3016,1.09694 0.88656,-0.28335 1.0862,-0.39605 -1.4887,-1.4361 1.60998,-0.9456 1.35238,0.58066 a 6.4399233,6.4399233 0 0 0 2.09405,4.84497 c 0.44757,1.11948 2.6833,1.95774 2.5384,0.21467 -1.46293,-1.33199 -1.62178,-3.05789 -2.59851,-4.538 -0.23505,-1.5166 -2.81961,-2.34413 -0.20607,-2.96881 0.18568,-1.98779 1.41785,-3.3552 3.6246,-2.82068 2.60709,-0.31341 1.99101,3.08794 3.09653,4.4854 0.14812,1.742 4.35017,1.87832 1.71731,0.34454 -1.10659,-1.49514 -0.35205,-2.56416 0.81036,-3.49688 a 6.4077236,6.4077236 0 0 0 -2.1767,-5.13154 c 2.11981,-1.18066 2.89797,1.40175 4.29329,2.40316 a 28.073772,28.073772 0 0 0 3.20493,5.74227 c 1.25579,1.6293 2.51909,3.13839 1.73663,5.22707 2.7037,0.23505 3.97129,3.07613 5.53619,4.87287 1.13343,1.35775 3.18991,2.86899 2.16382,4.82994 -0.644,1.08942 1.19138,4.00349 -1.21071,2.85718 -1.28798,-0.48406 -1.97169,-2.37418 -3.7051,-1.0658 -2.80995,0.27477 -0.24901,3.12229 1.27296,1.3717 0.47011,2.22285 3.19205,3.0858 5.08968,3.99275 1.21822,1.49192 4.04213,2.12947 4.61528,3.42175 -0.79855,1.50265 -2.21533,1.90622 -3.11263,0.35634 -0.82324,0.53666 1.82465,3.36593 2.59529,0.98209 1.82465,-1.8547 2.50406,0.82538 2.85933,2.06614 1.29549,-0.28443 0.66438,-2.43966 1.59602,-3.31549 -2.57597,-0.76527 0.7685,-3.32729 -1.7538,-4.14731 -1.25793,0.10734 -3.60958,-2.00281 -1.38566,-2.33876 2.21748,1.39531 0.73952,-2.84645 -0.87905,-1.3116 -1.11196,1.09371 -2.39672,-0.24901 -0.90695,-1.19997 0.0612,-1.38673 -3.18347,-0.39176 -1.18066,-2.09727 1.20642,-1.77527 -0.82001,-3.43463 -0.95633,-4.9845 -1.51874,-0.95096 -2.59314,-3.70188 -1.41893,-5.17663 1.25364,-1.77205 3.06648,0.71376 4.40921,1.14094 0.6075,1.44791 1.59495,3.69974 3.52907,3.26826 0.36815,0.75133 -0.37888,2.20353 1.01107,2.77991 1.09801,0.86616 3.07292,0.48192 2.63608,2.50298 0.5549,1.73448 2.18206,0.68048 3.03535,0.95096 -0.97243,1.34487 0.65687,1.95666 1.51445,1.09049 0.98209,0.87476 2.1402,-0.0751 1.71732,1.63682 1.10444,0.72449 2.57596,-1.35131 3.42067,0.67619 1.14094,-0.81358 2.72731,0.14275 0.99389,1.11625 -1.0218,1.2032 -4.65821,1.56705 -2.93124,3.68686 1.62072,0.0429 3.92621,-0.7642 4.16234,1.38888 1.38888,-0.45831 1.64004,0.40142 0.69337,1.42215 -0.26619,1.54772 -0.45402,2.81961 1.07332,3.84248 0.87905,1.04971 0.53666,3.70081 -1.39532,3.19313 -0.75132,1.02395 2.05648,0.52056 2.7316,0.61394 a 2.6618349,2.6618349 0 0 0 3.11263,-3.31549 c 0.7202,-2.313 3.64929,0.56672 5.3666,-0.46796 2.1724,-0.322 3.01389,2.07365 4.1559,3.41316 1.93198,2.64036 5.38056,3.56664 7.20413,6.32507 a 10.670953,10.670953 0 0 0 5.48789,4.13336 c 2.97417,0.44114 4.53263,3.33373 6.14154,5.54156 0.87475,0.71268 4.50794,2.11658 1.50264,2.36774 -1.59924,-0.56671 -1.98993,3.01281 -0.44542,0.97672 0.69122,-1.09049 2.16918,0.91018 1.70121,-1.06151 2.06292,-0.36278 2.04897,2.60709 4.35017,2.07902 1.8987,0.70839 3.36378,2.10049 5.3022,2.71013 2.05863,0.87476 3.29617,2.89797 5.72509,2.99994 a 14.929889,14.929889 0 0 0 5.10579,2.0232 c 1.41034,0.41645 1.52948,-2.79063 2.79707,-0.87475 1.68726,0.0751 2.32589,2.35486 4.27933,1.77205 1.69263,0.50124 2.2046,3.60528 -0.1932,2.69833 -1.79888,1.46723 -3.44428,-2.6833 -5.3666,-0.80607 0.52915,1.20212 1.96954,1.86436 2.26256,3.29832 1.89334,0.57959 0.10733,3.32193 2.48366,2.65861 2.37634,0.93809 3.77809,3.62783 6.28108,4.16985 2.30012,-0.19856 4.99201,2.12733 6.81773,-0.28765 0.76635,1.78923 3.99168,3.15879 3.21996,5.38378 2.10693,-1.04219 0.0118,2.56738 2.44288,1.77742 2.51264,-0.22218 3.50546,2.57597 5.62312,3.17488 a 6.633121,6.633121 0 0 1 3.16737,3.97129 4.3748545,4.3748545 0 0 0 1.00785,2.59958 c -0.1889,0.94881 -1.47581,0.53666 -1.02287,-0.15563 -1.32555,-0.28229 -0.0666,0.93915 -0.4465,1.71731 1.99959,0.80499 2.2368,3.06326 4.02387,3.93157 1.9674,0.4948 2.71014,3.12659 4.92869,3.13303 -1.7377,1.95237 1.75595,2.74555 3.0375,3.33695 0.80928,2.09727 3.09224,2.93982 4.65392,4.52834 1.95881,1.43825 2.29154,3.81029 3.4196,5.82276 1.02502,1.3116 0.75132,1.90515 -0.24794,2.96451 1.37385,-2.05862 2.8121,0.39391 4.11833,1.27618 1.90085,0.95311 4.26001,0.89623 5.2904,3.17381 1.87294,0.98746 3.95518,2.02321 3.29724,4.56269 0.58388,2.2969 2.69403,-0.28658 3.78453,1.27832 1.60139,0.23184 3.12014,0.53666 1.31696,1.92125 0.65687,2.02964 3.90689,0.93164 4.95767,2.91728 1.66686,0.97887 2.79063,-0.29302 1.23754,-1.60354 0.0118,-1.07869 -0.80929,-3.65573 1.40927,-2.75199 2.06292,0.83826 2.3012,3.76628 4.78057,3.86932 a 16.404631,16.404631 0 0 1 4.95552,3.93264 c 1.4522,1.85255 -2.09083,1.30194 -3.0053,1.92017 -2.064,-1.64754 -1.74737,3.86396 -3.61924,3.17918 -1.58529,-0.24257 -3.90152,-2.76917 -2.8078,0.4626 0.36385,0.47655 1.28047,-0.52593 1.6293,0.78567 1.69692,2.43215 3.38847,-1.2268 5.47393,-0.37459 2.52767,-0.50231 4.95016,0.34883 7.25565,1.25257 1.07332,0.54954 3.18239,1.88582 3.28221,-0.28443 2.43,-0.22647 0.26082,3.29509 0.41108,4.61528 0.0837,1.07332 -1.25256,3.68685 0.5474,1.75058 1.86114,-0.87476 3.41101,0.94989 5.30757,0.58711 a 26.038756,26.038756 0 0 1 5.91614,1.55309 c 1.60461,1.56598 3.93694,0.75133 5.90326,1.46294 2.25398,1.23002 5.58127,-0.70625 7.15046,1.98349 1.26438,1.72268 4.26967,1.41786 4.57128,3.94446 1.16026,1.87724 3.32085,2.33984 4.40061,4.34051 1.97384,0.34775 2.59636,2.62963 4.71081,2.94733 a 3.5505444,3.5505444 0 0 0 2.81746,2.87865 c 1.59496,1.34702 1.12484,3.88542 1.62823,5.64781 -1.33521,1.43611 -0.67727,3.30261 -0.75991,5.05534 0.366,2.25398 -2.37633,2.73804 -3.89723,3.44321 1.12591,1.64218 4.8439,-1.10444 5.64567,1.60462 1.36526,2.07902 3.97128,3.20601 4.77842,5.59093 0.13095,2.83249 3.32729,3.37881 3.87683,5.87857 1.15168,1.91051 1.98994,4.25894 4.36413,4.91581 0.99174,1.23647 2.64036,1.38029 3.41101,2.89045 2.71013,0.9456 -0.69444,3.78024 -1.79674,1.42967 -2.28617,-1.5531 -0.88978,2.27758 -1.75059,3.18454 2.66291,0.76313 3.14698,4.6303 1.28799,6.44636 a 13.213649,13.213649 0 0 0 -1.5327,5.9097 c 0.44542,1.85685 -0.89193,3.54196 -1.7742,4.98558 0.50875,1.9631 -2.27115,2.77238 -3.63749,2.19708 -0.88549,-2.62641 -2.50405,0.92843 -2.35593,2.34092 -0.80499,0.4465 -2.21641,-0.89515 -3.11263,-1.28799 -0.41431,-1.36848 -1.50802,-0.75132 -1.11948,0.46582 -1.94378,0.98531 -0.58603,2.1767 0.61609,2.93553 -0.42182,1.57457 -2.62427,2.53089 -3.69544,4.07218 -1.51017,1.67438 -2.85826,4.3652 -5.30865,4.42101 -2.3495,0.44221 -5.22385,-1.18817 -6.71576,-1.50265 0.70839,-2.2647 3.46253,-0.46797 4.32977,-1.88153 0.69981,-0.59247 1.52734,0.17817 1.82465,-1.15704 0.36385,-1.34487 -2.34843,-0.4787 -3.42604,-0.77923 -1.72805,0.31126 -4.45965,0.1449 -2.15952,-1.77742 0.14704,-1.24505 2.80995,-0.10733 1.26437,-1.59173 a 12.643716,12.643716 0 0 0 -3.80707,-4.40062 c -0.75132,-1.01107 -0.90481,-3.00529 -1.16777,-4.49292 -1.1184,0.35205 -2.23144,0.82002 -3.36701,-0.0354 -1.95774,1.93735 0.47548,4.02388 1.1345,5.73798 -1.24183,1.33413 -3.91011,1.07332 -3.33588,-1.26223 0.28014,-2.17562 -2.87543,-2.87113 -2.34199,-5.28932 -0.63003,-1.54666 2.14665,-1.15704 2.50835,-2.7037 1.2354,-1.1345 0.59248,-1.32448 -0.71483,-0.90373 -0.47548,0.20929 -2.43643,-0.84685 -1.1141,0.14704 1.66901,0.76206 0.21466,1.98779 -1.01858,1.35775 a 20.417777,20.417777 0 0 0 -3.70403,4.99202 c 0.4905,0.89944 2.04789,0.0859 1.04219,1.7098 -0.2254,1.74092 -2.6833,1.49406 -2.89797,2.5867 1.91266,0.7803 -0.16207,1.89655 -0.27584,2.60924 2.0919,0.0193 4.52619,0.23935 4.75266,2.67471 0.56672,1.18066 3.6128,3.40136 1.14416,4.05072 -2.53733,0.36493 -2.56952,-2.84645 -4.78057,-2.99349 -1.24183,-1.11411 -4.19453,0.15133 -4.2278,1.66686 -1.43933,1.32341 -3.76199,2.7681 -5.85604,2.01677 -1.23861,-1.4683 -3.30798,-1.76024 -5.18736,-1.56812 -1.78493,0.59033 -3.95089,-1.5166 -3.99705,-3.02676 -0.5109,-2.33233 1.8429,-3.55377 3.16201,-5.04461 0.83719,-0.76098 4.5981,-0.35742 2.4096,-1.80318 -2.21211,-0.9091 -4.52619,1.19353 -6.86925,0.4948 -1.37063,-1.27081 -3.56557,-0.94237 -4.98665,-2.21748 -0.205,-1.82464 0.78031,-3.98953 0.56564,-5.98805 -2.10585,-0.82539 -0.94774,3.20815 -2.41175,3.28543 -1.60998,-0.1728 -3.64929,-0.72342 -2.33554,-2.64788 0.21466,-2.27544 -3.43463,-0.4669 -4.06574,-2.71765 -0.88657,-2.06936 -3.5162,-0.39713 -4.06359,-2.82176 -1.58315,-0.94023 -2.44288,-4.96733 -4.58094,-3.01066 0.18998,2.8722 -3.10082,3.31012 -5.27215,3.75662 -1.8987,0.96599 -3.07399,-0.3338 -3.76735,-1.89226 -2.53626,-0.71484 -3.33588,-3.97129 -6.29825,-3.43463 0.93272,-1.42966 -0.88012,-3.81888 1.34809,-4.11296 1.84719,-1.86436 -0.14382,-2.89797 -1.65076,-3.69759 -1.31804,0.0708 -2.41927,0.88549 -3.80707,-0.0848 -1.30194,-0.0569 -2.74126,0.66439 -2.77239,-1.25471 -0.98316,-2.40209 -2.84215,-0.42933 -4.28577,-0.19212 -0.27477,-1.78171 -4.10437,-2.54592 -2.44931,-0.0773 0.38961,0.98209 3.0493,2.94948 0.56456,1.91802 -1.49513,-0.28443 -2.4096,0.16315 -0.91554,1.42323 1.60998,0.67726 0.88227,2.33661 1.53592,3.37344 -1.49406,-0.94989 -3.37666,0.4143 -4.73871,-0.97565 -2.13054,0.98853 -1.45113,3.27041 -0.0236,4.53264 0.49373,1.50264 -3.3874,3.79311 -2.83249,1.75166 -0.88979,-1.85578 -3.26397,0.43791 -1.79138,1.82464 0.22111,1.59603 -0.48299,2.65539 0.25223,4.07862 -1.03468,2.10907 -2.97631,0.57208 -3.95626,-0.52593 -1.42,0.30482 -1.92446,-0.22647 -1.23217,-1.42859 -1.81928,-0.73093 -0.43577,-1.59173 0.64399,-2.19709 1.70336,-0.94237 -0.63755,-1.71731 -1.42644,-1.51874 -0.30589,-1.37922 3.28114,-1.19676 1.11733,-2.4343 -1.03683,-1.43073 2.3613,-2.79063 -0.23184,-3.0815 -0.16422,-1.84718 3.20923,-1.22358 3.54196,-3.28007 0.88334,-0.48514 2.25397,-0.28335 0.62574,-1.03146 -0.52378,1.31804 -2.69403,1.16563 -3.97128,0.24257 -0.90052,0.59892 -3.60421,-1.59817 -2.591,0.60858 0.12343,1.90192 -2.27866,-0.3864 -2.46863,-1.19998 -1.85578,1.42645 -1.04649,-2.10263 -3.06219,-1.34379 -1.05507,0.0698 -2.2808,-1.80104 -0.40679,-1.35775 1.07332,-1.36097 2.48259,1.96847 3.46254,-0.31449 1.1023,-0.79103 3.61172,1.86865 2.86898,-0.67512 0.17281,-1.52626 1.75059,0.33381 1.6014,1.13665 1.15918,0.96599 0.37888,-1.74093 1.89333,-0.75884 1.75703,0.59892 2.79708,-0.0322 3.64285,-1.58422 0.70195,-1.13128 -1.88045,-1.60139 -2.64788,-2.31837 -2.12625,1.29442 -3.88971,-1.06581 -5.63064,-1.86114 -0.0569,-2.07365 3.97987,0.87261 3.54947,-0.65258 -1.41785,0.81358 -0.76098,-1.43717 -2.28402,-0.78459 -2.06829,-0.18247 -0.33488,-2.27866 0.85865,-1.08942 2.22178,-0.54525 -0.44542,-2.57597 -1.63466,-2.57597 -0.22111,-1.41249 -1.59711,-1.97599 0.0826,-2.70907 -0.87583,-1.01214 -1.96632,2.10264 -2.4944,2.89797 -1.22036,-0.96599 -1.51767,-3.65466 -3.4636,-2.35272 a 5.4556883,5.4556883 0 0 1 -3.74911,-0.72556 c -1.90836,-0.45831 -3.75662,1.74629 -1.63681,2.87542 0.99818,1.45543 1.75595,3.66217 0.12021,4.97592 0.03,2.61139 -3.15234,-0.11807 -0.95418,-1.10016 1.83967,-1.20212 -1.18066,-2.3613 -0.90589,-0.32199 -1.05614,1.18065 -3.49043,1.44039 -1.82464,3.59133 0.28872,2.41175 -3.25968,1.19568 -2.99779,3.62567 -1.16455,-0.53666 -3.7051,-2.48151 -1.98242,-3.43462 2.41497,0.83397 2.91729,-2.02428 2.50621,-3.7695 -0.82324,-1.8547 -3.62568,2.10049 -3.55914,-1.17314 -0.6676,-1.00463 -3.689,-1.71732 -1.04326,-2.26256 1.06151,-1.40391 -2.00282,-2.269 -3.12229,-2.19065 -1.65936,-0.10733 -1.51553,-2.01248 0.1889,-1.28262 0.94667,0.51412 3.09868,0.5592 1.97491,-1.12698 -1.23539,-1.31375 2.23466,-0.5914 2.10264,-2.34092 2.54055,-0.36063 0.0526,-3.94338 -0.7846,-1.60032 -0.24472,2.54377 -3.52586,1.23861 -4.70436,2.16704 -0.37889,2.28617 -2.57597,0.84041 -2.72302,-0.76206 -1.2268,-2.12947 -2.26041,0.20178 -1.04112,1.54129 -0.21466,1.02931 1.31374,2.38277 -0.48621,1.66901 -1.29443,0.34561 -2.51587,0.18354 -3.85108,0.96062 -1.12269,-0.3016 -1.35453,-2.09727 -2.89796,-1.95881 -1.09264,-1.04756 -3.0053,1.80962 -2.58456,-0.85865 0.10733,-2.30872 -3.13624,-2.64252 -4.77306,-3.0536 -1.71731,0.20822 0.3381,-1.92446 -0.60535,-3.08043 -0.93057,-1.88582 -3.0053,-2.83035 -4.41886,-4.31582 -1.53592,-1.59388 -3.83605,-1.26867 -5.76266,-2.06292 -1.82464,0.0601 -0.78567,-2.65862 -2.25397,-3.61602 -0.75132,-2.00389 -3.85644,-1.96525 -5.08217,-0.49588 -0.66332,1.64326 -1.24184,3.09653 -3.41746,2.99672 a 4.2653758,4.2653758 0 0 0 -2.70262,-2.69941 c 0.22862,-1.44361 4.03032,-3.18024 1.40713,-5.09397 -0.14276,-1.33951 -3.46254,-0.83827 -1.39532,-1.9191 1.65721,-0.0751 4.18595,0.32199 3.28007,2.51157 2.03931,-0.7041 3.15341,1.30408 5.13906,0.94452 2.06936,0.99604 2.89045,-1.70765 1.6293,-2.9688 -0.75777,-0.9778 -1.11196,-1.6175 0.32199,-2.19387 1.27296,-1.82465 -2.03931,-2.90441 -3.32729,-2.66613 -1.59066,-1.86543 -4.7956,0.67512 -6.5215,-1.42859 -1.13235,-1.0379 -0.17065,-3.43463 1.03898,-1.55846 1.92124,0.56027 3.81565,2.59958 5.57482,0.56027 1.48655,0.52056 2.59422,1.44255 4.32119,0.8973 2.22607,0.42289 -0.22432,-2.1563 -0.13738,-3.26182 -1.07332,-0.53666 -1.34595,-1.20641 -0.27048,-2.03073 -1.09264,-1.38887 -2.1241,-0.088 -2.9731,0.70518 -0.79533,-0.18032 -0.49372,-1.23003 -1.67867,-0.63219 -0.9778,-0.49587 1.14845,-1.53055 0.79855,-2.6511 0.322,-0.85866 -3.83175,-0.71161 -2.38062,-2.4944 0.56671,1.63574 1.88582,0.57852 0.53666,-0.27155 -1.93198,-0.60857 -0.0451,-3.19742 0.63433,-4.33085 0.69658,-0.69658 2.21426,-2.14664 0.15026,-2.313 -1.51445,-0.68263 -0.83933,-3.06755 -3.04179,-3.09868 -1.6776,0.16207 -1.50265,-1.8343 -3.14697,-2.02428 -1.05722,-0.23828 -2.4622,0.6515 -2.79064,-0.44114 0.0419,1.41893 -1.92231,2.48474 -2.52552,1.46509 -1.32555,1.0218 -0.34561,-3.23499 -2.22929,-1.36634 -0.88119,1.41034 -1.70228,-2.51908 -1.92553,-0.71483 1.00355,1.03039 0.88763,1.33092 0,2.48474 -0.78245,-0.87047 -1.50265,-4.67217 0.66224,-3.49044 2.59206,1.41463 1.41463,-3.69115 -0.10734,-4.03998 -2.56953,1.07332 -2.62212,-2.29154 -2.78312,-3.93157 -1.56168,0.15133 -3.60635,-0.0687 -4.85677,0.6837 -0.18139,1.16348 -2.36882,0.79748 -1.89334,2.57597 -0.80177,1.94486 -0.322,-1.85899 -0.97779,-0.14705 0.34882,2.25398 1.65935,4.11941 1.58314,6.2843 -0.82753,2.63178 -2.6189,-0.32844 -3.3391,-1.35668 -1.59066,-0.39498 -4.33514,1.04112 -3.04393,2.90548 2.64358,0.51305 0.52163,3.0053 -0.849,3.61923 -1.20105,0.55491 1.89012,2.75629 -0.47656,1.89871 -1.0336,-0.50876 -2.52337,-1.76991 -0.53666,-2.19709 -1.90729,0.12987 -2.21318,-2.29368 -4.04427,-2.78097 -1.2472,-1.83431 -2.3613,-4.76018 -5.03709,-5.16053 -2.08654,1.0379 -3.70725,-1.25793 -5.72617,-1.12054 -1.04219,0.25223 -0.53666,2.24646 -1.37707,0.44972 1.04112,-0.87261 0.59355,-3.12659 2.73053,-2.3334 0.82216,-1.45328 -3.46897,-1.77205 -3.64929,-3.69437 a 4.5734188,4.5734188 0 0 0 -4.18595,-3.92299 c -1.28798,-1.49513 -3.09975,-3.15449 -5.19916,-3.04286 -0.42074,-0.36064 -0.89837,-2.96451 -1.08728,-1.01751 -0.85865,1.11303 -3.5602,-1.86543 -4.55302,-0.42933 -0.52378,1.42001 -3.11263,2.75307 -4.19347,1.26008 -1.08405,-0.0998 -3.67934,2.73697 -3.8457,0.47226 0.0118,-1.16884 1.8665,0.30805 0.64399,-0.79103 -1.70336,-0.41753 -4.14302,-1.60999 -2.83035,-3.72872 -0.54417,-2.49976 1.88261,0.11806 3.09331,0.0419 0.69337,1.4522 3.97129,0.42933 2.70155,-0.73737 -0.94989,0.46153 -0.67405,-1.20319 -0.34776,-1.35775 -0.91554,0.8286 -0.73522,-1.10874 -2.10585,-1.0862 -0.0987,-1.58422 -0.71376,-2.94949 -2.64144,-2.39995 -1.34487,-0.93701 -2.34521,-2.87435 -4.45858,-2.11873 -1.42537,-0.87261 -0.32199,-4.74515 1.6175,-3.31227 -0.14061,0.322 -2.42356,1.3556 -0.79211,1.78279 0.18246,-1.28048 2.38384,-1.73234 1.12054,-2.70263 1.28799,-1.01536 1.28799,-2.23894 -0.63325,-2.28831 -1.20642,-0.26511 -1.50265,-1.50265 -2.4944,-0.27263 -2.45898,-0.12236 -2.30549,2.54162 -0.75991,3.74374 -1.74093,0.0977 -0.99819,1.66258 -0.8651,2.45147 -1.44362,-0.84685 -3.43462,-1.72805 -3.85107,-3.46039 0.12987,-1.65291 -0.97136,-2.83571 -1.35453,-4.17951 0.67082,-0.53666 1.54558,-0.51948 1.20319,-1.6293 1.14952,-0.0322 2.48903,-1.89548 0.61286,-1.05507 a 7.9608185,7.9608185 0 0 1 -3.733,-3.60529 c -1.91695,-0.62896 -5.43315,-2.3774 -4.17093,-4.76554 1.71731,-0.39927 0.94774,-1.04219 0.5753,-2.2046 0.34776,-1.04541 1.71731,-2.33555 -0.205,-2.09512 -0.94667,-1.14738 -1.63252,-0.89515 -0.72771,0.47333 1.18065,1.79996 -1.66258,2.02751 -1.70658,3.69867 -2.24002,0.25008 -1.29979,2.82605 -3.36594,3.62138 0.12666,-1.95666 -0.68907,0.322 0.75133,0.322 1.52519,1.12913 -2.44073,2.87435 -3.16522,1.06044 0.24579,-1.86651 -2.08976,-1.054 -1.41786,0.43791 a 2.4858104,2.4858104 0 0 1 -4.17414,-1.69048 c -1.47045,-1.93198 2.14664,-1.12806 1.63037,-3.0214 a 5.7347517,5.7347517 0 0 0 0.43899,-3.24357 c -1.07869,-0.53666 -1.28799,2.56202 -2.02107,1.08405 -1.47688,0.527 -0.85865,-2.99778 -2.97846,-2.00711 -1.79781,-0.69336 -2.54806,2.83894 -0.67082,1.74952 1.11625,1.47259 -1.59603,4.42422 -3.1663,3.91762 -1.28799,-0.80607 0.38961,-2.90441 -1.56276,-2.12411 -1.84503,0.0547 -2.38491,-2.31193 -2.31944,-3.56235 1.10981,-0.43469 0.9735,-2.44609 0.3016,-0.63326 -0.63755,-0.26511 -1.86436,2.52231 -2.64788,0.61394 1.18065,-1.16455 -0.19534,-1.95773 -1.38673,-1.44683 -1.80747,-1.22144 -3.83605,1.40497 -5.25927,-0.93057 -1.34058,-0.78031 -2.64574,-1.62394 -4.01851,-0.72879 -1.75917,-1.0014 -3.97129,-1.22036 -5.70363,-1.9953 -2.15523,-0.1127 -3.47219,-2.09727 -5.46427,-2.67579 -1.6175,-1.39531 -2.30764,-3.87254 -4.50795,-4.09042 a 13.309175,13.309175 0 0 0 -4.2321,-4.03354 c -1.72483,-1.59388 -0.25438,-3.7212 1.75058,-3.30368 0.75133,-0.90159 0.71376,-2.16489 1.81177,-2.73482 -1.48226,-1.31589 -3.20923,1.93842 -5.10901,0.91554 -2.09619,-0.48836 -0.68156,-3.15019 1.18066,-2.57597 1.27403,-0.7202 2.27973,-1.38351 1.24397,-2.6511 0.55062,-1.69048 -3.10297,-2.13591 -3.84785,-0.69337 -1.24827,-0.0676 -2.4461,-0.44972 -3.69866,0.28765 -1.14416,-0.43791 0.0665,3.07399 -2.11552,2.88402 -1.86006,-0.0333 -4.76125,-0.0741 -6.05997,-1.27833 -1.94271,-1.04971 -4.48969,-0.0698 -6.16837,-1.90836 -1.05829,-0.19642 -1.56812,-1.42108 -2.35164,-0.36278 a 8.4942588,8.4942588 0 0 0 -5.09613,-2.25398 11.598302,11.598302 0 0 0 -6.34547,-3.15019 c -2.20245,-0.71591 -4.25786,-1.73986 -6.40665,-2.6071 -1.742,-1.29979 -4.18595,-2.75307 -4.54981,-4.89541 a 5.5039877,5.5039877 0 0 1 -0.95418,-5.88502 c 0.13739,-1.07332 1.32663,0.54739 1.65721,-0.81143 -1.88153,0.47655 -2.35057,-1.8665 -2.05112,-3.12229 a 1.1645528,1.1645528 0 0 0 -2.0597,1.07332 c -0.71483,1.75703 -2.57597,-0.70517 -2.94197,0.91018 -3.24465,0.46045 0.19749,-3.73838 -2.74555,-3.82639 -1.54881,0.10733 -3.91333,0.57208 -3.44107,-1.57886 -1.51124,-0.96598 -2.37955,-3.01066 -4.53156,-2.39565 a 39.342564,39.342564 0 0 0 -5.21848,-2.11337 24.793705,24.793705 0 0 1 -6.39485,-8.31286 c 0.21467,-1.86329 0.15885,-3.49795 -0.97994,-4.86 -2.52016,0.50876 -1.6776,-2.10371 -1.65291,-3.4636 -0.5914,-0.85866 -4.20313,-0.0268 -2.34414,-1.56169 1.82465,-0.70302 1.88368,-3.78452 3.28007,-3.79418 -0.80606,-0.85866 -0.79962,-1.07332 -2.00389,-0.66224 -0.41967,-1.50909 -0.98209,-4.41457 -1.15274,-4.99631 -0.55813,1.63037 -2.43751,2.24324 -2.46864,1.39532 -1.16563,0.87153 -2.48044,1.38243 -2.67472,2.95163 -1.35882,0.95311 -1.73663,3.45716 -4.06359,2.78419 -1.18065,-0.65472 -0.27477,-2.5223 -1.8504,-3.25967 -0.88978,-1.23432 -1.42322,0.49695 -2.21104,-0.35098 -0.24579,1.38459 -1.54773,4.18595 -3.38955,3.73623 a 3.3648599,3.3648599 0 0 0 -2.06292,-1.98242 c 0.23076,-1.27081 1.57456,-2.18099 2.03931,-3.20172 1.33306,1.21178 4.38451,1.14738 3.66861,-1.42751 -0.93057,-1.30945 -1.4887,-3.35413 -2.35165,-4.46394 -2.4579,0.61394 -3.93264,-4.40062 -5.43529,-1.0905 -0.68156,2.39243 -4.42745,1.14738 -2.61354,-0.93379 1.82465,0 3.64178,-2.80673 1.23003,-3.206 0.30482,-2.11015 -1.77957,-1.55095 -2.07795,0.0794 -0.50554,1.54451 -1.36419,4.17736 -3.04286,2.09834 -2.39888,-0.23291 -1.44577,-3.15771 -0.85866,-4.56483 0.47119,-0.53022 3.49366,-1.37492 1.22466,-1.18065 -0.77065,1.41893 -2.38063,0.20715 -2.00282,-1.11089 -1.0379,0.72664 -1.5488,-1.49513 -1.73556,0.41108 1.04434,2.23895 -2.72945,4.12048 -0.32199,5.96337 0.64399,1.09372 2.0393,2.11015 0.0901,2.64681 -1.33413,-0.5109 0.644,3.15986 -1.77956,2.53089 -1.7742,-0.47548 -3.38096,2.45254 -4.8117,0.77279 -0.45079,-1.34594 -2.02106,-2.73053 -1.98671,-3.89723 1.19138,-0.57315 3.65895,-2.50835 1.05507,-2.96021 -3.2586,-0.7406 1.92017,-3.15986 0.87905,-5.23029 1.65291,-1.8751 -0.74381,-3.39921 -2.46005,-3.68686 -1.20105,-1.97491 -3.56986,-0.85007 -5.08539,-1.7581 -1.64648,-1.11089 -0.25223,-3.30153 -2.3334,-4.29972 -0.97243,-1.69478 -1.25793,-3.52157 -2.25397,-4.87395 -1.12055,-1.39532 -2.22822,-2.87221 -4.07862,-3.32729 -1.88261,-0.62253 -2.05434,-3.46146 -2.77024,-4.45321 0.96062,-2.16918 -2.96344,-1.90837 -2.97954,-4.06037 -0.81358,-1.60998 -3.80707,-1.06366 -2.57597,-3.51513 0.85866,-0.30267 1.85255,-1.81606 0.25116,-1.18065 -2.62749,1.51124 -1.12592,-2.29798 -0.52164,-3.17488 -0.91554,-1.63896 -0.46367,-3.59026 -1.18065,-5.31509 -0.47655,-2.27007 3.46039,-0.38961 2.27866,-2.93123 -0.15992,-1.39532 -2.42356,-0.56135 -1.71731,-2.46864 -1.1871,-1.24935 0.0955,-4.45106 -2.75522,-3.73408 -1.55202,-0.42933 -2.52337,1.35453 -3.484,1.56168 -0.18353,-1.71732 -1.4683,-3.62246 0.805,-4.48541 1.36311,-1.97384 -2.31194,-0.91447 -3.36916,-1.28798 -2.97417,-1.14309 1.00892,-3.15879 1.80425,-4.50795 0.42933,-2.14664 -3.10619,-1.64325 -3.85322,-0.37996 -2.13054,0.322 0.46904,3.14591 -1.66794,3.97129 -1.49299,2.9248 -4.93727,0.322 -6.22526,-1.18065 -0.28872,-1.38244 1.53915,-3.7856 -0.7964,-3.81136 -0.88442,-2.36131 -3.05467,-0.4186 -3.17596,1.2751 -2.08975,0.322 -5.30327,-0.43791 -5.00596,-3.06755 -0.39713,-2.35272 -4.48756,-1.33843 -4.02281,-4.216 0.59247,-1.42108 0.42933,-3.05896 -1.49513,-2.94412 -1.01322,-1.50265 -3.09439,-2.02965 -2.97203,-4.18595 0.61179,-1.1184 1.90085,1.37492 2.87328,-0.18568 1.90729,-1.62394 2.54162,2.71442 4.02173,0.42932 1.52519,-1.12376 0.31127,-2.15522 -1.07332,-2.15952 -0.98101,-1.0658 -1.70872,2.38385 -2.10263,-0.0376 0.46904,-1.376 -1.05722,-2.92587 -2.02214,-1.94057 a 6.1179271,6.1179271 0 0 1 -3.13409,-0.34883 c -1.38781,2.21212 -3.06433,-1.21392 -1.56598,-2.21533 1.94271,-1.65184 -3.11263,-0.90374 -1.19782,-2.42141 1.96095,0.81787 5.13369,-0.50768 3.59669,-2.89797 -0.71054,-1.5166 -2.6833,-4.07861 -3.82317,-3.48614 -1.49084,1.22036 -1.45005,-0.91984 -1.10766,-1.4404 -1.26652,0.72342 -3.50117,1.23432 -4.76125,0.55491 -1.12162,-1.2633 1.23432,-3.09546 0,-4.62601 -1.56812,0.0708 -2.9731,-0.70088 -2.67472,1.67438 -0.15026,1.72268 -1.79137,1.87187 -2.79063,1.08405 -2.02643,0.322 -5.04461,-1.00033 -5.7208,-2.80673 1.6937,-1.32341 -0.38103,-3.83068 -1.36526,-4.72261 -1.76454,-0.10733 -3.81351,0.96599 -5.39129,-0.23935 -1.93949,-0.015 -3.64929,0.86831 -5.10901,-1.03254 -2.02428,-0.85865 -1.42107,-3.64929 -2.19064,-5.23887 0.88012,-2.17348 -2.18207,-2.75951 -3.71584,-2.13913 -1.83753,-0.67083 -3.49473,-2.21212 -5.51472,-2.70155 -3.20172,0.29946 -1.81391,-2.86899 -2.66076,-4.4575 -1.75274,-0.98424 -3.63319,-1.7742 -4.93728,-3.34769 -0.43791,-1.947 -2.52552,-2.84752 -3.21996,-4.63567 -1.8343,-1.09693 -0.17388,-3.89079 -2.96236,-4.1237 -1.09157,-1.73556 -3.29295,-1.35882 -5.04461,-1.47367 -1.63252,-0.86402 -3.162,-2.89152 -3.05252,-4.46394 2.01462,-0.65579 3.55054,2.02858 5.75192,1.16563 1.44576,-0.50768 4.51761,-0.8286 3.84034,-2.98276 0.15027,-1.89119 2.63178,-2.89796 1.48548,-4.95981 -0.24365,-1.66365 -1.74093,-1.69799 -2.98169,-1.26545 -1.03897,-2.30656 -4.21707,-0.29409 -5.74012,-1.93197 -1.36633,-1.60998 -3.55054,-0.99068 -4.06359,-3.05575 0.78889,-1.8987 -0.51626,-3.5119 -1.17528,-5.03602 a 15.894804,15.894804 0 0 1 -4.29329,-5.6886 c -1.18065,-2.00818 -3.61065,-3.34554 -4.08398,-5.68215 a 8.1840691,8.1840691 0 0 0 -1.70336,-6.05353 c -1.01536,-1.3599 -2.23036,-2.88294 -2.24109,-4.6668 -1.15597,-0.95955 -2.97525,-4.14302 -4.26216,-1.78386 -0.99711,1.8708 -2.49762,0.70839 -1.37385,-0.94667 -0.18461,-0.98638 0.008,-2.40746 -1.65399,-1.76668 -2.24538,0.55168 -3.75018,-1.49407 -5.44924,-2.58241 -2.80352,-0.50446 -0.77923,-5.15194 -4.20313,-5.39558 -2.03072,-0.42933 -3.28221,-2.19602 -4.19346,-3.92406 -1.16348,-2.42142 -4.37593,-2.35487 -5.13047,-4.92762 -0.29302,-1.20426 -1.41142,-1.56383 -1.94379,-2.19172 1.75918,-1.97062 -0.48084,-4.00241 -0.52163,-6.11041 a 11.232299,11.232299 0 0 0 -1.63252,-5.52653 c -0.42933,-2.36882 -1.79889,-4.83746 -4.56269,-5.15945 -1.84718,-0.0279 -1.69477,-2.79064 -3.58703,-3.24358 A 37.258176,37.258176 0 0 1 129.3068,341.8 c 1.52734,1.76561 4.27289,0.0225 5.57053,1.52841 0.97565,1.31482 3.44214,2.62749 4.43604,1.55095 -0.71054,-1.56169 1.64325,-2.87436 1.26544,-4.29329 0.93594,-0.57852 3.54196,-1.49513 1.31482,-2.34198 a 2.5062035,2.5062035 0 0 1 -0.83182,-4.44784 c 1.42215,-1.32126 -1.12914,-2.26149 -1.13987,-3.72442 -1.48333,-1.32233 -1.60998,-3.65573 -2.89796,-4.73764 -1.04757,-1.19997 -3.61817,0.14704 -2.96988,-2.11015 -0.0236,-2.1402 -2.54699,1.05186 -2.64144,-1.25042 a 24.208745,24.208745 0 0 0 -5.70148,-1.14308 c -1.91588,0.029 -1.0583,2.97631 -2.87436,1.63037 -1.15489,0.50339 -2.51693,0.16529 -1.91051,-1.4082 -0.76527,-1.05829 1.63789,-2.26792 -0.22647,-3.18347 -1.71731,-2.05433 2.66077,0.8329 1.39532,-1.09908 -0.67941,-1.75273 -0.49587,-3.53444 -2.43644,-4.57127 -1.47152,-1.26974 -2.47937,0.48192 -2.21855,1.77527 -2.6715,1.15382 1.90407,2.55236 0.26833,4.12156 -1.23432,2.73911 -4.48863,2.30334 -6.28429,4.33943 -1.39533,0.46582 -4.32657,-2.02858 -2.58672,-3.37345 2.8529,-0.30053 0.322,-3.0976 -1.03897,-3.18776 -1.10444,-1.86114 -3.25752,-2.54484 -4.45428,-4.34051 -1.03682,-1.23753 -1.51123,-2.55557 -0.1728,-3.85322 1.21929,-1.33199 3.88864,-1.11625 5.37733,-2.44073 1.78386,-1.28798 3.35736,0.66439 4.51547,1.60998 1.69048,0.22433 3.28436,0.33703 3.5645,-1.87187 1.26115,-1.8826 -1.12591,-3.75662 -2.36131,-4.89863 0.47441,-1.52734 0.26511,-3.40243 -1.70121,-3.08151 -0.93916,-1.94915 3.56557,0.34991 2.58778,-2.3613 -0.44221,-1.37922 -0.31556,-2.30657 1.13772,-2.72516 1.25685,-1.71732 -0.0419,-3.9466 -0.8007,-5.56946 -0.41967,-1.55632 -3.72013,-1.59066 -2.31623,-2.76273 -0.97994,-0.7803 -2.64144,-0.64399 -2.88724,-2.19816 -2.33769,-1.47582 -3.25645,1.34165 -2.5105,3.10726 0.23935,1.78386 -2.39779,1.60998 -1.7817,-0.2533 -0.27263,-1.27296 -2.26149,-3.0332 0.35204,-3.36701 1.25257,-1.50265 -0.0837,-4.02495 -1.16347,-4.96089 -0.94775,0.71376 -3.26612,3.15879 -3.0536,0.3542 -1.56598,-0.95418 -1.01322,-3.20601 0.94667,-2.64144 0.59784,-1.68619 -2.82284,-2.7198 -0.56779,-4.42745 2.00818,-0.34346 3.55269,2.51372 5.72402,0.81573 1.76346,-1.96847 1.1141,2.49761 3.34018,2.12624 1.28798,0.88335 1.23968,3.21996 2.39458,3.09868 -0.006,1.22681 1.52411,2.20138 1.21822,0.27584 1.43825,-1.0057 2.23787,2.46864 2.71872,3.55913 0.6837,2.10264 2.86791,3.30046 3.17166,5.52009 0.12558,1.08942 2.17669,1.1667 2.03931,2.83464 1.14952,1.78923 3.47863,2.20997 4.90185,3.75662 1.38781,1.35131 3.85644,0.95418 4.15161,3.18991 1.81928,1.75917 2.48366,3.97129 4.15053,5.73583 1.42751,1.53484 2.6994,2.94948 2.75306,5.17233 a 8.2828146,8.2828146 0 0 0 4.45428,3.79633 7.5282703,7.5282703 0 0 1 3.39277,0.28121 c 0.51841,2.23036 3.37345,1.14631 3.42175,3.50869 0.0902,2.74126 3.54195,1.77956 4.43281,3.91869 1.23539,0.79426 2.65432,1.18602 3.74804,2.21641 z m 152.54997,98.35802 c 1.7581,0.88871 1.06474,-3.04501 0.68156,-0.59676 -0.0676,0.38532 -0.5431,0.26403 -0.68049,0.59569 z m 68.41453,28.07163 c 0.77493,1.08513 1.91051,-0.53666 0,0 z m -121.93351,41.75217 c 1.26759,1.0175 0.39391,-2.06722 0,0 z m 246.09415,195.33468 c 1.15597,0.34453 -0.53666,-2.38707 -0.78889,-0.20608 -0.16744,0.41645 0.70839,0.13524 0.78889,0.20608 z m 0.97672,1.0014 c 1.19461,1.9835 1.09157,-1.49084 0,-10e-4 z m 5.51365,9.00838 c -1.30945,0.96063 1.70766,0.35098 0.66331,-0.28013 l -0.35204,0.17709 -0.31127,0.10734 v 0 z M 831.38302,421.55237 c 1.41034,2.67686 4.67431,0.45616 6.38411,1.47581 0.71698,1.89549 0.62789,4.42101 -0.98101,5.84746 -1.02288,1.54772 -4.16771,0.61823 -4.42745,3.31548 a 18.339828,18.339828 0 0 0 0.1288,7.69464 c -0.57852,2.25397 -1.70658,4.71509 -0.4787,6.98409 0.12557,2.01248 1.65506,3.42604 2.1724,5.27645 0.088,2.12195 1.25793,3.91654 1.52411,5.98913 -0.24364,1.84181 -2.88401,2.5223 -3.80385,4.22673 -1.09586,1.21822 -5.19057,2.08439 -3.38096,4.19561 1.33736,0.93487 2.6554,3.02784 4.46502,1.92232 a 3.164149,3.164149 0 0 1 4.94586,0.53666 8.4126864,8.4126864 0 0 0 5.37948,4.09257 c 1.85899,0.87798 3.88972,-0.12021 5.79593,0.322 1.60998,1.32233 3.8822,1.625 5.12833,3.41316 a 9.9239217,9.9239217 0 0 1 2.37418,6.0664 c 0.6118,2.53948 -2.37311,4.01637 -1.63788,6.53223 0.13094,2.21963 2.21855,2.98813 3.71905,4.18595 1.66687,0.72235 2.63608,2.73268 4.69471,2.47508 2.38813,-1.31482 4.59595,1.06688 4.74622,3.40565 -0.0129,2.56631 2.06292,-1.56061 3.43463,0.44972 2.2325,0.893 1.74951,4.47145 -0.49695,5.11974 -2.6393,0.21466 -4.29328,2.08009 -6.22526,3.6729 -1.70551,1.45972 -3.82532,2.11873 -3.80278,4.66572 -0.35097,2.74127 2.36131,4.90293 1.35668,7.65493 0.73415,1.786 0.49158,3.43462 0.45402,5.33977 -0.55598,1.86328 -3.27256,1.66901 -4.46502,3.01281 a 2.1316146,2.1316146 0 0 1 -4.07862,0.72127 c -2.19494,-1.44576 -3.01173,1.15489 -4.07861,2.35486 -2.07795,-0.44972 -4.23855,-0.48299 -5.59737,-2.16488 -1.15167,-0.47548 -0.79318,-2.51157 -2.40639,-3.06111 a 5.8807233,5.8807233 0 0 1 -1.35023,-5.51794 c -0.84471,-2.04575 -3.23821,-1.75381 -4.8718,-2.48045 -1.91695,-0.11592 -3.12659,-1.95666 -5.17878,-1.16777 -2.01999,-0.9091 0.15349,-2.88401 -0.5227,-4.3813 1.39531,-1.59173 -0.69444,-4.6786 -2.74878,-4.14945 -2.46112,0.11592 -4.93727,-0.58818 -7.36405,-0.12344 -2.18421,0.54955 -4.2525,-0.5227 -6.41202,-0.71161 -2.39565,-0.52592 -5.03172,-1.27403 -7.39947,-0.24579 a 25.350758,25.350758 0 0 1 -6.12544,-2.76916 c -1.91695,-1.49407 -2.81102,-3.87147 -4.61528,-5.49433 -1.48118,-1.47582 -4.31582,-1.49084 -4.81277,-3.98202 -0.49909,-2.27222 -0.17817,-4.96626 -2.5384,-6.33259 a 52.445662,52.445662 0 0 0 -4.7956,-4.40062 c -2.21533,-1.21929 2.22929,-2.89796 1.22788,-4.80633 -0.5592,-1.45864 -1.55202,-2.31085 -1.52197,-3.78989 -1.39531,-2.64252 -4.72905,-1.43074 -6.77265,-2.89797 -1.6937,-1.27939 -1.77634,-3.66002 -3.26933,-5.10578 -0.37566,-2.66828 3.94123,-0.94989 5.42778,-1.71731 1.50265,-0.93809 2.55987,-0.34132 2.87328,1.32018 1.7581,1.37814 3.88649,2.55665 6.19521,2.12088 2.30763,0.35527 2.43536,-2.635 4.37163,-2.76809 a 14.614333,14.614333 0 0 0 6.12329,-2.36131 23.371555,23.371555 0 0 0 3.30905,-5.76158 c -0.48621,-2.54163 2.05219,-2.78205 3.38633,-4.35768 1.34272,-0.99819 3.43462,-2.14665 1.89548,-4.03998 0.18998,-2.33125 3.74482,-2.03931 3.62031,-4.35768 -0.53666,-2.18206 1.04005,-4.29329 -0.78245,-6.19199 -0.0977,-3.45609 -4.26108,-0.68907 -5.04461,-3.50547 -1.36097,-1.37063 -4.32548,-2.12732 -5.70684,-0.54632 -0.25974,1.07333 -1.29765,2.41283 -1.27833,0.50447 -1.43073,-0.60106 -0.92305,-3.15771 -2.61997,-3.97129 -1.58208,-1.34916 -3.40457,-1.85685 -5.21419,-0.39284 -2.83464,0.81573 -5.88717,0.33488 -8.61769,1.60354 -1.71732,1.64326 -3.86396,0.37245 -3.92192,-1.88582 -1.89011,-1.88046 1.96096,-2.17025 1.77528,-4.25464 0.28979,-2.19924 -0.47119,-4.93728 1.99959,-6.15872 1.88046,-0.34668 2.92802,-2.30012 4.87717,-2.70476 2.07151,-1.21178 4.40061,0.80499 6.40343,-0.45294 1.39532,-1.62072 3.18347,0.59569 4.58308,1.17099 2.69618,0.61072 6.07607,2.80459 8.43093,0.36063 2.7155,-1.2429 1.30087,-3.82853 1.23969,-5.97624 0.83504,-1.74308 3.60206,-1.53163 5.01455,-2.96022 3.23928,-0.21467 6.71469,-0.41645 9.70389,1.0218 2.0479,1.62179 5.021,1.94593 6.42705,4.36197 0.63003,2.14664 3.73086,1.59496 3.62889,4.24928 l 0.13095,0.27799 v 0 z M 985.18019,575.4601 c -1.78171,1.59173 -3.42818,4.24176 -2.3774,6.63419 0.70946,2.46864 3.10619,3.95304 3.70832,6.55691 a 17.155956,17.155956 0 0 0 4.18595,5.85282 c 1.32233,1.71731 2.74556,3.72013 5.21849,3.27041 2.05648,0.0311 3.40457,2.12947 5.36655,0.61716 2.0157,-0.65365 3.4443,-2.48581 5.7766,-1.94271 1.9685,-0.24687 4.4415,0.60642 5.9259,-1.08191 2.3313,-0.53666 3.7191,-3.91011 6.4754,-3.55162 1.1366,1.45435 4.8975,2.45361 2.5362,4.72261 -2.4557,1.28799 -2.3173,4.40062 -2.898,6.73509 -0.072,1.69907 2.4601,2.28188 1.4834,4.35446 -1.3148,1.6937 -3.4754,3.50225 -2.6168,6.18555 0.585,2.12088 0.6945,4.70007 -0.5774,6.61702 a 31.62539,31.62539 0 0 0 -0.4294,7.07103 c 0.1074,2.84967 1.8054,5.50721 1.7742,8.42342 0.7793,2.58563 -2.4793,2.65111 -4.1859,2.52875 -3.1126,-0.89515 -4.83,2.38492 -7.406,2.85718 a 3.0675501,3.0675501 0 0 0 -4.8299,1.82464 c 0.2587,2.5867 -2.96774,1.57027 -4.54552,1.81499 -2.13806,0.98209 -4.00349,-0.71591 -6.24136,-0.34239 -1.63789,-0.029 -3.66968,1.71731 -4.10975,-0.80177 -1.96954,-0.56457 -4.60132,-0.1288 -4.47252,-2.98598 -0.58926,-1.42 -3.65466,-1.93842 -1.66794,-3.9949 1.58744,-1.44684 -0.20071,-3.64929 -0.9134,-4.8235 -1.947,1.08727 -3.95733,-0.65902 -5.98913,-0.24794 -2.08761,-2.01355 -4.82135,-0.66975 -7.39518,-0.322 -2.41282,-0.5753 -4.7913,0.19857 -7.14402,0.21467 -2.92909,0.11914 -1.01643,-3.24036 0.88871,-2.84967 1.84933,-0.6354 0.28658,-4.33943 3.0375,-4.15911 1.65291,-1.51983 1.82464,-4.33944 1.4726,-6.43241 -2.49547,-0.45295 -2.12733,-3.89079 -4.85034,-4.39096 -0.66546,-1.7259 -2.00496,-3.0171 -2.20782,-4.93727 -0.0472,-2.21319 -2.5545,-3.26075 -2.74448,-5.42779 0.24042,-2.35271 1.27296,-4.66465 1.36419,-6.96907 -0.92735,-2.1241 -0.53666,-4.66679 -2.00711,-6.5934 -1.01107,-2.13698 -3.05789,-3.37345 -4.75266,-4.85893 -0.4991,-1.94807 -1.11304,-4.08935 -1.46401,-5.9859 1.30408,-0.55062 2.78204,-0.77172 3.77272,-2.07795 1.74093,0.33058 4.99094,-0.19105 6.6138,1.75273 1.72697,1.54129 3.56986,2.44502 5.1294,4.18595 1.48118,0.688 3.95733,1.82464 5.06822,0.0558 1.60998,-1.47045 -0.20179,-5.79593 3.39062,-4.47252 2.31408,1.37277 2.9731,-1.77098 5.1133,-1.62501 1.61964,-0.75133 3.45287,-1.90729 5.23566,-1.35561 1.13986,-1.70228 2.0393,-5.65747 4.69792,-4.68826 1.60998,1.99638 -0.82431,3.69544 -2.40746,4.63997 v 0 z M 672.52192,348.80378 c -0.13094,-0.84041 -0.81358,-3.6772 -0.50983,-1.30945 0.644,1.11947 0.12451,3.16414 -1.43181,1.93197 -0.50768,-1.70872 -1.19675,-4.76876 1.55203,-4.39417 1.464,-0.0558 3.80062,-0.85866 4.78271,-0.36815 -0.64399,0.90266 -1.69692,2.22821 -0.33809,0.688 1.43717,-0.54954 -0.0805,-1.6658 1.51016,-2.47401 1.3234,-1.27295 4.07862,-1.00784 4.82994,0.87261 1.20856,2.2411 2.56309,4.35446 3.62353,6.68464 a 11.420131,11.420131 0 0 0 6.22526,5.12296 7.0935755,7.0935755 0 0 1 3.56557,3.79419 c -0.54525,1.50265 -2.23143,2.43644 -3.24357,3.70188 -1.18924,-1.68404 -2.52982,-3.4958 -4.89113,-2.4901 -1.90407,1.19353 -5.23351,0.32844 -6.21989,2.83571 -0.12021,1.3438 0.51949,2.53626 -1.15811,3.35091 a 26.092422,26.092422 0 0 0 -4.4575,5.95907 c -1.73878,2.29047 1.99959,3.91977 0.0741,5.73583 -2.51479,0.69551 -1.16563,3.12873 -1.0422,4.82994 1.22144,2.00711 0.0451,3.57953 -0.80284,5.32582 a 6.124367,6.124367 0 0 0 2.66935,5.1573 c 2.79063,0.88871 4.96303,-1.4683 7.54437,-1.79137 2.06507,-1.37278 0.30482,2.16811 -0.24687,2.84859 0.0859,3.04609 -3.66431,3.88972 -4.011,6.82203 -0.49265,2.22929 -0.68477,4.8235 -2.75521,6.18018 -1.29979,1.86972 -0.76635,4.49721 -2.39458,6.2478 -1.25149,2.41282 -4.6464,0.98316 -6.19198,3.04608 -1.43074,1.71732 -3.34232,-0.30697 -4.99846,1.2955 a 9.5300131,9.5300131 0 0 1 -7.13758,0.93594 c -0.89729,0.31233 -3.88542,1.27403 -1.81713,-0.10734 2.8765,-0.81679 -3.81673,-1.07332 -0.8769,-2.01677 1.74736,-1.098 3.79955,-1.7098 5.08324,-3.45501 3.97129,-3.2629 7.65707,-7.04313 9.86597,-11.7475 a 32.41428,32.41428 0 0 0 2.70262,-6.67069 c -0.34991,-2.2969 0.76849,-4.8718 0.44542,-7.33936 a 22.190902,22.190902 0 0 1 0.46261,-7.68498 32.363834,32.363834 0 0 0 1.45649,-5.636 18.890442,18.890442 0 0 1 1.87831,-4.92118 c 0.71161,-2.17025 3.3273,-2.98597 3.23392,-5.51257 0.0891,-2.83893 0.93701,-6.01704 -0.0773,-8.71644 a 8.3139409,8.3139409 0 0 0 -4.90078,-5.54906 c -1.73986,0.25008 -1.94915,-1.1184 -0.322,-1.23647 -0.55813,-1.14738 3.23821,-1.13128 0.93486,-1.81069 -1.31267,0.0279 -1.23324,1.64003 -1.54665,-0.25867 -0.99712,-1.22037 0.12236,2.23036 -1.07332,2.12303 z m 202.21359,507.95646 a 17.387793,17.387793 0 0 0 3.63319,2.27222 c 0.96599,0.38854 1.89012,1.63359 3.29831,0.79425 2.67365,-1.40497 1.07977,2.7316 2.85289,3.50225 1.08298,1.20212 3.18562,-0.0816 3.10619,2.33769 0.98102,2.00818 3.90689,2.25397 4.26323,4.46394 a 5.6510327,5.6510327 0 0 1 1.77313,5.83242 c -0.52379,1.59174 -1.30516,2.98813 -0.9295,4.72261 -1.05185,0.67727 -3.28758,1.06688 -2.36667,-1.00248 1.31374,-1.07332 0.64399,-3.05896 -1.03146,-2.38814 a 2.5384031,2.5384031 0 0 0 -2.12196,-2.21533 c -0.71483,-1.85899 1.81499,-3.29617 0.97887,-5.11115 -2.03931,0.0215 -3.09009,3.09975 -3.39169,4.96303 -0.0279,1.47045 -0.93808,3.82639 1.00141,3.95304 1.03253,1.79567 0.22539,4.68934 -2.07688,4.82994 -1.87402,0.73738 -1.44898,3.49044 -3.67612,3.88435 -1.93198,0.59247 -3.97129,-0.0644 -5.79593,-0.71268 -1.37171,-0.92199 -3.42282,-2.26686 -4.5262,-0.48514 -0.58496,-0.18462 -0.2211,-2.55021 -1.16884,-1.32877 -0.0472,2.79063 -3.7373,-1.4726 -0.59462,-1.07333 0.56027,-1.57885 -1.85577,-1.00677 -2.38599,-2.54269 -0.98853,-0.22433 -2.28403,1.9631 -2.25398,-0.24687 -0.74166,-1.72482 -0.45508,-3.45609 1.42537,-4.02709 0.644,-1.46187 -2.14664,-1.31482 -0.42933,-2.80674 -0.18783,-1.55202 -2.16488,-1.41678 -1.45112,-2.96988 -0.46905,-0.58173 -2.18099,0.0644 -0.74274,-1.10659 2.7799,-1.21714 1.70765,-4.40061 0.4948,-6.28107 -0.36815,-1.94486 -1.28799,-4.25894 0.55383,-5.79593 0.76206,-1.11303 3.39921,-0.62897 2.06722,-2.74448 0.68585,-2.03931 2.35057,1.76454 3.43462,1.28798 -0.34775,-1.20534 -0.44006,-2.92802 1.17314,-1.74629 a 24.538254,24.538254 0 0 1 4.88146,1.74093 z M 30.824348,179.56796 c 0.675118,2.05219 -1.609981,4.66573 0.435768,5.93332 2.010329,-0.85866 1.861137,3.80277 4.42208,2.17347 1.41249,-0.0601 0.504461,2.63608 1.375997,3.62997 0.56242,1.75273 0.84363,4.43604 -1.792445,4.01851 -1.321258,0.39284 -1.797812,-2.23787 -3.005298,-0.35312 -1.196752,0.71805 0.242571,4.80204 -1.514455,3.74696 -1.473669,-1.27403 0.159925,-3.50439 -2.213187,-4.26537 a 13.151397,13.151397 0 0 0 -2.912992,-3.49473 c 0.25867,-2.19709 -0.06333,-4.25787 -2.071508,-5.5641 -1.861138,-1.58958 2.21748,-4.02602 -0.89515,-4.56376 -1.685113,0.49158 -1.047561,-0.16958 -0.985308,-1.32984 -1.033608,-1.72483 -1.651839,-4.21708 0.130945,-5.67572 1.146306,-1.21822 3.443212,-1.76883 1.462936,-3.74374 -0.413228,-1.74307 -0.309116,-3.8178 -1.732339,-5.17341 -1.246125,-1.29442 -3.112629,-3.06325 -2.43751,-4.86643 2.021061,0 2.998856,1.93198 3.728714,3.5602 1.107667,1.47367 1.740926,3.20386 3.049304,4.55088 1.573488,1.20212 1.379217,3.15664 2.790633,4.38237 0.737372,1.59603 2.423558,3.0858 1.856845,4.99094 a 4.5412192,4.5412192 0 0 0 0.30697,2.0436 z m 698.235802,642.1065 c 0.67298,0.67727 1.74308,-0.82002 2.41819,0.56993 2.28403,-0.67833 2.81425,1.76669 3.31335,3.43463 1.16562,1.67975 -1.60999,2.49332 -0.7406,4.43496 -0.9853,0.95096 -3.5924,-1.36204 -4.27933,1.07332 -0.49372,3.01066 -2.65646,-0.0708 -4.33084,0.50553 -1.5853,1.16456 1.44791,2.68331 2.22392,3.0053 0.6719,-1.32233 5.21419,-1.28798 3.92513,0.87798 -1.66365,1.00033 -3.06433,5.02207 -5.2056,2.80029 -1.42967,-1.07976 -3.52908,0.37888 -5.20668,-0.50231 -1.43396,-0.12665 -1.39532,-0.88013 -0.92306,-1.84289 -0.58066,-1.2032 -2.89796,-3.74482 -0.35312,-4.13014 2.17991,-0.17173 1.36741,-3.03428 0.96599,-4.42745 -1.68619,-1.13664 -2.06722,-3.22747 -0.0408,-4.10223 1.18065,-2.07365 4.04749,3.2468 4.86107,0.52271 a 2.2775862,2.2775862 0 0 1 3.37237,-2.21963 z M 94.727706,250.98349 c 2.293686,1.7098 2.958071,4.3287 3.10297,7.09035 -0.124506,2.60388 2.770244,2.55021 3.683634,4.52727 -0.41967,1.78708 1.18709,3.70725 0.0859,5.35158 -1.01214,0.93701 -2.969876,3.75662 -3.947671,1.43932 0.61394,-1.13772 0.948816,-2.6393 -0.721271,-1.66472 -1.530555,-0.53666 -2.55021,3.23821 -3.36808,0.71805 -2.457904,-0.322 -2.077948,-2.85396 -1.621787,-4.61528 0.28443,-1.60998 1.6454,-4.10974 -0.937009,-4.28791 -1.165626,-0.82753 -0.997115,-2.7359 0.500167,-1.26437 0.203931,1.14415 1.597101,1.27939 0.662239,-0.0644 0.09982,-1.37922 1.533775,-3.28222 -0.29731,-3.98954 0.214664,-1.18816 0.03542,-2.46863 1.70658,-2.61246 a 0.67511862,0.67511862 0 0 1 1.15382,-0.62789 z m 54.121124,33.57883 c 1.19031,-0.76098 -0.85007,-0.95311 -0.0558,0.26189 -1.02717,0.31019 -2.09835,-1.36956 -3.30691,-1.56705 -1.82464,-1.7377 -4.05285,-3.27362 -5.21741,-5.50398 -1.57241,-1.6175 -1.19246,-4.26431 -2.89796,-5.75944 -0.93594,-1.03254 2.94519,-3.0053 0.67082,-4.30509 0.98102,-1.36741 -0.19856,-4.19454 1.28799,-4.7913 1.22788,1.26437 0.31233,4.72261 3.11263,4.13872 0.29409,1.51231 -0.36815,3.55269 1.83645,3.91547 1.29872,1.34487 1.84182,3.04501 3.91118,3.65681 1.85899,1.18065 2.21533,3.13517 2.69618,5.02636 1.76239,1.36526 2.03931,3.63533 3.27255,5.43422 1.77098,1.86865 -0.13094,3.90474 -1.25793,1.06473 a 5.4138288,5.4138288 0 0 0 -4.05071,-1.57134 z m 744.40253,600.70102 c 0.644,2.21855 -1.41356,4.2482 -1.53914,6.56872 -1.50265,1.57563 -4.43818,-0.67512 -6.55691,-0.029 -1.74737,0.58174 -4.172,-0.51949 -1.73878,-1.6293 1.77312,-1.09908 4.76554,1.89441 5.3505,-0.78245 1.62823,-0.79748 5.11652,-1.87831 2.59636,-3.95519 -1.63144,0.11807 -3.21352,1.47796 -4.89434,1.79459 -0.37995,1.05937 0.0311,2.45254 -1.12591,1.00892 -1.51553,-0.87153 -2.70477,-2.83356 -0.4143,-3.36056 0.29194,-1.64755 1.6454,-3.1985 2.46219,-4.43818 1.33414,1.35882 3.15557,1.84611 4.69363,2.78204 a 2.5298165,2.5298165 0 0 1 1.1667,2.04039 z M 552.98085,724.10426 c 1.60246,0.58818 4.56268,0.65794 4.48862,2.83571 0.28658,1.91373 1.376,0.57315 1.44684,-0.61823 1.44898,-1.19461 3.94874,0.21466 4.33943,1.96203 -1.11625,-0.12021 -3.40028,-0.12129 -1.8504,1.5166 1.71194,2.4096 -2.29798,-1.55632 -2.41283,-0.50339 -0.43469,1.14845 -2.14664,0.83612 -1.60998,2.51587 -0.47441,1.1184 -2.15952,1.71731 -3.25967,1.97598 a 8.0155578,8.0155578 0 0 1 -1.86221,-5.1616 c 0.5431,-1.78493 -1.69692,-3.61065 -0.77816,-4.82994 a 1.426443,1.426443 0 0 1 1.49836,0.30697 z M 61.836871,256.85348 c 1.555242,0.99389 3.457166,2.63178 3.274701,4.73442 -2.656468,-0.0698 -2.411751,3.56986 -0.851143,4.95659 0.982088,1.62179 -0.595693,3.23177 -1.947003,1.65935 -1.640034,-0.68263 -1.417857,-3.42604 -3.512979,-3.94016 -1.852551,-0.99604 -3.608503,-2.2808 -2.696181,-4.47467 0.07728,-1.10337 2.203527,-2.30979 2.908699,-2.46864 a 13.283415,13.283415 0 0 1 2.823906,-0.46689 z M 13.572867,147.48534 c 0.165291,1.98349 2.004963,3.3069 3.181322,4.77949 2.508351,0.69981 -1.395317,2.72087 -2.587776,2.91622 -1.686186,1.94593 -2.698328,-1.54881 -3.800628,-2.26149 0.622526,-1.4683 -1.3298439,-3.29187 1.054001,-3.54196 0.680485,-1.98027 -2.5555762,-0.4465 -2.6940345,-2.41282 -1.1420131,-1.35668 -2.3849183,-3.21996 -0.4465014,-4.48219 -0.3380959,-0.8651 -0.9155424,-2.11766 0.6944384,-1.58207 1.6099805,1.14201 1.5606085,3.3831 2.7670205,4.83638 0.625746,0.56457 1.252565,1.13343 1.832158,1.74844 z M 559.09877,737.13973 c 0.41752,1.40283 0.84149,3.27793 -1.23002,3.27793 -1.37278,1.78278 0.97457,3.38096 2.2207,4.46179 1.26115,0.22754 1.62178,1.38029 0.0301,0.72771 a 4.5326326,4.5326326 0 0 1 -4.50795,-4.44891 c -0.40571,-1.26115 -4.17629,-2.64144 -1.74844,-3.86396 1.72268,-0.31341 2.31516,-2.71442 3.15664,-3.45502 1.63359,0.29731 2.86362,1.58745 2.07902,3.30046 z M 649.0162,421.77669 c -1.55095,1.38566 -2.2046,3.58597 -4.72261,3.05575 -2.45039,-0.19964 -4.04427,2.8604 -6.03313,0.6515 -1.53915,-0.91983 -2.89153,-2.3613 -4.70222,-2.45254 0.92842,-2.88186 4.37378,1.05615 6.42811,0.30483 1.90944,-0.48192 4.07862,-0.33917 5.73476,-1.55954 1.88045,-0.0816 3.7974,-2.73804 5.22277,-2.29368 a 3.4915117,3.4915117 0 0 1 -1.92768,2.29368 z m -81.29008,295.89194 c 0.9939,0.93164 1.93198,1.42751 0.42933,2.18206 -0.18246,1.54987 -0.24794,3.42711 -2.14664,3.59562 -1.07332,2.19924 -3.38418,0.4347 -2.24753,-1.53055 0.29731,-0.55276 2.48151,-0.0612 2.5384,-1.72376 1.02609,-0.9853 0.0472,-1.79995 -0.24794,-2.42033 0.94774,0.30375 1.21285,-2.46005 1.92554,-0.47227 l -0.0719,0.20394 -0.1771,0.16743 v 0 z m 69.55117,71.61624 a 6.5837482,6.5837482 0 0 0 5.12618,1.73019 c 0.14919,1.03361 -0.5592,4.97699 -0.99604,2.13054 -0.0784,-2.00174 -2.79063,-0.74488 -3.66324,-0.71805 a 6.1866196,6.1866196 0 0 1 -4.50795,-2.94197 c 1.49406,-0.65795 -2.02965,-2.79922 0.60106,-3.12873 1.42966,0.55813 1.72161,2.72087 3.43999,2.92802 z m 29.54745,-442.22095 c 1.5767,-0.16099 0.26403,-1.54343 -0.12451,-0.14597 -0.75132,-0.6558 -0.10733,-1.29442 -1.05185,-0.96599 -0.45724,-1.37707 -1.59067,1.38137 -1.62608,-0.77064 1.81498,-1.10445 4.07861,-0.27155 5.43529,1.19031 1.00999,2.99349 -2.91192,2.39029 -4.699,2.21856 -0.82967,-1.68512 0.93701,-2.06937 1.91373,-1.27726 l 0.15242,-0.24793 v 0 z m 286.78588,171.566 c -1.86007,-0.25008 -2.39351,-3.31763 -4.46287,-3.93801 -1.15597,-1.05937 -2.79707,-2.62427 -3.02569,-3.97129 0.8168,-2.59314 4.46072,-2.52338 5.85496,-0.46904 a 23.627005,23.627005 0 0 0 4.21923,5.15194 c 1.49191,1.3234 -1.40176,2.99027 -2.58563,3.2264 z M 168.30276,313.4003 c -1.16455,1.79888 -1.79459,-2.14664 -2.60817,-2.80566 a 7.2320338,7.2320338 0 0 1 -1.90514,-5.02851 c 0.79855,-0.79533 -2.02858,-2.796 0.50661,-2.45576 2.17991,-0.3338 2.08439,2.2046 2.79063,3.65573 0.41216,1.89871 1.20534,3.45073 1.73985,5.21098 a 0.97779501,0.97779501 0 0 1 -0.52378,1.42322 z M 89.349297,289.35255 c 1.160259,0.56993 1.793518,3.10619 0,1.59603 -1.120547,-1.40605 -4.646405,0.75884 -3.069697,-2.24217 0.187831,-2.55879 -3.739449,-2.59958 -3.883274,-4.39095 -0.197491,-1.60998 1.096934,-2.60602 1.649694,-0.63004 0.774937,1.9631 3.192055,1.8386 3.552691,4.12477 0.392835,0.77172 1.345944,0.83504 1.750586,1.54236 z M 546.47652,720.62348 c 1.1667,0.2093 4.7312,1.27725 3.37238,2.43429 -1.73127,1.14201 -3.2307,2.31408 -5.39237,2.39458 -1.14094,0.93057 -3.4797,0.8447 -2.52981,-1.08191 1.33091,-0.68907 2.14664,-2.06614 0.34346,-3.0536 -1.47796,-0.67619 -2.39673,-3.08901 0.0708,-2.61783 1.17099,1.14094 3.86181,-0.002 4.13014,1.92984 z m -391.44,-407.39062 c 0.96599,0.35849 4.29328,1.40927 2.25397,2.59744 -2.29154,-0.21467 1.30302,-1.02395 -0.67726,-1.44147 -1.22895,0.83933 -3.20494,-1.72483 -3.8339,0.0826 -1.57456,0.0902 -2.54485,-1.60998 -0.39069,-1.09693 0.61609,-0.82217 1.84182,-0.37244 2.64359,-0.14061 z m 490.31214,340.97032 c -0.41859,1.31804 1.83109,3.73409 -0.44864,3.48508 -0.58174,-1.59496 -1.06152,-0.62468 -1.95345,-0.26404 -1.2268,-1.39532 -3.64929,-0.41001 -4.82994,-1.97062 -0.62575,-0.55598 -2.46864,-2.48152 -0.47226,-1.88046 1.30945,1.40713 5.08325,0.688 3.78238,-1.59924 1.42859,-0.61287 2.72087,1.66257 3.92191,2.22928 z m 289.08387,-75.29236 c -2.56953,0 -0.34883,-3.9305 -1.87188,-5.39344 -0.41322,-1.4039 0.95955,-4.95444 2.59207,-3.21996 1.89012,2.05541 -2.62963,3.35306 -0.9531,5.61884 0.15026,0.99496 0.1728,1.9953 0.23183,2.99456 z M 123.65907,329.27149 c -2.12303,1.14738 -3.51191,-1.45757 -1.84504,-2.92909 1.21607,-0.50554 -0.42933,-3.48293 1.25579,-2.64466 1.1302,1.04434 1.53806,1.94056 0.83182,3.35305 -0.23828,0.73093 0.65794,1.72697 -0.24257,2.2207 z m 201.0426,248.71305 c -2.03073,0.6236 -2.67579,-2.35486 -3.63212,-3.61387 1.57456,-0.34238 1.16884,-2.76165 3.23713,-1.93841 0.90374,0.90266 3.83712,2.77238 1.742,3.82531 -1.19997,0.29624 -0.0547,1.60998 -1.34701,1.72697 z m 330.36806,219.73555 c 1.36634,1.10338 -0.59999,4.1237 -1.76347,3.9348 -0.88119,-1.59496 2.14664,-2.27759 0.58174,-3.99598 -0.44435,-1.93734 1.42215,-1.54021 1.17744,0.0644 z M 263.17786,510.51776 c -2.37848,0.50339 -2.27329,-2.55128 -2.63071,-4.07862 -0.35956,-0.90373 -1.61964,-3.82102 0.25438,-2.00067 2.32052,0.56564 1.73341,3.3273 2.69081,5.07466 a 1.0389743,1.0389743 0 0 1 -0.31448,1.00463 z m 309.26443,236.24966 c -1.19246,1.64862 -2.15844,3.81565 -4.51868,2.62749 -1.99423,-0.63219 -0.20393,-2.26363 1.18066,-1.67331 0.94237,-0.52914 2.43214,-2.68867 3.33802,-0.95418 z m 62.35993,-96.73623 a 4.3855877,4.3855877 0 0 1 -5.24961,0.33058 c 0.31341,-1.73234 2.42033,0.53666 3.41638,-0.893 0.45508,-0.6719 3.75984,0.31555 1.83859,0.56349 z m 261.6412,-126.74735 c -2.26793,-0.0204 -4.02388,-2.44073 -5.63064,-3.70403 1.41464,-1.2955 3.28865,0.84041 4.50795,1.66794 a 1.7173129,1.7173129 0 0 1 1.12269,2.03609 z M 478.05234,674.6757 c -1.59496,1.06259 -3.49259,-0.10733 -2.14664,-1.91051 -0.14275,-1.12699 -0.10734,-2.83679 1.6937,-1.65506 a 2.9344584,2.9344584 0 0 1 0.45401,3.56557 z m 58.58935,44.30452 c 1.2429,0.49803 3.77057,-0.37458 3.19635,2.08225 1.01536,2.57597 -1.88583,2.49976 -2.78527,0.85114 -1.69692,0.527 -2.25397,-2.18528 -2.35594,-2.96988 0.64829,-0.0483 1.29657,0.0601 1.94486,0.0365 z M 103.75755,301.29324 c 1.00356,0.61931 5.05963,1.10338 2.55021,2.64788 -1.56168,0.12236 -2.84215,-2.01677 -3.39706,-2.88508 a 0.92734895,0.92734895 0 0 1 0.84685,0.2372 z M 380.7569,613.40412 c 0.89301,0.88013 2.25398,3.48615 0.0472,1.98994 -1.99316,0.15778 -1.18924,-1.09264 -0.44113,-1.57778 -0.0676,-0.22755 0.25652,-0.35098 0.3939,-0.41216 z M 651.98501,356.64975 c -2.10586,0.7642 -0.72128,-2.39887 0.50982,-1.42108 a 1.0733205,1.0733205 0 0 0 -0.51412,1.42001 z M 97.087938,272.76546 c 1.088347,2.08546 -1.972763,-0.36171 -3.011738,0.26511 -1.461862,-1.60998 2.755214,-3.48722 2.762727,-1.34487 a 1.7108729,1.7108729 0 0 0 0.249011,1.07976 z M 31.757063,208.54225 c -2.023209,0.94237 -2.126248,-1.25364 -0.26833,-1.37707 -0.305896,-1.47689 1.858991,-3.69437 1.649694,-0.98316 1.272958,0.87583 -0.766351,1.88045 -1.381364,2.36023 z m 253.389517,318.5669 c -1.44469,0.54417 -2.15308,0 -0.69014,-0.97779 -0.22325,-1.25686 0.12236,-1.73878 1.45327,-1.00356 1.41571,0.14812 0.009,2.06185 -0.76313,1.98135 z m 209.91789,154.9306 c 0.16851,1.46616 -0.3338,5.79593 -2.40102,3.50761 -1.67009,-0.77923 -0.0558,-4.011 1.24827,-2.76702 0.69122,-0.13846 0.33273,-1.34379 1.15275,-0.74059 z M 331.21994,574.12703 c 0.37996,1.1345 -1.68082,2.31086 -0.69336,0.62038 l 0.34775,-0.30268 0.34561,-0.32199 v 0 z m 0,0 c -0.58389,-1.04649 0.55491,-4.63352 0.72557,-1.90085 -0.12558,0.67619 -0.60536,1.22144 -0.72557,1.90085 z m 198.8863,140.65866 c -0.67405,1.76454 -3.57094,-2.8443 -1.00141,-1.65936 0.37566,0.52593 0.6558,1.11304 0.99926,1.65936 z m 146.83669,85.77334 c -1.39532,0.17173 -3.0053,-0.30805 -1.4522,-1.65614 0.18568,0.70625 2.86039,1.11626 1.45005,1.65506 z M 119.97007,327.22467 c -0.88979,0.42932 -3.54733,-0.0676 -2.4944,-1.07332 0.92735,-0.15027 2.8926,-0.51842 2.49225,1.07117 z m -13.91991,-38.22953 c 2.61998,-0.68586 0.59248,4.38022 0.40679,1.49084 a 13.265169,13.265169 0 0 0 -0.40679,-1.49084 z M 654.97313,676.2728 c -0.86832,0.71698 -2.14664,-1.62608 -2.92909,-2.19279 0.99175,-1.13236 2.19601,1.55309 2.92909,2.19279 z m -17.6894,-319.55221 c -0.33273,1.83538 -2.97631,-0.18783 -0.50446,-0.24257 l 0.25223,0.088 z M 777.57639,790.1446 c -2.34843,0.40679 -1.43718,-4.29329 -0.0172,-2.95807 -0.28229,1.03253 0.81894,2.06828 0.0172,2.95807 z M 637.85367,778.82321 c -0.26619,1.21607 -2.40102,0.9778 -2.53626,-0.65043 1.26867,0.0483 2.09942,-1.50802 2.53626,0.65043 z M 581.09326,346.75266 c -0.30805,1.72805 -4.30939,2.48688 -3.44107,0.35956 a 12.441932,12.441932 0 0 0 3.44107,-0.35956 z m 71.12466,74.4541 c -2.82928,1.22466 -0.3542,-3.54196 1.10444,-1.16026 0.37996,0.61394 -0.6719,1.03146 -1.10337,1.16026 z M 99.509349,278.3478 c -0.858656,1.34379 -2.206747,-0.5914 -0.477628,-0.97243 0.574227,-1.11304 2.683299,-1.60998 1.168849,-0.0172 a 3.5537643,3.5537643 0 0 1 -0.690148,0.98424 z M 514.82967,703.44069 c -0.90696,-0.14383 -2.65433,-0.47119 -2.92266,-1.4039 0.69444,-0.84471 2.50621,0.74917 2.92266,1.4039 z m -84.80091,-67.28217 c -1.01644,0.35419 -0.94989,-1.59388 -1.58959,-2.00282 1.71087,-1.18816 1.49728,1.01536 1.58959,2.00282 z m -0.75133,0.78674 c -1.87294,1.75917 -1.18065,-1.63896 -2.40209,-2.38384 0.30482,-1.54988 2.71765,1.41571 2.39673,2.38814 z m 144.87466,115.25853 c -1.58422,2.11122 -1.23432,-3.64929 -0.0547,-1.39532 0.0655,0.46582 -0.0365,0.93379 0.0547,1.39532 z M 87.638424,254.91506 c -1.588515,1.53914 -1.587441,-3.28758 -0.199638,-2.82068 0.777084,0.63003 0.579593,2.0436 0.199638,2.82068 z M 563.90295,606.18175 c -3.01388,1.23324 0.68693,-3.40672 0.80178,-0.75884 a 0.66545874,0.66545874 0 0 1 -0.80178,0.75884 z m -61.50126,72.40084 c 0.48407,1.58207 -1.40176,-0.49802 0.001,0 z m 63.83466,62.22468 c -0.11913,1.29443 -1.98349,-1.99101 -0.20393,-2.03072 2.08224,-1.68189 1.05293,1.39854 0.20393,2.03072 z m 45.73741,30.55529 c -1.74951,0.68585 -2.74555,-3.50546 -1.60461,-2.83571 0.18032,1.13664 1.14094,1.83323 1.60461,2.83786 z m 165.73465,21.66283 c -1.35131,2.3012 -3.90689,-1.38458 -0.98638,-1.59066 0.69014,0.4143 1.23753,0.67726 0.98638,1.59173 z M 631.62948,414.81836 c 0.0311,1.89226 -2.92158,-1.50265 -0.42181,-0.75133 a 3.2489413,3.2489413 0 0 1 0.42074,0.7524 z m -76.77569,300.96766 c 0.48621,2.16489 -3.27792,0.85866 -0.80821,0.10733 0.34132,-0.14919 0.70088,-1.11625 0.80821,-0.10733 z m 306.44804,159.7101 c -1.76454,0.26404 0.10733,-3.60528 0.78245,-1.054 a 3.0149574,3.0149574 0 0 1 -0.78245,1.05078 z m 11.29455,20.85247 c -1.77312,0.70625 -2.28724,-1.03683 -0.39176,-1.27725 1.56812,-0.89622 1.73663,0.849 0.39176,1.27296 z M 498.82324,678.65557 c -0.0215,1.47796 -1.05615,1.77527 -1.21071,0.17817 -0.26082,-0.95633 2.58563,-1.48118 1.21071,-0.17817 z M 102.35687,287.15976 c -1.6937,0.72342 -2.25397,-1.38137 -0.40894,-1.376 a 0.73737121,0.73737121 0 0 1 0.40894,1.376 z m 539.79545,69.75188 c -1.37171,0.5592 -1.98028,-1.15919 -0.27155,-0.17281 z m -71.55614,358.11233 c -1.1667,0.60427 -2.73375,0.11269 -0.95525,-0.82753 0.85865,-1.10445 4.20956,-0.059 1.82464,0.75132 l -0.44221,0.0204 -0.42932,0.0569 v 0 z M 897.92245,563.74051 c -1.52411,2.43 -2.31515,-2.27007 -0.12772,-1.76347 a 1.1688461,1.1688461 0 0 1 0.12772,1.76347 z m -448.6394,-28.86588 c -0.69765,1.42859 -2.1724,-1.03147 -0.32951,-0.33703 z m -119.7332,43.42332 c -0.18031,2.0801 -2.2003,-1.03468 -0.14382,-0.69336 1.12055,-0.15671 1.13021,0.1728 0.14382,0.69336 z M 645.57513,358.2447 c -1.22895,1.37815 -2.31729,-1.15596 -0.23183,-0.77493 0.73308,0.0547 0.72127,0.29087 0.23183,0.77493 z m -61.50126,376.34483 c -2.62964,0.96598 -1.48011,-3.77595 0.0526,-1.42859 a 4.5251194,4.5251194 0 0 1 -0.058,1.42859 z m 75.18288,-384.92388 c -1.45971,0.54525 -1.70336,-1.88045 -0.53666,-1.41893 -0.0934,0.59462 0.47119,0.88227 0.5313,1.41893 z m -90.05159,374.65327 c -0.14812,1.69477 -2.19172,-2.27437 -0.13417,-1.05829 0.41538,0.15885 0.72986,0.82753 0.12451,1.05829 z M 902.6998,551.45099 c -1.53377,1.26652 -3.49473,-3.26934 -0.74166,-2.32159 0.893,0.41215 0.57959,1.54236 0.74166,2.32159 z M 506.24632,688.92618 c -2.14664,0.43684 -1.79352,-2.64145 0.22218,-1.23862 0.31878,0.37459 0.38317,1.12377 -0.22218,1.23862 z m 65.59491,34.79597 c -0.93701,1.30087 -1.74951,-2.6511 -0.0741,-0.67726 a 1.088347,1.088347 0 0 1 0.0741,0.67834 z m -44.75746,-12.32172 c -0.87798,1.94594 -3.44107,-2.81746 -1.01644,-0.87797 a 9.7822434,9.7822434 0 0 1 1.01429,0.87583 z M 889.3595,880.47311 c -1.78171,1.81176 -0.85114,-3.82424 0.10734,-1.27833 0,0.42933 -0.0676,0.85329 -0.10734,1.27833 z M 620.49271,366.31929 c -2.75951,0.77816 1.39531,-1.66901 0,0 z M 36.405614,209.94293 c -1.38673,1.6175 -1.432883,-2.25397 -0.214664,-0.27799 z M 735.01601,812.18309 c -0.73415,2.16488 -2.66506,-1.96955 -0.31663,-0.56028 l 0.15778,0.28014 z M 498.75562,682.6129 c -1.50265,1.67975 -1.09586,-2.71657 0.0955,-0.63111 l -0.0891,0.30375 -0.006,0.322 v 0 z m 186.70196,21.75836 c -1.64969,0.99497 -0.0547,-1.66901 0.45079,-0.16851 z M 224.75942,465.92988 c -1.67974,0.26189 -0.6719,-1.40927 0.52164,-0.6236 1.67008,0.39498 0.17924,0.75455 -0.52164,0.6236 z m 356.73097,289.17939 c 0.34668,1.73556 -3.05145,-0.93916 -0.60965,-0.46368 0.23506,0.0333 0.66009,0.12236 0.60965,0.46368 z M 87.415173,245.62118 c -2.180987,0.7803 -1.796738,-1.98564 0.03649,-0.98316 0.385322,0.2533 -0.01503,0.67726 -0.03649,0.98316 z M 654.45042,353.71851 c -1.08298,1.42215 -1.24505,-1.79459 -0.23935,-0.65258 a 0.45508791,0.45508791 0 0 0 0.23613,0.65258 z m -44.27554,45.0376 c -1.06796,0.9134 -3.69437,-0.64399 -1.93198,-1.42859 1.02609,-0.15885 1.39424,0.7685 1.92983,1.42752 z M 87.415173,257.49103 c -1.327697,0.75133 0.449721,-1.64218 0.31019,-0.37244 z m 25.258457,35.46359 c -1.38995,0.89944 -1.57993,-1.71732 -0.26081,-0.21467 z m 523.54108,65.3899 c -2.20782,0.3864 -0.24687,-1.65398 0.21466,-0.15348 z m 100.91681,459.7107 c -0.76313,1.35883 -3.27255,-0.52163 -0.71697,-0.38854 0.3016,0.0601 0.87797,-0.43147 0.71697,0.38532 z M 322.16756,405.22609 c -1.8064,0.40572 -0.7363,-2.57597 -0.0462,-0.40249 z M 125.54919,337.16147 c -1.10874,0.95096 -0.46046,-1.77205 0.35526,-0.39713 l -0.15885,0.17602 -0.19534,0.22218 v 0 z m 472.91147,33.01748 c -1.55525,1.54237 -0.42397,-3.29616 0,-0.80499 l -0.0601,0.31127 0.0623,0.49372 v 0 z m 32.16634,40.44594 c -0.81358,1.38995 -2.08224,-1.5928 -0.17066,-0.66975 a 0.75132438,0.75132438 0 0 1 0.17066,0.66975 z M 374.53057,613.06817 c -1.65506,0.0751 1.40498,-1.07332 0,0 z m 305.83732,186.32201 c -1.00462,1.63145 -1.43395,-2.34306 -0.24042,-0.35205 z M 571.10386,727.89415 c -1.08405,1.56705 -1.93197,-1.76883 0.006,-0.56456 l 0.0773,0.22432 -0.0837,0.33917 v 0 z m 314.16093,134.7511 c -0.56779,1.01536 -1.1828,-0.94237 0.003,0 z m 11.56288,45.78356 c -2.23895,0.82753 -0.1932,-3.36056 0.059,-0.84255 a 2.2947593,2.2947593 0 0 0 -0.0558,0.84255 z M 622.71233,400.94783 c 0.44114,1.73127 -1.71731,-0.53666 0,0 z m -53.42882,338.7668 c -1.13665,1.28799 -0.80284,-1.1506 0.527,-0.52807 1.75703,-0.10626 0.28336,0.56456 -0.527,0.52807 z m 83.31114,62.89658 c -1.44361,0.89623 -0.39283,-2.01998 0,-0.004 z M 561.6565,723.13076 c -1.33951,0.10518 0.38102,-1.56276 0,-0.003 z M 56.867397,103.48349 c -1.162406,1.71087 -2.224993,-0.98102 -0.291943,-0.75133 a 0.67619194,0.67619194 0 0 1 0.291943,0.75133 z m 68.658173,228.88775 c 1.18817,1.05507 -1.33091,0.3499 0,0 z m 2.13376,12.31957 c -0.27155,1.37063 -0.2694,-1.36419 0,0 z m 254.38663,91.46945 c -1.52519,1.3438 -1.49191,-2.43107 -0.21466,-0.42933 z m 98.27645,241.58943 c -1.36312,1.14631 0.60643,-2.08332 0,0 z m 52.31901,27.86125 c -0.13738,1.03254 -1.81176,0.26511 10e-4,-10e-4 z m 1.84611,23.88031 c -0.99711,1.51768 -2.43,-1.3395 -0.66546,-0.19749 a 1.2471985,1.2471985 0 0 0 0.66546,0.19749 z m 181.72068,97.04428 c -1.34272,0.91662 -1.30623,-1.30194 0,0 z m -73.70707,-29.26516 c -1.47581,0.61394 -0.35741,-2.40209 -0.0816,-0.28014 z m 242.67778,64.15988 c 0.10733,1.86436 -1.71731,-1.18065 -0.18568,-0.16099 z m -20.67859,25.1157 c -0.54203,2.02965 -1.80748,-0.86509 0.001,0.004 z m -88.88275,-94.9996 c -2.13591,0.90911 0.53666,-2.14664 0.26618,-0.14704 z m 125.23504,109.9896 c -2.56094,-0.16207 1.57778,-1.28799 0.32951,-0.0365 z M 653.53703,354.35714 c -0.65473,1.4844 -1.06474,-1.02932 0,0 z m -342.73272,45.4079 c -1.74629,0.16743 1.20105,-1.30302 0,0 z M 157.56956,290.47417 c -1.78386,0.80392 -0.26619,-2.23465 0,0 z m -49.74091,9.22304 c -1.24826,1.09908 -0.15026,-1.91695 -0.003,-10e-4 z M 38.030622,223.58162 c 0.361709,1.24719 -0.994969,0.42181 -0.0032,0 z m -1.424297,-2.97954 c 0.973502,0.66331 -0.839336,0.62574 0,0 z M 862.168,879.14863 c 0.3982,2.47078 -1.56168,-0.55491 -10e-4,0 z m 9.96149,8.29462 c -1.09801,1.01965 -0.19964,-1.42752 -10e-4,0 z M 572.08595,732.07581 c -0.25223,1.32555 -1.19139,0.25223 0,0 z m 9.04809,29.05049 c -1.10552,0.68585 -0.61394,-0.87153 -0.003,0 z m 60.01365,9.10498 c 0.50017,1.9631 -1.96311,-0.5592 -0.003,-10e-4 z m 18.65324,18.92372 c -1.89549,1.42107 0.54202,-2.16811 -0.003,-10e-4 z M 464.82796,552.16582 c -0.20501,1.34702 -1.20642,-0.50124 -0.003,-0.001 z m -37.44601,94.47045 c -1.63145,0.79211 -0.89193,-1.89119 -0.002,-10e-4 z m 13.45192,-137.67912 c -0.87368,0.67512 -0.29945,-0.99604 -0.002,-0.001 z M 655.26829,351.94324 c -0.29945,0.90051 -0.92091,-0.45509 0,0 z m -516.13838,-21.5394 c -1.58422,2.33662 -1.14631,-1.33306 0,0 z M 99.288245,297.9198 c -1.180653,1.32125 -0.214664,-1.05186 0,0 z M 36.498993,211.93716 c -0.926275,1.48977 -0.867243,-1.77312 -0.0054,0 z m 57.229452,37.9333 c 0.370295,1.5327 -1.423224,-0.31234 0,0 z M 478.20904,547.70617 c 0.31663,1.04005 -1.18924,0.17603 0,0 z m -27.08095,-31.6007 c -1.1184,0.67726 -1.23861,-1.22359 0,0 z m -22.86173,117.61339 c -0.55598,0.93701 -1.11947,-0.62467 0.002,0.001 z M 246.2795,483.26401 c -0.38103,0.99819 -1.44898,-0.41967 0,0 z M 93.138118,341.19286 c -0.463674,1.2472 -1.0701,-0.6075 0,0 z M 302.62239,559.40859 c 0.23935,1.2107 -0.90588,0.42932 0,0 z m 237.81992,160.5827 c 0.0322,2.99886 -1.2107,-1.92983 0,0 z m -41.91102,-23.83415 c -0.42932,1.21822 -1.68618,-0.73201 0,0 z m 363.85567,158.25038 c -0.53666,1.16348 -2.19172,1.05829 -0.73415,-0.088 a 0.54632016,0.54632016 0 0 1 0.73522,0.0912 z M 550.07,720.58699 c -1.26115,0.56886 -0.96384,-1.65721 0,0 z M 357.96387,421.84968 c -1.29335,0.61072 -0.40357,-1.71409 0,0 z M 36.292916,213.03409 c -0.693365,1.09479 -0.695512,-1.1141 0,0 z m 3.112629,25.28636 c -1.081907,0.55169 -0.330582,-1.30837 -0.0011,0 z m -1.446836,-12.67913 c -1.030388,0.88334 -0.149191,-1.26545 0,0 z m 114.315081,156.5277 c -0.36063,1.22251 -1.08942,-0.54203 0,0 z m 160.30901,29.1707 c -1.16026,0.97995 -1.39209,-1.3878 0,-10e-4 z m -5.98161,-11.89346 c -0.36171,1.29872 -1.05615,-0.5914 0.001,-10e-4 z m 30.23973,9.58046 c -1.00141,1.24612 -1.45328,-1.62072 0,0 z m 8.31609,5.88716 c -0.47441,1.48011 -1.40176,-0.28872 0,0 z m 296.1506,-57.3722 c -0.67082,1.14416 -0.72342,-1.10767 0,0 z m 4.82458,-0.8812 c -0.93486,1.16348 -1.12806,-0.73737 0,0.005 z m 11.13785,-5.86355 c -0.688,1.14631 -0.7567,-1.10766 0,0 z m -48.07832,42.10744 c -1.64433,0.20393 0.51841,-2.70369 0,-0.35098 z m 163.93683,12.66518 c 0.70517,1.18173 -1.18065,0.17603 0,0.002 z m -111.12839,261.3235 c -1.11411,0.56457 -0.34776,-1.30408 0,0 z m -62.25259,-40.32358 c -1.10338,0.58711 -0.3542,-1.28798 -0.004,0 z M 492.0377,682.14494 c 0.31449,1.13235 -1.00033,-0.11163 0,0 z m -39.26743,-21.51471 c -0.35956,1.30623 -1.04863,-0.6279 0,0 z m 20.57019,-107.72597 c -1.054,0.52808 -0.59677,-1.05078 0,0 z M 265.2923,510.76677 c -0.65902,0.94989 -1.30945,-0.34024 0,0 z m 368.57827,270.54655 c -0.93808,1.52304 -1.14201,-1.52734 0.003,0 z m -28.21759,-11.96431 c -0.54096,0.92842 -1.21178,-0.38317 0.004,10e-4 z M 583.417,756.14717 c -1.55632,0.3821 -0.21789,-1.66687 0.004,0 z m -4.33622,-25.14468 c 0.41108,0.83182 -0.93271,0.39605 0.004,-10e-4 z m 0.82431,2.62319 c -2.14557,0.47226 -0.56349,-1.34809 0.004,0 z m -26.6806,8.72073 c -0.78031,0.47334 -0.34239,-0.9413 0.004,0 z m 318.05922,143.83247 c 0.52271,1.16992 -0.97243,0.6515 0,0 z m -6.24994,-33.8901 c 0.89407,2.34521 -1.5531,0.13739 0,0 z m -1.08942,-0.30911 c -0.53881,2.17669 -2.16167,-0.85437 0,10e-4 z m -2.02214,-2.12196 c -1.10123,0.58925 -0.35098,-1.28906 0,-10e-4 z m -3.53552,31.86474 c -0.54954,1.40176 -1.55631,-0.4787 10e-4,10e-4 z M 584.62233,735.1015 c -0.53236,0.74918 -1.01858,-0.65687 0,0 z m 16.16636,38.96153 c 0.95847,0.89301 -1.25257,0.18462 0,0.004 z m 62.3449,8.2474 c -0.56672,0.80821 -0.56672,-0.83075 -10e-4,0.004 z M 374.81929,611.79414 c -0.51626,1.06688 -0.64506,-0.75132 0,0 z m -22.4603,-30.69697 c -0.88442,0.322 -0.0891,-0.93915 0,0 z m -2.59851,-4.38558 c 0.4465,1.13235 -1.13987,0.6676 0,0 z m 177.96513,135.00869 c 1.22895,1.13021 -1.92124,0.0547 0,0 z m 87.66775,-313.0511 c 0.40894,1.15811 -1.10552,0.64291 0,0.003 z m 33.54234,-41.43554 c -0.47763,1.42 -1.25042,-1.32878 0,0 z m -36.55944,42.24911 c -0.41216,1.19675 -1.37707,-0.83826 -0.005,-0.001 z m -227.70818,29.01508 c 0.9134,0.61716 -0.76957,0.6397 0,0 z m 22.92506,41.77685 c -0.90588,0.34776 -0.11592,-1.04649 0,0.001 z m -7.96297,-23.18372 c -0.25008,1.05829 -0.98209,-0.37352 0,-0.004 z M 126.55059,276.06699 c -0.34239,1.31696 -0.89944,-1.32233 0,0 z m -5.80129,61.72452 c 0.37137,1.27188 -1.0862,0.76527 -0.004,0 z m -10.68385,8.82162 c 0.5195,0.94345 2.82285,0.322 0.966,-0.34239 a 1.0368276,1.0368276 0 0 0 -0.97029,0.34239 z"
     style="fill:#000000;fill-opacity:1" />
  <metadata
     id="metadata99">
    <rdf:RDF>
      <cc:Work
         rdf:about="">
        <dc:title>Nouvelle Calédonie</dc:title>
      </cc:Work>
    </rdf:RDF>
  </metadata>
</svg>
